<svg width="19" height="17" viewBox="0 0 19 17" fill="none" xmlns="http://www.w3.org/2000/svg">
<g clip-path="url(#clip0_4_2441)">
<path d="M274.654 -179.5H-27.1924V47.1667H274.654V-179.5Z" fill="#D8D8D8"/>
<path d="M18.5 0.5H0.5V2.27333H18.5V0.5Z" fill="#DC4437"/>
<path d="M18.5 4.06006H0.5V5.83339H18.5V4.06006Z" fill="#DC4437"/>
<path d="M18.5 11.1667H0.5V12.9401H18.5V11.1667Z" fill="#DC4437"/>
<path d="M18.5 14.7266H0.5V16.4999H18.5V14.7266Z" fill="#DC4437"/>
<path d="M18.5 7.60669H0.5V9.38002H18.5V7.60669Z" fill="#DC4437"/>
<path d="M18.5 2.27344H0.5V4.04677H18.5V2.27344Z" fill="white"/>
<path d="M18.5 5.83325H0.5V7.60659H18.5V5.83325Z" fill="white"/>
<path d="M18.5 12.9399H0.5V14.7133H18.5V12.9399Z" fill="white"/>
<path d="M18.5 9.39331H0.5V11.1666H18.5V9.39331Z" fill="white"/>
<path d="M10.1923 0.5H0.5V9.39333H10.1923V0.5Z" fill="#2A66B7"/>
<path d="M2.36952 1.03345L2.68798 1.68678L3.40798 1.79345L2.88182 2.31345L3.00644 3.03345L2.36952 2.68678L1.73259 3.03345L1.85721 2.31345L1.33105 1.79345L2.05105 1.68678L2.36952 1.03345Z" fill="white"/>
<path d="M5.20741 1.03345L5.52587 1.68678L6.24587 1.79345L5.73356 2.31345L5.84433 3.03345L5.20741 2.68678L4.57048 3.03345L4.68125 2.31345L4.16895 1.79345L4.88895 1.68678L5.20741 1.03345Z" fill="white"/>
<path d="M8.04627 1.03345L8.36474 1.68678L9.08474 1.79345L8.55858 2.31345L8.6832 3.03345L8.04627 2.68678L7.40935 3.03345L7.53397 2.31345L7.00781 1.79345L7.72781 1.68678L8.04627 1.03345Z" fill="white"/>
<path d="M3.82264 3.69995L4.1411 4.35328L4.8611 4.45995L4.3488 4.97995L4.45956 5.69995L3.82264 5.35328L3.18572 5.69995L3.29649 4.97995L2.78418 4.45995L3.50418 4.35328L3.82264 3.69995Z" fill="white"/>
<path d="M6.66151 3.69995L6.97997 4.35328L7.69997 4.45995L7.17382 4.97995L7.29843 5.69995L6.66151 5.35328L6.02459 5.69995L6.1492 4.97995L5.62305 4.45995L6.34305 4.35328L6.66151 3.69995Z" fill="white"/>
<path d="M2.36952 6.52661L2.68798 7.17994L3.40798 7.28661L2.88182 7.79328L3.00644 8.52661L2.36952 8.17994L1.73259 8.52661L1.85721 7.79328L1.33105 7.28661L2.05105 7.17994L2.36952 6.52661Z" fill="white"/>
<path d="M5.20741 6.52661L5.52587 7.17994L6.24587 7.28661L5.73356 7.79328L5.84433 8.52661L5.20741 8.17994L4.57048 8.52661L4.68125 7.79328L4.16895 7.28661L4.88895 7.17994L5.20741 6.52661Z" fill="white"/>
<path d="M8.04627 6.52661L8.36474 7.17994L9.08474 7.28661L8.55858 7.79328L8.6832 8.52661L8.04627 8.17994L7.40935 8.52661L7.53397 7.79328L7.00781 7.28661L7.72781 7.17994L8.04627 6.52661Z" fill="white"/>
</g>
<defs>
<clipPath id="clip0_4_2441">
<rect x="0.5" y="0.5" width="18" height="16" rx="2" fill="white"/>
</clipPath>
</defs>
</svg>
