<svg width="95" height="95" viewBox="0 0 95 95" fill="none" xmlns="http://www.w3.org/2000/svg">
<g clip-path="url(#clip0_2_64417)">
<path d="M95 0H0V95H95V0Z" fill="#845BFF"/>
<g opacity="0.2">
<path d="M47.4254 85.5926C64.291 85.5926 77.9632 83.8754 77.9632 81.757C77.9632 79.6387 64.291 77.9214 47.4254 77.9214C30.5599 77.9214 16.8877 79.6387 16.8877 81.757C16.8877 83.8754 30.5599 85.5926 47.4254 85.5926Z" fill="#371A45"/>
</g>
<path d="M58.0406 77.1593H36.8461C34.2597 77.1593 32.1436 75.0432 32.1436 72.4568V51.2623C32.1436 48.6759 34.2597 46.5598 36.8461 46.5598H58.0406C60.6269 46.5598 62.7431 48.6759 62.7431 51.2623V72.4568C62.7454 75.0432 60.6269 77.1593 58.0406 77.1593Z" fill="white"/>
<path d="M58.0402 77.575H36.8457C34.0242 77.575 31.7275 75.2784 31.7275 72.4569V51.2624C31.7275 48.4409 34.0242 46.1443 36.8457 46.1443H58.0402C60.8617 46.1443 63.1583 48.4409 63.1583 51.2624V72.4569C63.1583 75.2784 60.864 77.575 58.0402 77.575ZM36.848 46.9755C34.4825 46.9755 32.5612 48.8993 32.5612 51.2624V72.4569C32.5612 74.8224 34.4849 76.7438 36.848 76.7438H58.0425C60.408 76.7438 62.3294 74.82 62.3294 72.4569V51.2624C62.3294 48.8969 60.4057 46.9755 58.0425 46.9755H36.848Z" fill="#371A45"/>
<path d="M60.5104 78.4088H34.1027C34.1027 78.4088 34.0172 73.6065 34.5469 66.9636C34.9696 61.646 35.7866 55.1528 37.3565 48.9944L57.4941 49.0348C59.3252 55.2335 60.1209 61.7719 60.4415 67.1038C60.8381 73.673 60.5104 78.4088 60.5104 78.4088Z" fill="white"/>
<path d="M60.5104 78.4089H34.1027C34.1027 78.4089 34.0172 73.6066 34.5469 66.9638C38.221 65.9116 42.5815 65.3013 47.2602 65.3013C52.1385 65.3013 56.6724 65.9639 60.4439 67.1015C60.8381 73.6731 60.5104 78.4089 60.5104 78.4089Z" fill="#D8D8D8"/>
<path d="M57.6934 48.9755C59.42 53.6447 60.0993 58.6275 60.6265 63.5532C60.9804 67.2606 61.1324 70.987 61.073 74.7086C61.054 76.0766 60.9994 77.4494 60.8973 78.8245H60.5078H47.0201V77.9932H47.5901V78.8245H34.1049H33.6893C33.599 72.4832 33.998 66.142 34.8625 59.8625C35.385 56.1789 35.9883 52.4881 37.1568 48.9446C37.1924 48.8354 37.3111 48.776 37.4204 48.8116C37.5201 48.8449 37.5771 48.9446 37.5605 49.0444C37.133 51.4787 36.6628 53.8917 36.2661 56.3237C35.1048 63.6174 34.5751 71.0202 34.5205 78.4017L34.1049 77.9932H47.5925V78.8245H47.0225V77.9932H60.5101L60.0969 78.3804C60.1301 77.7747 60.1468 77.1572 60.161 76.5445C60.2798 71.0107 60.0185 65.4627 59.3084 59.9741C58.8619 56.3024 58.0568 52.7137 57.2968 49.0919C57.273 48.9802 57.3466 48.8686 57.4583 48.8449C57.558 48.8235 57.6578 48.8805 57.6934 48.9755Z" fill="#371A45"/>
<g opacity="0.35">
<path d="M47.3555 69.2917C47.4671 69.4604 47.574 69.6266 47.6761 69.7905C47.5716 69.6266 47.4647 69.4604 47.3555 69.2917Z" fill="#371A45"/>
</g>
<path d="M41.1212 69.3842C39.4849 70.0468 36.9507 69.909 35.2241 69.7C34.1886 69.5742 33.4619 68.6194 33.6139 67.5863C33.754 66.6434 34.5829 65.9594 35.5329 66.0045C37.1479 66.0805 39.5704 66.1162 41.1046 65.7742" fill="white"/>
<path d="M41.1212 69.3842C39.4849 70.0468 36.9507 69.9067 35.2241 69.7001C34.1886 69.5742 33.4619 68.6171 33.6139 67.5863C33.6447 67.3749 33.7112 67.1778 33.8039 66.9973C34.077 67.5174 34.5924 67.9022 35.2241 67.9782C36.9484 68.1872 39.4777 68.3249 41.1141 67.6671L41.1212 69.3842Z" fill="#D8D8D8"/>
<path d="M37.8671 70.2866C36.9219 70.2866 35.9814 70.2082 35.1739 70.1109C34.5611 70.0372 34.0173 69.7261 33.6444 69.2345C33.2691 68.7429 33.1124 68.1349 33.2026 67.5245C33.3736 66.3655 34.383 65.5319 35.5515 65.5889C37.9336 65.7005 39.8716 65.6221 41.014 65.368C41.2373 65.3181 41.793 65.3181 42.1255 66.3821C42.4651 67.4722 42.4295 69.301 41.2753 69.7689C40.3181 70.1584 39.0879 70.2866 37.8671 70.2866ZM35.4446 66.4177C34.7345 66.4177 34.1289 66.9355 34.0244 67.648C33.9674 68.0375 34.0671 68.4222 34.3046 68.7334C34.5421 69.0445 34.8865 69.2416 35.2736 69.2891C37.024 69.5005 39.4299 69.6216 40.9641 69.0017C41.3394 68.8497 41.4391 68.2441 41.4629 67.99C41.5484 67.1397 41.2848 66.3702 41.1256 66.1969C39.57 66.527 37.2211 66.5009 35.5111 66.4201C35.4898 66.4177 35.466 66.4177 35.4446 66.4177Z" fill="#371A45"/>
<path d="M59.5364 69.7C58.7265 69.7974 57.7361 69.8805 56.7481 69.871C56.6792 69.871 56.6127 69.871 56.5439 69.8687C56.4726 69.8687 56.4013 69.8663 56.3277 69.8615C56.2802 69.8615 56.2327 69.8592 56.1852 69.8568C56.1282 69.8544 56.0736 69.8497 56.0166 69.8473C55.9454 69.8425 55.8741 69.8378 55.8029 69.833H55.7981C55.7268 69.8283 55.6556 69.8212 55.5867 69.814C55.5392 69.8093 55.4941 69.8045 55.449 69.7998C55.4086 69.7974 55.3706 69.7927 55.3326 69.7879C55.2709 69.7808 55.2115 69.7713 55.1521 69.7642C55.0951 69.757 55.0405 69.7475 54.9858 69.738C54.974 69.738 54.9621 69.7357 54.9526 69.7333C54.8885 69.7238 54.8243 69.7119 54.7602 69.7C54.6961 69.6882 54.632 69.6763 54.5702 69.6621C54.5655 69.6621 54.5607 69.6597 54.5536 69.6597C54.518 69.6525 54.4824 69.643 54.4491 69.6359C54.4111 69.6288 54.3731 69.6193 54.3351 69.6074C54.2187 69.5789 54.1047 69.5457 53.9931 69.51C53.9337 69.491 53.8743 69.4697 53.815 69.4507C53.7556 69.4293 53.6986 69.4079 53.6416 69.3842L53.6487 67.6504L53.6558 65.7742C54.0477 65.862 54.499 65.9238 54.9811 65.9665C56.3776 66.0948 58.0259 66.0592 59.2276 66.0022C59.2561 66.0022 59.2846 65.9998 59.3155 65.9998C60.2298 65.9998 61.0112 66.6719 61.1466 67.5839C61.2986 68.6194 60.5719 69.5742 59.5364 69.7Z" fill="white"/>
<path d="M59.5363 69.7C58.7265 69.7974 57.7361 69.8805 56.7481 69.871C56.6792 69.871 56.6127 69.871 56.5438 69.8687C56.4726 69.8687 56.4013 69.8663 56.3277 69.8615C56.2802 69.8615 56.2327 69.8592 56.1852 69.8568C56.1282 69.8544 56.0736 69.8496 56.0166 69.8473C55.9454 69.8425 55.8741 69.8378 55.8029 69.833H55.7981C55.7268 69.8283 55.6556 69.8212 55.5867 69.814C55.5392 69.8093 55.4941 69.8045 55.449 69.7998C55.4086 69.7974 55.3706 69.7926 55.3326 69.7879C55.2708 69.7808 55.2115 69.7713 55.1521 69.7641C55.0951 69.757 55.0405 69.7475 54.9858 69.738C54.974 69.738 54.9621 69.7357 54.9526 69.7333C54.8885 69.7238 54.8243 69.7119 54.7602 69.7C54.6961 69.6881 54.632 69.6763 54.5702 69.662C54.5655 69.662 54.5607 69.6597 54.5536 69.6597C54.518 69.6525 54.4824 69.643 54.4491 69.6359C54.4111 69.6288 54.3731 69.6193 54.3351 69.6074C54.2187 69.5789 54.1047 69.5456 53.9931 69.51C53.9337 69.491 53.8743 69.4697 53.815 69.4506C53.7556 69.4293 53.6986 69.4079 53.6416 69.3841L53.6487 67.6504V67.5245C53.701 67.5459 53.758 67.5673 53.8126 67.5887C53.872 67.61 53.9314 67.629 53.9907 67.648C54.1024 67.6837 54.2163 67.7169 54.3327 67.7454C54.3707 67.7549 54.4087 67.7644 54.4467 67.7739C54.48 67.781 54.5156 67.7905 54.5512 67.7977L54.5679 67.8C54.6296 67.8143 54.6937 67.8262 54.7579 67.838C54.822 67.8499 54.8861 67.8618 54.9502 67.8713C54.9597 67.8737 54.9716 67.876 54.9835 67.876C55.0381 67.8855 55.0951 67.8927 55.1497 67.9022C55.2091 67.9093 55.2685 67.9188 55.3302 67.9259C55.3682 67.9307 55.4086 67.9354 55.4466 67.9378C55.4917 67.9425 55.5392 67.9473 55.5843 67.952C55.6556 67.9592 55.7268 67.9663 55.7957 67.971H55.8005C55.8717 67.9758 55.943 67.9805 56.0142 67.9853C56.0688 67.9877 56.1259 67.9924 56.1829 67.9948C56.2304 67.9971 56.2779 67.9995 56.3254 67.9995C56.3966 68.0019 56.4678 68.0043 56.5415 68.0066C56.6103 68.009 56.6768 68.009 56.7457 68.009C57.7361 68.0185 58.7241 67.9354 59.534 67.838C60.1348 67.7668 60.6336 67.4129 60.9138 66.926C61.0278 67.1255 61.1086 67.3464 61.1442 67.5863C61.2986 68.6194 60.5718 69.5741 59.5363 69.7Z" fill="#D8D8D8"/>
<path d="M56.8925 70.2866C55.6694 70.2866 54.4391 70.156 53.482 69.7689C52.3301 69.3034 52.2945 67.4722 52.6318 66.3821C52.9619 65.3181 53.52 65.3181 53.7433 65.368C54.8856 65.6221 56.826 65.7005 59.2058 65.5889C60.3743 65.5319 61.3836 66.3655 61.5546 67.5245C61.6449 68.1372 61.4881 68.7429 61.1129 69.2345C60.7376 69.7237 60.1961 70.0349 59.5834 70.1109C58.7806 70.2106 57.8401 70.2866 56.8925 70.2866ZM53.6316 66.1945C53.4725 66.3679 53.2089 67.1374 53.2944 67.9876C53.3205 68.2417 53.4203 68.8474 53.7931 68.9994C55.3274 69.6216 57.7356 69.4981 59.4836 69.2867C59.8708 69.2392 60.2151 69.0421 60.4526 68.731C60.6901 68.4198 60.7899 68.0327 60.7329 67.6456C60.6236 66.9117 59.9824 66.3821 59.2438 66.4177C57.5361 66.4985 55.1873 66.5246 53.6316 66.1945Z" fill="#371A45"/>
<path d="M54.2732 64.5822V70.3677C54.2732 71.4412 53.3944 72.3199 52.3209 72.3199H41.6667C40.5955 72.3199 39.7168 71.4412 39.7168 70.3677V64.5822C39.7168 63.5087 40.5955 62.6323 41.6667 62.6323H52.3209C52.9527 62.6323 53.5179 62.9363 53.8742 63.4066C54.1235 63.7319 54.2732 64.1404 54.2732 64.5822Z" fill="white"/>
<path d="M54.2732 64.5823V70.3678C54.2732 71.4413 53.3944 72.3177 52.3209 72.3177H41.6667C40.5932 72.3177 39.7168 71.4413 39.7168 70.3678V68.2018C40.8592 70.42 44.7352 71.294 47.9272 70.971C48.6397 70.8998 49.1503 70.2205 48.9793 69.527C48.9294 69.3204 48.9009 69.0995 48.9009 68.8715C48.9009 67.6104 49.7369 66.5868 50.7677 66.5868C51.7652 66.5868 52.5822 67.5439 52.6344 68.748C53.9122 67.076 53.981 64.8412 53.8742 63.4043C54.1235 63.7344 54.2732 64.1405 54.2732 64.5823Z" fill="#D8D8D8"/>
<path d="M52.2811 72.7333H41.71C40.3824 72.7333 39.3018 71.6527 39.3018 70.325V64.625C39.3018 63.2974 40.3824 62.2168 41.71 62.2168H52.2811C53.6088 62.2168 54.6894 63.2974 54.6894 64.625V70.3274C54.687 71.655 53.6088 72.7333 52.2811 72.7333ZM41.71 63.048C40.8408 63.048 40.133 63.7558 40.133 64.625V70.3274C40.133 71.1967 40.8408 71.9044 41.71 71.9044H52.2811C53.1504 71.9044 53.8581 71.1967 53.8581 70.3274V64.625C53.8581 63.7558 53.1504 63.048 52.2811 63.048H41.71Z" fill="#371A45"/>
<path d="M50.7684 69.1565C51.6971 69.1565 52.4499 68.4036 52.4499 67.475C52.4499 66.5463 51.6971 65.7935 50.7684 65.7935C49.8397 65.7935 49.0869 66.5463 49.0869 67.475C49.0869 68.4036 49.8397 69.1565 50.7684 69.1565Z" fill="#22A7F0"/>
<path d="M52.4519 67.475C52.4519 67.5652 52.4447 67.6555 52.4305 67.7433C52.3022 66.9406 51.6064 66.3278 50.7704 66.3278C49.932 66.3278 49.2385 66.9406 49.1102 67.7433C49.096 67.6555 49.0889 67.5676 49.0889 67.475C49.0889 66.5463 49.8417 65.7935 50.7704 65.7935C51.6966 65.7935 52.4519 66.5463 52.4519 67.475Z" fill="white"/>
<path d="M52.4499 67.4747C52.4499 68.4033 51.697 69.1562 50.7684 69.1562C49.8398 69.1562 49.0869 68.4033 49.0869 67.4747C49.0869 67.2586 49.1273 67.0543 49.2033 66.8667C49.4455 67.4937 50.0559 67.9378 50.7708 67.9378C51.4857 67.9378 52.096 67.4937 52.3383 66.8667C52.4095 67.0543 52.4499 67.2586 52.4499 67.4747Z" fill="#2580EF"/>
<path d="M50.7675 69.4697C49.6678 69.4697 48.7725 68.5744 48.7725 67.4747C48.7725 66.3751 49.6678 65.4797 50.7675 65.4797C51.8671 65.4797 52.7625 66.3751 52.7625 67.4747C52.7625 68.5744 51.8671 69.4697 50.7675 69.4697ZM50.7675 66.1044C50.0122 66.1044 49.3971 66.7195 49.3971 67.4747C49.3971 68.23 50.0122 68.8451 50.7675 68.8451C51.5227 68.8451 52.1378 68.23 52.1378 67.4747C52.1378 66.7195 51.5251 66.1044 50.7675 66.1044Z" fill="#371A45"/>
<path d="M46.0011 72.7333C45.7707 72.7333 45.5855 72.548 45.5855 72.3177V69.527C45.5855 68.8217 45.2482 68.1472 44.6853 67.7244C43.9135 67.1449 43.4551 66.221 43.4551 65.2568V62.6324C43.4551 62.402 43.6403 62.2168 43.8707 62.2168C44.1011 62.2168 44.2863 62.402 44.2863 62.6324V65.2568C44.2863 65.9622 44.6236 66.6367 45.1865 67.0594C45.9583 67.6389 46.4167 68.5628 46.4167 69.527V72.32C46.4167 72.548 46.2291 72.7333 46.0011 72.7333Z" fill="#371A45"/>
<path d="M39.0515 73.4545C37.0161 66.0588 32.4442 66.2963 30.7366 67.2344C29.7415 67.783 28.5848 68.5953 27.7868 70.5499C26.4473 65.6954 19.9375 66.2298 19.6976 72.8323C19.5551 76.7178 20.9516 79.5036 21.9657 80.7387C22.968 81.957 23.7137 82.3655 24.7825 82.5009C25.7705 82.6268 27.8605 82.4605 28.7962 82.0592C30.3542 81.3918 32.2423 79.6343 36.2157 79.4562C36.2157 79.4562 41.6117 79.5203 47.6347 79.4799C53.6577 79.5203 59.0537 79.4562 59.0537 79.4562C63.0271 79.6343 64.9128 81.3894 66.4732 82.0592C67.409 82.4605 69.5013 82.6268 70.487 82.5009C71.5533 82.3655 72.3015 81.9594 73.3037 80.7387C74.3178 79.5036 75.7143 76.7202 75.5718 72.8323C75.3296 66.2274 68.8197 65.6954 67.4826 70.5499C66.6846 68.5953 65.528 67.783 64.5328 67.2344C62.8252 66.2963 58.2533 66.0564 56.218 73.4545V76.5871H39.1132C39.0918 76.5848 39.0515 73.4545 39.0515 73.4545Z" fill="white"/>
<path d="M73.3011 80.7384C72.2988 81.9568 71.5531 82.3629 70.4843 82.4983C69.4963 82.6241 67.4063 82.4579 66.4706 82.0565C65.5847 81.6765 64.5967 80.9498 63.1788 80.356C63.1242 80.3323 63.0696 80.3109 63.0102 80.2871C62.7204 80.1708 62.4117 80.0591 62.0816 79.9594C61.9462 79.919 61.8061 79.8786 61.6659 79.8406C61.4759 79.7908 61.2788 79.7456 61.0769 79.7029C61.0271 79.691 60.9748 79.6815 60.9226 79.672C60.7682 79.6411 60.6091 79.615 60.4476 79.5889C60.0129 79.5224 59.5474 79.4749 59.0511 79.4535C59.0511 79.4535 53.6551 79.5176 47.6321 79.4773C41.6091 79.5176 36.2154 79.4535 36.2154 79.4535C35.7191 79.4749 35.2536 79.5224 34.8213 79.5889C34.6574 79.615 34.5007 79.6411 34.3439 79.672C34.2917 79.6815 34.2418 79.691 34.1896 79.7029C33.9877 79.7456 33.7906 79.7931 33.6006 79.8406C33.4581 79.8786 33.3203 79.9166 33.1849 79.9594C33.0044 80.014 32.8311 80.0734 32.6601 80.1328C32.5342 80.1779 32.4107 80.2254 32.2919 80.2729C32.2136 80.3038 32.1328 80.337 32.0568 80.3703C30.6603 80.9593 29.6794 81.6813 28.8007 82.0565C27.8649 82.4579 25.7726 82.6218 24.7869 82.4983C23.9201 82.389 23.2646 82.0993 22.5117 81.3416C22.3668 81.1944 22.2196 81.0329 22.0652 80.85C22.0343 80.812 22.0034 80.7764 21.9726 80.7384C20.9584 79.5034 19.5619 76.7175 19.7044 72.832C19.7068 72.7465 19.7116 72.661 19.7187 72.5755C19.7234 72.49 19.7306 72.4069 19.7377 72.3261V72.3214C19.7448 72.2406 19.7543 72.1623 19.7638 72.0815C19.7733 72.0031 19.7828 71.9224 19.7947 71.8464C19.7947 71.8464 19.7947 71.8464 19.7947 71.8488C20.6117 66.1868 26.5278 65.9469 27.7961 70.5473C28.5941 68.5926 29.7507 67.778 30.7458 67.2318C32.3181 66.3673 36.3247 66.0965 38.5358 71.8464C38.7234 72.3356 38.8992 72.87 39.0583 73.4519C39.0583 73.4519 39.0987 76.5845 39.1153 76.5845H56.2201V73.4519C56.3649 72.9223 56.5241 72.4306 56.6951 71.977C58.8967 66.0918 62.9508 66.3601 64.5349 67.2318C65.4374 67.7281 66.4753 68.4454 67.2543 70.0343C67.3184 70.1649 67.3802 70.3003 67.4396 70.4428C67.4538 70.4784 67.4704 70.514 67.4847 70.5496C68.7553 65.9469 74.6691 66.1868 75.4884 71.8488C75.4956 71.9034 75.5027 71.958 75.5098 72.015C75.5146 72.0578 75.5193 72.1005 75.5241 72.1456C75.5383 72.2644 75.5502 72.3855 75.5573 72.509C75.5597 72.5494 75.5621 72.5921 75.5644 72.6349C75.5692 72.699 75.5716 72.7655 75.5739 72.8344C75.7117 76.7199 74.3152 79.5058 73.3011 80.7384Z" fill="white"/>
<path d="M73.3011 80.7385C72.2988 81.9568 71.5531 82.363 70.4843 82.4983C69.4963 82.6242 67.4063 82.458 66.4706 82.0566C65.5847 81.6766 64.5967 80.9498 63.1788 80.3561C63.1242 80.3323 63.0696 80.311 63.0102 80.2872C62.7204 80.1708 62.4117 80.0592 62.0816 79.9594C61.9462 79.9191 61.8061 79.8787 61.6659 79.8407C61.4759 79.7908 61.2788 79.7433 61.0769 79.7029C61.0271 79.6911 60.9748 79.6816 60.9226 79.6721C60.7682 79.6412 60.6091 79.6151 60.4476 79.589C60.0129 79.5225 59.5474 79.4749 59.0511 79.4536C59.0511 79.4536 53.6551 79.5177 47.6321 79.4773C41.6091 79.5177 36.2154 79.4536 36.2154 79.4536C35.7191 79.4749 35.2536 79.5225 34.8213 79.589C34.6574 79.6151 34.5007 79.6412 34.3439 79.6721C34.2917 79.6816 34.2418 79.6911 34.1896 79.7029C33.9877 79.7457 33.7906 79.7908 33.6006 79.8407C33.4581 79.8787 33.3203 79.9167 33.1849 79.9594C33.0044 80.0141 32.8311 80.0735 32.6601 80.1328C32.5342 80.178 32.4107 80.2254 32.2919 80.2729C32.2136 80.3038 32.1328 80.3371 32.0568 80.3703C30.6603 80.9593 29.6794 81.6813 28.8007 82.0566C27.8649 82.458 25.7726 82.6218 24.7869 82.4983C23.9201 82.3891 23.2646 82.0993 22.5117 81.3417C22.3668 81.1944 22.2196 81.0329 22.0652 80.8501C22.0343 80.8121 22.0034 80.7765 21.9726 80.7385C20.9584 79.5035 19.5619 76.72 19.7044 72.8321C19.7068 72.7466 19.7116 72.6611 19.7163 72.578C19.7211 72.4924 19.7282 72.4093 19.7353 72.3286V72.3238C19.7424 72.2431 19.7519 72.1647 19.7614 72.084C19.7709 72.0056 19.7804 71.9248 19.7923 71.8488C20.1129 74.5777 21.1651 76.549 21.9726 77.5322C22.9748 78.7506 23.7206 79.1567 24.7893 79.2921C24.7988 79.2921 24.8083 79.2944 24.8202 79.2944C27.8863 79.6958 29.9003 77.3208 28.7247 74.459C27.8531 72.3452 27.5348 70.7563 27.7961 70.545C28.2853 70.1507 30.5226 76.1167 34.0613 75.9671C38.7306 75.7676 38.5358 71.8441 38.5358 71.8441C38.7234 72.3333 38.8992 72.8677 39.0583 73.4496V73.5066C39.0892 75.2142 40.4809 76.5822 42.1886 76.5822H53.0803C54.8093 76.5822 56.2129 75.181 56.2129 73.4496C56.3578 72.92 56.5169 72.4283 56.6879 71.9747C56.7022 72.6563 57.0014 75.7913 61.1624 75.9695C64.3829 76.1072 65.2261 72.0341 67.2472 70.032C67.4467 69.8325 67.6557 69.6567 67.8813 69.5071C67.6961 69.633 67.5607 69.9655 67.4324 70.4405C67.1949 71.3477 66.9954 72.7703 66.5561 74.2357C65.8174 76.7057 67.6058 79.2398 70.1827 79.3016C70.2991 79.304 70.4012 79.3016 70.4843 79.2897C71.5507 79.1543 72.2988 78.7482 73.3011 77.5298C74.1109 76.5466 75.1607 74.5753 75.4813 71.8465C75.4884 71.9011 75.4956 71.9557 75.5027 72.0127C75.5074 72.0555 75.5122 72.0982 75.5169 72.1433C75.5312 72.2621 75.5431 72.3832 75.5502 72.5067C75.5526 72.5471 75.5549 72.5898 75.5573 72.6326C75.5621 72.6967 75.5644 72.7632 75.5668 72.8321C75.7117 76.72 74.3152 79.5058 73.3011 80.7385Z" fill="#D8D8D8"/>
<path d="M28.1722 74.2712C28.0036 73.0528 27.7019 71.8511 27.4288 70.6541C27.3386 70.1529 28.0463 69.9582 28.2268 70.4308C28.5617 71.3476 28.6353 72.3356 28.6424 73.3022C28.6401 73.6252 28.6258 73.9434 28.5878 74.2712C28.5736 74.3852 28.4714 74.4683 28.3574 74.4541C28.2553 74.4446 28.1817 74.3662 28.1722 74.2712Z" fill="#371A45"/>
<path d="M26.526 82.9189C26.2956 82.9189 26.1104 82.7336 26.1104 82.5033C26.1104 82.3133 26.2362 82.1541 26.4096 82.1043C26.4476 82.0924 26.488 82.0876 26.5284 82.0876C26.7587 82.0876 26.944 82.2729 26.944 82.5033C26.944 82.6933 26.8181 82.8524 26.6447 82.9023C26.6067 82.9118 26.5664 82.9189 26.526 82.9189Z" fill="#371A45"/>
<path d="M66.6802 74.2714C66.5828 73.3024 66.6232 72.3334 66.7871 71.3739C66.8441 71.0533 66.9272 70.7374 67.0412 70.431C67.1196 70.2149 67.3595 70.1057 67.5756 70.184C67.7751 70.2577 67.8843 70.4667 67.8392 70.6685C67.7798 70.9654 67.7015 71.2575 67.6326 71.5544C67.483 72.1482 67.3523 72.7514 67.2454 73.357C67.1908 73.6634 67.1386 73.9769 67.0958 74.2809C67.0602 74.5184 66.7063 74.5113 66.6802 74.2714Z" fill="#371A45"/>
<path d="M56.0145 73.3997C56.5062 69.9678 59.0783 65.9778 62.9875 66.3246C63.7404 66.384 64.4814 66.6333 65.1179 67.0466C66.0608 67.6023 66.8683 68.4407 67.4003 69.405C67.5832 69.7232 67.7257 70.0581 67.8634 70.393L67.0797 70.4405C67.2269 69.9227 67.4383 69.4145 67.7328 68.9513C69.3905 66.2937 72.934 66.2605 74.7462 68.7898C75.5347 69.8847 75.8885 71.2242 75.9693 72.5542C76.0762 74.3711 75.8458 76.1998 75.2615 77.9241C74.6583 79.6412 73.6869 81.3892 72.1052 82.401C71.395 82.8356 70.5258 82.9662 69.7135 82.9591C68.5355 82.933 67.3053 82.8593 66.2057 82.3962C65.4029 82.0257 64.6453 81.5222 63.8615 81.1351C62.1254 80.2397 60.1589 79.8146 58.2067 79.8787C52.1005 79.8977 44.6905 79.9025 38.5797 79.8811C38.1189 79.8763 36.7699 79.8811 36.3139 79.8763C36.0645 79.8811 35.8318 79.9072 35.5919 79.9215C34.1337 80.0521 32.7182 80.4701 31.4143 81.1327C30.6329 81.5198 29.8729 82.0233 29.0725 82.3938C28.4622 82.6741 27.7782 82.7786 27.1227 82.8641C26.3365 82.9496 25.5575 83.0018 24.7619 82.9187C23.3155 82.7928 22.2634 81.8452 21.4322 80.7266C19.6058 78.1806 18.9194 74.44 19.4514 71.3833C19.7269 69.9298 20.4442 68.4953 21.7029 67.6451C23.6789 66.2771 26.3057 66.9302 27.5383 68.949C27.8328 69.4145 28.0442 69.9227 28.1914 70.4428L27.4077 70.3953C27.543 70.0605 27.6879 69.728 27.8684 69.4097C28.4883 68.2721 29.4834 67.3553 30.6305 66.7782C32.3477 65.928 34.4828 66.2771 35.9767 67.4218C37.8387 68.8516 38.8932 71.153 39.2565 73.4021C39.2755 73.5161 39.1972 73.623 39.0832 73.642C38.9834 73.6586 38.8908 73.6016 38.8552 73.5113C38.3374 72.2668 37.8315 71.0176 37.0905 69.9013C36.3828 68.8326 35.4114 67.9016 34.2002 67.4765C33.0317 67.0608 31.6708 67.1487 30.6258 67.8327C29.4882 68.4882 28.6854 69.5071 28.1772 70.7088L27.733 71.7182C27.4955 71.0128 27.2485 70.0106 26.8353 69.3907C25.8592 67.7686 23.743 67.2247 22.1684 68.3291C21.3039 68.911 20.7363 69.8562 20.437 70.849C20.304 71.2931 20.209 71.7895 20.1592 72.2502C20.0048 74.0671 20.2138 75.9315 20.798 77.6581C21.2754 79.0261 21.9737 80.3228 23.0519 81.2871C23.7454 81.9402 24.636 82.1492 25.5647 82.1278C26.6192 82.1041 27.7568 82.04 28.7305 81.6362C29.5238 81.2657 30.2482 80.7812 31.0414 80.3893C32.5472 79.6198 34.2215 79.1567 35.9102 79.0641C36.1453 79.0356 36.8055 79.0451 37.0573 79.0451C37.9954 79.0451 40.615 79.0522 41.5912 79.0546C46.581 79.0712 53.2524 79.0593 58.2185 79.0451C58.4109 79.0427 59.159 79.0356 59.3657 79.0641C60.5365 79.1282 61.7003 79.3705 62.8047 79.7695C63.7737 80.1186 64.6952 80.6173 65.5763 81.128C65.9254 81.3251 66.3292 81.5578 66.6997 81.7051C67.6497 82.0376 68.7065 82.1112 69.7088 82.1278C71.1765 82.1635 72.0363 81.6457 72.9554 80.5081C74.5277 78.5083 75.1618 75.8555 75.1618 73.3356C75.1832 71.5021 74.6939 69.4168 73.1003 68.3267C71.5209 67.2247 69.4143 67.7686 68.4334 69.3931C68.0059 70.0153 67.7803 71.0318 67.5642 71.7586C67.1628 70.8632 66.74 69.7873 66.1012 69.0511C65.6927 68.5618 65.201 68.1628 64.6429 67.8303C64.1204 67.4955 63.529 67.2912 62.9044 67.2413C60.945 67.0466 59.2018 68.3006 58.1782 69.9013C57.449 70.9986 56.9384 72.2455 56.4135 73.509C56.3185 73.7393 55.9765 73.6396 56.0145 73.3997Z" fill="#371A45"/>
<path d="M73.3016 80.7386C72.2993 81.957 71.5536 82.3655 70.4848 82.5009C70.0455 82.5579 69.39 82.5555 68.7131 82.5009C68.7131 82.5009 68.7131 82.5009 68.7107 82.5009C67.034 82.0544 67.9032 79.658 68.3663 76.9363C68.7915 74.4354 68.0813 72.5259 69.504 69.93C71.2306 66.7784 73.4797 68.1108 73.6151 68.1939C73.6175 68.1939 73.6198 68.1963 73.6222 68.1986C74.691 69.0726 75.4866 70.6069 75.5673 72.8346C75.7122 76.7201 74.3157 79.506 73.3016 80.7386Z" fill="#AFAFB2"/>
<path d="M26.5305 82.5007C25.8607 82.5529 25.2147 82.5553 24.7825 82.5007C23.7137 82.3653 22.968 81.9592 21.9657 80.7384C20.9516 79.5058 19.5551 76.7199 19.6976 72.8321C19.7783 70.5901 20.5835 69.0511 21.6617 68.1794C21.6617 68.1794 21.6641 68.1795 21.6641 68.1771C21.7591 68.1177 24.0153 66.7449 25.7586 69.9251C27.1812 72.5209 26.4711 74.4328 26.8962 76.9313C27.3617 79.6554 28.2048 82.0542 26.5305 82.5007Z" fill="#AFAFB2"/>
<g opacity="0.7">
<path d="M25.7609 69.9276C26.6326 71.5165 26.7038 72.8489 26.7276 74.2169C26.6326 73.2764 26.4046 72.3098 25.8084 71.222C24.0272 67.9706 21.7187 69.3742 21.6237 69.4336C21.6237 69.4336 21.6213 69.4336 21.6213 69.436C20.6713 70.2031 19.9327 71.4761 19.6904 73.2811C19.6904 73.1339 19.6928 72.9843 19.6999 72.8323C19.7807 70.5903 20.5858 69.0512 21.6641 68.1796C21.6641 68.1796 21.6664 68.1796 21.6664 68.1773C21.7591 68.1203 24.0177 66.7475 25.7609 69.9276Z" fill="white"/>
</g>
<path d="M26.8016 76.1878C26.7351 75.5014 26.7375 74.8554 26.7256 74.2166C26.7921 74.8768 26.7897 75.5252 26.8016 76.1878Z" fill="#AFAFB2"/>
<g opacity="0.35">
<path d="M26.5299 82.5007C25.8602 82.553 25.2142 82.5554 24.7819 82.5007C23.7132 82.3654 22.9674 81.9592 21.9652 80.7385C21.3999 80.0521 20.7159 78.8836 20.248 77.3114C20.324 77.4159 20.4 77.5132 20.4713 77.6011C21.4735 78.8195 22.2145 79.2636 23.288 79.3634C25.2118 79.5391 26.5869 77.7436 26.8244 76.4065C26.8434 76.5799 26.8672 76.7556 26.898 76.9337C27.3612 79.6555 28.2043 82.0542 26.5299 82.5007Z" fill="#371A45"/>
</g>
<path d="M25.5691 82.957C25.2484 82.957 24.9634 82.9428 24.7307 82.9119C23.4981 82.7551 22.6621 82.2374 21.6456 81.0024C20.4129 79.5038 19.1471 76.5659 19.2824 72.8181C19.3608 70.6688 20.1066 68.9136 21.3843 67.871L21.4176 67.8378L21.4627 67.8164C21.6313 67.7143 22.5314 67.2179 23.6596 67.5076C24.6262 67.757 25.4551 68.5051 26.1248 69.7283C27.1033 71.5143 27.1247 73.0248 27.1437 74.4878C27.1532 75.2454 27.1651 76.0315 27.3076 76.8651C27.3859 77.3283 27.4762 77.7843 27.5641 78.226C27.9939 80.3896 28.3977 82.4321 26.6378 82.9048L26.5856 82.919H26.5452C26.2032 82.9428 25.8707 82.957 25.5691 82.957ZM21.8878 68.5313C20.8119 69.4219 20.1802 70.9514 20.1113 72.8466C19.9451 77.3876 21.8926 79.9978 22.2844 80.4751C23.2796 81.6864 23.9469 81.9761 24.8328 82.0878C25.2223 82.1376 25.8256 82.1376 26.4573 82.0901C27.3812 81.8123 27.1817 80.5583 26.7494 78.3851C26.6616 77.9386 26.5689 77.4779 26.4882 77.0029C26.3362 76.1028 26.3243 75.2881 26.3124 74.4973C26.2934 73.0746 26.2744 71.7304 25.3957 70.1273C24.8399 69.1131 24.1844 68.5028 23.4506 68.3128C22.7024 68.1204 22.0707 68.4268 21.9211 68.5099L21.9092 68.5218L21.8878 68.5313Z" fill="#371A45"/>
<path d="M25.5691 82.957C25.2484 82.957 24.9634 82.9428 24.7307 82.9119C23.4981 82.7551 22.6621 82.2374 21.6456 81.0024C20.4129 79.5038 19.1471 76.5659 19.2824 72.8181C19.3608 70.6688 20.1066 68.9136 21.3843 67.871L21.4176 67.8378L21.4627 67.8164C21.6313 67.7143 22.5314 67.2179 23.6596 67.5076C24.6262 67.757 25.4551 68.5051 26.1248 69.7283C27.1033 71.5143 27.1247 73.0248 27.1437 74.4878C27.1532 75.2454 27.1651 76.0315 27.3076 76.8651C27.3859 77.3283 27.4762 77.7843 27.5641 78.226C27.9939 80.3896 28.3977 82.4321 26.6378 82.9048L26.5856 82.919H26.5452C26.2032 82.9428 25.8707 82.957 25.5691 82.957ZM21.8878 68.5313C20.8119 69.4219 20.1802 70.9514 20.1113 72.8466C19.9451 77.3876 21.8926 79.9978 22.2844 80.4751C23.2796 81.6864 23.9469 81.9761 24.8328 82.0878C25.2223 82.1376 25.8256 82.1376 26.4573 82.0901C27.3812 81.8123 27.1817 80.5583 26.7494 78.3851C26.6616 77.9386 26.5689 77.4779 26.4882 77.0029C26.3362 76.1028 26.3243 75.2881 26.3124 74.4973C26.2934 73.0746 26.2744 71.7304 25.3957 70.1273C24.8399 69.1131 24.1844 68.5028 23.4506 68.3128C22.7024 68.1204 22.0707 68.4268 21.9211 68.5099L21.9092 68.5218L21.8878 68.5313Z" fill="#371A45"/>
<path d="M26.4333 82.9923L26.2362 82.7952C26.1483 82.7074 26.1079 82.5862 26.1151 82.4698V82.116L26.4879 82.0875C26.4927 82.0875 26.4974 82.0875 26.5022 82.0875C27.4047 82.0162 28.2003 81.8619 28.6302 81.679C28.9912 81.5246 29.3759 81.3037 29.8224 81.0496C31.2047 80.2611 33.0976 79.1805 36.1946 79.0427H36.2064H36.2183C36.2729 79.0427 41.6784 79.1068 47.6278 79.0665C53.5819 79.1045 58.9898 79.0427 59.0444 79.0427H59.0563H59.0682C62.1628 79.1805 64.0557 80.2611 65.4379 81.0496C65.8844 81.3037 66.2692 81.5246 66.6302 81.679C67.0601 81.8642 67.8509 82.0162 68.7416 82.0875C68.9696 82.1065 69.1406 82.306 69.1216 82.534C69.1026 82.762 68.9031 82.9306 68.6751 82.914C68.2072 82.876 67.0363 82.7548 66.3024 82.4413C65.8963 82.268 65.4736 82.0257 65.0247 81.7692C63.6448 80.9831 61.9277 80.0022 59.0397 79.8716C58.7523 79.874 53.4489 79.9333 47.6254 79.8953C41.8091 79.9333 36.5057 79.874 36.2183 79.8716C33.3279 80.0046 31.6108 80.9831 30.2333 81.7692C29.7844 82.0257 29.3617 82.2656 28.9579 82.439C28.2549 82.7406 27.1434 82.8641 26.6304 82.9092L26.4333 82.9923Z" fill="#371A45"/>
<path d="M19.6931 74.2001C19.4746 74.2001 19.2894 74.0267 19.2799 73.8058C19.268 73.5778 19.4437 73.3807 19.6741 73.3712L26.6827 73.015C26.9107 73.0031 27.1079 73.1788 27.1174 73.4092C27.1292 73.6372 26.9535 73.8343 26.7231 73.8438L19.7145 74.2001C19.7074 74.2001 19.7002 74.2001 19.6931 74.2001Z" fill="#371A45"/>
<path d="M19.907 71.6185C19.6885 71.6185 19.5056 71.4475 19.4937 71.2267C19.4819 70.9987 19.6552 70.8016 19.8856 70.7897L26.1794 70.4334C26.405 70.4192 26.6045 70.5949 26.6164 70.8253C26.6282 71.0533 26.4549 71.2504 26.2245 71.2623L19.9307 71.6185C19.9236 71.6185 19.9165 71.6185 19.907 71.6185Z" fill="#371A45"/>
<path d="M20.0896 77.1546C19.8711 77.1546 19.6858 76.9812 19.6763 76.7603C19.6645 76.5323 19.8402 76.3352 20.0706 76.3257L26.8037 75.9837C27.0317 75.9718 27.2289 76.1476 27.2384 76.378C27.2502 76.606 27.0745 76.8031 26.8441 76.8126L20.111 77.1546C20.1038 77.1546 20.0967 77.1546 20.0896 77.1546Z" fill="#371A45"/>
<path d="M21.3771 80.3182C21.1562 80.3182 20.9734 80.1448 20.9615 79.9239C20.9496 79.6959 21.1277 79.5012 21.3557 79.4893L27.3788 79.1995C27.6068 79.1877 27.8015 79.3658 27.8134 79.5938C27.8252 79.8218 27.6471 80.0165 27.4191 80.0284L21.3985 80.3182C21.3914 80.3182 21.3842 80.3182 21.3771 80.3182Z" fill="#371A45"/>
<g opacity="0.7">
<path d="M69.4539 69.9276C68.5823 71.5165 68.5111 72.8489 68.4873 74.2169C68.5823 73.2764 68.8103 72.3098 69.4064 71.222C71.1877 67.9706 73.4962 69.3742 73.5912 69.4336C73.5912 69.4336 73.5936 69.4336 73.5936 69.436C74.5436 70.2031 75.2822 71.4761 75.5244 73.2811C75.5244 73.1339 75.5221 72.9843 75.5149 72.8323C75.4342 70.5903 74.6291 69.0512 73.5508 68.1796C73.5508 68.1796 73.5484 68.1796 73.5484 68.1773C73.4558 68.1203 71.1972 66.7475 69.4539 69.9276Z" fill="white"/>
</g>
<g opacity="0.35">
<path d="M68.6845 82.5007C69.3543 82.553 70.0003 82.5554 70.4325 82.5007C71.5013 82.3654 72.247 81.9592 73.2493 80.7385C73.8145 80.0521 74.4985 78.8836 74.9664 77.3114C74.8904 77.4159 74.8144 77.5132 74.7432 77.6011C73.7409 78.8195 72.9999 79.2636 71.9264 79.3634C70.0027 79.5391 68.6275 77.7436 68.39 76.4065C68.371 76.5799 68.3473 76.7556 68.3164 76.9337C67.8533 79.6555 67.0102 82.0542 68.6845 82.5007Z" fill="#371A45"/>
</g>
<path d="M75.5752 74.2025C75.5681 74.2025 75.561 74.2025 75.5538 74.2025L68.5452 73.8463C68.3172 73.8344 68.1391 73.6397 68.151 73.4117C68.1628 73.1837 68.3528 73.0055 68.5856 73.0174L75.5942 73.3737C75.8222 73.3855 76.0003 73.5803 75.9885 73.8083C75.9766 74.0315 75.7937 74.2025 75.5752 74.2025Z" fill="#371A45"/>
<path d="M75.3589 71.6185C75.3518 71.6185 75.3423 71.6185 75.3352 71.6185L69.0438 71.2623C68.8158 71.2504 68.6401 71.0533 68.6519 70.8253C68.6638 70.5973 68.8609 70.4192 69.0889 70.4334L75.3803 70.7897C75.6083 70.8015 75.7841 70.9987 75.7722 71.2267C75.7603 71.4475 75.5774 71.6185 75.3589 71.6185Z" fill="#371A45"/>
<path d="M75.1757 77.1592C75.1686 77.1592 75.1614 77.1592 75.1543 77.1592L68.4212 76.8172C68.1932 76.8053 68.0151 76.6106 68.0269 76.3826C68.0388 76.1546 68.2336 75.9765 68.4616 75.9884L75.1947 76.3304C75.4227 76.3422 75.6008 76.537 75.5889 76.765C75.5794 76.9858 75.3942 77.1592 75.1757 77.1592Z" fill="#371A45"/>
<path d="M73.8887 80.3204C73.8816 80.3204 73.8744 80.3204 73.8673 80.3204L67.8372 80.0306C67.6092 80.0187 67.4311 79.824 67.4429 79.596C67.4548 79.368 67.6519 79.1899 67.8776 79.2017L73.9077 79.4915C74.1357 79.5034 74.3138 79.6981 74.3019 79.9261C74.2924 80.147 74.1072 80.3204 73.8887 80.3204Z" fill="#371A45"/>
<path d="M69.6968 82.9568C69.388 82.9568 69.0484 82.9426 68.6969 82.9165H68.5401L68.4926 82.869C66.8681 82.3465 67.2671 80.3681 67.6875 78.2757C67.7801 77.8197 67.8751 77.3471 67.9559 76.865C68.0984 76.029 68.1079 75.2452 68.1198 74.4876C68.1388 73.027 68.1601 71.5165 69.1386 69.7281C69.8013 68.5168 70.6254 67.7735 71.5849 67.5217C72.656 67.2391 73.549 67.6785 73.7818 67.8091L73.834 67.8257L73.8958 67.8875C75.1616 68.9277 75.9003 70.6781 75.9786 72.818C76.1164 76.5681 74.8481 79.5036 73.6155 81.0022C72.6014 82.2372 71.7654 82.755 70.5304 82.9117C70.3071 82.9426 70.0174 82.9568 69.6968 82.9568ZM68.7895 82.09C69.4308 82.1398 70.0435 82.1375 70.433 82.0876C71.3189 81.976 71.9863 81.6838 72.9814 80.475C73.3733 79.9976 75.3208 77.3875 75.1545 72.8465C75.0856 70.9536 74.4563 69.4217 73.3828 68.5335C73.2664 68.467 72.5966 68.1107 71.801 68.3221C71.0695 68.5145 70.4211 69.1225 69.8725 70.1247C68.9938 71.7302 68.9748 73.0721 68.9558 74.4947C68.9439 75.2856 68.9344 76.1026 68.78 77.0003C68.6969 77.4943 68.5995 77.9741 68.5069 78.4372C68.0723 80.5842 67.8704 81.8192 68.7895 82.09Z" fill="#371A45"/>
<path d="M34.6987 79.9241C34.6345 79.9241 34.5704 79.9051 34.5134 79.8624C34.3757 79.7602 34.3448 79.5655 34.4469 79.4277C34.4612 79.4087 35.822 77.4826 35.4064 73.8204C35.1452 71.5166 34.1952 69.7282 32.7345 68.783C31.7632 68.1536 30.673 67.985 29.6684 68.308C29.5045 68.3602 29.3288 68.27 29.2765 68.1061C29.2243 67.9422 29.3145 67.7665 29.4784 67.7142C30.6659 67.3342 31.9413 67.529 33.0718 68.2605C34.6915 69.3079 35.7413 71.2577 36.0239 73.7491C36.4704 77.6726 35.0098 79.7104 34.948 79.7959C34.8887 79.879 34.7937 79.9241 34.6987 79.9241Z" fill="#371A45"/>
<path d="M60.4905 79.9239C60.3955 79.9239 60.3005 79.8812 60.2387 79.7981C60.177 79.7126 58.7164 77.6748 59.1629 73.7513C59.4455 71.2599 60.4952 69.3101 62.115 68.2627C63.2455 67.5312 64.5232 67.3364 65.7083 67.7164C65.8722 67.7687 65.9625 67.9444 65.9102 68.1083C65.858 68.2722 65.6822 68.3624 65.5183 68.3102C64.5137 67.9896 63.4236 68.1582 62.4522 68.7852C60.9916 69.7304 60.0416 71.5188 59.7804 73.8226C59.3647 77.4848 60.728 79.4109 60.7399 79.4299C60.8396 79.5677 60.8111 79.7624 60.671 79.8646C60.6187 79.9026 60.5546 79.9239 60.4905 79.9239Z" fill="#371A45"/>
<path d="M66.2319 39.3331L65.4909 39.3354C65.3127 39.3354 65.1702 39.1929 65.1702 39.0148L65.1465 26.0972C65.1465 25.9191 65.289 25.7766 65.4671 25.7766L66.2057 25.7742C68.0654 25.7694 69.5759 27.2728 69.5782 29.1324L69.5901 35.9629C69.5901 37.8202 68.0891 39.3307 66.2319 39.3331Z" fill="white"/>
<path d="M65.4883 39.4116C65.3838 39.4116 65.2841 39.3712 65.2104 39.2976C65.1368 39.2239 65.0941 39.1242 65.0941 39.0173L65.0703 26.0997C65.0703 25.8812 65.2461 25.7031 65.4646 25.7031L66.2032 25.7007C66.2056 25.7007 66.2079 25.7007 66.2127 25.7007C67.1294 25.7007 67.9892 26.0569 68.6399 26.7029C69.2907 27.3513 69.6517 28.2134 69.6517 29.1326L69.6636 35.9631C69.6683 37.8583 68.1293 39.4044 66.2341 39.4092L65.4883 39.4116ZM66.2103 25.8503C66.2079 25.8503 66.2056 25.8503 66.2032 25.8503L65.4646 25.8527C65.3292 25.8527 65.2199 25.9643 65.2199 26.0997L65.2437 39.0173C65.2437 39.0838 65.2698 39.1456 65.3173 39.1907C65.3648 39.2358 65.4266 39.2619 65.4907 39.2619L66.2317 39.2596C68.0438 39.2548 69.5163 37.7776 69.5139 35.9631L69.5021 29.1326C69.4997 28.2538 69.1553 27.4273 68.5331 26.8074C67.9108 26.1899 67.0867 25.8503 66.2103 25.8503Z" fill="#371A45"/>
<path d="M69.5804 32.6809L69.5852 34.7092C69.5899 37.2575 67.785 39.3309 65.5525 39.338C65.3387 39.338 65.1677 39.1409 65.1653 38.8987L65.1582 35.5285C65.2176 35.6829 65.353 35.7874 65.5097 35.7898L65.7733 35.7874C67.5379 35.7803 69.0342 34.4859 69.5804 32.6809Z" fill="#D8D8D8"/>
<path d="M65.4885 39.751C65.2914 39.751 65.1085 39.675 64.9684 39.5372C64.8283 39.3995 64.7523 39.2142 64.7523 39.0171L64.7285 26.0995C64.7285 25.6933 65.0563 25.3632 65.4624 25.3632L66.201 25.3608C66.2034 25.3608 66.2081 25.3608 66.2105 25.3608C67.2175 25.3608 68.1628 25.7527 68.8776 26.4628C69.5925 27.1753 69.9891 28.123 69.9915 29.1347L70.0034 35.9652C70.0081 38.0481 68.3171 39.7462 66.2319 39.751H65.4885ZM65.5598 26.1921L65.5835 38.9197L66.2295 38.9173C67.854 38.9126 69.1745 37.5873 69.1721 35.9628L69.1603 29.1323C69.1579 28.3438 68.8515 27.6052 68.291 27.0471C67.7353 26.4937 66.9966 26.1873 66.2105 26.1873C66.2081 26.1873 66.2058 26.1873 66.2034 26.1873L65.5598 26.1921Z" fill="#371A45"/>
<path d="M29.0702 25.8698L29.8112 25.8674C29.9893 25.8674 30.1318 26.0099 30.1318 26.1881L30.1555 39.1057C30.1555 39.2838 30.013 39.4263 29.8349 39.4263L29.0963 39.4287C27.2367 39.4334 25.7262 37.9301 25.7238 36.0704L25.7119 29.2399C25.7095 27.3827 27.2129 25.8746 29.0702 25.8698Z" fill="white"/>
<path d="M29.0915 39.5021C28.1748 39.5021 27.315 39.1459 26.6643 38.4999C26.0135 37.8515 25.6525 36.9894 25.6525 36.0703L25.6406 29.2398C25.6359 27.3445 27.1749 25.7984 29.0701 25.7936L29.8111 25.7913C29.9156 25.7913 30.0154 25.8316 30.089 25.9053C30.1626 25.9789 30.2054 26.0786 30.2054 26.1855L30.2291 39.1031C30.2291 39.3216 30.0534 39.4998 29.8349 39.4998L29.0963 39.5021C29.0963 39.5021 29.0939 39.5021 29.0915 39.5021ZM29.0701 25.9433C27.258 25.948 25.7855 27.4253 25.7879 29.2398L25.7998 36.0703C25.8021 36.949 26.1465 37.7755 26.7688 38.3954C27.3886 39.0129 28.2128 39.3549 29.0891 39.3549C29.0915 39.3549 29.0939 39.3549 29.0963 39.3549L29.8349 39.3525C29.9703 39.3525 30.0795 39.2409 30.0795 39.1055L30.0558 26.1879C30.0558 26.1214 30.0296 26.0596 29.9821 26.0145C29.9346 25.9694 29.8729 25.9433 29.8088 25.9433H29.0701Z" fill="#371A45"/>
<path d="M30.1501 35.4693L30.1572 38.9867C30.1572 39.229 29.9838 39.4261 29.7725 39.4285C28.6016 39.4308 27.5447 38.8632 26.8037 37.956C26.1363 37.1342 25.7255 36.0322 25.7231 34.8233L25.7207 33.0017C26.3572 34.5977 27.7703 35.7092 29.4067 35.7045H29.8105C29.9577 35.6997 30.0836 35.6047 30.1501 35.4693Z" fill="#D8D8D8"/>
<path d="M29.0917 39.8439C28.0847 39.8439 27.1395 39.452 26.4246 38.7419C25.7097 38.0294 25.3131 37.0818 25.3107 36.07L25.2988 29.2395C25.2941 27.1567 26.9851 25.4585 29.0703 25.4538L29.8113 25.4514H29.8137C30.0108 25.4514 30.1937 25.5274 30.3338 25.6652C30.474 25.8029 30.55 25.9882 30.55 26.1853L30.5737 39.1029C30.5737 39.509 30.246 39.8392 29.8398 39.8392L29.1012 39.8415C29.0965 39.8439 29.0941 39.8439 29.0917 39.8439ZM29.0703 26.285C27.4458 26.2898 26.1253 27.615 26.1277 29.2395L26.1396 36.07C26.142 36.8585 26.4483 37.5972 27.0088 38.1553C27.5646 38.7087 28.3032 39.015 29.0893 39.015C29.0917 39.015 29.0941 39.015 29.0965 39.015L29.7401 39.0127L29.7163 26.285H29.0703Z" fill="#371A45"/>
<path d="M47.6522 50.6477C58.0905 50.6477 66.5525 42.1857 66.5525 31.7474C66.5525 21.3091 58.0905 12.8472 47.6522 12.8472C37.2139 12.8472 28.752 21.3091 28.752 31.7474C28.752 42.1857 37.2139 50.6477 47.6522 50.6477Z" fill="white"/>
<path d="M47.6806 50.7236C47.2388 50.7236 46.7923 50.7094 46.3482 50.6785C35.9101 49.9589 28.0037 40.8816 28.721 30.4435C29.0701 25.3871 31.3667 20.7677 35.1881 17.4403C39.0095 14.1106 43.902 12.4695 48.956 12.8186C54.0123 13.1677 58.6317 15.4643 61.9591 19.2857C65.2889 23.1071 66.93 27.9972 66.5808 33.0536C66.2317 38.11 63.9351 42.7293 60.1137 46.0567C56.632 49.092 52.2572 50.7236 47.6806 50.7236ZM47.6236 12.9183C43.0826 12.9183 38.7435 14.5381 35.2855 17.5496C31.4926 20.8532 29.215 25.4346 28.8682 30.4506C28.1533 40.808 36.0003 49.814 46.3553 50.5265C51.3713 50.8732 56.2235 49.244 60.0163 45.9403C63.8092 42.6367 66.0868 38.0553 66.4336 33.0393C66.7803 28.0233 65.1511 23.1712 61.8475 19.3783C58.5439 15.5855 53.9625 13.3078 48.9465 12.9611C48.5047 12.935 48.063 12.9183 47.6236 12.9183Z" fill="#371A45"/>
<g opacity="0.25">
<path d="M66.5072 30.4249C66.569 31.2847 66.569 32.161 66.5072 33.0469C65.7876 43.4613 56.765 51.3202 46.3506 50.6053C35.9362 49.8857 28.0773 40.863 28.7922 30.4487C28.8136 30.1494 28.8397 29.8502 28.8753 29.5557C29.5142 38.8229 36.9028 46.4324 46.4313 47.0903C56.5488 47.7862 65.3506 40.3904 66.5072 30.4249Z" fill="#371A45"/>
</g>
<path d="M47.6804 51.066C47.2291 51.066 46.7779 51.0494 46.3243 51.0185C35.6985 50.287 27.6496 41.0459 28.3811 30.4202C28.735 25.2735 31.0744 20.571 34.9646 17.1819C38.8549 13.7928 43.8329 12.1232 48.9795 12.477C54.1261 12.8309 58.8286 15.1703 62.2178 19.0605C65.6069 22.9508 67.2765 27.9288 66.9226 33.0754C66.5688 38.222 64.2294 42.9245 60.3391 46.3137C56.7909 49.4035 52.3401 51.066 47.6804 51.066ZM47.6258 13.2608C43.1655 13.2608 38.9071 14.852 35.5109 17.8089C31.7869 21.0532 29.5496 25.5514 29.21 30.4772C28.5094 40.6469 36.2115 49.489 46.3813 50.1897C51.307 50.5293 56.0713 48.9309 59.7952 45.6867C63.5192 42.4424 65.7565 37.9442 66.0961 33.0184C66.4358 28.0927 64.8374 23.3284 61.5931 19.6044C58.3489 15.8804 53.8506 13.6432 48.9249 13.3035C48.4903 13.275 48.0556 13.2608 47.6258 13.2608Z" fill="#371A45"/>
<path d="M66.4147 33.5259C66.2152 37.219 64.833 40.5844 62.629 43.3109C60.9784 45.3557 54.459 48.7377 46.65 48.3886C39.411 48.0656 33.0365 43.8524 31.6139 41.6436C29.7162 38.6962 28.7021 35.2026 28.8992 31.5095C29.4265 21.7364 38.043 18.1359 48.4027 18.6916C58.7625 19.2497 66.942 23.7527 66.4147 33.5259Z" fill="#371A45"/>
<g opacity="0.5">
<path d="M62.7517 32.4298C63.1781 30.6328 62.4675 28.9254 61.1644 28.6162C59.8613 28.307 58.4593 29.513 58.0329 31.31C57.6064 33.107 58.3171 34.8144 59.6201 35.1236C60.9232 35.4329 62.3252 34.2268 62.7517 32.4298Z" fill="white"/>
</g>
<g opacity="0.5">
<path d="M58.2997 38.8054C58.6073 38.0159 58.3069 37.1615 57.6285 36.8972C56.9502 36.6329 56.1509 37.0587 55.8432 37.8482C55.5355 38.6378 55.836 39.4921 56.5144 39.7564C57.1927 40.0208 57.992 39.595 58.2997 38.8054Z" fill="white"/>
</g>
<g opacity="0.35">
<path d="M63.2574 24.2141C65.4329 26.525 66.6252 29.603 66.4162 33.5289C66.2167 37.222 64.8344 40.5874 62.6328 43.3139C60.9798 45.3587 54.4604 48.7407 46.6538 48.3916C43.8964 48.2681 41.2673 47.5817 38.9873 46.6555C48.5918 46.8787 56.5362 42.7249 58.5834 40.1884C61.3788 36.728 63.1339 32.4577 63.3857 27.7695C63.4522 26.5155 63.4047 25.3327 63.2574 24.2141Z" fill="#111A28"/>
</g>
<path d="M65.2599 25.2855C65.1602 25.2855 65.0628 25.2499 64.9821 25.1786L64.9417 25.1406L64.9084 25.0907C61.9563 20.4429 55.9333 17.5454 48.3784 17.1392C40.7808 16.7307 34.4823 19.0511 31.0932 23.5019L31.0599 23.5399C30.9008 23.7061 30.6396 23.7132 30.4733 23.5541C30.3142 23.4021 30.3023 23.1551 30.4401 22.9889C34.0002 18.322 40.5528 15.8876 48.4212 16.3104C56.2421 16.7307 62.5026 19.766 65.6019 24.6371C65.7064 24.7915 65.6969 25.0052 65.5663 25.1477C65.4856 25.238 65.3739 25.2855 65.2599 25.2855Z" fill="#371A45"/>
<g opacity="0.5">
<path d="M32.802 37.5519C32.802 37.5519 30.294 27.7479 35.6971 24.1854C41.1002 20.623 48.5744 21.041 48.3749 21.5112C48.3749 21.5112 39.9911 23.0692 36.4001 29.4389C33.6309 34.3457 32.802 37.5519 32.802 37.5519Z" fill="white"/>
</g>
<path d="M64.7453 65.1087C64.4128 66.1323 63.8238 66.9826 62.9379 67.5929C58.9076 70.3812 55.1812 67.9516 52.5687 67.4742C49.9538 66.9968 52.6756 60.9881 52.6756 60.9881L59.2139 60.3777C59.2139 60.3777 58.6867 56.5896 57.2261 52.6542C57.2189 52.6376 57.2142 52.6233 57.2071 52.6067C57.1501 52.4499 57.0907 52.2932 57.0266 52.1364C57.0242 52.1293 57.0218 52.1222 57.0194 52.1174C57.0194 52.1151 57.0171 52.1103 57.0147 52.1056C56.9648 51.9821 56.9149 51.8562 56.8651 51.7303L53.9604 43.2991C60.4394 48.1346 66.6239 59.3493 64.7453 65.1087Z" fill="white"/>
<path d="M57.0184 52.1173C57.0184 52.115 57.016 52.1102 57.0137 52.1055C57.016 52.1078 57.016 52.1102 57.0184 52.1173Z" fill="#D8D8D8"/>
<path d="M64.7453 65.1088C64.4128 66.1324 63.8238 66.9827 62.9379 67.5931C58.9076 70.3813 55.1812 67.9517 52.5687 67.4743C49.9538 66.9969 52.6756 60.9882 52.6756 60.9882L59.2139 60.3778C59.2139 60.3778 58.6867 56.5897 57.2261 52.6543C57.8839 54.312 60.0238 59.214 62.6339 60.183C62.6339 60.183 61.0902 61.5582 61.4559 64.0852C61.6839 65.6598 63.3156 66.2203 64.7453 65.1088Z" fill="#D8D8D8"/>
<path d="M54.2091 42.9666C59.3248 46.9019 63.8136 53.7301 65.2077 60.0452C65.7302 62.5817 65.7468 65.7333 63.6188 67.5858C62.5358 68.4931 61.1868 69.0868 59.7784 69.2649C57.7597 69.5333 55.7766 68.8683 53.9146 68.2627C53.4562 68.1178 53.0026 67.9824 52.5561 67.8969C52.2639 67.8423 51.9433 67.7236 51.7058 67.5264C50.3877 66.3556 51.2783 63.6338 51.7509 62.2064C51.9386 61.6649 52.1547 61.1282 52.3922 60.5986L52.6344 60.5748L59.1728 59.9644L58.7999 60.4347C58.5316 58.9907 58.2252 57.5277 57.8737 56.0979C57.5293 54.6563 57.1113 53.2171 56.6672 51.8016C56.6363 51.6899 56.7004 51.5759 56.8097 51.5451C56.9071 51.5166 57.0092 51.5641 57.0543 51.6543C57.4699 52.4998 57.8452 53.3738 58.1539 54.2644C58.8902 56.3663 59.4293 58.5323 59.6716 60.7529L59.2464 60.7933L52.7081 61.4037L53.0477 61.1614C52.6748 62.0212 52.3494 62.9308 52.1143 63.8404C51.9196 64.6741 51.5134 66.4031 52.3257 66.9564C52.4563 67.0229 52.5489 67.0538 52.7057 67.0823C53.2116 67.1821 53.6889 67.3246 54.1568 67.4718C55.9571 68.0537 57.7811 68.6878 59.6668 68.4432C60.7451 68.3149 61.7758 67.8874 62.6736 67.2676C63.2673 66.8591 63.7518 66.3081 64.0677 65.6549C65.8798 61.7386 63.1771 55.7654 61.1417 52.2932C59.1847 49.0252 56.7456 45.9448 53.7056 43.6339C53.2852 43.3062 53.7459 42.6436 54.2091 42.9666Z" fill="#371A45"/>
<path d="M62.6022 60.3898C61.9087 60.3256 61.2009 60.2924 60.5145 60.385C59.7949 60.461 59.1347 60.7888 58.4032 60.8743C57.8569 60.9265 57.7548 60.1356 58.2987 60.0501C58.9827 60.0335 59.7427 59.7675 60.4623 59.7651C61.208 59.7366 61.9372 59.8435 62.6615 59.9813C62.7732 60.0026 62.8492 60.1119 62.8278 60.2235C62.8088 60.328 62.709 60.4016 62.6022 60.3898Z" fill="#371A45"/>
<path d="M40.9402 43.2991C33.3094 48.9919 26.0894 63.5317 31.9627 67.5929C35.9931 70.3788 39.7171 67.9516 42.332 67.4742C44.9469 66.9968 42.2251 60.9881 42.2251 60.9881L35.6867 60.3777C35.6867 60.3777 36.2995 55.9721 38.0332 51.7303" fill="white"/>
<path d="M30.1553 65.1088C30.4878 66.1324 31.0768 66.9827 31.9627 67.5931C35.993 70.3813 39.7194 67.9517 42.3319 67.4743C44.9468 66.9969 42.225 60.9882 42.225 60.9882L35.6866 60.3778C35.6866 60.3778 36.2139 56.5897 37.6745 52.6543C37.0166 54.312 34.8768 59.214 32.2666 60.183C32.2666 60.183 33.8104 61.5582 33.4446 64.0852C33.2166 65.6598 31.585 66.2203 30.1553 65.1088Z" fill="#D8D8D8"/>
<path d="M41.1873 43.6317C36.2425 47.4364 31.8559 54.1031 30.5045 60.2116C30.0343 62.5391 29.9559 65.4413 31.9485 67.0682C34.8056 69.2389 37.5963 68.5407 40.7313 67.4719C41.1991 67.3247 41.6765 67.1798 42.1824 67.0824C42.3391 67.0539 42.4318 67.0231 42.5624 66.9566C43.3794 66.4056 42.9661 64.6694 42.7738 63.8406C42.5386 62.9333 42.2156 62.0213 41.8404 61.1616L42.18 61.4038L35.6416 60.7934L35.2165 60.7531C35.5823 57.6014 36.4705 54.5163 37.8338 51.6544C37.943 51.4336 38.2898 51.5571 38.2209 51.8041C38.0594 52.3171 37.8765 52.8918 37.7221 53.4096C37.4704 54.2883 37.2186 55.2098 37.0073 56.0981C36.6605 57.5302 36.3565 58.9932 36.0905 60.4372L35.7176 59.9669L42.256 60.5773L42.4983 60.6011C42.7358 61.1307 42.9519 61.6674 43.1395 62.2089C43.6383 63.7028 44.6833 66.9376 42.7619 67.7759C42.6384 67.8377 42.4531 67.8662 42.3344 67.8971C40.9213 68.1963 39.5936 68.7877 38.1449 69.0869C35.7295 69.6569 33.2001 69.2128 31.2716 67.5859C29.1436 65.7311 29.1626 62.5818 29.6828 60.0453C31.0769 53.7349 35.568 46.9021 40.6814 42.9667C41.135 42.6556 41.6243 43.2849 41.1873 43.6317Z" fill="#371A45"/>
<path d="M32.2354 59.9789C33.3184 59.7604 34.4655 59.6583 35.5556 59.9005C35.919 59.9741 36.242 60.0406 36.5507 60.0454C36.7811 60.0478 36.9664 60.2378 36.9616 60.4658C36.9593 60.7128 36.7384 60.9051 36.4937 60.8719C36.1114 60.8291 35.7361 60.7128 35.3823 60.6059C34.7149 60.3969 34.0499 60.3138 33.3516 60.328C33.0001 60.3304 32.6462 60.3589 32.2924 60.3898C32.0335 60.4088 31.9789 60.0288 32.2354 59.9789Z" fill="#371A45"/>
<path d="M47.0623 56.1623L45.5305 57.364L43.8347 58.694C43.3075 58.4945 42.8372 58.4185 42.4192 58.4399C42.4192 58.4399 42.4192 58.4399 42.4168 58.4399C39.3911 58.6085 39.042 63.9048 39.042 63.9048C39.4552 64.4083 39.9065 65.3274 39.4528 65.8167C39.042 66.256 38.2321 65.7502 38.2321 65.7502C38.2321 65.7502 38.1323 66.5767 38.2867 67.4483C38.5171 68.7355 37.2536 68.9089 36.5648 68.5052C36.3558 68.3817 36.2205 68.1347 36.2205 68.1347C35.6623 68.9137 34.729 68.4197 34.3917 67.6668C34.2326 67.3105 34.083 66.6337 34.0117 65.7715C33.8027 63.1828 34.3133 58.9197 37.408 56.6587C38.4387 55.9058 39.4932 55.464 40.5073 55.2337C44.02 54.438 47.0623 56.1623 47.0623 56.1623Z" fill="#62ED2E"/>
<path d="M39.0449 63.9046C39.4581 64.4081 39.9094 65.3272 39.4558 65.8165C39.0449 66.2558 38.235 65.75 38.235 65.75C38.235 65.75 38.1353 66.5765 38.2896 67.4481C38.52 68.7353 37.2565 68.9087 36.5678 68.505C36.3588 68.3815 36.2234 68.1345 36.2234 68.1345C35.6653 68.9135 34.7319 68.4195 34.3946 67.6666C34.2355 67.3103 34.0859 66.6335 34.0146 65.7713C34.3305 66.4553 34.9148 67.0728 35.936 66.3413C35.936 66.3413 37.3587 67.2391 37.4394 66.1585C37.5463 64.7311 36.0666 61.4512 38.8573 59.1855C39.9593 58.2901 41.3344 58.2568 42.4245 58.4445C39.394 58.6083 39.0449 63.9046 39.0449 63.9046Z" fill="#32CC17"/>
<path d="M47.0628 56.1623L45.5309 57.364C43.5407 57.1004 41.7856 56.3285 40.5078 55.2337C44.0204 54.438 47.0628 56.1623 47.0628 56.1623Z" fill="#32CC17"/>
<path d="M53.7148 55.148C52.5226 56.2048 50.8933 56.972 49.0337 57.2973L47.585 56.1597C47.5873 56.1621 50.3875 54.5756 53.7148 55.148Z" fill="#32CC17"/>
<path d="M51.3231 56.6323C50.0643 57.162 48.6108 57.466 47.0647 57.466C45.6539 57.466 44.3216 57.2142 43.1436 56.7653C43.6637 55.4662 44.1173 54.616 44.1173 54.616H50.4063C50.4039 54.616 50.8243 55.4092 51.3231 56.6323Z" fill="#32CC17"/>
<path d="M46.8584 56.5231C43.7851 54.9437 39.9115 55.0055 37.2301 57.3306C35.3515 58.9551 34.5606 61.494 34.411 63.9165C34.354 64.895 34.3873 65.9091 34.582 66.8662C34.677 67.403 34.9573 68.0941 35.5534 68.1083C35.6959 68.0941 35.7909 68.011 35.8811 67.8898C36.045 67.6523 36.4179 67.6642 36.5675 67.9088C36.615 67.9896 36.6815 68.0798 36.7575 68.1321C36.9974 68.2865 37.3916 68.3316 37.6434 68.2081C37.983 68.0561 37.8999 67.6286 37.8476 67.3175C37.774 66.7712 37.7669 66.2487 37.8215 65.6977C37.8453 65.4721 38.0495 65.3082 38.2751 65.332C38.3986 65.3415 38.4841 65.4222 38.5958 65.4673C38.8048 65.5576 39.1729 65.6977 39.2204 65.3842C39.2798 65.009 38.9781 64.477 38.724 64.1635C38.6528 64.078 38.6243 63.9758 38.6314 63.8737C38.7668 61.5248 39.8569 57.7961 42.8423 58.1642C43.2151 58.2188 43.5738 58.3376 43.911 58.4967C44.0155 58.5442 44.0606 58.6677 44.0131 58.7722C43.9704 58.8672 43.8635 58.9123 43.7661 58.8862C43.1201 58.6986 42.448 58.6558 41.8875 58.8815C40.1918 59.594 39.693 62.2706 39.4603 63.9307L39.3676 63.641C39.5743 63.8951 39.7405 64.1658 39.8711 64.4698C40.5195 65.9281 39.3914 66.947 38.0139 66.0991L38.6456 65.7975C38.6005 66.2511 38.6076 66.7475 38.6694 67.2011C38.7335 67.5692 38.781 67.9302 38.6195 68.3173C38.1683 69.3766 36.4986 69.3386 35.9168 68.4266C35.8978 68.3957 35.8835 68.3743 35.8574 68.3316L36.558 68.3743C36.1091 69.0417 35.2304 69.1058 34.6224 68.6095C34.1213 68.2461 33.8766 67.6001 33.7698 67.0372C33.6581 66.5052 33.6035 65.978 33.5726 65.4483C33.4301 62.3062 34.221 58.8458 36.6839 56.7012C39.1824 54.5281 42.7021 54.1077 45.7754 55.1693C46.2908 55.3451 46.78 55.5375 47.2645 55.7987C47.7443 56.0837 47.3476 56.7867 46.8584 56.5231Z" fill="#371944"/>
<path d="M47.5879 56.1624C47.5879 56.1624 52.6443 53.2982 57.2423 56.6588C61.3676 59.6727 60.8998 66.2443 60.2585 67.6669C59.9213 68.4174 58.9879 68.9138 58.4298 68.1324C58.4298 68.1324 58.2944 68.3794 58.0854 68.5029C57.3966 68.9067 56.1331 68.7309 56.3635 67.446C56.5203 66.5768 56.4181 65.7479 56.4181 65.7479C56.4181 65.7479 55.6059 66.2538 55.1974 65.8144C54.7438 65.3252 55.195 64.406 55.6059 63.9025C55.6059 63.9025 55.1546 57.0388 50.8155 58.6918" fill="#62ED2E"/>
<path d="M47.5879 56.1624C47.5879 56.1624 52.6443 53.2982 57.2423 56.6588C61.3676 59.6727 60.8998 66.2443 60.2585 67.6669C59.9213 68.4174 58.9879 68.9138 58.4298 68.1324C58.4298 68.1324 58.2944 68.3794 58.0854 68.5029C57.3966 68.9067 56.1331 68.7309 56.3635 67.446C56.5203 66.5768 56.4181 65.7479 56.4181 65.7479C56.4181 65.7479 55.6059 66.2538 55.1974 65.8144C54.7438 65.3252 55.195 64.406 55.6059 63.9025C55.6059 63.9025 55.1546 57.0388 50.8155 58.6918" fill="#62ED2E"/>
<path d="M55.6462 63.9046C55.233 64.4081 54.7817 65.3272 55.2354 65.8165C55.6462 66.2558 56.4561 65.75 56.4561 65.75C56.4561 65.75 56.5559 66.5765 56.4015 67.4481C56.1711 68.7353 57.4346 68.9087 58.1234 68.505C58.3324 68.3815 58.4677 68.1345 58.4677 68.1345C59.0259 68.9135 59.9592 68.4195 60.2965 67.6666C60.4556 67.3103 60.6052 66.6335 60.6765 65.7713C60.3606 66.4553 59.7764 67.0728 58.7551 66.3413C58.7551 66.3413 57.3325 67.2391 57.2517 66.1585C57.1449 64.7311 58.6245 61.4512 55.8339 59.1855C54.7319 58.2901 53.3567 58.2568 52.2666 58.4445C55.2971 58.6083 55.6462 63.9046 55.6462 63.9046Z" fill="#32CC17"/>
<path d="M53.7148 55.148C52.5226 56.2048 50.8933 56.972 49.0337 57.2973L47.585 56.1597C47.5873 56.1621 50.3875 54.5756 53.7148 55.148Z" fill="#32CC17"/>
<path d="M47.3804 55.7986C52.5009 53.1576 58.7662 54.9674 60.5071 60.7457C61.1222 62.7811 61.2742 64.9447 60.8776 67.0371C60.8182 67.3055 60.7564 67.5691 60.6234 67.8612C60.3384 68.4621 59.7352 68.9822 59.0274 68.9371C58.6498 68.9157 58.2936 68.6687 58.0917 68.3742L58.7923 68.3315C58.7187 68.4621 58.6427 68.5547 58.5406 68.664C57.8518 69.3337 56.4363 69.2815 56.0302 68.3172C55.8663 67.9301 55.9162 67.5715 55.9803 67.201C56.0444 66.745 56.0492 66.2486 56.0041 65.7974L56.6358 66.099C55.8924 66.5692 54.8332 66.5692 54.6147 65.5432C54.5031 64.826 54.8688 64.18 55.2844 63.6385L55.1918 63.9282C54.9614 62.2705 54.4603 59.5915 52.7646 58.879C52.2041 58.6557 51.5367 58.6961 50.8907 58.8837C50.7791 58.917 50.6627 58.8552 50.6294 58.7436C50.6009 58.6439 50.6508 58.5394 50.7434 58.4966C51.0807 58.3375 51.4369 58.2187 51.8122 58.1641C54.7976 57.7984 55.8877 61.5247 56.0231 63.8736C56.0302 63.9829 55.9946 64.0874 55.9304 64.1634C55.7761 64.3534 55.6407 64.5719 55.5481 64.7927C55.4388 65.0777 55.3509 65.3414 55.5124 65.5337C55.5362 65.5551 55.5599 65.5694 55.6312 65.5741C55.8022 65.5812 56.0539 65.4815 56.2107 65.3865C56.4601 65.2274 56.8092 65.4031 56.8329 65.6952C56.8876 66.2486 56.8804 66.7711 56.8068 67.315C56.7522 67.6237 56.6714 68.056 57.0111 68.2056C57.3412 68.3529 57.8827 68.2769 58.0703 67.9277C58.1867 67.7187 58.4574 67.6499 58.6569 67.7781C58.7638 67.8446 58.8327 67.9919 58.9324 68.0465C59.1272 68.1629 59.3124 68.0987 59.5262 67.9467C60.3194 67.3981 60.2933 64.8474 60.2434 63.9116C59.9988 59.6889 57.8756 56.257 53.4937 55.5279C52.0449 55.307 50.5321 55.4899 49.1379 55.953C48.6796 56.1074 48.2117 56.295 47.7866 56.5206C47.2997 56.7795 46.9054 56.0789 47.3804 55.7986Z" fill="#371944"/>
<path d="M44.1154 54.616C44.1154 54.616 40.446 61.5153 41.9755 66.035C41.9755 66.035 42.3816 68.0395 47.2599 68.0395C52.1381 68.0395 52.5442 66.035 52.5442 66.035C54.0737 61.5153 50.4044 54.616 50.4044 54.616" fill="#62ED2E"/>
<path d="M51.3231 56.6323C50.0643 57.162 48.6108 57.466 47.0647 57.466C45.6539 57.466 44.3216 57.2142 43.1436 56.7653C43.6637 55.4662 44.1173 54.616 44.1173 54.616H50.4063C50.4039 54.616 50.8243 55.4092 51.3231 56.6323Z" fill="#32CC17"/>
<path d="M52.5441 66.0375C52.5441 66.0375 52.138 68.042 47.2597 68.042C42.3815 68.042 41.9754 66.0375 41.9754 66.0375C41.593 64.907 41.536 63.6292 41.6642 62.3491C41.7212 62.8384 41.821 63.3134 41.9754 63.7646C41.9754 63.7646 42.3815 65.7691 47.2597 65.7691C52.138 65.7691 52.5441 63.7646 52.5441 63.7646C52.6961 63.3134 52.7982 62.8384 52.8552 62.3491C52.9835 63.6292 52.9265 64.907 52.5441 66.0375Z" fill="#32CC17"/>
<path d="M43.0725 57.5183C42.4764 60.2615 41.4979 63.2397 42.4123 65.9686C42.7471 66.7048 43.6615 67.0777 44.4144 67.2962C46.3334 67.8092 50.5751 67.8995 51.9336 66.256C52.0215 66.142 52.0999 66.0042 52.1236 65.895C53.0095 63.1305 52.012 60.2543 51.442 57.5183C51.4183 57.4043 51.4943 57.2927 51.6083 57.2713C51.6985 57.2523 51.7888 57.2975 51.8315 57.3758C52.1973 58.0266 52.4751 58.7225 52.6984 59.4326C53.1235 60.8742 53.399 62.3752 53.3515 63.8928C53.3444 64.5697 53.1568 65.6717 52.9739 66.1253C52.8433 66.6051 52.525 66.9566 52.1569 67.2558C50.9718 68.156 49.4589 68.3578 48.022 68.4386C47.0293 68.4742 45.9391 68.4481 44.9583 68.2818C43.7043 68.0657 41.9539 67.4838 41.5406 66.123C40.8709 64.2111 41.1654 61.5202 41.8209 59.4326C42.0441 58.7201 42.3244 58.029 42.6806 57.3735C42.8018 57.1668 43.1224 57.2832 43.0725 57.5183Z" fill="#371944"/>
<path d="M48.3898 62.843C48.3898 62.843 48.9361 62.4012 48.7627 61.8407C48.5347 61.1021 47.7604 60.9382 47.3757 60.924C46.9909 60.9073 46.2048 61.0095 45.9198 61.7267C45.7013 62.273 46.2096 62.7575 46.2096 62.7575C46.2096 62.7575 46.5278 63.1683 47.2831 63.1992C48.0407 63.2277 48.3898 62.843 48.3898 62.843Z" fill="#62ED2E"/>
<g opacity="0.7">
<path d="M48.7552 62.3158C48.7528 62.304 48.748 62.2921 48.7457 62.2802C48.5177 61.5416 47.7434 61.3777 47.3587 61.3635C46.9739 61.3468 46.1878 61.449 45.9028 62.1662C45.898 62.1781 45.8933 62.19 45.8909 62.2018C45.8577 62.057 45.8553 61.8955 45.9218 61.7268C46.2068 61.0096 46.9929 60.9098 47.3777 60.9241C47.7624 60.9407 48.539 61.1022 48.7647 61.8408C48.8169 62.0142 48.8003 62.1733 48.7552 62.3158Z" fill="white"/>
</g>
<path d="M47.5653 63.7123L46.8504 63.6838C46.0524 63.6505 45.4848 62.8929 45.6819 62.1186L45.8149 61.5938C45.8149 61.5938 46.0738 62.4725 47.2565 62.52C48.4393 62.5675 48.767 61.7125 48.767 61.7125L48.8573 62.2469C48.9903 63.0354 48.3633 63.7455 47.5653 63.7123Z" fill="#32CC17"/>
<path d="M48.2592 62.6815C48.3304 62.5247 48.4207 62.3205 48.4136 62.1566C48.3589 61.6555 47.8388 61.3563 47.3567 61.3373C46.8746 61.3183 46.3331 61.5724 46.2381 62.0687C46.2167 62.254 46.3069 62.4796 46.3687 62.6601C46.4043 62.7694 46.3473 62.8881 46.2381 62.9237C46.0979 62.9712 45.9744 62.8454 45.8794 62.7741C45.5636 62.5081 45.3902 62.0498 45.5137 61.6317C45.8486 60.4917 47.2949 60.2899 48.2568 60.696C48.6914 60.867 49.0857 61.2945 49.1712 61.779C49.2614 62.2065 49.0524 62.6459 48.7152 62.8881C48.5774 62.9902 48.3542 63.1233 48.2402 62.9095C48.2022 62.8335 48.2259 62.7528 48.2592 62.6815Z" fill="#371944"/>
<path d="M47.809 61.995C47.771 62.0093 47.6261 61.7005 47.3458 61.6887C47.0656 61.6768 46.897 61.9737 46.859 61.957C46.8305 61.9452 46.9136 61.6982 47.1155 61.5865C46.9231 61.4583 46.859 61.2065 46.8875 61.1947C46.9255 61.1828 47.0703 61.4915 47.3506 61.501C47.6308 61.5129 47.7995 61.216 47.8375 61.2327C47.866 61.2445 47.7828 61.4915 47.581 61.6032C47.7757 61.7338 47.8375 61.9855 47.809 61.995Z" fill="#371944"/>
<path d="M51.7225 65.5388C51.7225 65.5388 52.9527 66.6622 53.005 69.3649C53.0572 71.9727 52.3685 73.6684 52.3685 73.6684C52.3685 73.6684 53.2235 75.1956 52.4445 75.5946C51.6512 76.0007 50.6038 74.8868 50.6228 74.1102C50.6418 75.1196 50.3331 75.8606 49.4425 75.5138C48.35 75.0887 48.027 72.9583 48.1837 72.0748C48.5328 70.1178 48.9366 69.6618 49.0173 68.3603C49.0957 67.1182 48.7205 66.5577 48.7205 66.5577" fill="#62ED2E"/>
<path d="M49.4401 75.5159C50.3141 75.8555 50.6276 75.1478 50.6228 74.1693V74.1669C49.0458 75.5468 48.8558 72.597 49.2239 71.3763C49.5897 70.1555 49.4876 67.8898 51.0004 67.8185C51.7581 67.7829 52.4088 67.8945 52.8696 68.0156C52.5371 66.2819 51.7224 65.5361 51.7224 65.5361L48.7204 66.5574C48.7204 66.5574 49.0933 67.1179 49.0173 68.36C48.9366 69.6615 48.5304 70.1175 48.1837 72.0745C48.0246 72.9628 48.3476 75.0931 49.4401 75.5159Z" fill="#32CC17"/>
<path d="M51.8623 65.3843C54.0639 66.5979 53.5272 71.8182 52.7529 73.825L52.7316 73.4664C52.7909 73.5757 52.8337 73.6683 52.8812 73.7704C53.2897 74.6183 53.4559 75.9222 52.2114 76.0908C51.1949 76.1739 50.2141 75.0838 50.2069 74.1029C50.2307 73.5614 51.0121 73.5614 51.0382 74.1005C51.0429 74.3713 51.0311 74.6444 50.9693 74.9342C50.7247 76.2547 49.3828 76.3093 48.5991 75.3925C47.8723 74.4971 47.5992 73.0057 47.7987 71.8823C48.0362 70.3338 48.7867 68.8827 48.6751 67.308C48.6561 67.0943 48.6204 66.8734 48.5516 66.6715L48.5397 66.586C48.5254 66.4768 48.6014 66.377 48.7107 66.3628C48.8769 66.3414 48.9482 66.5195 49.0194 66.6312C49.2451 67.0468 49.3472 67.5194 49.3828 67.9849C49.4208 68.5098 49.3852 69.0465 49.2641 69.5572C49.1382 70.0654 48.9672 70.5143 48.8484 70.9798C48.7392 71.4263 48.6204 71.8989 48.5706 72.3525C48.5444 72.7824 48.5967 73.255 48.7036 73.692C48.8769 74.3285 49.1524 75.1289 49.8626 75.1835C50.1951 75.1622 50.2141 74.4164 50.2117 74.1172L51.0429 74.1195C51.0382 74.2217 51.0786 74.3689 51.1474 74.5043C51.2781 74.775 51.5227 75.041 51.7839 75.1788C51.9787 75.2738 52.1853 75.3189 52.3207 75.1693C52.3492 75.1289 52.3729 75.0007 52.3539 74.8487C52.3183 74.5447 52.1711 74.1742 52.0119 73.8702C51.9502 73.7562 51.9478 73.6232 51.9906 73.5115C52.0428 73.3714 52.0998 73.198 52.1426 73.0484C52.5463 71.5783 52.7102 70.0037 52.5154 68.4884C52.3967 67.669 52.1164 66.8972 51.7673 66.1514C51.7079 66.0042 51.6058 65.7809 51.5726 65.6265C51.5203 65.4603 51.7103 65.3059 51.8623 65.3843Z" fill="#371A45"/>
<path d="M45.0794 75.5162C44.2054 75.8558 43.8919 75.1481 43.8967 74.1696C43.8943 74.2171 43.8895 74.2646 43.88 74.3121V74.3216C43.7352 75.0697 42.7994 75.9651 42.075 75.5946C41.2984 75.1979 42.151 73.6684 42.151 73.6684C42.151 73.6684 41.4623 71.9727 41.5145 69.3649C41.524 68.8614 41.5763 68.4149 41.6499 68.0183C41.9824 66.2846 42.797 65.5388 42.797 65.5388L45.799 66.5601C45.799 66.5601 45.4262 67.1206 45.5022 68.3627C45.5829 69.6642 45.989 70.1202 46.3358 72.0772C46.4949 72.9631 46.1719 75.0934 45.0794 75.5162Z" fill="#62ED2E"/>
<path d="M43.8799 74.3144L43.8965 74.1719C43.8941 74.217 43.8894 74.2645 43.8799 74.3144Z" fill="#32CC17"/>
<path d="M45.0799 75.5159C44.2059 75.8555 43.8924 75.1478 43.8971 74.1693V74.1669C45.4741 75.5468 45.6641 72.597 45.296 71.3763C44.9303 70.1555 45.0324 67.8898 43.5195 67.8185C42.7619 67.7829 42.1111 67.8945 41.6504 68.0156C41.9829 66.2819 42.7975 65.5361 42.7975 65.5361L45.7995 66.5574C45.7995 66.5574 45.4266 67.1179 45.5026 68.36C45.5834 69.6615 45.9895 70.1175 46.3363 72.0745C46.4954 72.9628 46.1724 75.0931 45.0799 75.5159Z" fill="#32CC17"/>
<path d="M42.9376 65.6909C42.8378 65.9925 42.6906 66.306 42.5623 66.5957C41.8522 68.1347 41.8237 69.8922 42.0636 71.5476C42.1372 72.0559 42.2417 72.557 42.3818 73.0486C42.4341 73.3194 42.6573 73.6067 42.5124 73.8727C42.3296 74.248 42.0659 74.8037 42.2013 75.1719C42.3367 75.3215 42.5457 75.274 42.7381 75.1814C43.0991 74.989 43.4672 74.533 43.4791 74.1221L44.3103 74.1197C44.3056 74.343 44.3198 74.5662 44.3602 74.7586C44.4576 75.2122 44.6214 75.2669 44.9896 75.1006C45.4717 74.8156 45.6617 74.2622 45.8161 73.6946C45.9229 73.2576 45.9752 72.785 45.9491 72.3551C45.8398 71.3814 45.5168 70.5192 45.2556 69.5597C45.0822 68.7902 45.0632 67.9685 45.2722 67.2014C45.3387 66.9734 45.4266 66.7454 45.5572 66.5435C45.5786 66.5126 45.5952 66.4865 45.6261 66.4461C45.6926 66.3582 45.8161 66.3392 45.9039 66.4057C45.9633 66.4509 45.9918 66.5221 45.9823 66.591L45.9704 66.6765C45.9681 66.6884 45.9562 66.7169 45.9514 66.7406C45.8279 67.1467 45.8208 67.5742 45.8469 67.997C45.9514 69.3199 46.5143 70.5644 46.7233 71.8872C46.8896 72.8254 46.7257 73.7944 46.3694 74.6636C46.0821 75.3619 45.4574 76.0411 44.6309 76.0197C43.6738 75.9889 43.4458 74.8584 43.4814 74.1055C43.5076 73.564 44.2889 73.5664 44.3127 74.1055C44.3174 74.4071 44.2296 74.6541 44.1227 74.8774C43.8971 75.3239 43.5693 75.6801 43.1228 75.9224C42.6312 76.2097 41.8142 76.1622 41.4936 75.6065C41.1159 74.9059 41.4746 74.1102 41.7881 73.4714L41.7667 73.83C41.6289 73.4714 41.5339 73.1199 41.4461 72.7517C40.9996 70.7401 40.7241 67.4032 42.1681 65.7526C42.3224 65.6054 42.7547 65.1612 42.9399 65.489C42.9732 65.5507 42.9566 65.6267 42.9376 65.6909Z" fill="#371A45"/>
<path d="M59.6046 45.19C59.4739 52.3388 51.0902 56.7325 47.0432 56.6589C42.9962 56.5853 34.7811 51.8875 34.9117 44.7364C35.0423 37.5877 40.3576 31.2868 47.5063 31.4198C54.6574 31.548 59.7352 38.0389 59.6046 45.19Z" fill="#7DC142"/>
<path d="M59.6046 45.1901C59.4739 52.3388 51.0902 56.7326 47.0432 56.659C42.9962 56.5853 34.7811 51.8876 34.9117 44.7365C34.9734 41.3925 36.1681 38.2313 38.1583 35.8302C38.2224 35.7542 38.2842 35.6782 38.3483 35.6046C40.5998 33.004 43.8084 31.351 47.5063 31.4175C51.0308 31.4816 54.0518 33.0918 56.1917 35.5642C57.8922 37.526 59.0369 40.0292 59.4431 42.7367C59.5642 43.5395 59.6188 44.3588 59.6046 45.1901Z" fill="#62ED2E"/>
<g opacity="0.7">
<path d="M59.4437 42.7367C59.5292 43.3019 59.5815 43.8743 59.5981 44.4538C59.5744 44.2068 59.5435 43.9598 59.5079 43.7152C59.1017 41.0077 57.957 38.5044 56.2565 36.5427C55.278 35.4145 54.119 34.4669 52.8104 33.7615C52.9077 33.9373 52.9362 34.1107 52.884 34.265C52.7059 34.7947 51.6276 34.9087 50.4734 34.5215C49.3215 34.1344 48.5306 33.3887 48.7087 32.859C48.7586 32.7118 48.875 32.5978 49.046 32.517C48.5639 32.4458 48.0699 32.4054 47.5687 32.3959C43.8709 32.3294 40.6646 33.9824 38.4107 36.583C38.3466 36.6567 38.2825 36.7327 38.2207 36.8087C36.2329 39.2122 35.0359 42.3709 34.9741 45.7149C34.9717 45.8076 34.9717 45.8978 34.9741 45.9881C34.9242 45.5795 34.9029 45.1615 34.9124 44.7364C34.9741 41.3924 36.1711 38.2313 38.159 35.8302C38.2231 35.7542 38.2849 35.6782 38.349 35.6045C40.6005 33.0039 43.8091 31.3509 47.507 31.4198C51.0315 31.4839 54.0525 33.0942 56.1924 35.5665C57.8952 37.5259 59.04 40.0292 59.4437 42.7367Z" fill="white"/>
</g>
<path d="M57.1257 51.51C54.2995 54.892 49.7062 56.811 47.0225 56.7611C44.201 56.7088 39.3536 54.4098 36.7197 50.6003C40.0281 53.3292 44.4195 54.9252 47.2054 54.9775C49.7989 55.0226 53.8316 53.7852 57.1257 51.51Z" fill="#32CC17"/>
<path d="M44.5552 56.407C39.4015 55.0865 34.4852 50.441 34.4805 44.8574C34.471 37.6635 39.9762 30.7998 47.4907 30.9446C54.079 31.004 59.1662 36.6185 59.912 42.9408C60.3822 46.2634 59.608 49.1846 57.4159 51.7378C55.39 54.0914 52.6255 55.8346 49.5879 56.4854C49.4762 56.5091 49.3646 56.4355 49.3432 56.3239C49.3219 56.2218 49.3812 56.1196 49.4762 56.0864C50.8727 55.5663 52.2051 54.8941 53.4472 54.0795C55.884 52.493 58.0547 50.232 58.8456 47.3891C59.5937 44.6555 58.9952 41.3733 57.7982 38.8463C55.2237 33.2911 49.0202 30.3818 43.211 32.657C38.3707 34.5618 35.3711 39.7606 35.3474 44.8621C35.2975 49.415 38.8909 53.0013 42.6647 55.0485C43.3155 55.4071 43.99 55.7254 44.6835 56.0128C44.9162 56.1078 44.8022 56.4664 44.5552 56.407Z" fill="#371944"/>
<path d="M38.047 43.993C37.2894 44.9406 36.9189 47.2871 38.8807 49.5695C40.8424 51.8519 44.0819 51.8305 44.906 50.6976C45.5402 49.8284 45.7753 47.6077 43.8135 45.3277C41.8518 43.0454 38.8237 43.0216 38.047 43.993Z" fill="#371944"/>
<g opacity="0.7">
<path d="M45.3101 49.6594C45.1961 48.7166 44.7639 47.6051 43.7949 46.4769C41.8331 44.1946 38.805 44.1732 38.0284 45.1422C37.7719 45.4628 37.5605 45.9426 37.4679 46.5268C37.3444 45.4272 37.6389 44.5033 38.0498 43.9927C38.8264 43.0237 41.8545 43.0451 43.8163 45.3274C45.2199 46.9614 45.4978 48.5622 45.3101 49.6594Z" fill="white"/>
</g>
<g opacity="0.35">
<path d="M44.9091 50.6978C44.0849 51.8306 40.8454 51.8496 38.8837 49.5696C37.4492 47.9 37.2616 46.1971 37.5608 45.031C37.7247 45.8694 38.1356 46.7885 38.9193 47.6981C40.8811 49.9805 44.1206 49.9591 44.9447 48.8263C45.0753 48.6458 45.1893 48.4083 45.2701 48.1256C45.5028 49.2633 45.2701 50.2014 44.9091 50.6978Z" fill="#101928"/>
</g>
<path d="M56.5016 44.3325C57.2236 45.3063 57.5086 47.667 55.4637 49.8734C53.4188 52.0822 50.1817 51.942 49.4003 50.7783C48.7995 49.8853 48.6451 47.6599 50.69 45.4512C52.7348 43.2448 55.7606 43.335 56.5016 44.3325Z" fill="#371944"/>
<g opacity="0.7">
<path d="M56.9899 46.8784C56.9187 46.2894 56.7239 45.8001 56.4793 45.47C55.7383 44.4725 52.7125 44.3822 50.6677 46.591C49.6535 47.6859 49.1809 48.7855 49.0337 49.7236C48.8888 48.6193 49.226 47.0328 50.689 45.4534C52.7339 43.247 55.762 43.3349 56.5007 44.3324C56.8902 44.8572 57.1538 45.7859 56.9899 46.8784Z" fill="white"/>
</g>
<g opacity="0.35">
<path d="M55.4637 49.8734C53.4188 52.0798 50.1817 51.942 49.4003 50.7783C49.0583 50.2677 48.8612 49.3224 49.1343 48.1943C49.2056 48.4817 49.3101 48.7239 49.4336 48.9092C50.2173 50.0729 53.4521 50.2107 55.4969 48.0043C56.3116 47.1232 56.7581 46.2207 56.9528 45.3894C57.2093 46.565 56.9576 48.2608 55.4637 49.8734Z" fill="#101928"/>
</g>
<path d="M42.8975 51.8636C41.6103 51.8636 39.8528 51.3363 38.5655 49.8401C36.4043 47.325 36.9006 44.76 37.7224 43.734C38.0976 43.2661 38.822 42.9882 39.7126 42.9716C41.3324 42.9407 42.9806 43.7221 44.1278 45.0568C46.2581 47.534 45.9423 49.9802 45.2416 50.9421C44.845 51.486 44.0589 51.8208 43.0804 51.8612C43.0234 51.8612 42.9616 51.8636 42.8975 51.8636ZM39.791 43.8005C39.7696 43.8005 39.7506 43.8005 39.7293 43.8005C39.107 43.8123 38.5869 43.9833 38.3731 44.2517C37.6701 45.1305 37.4611 47.2775 39.1973 49.2986C40.3539 50.6428 41.9499 51.0751 43.0495 51.03C43.7501 51.0015 44.3344 50.7806 44.5719 50.4528C45.035 49.814 45.3841 47.7905 43.4984 45.5983C42.3584 44.2707 40.8479 43.8005 39.791 43.8005Z" fill="#371944"/>
<path d="M51.5433 52.0223C51.4175 52.0223 51.2963 52.0176 51.18 52.0081C50.2038 51.9321 49.4296 51.5687 49.0543 51.0106C48.3917 50.0249 48.1637 47.5668 50.3843 45.1704C51.579 43.8784 53.2557 43.1636 54.8731 43.2491C55.7613 43.2966 56.4762 43.6006 56.8349 44.0827C57.6186 45.1396 58.02 47.7212 55.7685 50.1532C54.4884 51.5378 52.8116 52.0223 51.5433 52.0223ZM54.6308 44.0732C53.5811 44.0732 52.1324 44.5054 50.9947 45.7333C49.0306 47.8542 49.3037 49.8919 49.7455 50.5451C49.9711 50.8799 50.5458 51.1222 51.2465 51.1768C52.3485 51.2623 53.954 50.8894 55.1605 49.5879C56.9702 47.6333 56.8396 45.4792 56.1699 44.5743C55.9656 44.2988 55.4526 44.1088 54.8304 44.0732C54.7662 44.0756 54.6997 44.0732 54.6308 44.0732Z" fill="#371944"/>
<path d="M47.1162 50.6075C47.2112 50.7809 47.2112 50.9638 47.1162 51.016C47.0212 51.0683 46.8645 50.9733 46.7695 50.7999C46.6745 50.6265 46.6745 50.4437 46.7695 50.3914C46.8669 50.3368 47.0212 50.4342 47.1162 50.6075Z" fill="#371944"/>
<path d="M47.4387 50.6122C47.3366 50.7808 47.3294 50.9637 47.4244 51.0207C47.5194 51.0777 47.6762 50.9851 47.7783 50.8165C47.8804 50.6478 47.8876 50.4649 47.7926 50.4079C47.6976 50.3509 47.5408 50.4436 47.4387 50.6122Z" fill="#371944"/>
<path d="M55.0596 36.4663C55.1094 36.3855 57.7148 34.7848 59.9069 35.8963C61.7476 36.8273 61.8924 39.6678 61.9186 39.9148C62.2891 40.3613 62.2321 41.1593 61.4459 41.1878C60.8189 41.2115 60.6123 40.423 60.9852 39.929C61.0066 39.6559 60.2941 34.6684 55.8789 37.6229L55.0596 36.4663Z" fill="#62ED2E"/>
<path d="M54.9557 36.4049C54.9747 36.3788 54.9937 36.3598 55.0151 36.3455C55.1742 36.222 55.3476 36.1246 55.5233 36.0296C56.8248 35.3409 58.3994 35.0013 59.8221 35.5855C61.2779 36.184 61.9049 37.818 62.1021 39.2715C62.1329 39.452 62.1472 39.7038 62.1638 39.889L62.1092 39.7584C62.2256 39.8985 62.3063 40.0576 62.3491 40.231C62.4488 40.5896 62.3514 41.0361 62.0213 41.257C61.5178 41.6061 60.7673 41.428 60.6034 40.8105C60.4966 40.4543 60.5726 40.0743 60.7911 39.7821L60.7436 39.9104C60.7436 39.9151 60.7436 39.9175 60.7412 39.908C60.5892 38.8606 60.1546 37.6138 59.1784 37.096C58.1287 36.5806 56.8889 37.1554 55.9484 37.7254C55.8914 37.761 55.8154 37.742 55.7798 37.685C55.7466 37.6304 55.7608 37.5591 55.8131 37.5211C56.3118 37.1649 56.8462 36.8419 57.4518 36.6471C59.6796 35.8919 61.0428 37.8536 61.2328 39.8558C61.2376 39.927 61.2352 40.0196 61.1829 40.0766C61.0571 40.2405 61.0143 40.4756 61.0737 40.6656C61.1639 41.0741 61.8076 40.9981 61.8812 40.649C61.9311 40.4685 61.8669 40.2286 61.7339 40.0695C61.7031 40.0315 61.6841 39.9864 61.6793 39.9389C61.6556 39.7608 61.6366 39.5138 61.6033 39.3404C61.4157 38.2241 61.0428 37.0153 60.1094 36.3099C58.6678 35.3171 56.7156 35.7233 55.2549 36.4856L55.1932 36.5213L55.1671 36.5379L55.1552 36.545C55.1552 36.545 55.1671 36.5331 55.1671 36.526C55.0816 36.6685 54.8726 36.5426 54.9557 36.4049Z" fill="#371944"/>
<path d="M39.4581 36.4711C39.4082 36.3904 36.8029 34.792 34.6107 35.9035C32.7701 36.8369 32.6276 39.675 32.6015 39.922C32.231 40.3685 32.288 41.1665 33.0741 41.195C33.7011 41.2187 33.9077 40.4302 33.5349 39.9362C33.5111 39.6631 34.2236 34.6756 38.6387 37.6277L39.4581 36.4711Z" fill="#62ED2E"/>
<path d="M39.3534 36.5354C37.9664 35.7873 35.8669 35.2862 34.411 36.3193C33.6368 36.8988 33.2497 37.8488 33.0335 38.7703C32.9409 39.1503 32.8863 39.5588 32.8459 39.9483C32.8412 39.9982 32.8198 40.0433 32.7913 40.0789C32.6583 40.2381 32.5942 40.4779 32.644 40.6584C32.7177 41.0076 33.3613 41.0859 33.4515 40.6751C33.5109 40.4851 33.4658 40.2476 33.3423 40.0861C33.29 40.0243 33.29 39.9388 33.2924 39.8652C33.48 37.8631 34.8433 35.9013 37.071 36.6542C37.6767 36.8489 38.211 37.1719 38.7098 37.5282C38.8333 37.6184 38.7074 37.8132 38.5744 37.7324C37.6339 37.1601 36.3942 36.5877 35.3444 37.1031C34.3683 37.6232 33.9432 38.8511 33.784 39.8961L33.7817 39.9151C33.7817 39.9222 33.7817 39.9198 33.7793 39.9174L33.7318 39.7892C34.0643 40.2262 34.0667 40.9387 33.5893 41.2902C33.2473 41.5182 32.8435 41.4802 32.5015 41.2664C32.0075 40.9221 32.055 40.1858 32.4137 39.7678L32.359 39.8984C32.4635 38.4402 32.8768 36.8252 34.1189 35.9156C35.7505 34.8183 37.9355 35.3123 39.4698 36.3241C39.503 36.3502 39.5387 36.3716 39.5648 36.4119C39.6432 36.5473 39.4389 36.6708 39.3534 36.5354Z" fill="#371944"/>
<path d="M48.1883 52.0417C48.1883 52.5547 47.4734 52.728 47.2597 52.728C47.0459 52.728 46.3311 52.5523 46.3311 52.0417C46.3311 51.531 46.5686 52.2673 47.2597 52.2673C47.9484 52.2673 48.1883 51.5287 48.1883 52.0417Z" fill="#371944"/>
<path d="M53.0128 67.5907C53.0128 67.5907 55.1265 67.7118 55.9364 66.2369C56.2927 65.0542 56.3853 63.337 56.1526 61.779C55.8201 59.5632 53.8654 57.9624 51.6305 58.1263C50.9347 58.1762 50.2578 58.3543 49.6949 58.6892C48.6642 59.2995 49.0465 60.8932 49.721 61.3967C49.721 61.3967 49.6213 63.014 49.6474 63.7147C49.683 64.7074 49.9467 67.6073 53.0128 67.5907Z" fill="white"/>
<path d="M53.1365 68.0086C53.0724 68.0086 53.0272 68.0062 53.0035 68.0062C52.9987 68.0062 52.994 68.0062 52.9892 68.0062C50.7021 68.0062 49.3317 66.4506 49.232 63.7312C49.2106 63.1612 49.2676 62.0355 49.2937 61.5747C48.8757 61.1496 48.6121 60.4324 48.6477 59.7769C48.681 59.1451 48.9779 58.6321 49.4837 58.3352C50.068 57.9885 50.7995 57.7747 51.5999 57.7177C54.0224 57.5396 56.2002 59.2995 56.5636 61.722C56.8035 63.318 56.7156 65.0945 56.3356 66.3604C56.3261 66.3889 56.3166 66.415 56.3024 66.4411C55.4996 67.897 53.6732 68.0086 53.1365 68.0086ZM53.0367 67.1774C53.0652 67.1774 54.8655 67.2581 55.5519 66.0754C55.882 64.9377 55.958 63.2847 55.7419 61.8431C55.4379 59.8125 53.6827 58.397 51.6616 58.5442C50.9895 58.5941 50.3815 58.7675 49.9065 59.0501C49.6405 59.2069 49.4956 59.4681 49.4766 59.822C49.4481 60.3421 49.7094 60.8741 49.9682 61.0665C50.0799 61.1496 50.1416 61.285 50.1345 61.4251C50.1345 61.4417 50.0371 63.0306 50.0609 63.7027C50.1202 65.2892 50.676 67.1774 52.9892 67.1774C52.9964 67.1774 53.0059 67.1774 53.013 67.1774C53.0201 67.1774 53.0296 67.175 53.0367 67.1774Z" fill="#371944"/>
<path d="M41.46 67.5904C41.46 67.5904 39.3462 67.7115 38.5364 66.2367C38.1801 65.0539 38.0875 63.3368 38.3202 61.7788C38.6527 59.5629 40.6074 57.9622 42.8422 58.126C43.5381 58.1759 44.215 58.354 44.7779 58.6889C45.8086 59.2993 45.4262 60.8929 44.7517 61.3964C44.7517 61.3964 44.8515 63.0138 44.8254 63.7144C44.7897 64.7072 44.5261 67.607 41.46 67.5904Z" fill="white"/>
<path d="M41.3365 68.0085C40.7998 68.0085 38.9758 67.8968 38.173 66.4362C38.1588 66.4101 38.1469 66.384 38.1398 66.3555C37.7598 65.0896 37.6719 63.3131 37.9118 61.7171C38.2752 59.2946 40.4578 57.5347 42.8755 57.7128C43.6759 57.7722 44.4074 57.986 44.9917 58.3303C45.4975 58.6296 45.7944 59.1426 45.8277 59.772C45.8633 60.4275 45.5997 61.1447 45.1817 61.5698C45.2078 62.0306 45.2648 63.1563 45.2434 63.7263C45.1413 66.4433 43.7733 68.0013 41.4862 68.0013C41.4814 68.0013 41.4767 68.0013 41.4719 68.0013C41.4458 68.0061 41.4007 68.0085 41.3365 68.0085ZM38.9212 66.0752C39.6099 67.2603 41.4173 67.1772 41.4363 67.1772C41.4434 67.1772 41.4553 67.1772 41.4624 67.1772C41.4695 67.1772 41.4767 67.1772 41.4838 67.1772C43.7947 67.1772 44.3528 65.2891 44.4122 63.7026C44.4359 63.0305 44.3409 61.4416 44.3385 61.425C44.329 61.2848 44.3932 61.1518 44.5048 61.0663C44.7637 60.874 45.0249 60.342 44.9964 59.8218C44.9774 59.4656 44.8325 59.2067 44.5665 59.05C44.0915 58.7697 43.4859 58.594 42.8114 58.5441C40.7879 58.3968 39.0352 59.8147 38.7312 61.843C38.515 63.2846 38.591 64.9376 38.9212 66.0752Z" fill="#371944"/>
<path d="M25.7 20.6267C26.2581 19.7147 26.5312 18.6222 26.4149 17.4775C26.1299 14.6987 23.6456 12.6776 20.8669 12.9626C18.0881 13.2476 16.067 15.7318 16.352 18.5106C16.637 21.2893 19.1212 23.3105 21.9 23.0255C22.6719 22.9471 23.3867 22.6953 24.009 22.3177L26.3484 22.8426L25.7 20.6267Z" fill="#FF0068"/>
<g opacity="0.5">
<path d="M20.9658 13.9295C23.5617 13.6635 25.8987 15.4091 26.4283 17.9053C26.4283 17.7271 26.4212 17.5466 26.4022 17.3661C26.1172 14.5874 23.6329 12.5663 20.8542 12.8513C18.0754 13.1363 16.0543 15.6205 16.3393 18.3993C16.3583 18.5821 16.3868 18.7603 16.4248 18.936C16.4367 16.3829 18.3699 14.1955 20.9658 13.9295Z" fill="white"/>
</g>
<path d="M21.3751 23.4648C20.1211 23.4648 18.917 23.0373 17.9314 22.2369C16.7985 21.3154 16.0907 20.0044 15.9411 18.5509C15.6324 15.5489 17.8245 12.8556 20.8265 12.5493C23.8285 12.2405 26.5217 14.4326 26.8281 17.4346C26.9445 18.5746 26.7117 19.6933 26.1489 20.6836L26.7474 22.7261C26.7877 22.8663 26.7521 23.0206 26.6524 23.1275C26.5526 23.2344 26.403 23.2819 26.2581 23.2486L24.0779 22.7594C23.42 23.1323 22.7027 23.3603 21.9427 23.4386C21.7527 23.4553 21.5627 23.4648 21.3751 23.4648ZM21.387 13.3496C21.2279 13.3496 21.0711 13.3568 20.9096 13.3734C18.3636 13.637 16.5064 15.9218 16.7676 18.4678C16.8935 19.7004 17.4944 20.8119 18.4562 21.5933C19.4181 22.377 20.627 22.738 21.8596 22.6098C22.5531 22.5385 23.2039 22.32 23.7952 21.9614C23.8879 21.9044 23.9971 21.8878 24.1016 21.9115L25.7546 22.282L25.3034 20.7454C25.2701 20.6338 25.2867 20.5126 25.3485 20.4129C25.8829 19.5413 26.1085 18.5414 26.004 17.5225C25.757 15.1333 23.7359 13.3496 21.387 13.3496Z" fill="#371A45"/>
<g opacity="0.2">
<path d="M25.7279 20.5799C24.3433 21.7508 22.4338 22.2638 20.5385 21.7935C18.4367 21.271 16.8882 19.6703 16.3324 17.7275C16.3182 17.984 16.3253 18.2477 16.3514 18.5113C16.6364 21.29 19.1207 23.3112 21.8994 23.0262C22.6713 22.9478 23.3862 22.696 24.0084 22.3184L26.3478 22.8433L25.6994 20.6298C25.7113 20.6108 25.7184 20.5942 25.7279 20.5799Z" fill="#371A45"/>
</g>
<path d="M23.0019 16.5729C22.5649 16.1359 21.8548 16.2143 21.4178 16.6513L21.3489 16.7202L21.28 16.6513C20.843 16.2143 20.1329 16.1359 19.6959 16.5729C19.2589 17.0099 19.2589 17.72 19.6959 18.157L19.7648 18.2259L21.1399 19.601C21.2563 19.7174 21.4415 19.7174 21.5579 19.601L22.933 18.2259L23.0019 18.157C23.4389 17.72 23.4389 17.0099 23.0019 16.5729Z" fill="white"/>
</g>
<defs>
<clipPath id="clip0_2_64417">
<rect width="95" height="95" rx="8" fill="white"/>
</clipPath>
</defs>
</svg>
