<svg width="63" height="74" viewBox="0 0 63 74" fill="none" xmlns="http://www.w3.org/2000/svg">
<g opacity="0.2">
<path d="M32.4284 73.5926C49.2939 73.5926 62.9661 71.8754 62.9661 69.757C62.9661 67.6387 49.2939 65.9214 32.4284 65.9214C15.5628 65.9214 1.89062 67.6387 1.89062 69.757C1.89062 71.8754 15.5628 73.5926 32.4284 73.5926Z" fill="#371A45"/>
</g>
<path d="M43.0376 65.1593H21.8431C19.2567 65.1593 17.1406 63.0432 17.1406 60.4568V39.2623C17.1406 36.6759 19.2567 34.5598 21.8431 34.5598H43.0376C45.624 34.5598 47.7401 36.6759 47.7401 39.2623V60.4568C47.7425 63.0432 45.624 65.1593 43.0376 65.1593Z" fill="white"/>
<path d="M43.0392 65.575H21.8447C19.0232 65.575 16.7266 63.2784 16.7266 60.4569V39.2624C16.7266 36.4409 19.0232 34.1443 21.8447 34.1443H43.0392C45.8607 34.1443 48.1573 36.4409 48.1573 39.2624V60.4569C48.1573 63.2784 45.8631 65.575 43.0392 65.575ZM21.8471 34.9755C19.4816 34.9755 17.5602 36.8993 17.5602 39.2624V60.4569C17.5602 62.8224 19.4839 64.7438 21.8471 64.7438H43.0416C45.4071 64.7438 47.3284 62.82 47.3284 60.4569V39.2624C47.3284 36.8969 45.4047 34.9755 43.0416 34.9755H21.8471Z" fill="#371A45"/>
<path d="M45.5143 66.4088H19.1067C19.1067 66.4088 19.0212 61.6065 19.5508 54.9636C19.9735 49.646 20.7905 43.1528 22.3604 36.9944L42.498 37.0348C44.3292 43.2335 45.1248 49.7719 45.4454 55.1038C45.842 61.673 45.5143 66.4088 45.5143 66.4088Z" fill="white"/>
<path d="M45.5143 66.4089H19.1067C19.1067 66.4089 19.0212 61.6066 19.5508 54.9638C23.2249 53.9116 27.5854 53.3013 32.2642 53.3013C37.1424 53.3013 41.6763 53.9639 45.4478 55.1015C45.842 61.6731 45.5143 66.4089 45.5143 66.4089Z" fill="#D8D8D8"/>
<path d="M42.6963 36.9755C44.4229 41.6447 45.1022 46.6275 45.6294 51.5532C45.9833 55.2606 46.1353 58.987 46.0759 62.7086C46.0569 64.0766 46.0023 65.4494 45.9002 66.8245H45.5107H32.0231V65.9932H32.5931V66.8245H19.1078H18.6922C18.6019 60.4832 19.0009 54.142 19.8654 47.8625C20.3879 44.1789 20.9912 40.4881 22.1597 36.9446C22.1953 36.8354 22.3141 36.776 22.4233 36.8116C22.5231 36.8449 22.5801 36.9446 22.5634 37.0444C22.1359 39.4787 21.6657 41.8917 21.2691 44.3237C20.1077 51.6174 19.5781 59.0202 19.5234 66.4017L19.1078 65.9932H32.5954V66.8245H32.0254V65.9932H45.5131L45.0998 66.3804C45.1331 65.7747 45.1497 65.1572 45.1639 64.5445C45.2827 59.0107 45.0214 53.4627 44.3113 47.9741C43.8648 44.3024 43.0597 40.7137 42.2997 37.0919C42.2759 36.9802 42.3496 36.8686 42.4612 36.8449C42.5609 36.8235 42.6607 36.8805 42.6963 36.9755Z" fill="#371A45"/>
<g opacity="0.35">
<path d="M32.3594 57.2917C32.471 57.4604 32.5779 57.6266 32.68 57.7905C32.5755 57.6266 32.4686 57.4604 32.3594 57.2917Z" fill="#371A45"/>
</g>
<path d="M26.1212 57.3842C24.4849 58.0468 21.9507 57.909 20.2241 57.7C19.1886 57.5742 18.4619 56.6194 18.6139 55.5863C18.754 54.6434 19.5829 53.9594 20.5329 54.0045C22.1479 54.0805 24.5704 54.1162 26.1046 53.7742" fill="white"/>
<path d="M26.1212 57.3842C24.4849 58.0468 21.9507 57.9067 20.2241 57.7001C19.1886 57.5742 18.4619 56.6171 18.6139 55.5863C18.6447 55.3749 18.7112 55.1778 18.8039 54.9973C19.077 55.5174 19.5924 55.9022 20.2241 55.9782C21.9484 56.1872 24.4777 56.3249 26.1141 55.6671L26.1212 57.3842Z" fill="#D8D8D8"/>
<path d="M22.8691 58.2866C21.9238 58.2866 20.9833 58.2082 20.1758 58.1109C19.5631 58.0372 19.0192 57.7261 18.6463 57.2345C18.2711 56.7429 18.1143 56.1349 18.2046 55.5245C18.3756 54.3655 19.385 53.5319 20.5535 53.5889C22.9356 53.7005 24.8736 53.6221 26.016 53.368C26.2392 53.3181 26.795 53.3181 27.1275 54.3821C27.4671 55.4722 27.4315 57.301 26.2772 57.7689C25.3201 58.1584 24.0898 58.2866 22.8691 58.2866ZM20.4466 54.4177C19.7365 54.4177 19.1308 54.9355 19.0263 55.648C18.9693 56.0375 19.0691 56.4222 19.3066 56.7334C19.5441 57.0445 19.8885 57.2416 20.2756 57.2891C22.026 57.5005 24.4318 57.6216 25.9661 57.0017C26.3413 56.8497 26.4411 56.2441 26.4648 55.99C26.5503 55.1397 26.2867 54.3702 26.1276 54.1969C24.572 54.527 22.2231 54.5009 20.5131 54.4201C20.4917 54.4177 20.468 54.4177 20.4466 54.4177Z" fill="#371A45"/>
<path d="M44.5354 57.7C43.7255 57.7974 42.7351 57.8805 41.7471 57.871C41.6782 57.871 41.6117 57.871 41.5429 57.8687C41.4716 57.8687 41.4004 57.8663 41.3267 57.8615C41.2792 57.8615 41.2317 57.8592 41.1842 57.8568C41.1272 57.8544 41.0726 57.8497 41.0156 57.8473C40.9444 57.8425 40.8731 57.8378 40.8019 57.833H40.7971C40.7259 57.8283 40.6546 57.8212 40.5857 57.814C40.5382 57.8093 40.4931 57.8045 40.448 57.7998C40.4076 57.7974 40.3696 57.7927 40.3316 57.7879C40.2699 57.7808 40.2105 57.7713 40.1511 57.7642C40.0941 57.757 40.0395 57.7475 39.9849 57.738C39.973 57.738 39.9611 57.7357 39.9516 57.7333C39.8875 57.7238 39.8234 57.7119 39.7592 57.7C39.6951 57.6882 39.631 57.6763 39.5692 57.6621C39.5645 57.6621 39.5597 57.6597 39.5526 57.6597C39.517 57.6525 39.4814 57.643 39.4481 57.6359C39.4101 57.6288 39.3721 57.6193 39.3341 57.6074C39.2177 57.5789 39.1037 57.5457 38.9921 57.51C38.9327 57.491 38.8734 57.4697 38.814 57.4507C38.7546 57.4293 38.6976 57.4079 38.6406 57.3842L38.6477 55.6504L38.6549 53.7742C39.0467 53.862 39.498 53.9238 39.9801 53.9665C41.3766 54.0948 43.0249 54.0592 44.2266 54.0022C44.2551 54.0022 44.2836 53.9998 44.3145 53.9998C45.2289 53.9998 46.0103 54.6719 46.1456 55.5839C46.2976 56.6194 45.5709 57.5742 44.5354 57.7Z" fill="white"/>
<path d="M44.5354 57.7C43.7255 57.7974 42.7351 57.8805 41.7471 57.871C41.6782 57.871 41.6117 57.871 41.5429 57.8687C41.4716 57.8687 41.4004 57.8663 41.3267 57.8615C41.2792 57.8615 41.2317 57.8592 41.1842 57.8568C41.1272 57.8544 41.0726 57.8496 41.0156 57.8473C40.9444 57.8425 40.8731 57.8378 40.8019 57.833H40.7971C40.7259 57.8283 40.6546 57.8212 40.5857 57.814C40.5382 57.8093 40.4931 57.8045 40.448 57.7998C40.4076 57.7974 40.3696 57.7926 40.3316 57.7879C40.2699 57.7808 40.2105 57.7713 40.1511 57.7641C40.0941 57.757 40.0395 57.7475 39.9849 57.738C39.973 57.738 39.9611 57.7357 39.9516 57.7333C39.8875 57.7238 39.8234 57.7119 39.7592 57.7C39.6951 57.6881 39.631 57.6763 39.5692 57.662C39.5645 57.662 39.5597 57.6597 39.5526 57.6597C39.517 57.6525 39.4814 57.643 39.4481 57.6359C39.4101 57.6288 39.3721 57.6193 39.3341 57.6074C39.2177 57.5789 39.1037 57.5456 38.9921 57.51C38.9327 57.491 38.8734 57.4697 38.814 57.4506C38.7546 57.4293 38.6976 57.4079 38.6406 57.3841L38.6477 55.6504V55.5245C38.7 55.5459 38.757 55.5673 38.8116 55.5887C38.871 55.61 38.9304 55.629 38.9897 55.648C39.1014 55.6837 39.2154 55.7169 39.3317 55.7454C39.3697 55.7549 39.4077 55.7644 39.4457 55.7739C39.479 55.781 39.5146 55.7905 39.5502 55.7977L39.5669 55.8C39.6286 55.8143 39.6927 55.8262 39.7569 55.838C39.821 55.8499 39.8851 55.8618 39.9492 55.8713C39.9587 55.8737 39.9706 55.876 39.9825 55.876C40.0371 55.8855 40.0941 55.8927 40.1487 55.9022C40.2081 55.9093 40.2675 55.9188 40.3292 55.9259C40.3672 55.9307 40.4076 55.9354 40.4456 55.9378C40.4907 55.9425 40.5382 55.9473 40.5834 55.952C40.6546 55.9592 40.7259 55.9663 40.7947 55.971H40.7995C40.8707 55.9758 40.942 55.9805 41.0132 55.9853C41.0679 55.9877 41.1249 55.9924 41.1819 55.9948C41.2294 55.9971 41.2769 55.9995 41.3244 55.9995C41.3956 56.0019 41.4669 56.0043 41.5405 56.0066C41.6094 56.009 41.6759 56.009 41.7447 56.009C42.7351 56.0185 43.7231 55.9354 44.533 55.838C45.1339 55.7668 45.6326 55.4129 45.9129 54.926C46.0269 55.1255 46.1076 55.3464 46.1432 55.5863C46.2976 56.6194 45.5709 57.5741 44.5354 57.7Z" fill="#D8D8D8"/>
<path d="M41.8915 58.2866C40.6684 58.2866 39.4382 58.156 38.481 57.7689C37.3292 57.3034 37.2935 55.4722 37.6308 54.3821C37.9609 53.3181 38.519 53.3181 38.7423 53.368C39.8847 53.6221 41.825 53.7005 44.2048 53.5889C45.3733 53.5319 46.3827 54.3655 46.5537 55.5245C46.6439 56.1372 46.4872 56.7429 46.1119 57.2345C45.7367 57.7237 45.1952 58.0349 44.5824 58.1109C43.7797 58.2106 42.8392 58.2866 41.8915 58.2866ZM38.6307 54.1945C38.4715 54.3679 38.2079 55.1374 38.2934 55.9876C38.3195 56.2417 38.4193 56.8474 38.7922 56.9994C40.3264 57.6216 42.7347 57.4981 44.4827 57.2867C44.8698 57.2392 45.2142 57.0421 45.4517 56.731C45.6892 56.4198 45.7889 56.0327 45.7319 55.6456C45.6227 54.9117 44.9814 54.3821 44.2428 54.4177C42.5352 54.4985 40.1863 54.5246 38.6307 54.1945Z" fill="#371A45"/>
<path d="M39.2751 52.5822V58.3677C39.2751 59.4412 38.3964 60.3199 37.3229 60.3199H26.6686C25.5975 60.3199 24.7188 59.4412 24.7188 58.3677V52.5822C24.7188 51.5087 25.5975 50.6323 26.6686 50.6323H37.3229C37.9546 50.6323 38.5199 50.9363 38.8761 51.4066C39.1255 51.7319 39.2751 52.1404 39.2751 52.5822Z" fill="white"/>
<path d="M39.2751 52.5823V58.3678C39.2751 59.4413 38.3964 60.3177 37.3229 60.3177H26.6686C25.5951 60.3177 24.7188 59.4413 24.7188 58.3678V56.2018C25.8611 58.42 29.7371 59.294 32.9291 58.971C33.6416 58.8998 34.1523 58.2205 33.9813 57.527C33.9314 57.3204 33.9029 57.0995 33.9029 56.8715C33.9029 55.6104 34.7389 54.5868 35.7696 54.5868C36.7671 54.5868 37.5841 55.5439 37.6364 56.748C38.9141 55.076 38.983 52.8412 38.8761 51.4043C39.1255 51.7344 39.2751 52.1405 39.2751 52.5823Z" fill="#D8D8D8"/>
<path d="M37.2841 60.7333H26.7129C25.3853 60.7333 24.3047 59.6527 24.3047 58.325V52.625C24.3047 51.2974 25.3853 50.2168 26.7129 50.2168H37.2841C38.6117 50.2168 39.6923 51.2974 39.6923 52.625V58.3274C39.6899 59.655 38.6117 60.7333 37.2841 60.7333ZM26.7129 51.048C25.8437 51.048 25.1359 51.7558 25.1359 52.625V58.3274C25.1359 59.1967 25.8437 59.9044 26.7129 59.9044H37.2841C38.1533 59.9044 38.8611 59.1967 38.8611 58.3274V52.625C38.8611 51.7558 38.1533 51.048 37.2841 51.048H26.7129Z" fill="#371A45"/>
<path d="M35.7674 57.1565C36.6961 57.1565 37.4489 56.4036 37.4489 55.475C37.4489 54.5463 36.6961 53.7935 35.7674 53.7935C34.8388 53.7935 34.0859 54.5463 34.0859 55.475C34.0859 56.4036 34.8388 57.1565 35.7674 57.1565Z" fill="#22A7F0"/>
<path d="M37.4568 55.475C37.4568 55.5652 37.4496 55.6555 37.4354 55.7433C37.3071 54.9406 36.6113 54.3278 35.7753 54.3278C34.9369 54.3278 34.2434 54.9406 34.1151 55.7433C34.1009 55.6555 34.0938 55.5676 34.0938 55.475C34.0938 54.5463 34.8466 53.7935 35.7753 53.7935C36.7015 53.7935 37.4568 54.5463 37.4568 55.475Z" fill="white"/>
<path d="M37.4489 55.4747C37.4489 56.4033 36.6961 57.1562 35.7674 57.1562C34.8388 57.1562 34.0859 56.4033 34.0859 55.4747C34.0859 55.2586 34.1263 55.0543 34.2023 54.8667C34.4446 55.4937 35.0549 55.9378 35.7698 55.9378C36.4847 55.9378 37.0951 55.4937 37.3373 54.8667C37.4086 55.0543 37.4489 55.2586 37.4489 55.4747Z" fill="#2580EF"/>
<path d="M35.7684 57.4697C34.6688 57.4697 33.7734 56.5744 33.7734 55.4747C33.7734 54.3751 34.6688 53.4797 35.7684 53.4797C36.8681 53.4797 37.7634 54.3751 37.7634 55.4747C37.7634 56.5744 36.8681 57.4697 35.7684 57.4697ZM35.7684 54.1044C35.0132 54.1044 34.3981 54.7195 34.3981 55.4747C34.3981 56.23 35.0132 56.8451 35.7684 56.8451C36.5237 56.8451 37.1388 56.23 37.1388 55.4747C37.1388 54.7195 36.5261 54.1044 35.7684 54.1044Z" fill="#371A45"/>
<path d="M31.0069 60.7333C30.7766 60.7333 30.5913 60.548 30.5913 60.3177V57.527C30.5913 56.8217 30.2541 56.1472 29.6912 55.7244C28.9193 55.1449 28.4609 54.221 28.4609 53.2568V50.6324C28.4609 50.402 28.6462 50.2168 28.8766 50.2168C29.1069 50.2168 29.2922 50.402 29.2922 50.6324V53.2568C29.2922 53.9622 29.6294 54.6367 30.1923 55.0594C30.9642 55.6389 31.4226 56.5628 31.4226 57.527V60.32C31.4226 60.548 31.2349 60.7333 31.0069 60.7333Z" fill="#371A45"/>
<path d="M24.0515 61.4545C22.0161 54.0588 17.4442 54.2963 15.7366 55.2344C14.7415 55.783 13.5848 56.5953 12.7868 58.5499C11.4473 53.6954 4.93747 54.2298 4.6976 60.8323C4.5551 64.7178 5.9516 67.5036 6.96572 68.7387C7.96797 69.957 8.71372 70.3655 9.78247 70.5009C10.7705 70.6268 12.8605 70.4605 13.7962 70.0592C15.3542 69.3918 17.2423 67.6343 21.2157 67.4562C21.2157 67.4562 26.6117 67.5203 32.6347 67.4799C38.6577 67.5203 44.0537 67.4562 44.0537 67.4562C48.0271 67.6343 49.9128 69.3894 51.4732 70.0592C52.409 70.4605 54.5013 70.6268 55.487 70.5009C56.5533 70.3655 57.3015 69.9594 58.3037 68.7387C59.3178 67.5036 60.7143 64.7202 60.5718 60.8323C60.3296 54.2274 53.8197 53.6954 52.4826 58.5499C51.6846 56.5953 50.528 55.783 49.5328 55.2344C47.8252 54.2963 43.2533 54.0564 41.218 61.4545V64.5871H24.1132C24.0918 64.5848 24.0515 61.4545 24.0515 61.4545Z" fill="white"/>
<path d="M58.302 68.7384C57.2998 69.9568 56.554 70.3629 55.4853 70.4983C54.4973 70.6241 52.4073 70.4579 51.4715 70.0565C50.5857 69.6765 49.5977 68.9498 48.1798 68.356C48.1252 68.3323 48.0705 68.3109 48.0112 68.2871C47.7214 68.1708 47.4127 68.0591 47.0825 67.9594C46.9472 67.919 46.807 67.8786 46.6669 67.8406C46.4769 67.7908 46.2798 67.7456 46.0779 67.7029C46.028 67.691 45.9758 67.6815 45.9235 67.672C45.7692 67.6411 45.61 67.615 45.4485 67.5889C45.0139 67.5224 44.5484 67.4749 44.052 67.4535C44.052 67.4535 38.656 67.5176 32.633 67.4773C26.61 67.5176 21.2164 67.4535 21.2164 67.4535C20.72 67.4749 20.2545 67.5224 19.8223 67.5889C19.6584 67.615 19.5017 67.6411 19.3449 67.672C19.2927 67.6815 19.2428 67.691 19.1905 67.7029C18.9887 67.7456 18.7915 67.7931 18.6015 67.8406C18.459 67.8786 18.3213 67.9166 18.1859 67.9594C18.0054 68.014 17.832 68.0734 17.661 68.1328C17.5352 68.1779 17.4117 68.2254 17.2929 68.2729C17.2145 68.3038 17.1338 68.337 17.0578 68.3703C15.6613 68.9593 14.6804 69.6813 13.8017 70.0565C12.8659 70.4579 10.7735 70.6218 9.78791 70.4983C8.92103 70.389 8.26553 70.0993 7.51266 69.3416C7.36778 69.1944 7.22053 69.0329 7.06616 68.85C7.03528 68.812 7.00441 68.7764 6.97353 68.7384C5.95941 67.5034 4.56291 64.7175 4.70541 60.832C4.70778 60.7465 4.71253 60.661 4.71966 60.5755C4.72441 60.49 4.73153 60.4069 4.73866 60.3261V60.3214C4.74578 60.2406 4.75528 60.1623 4.76478 60.0815C4.77428 60.0031 4.78378 59.9224 4.79566 59.8464C4.79566 59.8464 4.79566 59.8464 4.79566 59.8488C5.61266 54.1868 11.5288 53.9469 12.797 58.5473C13.595 56.5926 14.7517 55.778 15.7468 55.2318C17.319 54.3673 21.3257 54.0965 23.5368 59.8464C23.7244 60.3356 23.9002 60.87 24.0593 61.4519C24.0593 61.4519 24.0997 64.5845 24.1163 64.5845H41.221V61.4519C41.3659 60.9223 41.525 60.4306 41.696 59.977C43.8977 54.0918 47.9518 54.3601 49.5359 55.2318C50.4384 55.7281 51.4763 56.4454 52.2553 58.0343C52.3194 58.1649 52.3812 58.3003 52.4405 58.4428C52.4548 58.4784 52.4714 58.514 52.4857 58.5496C53.7563 53.9469 59.67 54.1868 60.4894 59.8488C60.4965 59.9034 60.5037 59.958 60.5108 60.015C60.5155 60.0578 60.5203 60.1005 60.525 60.1456C60.5393 60.2644 60.5512 60.3855 60.5583 60.509C60.5607 60.5494 60.563 60.5921 60.5654 60.6349C60.5702 60.699 60.5725 60.7655 60.5749 60.8344C60.7127 64.7199 59.3162 67.5058 58.302 68.7384Z" fill="white"/>
<path d="M58.302 68.7385C57.2998 69.9568 56.554 70.363 55.4853 70.4983C54.4973 70.6242 52.4073 70.458 51.4715 70.0566C50.5857 69.6766 49.5977 68.9498 48.1798 68.3561C48.1252 68.3323 48.0705 68.311 48.0112 68.2872C47.7214 68.1708 47.4127 68.0592 47.0825 67.9594C46.9472 67.9191 46.807 67.8787 46.6669 67.8407C46.4769 67.7908 46.2798 67.7433 46.0779 67.7029C46.028 67.6911 45.9758 67.6816 45.9235 67.6721C45.7692 67.6412 45.61 67.6151 45.4485 67.589C45.0139 67.5225 44.5484 67.4749 44.052 67.4536C44.052 67.4536 38.656 67.5177 32.633 67.4773C26.61 67.5177 21.2164 67.4536 21.2164 67.4536C20.72 67.4749 20.2545 67.5225 19.8223 67.589C19.6584 67.6151 19.5017 67.6412 19.3449 67.6721C19.2927 67.6816 19.2428 67.6911 19.1905 67.7029C18.9887 67.7457 18.7915 67.7908 18.6015 67.8407C18.459 67.8787 18.3213 67.9167 18.1859 67.9594C18.0054 68.0141 17.832 68.0735 17.661 68.1328C17.5352 68.178 17.4117 68.2254 17.2929 68.2729C17.2145 68.3038 17.1338 68.3371 17.0578 68.3703C15.6613 68.9593 14.6804 69.6813 13.8017 70.0566C12.8659 70.458 10.7735 70.6218 9.78791 70.4983C8.92103 70.3891 8.26553 70.0993 7.51266 69.3417C7.36778 69.1944 7.22053 69.0329 7.06616 68.8501C7.03528 68.8121 7.00441 68.7765 6.97353 68.7385C5.95941 67.5035 4.56291 64.72 4.70541 60.8321C4.70778 60.7466 4.71253 60.6611 4.71728 60.578C4.72203 60.4924 4.72916 60.4093 4.73628 60.3286V60.3238C4.74341 60.2431 4.75291 60.1647 4.76241 60.084C4.77191 60.0056 4.78141 59.9248 4.79328 59.8488C5.11391 62.5777 6.16603 64.549 6.97353 65.5322C7.97578 66.7506 8.72153 67.1567 9.79028 67.2921C9.79978 67.2921 9.80928 67.2944 9.82116 67.2944C12.8873 67.6958 14.9013 65.3208 13.7257 62.459C12.854 60.3452 12.5358 58.7563 12.797 58.545C13.2863 58.1507 15.5235 64.1167 19.0623 63.9671C23.7315 63.7676 23.5368 59.8441 23.5368 59.8441C23.7244 60.3333 23.9002 60.8677 24.0593 61.4496V61.5066C24.0902 63.2142 25.4819 64.5822 27.1895 64.5822H38.0813C39.8103 64.5822 41.2139 63.181 41.2139 61.4496C41.3588 60.92 41.5179 60.4283 41.6889 59.9747C41.7032 60.6563 42.0024 63.7913 46.1634 63.9695C49.3839 64.1072 50.227 60.0341 52.2482 58.032C52.4477 57.8325 52.6567 57.6567 52.8823 57.5071C52.697 57.633 52.5617 57.9655 52.4334 58.4405C52.1959 59.3477 51.9964 60.7703 51.557 62.2357C50.8184 64.7057 52.6068 67.2398 55.1837 67.3016C55.3 67.304 55.4022 67.3016 55.4853 67.2897C56.5517 67.1543 57.2998 66.7482 58.302 65.5298C59.1119 64.5466 60.1617 62.5753 60.4823 59.8465C60.4894 59.9011 60.4965 59.9557 60.5037 60.0127C60.5084 60.0555 60.5132 60.0982 60.5179 60.1433C60.5322 60.2621 60.544 60.3832 60.5512 60.5067C60.5535 60.5471 60.5559 60.5898 60.5583 60.6326C60.563 60.6967 60.5654 60.7632 60.5678 60.8321C60.7127 64.72 59.3162 67.5058 58.302 68.7385Z" fill="#D8D8D8"/>
<path d="M13.1732 62.2712C13.0045 61.0528 12.7029 59.8511 12.4298 58.6541C12.3395 58.1529 13.0473 57.9582 13.2278 58.4308C13.5627 59.3476 13.6363 60.3356 13.6434 61.3022C13.641 61.6252 13.6268 61.9434 13.5888 62.2712C13.5745 62.3852 13.4724 62.4683 13.3584 62.4541C13.2563 62.4446 13.1827 62.3662 13.1732 62.2712Z" fill="#371A45"/>
<path d="M11.525 70.9189C11.2946 70.9189 11.1094 70.7336 11.1094 70.5033C11.1094 70.3133 11.2352 70.1541 11.4086 70.1043C11.4466 70.0924 11.487 70.0876 11.5274 70.0876C11.7577 70.0876 11.943 70.2729 11.943 70.5033C11.943 70.6933 11.8171 70.8524 11.6437 70.9023C11.6057 70.9118 11.5654 70.9189 11.525 70.9189Z" fill="#371A45"/>
<path d="M51.6773 62.2714C51.5799 61.3024 51.6203 60.3334 51.7841 59.3739C51.8411 59.0533 51.9243 58.7374 52.0383 58.431C52.1166 58.2149 52.3565 58.1057 52.5726 58.184C52.7721 58.2577 52.8814 58.4667 52.8363 58.6685C52.7769 58.9654 52.6985 59.2575 52.6296 59.5544C52.48 60.1482 52.3494 60.7514 52.2425 61.357C52.1879 61.6634 52.1356 61.9769 52.0929 62.2809C52.0573 62.5184 51.7034 62.5113 51.6773 62.2714Z" fill="#371A45"/>
<path d="M41.0116 61.3997C41.5032 57.9678 44.0754 53.9778 47.9846 54.3246C48.7375 54.384 49.4785 54.6333 50.115 55.0466C51.0579 55.6023 51.8654 56.4407 52.3974 57.405C52.5802 57.7232 52.7227 58.0581 52.8605 58.393L52.0767 58.4405C52.224 57.9227 52.4354 57.4145 52.7299 56.9513C54.3876 54.2937 57.9311 54.2605 59.7432 56.7898C60.5317 57.8847 60.8856 59.2242 60.9664 60.5542C61.0732 62.3711 60.8429 64.1998 60.2586 65.9241C59.6554 67.6412 58.684 69.3892 57.1022 70.401C56.3921 70.8356 55.5229 70.9662 54.7106 70.9591C53.5326 70.933 52.3024 70.8593 51.2027 70.3962C50.4 70.0257 49.6424 69.5222 48.8586 69.1351C47.1225 68.2397 45.156 67.8146 43.2037 67.8787C37.0976 67.8977 29.6876 67.9025 23.5767 67.8811C23.116 67.8763 21.767 67.8811 21.311 67.8763C21.0616 67.8811 20.8289 67.9072 20.589 67.9215C19.1307 68.0521 17.7152 68.4701 16.4114 69.1327C15.63 69.5198 14.87 70.0233 14.0696 70.3938C13.4592 70.6741 12.7752 70.7786 12.1197 70.8641C11.3336 70.9496 10.5546 71.0018 9.75898 70.9187C8.31261 70.7928 7.26048 69.8452 6.42923 68.7266C4.60286 66.1806 3.91648 62.44 4.44848 59.3833C4.72398 57.9298 5.44123 56.4953 6.69998 55.6451C8.67598 54.2771 11.3027 54.9302 12.5354 56.949C12.8299 57.4145 13.0412 57.9227 13.1885 58.4428L12.4047 58.3953C12.5401 58.0605 12.685 57.728 12.8655 57.4097C13.4854 56.2721 14.4805 55.3553 15.6276 54.7782C17.3447 53.928 19.4799 54.2771 20.9737 55.4218C22.8357 56.8516 23.8902 59.153 24.2536 61.4021C24.2726 61.5161 24.1942 61.623 24.0802 61.642C23.9805 61.6586 23.8879 61.6016 23.8522 61.5113C23.3345 60.2668 22.8286 59.0176 22.0876 57.9013C21.3799 56.8326 20.4085 55.9016 19.1972 55.4765C18.0287 55.0608 16.6679 55.1487 15.6229 55.8327C14.4852 56.4882 13.6825 57.5071 13.1742 58.7088L12.7301 59.7182C12.4926 59.0128 12.2456 58.0106 11.8324 57.3907C10.8562 55.7686 8.74011 55.2247 7.16548 56.3291C6.30098 56.911 5.73336 57.8562 5.43411 58.849C5.30111 59.2931 5.20611 59.7895 5.15623 60.2502C5.00186 62.0671 5.21086 63.9315 5.79511 65.6581C6.27248 67.0261 6.97073 68.3228 8.04898 69.2871C8.74248 69.9402 9.63311 70.1492 10.5617 70.1278C11.6162 70.1041 12.7539 70.04 13.7276 69.6362C14.5209 69.2657 15.2452 68.7812 16.0385 68.3893C17.5442 67.6198 19.2186 67.1567 20.9072 67.0641C21.1424 67.0356 21.8026 67.0451 22.0544 67.0451C22.9925 67.0451 25.6121 67.0522 26.5882 67.0546C31.5781 67.0712 38.2495 67.0593 43.2156 67.0451C43.408 67.0427 44.1561 67.0356 44.3627 67.0641C45.5336 67.1282 46.6974 67.3705 47.8017 67.7695C48.7707 68.1186 49.6922 68.6173 50.5734 69.128C50.9225 69.3251 51.3262 69.5578 51.6967 69.7051C52.6467 70.0376 53.7036 70.1112 54.7059 70.1278C56.1736 70.1635 57.0334 69.6457 57.9525 68.5081C59.5247 66.5083 60.1589 63.8555 60.1589 61.3356C60.1802 59.5021 59.691 57.4168 58.0974 56.3267C56.518 55.2247 54.4114 55.7686 53.4305 57.3931C53.003 58.0153 52.7774 59.0318 52.5612 59.7586C52.1599 58.8632 51.7371 57.7873 51.0982 57.0511C50.6897 56.5618 50.1981 56.1628 49.64 55.8303C49.1175 55.4955 48.5261 55.2912 47.9015 55.2413C45.9421 55.0466 44.1989 56.3006 43.1752 57.9013C42.4461 58.9986 41.9355 60.2455 41.4106 61.509C41.3156 61.7393 40.9736 61.6396 41.0116 61.3997Z" fill="#371A45"/>
<path d="M58.3035 68.7386C57.3013 69.957 56.5555 70.3655 55.4868 70.5009C55.0474 70.5579 54.3919 70.5555 53.715 70.5009C53.715 70.5009 53.715 70.5009 53.7127 70.5009C52.0359 70.0544 52.9052 67.658 53.3683 64.9363C53.7934 62.4354 53.0833 60.5259 54.5059 57.93C56.2325 54.7784 58.4817 56.1108 58.617 56.1939C58.6194 56.1939 58.6218 56.1963 58.6242 56.1986C59.6929 57.0726 60.4885 58.6069 60.5693 60.8346C60.7142 64.7201 59.3177 67.506 58.3035 68.7386Z" fill="#AFAFB2"/>
<path d="M11.5305 70.5007C10.8607 70.5529 10.2147 70.5553 9.78247 70.5007C8.71372 70.3653 7.96797 69.9592 6.96572 68.7384C5.9516 67.5058 4.5551 64.7199 4.6976 60.8321C4.77835 58.5901 5.58347 57.0511 6.66172 56.1794C6.66172 56.1794 6.6641 56.1795 6.6641 56.1771C6.7591 56.1177 9.01534 54.7449 10.7586 57.9251C12.1812 60.5209 11.4711 62.4328 11.8962 64.9313C12.3617 67.6554 13.2048 70.0542 11.5305 70.5007Z" fill="#AFAFB2"/>
<g opacity="0.7">
<path d="M10.758 57.9276C11.6296 59.5165 11.7009 60.8489 11.7246 62.2169C11.6296 61.2764 11.4016 60.3098 10.8055 59.222C9.02425 55.9706 6.71575 57.3742 6.62075 57.4336C6.62075 57.4336 6.61838 57.4336 6.61838 57.436C5.66838 58.2031 4.92975 59.4761 4.6875 61.2811C4.6875 61.1339 4.68988 60.9843 4.697 60.8323C4.77775 58.5903 5.58288 57.0512 6.66113 56.1796C6.66113 56.1796 6.6635 56.1796 6.6635 56.1773C6.75613 56.1203 9.01475 54.7475 10.758 57.9276Z" fill="white"/>
</g>
<path d="M11.8026 64.1878C11.7361 63.5014 11.7384 62.8554 11.7266 62.2166C11.7931 62.8768 11.7907 63.5252 11.8026 64.1878Z" fill="#AFAFB2"/>
<g opacity="0.35">
<path d="M11.5319 70.5007C10.8621 70.553 10.2161 70.5554 9.78387 70.5007C8.71513 70.3654 7.96938 69.9592 6.96713 68.7385C6.40188 68.0521 5.71787 66.8836 5.25 65.3114C5.326 65.4159 5.402 65.5132 5.47325 65.6011C6.4755 66.8195 7.2165 67.2636 8.29 67.3634C10.2137 67.5391 11.5889 65.7436 11.8264 64.4065C11.8454 64.5799 11.8691 64.7556 11.9 64.9337C12.3631 67.6555 13.2062 70.0542 11.5319 70.5007Z" fill="#371A45"/>
</g>
<path d="M10.57 70.957C10.2494 70.957 9.96442 70.9428 9.73167 70.9119C8.49904 70.7551 7.66304 70.2374 6.64654 69.0024C5.41391 67.5038 4.14804 64.5659 4.28341 60.8181C4.36179 58.6688 5.10754 56.9136 6.38529 55.871L6.41854 55.8378L6.46366 55.8164C6.63229 55.7143 7.53241 55.2179 8.66054 55.5076C9.62716 55.757 10.456 56.5051 11.1258 57.7283C12.1043 59.5143 12.1257 61.0248 12.1447 62.4878C12.1542 63.2454 12.166 64.0315 12.3085 64.8651C12.3869 65.3283 12.4772 65.7843 12.565 66.226C12.9949 68.3896 13.3987 70.4321 11.6388 70.9048L11.5865 70.919H11.5462C11.2042 70.9428 10.8717 70.957 10.57 70.957ZM6.88879 56.5313C5.81291 57.4219 5.18116 58.9514 5.11229 60.8466C4.94604 65.3876 6.89354 67.9978 7.28541 68.4751C8.28054 69.6864 8.94791 69.9761 9.83379 70.0878C10.2233 70.1376 10.8265 70.1376 11.4583 70.0901C12.3822 69.8123 12.1827 68.5583 11.7504 66.3851C11.6625 65.9386 11.5699 65.4779 11.4892 65.0029C11.3372 64.1028 11.3253 63.2881 11.3134 62.4973C11.2944 61.0746 11.2754 59.7304 10.3967 58.1273C9.84092 57.1131 9.18541 56.5028 8.45154 56.3128C7.70341 56.1204 7.07166 56.4268 6.92204 56.5099L6.91016 56.5218L6.88879 56.5313Z" fill="#371A45"/>
<path d="M10.57 70.957C10.2494 70.957 9.96442 70.9428 9.73167 70.9119C8.49904 70.7551 7.66304 70.2374 6.64654 69.0024C5.41391 67.5038 4.14804 64.5659 4.28341 60.8181C4.36179 58.6688 5.10754 56.9136 6.38529 55.871L6.41854 55.8378L6.46366 55.8164C6.63229 55.7143 7.53241 55.2179 8.66054 55.5076C9.62716 55.757 10.456 56.5051 11.1258 57.7283C12.1043 59.5143 12.1257 61.0248 12.1447 62.4878C12.1542 63.2454 12.166 64.0315 12.3085 64.8651C12.3869 65.3283 12.4772 65.7843 12.565 66.226C12.9949 68.3896 13.3987 70.4321 11.6388 70.9048L11.5865 70.919H11.5462C11.2042 70.9428 10.8717 70.957 10.57 70.957ZM6.88879 56.5313C5.81291 57.4219 5.18116 58.9514 5.11229 60.8466C4.94604 65.3876 6.89354 67.9978 7.28541 68.4751C8.28054 69.6864 8.94791 69.9761 9.83379 70.0878C10.2233 70.1376 10.8265 70.1376 11.4583 70.0901C12.3822 69.8123 12.1827 68.5583 11.7504 66.3851C11.6625 65.9386 11.5699 65.4779 11.4892 65.0029C11.3372 64.1028 11.3253 63.2881 11.3134 62.4973C11.2944 61.0746 11.2754 59.7304 10.3967 58.1273C9.84092 57.1131 9.18541 56.5028 8.45154 56.3128C7.70341 56.1204 7.07166 56.4268 6.92204 56.5099L6.91016 56.5218L6.88879 56.5313Z" fill="#371A45"/>
<path d="M11.4362 70.9923L11.2391 70.7952C11.1512 70.7074 11.1109 70.5862 11.118 70.4698V70.116L11.4909 70.0875C11.4956 70.0875 11.5004 70.0875 11.5051 70.0875C12.4076 70.0162 13.2032 69.8619 13.6331 69.679C13.9941 69.5246 14.3789 69.3037 14.8254 69.0496C16.2076 68.2611 18.1005 67.1805 21.1975 67.0427H21.2094H21.2212C21.2759 67.0427 26.6814 67.1068 32.6307 67.0665C38.5849 67.1045 43.9927 67.0427 44.0474 67.0427H44.0592H44.0711C47.1657 67.1805 49.0586 68.2611 50.4409 69.0496C50.8874 69.3037 51.2721 69.5246 51.6331 69.679C52.063 69.8642 52.8539 70.0162 53.7445 70.0875C53.9725 70.1065 54.1435 70.306 54.1245 70.534C54.1055 70.762 53.906 70.9306 53.678 70.914C53.2101 70.876 52.0392 70.7548 51.3054 70.4413C50.8992 70.268 50.4765 70.0257 50.0276 69.7692C48.6477 68.9831 46.9306 68.0022 44.0426 67.8716C43.7552 67.874 38.4519 67.9333 32.6284 67.8953C26.812 67.9333 21.5086 67.874 21.2212 67.8716C18.3309 68.0046 16.6137 68.9831 15.2362 69.7692C14.7874 70.0257 14.3646 70.2656 13.9609 70.439C13.2579 70.7406 12.1464 70.8641 11.6334 70.9092L11.4362 70.9923Z" fill="#371A45"/>
<path d="M4.69507 62.2001C4.47657 62.2001 4.29132 62.0267 4.28182 61.8058C4.26994 61.5778 4.44569 61.3807 4.67607 61.3712L11.6847 61.015C11.9127 61.0031 12.1098 61.1788 12.1193 61.4092C12.1312 61.6372 11.9554 61.8343 11.7251 61.8438L4.71644 62.2001C4.70932 62.2001 4.70219 62.2001 4.69507 62.2001Z" fill="#371A45"/>
<path d="M4.90601 59.6185C4.68751 59.6185 4.50464 59.4475 4.49276 59.2267C4.48089 58.9987 4.65426 58.8016 4.88464 58.7897L11.1784 58.4334C11.404 58.4192 11.6035 58.5949 11.6154 58.8253C11.6273 59.0533 11.4539 59.2504 11.2235 59.2623L4.92976 59.6185C4.92264 59.6185 4.91551 59.6185 4.90601 59.6185Z" fill="#371A45"/>
<path d="M5.09351 65.1546C4.87501 65.1546 4.68976 64.9812 4.68026 64.7603C4.66838 64.5323 4.84413 64.3352 5.0745 64.3257L11.8076 63.9837C12.0356 63.9718 12.2328 64.1476 12.2423 64.378C12.2541 64.606 12.0784 64.8031 11.848 64.8126L5.11488 65.1546C5.10776 65.1546 5.10063 65.1546 5.09351 65.1546Z" fill="#371A45"/>
<path d="M6.37712 68.3182C6.15625 68.3182 5.97337 68.1448 5.9615 67.9239C5.94962 67.6959 6.12775 67.5012 6.35575 67.4893L12.3788 67.1995C12.6068 67.1877 12.8015 67.3658 12.8134 67.5938C12.8252 67.8218 12.6471 68.0165 12.4191 68.0284L6.3985 68.3182C6.39137 68.3182 6.38425 68.3182 6.37712 68.3182Z" fill="#371A45"/>
<g opacity="0.7">
<path d="M54.4588 57.9276C53.5872 59.5165 53.5159 60.8489 53.4922 62.2169C53.5872 61.2764 53.8152 60.3098 54.4113 59.222C56.1926 55.9706 58.5011 57.3742 58.5961 57.4336C58.5961 57.4336 58.5984 57.4336 58.5984 57.436C59.5484 58.2031 60.2871 59.4761 60.5293 61.2811C60.5293 61.1339 60.5269 60.9843 60.5198 60.8323C60.4391 58.5903 59.6339 57.0512 58.5557 56.1796C58.5557 56.1796 58.5533 56.1796 58.5533 56.1773C58.4607 56.1203 56.2021 54.7475 54.4588 57.9276Z" fill="white"/>
</g>
<g opacity="0.35">
<path d="M53.6826 70.5007C54.3523 70.553 54.9983 70.5554 55.4306 70.5007C56.4993 70.3654 57.2451 69.9592 58.2473 68.7385C58.8126 68.0521 59.4966 66.8836 59.9644 65.3114C59.8884 65.4159 59.8124 65.5132 59.7412 65.6011C58.7389 66.8195 57.9979 67.2636 56.9244 67.3634C55.0007 67.5391 53.6256 65.7436 53.3881 64.4065C53.3691 64.5799 53.3453 64.7556 53.3144 64.9337C52.8513 67.6555 52.0082 70.0542 53.6826 70.5007Z" fill="#371A45"/>
</g>
<path d="M60.5733 62.2025C60.5661 62.2025 60.559 62.2025 60.5519 62.2025L53.5433 61.8463C53.3153 61.8344 53.1371 61.6397 53.149 61.4117C53.1609 61.1837 53.3509 61.0055 53.5836 61.0174L60.5922 61.3737C60.8202 61.3855 60.9984 61.5803 60.9865 61.8083C60.9746 62.0315 60.7918 62.2025 60.5733 62.2025Z" fill="#371A45"/>
<path d="M60.356 59.6185C60.3489 59.6185 60.3394 59.6185 60.3322 59.6185L54.0409 59.2623C53.8129 59.2504 53.6371 59.0533 53.649 58.8253C53.6609 58.5973 53.858 58.4192 54.086 58.4334L60.3774 58.7897C60.6054 58.8015 60.7811 58.9987 60.7692 59.2267C60.7574 59.4475 60.5745 59.6185 60.356 59.6185Z" fill="#371A45"/>
<path d="M60.1727 65.1592C60.1656 65.1592 60.1585 65.1592 60.1514 65.1592L53.4182 64.8172C53.1902 64.8053 53.0121 64.6106 53.024 64.3826C53.0359 64.1546 53.2306 63.9765 53.4586 63.9884L60.1917 64.3304C60.4197 64.3422 60.5979 64.537 60.586 64.765C60.5765 64.9858 60.3912 65.1592 60.1727 65.1592Z" fill="#371A45"/>
<path d="M58.8916 68.3204C58.8845 68.3204 58.8774 68.3204 58.8702 68.3204L52.8401 68.0306C52.6121 68.0187 52.434 67.824 52.4459 67.596C52.4577 67.368 52.6549 67.1899 52.8805 67.2017L58.9106 67.4915C59.1386 67.5034 59.3167 67.6981 59.3049 67.9261C59.2954 68.147 59.1101 68.3204 58.8916 68.3204Z" fill="#371A45"/>
<path d="M54.6938 70.9568C54.3851 70.9568 54.0455 70.9426 53.694 70.9165H53.5372L53.4897 70.869C51.8652 70.3465 52.2642 68.3681 52.6846 66.2757C52.7772 65.8197 52.8722 65.3471 52.953 64.865C53.0955 64.029 53.105 63.2452 53.1168 62.4876C53.1358 61.027 53.1572 59.5165 54.1357 57.7281C54.7983 56.5168 55.6225 55.7735 56.582 55.5217C57.6531 55.2391 58.5461 55.6785 58.7788 55.8091L58.8311 55.8257L58.8928 55.8875C60.1587 56.9277 60.8973 58.6781 60.9757 60.818C61.1135 64.5681 59.8452 67.5036 58.6126 69.0022C57.5985 70.2372 56.7625 70.755 55.5275 70.9117C55.3042 70.9426 55.0145 70.9568 54.6938 70.9568ZM53.7866 70.09C54.4278 70.1398 55.0406 70.1375 55.4301 70.0876C56.316 69.976 56.9833 69.6838 57.9785 68.475C58.3703 67.9976 60.3178 65.3875 60.1516 60.8465C60.0827 58.9536 59.4533 57.4217 58.3798 56.5335C58.2635 56.467 57.5937 56.1107 56.7981 56.3221C56.0666 56.5145 55.4182 57.1225 54.8696 58.1247C53.9908 59.7302 53.9718 61.0721 53.9528 62.4947C53.941 63.2856 53.9315 64.1026 53.7771 65.0003C53.694 65.4943 53.5966 65.9741 53.504 66.4372C53.0693 68.5842 52.8675 69.8192 53.7866 70.09Z" fill="#371A45"/>
<path d="M19.7026 67.9241C19.6385 67.9241 19.5743 67.9051 19.5173 67.8624C19.3796 67.7602 19.3487 67.5655 19.4508 67.4277C19.4651 67.4087 20.826 65.4826 20.4103 61.8204C20.1491 59.5166 19.1991 57.7282 17.7385 56.783C16.7671 56.1536 15.6769 55.985 14.6723 56.308C14.5084 56.3602 14.3327 56.27 14.2804 56.1061C14.2282 55.9422 14.3184 55.7665 14.4823 55.7142C15.6698 55.3342 16.9452 55.529 18.0757 56.2605C19.6955 57.3079 20.7452 59.2577 21.0278 61.7491C21.4743 65.6726 20.0137 67.7104 19.952 67.7959C19.8926 67.879 19.7976 67.9241 19.7026 67.9241Z" fill="#371A45"/>
<path d="M45.4905 67.9239C45.3955 67.9239 45.3005 67.8812 45.2387 67.7981C45.177 67.7126 43.7164 65.6748 44.1629 61.7513C44.4455 59.2599 45.4952 57.3101 47.115 56.2627C48.2455 55.5312 49.5232 55.3364 50.7083 55.7164C50.8722 55.7687 50.9625 55.9444 50.9102 56.1083C50.858 56.2722 50.6822 56.3624 50.5183 56.3102C49.5137 55.9896 48.4236 56.1582 47.4522 56.7852C45.9916 57.7304 45.0416 59.5188 44.7804 61.8226C44.3647 65.4848 45.728 67.4109 45.7399 67.4299C45.8396 67.5677 45.8111 67.7624 45.671 67.8646C45.6187 67.9026 45.5546 67.9239 45.4905 67.9239Z" fill="#371A45"/>
<path d="M51.2338 27.3331L50.4928 27.3354C50.3147 27.3354 50.1722 27.1929 50.1722 27.0148L50.1484 14.0972C50.1484 13.9191 50.2909 13.7766 50.4691 13.7766L51.2077 13.7742C53.0673 13.7694 54.5778 15.2728 54.5802 17.1324L54.5921 23.9629C54.5921 25.8202 53.0911 27.3307 51.2338 27.3331Z" fill="white"/>
<path d="M50.4883 27.4116C50.3838 27.4116 50.2841 27.3712 50.2104 27.2976C50.1368 27.2239 50.0941 27.1242 50.0941 27.0173L50.0703 14.0997C50.0703 13.8812 50.2461 13.7031 50.4646 13.7031L51.2032 13.7007C51.2056 13.7007 51.2079 13.7007 51.2127 13.7007C52.1294 13.7007 52.9892 14.0569 53.6399 14.7029C54.2907 15.3513 54.6517 16.2134 54.6517 17.1326L54.6636 23.9631C54.6683 25.8583 53.1293 27.4044 51.2341 27.4092L50.4883 27.4116ZM51.2103 13.8503C51.2079 13.8503 51.2056 13.8503 51.2032 13.8503L50.4646 13.8527C50.3292 13.8527 50.2199 13.9643 50.2199 14.0997L50.2437 27.0173C50.2437 27.0838 50.2698 27.1456 50.3173 27.1907C50.3648 27.2358 50.4266 27.2619 50.4907 27.2619L51.2317 27.2596C53.0438 27.2548 54.5163 25.7776 54.5139 23.9631L54.5021 17.1326C54.4997 16.2538 54.1553 15.4273 53.5331 14.8074C52.9108 14.1899 52.0867 13.8503 51.2103 13.8503Z" fill="#371A45"/>
<path d="M54.5785 20.6809L54.5832 22.7092C54.588 25.2575 52.783 27.3309 50.5505 27.338C50.3368 27.338 50.1658 27.1409 50.1634 26.8987L50.1562 23.5285C50.2156 23.6829 50.351 23.7874 50.5078 23.7898L50.7714 23.7874C52.536 23.7803 54.0322 22.4859 54.5785 20.6809Z" fill="#D8D8D8"/>
<path d="M50.4866 27.751C50.2894 27.751 50.1066 27.675 49.9664 27.5372C49.8263 27.3995 49.7503 27.2142 49.7503 27.0171L49.7266 14.0995C49.7266 13.6933 50.0543 13.3632 50.4604 13.3632L51.1991 13.3608C51.2014 13.3608 51.2062 13.3608 51.2086 13.3608C52.2156 13.3608 53.1608 13.7527 53.8757 14.4628C54.5906 15.1753 54.9872 16.123 54.9896 17.1347L55.0014 23.9652C55.0062 26.0481 53.3152 27.7462 51.2299 27.751H50.4866ZM50.5578 14.1921L50.5816 26.9197L51.2276 26.9173C52.8521 26.9126 54.1726 25.5873 54.1702 23.9628L54.1583 17.1323C54.1559 16.3438 53.8496 15.6052 53.2891 15.0471C52.7333 14.4937 51.9947 14.1873 51.2086 14.1873C51.2062 14.1873 51.2038 14.1873 51.2014 14.1873L50.5578 14.1921Z" fill="#371A45"/>
<path d="M14.0692 13.8698L14.8102 13.8674C14.9883 13.8674 15.1308 14.0099 15.1308 14.1881L15.1546 27.1057C15.1546 27.2838 15.0121 27.4263 14.8339 27.4263L14.0953 27.4287C12.2357 27.4334 10.7252 25.9301 10.7228 24.0704L10.7109 17.2399C10.7086 15.3827 12.2119 13.8746 14.0692 13.8698Z" fill="white"/>
<path d="M14.0915 27.5021C13.1748 27.5021 12.315 27.1459 11.6643 26.4999C11.0135 25.8515 10.6525 24.9894 10.6525 24.0703L10.6406 17.2398C10.6359 15.3445 12.1749 13.7984 14.0701 13.7936L14.8111 13.7913C14.9156 13.7913 15.0154 13.8316 15.089 13.9053C15.1626 13.9789 15.2054 14.0786 15.2054 14.1855L15.2291 27.1031C15.2291 27.3216 15.0534 27.4998 14.8349 27.4998L14.0963 27.5021C14.0963 27.5021 14.0939 27.5021 14.0915 27.5021ZM14.0701 13.9433C12.258 13.948 10.7855 15.4253 10.7879 17.2398L10.7998 24.0703C10.8021 24.949 11.1465 25.7755 11.7688 26.3954C12.3886 27.0129 13.2128 27.3549 14.0891 27.3549C14.0915 27.3549 14.0939 27.3549 14.0963 27.3549L14.8349 27.3525C14.9703 27.3525 15.0795 27.2409 15.0795 27.1055L15.0558 14.1879C15.0558 14.1214 15.0296 14.0596 14.9821 14.0145C14.9346 13.9694 14.8729 13.9433 14.8088 13.9433H14.0701Z" fill="#371A45"/>
<path d="M15.1481 23.4693L15.1553 26.9867C15.1553 27.229 14.9819 27.4261 14.7705 27.4285C13.5996 27.4308 12.5427 26.8632 11.8017 25.956C11.1344 25.1342 10.7235 24.0322 10.7211 22.8233L10.7188 21.0017C11.3552 22.5977 12.7684 23.7092 14.4047 23.7045H14.8085C14.9557 23.6997 15.0816 23.6047 15.1481 23.4693Z" fill="#D8D8D8"/>
<path d="M14.0898 27.8439C13.0828 27.8439 12.1375 27.452 11.4226 26.7419C10.7078 26.0294 10.3111 25.0818 10.3088 24.07L10.2969 17.2395C10.2921 15.1567 11.9831 13.4585 14.0684 13.4538L14.8094 13.4514H14.8118C15.0089 13.4514 15.1918 13.5274 15.3319 13.6652C15.472 13.8029 15.548 13.9882 15.548 14.1853L15.5718 27.1029C15.5718 27.509 15.244 27.8392 14.8379 27.8392L14.0993 27.8415C14.0945 27.8439 14.0921 27.8439 14.0898 27.8439ZM14.0684 14.285C12.4439 14.2898 11.1234 15.615 11.1258 17.2395L11.1376 24.07C11.14 24.8585 11.4464 25.5972 12.0069 26.1553C12.5626 26.7087 13.3013 27.015 14.0874 27.015C14.0898 27.015 14.0921 27.015 14.0945 27.015L14.7381 27.0127L14.7144 14.285H14.0684Z" fill="#371A45"/>
<path d="M32.6503 38.6477C43.0886 38.6477 51.5505 30.1857 51.5505 19.7474C51.5505 9.3091 43.0886 0.847168 32.6503 0.847168C22.2119 0.847168 13.75 9.3091 13.75 19.7474C13.75 30.1857 22.2119 38.6477 32.6503 38.6477Z" fill="white"/>
<path d="M32.6767 38.7236C32.2349 38.7236 31.7884 38.7094 31.3443 38.6785C20.9062 37.9589 12.9998 28.8816 13.7171 18.4435C14.0662 13.3871 16.3628 8.76772 20.1842 5.44035C24.0056 2.1106 28.8981 0.469474 33.9521 0.818599C39.0084 1.16772 43.6278 3.46435 46.9552 7.28572C50.2849 11.1071 51.9261 15.9972 51.5769 21.0536C51.2278 26.11 48.9312 30.7293 45.1098 34.0567C41.6281 37.092 37.2533 38.7236 32.6767 38.7236ZM32.6197 0.918349C28.0787 0.918349 23.7396 2.5381 20.2816 5.5496C16.4887 8.85322 14.2111 13.4346 13.8643 18.4506C13.1494 28.808 20.9964 37.814 31.3514 38.5265C36.3674 38.8732 41.2196 37.244 45.0124 33.9403C48.8053 30.6367 51.0829 26.0553 51.4297 21.0393C51.7764 16.0233 50.1472 11.1712 46.8436 7.37835C43.5399 3.58547 38.9586 1.30785 33.9426 0.961099C33.5008 0.934974 33.0591 0.918349 32.6197 0.918349Z" fill="#371A45"/>
<g opacity="0.25">
<path d="M51.5023 18.4249C51.5641 19.2847 51.5641 20.161 51.5023 21.0469C50.7827 31.4613 41.7601 39.3202 31.3457 38.6053C20.9313 37.8857 13.0725 28.863 13.7873 18.4487C13.8087 18.1494 13.8348 17.8502 13.8705 17.5557C14.5093 26.8229 21.898 34.4324 31.4265 35.0903C41.544 35.7862 50.3457 28.3904 51.5023 18.4249Z" fill="#371A45"/>
</g>
<path d="M32.6814 39.066C32.2301 39.066 31.7789 39.0494 31.3252 39.0185C20.6995 38.287 12.6506 29.0459 13.3821 18.4202C13.736 13.2735 16.0754 8.57104 19.9656 5.18192C23.8559 1.79279 28.8339 0.123165 33.9805 0.47704C39.1271 0.830915 43.8296 3.17029 47.2187 7.06054C50.6079 10.9508 52.2775 15.9288 51.9236 21.0754C51.5697 26.222 49.2304 30.9245 45.3401 34.3137C41.7919 37.4035 37.3411 39.066 32.6814 39.066ZM32.6267 1.26079C28.1665 1.26079 23.9081 2.85204 20.5119 5.80892C16.7879 9.05317 14.5506 13.5514 14.211 18.4772C13.5104 28.6469 21.2125 37.489 31.3822 38.1897C36.308 38.5293 41.0722 36.9309 44.7962 33.6867C48.5202 30.4424 50.7575 25.9442 51.0971 21.0184C51.4367 16.0927 49.8384 11.3284 46.5941 7.60442C43.3499 3.88042 38.8516 1.64316 33.9259 1.30354C33.4912 1.27504 33.0566 1.26079 32.6267 1.26079Z" fill="#371A45"/>
<path d="M51.4147 21.5259C51.2152 25.219 49.833 28.5844 47.629 31.3109C45.9784 33.3557 39.459 36.7377 31.65 36.3886C24.411 36.0656 18.0365 31.8524 16.6139 29.6436C14.7162 26.6962 13.7021 23.2026 13.8992 19.5095C14.4265 9.73637 23.043 6.13587 33.4027 6.69162C43.7625 7.24975 51.942 11.7527 51.4147 21.5259Z" fill="#371A45"/>
<g opacity="0.5">
<path d="M47.7487 20.4298C48.1752 18.6328 47.4645 16.9254 46.1615 16.6162C44.8584 16.307 43.4564 17.513 43.0299 19.31C42.6035 21.107 43.3142 22.8144 44.6172 23.1236C45.9203 23.4329 47.3223 22.2268 47.7487 20.4298Z" fill="white"/>
</g>
<g opacity="0.5">
<path d="M43.2948 26.8054C43.6025 26.0159 43.302 25.1615 42.6237 24.8972C41.9453 24.6329 41.146 25.0587 40.8383 25.8482C40.5307 26.6378 40.8311 27.4921 41.5095 27.7564C42.1878 28.0208 42.9871 27.595 43.2948 26.8054Z" fill="white"/>
</g>
<g opacity="0.35">
<path d="M48.2545 12.2141C50.43 14.525 51.6223 17.603 51.4133 21.5289C51.2138 25.222 49.8315 28.5874 47.6299 31.3139C45.9769 33.3587 39.4575 36.7407 31.6509 36.3916C28.8935 36.2681 26.2644 35.5817 23.9844 34.6555C33.5889 34.8787 41.5333 30.7249 43.5805 28.1884C46.3759 24.728 48.131 20.4577 48.3828 15.7695C48.4493 14.5155 48.4018 13.3327 48.2545 12.2141Z" fill="#111A28"/>
</g>
<path d="M50.259 13.2855C50.1592 13.2855 50.0618 13.2499 49.9811 13.1786L49.9407 13.1406L49.9075 13.0907C46.9553 8.44285 40.9323 5.54535 33.3775 5.13923C25.7798 4.73073 19.4813 7.0511 16.0922 11.5019L16.059 11.5399C15.8998 11.7061 15.6386 11.7132 15.4723 11.5541C15.3132 11.4021 15.3013 11.1551 15.4391 10.9889C18.9992 6.32198 25.5518 3.8876 33.4202 4.31035C41.2411 4.73073 47.5016 7.76598 50.601 12.6371C50.7055 12.7915 50.696 13.0052 50.5653 13.1477C50.4846 13.238 50.373 13.2855 50.259 13.2855Z" fill="#371A45"/>
<g opacity="0.5">
<path d="M17.8 25.5519C17.8 25.5519 15.292 15.7479 20.6951 12.1854C26.0983 8.62295 33.5724 9.04095 33.3729 9.5112C33.3729 9.5112 24.9891 11.0692 21.3981 17.4389C18.6289 22.3457 17.8 25.5519 17.8 25.5519Z" fill="white"/>
</g>
<path d="M49.7492 53.1087C49.4167 54.1323 48.8277 54.9826 47.9418 55.5929C43.9115 58.3812 40.1851 55.9516 37.5726 55.4742C34.9577 54.9968 37.6795 48.9881 37.6795 48.9881L44.2178 48.3777C44.2178 48.3777 43.6906 44.5896 42.23 40.6542C42.2228 40.6376 42.2181 40.6233 42.211 40.6067C42.154 40.4499 42.0946 40.2932 42.0305 40.1364C42.0281 40.1293 42.0257 40.1222 42.0233 40.1174C42.0233 40.1151 42.021 40.1103 42.0186 40.1056C41.9687 39.9821 41.9188 39.8562 41.869 39.7303L38.9643 31.2991C45.4433 36.1346 51.6278 47.3493 49.7492 53.1087Z" fill="white"/>
<path d="M42.0204 40.1173C42.0204 40.115 42.018 40.1102 42.0156 40.1055C42.018 40.1078 42.018 40.1102 42.0204 40.1173Z" fill="#D8D8D8"/>
<path d="M49.7492 53.1088C49.4167 54.1324 48.8277 54.9827 47.9418 55.5931C43.9115 58.3813 40.1851 55.9517 37.5726 55.4743C34.9577 54.9969 37.6795 48.9882 37.6795 48.9882L44.2178 48.3778C44.2178 48.3778 43.6906 44.5897 42.23 40.6543C42.8878 42.312 45.0277 47.214 47.6378 48.183C47.6378 48.183 46.0941 49.5582 46.4598 52.0852C46.6878 53.6598 48.3195 54.2203 49.7492 53.1088Z" fill="#D8D8D8"/>
<path d="M39.2091 30.9666C44.3248 34.9019 48.8136 41.7301 50.2077 48.0452C50.7302 50.5817 50.7468 53.7333 48.6188 55.5858C47.5358 56.4931 46.1868 57.0868 44.7784 57.2649C42.7597 57.5333 40.7766 56.8683 38.9146 56.2627C38.4562 56.1178 38.0026 55.9824 37.5561 55.8969C37.2639 55.8423 36.9433 55.7236 36.7058 55.5264C35.3877 54.3556 36.2783 51.6338 36.7509 50.2064C36.9386 49.6649 37.1547 49.1282 37.3922 48.5986L37.6344 48.5748L44.1728 47.9644L43.7999 48.4347C43.5316 46.9907 43.2252 45.5277 42.8737 44.0979C42.5293 42.6563 42.1113 41.2171 41.6672 39.8016C41.6363 39.6899 41.7004 39.5759 41.8097 39.5451C41.9071 39.5166 42.0092 39.5641 42.0543 39.6543C42.4699 40.4998 42.8452 41.3738 43.1539 42.2644C43.8902 44.3663 44.4293 46.5323 44.6716 48.7529L44.2464 48.7933L37.7081 49.4037L38.0477 49.1614C37.6748 50.0212 37.3494 50.9308 37.1143 51.8404C36.9196 52.6741 36.5134 54.4031 37.3257 54.9564C37.4563 55.0229 37.5489 55.0538 37.7057 55.0823C38.2116 55.1821 38.6889 55.3246 39.1568 55.4718C40.9571 56.0537 42.7811 56.6878 44.6668 56.4432C45.7451 56.3149 46.7758 55.8874 47.6736 55.2676C48.2673 54.8591 48.7518 54.3081 49.0677 53.6549C50.8798 49.7386 48.1771 43.7654 46.1417 40.2932C44.1847 37.0252 41.7456 33.9448 38.7056 31.6339C38.2852 31.3062 38.7459 30.6436 39.2091 30.9666Z" fill="#371A45"/>
<path d="M47.6012 48.3898C46.9077 48.3256 46.1999 48.2924 45.5136 48.385C44.7939 48.461 44.1337 48.7888 43.4022 48.8743C42.8559 48.9265 42.7538 48.1356 43.2977 48.0501C43.9817 48.0335 44.7417 47.7675 45.4613 47.7651C46.2071 47.7366 46.9362 47.8435 47.6606 47.9813C47.7722 48.0026 47.8482 48.1119 47.8268 48.2235C47.8078 48.328 47.7081 48.4016 47.6012 48.3898Z" fill="#371A45"/>
<path d="M25.9393 31.2991C18.3084 36.9919 11.0884 51.5317 16.9618 55.5929C20.9921 58.3788 24.7161 55.9516 27.331 55.4742C29.9459 54.9968 27.2241 48.9881 27.2241 48.9881L20.6858 48.3777C20.6858 48.3777 21.2985 43.9721 23.0323 39.7303" fill="white"/>
<path d="M15.1562 53.1088C15.4887 54.1324 16.0778 54.9827 16.9636 55.5931C20.994 58.3813 24.7204 55.9517 27.3329 55.4743C29.9477 54.9969 27.226 48.9882 27.226 48.9882L20.6876 48.3778C20.6876 48.3778 21.2149 44.5897 22.6755 40.6543C22.0176 42.312 19.8777 47.214 17.2676 48.183C17.2676 48.183 18.8114 49.5582 18.4456 52.0852C18.2176 53.6598 16.586 54.2203 15.1562 53.1088Z" fill="#D8D8D8"/>
<path d="M26.1873 31.6317C21.2425 35.4364 16.8559 42.1031 15.5045 48.2116C15.0343 50.5391 14.9559 53.4413 16.9485 55.0682C19.8056 57.2389 22.5963 56.5407 25.7313 55.4719C26.1991 55.3247 26.6765 55.1798 27.1824 55.0824C27.3391 55.0539 27.4318 55.0231 27.5624 54.9566C28.3794 54.4056 27.9661 52.6694 27.7738 51.8406C27.5386 50.9333 27.2156 50.0213 26.8404 49.1616L27.18 49.4038L20.6416 48.7934L20.2165 48.7531C20.5823 45.6014 21.4705 42.5163 22.8338 39.6544C22.943 39.4336 23.2898 39.5571 23.2209 39.8041C23.0594 40.3171 22.8765 40.8918 22.7221 41.4096C22.4704 42.2883 22.2186 43.2098 22.0073 44.0981C21.6605 45.5302 21.3565 46.9932 21.0905 48.4372L20.7176 47.9669L27.256 48.5773L27.4983 48.6011C27.7358 49.1307 27.9519 49.6674 28.1395 50.2089C28.6383 51.7028 29.6833 54.9376 27.7619 55.7759C27.6384 55.8377 27.4531 55.8662 27.3344 55.8971C25.9213 56.1963 24.5936 56.7877 23.1449 57.0869C20.7295 57.6569 18.2001 57.2128 16.2716 55.5859C14.1436 53.7311 14.1626 50.5818 14.6828 48.0453C16.0769 41.7349 20.568 34.9021 25.6814 30.9667C26.135 30.6556 26.6243 31.2849 26.1873 31.6317Z" fill="#371A45"/>
<path d="M17.2373 47.9789C18.3203 47.7604 19.4675 47.6583 20.5576 47.9005C20.921 47.9741 21.244 48.0406 21.5527 48.0454C21.7831 48.0478 21.9683 48.2378 21.9636 48.4658C21.9612 48.7128 21.7403 48.9051 21.4957 48.8719C21.1133 48.8291 20.7381 48.7128 20.3842 48.6059C19.7168 48.3969 19.0518 48.3138 18.3536 48.328C18.0021 48.3304 17.6482 48.3589 17.2943 48.3898C17.0355 48.4088 16.9808 48.0288 17.2373 47.9789Z" fill="#371A45"/>
<path d="M32.0682 44.1623L30.5363 45.364L28.8406 46.694C28.3133 46.4945 27.8431 46.4185 27.4251 46.4399C27.4251 46.4399 27.4251 46.4399 27.4227 46.4399C24.3969 46.6085 24.0478 51.9048 24.0478 51.9048C24.4611 52.4083 24.9123 53.3274 24.4587 53.8167C24.0478 54.256 23.2379 53.7502 23.2379 53.7502C23.2379 53.7502 23.1382 54.5767 23.2926 55.4483C23.5229 56.7355 22.2594 56.9089 21.5707 56.5052C21.3617 56.3817 21.2263 56.1347 21.2263 56.1347C20.6682 56.9137 19.7348 56.4197 19.3976 55.6668C19.2384 55.3105 19.0888 54.6337 19.0176 53.7715C18.8086 51.1828 19.3192 46.9197 22.4138 44.6587C23.4446 43.9058 24.4991 43.464 25.5132 43.2337C29.0258 42.438 32.0682 44.1623 32.0682 44.1623Z" fill="#62ED2E"/>
<path d="M24.0459 51.9046C24.4591 52.4081 24.9104 53.3272 24.4568 53.8165C24.0459 54.2558 23.236 53.75 23.236 53.75C23.236 53.75 23.1363 54.5765 23.2906 55.4481C23.521 56.7353 22.2575 56.9087 21.5688 56.505C21.3598 56.3815 21.2244 56.1345 21.2244 56.1345C20.6663 56.9135 19.7329 56.4195 19.3956 55.6666C19.2365 55.3103 19.0869 54.6335 19.0156 53.7713C19.3315 54.4553 19.9158 55.0728 20.937 54.3413C20.937 54.3413 22.3596 55.2391 22.4404 54.1585C22.5473 52.7311 21.0676 49.4512 23.8583 47.1855C24.9603 46.2901 26.3354 46.2568 27.4255 46.4445C24.395 46.6083 24.0459 51.9046 24.0459 51.9046Z" fill="#32CC17"/>
<path d="M32.0628 44.1623L30.5309 45.364C28.5407 45.1004 26.7856 44.3285 25.5078 43.2337C29.0204 42.438 32.0628 44.1623 32.0628 44.1623Z" fill="#32CC17"/>
<path d="M38.7158 43.148C37.5236 44.2048 35.8943 44.972 34.0347 45.2973L32.5859 44.1597C32.5883 44.1621 35.3884 42.5756 38.7158 43.148Z" fill="#32CC17"/>
<path d="M36.3279 44.6323C35.0692 45.162 33.6157 45.466 32.0696 45.466C30.6588 45.466 29.3264 45.2142 28.1484 44.7653C28.6686 43.4662 29.1222 42.616 29.1222 42.616H35.4112C35.4088 42.616 35.8292 43.4092 36.3279 44.6323Z" fill="#32CC17"/>
<path d="M31.8643 44.5231C28.791 42.9437 24.9174 43.0055 22.236 45.3306C20.3574 46.9551 19.5665 49.494 19.4169 51.9165C19.3599 52.895 19.3931 53.9091 19.5879 54.8662C19.6829 55.403 19.9631 56.0941 20.5593 56.1083C20.7018 56.0941 20.7968 56.011 20.887 55.8898C21.0509 55.6523 21.4238 55.6642 21.5734 55.9088C21.6209 55.9896 21.6874 56.0798 21.7634 56.1321C22.0033 56.2865 22.3975 56.3316 22.6493 56.2081C22.9889 56.0561 22.9058 55.6286 22.8535 55.3175C22.7799 54.7712 22.7728 54.2487 22.8274 53.6977C22.8511 53.4721 23.0554 53.3082 23.281 53.332C23.4045 53.3415 23.49 53.4222 23.6016 53.4673C23.8106 53.5576 24.1788 53.6977 24.2263 53.3842C24.2856 53.009 23.984 52.477 23.7299 52.1635C23.6586 52.078 23.6301 51.9758 23.6373 51.8737C23.7726 49.5248 24.8628 45.7961 27.8481 46.1642C28.221 46.2188 28.5796 46.3376 28.9169 46.4967C29.0214 46.5442 29.0665 46.6677 29.019 46.7722C28.9763 46.8672 28.8694 46.9123 28.772 46.8862C28.126 46.6986 27.4539 46.6558 26.8934 46.8815C25.1976 47.594 24.6989 50.2706 24.4661 51.9307L24.3735 51.641C24.5801 51.8951 24.7464 52.1658 24.877 52.4698C25.5254 53.9281 24.3973 54.947 23.0198 54.0991L23.6515 53.7975C23.6064 54.2511 23.6135 54.7475 23.6753 55.2011C23.7394 55.5692 23.7869 55.9302 23.6254 56.3173C23.1741 57.3766 21.5045 57.3386 20.9226 56.4266C20.9036 56.3957 20.8894 56.3743 20.8633 56.3316L21.5639 56.3743C21.115 57.0417 20.2363 57.1058 19.6283 56.6095C19.1271 56.2461 18.8825 55.6001 18.7756 55.0372C18.664 54.5052 18.6094 53.978 18.5785 53.4483C18.436 50.3062 19.2269 46.8458 21.6898 44.7012C24.1883 42.5281 27.708 42.1077 30.7813 43.1693C31.2966 43.3451 31.7859 43.5375 32.2704 43.7987C32.7501 44.0837 32.3535 44.7867 31.8643 44.5231Z" fill="#371944"/>
<path d="M32.5938 44.1624C32.5938 44.1624 37.6501 41.2982 42.2481 44.6588C46.3735 47.6727 45.9056 54.2443 45.2644 55.6669C44.9271 56.4174 43.9937 56.9138 43.4356 56.1324C43.4356 56.1324 43.3003 56.3794 43.0912 56.5029C42.4025 56.9067 41.139 56.7309 41.3694 55.446C41.5261 54.5768 41.424 53.7479 41.424 53.7479C41.424 53.7479 40.6118 54.2538 40.2033 53.8144C39.7496 53.3252 40.2009 52.406 40.6118 51.9025C40.6118 51.9025 40.1605 45.0388 35.8214 46.6918" fill="#62ED2E"/>
<path d="M32.5938 44.1624C32.5938 44.1624 37.6501 41.2982 42.2481 44.6588C46.3735 47.6727 45.9056 54.2443 45.2644 55.6669C44.9271 56.4174 43.9937 56.9138 43.4356 56.1324C43.4356 56.1324 43.3003 56.3794 43.0912 56.5029C42.4025 56.9067 41.139 56.7309 41.3694 55.446C41.5261 54.5768 41.424 53.7479 41.424 53.7479C41.424 53.7479 40.6118 54.2538 40.2033 53.8144C39.7496 53.3252 40.2009 52.406 40.6118 51.9025C40.6118 51.9025 40.1605 45.0388 35.8214 46.6918" fill="#62ED2E"/>
<path d="M40.6453 51.9046C40.232 52.4081 39.7808 53.3272 40.2344 53.8165C40.6453 54.2558 41.4551 53.75 41.4551 53.75C41.4551 53.75 41.5549 54.5765 41.4005 55.4481C41.1701 56.7353 42.4336 56.9087 43.1224 56.505C43.3314 56.3815 43.4668 56.1345 43.4668 56.1345C44.0249 56.9135 44.9583 56.4195 45.2955 55.6666C45.4546 55.3103 45.6043 54.6335 45.6755 53.7713C45.3596 54.4553 44.7754 55.0728 43.7541 54.3413C43.7541 54.3413 42.3315 55.2391 42.2508 54.1585C42.1439 52.7311 43.6235 49.4512 40.8329 47.1855C39.7309 46.2901 38.3558 46.2568 37.2656 46.4445C40.2961 46.6083 40.6453 51.9046 40.6453 51.9046Z" fill="#32CC17"/>
<path d="M38.7158 43.148C37.5236 44.2048 35.8943 44.972 34.0347 45.2973L32.5859 44.1597C32.5883 44.1621 35.3884 42.5756 38.7158 43.148Z" fill="#32CC17"/>
<path d="M32.3863 43.7986C37.5068 41.1576 43.772 42.9674 45.5129 48.7457C46.128 50.7811 46.28 52.9447 45.8834 55.0371C45.824 55.3055 45.7623 55.5691 45.6293 55.8612C45.3443 56.4621 44.741 56.9822 44.0333 56.9371C43.6557 56.9157 43.2994 56.6687 43.0975 56.3742L43.7982 56.3315C43.7245 56.4621 43.6485 56.5547 43.5464 56.664C42.8577 57.3337 41.4422 57.2815 41.036 56.3172C40.8722 55.9301 40.922 55.5715 40.9862 55.201C41.0503 54.745 41.055 54.2486 41.0099 53.7974L41.6417 54.099C40.8983 54.5692 39.839 54.5692 39.6205 53.5432C39.5089 52.826 39.8747 52.18 40.2903 51.6385L40.1977 51.9282C39.9673 50.2705 39.4662 47.5915 37.7704 46.879C37.2099 46.6557 36.5425 46.6961 35.8965 46.8837C35.7849 46.917 35.6685 46.8552 35.6353 46.7436C35.6068 46.6439 35.6567 46.5394 35.7493 46.4966C36.0865 46.3375 36.4428 46.2187 36.818 46.1641C39.8034 45.7984 40.8935 49.5247 41.0289 51.8736C41.036 51.9829 41.0004 52.0874 40.9363 52.1634C40.7819 52.3534 40.6465 52.5719 40.5539 52.7927C40.4447 53.0777 40.3568 53.3414 40.5183 53.5337C40.542 53.5551 40.5658 53.5694 40.637 53.5741C40.808 53.5812 41.0598 53.4815 41.2165 53.3865C41.4659 53.2274 41.815 53.4031 41.8388 53.6952C41.8934 54.2486 41.8863 54.7711 41.8127 55.315C41.758 55.6237 41.6773 56.056 42.0169 56.2056C42.347 56.3529 42.8885 56.2769 43.0762 55.9277C43.1925 55.7187 43.4633 55.6499 43.6628 55.7781C43.7697 55.8446 43.8385 55.9919 43.9383 56.0465C44.133 56.1629 44.3183 56.0987 44.532 55.9467C45.3253 55.3981 45.2992 52.8474 45.2493 51.9116C45.0047 47.6889 42.8814 44.257 38.4995 43.5279C37.0508 43.307 35.5379 43.4899 34.1438 43.953C33.6854 44.1074 33.2175 44.295 32.7924 44.5206C32.3055 44.7795 31.9113 44.0789 32.3863 43.7986Z" fill="#371944"/>
<path d="M29.1144 42.616C29.1144 42.616 25.445 49.5153 26.9745 54.035C26.9745 54.035 27.3806 56.0395 32.2589 56.0395C37.1371 56.0395 37.5432 54.035 37.5432 54.035C39.0727 49.5153 35.4034 42.616 35.4034 42.616" fill="#62ED2E"/>
<path d="M36.3279 44.6323C35.0692 45.162 33.6157 45.466 32.0696 45.466C30.6588 45.466 29.3264 45.2142 28.1484 44.7653C28.6686 43.4662 29.1222 42.616 29.1222 42.616H35.4112C35.4088 42.616 35.8292 43.4092 36.3279 44.6323Z" fill="#32CC17"/>
<path d="M37.5431 54.0375C37.5431 54.0375 37.137 56.042 32.2588 56.042C27.3805 56.042 26.9744 54.0375 26.9744 54.0375C26.592 52.907 26.535 51.6292 26.6633 50.3491C26.7203 50.8384 26.82 51.3134 26.9744 51.7646C26.9744 51.7646 27.3805 53.7691 32.2588 53.7691C37.137 53.7691 37.5431 51.7646 37.5431 51.7646C37.6951 51.3134 37.7973 50.8384 37.8543 50.3491C37.9825 51.6292 37.9255 52.907 37.5431 54.0375Z" fill="#32CC17"/>
<path d="M28.0754 45.5183C27.4793 48.2615 26.5008 51.2397 27.4152 53.9686C27.7501 54.7048 28.6644 55.0777 29.4173 55.2962C31.3363 55.8092 35.5781 55.8995 36.9366 54.256C37.0244 54.142 37.1028 54.0042 37.1266 53.895C38.0124 51.1305 37.0149 48.2543 36.4449 45.5183C36.4212 45.4043 36.4972 45.2927 36.6112 45.2713C36.7014 45.2523 36.7917 45.2975 36.8344 45.3758C37.2002 46.0266 37.4781 46.7225 37.7013 47.4326C38.1264 48.8742 38.4019 50.3752 38.3544 51.8928C38.3473 52.5697 38.1597 53.6717 37.9768 54.1253C37.8462 54.6051 37.5279 54.9566 37.1598 55.2558C35.9747 56.156 34.4618 56.3578 33.0249 56.4386C32.0322 56.4742 30.9421 56.4481 29.9612 56.2818C28.7072 56.0657 26.9568 55.4838 26.5436 54.123C25.8738 52.2111 26.1683 49.5202 26.8238 47.4326C27.0471 46.7201 27.3273 46.029 27.6836 45.3735C27.8047 45.1668 28.1253 45.2832 28.0754 45.5183Z" fill="#371944"/>
<path d="M33.3918 50.843C33.3918 50.843 33.938 50.4012 33.7646 49.8407C33.5366 49.1021 32.7624 48.9382 32.3776 48.924C31.9929 48.9073 31.2068 49.0095 30.9218 49.7267C30.7033 50.273 31.2115 50.7575 31.2115 50.7575C31.2115 50.7575 31.5298 51.1683 32.285 51.1992C33.0426 51.2277 33.3918 50.843 33.3918 50.843Z" fill="#62ED2E"/>
<g opacity="0.7">
<path d="M33.762 50.3158C33.7596 50.304 33.7549 50.2921 33.7525 50.2802C33.5245 49.5416 32.7502 49.3777 32.3655 49.3635C31.9807 49.3468 31.1946 49.449 30.9096 50.1662C30.9049 50.1781 30.9001 50.19 30.8977 50.2018C30.8645 50.057 30.8621 49.8955 30.9286 49.7268C31.2136 49.0096 31.9997 48.9098 32.3845 48.9241C32.7692 48.9407 33.5459 49.1022 33.7715 49.8408C33.8237 50.0142 33.8071 50.1733 33.762 50.3158Z" fill="white"/>
</g>
<path d="M32.5712 51.7123L31.8563 51.6838C31.0583 51.6505 30.4907 50.8929 30.6878 50.1186L30.8208 49.5938C30.8208 49.5938 31.0797 50.4725 32.2624 50.52C33.4452 50.5675 33.7729 49.7125 33.7729 49.7125L33.8632 50.2469C33.9962 51.0354 33.3692 51.7455 32.5712 51.7123Z" fill="#32CC17"/>
<path d="M33.2621 50.6815C33.3334 50.5247 33.4236 50.3205 33.4165 50.1566C33.3619 49.6555 32.8417 49.3563 32.3596 49.3373C31.8775 49.3183 31.336 49.5724 31.241 50.0687C31.2196 50.254 31.3099 50.4796 31.3716 50.6601C31.4072 50.7694 31.3502 50.8881 31.241 50.9237C31.1009 50.9712 30.9774 50.8454 30.8824 50.7741C30.5665 50.5081 30.3931 50.0498 30.5166 49.6317C30.8515 48.4917 32.2979 48.2899 33.2597 48.696C33.6944 48.867 34.0886 49.2945 34.1741 49.779C34.2644 50.2065 34.0554 50.6459 33.7181 50.8881C33.5804 50.9902 33.3571 51.1233 33.2431 50.9095C33.2051 50.8335 33.2289 50.7528 33.2621 50.6815Z" fill="#371944"/>
<path d="M32.8148 49.995C32.7768 50.0093 32.6319 49.7005 32.3517 49.6887C32.0714 49.6768 31.9028 49.9737 31.8648 49.957C31.8363 49.9452 31.9194 49.6982 32.1213 49.5865C31.9289 49.4583 31.8648 49.2065 31.8933 49.1947C31.9313 49.1828 32.0762 49.4915 32.3564 49.501C32.6367 49.5129 32.8053 49.216 32.8433 49.2327C32.8718 49.2445 32.7887 49.4915 32.5868 49.6032C32.7816 49.7338 32.8433 49.9855 32.8148 49.995Z" fill="#371944"/>
<path d="M36.7244 53.5388C36.7244 53.5388 37.9547 54.6622 38.0069 57.3649C38.0592 59.9727 37.3704 61.6684 37.3704 61.6684C37.3704 61.6684 38.2254 63.1956 37.4464 63.5946C36.6532 64.0007 35.6058 62.8868 35.6248 62.1102C35.6438 63.1196 35.335 63.8606 34.4444 63.5138C33.3519 63.0887 33.0289 60.9583 33.1857 60.0748C33.5348 58.1178 33.9385 57.6618 34.0193 56.3603C34.0977 55.1182 33.7224 54.5577 33.7224 54.5577" fill="#62ED2E"/>
<path d="M34.443 63.5159C35.317 63.8555 35.6305 63.1478 35.6257 62.1693V62.1669C34.0487 63.5468 33.8587 60.597 34.2269 59.3763C34.5926 58.1555 34.4905 55.8898 36.0034 55.8185C36.761 55.7829 37.4117 55.8945 37.8725 56.0156C37.54 54.2819 36.7254 53.5361 36.7254 53.5361L33.7234 54.5574C33.7234 54.5574 34.0962 55.1179 34.0202 56.36C33.9395 57.6615 33.5334 58.1175 33.1866 60.0745C33.0275 60.9628 33.3505 63.0931 34.443 63.5159Z" fill="#32CC17"/>
<path d="M36.8613 53.3843C39.063 54.5979 38.5262 59.8182 37.752 61.825L37.7306 61.4664C37.79 61.5757 37.8327 61.6683 37.8802 61.7704C38.2887 62.6183 38.455 63.9222 37.2105 64.0908C36.194 64.1739 35.2131 63.0838 35.206 62.1029C35.2297 61.5614 36.0111 61.5614 36.0372 62.1005C36.042 62.3713 36.0301 62.6444 35.9683 62.9342C35.7237 64.2547 34.3818 64.3093 33.5981 63.3925C32.8713 62.4971 32.5982 61.0057 32.7977 59.8823C33.0352 58.3338 33.7857 56.8827 33.6741 55.308C33.6551 55.0943 33.6195 54.8734 33.5506 54.6715L33.5387 54.586C33.5245 54.4768 33.6005 54.377 33.7097 54.3628C33.876 54.3414 33.9472 54.5195 34.0185 54.6312C34.2441 55.0468 34.3462 55.5194 34.3818 55.9849C34.4198 56.5098 34.3842 57.0465 34.2631 57.5572C34.1372 58.0654 33.9662 58.5143 33.8475 58.9798C33.7382 59.4263 33.6195 59.8989 33.5696 60.3525C33.5435 60.7824 33.5957 61.255 33.7026 61.692C33.876 62.3285 34.1515 63.1289 34.8616 63.1835C35.1941 63.1622 35.2131 62.4164 35.2107 62.1172L36.042 62.1195C36.0372 62.2217 36.0776 62.3689 36.1465 62.5043C36.2771 62.775 36.5217 63.041 36.783 63.1788C36.9777 63.2738 37.1843 63.3189 37.3197 63.1693C37.3482 63.1289 37.372 63.0007 37.353 62.8487C37.3173 62.5447 37.1701 62.1742 37.011 61.8702C36.9492 61.7562 36.9468 61.6232 36.9896 61.5115C37.0418 61.3714 37.0988 61.198 37.1416 61.0484C37.5453 59.5783 37.7092 58.0037 37.5145 56.4884C37.3957 55.669 37.1155 54.8972 36.7663 54.1514C36.707 54.0042 36.6048 53.7809 36.5716 53.6265C36.5193 53.4603 36.7093 53.3059 36.8613 53.3843Z" fill="#371A45"/>
<path d="M30.0833 63.5162C29.2093 63.8558 28.8958 63.1481 28.9006 62.1696C28.8982 62.2171 28.8935 62.2646 28.884 62.3121V62.3216C28.7391 63.0697 27.8033 63.9651 27.079 63.5946C26.3023 63.1979 27.155 61.6684 27.155 61.6684C27.155 61.6684 26.4662 59.9727 26.5185 57.3649C26.528 56.8614 26.5802 56.4149 26.6538 56.0183C26.9863 54.2846 27.801 53.5388 27.801 53.5388L30.803 54.5601C30.803 54.5601 30.4301 55.1206 30.5061 56.3627C30.5868 57.6642 30.993 58.1202 31.3397 60.0772C31.4988 60.9631 31.1758 63.0934 30.0833 63.5162Z" fill="#62ED2E"/>
<path d="M28.8828 62.3144L28.8994 62.1719C28.8971 62.217 28.8923 62.2645 28.8828 62.3144Z" fill="#32CC17"/>
<path d="M30.0858 63.5159C29.2118 63.8555 28.8983 63.1478 28.903 62.1693V62.1669C30.48 63.5468 30.67 60.597 30.3019 59.3763C29.9361 58.1555 30.0383 55.8898 28.5254 55.8185C27.7678 55.7829 27.117 55.8945 26.6562 56.0156C26.9887 54.2819 27.8034 53.5361 27.8034 53.5361L30.8054 54.5574C30.8054 54.5574 30.4325 55.1179 30.5085 56.36C30.5893 57.6615 30.9954 58.1175 31.3421 60.0745C31.5013 60.9628 31.1782 63.0931 30.0858 63.5159Z" fill="#32CC17"/>
<path d="M27.9356 53.6909C27.8359 53.9925 27.6886 54.306 27.5604 54.5957C26.8502 56.1347 26.8217 57.8922 27.0616 59.5476C27.1352 60.0559 27.2397 60.557 27.3799 61.0486C27.4321 61.3194 27.6554 61.6067 27.5105 61.8727C27.3276 62.248 27.064 62.8037 27.1994 63.1719C27.3347 63.3215 27.5437 63.274 27.7361 63.1814C28.0971 62.989 28.4652 62.533 28.4771 62.1221L29.3084 62.1197C29.3036 62.343 29.3179 62.5662 29.3582 62.7586C29.4556 63.2122 29.6195 63.2669 29.9876 63.1006C30.4697 62.8156 30.6597 62.2622 30.8141 61.6946C30.921 61.2576 30.9732 60.785 30.9471 60.3551C30.8379 59.3814 30.5149 58.5192 30.2536 57.5597C30.0802 56.7902 30.0612 55.9685 30.2702 55.2014C30.3367 54.9734 30.4246 54.7454 30.5552 54.5435C30.5766 54.5126 30.5932 54.4865 30.6241 54.4461C30.6906 54.3582 30.8141 54.3392 30.902 54.4057C30.9614 54.4509 30.9899 54.5221 30.9804 54.591L30.9685 54.6765C30.9661 54.6884 30.9542 54.7169 30.9495 54.7406C30.826 55.1467 30.8189 55.5742 30.845 55.997C30.9495 57.3199 31.5124 58.5644 31.7214 59.8872C31.8876 60.8254 31.7237 61.7944 31.3675 62.6636C31.0801 63.3619 30.4555 64.0411 29.629 64.0197C28.6719 63.9889 28.4439 62.8584 28.4795 62.1055C28.5056 61.564 29.287 61.5664 29.3107 62.1055C29.3155 62.4071 29.2276 62.6541 29.1207 62.8774C28.8951 63.3239 28.5674 63.6801 28.1209 63.9224C27.6292 64.2097 26.8122 64.1622 26.4916 63.6065C26.114 62.9059 26.4726 62.1102 26.7861 61.4714L26.7647 61.83C26.627 61.4714 26.532 61.1199 26.4441 60.7517C25.9976 58.7401 25.7221 55.4032 27.1661 53.7526C27.3205 53.6054 27.7527 53.1612 27.938 53.489C27.9712 53.5507 27.9546 53.6267 27.9356 53.6909Z" fill="#371A45"/>
<path d="M44.6085 33.19C44.4778 40.3388 36.0941 44.7325 32.0471 44.6589C28.0001 44.5853 19.785 39.8875 19.9156 32.7364C20.0462 25.5877 25.3615 19.2868 32.5102 19.4198C39.6614 19.548 44.7391 26.0389 44.6085 33.19Z" fill="#7DC142"/>
<path d="M44.6085 33.1901C44.4778 40.3388 36.0941 44.7326 32.0471 44.659C28.0001 44.5853 19.785 39.8876 19.9156 32.7365C19.9774 29.3925 21.172 26.2313 23.1622 23.8302C23.2264 23.7542 23.2881 23.6782 23.3522 23.6046C25.6037 21.004 28.8124 19.351 32.5102 19.4175C36.0347 19.4816 39.0557 21.0918 41.1956 23.5642C42.8961 25.526 44.0408 28.0292 44.447 30.7367C44.5681 31.5395 44.6227 32.3588 44.6085 33.1901Z" fill="#62ED2E"/>
<g opacity="0.7">
<path d="M44.4476 30.7367C44.5331 31.3019 44.5854 31.8743 44.602 32.4538C44.5783 32.2068 44.5474 31.9598 44.5118 31.7152C44.1056 29.0077 42.9609 26.5044 41.2604 24.5427C40.2819 23.4145 39.1229 22.4669 37.8143 21.7615C37.9116 21.9373 37.9401 22.1107 37.8879 22.265C37.7098 22.7947 36.6315 22.9087 35.4773 22.5215C34.3254 22.1344 33.5345 21.3887 33.7126 20.859C33.7625 20.7118 33.8789 20.5978 34.0499 20.517C33.5678 20.4458 33.0738 20.4054 32.5726 20.3959C28.8748 20.3294 25.6685 21.9824 23.4146 24.583C23.3505 24.6567 23.2864 24.7327 23.2246 24.8087C21.2368 27.2122 20.0398 30.3709 19.978 33.7149C19.9756 33.8076 19.9756 33.8978 19.978 33.9881C19.9281 33.5795 19.9068 33.1615 19.9163 32.7364C19.978 29.3924 21.175 26.2313 23.1629 23.8302C23.227 23.7542 23.2888 23.6782 23.3529 23.6045C25.6044 21.0039 28.813 19.3509 32.5109 19.4198C36.0354 19.4839 39.0564 21.0942 41.1963 23.5665C42.8991 25.5259 44.0439 28.0292 44.4476 30.7367Z" fill="white"/>
</g>
<path d="M42.1326 39.51C39.3063 42.892 34.7131 44.811 32.0293 44.7611C29.2078 44.7088 24.3604 42.4098 21.7266 38.6003C25.0349 41.3292 29.4263 42.9252 32.2122 42.9775C34.8057 43.0226 38.8384 41.7852 42.1326 39.51Z" fill="#32CC17"/>
<path d="M29.5591 44.407C24.4054 43.0865 19.4891 38.441 19.4844 32.8574C19.4749 25.6635 24.9801 18.7998 32.4946 18.9446C39.0829 19.004 44.1701 24.6185 44.9159 30.9408C45.3861 34.2634 44.6119 37.1846 42.4198 39.7378C40.3939 42.0914 37.6294 43.8346 34.5918 44.4854C34.4801 44.5091 34.3685 44.4355 34.3471 44.3239C34.3258 44.2218 34.3851 44.1196 34.4801 44.0864C35.8766 43.5663 37.209 42.8941 38.4511 42.0795C40.8879 40.493 43.0586 38.232 43.8495 35.3891C44.5976 32.6555 43.9991 29.3733 42.8021 26.8463C40.2276 21.2911 34.0241 18.3818 28.2149 20.657C23.3746 22.5618 20.375 27.7606 20.3513 32.8621C20.3014 37.415 23.8948 41.0013 27.6686 43.0485C28.3194 43.4071 28.9939 43.7254 29.6874 44.0128C29.9201 44.1078 29.8061 44.4664 29.5591 44.407Z" fill="#371944"/>
<path d="M23.048 31.993C22.2904 32.9406 21.9199 35.2871 23.8816 37.5695C25.8434 39.8519 29.0829 39.8305 29.907 38.6976C30.5411 37.8284 30.7763 35.6077 28.8145 33.3277C26.8528 31.0454 23.8246 31.0216 23.048 31.993Z" fill="#371944"/>
<g opacity="0.7">
<path d="M30.316 37.6594C30.202 36.7166 29.7697 35.6051 28.8007 34.4769C26.839 32.1946 23.8109 32.1732 23.0342 33.1422C22.7777 33.4628 22.5664 33.9426 22.4737 34.5268C22.3502 33.4272 22.6447 32.5033 23.0556 31.9927C23.8322 31.0237 26.8604 31.0451 28.8221 33.3274C30.2257 34.9614 30.5036 36.5622 30.316 37.6594Z" fill="white"/>
</g>
<g opacity="0.35">
<path d="M29.9149 38.6978C29.0908 39.8306 25.8513 39.8496 23.8895 37.5696C22.455 35.9 22.2674 34.1971 22.5667 33.031C22.7305 33.8694 23.1414 34.7885 23.9252 35.6981C25.8869 37.9805 29.1264 37.9591 29.9505 36.8263C30.0812 36.6458 30.1952 36.4083 30.2759 36.1256C30.5087 37.2633 30.2759 38.2014 29.9149 38.6978Z" fill="#101928"/>
</g>
<path d="M41.5045 32.3325C42.2265 33.3063 42.5115 35.667 40.4666 37.8734C38.4218 40.0822 35.1846 39.942 34.4033 38.7783C33.8024 37.8853 33.648 35.6599 35.6929 33.4512C37.7378 31.2448 40.7635 31.335 41.5045 32.3325Z" fill="#371944"/>
<g opacity="0.7">
<path d="M41.9948 34.8784C41.9236 34.2894 41.7288 33.8001 41.4842 33.47C40.7432 32.4725 37.7174 32.3822 35.6726 34.591C34.6584 35.6859 34.1858 36.7855 34.0386 37.7236C33.8937 36.6193 34.2309 35.0328 35.6939 33.4534C37.7388 31.247 40.7669 31.3349 41.5056 32.3324C41.8951 32.8572 42.1587 33.7859 41.9948 34.8784Z" fill="white"/>
</g>
<g opacity="0.35">
<path d="M40.4656 37.8734C38.4208 40.0798 35.1836 39.942 34.4023 38.7783C34.0603 38.2677 33.8632 37.3224 34.1363 36.1943C34.2075 36.4817 34.312 36.7239 34.4355 36.9092C35.2193 38.0729 38.454 38.2107 40.4989 36.0043C41.3135 35.1232 41.76 34.2207 41.9548 33.3894C42.2113 34.565 41.9595 36.2608 40.4656 37.8734Z" fill="#101928"/>
</g>
<path d="M27.8995 39.8636C26.6122 39.8636 24.8547 39.3363 23.5675 37.8401C21.4062 35.325 21.9026 32.76 22.7243 31.734C23.0996 31.2661 23.824 30.9882 24.7146 30.9716C26.3343 30.9407 27.9826 31.7221 29.1297 33.0568C31.2601 35.534 30.9442 37.9802 30.2436 38.9421C29.847 39.486 29.0608 39.8208 28.0823 39.8612C28.0253 39.8612 27.9636 39.8636 27.8995 39.8636ZM24.793 31.8005C24.7716 31.8005 24.7526 31.8005 24.7312 31.8005C24.109 31.8123 23.5888 31.9833 23.3751 32.2517C22.6721 33.1305 22.4631 35.2775 24.1992 37.2986C25.3558 38.6428 26.9518 39.0751 28.0515 39.03C28.7521 39.0015 29.3363 38.7806 29.5738 38.4528C30.037 37.814 30.3861 35.7905 28.5003 33.5983C27.3603 32.2707 25.8498 31.8005 24.793 31.8005Z" fill="#371944"/>
<path d="M36.5482 40.0223C36.4224 40.0223 36.3012 40.0176 36.1849 40.0081C35.2087 39.9321 34.4345 39.5687 34.0592 39.0106C33.3966 38.0249 33.1686 35.5668 35.3892 33.1704C36.5839 31.8784 38.2606 31.1636 39.878 31.2491C40.7662 31.2966 41.4811 31.6006 41.8397 32.0827C42.6235 33.1396 43.0249 35.7212 40.7734 38.1532C39.4932 39.5378 37.8165 40.0223 36.5482 40.0223ZM39.6357 32.0732C38.586 32.0732 37.1372 32.5054 35.9996 33.7333C34.0355 35.8542 34.3086 37.8919 34.7504 38.5451C34.976 38.8799 35.5507 39.1222 36.2514 39.1768C37.3534 39.2623 38.9589 38.8894 40.1654 37.5879C41.9751 35.6333 41.8445 33.4792 41.1747 32.5743C40.9705 32.2988 40.4575 32.1088 39.8352 32.0732C39.7711 32.0756 39.7046 32.0732 39.6357 32.0732Z" fill="#371944"/>
<path d="M32.1211 38.6075C32.2161 38.7809 32.2161 38.9638 32.1211 39.016C32.0261 39.0683 31.8694 38.9733 31.7744 38.7999C31.6794 38.6265 31.6794 38.4437 31.7744 38.3914C31.8717 38.3368 32.0261 38.4342 32.1211 38.6075Z" fill="#371944"/>
<path d="M32.4406 38.6122C32.3385 38.7808 32.3314 38.9637 32.4264 39.0207C32.5214 39.0777 32.6781 38.9851 32.7803 38.8165C32.8824 38.6478 32.8895 38.4649 32.7945 38.4079C32.6995 38.3509 32.5428 38.4436 32.4406 38.6122Z" fill="#371944"/>
<path d="M40.0625 24.4663C40.1124 24.3855 42.7177 22.7848 44.9099 23.8963C46.7505 24.8273 46.8954 27.6678 46.9215 27.9148C47.292 28.3613 47.235 29.1593 46.4489 29.1878C45.8219 29.2115 45.6152 28.423 45.9881 27.929C46.0095 27.6559 45.297 22.6684 40.8819 25.6229L40.0625 24.4663Z" fill="#62ED2E"/>
<path d="M39.9567 24.4049C39.9757 24.3788 39.9947 24.3598 40.016 24.3455C40.1752 24.222 40.3485 24.1246 40.5243 24.0296C41.8258 23.3409 43.4004 23.0013 44.823 23.5855C46.2789 24.184 46.9059 25.818 47.103 27.2715C47.1339 27.452 47.1482 27.7038 47.1648 27.889L47.1102 27.7584C47.2265 27.8985 47.3073 28.0576 47.35 28.231C47.4498 28.5896 47.3524 29.0361 47.0223 29.257C46.5188 29.6061 45.7683 29.428 45.6044 28.8105C45.4975 28.4543 45.5735 28.0743 45.792 27.7821L45.7445 27.9104C45.7445 27.9151 45.7445 27.9175 45.7422 27.908C45.5902 26.8606 45.1555 25.6138 44.1794 25.096C43.1297 24.5806 41.8899 25.1554 40.9494 25.7254C40.8924 25.761 40.8164 25.742 40.7808 25.685C40.7475 25.6304 40.7618 25.5591 40.814 25.5211C41.3128 25.1649 41.8472 24.8419 42.4528 24.6471C44.6805 23.8919 46.0438 25.8536 46.2338 27.8558C46.2385 27.927 46.2362 28.0196 46.1839 28.0766C46.058 28.2405 46.0153 28.4756 46.0747 28.6656C46.1649 29.0741 46.8085 28.9981 46.8822 28.649C46.932 28.4685 46.8679 28.2286 46.7349 28.0695C46.704 28.0315 46.685 27.9864 46.6803 27.9389C46.6565 27.7608 46.6375 27.5138 46.6043 27.3404C46.4167 26.2241 46.0438 25.0153 45.1104 24.3099C43.6688 23.3171 41.7165 23.7233 40.2559 24.4856L40.1942 24.5213L40.168 24.5379L40.1562 24.545C40.1562 24.545 40.168 24.5331 40.168 24.526C40.0825 24.6685 39.8735 24.5426 39.9567 24.4049Z" fill="#371944"/>
<path d="M24.4601 24.4711C24.4102 24.3904 21.8048 22.792 19.6127 23.9035C17.7721 24.8369 17.6296 27.675 17.6034 27.922C17.2329 28.3685 17.2899 29.1665 18.0761 29.195C18.7031 29.2187 18.9097 28.4302 18.5368 27.9362C18.5131 27.6631 19.2256 22.6756 23.6407 25.6277L24.4601 24.4711Z" fill="#62ED2E"/>
<path d="M24.3564 24.5354C22.9694 23.7873 20.8699 23.2862 19.414 24.3193C18.6397 24.8988 18.2526 25.8488 18.0365 26.7703C17.9439 27.1503 17.8892 27.5588 17.8489 27.9483C17.8441 27.9982 17.8227 28.0433 17.7942 28.0789C17.6612 28.2381 17.5971 28.4779 17.647 28.6584C17.7206 29.0076 18.3642 29.0859 18.4545 28.6751C18.5139 28.4851 18.4687 28.2476 18.3452 28.0861C18.293 28.0243 18.293 27.9388 18.2954 27.8652C18.483 25.8631 19.8462 23.9013 22.074 24.6542C22.6796 24.8489 23.214 25.1719 23.7127 25.5282C23.8362 25.6184 23.7104 25.8132 23.5774 25.7324C22.6369 25.1601 21.3971 24.5877 20.3473 25.1031C19.3712 25.6232 18.9461 26.8511 18.787 27.8961L18.7846 27.9151C18.7846 27.9222 18.7846 27.9198 18.7822 27.9174L18.7347 27.7892C19.0672 28.2262 19.0696 28.9387 18.5922 29.2902C18.2502 29.5182 17.8465 29.4802 17.5045 29.2664C17.0105 28.9221 17.058 28.1858 17.4166 27.7678L17.362 27.8984C17.4665 26.4402 17.8797 24.8252 19.1219 23.9156C20.7535 22.8183 22.9385 23.3123 24.4727 24.3241C24.506 24.3502 24.5416 24.3716 24.5677 24.4119C24.6461 24.5473 24.4419 24.6708 24.3564 24.5354Z" fill="#371944"/>
<path d="M33.1932 40.0417C33.1932 40.5547 32.4783 40.728 32.2646 40.728C32.0508 40.728 31.3359 40.5523 31.3359 40.0417C31.3359 39.531 31.5734 40.2673 32.2646 40.2673C32.9533 40.2673 33.1932 39.5287 33.1932 40.0417Z" fill="#371944"/>
<path d="M38.0157 55.5907C38.0157 55.5907 40.1295 55.7118 40.9394 54.2369C41.2956 53.0542 41.3882 51.337 41.1555 49.779C40.823 47.5632 38.8684 45.9624 36.6335 46.1263C35.9376 46.1762 35.2607 46.3543 34.6979 46.6892C33.6671 47.2995 34.0495 48.8932 34.724 49.3967C34.724 49.3967 34.6242 51.014 34.6504 51.7147C34.686 52.7074 34.9496 55.6073 38.0157 55.5907Z" fill="white"/>
<path d="M38.1404 56.0086C38.0763 56.0086 38.0311 56.0062 38.0074 56.0062C38.0026 56.0062 37.9979 56.0062 37.9931 56.0062C35.706 56.0062 34.3356 54.4506 34.2359 51.7312C34.2145 51.1612 34.2715 50.0355 34.2976 49.5747C33.8796 49.1496 33.616 48.4324 33.6516 47.7769C33.6849 47.1451 33.9818 46.6321 34.4876 46.3352C35.0719 45.9885 35.8034 45.7747 36.6038 45.7177C39.0263 45.5396 41.2041 47.2995 41.5675 49.722C41.8074 51.318 41.7195 53.0945 41.3395 54.3604C41.33 54.3889 41.3205 54.415 41.3063 54.4411C40.5035 55.897 38.6771 56.0086 38.1404 56.0086ZM38.0406 55.1774C38.0691 55.1774 39.8694 55.2581 40.5558 54.0754C40.8859 52.9377 40.9619 51.2847 40.7458 49.8431C40.4418 47.8125 38.6866 46.397 36.6655 46.5442C35.9934 46.5941 35.3854 46.7675 34.9104 47.0501C34.6444 47.2069 34.4995 47.4681 34.4805 47.822C34.452 48.3421 34.7133 48.8741 34.9721 49.0665C35.0838 49.1496 35.1455 49.285 35.1384 49.4251C35.1384 49.4417 35.041 51.0306 35.0648 51.7027C35.1241 53.2892 35.6799 55.1774 37.9931 55.1774C38.0003 55.1774 38.0098 55.1774 38.0169 55.1774C38.024 55.1774 38.0335 55.175 38.0406 55.1774Z" fill="#371944"/>
<path d="M26.4629 55.5904C26.4629 55.5904 24.3492 55.7115 23.5393 54.2367C23.183 53.0539 23.0904 51.3368 23.3232 49.7788C23.6557 47.5629 25.6103 45.9622 27.8452 46.126C28.541 46.1759 29.2179 46.354 29.7808 46.6889C30.8115 47.2993 30.4292 48.8929 29.7547 49.3964C29.7547 49.3964 29.8544 51.0138 29.8283 51.7144C29.7927 52.7072 29.529 55.607 26.4629 55.5904Z" fill="white"/>
<path d="M26.3395 56.0085C25.8027 56.0085 23.9787 55.8968 23.176 54.4362C23.1617 54.4101 23.1498 54.384 23.1427 54.3555C22.7627 53.0896 22.6748 51.3131 22.9147 49.7171C23.2781 47.2946 25.4607 45.5347 27.8785 45.7128C28.6788 45.7722 29.4103 45.986 29.9946 46.3303C30.5005 46.6296 30.7973 47.1426 30.8306 47.772C30.8662 48.4275 30.6026 49.1447 30.1846 49.5698C30.2107 50.0306 30.2677 51.1563 30.2463 51.7263C30.1442 54.4433 28.7762 56.0013 26.4891 56.0013C26.4843 56.0013 26.4796 56.0013 26.4748 56.0013C26.4487 56.0061 26.4036 56.0085 26.3395 56.0085ZM23.9241 54.0752C24.6128 55.2603 26.4202 55.1772 26.4392 55.1772C26.4463 55.1772 26.4582 55.1772 26.4653 55.1772C26.4725 55.1772 26.4796 55.1772 26.4867 55.1772C28.7976 55.1772 29.3557 53.2891 29.4151 51.7026C29.4388 51.0305 29.3438 49.4416 29.3415 49.425C29.332 49.2848 29.3961 49.1518 29.5077 49.0663C29.7666 48.874 30.0278 48.342 29.9993 47.8218C29.9803 47.4656 29.8355 47.2067 29.5695 47.05C29.0945 46.7697 28.4888 46.594 27.8143 46.5441C25.7908 46.3968 24.0381 47.8147 23.7341 49.843C23.518 51.2846 23.594 52.9376 23.9241 54.0752Z" fill="#371944"/>
<path d="M10.7029 8.62671C11.261 7.71471 11.5342 6.62221 11.4178 5.47746C11.1328 2.69871 8.64854 0.677584 5.86979 0.962584C3.09104 1.24758 1.06992 3.73184 1.35492 6.51059C1.63992 9.28934 4.12417 11.3105 6.90292 11.0255C7.67479 10.9471 8.38967 10.6953 9.01192 10.3177L11.3513 10.8426L10.7029 8.62671Z" fill="#FF0068"/>
<g opacity="0.5">
<path d="M5.96579 1.92951C8.56167 1.66351 10.8987 3.40913 11.4283 5.90526C11.4283 5.72713 11.4212 5.54663 11.4022 5.36613C11.1172 2.58738 8.63292 0.566256 5.85417 0.851256C3.07542 1.13626 1.05429 3.62051 1.33929 6.39926C1.35829 6.58213 1.38679 6.76026 1.42479 6.93601C1.43667 4.38288 3.36992 2.19551 5.96579 1.92951Z" fill="white"/>
</g>
<path d="M6.37706 11.4648C5.12306 11.4648 3.91894 11.0373 2.93331 10.2369C1.80044 9.31539 1.09269 8.00439 0.943061 6.55089C0.634311 3.54889 2.82644 0.855637 5.82844 0.549262C8.83044 0.240512 11.5237 2.43264 11.8301 5.43464C11.9464 6.57464 11.7137 7.69326 11.1508 8.68364L11.7493 10.7261C11.7897 10.8663 11.7541 11.0206 11.6543 11.1275C11.5546 11.2344 11.4049 11.2819 11.2601 11.2486L9.07981 10.7594C8.42194 11.1323 7.70469 11.3603 6.94469 11.4386C6.75469 11.4553 6.56469 11.4648 6.37706 11.4648ZM6.38894 1.34964C6.22981 1.34964 6.07306 1.35676 5.91156 1.37339C3.36556 1.63701 1.50831 3.92176 1.76956 6.46776C1.89544 7.70039 2.49631 8.81189 3.45819 9.59326C4.42006 10.377 5.62894 10.738 6.86156 10.6098C7.55506 10.5385 8.20581 10.32 8.79719 9.96139C8.88981 9.90439 8.99906 9.88776 9.10356 9.91151L10.7566 10.282L10.3053 8.74539C10.2721 8.63376 10.2887 8.51264 10.3504 8.41289C10.8848 7.54126 11.1104 6.54139 11.0059 5.52251C10.7589 3.13326 8.73781 1.34964 6.38894 1.34964Z" fill="#371A45"/>
<g opacity="0.2">
<path d="M10.7308 8.57991C9.34622 9.75079 7.43672 10.2638 5.54146 9.79354C3.43959 9.27104 1.89109 7.67029 1.33534 5.72754C1.32109 5.98404 1.32822 6.24766 1.35434 6.51129C1.63934 9.29004 4.12359 11.3112 6.90234 11.0262C7.67421 10.9478 8.38909 10.696 9.01134 10.3184L11.3507 10.8433L10.7023 8.62979C10.7142 8.61079 10.7213 8.59416 10.7308 8.57991Z" fill="#371A45"/>
</g>
<path d="M8.00094 4.57292C7.56394 4.13592 6.85381 4.2143 6.41681 4.6513L6.34794 4.72017L6.27906 4.6513C5.84206 4.2143 5.13194 4.13592 4.69494 4.57292C4.25794 5.00992 4.25794 5.72005 4.69494 6.15705L4.76381 6.22592L6.13894 7.60105C6.25531 7.71742 6.44056 7.71742 6.55694 7.60105L7.93206 6.22592L8.00094 6.15705C8.43794 5.72005 8.43794 5.00992 8.00094 4.57292Z" fill="white"/>
</svg>
