<svg width="52" height="72" viewBox="0 0 52 72" fill="none" xmlns="http://www.w3.org/2000/svg">
<g opacity="0.25">
<path d="M22.7899 71.8944C35.1865 71.8944 45.236 70.6577 45.236 69.1322C45.236 67.6068 35.1865 66.3701 22.7899 66.3701C10.3932 66.3701 0.34375 67.6068 0.34375 69.1322C0.34375 70.6577 10.3932 71.8944 22.7899 71.8944Z" fill="#371A45"/>
</g>
<path d="M39.4746 69.764C37.3846 70.7972 33.1309 70.562 29.4829 69.2225L28.1102 62.5963L28.0769 62.4372L24.1511 56.1244L24.1131 56.0627L24.0608 55.9772L22.1276 60.0194L20.9899 62.3992L20.9139 62.5583L20.4437 67.617C20.3582 68.5243 19.5958 69.2178 18.6838 69.2178H9.94144C6.91807 68.9399 7.47144 64.8407 10.9983 64.3585C11.1622 63.1117 11.3261 61.8767 11.4923 60.663C12.2642 55.058 13.0836 49.9708 14.1024 46.926C14.1024 46.926 14.1238 44.5059 14.0811 44.247C14.0407 43.9882 9.20282 38.0863 9.20282 38.0863C9.18382 38.0483 9.16244 38.0103 9.14344 37.9699C7.43582 34.5262 10.0863 32.4267 10.0863 32.4267C12.1526 30.8259 14.6036 29.731 17.2066 29.0993C17.7172 28.9758 18.2326 28.8689 18.7527 28.781C20.1824 28.5364 21.6454 28.4272 23.0966 28.4438C27.8133 28.4937 32.4517 29.8783 35.7363 32.3673L33.9669 48.1563C35.3658 53.0084 36.6103 57.6587 37.2136 61.4492C37.2136 61.4492 37.2136 61.4492 37.2159 61.4492C37.4748 63.0879 37.6149 64.5652 37.5983 65.8287C38.9806 65.7479 40.2227 66.6338 40.3034 68.3343C40.3319 68.9375 40.0137 69.4957 39.4746 69.764Z" fill="#62ED2E"/>
<path d="M15.2188 34.2104C15.2188 34.2104 15.7769 36.3836 19.5341 35.7946V37.431L18.3728 37.6471L18.1994 39.2668L17.5985 39.4782L16.1498 38.5258L15.7365 36.2696" fill="#31C418"/>
<path d="M11.1078 36.7254L9.14371 37.9746C7.43609 34.5309 10.0866 32.4314 10.0866 32.4314C12.1528 30.8306 14.6038 29.7358 17.2068 29.104C17.3802 29.1824 17.48 29.2323 17.48 29.2323C9.57596 30.928 11.1078 36.7254 11.1078 36.7254Z" fill="#31C418"/>
<path d="M20.9899 62.4016L20.9139 62.5608L20.4437 67.6195C20.3582 68.5268 19.5958 69.2203 18.6838 69.2203H9.94144C6.91807 68.9424 7.47144 64.8431 10.9983 64.361C11.1622 63.1141 11.3261 61.8792 11.4923 60.6655C11.4923 60.6679 14.8031 63.3255 20.9899 62.4016Z" fill="#62ED2E"/>
<path d="M39.4738 69.7642C37.3838 70.7973 33.1301 70.5622 29.4821 69.2227L28.1094 62.5964C28.1094 62.5964 33.8735 64.285 37.2175 61.4517C37.2175 61.4517 37.2175 61.4517 37.2199 61.4517C37.4788 63.0904 37.6189 64.5677 37.6023 65.8312C38.9845 65.7504 40.2266 66.6363 40.3074 68.3368C40.3311 68.9377 40.0129 69.4958 39.4738 69.7642Z" fill="#62ED2E"/>
<path d="M39.4754 69.7643C37.3854 70.7974 33.1318 70.5623 29.4838 69.2228L28.1111 62.5966L28.0778 62.4375L24.1519 56.1247C24.1448 56.0392 24.1424 55.9965 24.1424 55.9965C24.1424 55.9965 24.1329 56.0202 24.1139 56.0653C23.8764 56.6638 22.1569 60.9863 22.1973 60.6681C22.2068 60.5921 22.1926 60.3617 22.1284 60.0221C21.9076 58.8512 21.0977 56.3598 18.6324 54.1155L17.4141 53.2415C22.0002 54.5216 26.7312 54.9253 31.6379 54.2271C31.6379 54.2271 29.6904 56.5973 30.8922 63.055C32.0916 69.5149 34.1507 69.8855 40.3043 68.3346C40.3328 68.9378 40.0146 69.4959 39.4754 69.7643Z" fill="#31C418"/>
<g opacity="0.7">
<path d="M23.0829 56.1888L23.5769 56.9821L22.1234 60.0221L20.9858 62.4018L20.9098 62.5609L20.4396 67.6197C20.3541 68.5269 19.5917 69.2204 18.6797 69.2204H18.0859C18.7771 69.0304 19.3043 68.4296 19.3756 67.6838L19.8458 62.6251L19.9218 62.4659L21.0594 60.0862L22.9927 56.0439L23.0449 56.1294L23.0829 56.1888Z" fill="white"/>
</g>
<g opacity="0.7">
<path d="M39.4756 69.7638C38.6538 70.1699 37.4948 70.3813 36.1672 70.4051C37.0483 70.3124 37.8178 70.1201 38.4116 69.8279C38.9507 69.5619 39.2689 69.0038 39.2404 68.4029C39.1597 66.7048 37.9176 65.8166 36.5353 65.8973C36.5543 64.6338 36.4142 63.1566 36.1529 61.5178C36.1506 61.5178 36.1506 61.5178 36.1506 61.5178C35.5473 57.7273 34.3028 53.0794 32.9039 48.2249L34.6733 32.4359C31.3863 29.9469 26.7479 28.5647 22.0336 28.5125C21.6203 28.5077 21.2047 28.5148 20.7891 28.5291C21.5562 28.4673 22.3257 28.4388 23.0952 28.4483C27.8119 28.4982 32.4503 29.8828 35.7349 32.3718L33.9656 48.1608C35.3644 53.0129 36.6089 57.6632 37.2122 61.4537C37.2122 61.4537 37.2122 61.4537 37.2146 61.4537C37.4734 63.0924 37.6136 64.5697 37.5969 65.8332C38.9792 65.7524 40.2213 66.6383 40.3021 68.3388C40.3329 68.9373 40.0147 69.4954 39.4756 69.7638Z" fill="white"/>
</g>
<path d="M14.1207 44.5085L13.9141 46.8693C13.9141 46.8693 18.5999 50.389 32.2396 49.2704V43.682L14.2466 42.3782" fill="#62ED2E"/>
<path d="M16.1484 45.1305C16.3147 45.1305 23.7674 47.6148 31.6334 46.7455V45.1305C31.6334 45.1305 20.6609 45.2588 16.8514 43.4158" fill="#62ED2E"/>
<path d="M29.4426 49.4912C25.8254 50.548 21.4507 50.1965 18.9379 49.8426C18.1684 49.7334 17.4156 50.1253 17.0617 50.8164C16.4988 51.9184 15.8647 53.5595 15.2828 55.9963C13.7509 62.3969 13.3947 64.9453 13.3947 64.9453C13.3947 64.9453 7.49756 67.572 14.1024 69.0208C14.3613 69.0778 14.6036 69.1443 14.8316 69.2226H9.94144C6.91807 68.9448 7.47144 64.8455 10.9983 64.3634C11.1622 63.1165 11.3261 61.8815 11.4923 60.6679C12.2642 55.0629 13.0836 49.9757 14.1024 46.9309C14.1024 46.9309 14.1238 44.5108 14.0811 44.2519L19.1018 42.5562L22.4862 43.4135C22.4862 43.4135 20.6242 47.812 22.4862 49.085L18.7004 48.667C18.7004 48.667 18.6173 48.7074 18.4724 48.8309C21.9756 49.4294 25.6188 49.6764 29.4426 49.4912Z" fill="#31C418"/>
<path d="M35.9019 70.8423C33.8712 70.8423 31.5105 70.429 29.3326 69.631C29.1925 69.5788 29.088 69.4576 29.0571 69.3104L27.6654 62.601L24.11 56.882L21.3384 62.6794L20.8729 67.6621C20.766 68.7998 19.8255 69.6595 18.6807 69.6595H9.93837C9.92412 69.6595 9.91224 69.6595 9.89799 69.6571C8.49437 69.5289 7.56812 68.6169 7.53962 67.3368C7.51112 65.9878 8.57275 64.4084 10.6057 63.9904C11.5177 57.0601 12.4416 50.5621 13.6671 46.8595C13.6766 45.8193 13.6742 44.6816 13.6552 44.3776C13.299 43.8243 10.5654 40.4399 8.86487 38.3665C8.84587 38.3428 8.82925 38.319 8.815 38.2905C6.8485 34.5048 9.78637 32.1155 9.81487 32.0918C13.2966 29.3938 18.0371 27.9474 23.1624 28.0163C28.0406 28.0828 32.7194 29.5434 35.9992 32.0253C36.1204 32.1179 36.1869 32.2675 36.1679 32.4195L34.408 48.123C36.2676 54.5759 37.9776 61.1071 38.0299 65.4035C38.6901 65.4558 39.2957 65.7051 39.766 66.1303C40.3574 66.6623 40.6922 67.4175 40.735 68.3176C40.773 69.0943 40.3502 69.8139 39.6639 70.1535C38.7305 70.6166 37.4052 70.8423 35.9019 70.8423ZM29.8599 68.8948C33.3369 70.1179 37.3506 70.3293 39.2815 69.3721C39.6591 69.1845 39.8919 68.7855 39.8705 68.3556C39.8396 67.693 39.6021 67.1468 39.1889 66.7739C38.7851 66.4105 38.2294 66.23 37.6237 66.2656C37.5026 66.2728 37.3839 66.23 37.2984 66.1469C37.2105 66.0638 37.163 65.9474 37.1654 65.8263C37.2295 61.6391 35.4672 54.9203 33.553 48.2821C33.5364 48.2275 33.5316 48.1705 33.5387 48.1135L35.2796 32.5739C29.2281 28.1588 17.612 27.1518 10.354 32.7781C10.2614 32.8541 7.97899 34.7375 9.56787 37.8511C14.4509 43.81 14.4889 44.0428 14.5102 44.1829C14.553 44.456 14.5411 46.3584 14.5364 46.9355C14.5364 46.9806 14.5292 47.0258 14.515 47.0709C13.2847 50.745 12.3537 57.3736 11.4275 64.4226C11.4014 64.6174 11.2494 64.7694 11.0546 64.7979C9.30662 65.0378 8.3875 66.2751 8.41125 67.3201C8.43025 68.149 9.00737 68.6976 9.96212 68.7926H18.6831C19.3742 68.7926 19.9442 68.2725 20.0084 67.5861L20.481 62.5274C20.4857 62.4775 20.5 62.4276 20.5214 62.3801L23.6682 55.7966C23.7371 55.6541 23.8772 55.5591 24.0364 55.5496C24.1955 55.5401 24.3451 55.6185 24.4306 55.7539L28.4467 62.2139C28.4729 62.2566 28.4919 62.3041 28.5037 62.354L29.8599 68.8948Z" fill="#371A45"/>
<path d="M17.1172 52.9944C20.4517 55.2435 24.5319 56.1389 28.4507 55.1889C29.7427 54.8968 30.9991 54.4336 32.2436 53.866C31.1938 54.7424 29.9564 55.4098 28.6359 55.8468C24.6863 57.2076 19.9149 56.1389 17.1172 52.9944Z" fill="#371A45"/>
<path d="M18.4084 63.0336C13.8057 63.0336 11.338 61.1027 11.2169 61.0077C11.0293 60.8581 11.0008 60.585 11.1504 60.3973C11.3 60.2097 11.5732 60.1812 11.7608 60.3308C11.8083 60.3665 15.0359 62.8554 20.9235 61.9743C21.161 61.9387 21.3819 62.1026 21.4175 62.3401C21.4532 62.5776 21.2893 62.7984 21.0518 62.8341C20.1042 62.9718 19.223 63.0336 18.4084 63.0336Z" fill="#371A45"/>
<path d="M31.9033 63.5366C29.8157 63.5366 28.1152 63.0521 27.9846 63.0117C27.7542 62.9452 27.6212 62.7029 27.6901 62.4726C27.7566 62.2422 27.9988 62.1092 28.2292 62.1781C28.2838 62.1947 33.8128 63.7646 36.9336 61.1188C37.1164 60.9644 37.3919 60.9858 37.5463 61.1687C37.7007 61.3516 37.6793 61.6271 37.4964 61.7814C35.8672 63.1637 33.7368 63.5366 31.9033 63.5366Z" fill="#371A45"/>
<path d="M10.9361 63.9336C12.1212 63.9645 13.2019 64.6271 14.1067 65.3372L13.7244 65.1757C12.8884 64.867 11.9479 64.6033 11.0667 64.7933C10.4967 64.8622 10.3709 64.0381 10.9361 63.9336Z" fill="#371A45"/>
<path d="M37.5892 66.2659C36.4302 66.14 35.2451 66.4107 34.1953 66.9071C34.6703 66.52 35.1952 66.1875 35.7604 65.9334C36.3613 65.6674 37.0026 65.4536 37.6652 65.3919C38.3421 65.3871 38.2566 66.3894 37.5892 66.2659Z" fill="#371A45"/>
<path d="M27.0896 49.9254C17.3854 49.9254 13.8205 47.3438 13.6495 47.2155C13.5284 47.1253 13.4643 46.9804 13.4785 46.8308L13.6851 44.47C13.7065 44.2301 13.9179 44.0544 14.1554 44.0758C14.3953 44.0971 14.571 44.3085 14.5496 44.546L14.3644 46.6455C15.3619 47.244 20.3043 49.7449 31.7969 48.8685V44.0853L14.2076 42.8099C13.9678 42.7933 13.7873 42.5843 13.8063 42.3444C13.8229 42.1045 14.0319 41.924 14.2718 41.943L32.2648 43.2469C32.4928 43.2635 32.6685 43.4535 32.6685 43.6815V49.2699C32.6685 49.4955 32.4951 49.6855 32.2695 49.7021C30.3766 49.8589 28.6548 49.9254 27.0896 49.9254Z" fill="#371A45"/>
<path d="M28.1455 47.3035C24.4334 47.3035 20.4244 46.7169 16.3608 45.5698C16.2468 45.5389 16.1399 45.508 16.1019 45.4985C15.9214 45.4724 15.7812 45.318 15.7812 45.1304C15.7812 44.9238 15.9475 44.7575 16.1541 44.7575C16.223 44.7575 16.2634 44.7694 16.5626 44.8525C21.7354 46.3131 26.8084 46.8475 31.2663 46.4081V45.5033C29.2689 45.508 20.1821 45.4368 16.6956 43.7481C16.5104 43.6579 16.432 43.4346 16.5223 43.2494C16.6125 43.0641 16.8358 42.9881 17.021 43.076C20.707 44.862 31.5275 44.7551 31.6344 44.7551C31.7389 44.7551 31.8291 44.7931 31.9004 44.862C31.9716 44.9309 32.012 45.0283 32.012 45.128V46.743C32.012 46.933 31.8695 47.0921 31.6795 47.1135C30.5395 47.2418 29.3591 47.3035 28.1455 47.3035Z" fill="#371A45"/>
<path d="M46.1542 48.4957C45.1258 52.0582 42.7413 54.2242 39.4709 55.4805C39.4567 55.4758 39.4424 55.4734 39.4282 55.4687C39.3973 55.4615 39.3664 55.4544 39.3355 55.4449C36.1388 54.6445 33.5168 53.0794 31.6714 50.4764C30.7357 49.1583 30.2417 47.5789 30.1942 45.9615L29.8522 33.8989C29.8427 33.5807 29.9472 33.2862 30.13 33.0511C30.3628 32.7494 30.7214 32.5499 31.1323 32.5333L44.5629 32.0488C44.9405 32.0345 45.2873 32.1818 45.539 32.4288L45.5414 32.4312C45.7742 32.6592 45.9238 32.9727 45.9357 33.3218L46.4582 45.8974C46.4914 46.7738 46.3988 47.6525 46.1542 48.4957Z" fill="#28BDF7"/>
<g opacity="0.25">
<path d="M39.4187 55.2621C39.4187 55.2621 39.3902 55.331 39.3355 55.4473C36.1388 54.647 33.5168 53.0818 31.6714 50.4788C30.7357 49.1607 30.2417 47.5813 30.1942 45.964L29.8522 33.9013C29.8427 33.5831 29.9472 33.2886 30.13 33.0535L32.2414 34.8585L32.5454 45.6053C32.5454 45.6053 32.6523 50.543 39.307 53.184L39.4187 55.2621Z" fill="#371A45"/>
</g>
<g opacity="0.45">
<path d="M46.1542 48.4961C45.1258 52.0586 42.7413 54.2246 39.4709 55.481C39.4567 55.4763 39.4424 55.4739 39.4282 55.4691L39.3047 53.182C42.0526 51.9446 43.5844 49.3963 44.2518 45.9169L43.6153 34.448L45.5319 32.4316L45.5343 32.434C45.7671 32.662 45.9167 32.9755 45.9286 33.3246L46.4511 45.9003C46.4914 46.7743 46.3988 47.653 46.1542 48.4961Z" fill="white"/>
</g>
<path d="M39.3078 52.9936C36.7951 52.255 34.9236 50.9796 33.5983 49.1129C32.9499 48.1985 32.5889 47.087 32.5557 45.8971L32.2422 34.8581L43.6208 34.4473L44.1006 45.9945C44.1267 46.6429 44.0554 47.2628 43.8892 47.8399C43.1981 50.2434 41.7327 51.8964 39.3078 52.9936Z" fill="#FEDA24"/>
<g opacity="0.25">
<path d="M43.7894 48.1635C43.0627 50.3912 41.6234 51.9469 39.3078 52.9942C36.7951 52.2532 34.9212 50.9802 33.5983 49.1135C32.9499 48.1991 32.5889 47.0852 32.5557 45.8977L32.2422 34.8587L32.6412 34.8445L32.9286 44.9454C32.9618 46.1352 33.3228 47.2467 33.9712 48.1611C35.2964 50.0279 37.1679 51.3032 39.6807 52.0419C41.6519 51.1512 42.9867 49.8925 43.7894 48.1635Z" fill="#371A45"/>
</g>
<g opacity="0.7">
<path d="M43.8892 47.8431C43.4569 49.3417 42.7231 50.5482 41.6448 51.5101C42.3454 50.6859 42.8489 49.7122 43.1791 48.5674C43.3453 47.9903 43.4166 47.3681 43.3904 46.7221L42.9297 35.6189C42.9202 35.3743 42.7136 35.1819 42.4666 35.1914L32.2612 35.5596L32.2422 34.8613L43.6208 34.4504L44.1006 45.9977C44.1267 46.6437 44.0554 47.2659 43.8892 47.8431Z" fill="white"/>
</g>
<path d="M39.4991 55.9368L39.3661 55.9059C35.8535 55.0509 33.1436 53.3101 31.3148 50.7308C30.3458 49.3652 29.8067 47.7217 29.7568 45.9784L29.4148 33.9158C29.3863 32.9516 30.1487 32.1393 31.113 32.1061L44.5436 31.6216C45.5078 31.5859 46.3272 32.3436 46.3676 33.3078L46.8901 45.8834C46.9305 46.8311 46.8236 47.7526 46.5718 48.6194C45.5672 52.1012 43.2967 54.4786 39.6273 55.8893L39.4991 55.9368ZM31.1438 32.9729C30.657 32.9896 30.2698 33.4028 30.2841 33.8897L30.6261 45.9523C30.6712 47.5222 31.1533 48.9994 32.0226 50.2273C33.7278 52.6332 36.1551 54.2031 39.4397 55.0272C42.7623 53.7162 44.8238 51.5383 45.7358 48.3772C45.9591 47.6006 46.0565 46.7717 46.0208 45.9191L45.4983 33.3434C45.477 32.8542 45.0661 32.4718 44.5745 32.4884L31.1438 32.9729Z" fill="#371A45"/>
<path d="M39.3019 53.3672C39.1071 53.3672 38.9433 53.2152 38.9314 53.0181L37.7819 34.6688C37.77 34.4646 37.9244 34.2865 38.131 34.2746C38.3353 34.2603 38.5134 34.4171 38.5253 34.6237L39.6748 52.973C39.6866 53.1772 39.5323 53.3553 39.3256 53.3672C39.3185 53.3672 39.309 53.3672 39.3019 53.3672Z" fill="#371A45"/>
<path d="M39.3058 53.3669C39.2702 53.3669 39.2345 53.3621 39.2013 53.3526C36.603 52.5879 34.6722 51.2721 33.2923 49.3294C32.6012 48.3556 32.2164 47.1729 32.1808 45.9094L31.8673 34.8704C31.8625 34.6661 32.0217 34.4951 32.2259 34.488L43.6045 34.0771C43.8088 34.07 43.9822 34.2291 43.9893 34.4334L44.469 45.9806C44.4975 46.667 44.4215 47.3296 44.2434 47.9448C43.5143 50.4718 41.9943 52.1841 39.4578 53.3336C39.4103 53.355 39.358 53.3669 39.3058 53.3669ZM32.6225 35.2171L32.9242 45.8856C32.955 46.9995 33.2923 48.0421 33.8979 48.8948C35.1519 50.6618 36.9118 51.873 39.2749 52.595C41.5217 51.5453 42.8754 49.9968 43.5262 47.7381C43.6805 47.199 43.747 46.6195 43.7233 46.0115L43.2578 34.8348L32.6225 35.2171Z" fill="#371A45"/>
<path d="M11.3083 43.682H9.78594C9.42494 43.682 9.13281 43.3898 9.13281 43.0288V40.5137C9.13281 40.1527 9.42494 39.8606 9.78594 39.8606H11.3083C11.6693 39.8606 11.9614 40.1527 11.9614 40.5137V43.0288C11.9614 43.3898 11.6693 43.682 11.3083 43.682Z" fill="#FEDA24"/>
<path d="M11.3054 44.1164H9.78306C9.18456 44.1164 8.69531 43.6295 8.69531 43.0287V40.5135C8.69531 39.915 9.18219 39.4258 9.78306 39.4258H11.3054C11.9039 39.4258 12.3932 39.9127 12.3932 40.5135V43.0287C12.3932 43.6295 11.9063 44.1164 11.3054 44.1164ZM9.78544 40.2974C9.66669 40.2974 9.56694 40.3948 9.56694 40.5159V43.0287C9.56694 43.1474 9.66431 43.2472 9.78544 43.2472H11.3078C11.4266 43.2472 11.5263 43.1498 11.5263 43.0287V40.5135C11.5263 40.3948 11.4289 40.295 11.3078 40.295H9.78544V40.2974Z" fill="#371A45"/>
<path d="M18.3264 39.8629V41.4613C18.1412 41.789 17.4976 41.8817 17.4976 41.8817C18.0984 43.6819 18.0462 44.7697 18.0462 44.7697C14.2272 47.6363 11.2774 46.0427 10.2514 40.4543L9.13281 38.1553C9.74556 37.5758 10.4034 37.0984 11.1088 36.7279C12.3889 36.051 13.8258 35.7304 15.4361 35.7969L16.3979 39.0578C17.7066 39.0554 18.3264 39.8629 18.3264 39.8629Z" fill="#62ED2E"/>
<path d="M18.3264 40.2072V41.4612C18.1412 41.7889 17.4976 41.8815 17.4976 41.8815C18.0984 43.6818 18.0462 44.7695 18.0462 44.7695C14.2272 47.6362 11.2774 46.0425 10.2514 40.4542L9.13281 38.1552C9.74556 37.5757 10.4034 37.0983 11.1088 36.7278L12.2678 39.9792C12.9209 43.4158 15.9989 45.8003 17.1128 41.9457C17.1128 41.9457 16.1509 41.6892 16.0037 40.979C15.8588 40.2689 18.0343 41.131 18.2386 40.3259C18.2599 40.2594 18.2884 40.2214 18.3264 40.2072Z" fill="#31C418"/>
<path d="M14.6053 46.5983C14.1516 46.5983 13.7194 46.5199 13.3085 46.3584C11.6151 45.6958 10.4134 43.7008 9.8315 40.5896L8.739 38.3452C8.65588 38.1742 8.69388 37.9699 8.83163 37.8393C10.6841 36.0889 12.9119 35.2553 15.4508 35.3598C15.636 35.3669 15.7975 35.4928 15.8498 35.6709L16.7261 38.6349C18.0063 38.7561 18.638 39.5588 18.6665 39.5968C18.7259 39.6728 18.7568 39.7654 18.7568 39.8628V41.4612C18.7568 41.5372 18.7378 41.6108 18.6998 41.6773C18.5549 41.9314 18.2865 42.0882 18.0443 42.1808C18.5169 43.7768 18.4789 44.7458 18.4765 44.7886C18.4694 44.9168 18.4076 45.0379 18.3031 45.1163C16.9969 46.0996 15.7405 46.5983 14.6053 46.5983ZM9.66525 38.2549L10.6414 40.2618C10.658 40.2974 10.6699 40.3354 10.677 40.3734C11.1971 43.2092 12.216 44.9976 13.6244 45.5486C14.7216 45.9784 16.0968 45.6317 17.6049 44.5487C17.5883 44.1734 17.5004 43.2757 17.0824 42.0169C17.042 41.8958 17.0563 41.7604 17.1251 41.6512C17.1916 41.5419 17.3056 41.4683 17.4339 41.4493C17.5978 41.4256 17.7901 41.3567 17.8899 41.2949V40.0338C17.7023 39.8557 17.2154 39.4899 16.3984 39.4899C16.206 39.4899 16.035 39.3641 15.9804 39.1788L15.1064 36.2219C15.0755 36.2219 15.0423 36.2219 15.0114 36.2219C12.9665 36.2196 11.2114 36.8893 9.66525 38.2549Z" fill="#371A45"/>
<path d="M16.5286 39.4684L15.0703 39.4779L16.2626 38.6395C16.4692 38.4947 16.7518 38.5445 16.8967 38.7512C17.1152 39.0385 16.8848 39.4755 16.5286 39.4684Z" fill="#371A45"/>
<path d="M47.8613 41.6942L46.7759 42.5302L43.3916 45.1308L20.2282 43.3971L20.1641 43.3923V39.9961L20.2971 39.9866L43.3916 38.2576L47.6167 41.5066L47.8613 41.6942Z" fill="#BDBFC1"/>
<g opacity="0.7">
<path d="M47.6189 41.5066C47.417 41.5802 47.2959 41.6182 47.2959 41.6182H46.2865L42.9544 39.2432L37.0881 39.6446L36.1785 41.6182H34.2001L35.0718 39.7823L34.2001 39.8417L33.3523 41.6182L32.3168 41.6942L33.0601 39.9201L20.4109 40.7846L20.2969 39.9866L43.389 38.2576L47.6189 41.5066Z" fill="white"/>
</g>
<path d="M43.3979 45.5651C43.386 45.5651 43.3765 45.5651 43.3646 45.5627L20.1371 43.8242C19.8972 43.8052 19.7191 43.5986 19.7357 43.3587C19.7547 43.1189 19.9614 42.9407 20.2012 42.9574L43.2625 44.684L47.1527 41.6939L43.2625 38.7037L20.2012 40.4304C19.9614 40.447 19.7524 40.2689 19.7357 40.029C19.7167 39.7891 19.8972 39.5801 20.1371 39.5635L43.3646 37.825C43.4715 37.8179 43.5784 37.8487 43.6615 37.9129L48.1336 41.3495C48.2405 41.4326 48.3046 41.5585 48.3046 41.6939C48.3046 41.8292 48.2429 41.9551 48.1336 42.0382L43.6615 45.4749C43.5855 45.5342 43.4929 45.5651 43.3979 45.5651Z" fill="#371A45"/>
<path d="M43.3959 45.442C43.2772 45.442 43.1632 45.3731 43.1133 45.2567L41.5814 41.8201C41.5458 41.7393 41.5458 41.6467 41.5814 41.5683L43.1133 38.1317C43.1822 37.975 43.3674 37.9037 43.5242 37.9749C43.6809 38.0438 43.7522 38.2291 43.6809 38.3858L42.206 41.6966L43.6809 45.0073C43.7498 45.1641 43.6809 45.347 43.5242 45.4182C43.4814 45.4325 43.4387 45.442 43.3959 45.442Z" fill="#371A45"/>
<path d="M47.8701 42.0051H20.1705C19.9995 42.0051 19.8594 41.8649 19.8594 41.6939C19.8594 41.5229 19.9995 41.3828 20.1705 41.3828H47.8701C48.0411 41.3828 48.1812 41.5229 48.1812 41.6939C48.1812 41.8649 48.0411 42.0051 47.8701 42.0051Z" fill="#371A45"/>
<g opacity="0.25">
<path d="M46.8106 42.3565C46.8106 42.3565 46.8011 42.4182 46.7798 42.5298L43.3954 45.1305L20.2344 43.3967L20.3769 41.6938L41.5144 42.3565H46.8106Z" fill="#371A45"/>
</g>
<path d="M20.1688 37.8439V46.9117C20.1688 47.1397 19.9835 47.3249 19.7555 47.3249H18.7414C18.5134 47.3249 18.3281 47.1397 18.3281 46.9117V37.8439C18.3281 37.6159 18.5134 37.4307 18.7414 37.4307H19.7555C19.9835 37.4307 20.1688 37.6159 20.1688 37.8439Z" fill="#28BDF7"/>
<path d="M19.7526 47.7601H18.7385C18.2706 47.7601 17.8906 47.3801 17.8906 46.9122V37.8445C17.8906 37.3766 18.2706 36.9966 18.7385 36.9966H19.7526C20.2205 36.9966 20.6005 37.3766 20.6005 37.8445V46.9122C20.6005 47.3801 20.2205 47.7601 19.7526 47.7601ZM18.7575 46.8908H19.7312V37.8658H18.7575V46.8908Z" fill="#371A45"/>
<g opacity="0.25">
<path d="M20.1688 42.5229V46.912C20.1688 47.14 19.9835 47.3252 19.7555 47.3252H18.7414C18.5134 47.3252 18.3281 47.14 18.3281 46.912V42.8246L18.4303 42.5229C19.0098 43.5442 19.5893 43.5442 20.1688 42.5229Z" fill="#371A45"/>
</g>
<g opacity="0.25">
<path d="M9.3195 41.6938C9.65675 41.9622 9.99162 41.9622 10.3289 41.6938C10.3289 41.6938 11.0437 43.392 10.9654 43.4133C10.887 43.4347 9.20312 43.3207 9.20312 43.3207V42.7198" fill="#371A45"/>
</g>
<path d="M15.0028 35.8373L15.2189 33.6499L15.8697 35.7494C15.9433 35.9845 15.8103 36.2315 15.5775 36.3052C15.2807 36.4025 14.9672 36.146 15.0028 35.8373Z" fill="#371A45"/>
<path d="M15.7109 36.8157L19.0977 36.0747L16.0007 37.6351L15.7109 36.8157Z" fill="#371A45"/>
<path d="M18.7495 26.4151C20.7112 27.9541 23.0198 29.1416 25.2784 29.8731L28.9596 31.0368C34.1229 32.1056 37.6497 30.5642 39.9179 27.8923C42.5518 24.7882 43.4851 20.1617 43.3046 16.3451C42.8961 7.74284 36.2794 0.344713 27.6795 0.753213C19.0772 1.16171 13.1896 9.15121 13.5981 17.7511C13.7573 21.1782 15.8852 24.1707 18.7495 26.4151Z" fill="#62ED2E"/>
<path d="M18.75 26.4153C20.7118 27.9543 23.0203 29.1418 25.2789 29.8733L28.9601 31.037C34.1234 32.1058 37.6503 30.5644 39.9184 27.8925C38.5884 28.7594 36.0875 29.9754 32.4989 29.9873C28.4115 30.0015 22.7519 28.5813 18.75 26.4153Z" fill="#31C418"/>
<g opacity="0.6">
<path d="M20.4481 5.51492C20.2082 5.84267 20.118 6.15855 20.2201 6.41742C20.5051 7.1418 22.1818 7.1608 23.9655 6.46255C25.7491 5.76192 26.9627 4.60767 26.6777 3.88092C26.5352 3.51992 26.0483 3.3323 25.3715 3.3228C26.1481 3.14705 26.9556 3.0378 27.7868 2.99742C35.9925 2.60792 42.3931 9.32442 43.317 17.4113C43.3288 17.1073 43.3265 16.7985 43.3122 16.4874C42.9037 7.88517 36.2893 0.487047 27.6871 0.895547C19.0848 1.30405 13.1996 9.29355 13.6057 17.8934C13.62 18.2045 13.6485 18.5109 13.6888 18.8125C13.7933 13.4237 16.3465 8.40055 20.4481 5.51492Z" fill="white"/>
</g>
<path d="M25.2155 30.0605C24.2251 30.0106 23.3416 29.576 22.4605 29.1746C18.9763 27.5168 15.7131 24.9495 14.0743 21.3727C13.2288 19.5796 13.0673 17.5608 13.2265 15.6038C13.6397 8.83034 18.3327 2.17084 25.1608 0.698335C35.6441 -1.64816 44.1608 7.76871 43.7238 17.8815C43.5742 22.6481 41.8476 27.9776 37.4681 30.4642C35.6346 31.5021 33.4852 31.8773 31.4047 31.7562C30.5473 31.6992 29.6947 31.647 28.9086 31.229C28.7257 31.1292 28.8017 30.849 29.0036 30.849C29.8277 30.8015 30.6281 30.925 31.4451 30.9677C32.4782 31.02 33.5208 30.9463 34.5231 30.7183C40.2658 29.4905 42.7738 23.2038 42.8997 17.8577C43.3415 8.22946 35.3377 -0.757539 25.3342 1.46309C17.8672 3.09234 13.255 11.0771 14.053 18.4253C14.5588 22.1446 17.3495 25.0658 20.3752 27.0727C21.1518 27.5857 21.9641 28.0465 22.8025 28.455C23.6385 28.8777 24.5243 29.1485 25.3342 29.6876C25.5076 29.7945 25.415 30.0771 25.2155 30.0605Z" fill="#371A45"/>
<path d="M43.1097 14.0982C43.9315 15.1384 44.549 17.9029 42.9696 20.8788C41.3902 23.8547 38.3455 24.2323 37.4382 22.9759C36.7423 22.0117 36.2673 19.3849 37.8467 16.409C39.4261 13.4332 42.2666 13.0318 43.1097 14.0982Z" fill="#371A45"/>
<g opacity="0.6">
<path d="M36.9421 21.786C36.9397 20.6437 37.2176 19.2567 37.999 17.7865C39.5783 14.8107 42.4212 14.4093 43.262 15.4733C43.5398 15.8248 43.794 16.3734 43.9483 17.0598C43.9388 15.7274 43.5541 14.6587 43.11 14.0958C42.2692 13.0318 39.4263 13.4332 37.847 16.409C36.7141 18.5418 36.6381 20.494 36.9421 21.786Z" fill="white"/>
</g>
<g opacity="0.35">
<path d="M37.4399 22.9758C38.3448 24.2298 41.3919 23.8521 42.9713 20.8786C44.1279 18.7031 44.1066 16.6393 43.6909 15.2808C43.6339 16.3044 43.3537 17.4563 42.7219 18.6438C41.1426 21.6196 38.0978 21.9973 37.1906 20.7409C37.0481 20.5414 36.9127 20.2706 36.8034 19.9405C36.7156 21.3323 37.0433 22.4271 37.4399 22.9758Z" fill="#111A28"/>
</g>
<path d="M24.0061 16.2811C23.1701 17.4781 22.9112 20.3304 25.4501 22.9168C27.989 25.5032 31.8792 25.2229 32.7817 23.7956C33.4729 22.7007 33.5821 20.0146 31.0432 17.4282C28.502 14.8418 24.8611 15.0556 24.0061 16.2811Z" fill="#371A45"/>
<g opacity="0.6">
<path d="M23.5052 19.3638C23.5694 18.6513 23.7855 18.0552 24.0705 17.6491C24.9255 16.4212 28.5664 16.2098 31.1052 18.7962C32.364 20.0787 32.972 21.3849 33.181 22.5107C33.3164 21.1759 32.8556 19.2783 31.0411 17.4282C28.5022 14.8418 24.8614 15.0556 24.0064 16.2811C23.5551 16.9271 23.2725 18.0552 23.5052 19.3638Z" fill="white"/>
</g>
<g opacity="0.35">
<path d="M25.4506 22.9169C27.9871 25.5032 31.8797 25.223 32.7822 23.7956C33.1765 23.1686 33.3807 22.0262 33.0102 20.6772C32.9366 21.024 32.8179 21.3209 32.6754 21.5465C31.7729 22.9739 27.8826 23.2541 25.3437 20.6677C24.332 19.637 23.7644 18.5635 23.5007 17.5684C23.2324 18.9934 23.5934 21.0264 25.4506 22.9169Z" fill="#111A28"/>
</g>
<path d="M39.008 24.0446C38.1886 24.0446 37.5118 23.7453 37.1223 23.2062C36.3812 22.1802 35.8302 19.3777 37.5023 16.2261C38.6066 14.1479 40.2857 13.2929 41.4899 13.1837C42.3187 13.1077 43.0217 13.3547 43.4184 13.8558C44.2805 14.9459 45.012 17.8672 43.3163 21.0639C42.2214 23.1254 40.4971 23.9519 39.2479 24.0374C39.1648 24.0422 39.084 24.0446 39.008 24.0446ZM41.7749 13.9532C41.706 13.9532 41.6324 13.9556 41.5588 13.9627C40.5589 14.0529 39.1481 14.7916 38.191 16.5918C36.6283 19.5344 37.222 22.0092 37.754 22.7454C38.0152 23.1064 38.552 23.2964 39.1909 23.2537C40.2287 23.1824 41.6775 22.4723 42.6204 20.6934C44.062 17.9788 43.5918 15.3426 42.7985 14.3379C42.6061 14.0909 42.2309 13.9532 41.7749 13.9532Z" fill="#371A45"/>
<path d="M30.0653 25.2585C28.5857 25.2585 26.6762 24.7241 25.1704 23.1899C22.4178 20.3874 22.8002 17.326 23.686 16.0554C24.0803 15.4901 24.902 15.1149 25.9375 15.0294C27.847 14.8702 29.861 15.6635 31.3217 17.1526C34.0339 19.9147 33.8582 22.8217 33.1124 24.0021C32.6968 24.6576 31.8062 25.1041 30.6685 25.2252C30.4762 25.249 30.2743 25.2585 30.0653 25.2585ZM24.3273 16.5066C23.5293 17.649 23.4367 20.309 25.7285 22.6436C27.2509 24.1945 29.2364 24.5935 30.583 24.451C31.4689 24.356 32.1672 24.033 32.4474 23.5865C33.0673 22.608 33.1552 20.1427 30.7612 17.7036C29.2293 16.1432 27.2984 15.7039 26.0017 15.8131C25.2227 15.8772 24.5814 16.1432 24.3273 16.5066Z" fill="#371A45"/>
<path d="M35.493 23.7169C35.3957 23.933 35.4123 24.1515 35.531 24.2061C35.6498 24.2608 35.8279 24.1301 35.9277 23.914C36.025 23.6979 36.0084 23.4794 35.8897 23.4248C35.7685 23.3701 35.5904 23.5008 35.493 23.7169Z" fill="#371A45"/>
<path d="M35.1633 24.2447C35.2711 24.1678 35.2468 23.9487 35.1089 23.7555C34.9711 23.5622 34.7719 23.4679 34.664 23.5448C34.5562 23.6217 34.5805 23.8408 34.7184 24.034C34.8562 24.2273 35.0554 24.3216 35.1633 24.2447Z" fill="#371A45"/>
<path d="M30.4759 11.9205L28.4572 13.108C28.2268 12.3575 27.9822 11.7447 27.7304 11.2531C26.7187 9.27472 25.5787 9.20109 24.6952 9.63572C23.4911 10.2295 23.3343 12.3147 23.3343 12.3147C24.3532 13.4262 23.0731 14.5092 22.0566 14.3002C21.1778 14.1197 20.7598 12.7422 21.8832 12.0178C21.8951 11.5998 22.1539 7.96134 24.6144 7.48872C27.0417 7.02322 28.6781 8.71185 29.5924 10.1392C30.1791 11.0512 30.4664 11.8587 30.4759 11.9205Z" fill="#62ED2E"/>
<path d="M30.1895 11.2295C30.1539 11.1725 30.1183 11.1155 30.0827 11.0585C29.116 9.5504 27.3942 7.81902 24.822 8.2584C22.694 8.62177 22.4827 11.9539 22.4708 12.398C21.7488 12.7804 21.4424 13.4763 21.3308 13.7233C21.0672 13.2103 21.1574 12.4788 21.877 12.0156C21.8889 11.5976 22.1478 7.95915 24.6083 7.48652C27.0355 7.02102 28.6719 8.70965 29.5863 10.137C29.8452 10.5384 30.047 10.9231 30.1895 11.2295Z" fill="white"/>
<path d="M30.4697 11.9205C30.4697 11.9205 30.3391 12.5523 29.6503 12.9014C28.9592 13.2505 28.4533 13.1056 28.4533 13.1056C28.2229 12.3551 27.9783 11.7424 27.7266 11.2508C28.4533 11.4051 29.5339 11.4265 29.5909 10.1345C30.1728 11.0513 30.4602 11.8588 30.4697 11.9205Z" fill="#31C418"/>
<path d="M30.2778 11.9439C29.3064 9.6544 27.0573 6.98015 24.25 8.01565C22.9366 8.6379 22.5068 10.2838 22.312 11.6304C22.2954 11.7634 22.2788 11.9035 22.2716 12.0247C22.2669 12.16 22.1956 12.2764 22.0911 12.3453C21.9225 12.4569 21.7824 12.5923 21.6969 12.7514C21.4356 13.1908 21.6755 13.8938 22.2241 13.9294C22.7181 13.9793 23.3855 13.5922 23.3 13.0483C23.2715 12.8749 23.1623 12.7158 23.0388 12.578C22.9651 12.4949 22.9295 12.3904 22.9366 12.2883C23.0055 11.4499 23.2098 10.6638 23.7085 9.96078C24.2334 9.22453 25.2641 8.85403 26.1334 9.14853C27.6486 9.70428 28.2566 11.6494 28.639 13.0483C28.696 13.2882 28.3516 13.395 28.2638 13.1623C27.822 12.0247 27.1499 10.2315 25.9196 9.83253C24.4376 9.51903 23.8771 11.1269 23.718 12.3405L23.6159 12.046C24.763 13.2478 23.6491 14.82 22.1529 14.706C21.4523 14.668 20.8775 14.0244 20.8181 13.3452C20.7255 12.6849 21.1221 12.0152 21.6684 11.685L21.4879 12.0033C21.5045 11.381 21.5971 10.811 21.7491 10.2173C22.0603 9.0369 22.7253 7.76153 23.9294 7.2699C25.1026 6.8139 26.4968 6.9849 27.5655 7.62378C28.6129 8.24128 29.38 9.20553 29.9643 10.2387C30.2398 10.7493 30.4915 11.2765 30.6554 11.837C30.748 12.1197 30.3348 12.2384 30.2778 11.9439Z" fill="#371A45"/>
<path d="M50.5499 9.30515C49.892 9.9844 48.8446 9.34078 48.7377 8.41453C48.505 8.12715 43.6909 4.32715 41.4394 9.1579C41.1781 9.72078 40.9501 10.3977 40.7696 11.2123L38.6725 10.8014C38.6582 10.7373 38.8934 9.78728 39.4824 8.66865C40.1949 7.31728 41.4251 5.7189 43.3655 5.13465C46.3437 4.23453 49.455 7.18428 49.74 7.42415C50.6092 7.5239 51.3764 8.4549 50.5499 9.30515Z" fill="#62ED2E"/>
<path d="M50.5499 9.30515C49.892 9.9844 48.8446 9.34078 48.7377 8.41453C48.505 8.12715 43.6909 4.32715 41.4394 9.1579C41.1781 9.72078 40.9501 10.3977 40.7696 11.2123L38.6725 10.8014C38.6582 10.7373 38.8934 9.78728 39.4824 8.66865C40.1949 7.31728 41.4251 5.7189 43.3655 5.13465C46.3437 4.23453 49.455 7.18428 49.74 7.42415C50.6092 7.5239 51.3764 8.4549 50.5499 9.30515Z" fill="#62ED2E"/>
<path d="M50.8838 8.69953C50.6534 8.49053 49.9314 7.9229 49.4588 8.1224C49.15 7.86353 46.3594 4.87103 43.146 5.84003C41.2864 6.4029 40.03 7.8279 39.2344 9.16265C39.308 9.00353 39.3888 8.83728 39.479 8.66865C40.1915 7.31728 41.4218 5.7189 43.3621 5.13465C46.3404 4.23453 49.4516 7.18428 49.7366 7.42415C50.3993 7.50015 51.0049 8.06065 50.8838 8.69953Z" fill="white"/>
<path d="M41.4417 9.15795C41.1805 9.72083 40.9525 10.3977 40.772 11.2123C40.772 11.2123 40.1854 11.5638 39.5251 11.4261C38.8649 11.286 38.6725 10.8015 38.6725 10.8015C38.6582 10.7373 38.8934 9.78733 39.4824 8.6687C39.5679 9.52845 40.0927 10.1745 41.4417 9.15795Z" fill="#31C418"/>
<path d="M38.4812 10.8446C38.4717 10.752 38.4789 10.771 38.4836 10.7116C38.4884 10.6784 38.5097 10.562 38.5169 10.524C38.9491 8.75462 39.854 7.06125 41.2552 5.86425C44.1717 3.37762 47.5015 4.83112 49.9929 7.123L49.7862 7.03275C50.627 7.11825 51.4535 7.883 51.2706 8.7855C51.0664 9.71412 50.0807 10.296 49.2257 9.78775C48.7341 9.50512 48.4159 9.00637 48.3494 8.45537L48.4349 8.65725C48.4372 8.65962 48.4372 8.662 48.4396 8.66437C48.4396 8.66675 48.4349 8.65962 48.4325 8.65962C48.4206 8.65012 48.3707 8.60737 48.3565 8.5955C47.1072 7.65975 45.4067 6.781 43.8226 7.22275C42.1459 7.74762 41.3977 9.6595 40.9607 11.2555C40.9322 11.36 40.8254 11.4217 40.7209 11.3932C40.6211 11.3671 40.5617 11.2674 40.5784 11.1676C40.7446 10.258 40.9964 9.34837 41.4524 8.50287C42.9937 5.58637 46.0812 5.95687 48.4372 7.65025C48.6462 7.80462 48.8671 7.96375 49.0429 8.16325C49.0927 8.22262 49.1212 8.2915 49.1284 8.36512C49.1616 8.66675 49.3564 8.96362 49.6105 9.10612C50.0095 9.36025 50.4109 9.01587 50.5035 8.6335C50.5795 8.19887 50.1164 7.86162 49.6984 7.81175C49.5535 7.80462 49.4134 7.65262 49.3089 7.5695C48.9122 7.237 48.4942 6.91637 48.0596 6.63612C46.8674 5.86187 45.4614 5.22775 44.0221 5.40112C41.9677 5.70512 40.4382 7.40325 39.531 9.18212C39.2697 9.69275 39.0322 10.2224 38.8755 10.7757L38.8707 10.7947C38.8684 10.7947 38.8731 10.809 38.866 10.7591C38.9135 11.0109 38.5406 11.0964 38.4812 10.8446Z" fill="#371A45"/>
<path d="M33.2003 15.4475C33.224 16.122 32.5994 16.5756 31.9653 16.5186C31.438 16.4925 30.9512 16.2479 30.5213 16.0009C29.7375 15.5425 29.0155 14.944 28.2009 14.5972C27.6665 14.3621 27.1013 14.2386 26.5147 14.2149C26.2819 14.2054 26.2582 13.8586 26.4933 13.823C28.2199 13.5499 29.5309 14.4927 30.906 15.3287C31.4808 15.6232 32.4379 16.1861 32.8084 15.4047L32.8393 15.3525C32.9367 15.1839 33.2027 15.2599 33.2003 15.4475Z" fill="#371A45"/>
<path d="M35.9097 14.9132C36.197 15.2623 36.4037 15.2552 36.7837 14.9417C37.1494 14.6329 37.5247 14.1959 37.888 13.8468C38.2799 13.462 38.7098 13.0844 39.2109 12.7994C39.7097 12.5097 40.2939 12.3339 40.8687 12.341C40.9779 12.3434 41.0634 12.4313 41.0634 12.5405C41.061 12.6355 40.9945 12.7115 40.9067 12.7305C39.8807 12.9372 39.123 13.6212 38.4248 14.374L37.8785 14.963C37.5864 15.267 37.2587 15.6447 36.8098 15.799C36.2255 16.0294 35.6199 15.6613 35.5344 15.0414C35.5012 14.8585 35.7387 14.7398 35.8645 14.8728C35.8693 14.8704 35.9097 14.9132 35.9097 14.9132Z" fill="#371A45"/>
<path d="M31.9804 25.9639C32.7499 26.7025 33.1608 26.9804 34.1131 26.3154C34.2841 26.2085 34.4907 26.4104 34.391 26.5814C33.9089 27.5433 32.7 27.7689 31.9804 26.9329C31.7999 26.7476 31.37 25.9615 31.807 25.8903C31.8759 25.8879 31.9352 25.9164 31.9804 25.9639Z" fill="#371A45"/>
</svg>
