<svg width="95" height="95" viewBox="0 0 95 95" fill="none" xmlns="http://www.w3.org/2000/svg">
<g clip-path="url(#clip0_2_64420)">
<path d="M95 0H0V95H95V0Z" fill="#845BFF"/>
<g opacity="0.2">
<path d="M49.6324 85.0989C68.3894 85.0989 83.5949 83.6464 83.5949 81.8546C83.5949 80.0629 68.3894 78.6104 49.6324 78.6104C30.8754 78.6104 15.6699 80.0629 15.6699 81.8546C15.6699 83.6464 30.8754 85.0989 49.6324 85.0989Z" fill="#371A45"/>
</g>
<path d="M68.2313 80.9117C67.2433 81.5339 65.5689 82.073 63.201 82.0707C59.8903 82.0683 57.1875 81.9092 57.216 79.4273C57.2398 77.4584 60.4983 76.5725 60.4983 76.5725C60.3035 73.9719 60.1254 71.0435 59.971 68.2529C59.6409 62.2537 59.4319 56.9075 59.4319 56.9075L69.8605 56.4468C69.4045 61.4675 69.2739 65.5692 69.2525 68.887C69.2027 76.4965 69.7323 79.9712 68.2313 80.9117Z" fill="white"/>
<g opacity="0.25">
<path d="M69.2977 75.1477C69.3309 78.5202 69.2359 80.2825 68.2313 80.9118C67.2433 81.5341 65.5689 82.0732 63.201 82.0708C59.8903 82.0685 57.1875 81.9093 57.216 79.4275C57.2184 79.1686 57.2778 78.9287 57.3775 78.7055C58.0045 80.2706 60.3819 80.3846 63.201 80.387C65.5689 80.387 67.2433 79.8478 68.2313 79.228C69.053 78.715 69.2644 77.442 69.2977 75.1477Z" fill="#371A45"/>
</g>
<path d="M69.8612 54.7703C69.809 55.345 69.7615 55.9079 69.7164 56.4589L59.5015 56.9101C59.4564 55.8533 59.4326 55.231 59.4326 55.231L69.8612 54.7703Z" fill="#D8D8D8"/>
<g opacity="0.25">
<path d="M69.8608 56.4517C69.4048 61.4724 69.2742 65.574 69.2528 68.8919C65.2248 67.0917 61.9022 67.6118 59.9737 68.2578C59.6436 62.2585 59.4346 56.9124 59.4346 56.9124L69.8608 56.4517Z" fill="#371A45"/>
</g>
<path d="M63.2105 82.4888C63.2081 82.4888 63.2058 82.4888 63.201 82.4888C60.7144 82.4864 58.5674 82.3985 57.4915 81.3084C57.0236 80.8334 56.7909 80.2016 56.798 79.425C56.8194 77.5535 59.1683 76.5774 60.0565 76.2734C59.4604 68.1889 59.0163 57.0406 59.0115 56.9266C59.002 56.6963 59.1825 56.5015 59.4129 56.492C59.6433 56.4825 59.838 56.663 59.8475 56.8934C59.8523 57.0074 60.3059 68.4478 60.9139 76.5418L60.94 76.8861L60.6075 76.9764C59.7858 77.202 57.6483 78.0808 57.634 79.4345C57.6269 79.9879 57.7741 80.4083 58.0853 80.7218C58.9331 81.5815 60.9899 81.6528 63.201 81.6528C63.2034 81.6528 63.2058 81.6528 63.2105 81.6528C65.8705 81.6528 67.3596 80.9664 68.0104 80.5579C68.9485 79.9665 68.92 77.7411 68.863 73.7013C68.8108 69.9321 68.7324 64.2345 69.4449 56.4136C69.4663 56.1833 69.6681 56.0146 69.8985 56.036C70.1289 56.0574 70.2975 56.2593 70.2761 56.4896C69.5684 64.2654 69.6468 69.9369 69.699 73.6894C69.7608 78.1734 69.7916 80.4249 68.4545 81.2656C67.7278 81.724 66.0795 82.4888 63.2105 82.4888Z" fill="#371A45"/>
<path d="M63.9297 70.0747C62.5593 70.0747 61.1129 69.8705 59.8281 69.2649C59.6191 69.1675 59.5288 68.9181 59.6286 68.7091C59.7283 68.5001 59.9753 68.4099 60.1843 68.5096C63.7919 70.2077 69.0597 68.3885 69.1119 68.3695C69.3304 68.2935 69.5679 68.4075 69.6439 68.626C69.7199 68.8445 69.6059 69.082 69.3898 69.158C69.2378 69.2102 66.7417 70.0747 63.9297 70.0747Z" fill="#371A45"/>
<path d="M60.4842 76.157C61.952 76.195 63.415 76.2354 64.8637 76.499C65.1202 76.5536 65.0608 76.9384 64.7996 76.9122C63.3793 76.7935 61.933 76.8932 60.5127 76.993C59.9356 77.0191 59.9047 76.1689 60.4842 76.157Z" fill="#371A45"/>
<path d="M67.8994 41.1901L68.353 45.0922L69.9205 58.6012L70.7542 65.7903C70.7542 65.7903 71.032 65.7903 71.4999 65.7737C73.5329 65.6953 79.1474 65.2417 80.9287 62.634C81.7385 61.4465 82.0378 58.1262 81.9262 54.5091C81.7884 50.1035 81.0427 45.2585 79.8742 43.2943C78.8957 41.6485 76.4185 41.0072 73.8868 40.8457C72.9558 40.784 72.0177 40.7887 71.1413 40.8315C69.8374 40.8956 68.6784 41.0428 67.8994 41.1901Z" fill="white"/>
<g opacity="0.25">
<path d="M69.918 58.6011L70.7516 65.7926C70.7516 65.7926 78.734 65.8425 80.9261 62.6363C81.736 61.4488 82.0352 58.1285 81.9236 54.5114L76.948 53.8796C76.948 53.8796 75.2285 53.9936 75.4018 59.4656C75.4493 60.9975 73.1456 61.6981 71.3453 60.5605C70.6946 60.1496 70.241 59.4466 69.918 58.6011Z" fill="#371A45"/>
</g>
<path d="M70.7924 66.2104C70.771 66.2104 70.7567 66.2104 70.7472 66.2104C70.5169 66.208 70.3316 66.0204 70.3316 65.79C70.334 65.5597 70.5192 65.3744 70.7496 65.3744C70.752 65.3744 70.752 65.3744 70.7615 65.3744C71.0774 65.3744 78.5705 65.3364 80.5774 62.4009C81.3374 61.2918 81.6865 57.6509 81.4514 53.3427C81.2091 48.9489 80.4491 45.0895 79.511 43.5125C77.8627 40.7409 71.0275 41.0283 67.9756 41.603C67.7476 41.6458 67.5291 41.4962 67.4887 41.2705C67.446 41.0425 67.5956 40.8264 67.8212 40.7837C70.5834 40.2659 78.1952 39.6674 80.2306 43.0874C81.4466 45.1323 82.0902 49.7018 82.2874 53.2999C82.4869 56.9194 82.323 61.3345 81.2685 62.8759C79.0431 66.1297 71.5167 66.2104 70.7924 66.2104Z" fill="#371A45"/>
<path d="M81.4323 53.7776L77.2618 54.3215C76.8889 54.369 76.5968 54.6635 76.5493 55.0363C76.3783 56.402 76.1479 59.5726 77.5183 60.5416C78.6559 61.3443 80.4229 61.1472 81.4109 60.2115C82.5176 59.1665 82.463 56.0695 82.3609 54.54C82.33 54.065 81.9025 53.7158 81.4323 53.7776Z" fill="white"/>
<g opacity="0.25">
<path d="M76.5473 55.036C76.3763 56.3993 76.1459 59.5723 77.5163 60.5413C78.6539 61.3464 80.4209 61.1469 81.4113 60.2111C82.0929 59.5675 82.3328 58.1496 82.3946 56.7959C82.2426 57.4775 81.9766 58.0404 81.6274 58.418C79.6277 60.584 77.9201 58.2518 77.9201 58.2518C77.9201 58.2518 77.6778 58.855 77.4617 58.9001C76.5568 59.0901 76.5901 56.2259 76.6423 54.7439C76.5948 54.8318 76.5616 54.9291 76.5473 55.036Z" fill="#371A45"/>
</g>
<path d="M79.2095 61.4629C78.5136 61.4629 77.8296 61.2729 77.2762 60.8834C75.7728 59.8217 75.9153 56.7319 76.1315 54.9839C76.2027 54.4234 76.6421 53.9792 77.205 53.908L81.3755 53.3641C81.7151 53.3214 82.0619 53.4187 82.3255 53.6349C82.5891 53.851 82.753 54.1716 82.7767 54.5136C82.9192 56.6511 82.848 59.4275 81.6961 60.5152C81.0382 61.1399 80.1167 61.4629 79.2095 61.4629ZM81.4847 54.193L77.3142 54.7369C77.1313 54.7606 76.9865 54.9055 76.9627 55.0884C76.635 57.7056 76.9342 59.6175 77.7583 60.1994C78.706 60.8691 80.2473 60.7361 81.1237 59.9072C81.8172 59.2517 82.1236 57.2567 81.9431 54.5682C81.936 54.4542 81.8837 54.3521 81.7959 54.2809C81.708 54.2096 81.5987 54.1764 81.4847 54.193Z" fill="#371A45"/>
<path d="M78.1615 55.758C78.3943 57.4561 78.2827 60.0496 80.3964 60.4534C80.6244 60.4938 80.7764 60.7123 80.736 60.9403C80.6957 61.1683 80.4772 61.3179 80.2492 61.2775C79.9594 61.2087 79.6744 61.0994 79.4084 60.945C78.6532 60.5247 78.1829 59.6768 77.9977 58.8859C77.7364 57.8718 77.791 56.8173 77.7222 55.8079C77.7055 55.5253 78.114 55.4778 78.1615 55.758Z" fill="#371A45"/>
<path d="M77.4729 43.2371C75.7842 43.4485 74.0861 43.7097 72.4403 44.1325C71.8988 44.275 71.3549 44.4341 70.8704 44.6502C70.3597 44.8592 70.032 44.1277 70.5307 43.8855C71.6731 43.4817 72.825 43.325 74.003 43.1706C75.1477 43.0305 76.2925 42.9355 77.4444 42.8761C77.6724 42.869 77.7032 43.2086 77.4729 43.2371Z" fill="#371A45"/>
<path d="M77.6125 57.0524C77.5982 58.1046 77.4723 59.0237 77.2348 59.8787C75.4061 66.4194 65.462 67.6521 60.4293 64.8472C58.717 63.8924 57.6387 62.4556 57.4796 59.7647C57.3228 57.1023 57.5651 54.0267 57.9926 51.0104C58.8381 45.0183 60.4103 39.2494 60.9993 37.3684C61.1798 36.7961 66.2148 32.7016 69.2002 31.9653C73.2567 31.2148 70.9197 36.9338 70.9791 38.2068C71.1667 42.3203 75.8051 46.1037 76.4463 48.9466C77.2467 52.4948 77.6386 55.0218 77.6125 57.0524Z" fill="white"/>
<g opacity="0.25">
<path d="M77.6125 57.0525C77.5982 58.1046 77.4723 59.0238 77.2348 59.8788C75.4061 66.4195 65.462 67.6521 60.4293 64.8473C58.717 63.8925 57.6387 62.4556 57.4796 59.7648C57.3228 57.1024 57.5651 54.0268 57.9926 51.0105C63.4266 49.8325 71.8816 48.1439 72.112 48.9894C72.4516 50.2386 71.1572 55.4399 72.0645 56.5181C72.8933 57.5038 74.7743 57.6059 77.546 57.0644C77.5697 57.0573 77.5911 57.0525 77.6125 57.0525Z" fill="#371A45"/>
</g>
<path d="M66.5534 66.6667C64.233 66.6667 61.9601 66.1774 60.2264 65.2108C58.1934 64.0779 57.2173 62.4059 57.0629 59.7887C56.6045 52.0414 59.5376 40.6296 60.6016 37.2405C60.7798 36.6728 62.7748 35.1243 63.8055 34.3857C65.0144 33.5188 67.3086 31.9988 69.1017 31.5571L69.1255 31.5523C70.1277 31.3671 70.8878 31.531 71.3841 32.0392C72.4125 33.0937 71.9494 35.2835 71.6121 36.8842C71.4957 37.4352 71.3865 37.9553 71.396 38.1881C71.5005 40.4681 73.106 42.7267 74.5239 44.717C75.576 46.1942 76.5687 47.5907 76.8537 48.8542C78.122 54.4782 78.3334 57.4968 77.6375 59.9906C76.9416 62.4819 75.0939 64.4152 72.2985 65.5813C70.5553 66.3104 68.5365 66.6667 66.5534 66.6667ZM61.3925 37.5136C60.3356 40.8885 57.4476 52.1341 57.8989 59.7412C58.0366 62.0734 58.856 63.4913 60.6349 64.4841C63.6416 66.1608 68.413 66.2986 71.9755 64.8142C73.7544 64.0732 76.0415 62.5959 76.8324 59.7697C77.4879 57.4232 77.2741 54.5162 76.0391 49.0418C75.7921 47.9422 74.8445 46.6122 73.8446 45.2062C72.3602 43.121 70.6787 40.7578 70.5624 38.2308C70.5457 37.8912 70.6574 37.3735 70.7951 36.7156C71.0778 35.3808 71.5029 33.3621 70.7856 32.6282C70.4982 32.3337 69.9947 32.2482 69.2894 32.3765C66.513 33.0652 61.7725 36.8723 61.3925 37.5136Z" fill="#371A45"/>
<path d="M45.1181 36.9768C46.4932 39.3921 48.4906 41.475 50.9962 42.9713C51.5068 43.2753 52.0388 43.5579 52.5898 43.812C52.8582 43.9355 53.1313 44.0543 53.4116 44.1659C54.2547 44.5008 55.1073 44.7644 55.9671 44.9591C56.7081 45.1278 57.4514 45.2441 58.1948 45.3106C59.0926 45.3914 59.9856 45.3985 60.8714 45.3391C61.1944 45.3154 61.5151 45.2845 61.8357 45.2441C67.6853 44.5031 72.9887 40.7506 75.3827 34.9746C78.9119 26.465 74.7984 16.7821 66.1962 13.3503C64.5384 12.69 62.8356 12.3076 61.1398 12.1865C60.9427 12.1699 60.7432 12.1604 60.5437 12.1533C60.0117 12.1319 59.4797 12.1366 58.9524 12.1675C57.7317 12.2364 56.5299 12.4359 55.3662 12.7589C54.2024 13.0795 53.0743 13.5236 52.0056 14.0818C51.6659 14.2575 51.3311 14.4475 51.0033 14.647C50.5117 14.9463 50.0343 15.2716 49.5759 15.6231C47.2793 17.364 45.4007 19.7105 44.2274 22.5463C42.1921 27.4364 42.6908 32.7184 45.1181 36.9768Z" fill="white"/>
<path d="M59.7031 45.4197C59.1948 45.4197 58.689 45.396 58.1878 45.3508C57.4326 45.2819 56.6821 45.1656 55.9553 44.9993C55.0885 44.8046 54.2263 44.5362 53.3951 44.2037C53.0887 44.0802 52.8203 43.9638 52.571 43.8474C52.0295 43.5981 51.4927 43.3154 50.975 43.0043C48.5263 41.5413 46.4886 39.4632 45.0826 36.9956C42.5437 32.5401 42.2183 27.2652 44.1848 22.5223C45.3225 19.7792 47.1773 17.3781 49.5476 15.5802C49.9941 15.2382 50.4762 14.9104 50.9797 14.6017C51.3027 14.4046 51.64 14.2146 51.9843 14.0364C53.0555 13.4783 54.1883 13.0318 55.3521 12.7112C56.5277 12.3858 57.7366 12.1863 58.9478 12.1174C59.4751 12.0889 60.0118 12.0842 60.5438 12.1032C60.7552 12.1103 60.9523 12.1198 61.1423 12.1364C62.8713 12.2599 64.5766 12.6542 66.2106 13.3049C70.3977 14.9769 73.661 18.1642 75.3947 22.2801C77.1166 26.3627 77.1261 30.8752 75.4208 34.9863C73.1076 40.5676 67.9016 44.5124 61.8406 45.2819C61.52 45.3223 61.197 45.3532 60.874 45.3769C60.4821 45.4078 60.0926 45.4197 59.7031 45.4197ZM45.1538 36.9576C46.5527 39.4133 48.581 41.4819 51.0177 42.9378C51.5331 43.2442 52.0675 43.5268 52.6066 43.7762C52.8536 43.8902 53.122 44.0066 53.426 44.1301C54.2548 44.4602 55.1122 44.7262 55.9743 44.9209C56.6963 45.0848 57.4445 45.2036 58.1973 45.2701C59.0761 45.3484 59.9738 45.358 60.8668 45.2986C61.1875 45.2748 61.5105 45.2439 61.8287 45.2036C67.8612 44.4388 73.0387 40.5129 75.3425 34.9578C77.0382 30.8681 77.0287 26.3793 75.3163 22.3181C73.5897 18.2236 70.3454 15.0506 66.1773 13.3881C64.5505 12.7397 62.8547 12.3502 61.1328 12.2267C60.9428 12.2124 60.7505 12.2006 60.5391 12.1934C60.0095 12.1721 59.4751 12.1768 58.9526 12.2077C57.7461 12.2766 56.542 12.4737 55.3735 12.7991C54.2145 13.1197 53.0863 13.5614 52.0223 14.1172C51.6803 14.2953 51.3455 14.4853 51.0225 14.6801C50.5213 14.9864 50.044 15.3142 49.5975 15.6514C47.2391 17.4398 45.3937 19.8267 44.2608 22.5579C42.3038 27.2771 42.6292 32.5258 45.1538 36.9576Z" fill="#371A45"/>
<g opacity="0.25">
<path d="M75.38 34.9723C72.986 40.7507 67.6826 44.5008 61.833 45.2418C61.5124 45.2822 61.1918 45.3131 60.8688 45.3368C59.9829 45.3986 59.0875 45.3891 58.1921 45.3083C57.4488 45.2418 56.7054 45.1255 55.9644 44.9568C55.1046 44.7645 54.252 44.5008 53.4089 44.1636C53.131 44.0496 52.8555 43.9332 52.5871 43.8097C52.0361 43.5556 51.5065 43.273 50.9935 42.969C48.4879 41.4727 46.4905 39.3898 45.1154 36.9745C44.3601 35.6468 43.7901 34.2218 43.4268 32.7375C44.7924 35.0127 46.7185 36.9721 49.1101 38.4018C49.6208 38.7082 50.1528 38.9885 50.7038 39.2426C50.9721 39.3661 51.2453 39.4825 51.5255 39.5965C52.3686 39.9313 53.2213 40.195 54.081 40.3897C54.822 40.5583 55.5654 40.6723 56.3088 40.7412C57.2041 40.822 58.1019 40.8291 58.9854 40.7697C59.3084 40.746 59.629 40.7151 59.9496 40.6747C65.7993 39.9337 71.1026 36.1836 73.4966 30.4052C74.8955 27.0351 75.0926 23.4797 74.2899 20.2046C76.8834 24.5176 77.4653 29.9492 75.38 34.9723Z" fill="#371A45"/>
</g>
<path d="M59.703 45.7027C59.1876 45.7027 58.6722 45.6789 58.164 45.6338C57.3968 45.5649 56.6321 45.4438 55.8935 45.2752C55.0123 45.0757 54.136 44.8049 53.2905 44.4677C52.9793 44.3418 52.7062 44.2231 52.4521 44.1067C51.9011 43.8526 51.3548 43.5652 50.83 43.2517C48.341 41.7649 46.2676 39.6512 44.8355 37.1384C42.2538 32.6069 41.9213 27.2418 43.9235 22.4182C45.0801 19.6276 46.9658 17.1884 49.3765 15.3597C49.8301 15.0129 50.3217 14.6781 50.8323 14.3669C51.1601 14.1674 51.5045 13.9727 51.8536 13.7922C52.9413 13.2246 54.0932 12.7709 55.2783 12.4456C56.473 12.1154 57.7008 11.9112 58.9335 11.8423C59.4702 11.8114 60.0141 11.8067 60.5556 11.8281C60.7717 11.8352 60.9712 11.8447 61.166 11.8613C62.9211 11.9872 64.6548 12.3862 66.3173 13.0488C70.5757 14.7493 73.8936 17.9912 75.6582 22.1759C77.4086 26.3298 77.4181 30.9183 75.6843 35.0983C73.3307 40.7746 68.0416 44.7836 61.8785 45.5649C61.5531 45.6053 61.223 45.6386 60.8976 45.6623C60.4962 45.6884 60.0996 45.7027 59.703 45.7027ZM45.3983 36.8178C46.7735 39.2332 48.7661 41.2638 51.1601 42.6959C51.666 42.9976 52.1932 43.2754 52.7228 43.5201C52.9675 43.6341 53.2311 43.7481 53.5303 43.8692C54.3426 44.1946 55.1857 44.4558 56.036 44.6458C56.7461 44.8073 57.4823 44.9237 58.221 44.9902C59.0855 45.0686 59.969 45.0781 60.8477 45.0163C61.1612 44.9926 61.4795 44.9617 61.793 44.9237C67.7257 44.1708 72.8177 40.3114 75.0811 34.8513C76.7483 30.8328 76.7388 26.4201 75.0573 22.4277C73.3616 18.4021 70.1696 15.2861 66.0727 13.6497C64.4743 13.0132 62.8047 12.6284 61.1137 12.5073C60.9261 12.4931 60.7361 12.4812 60.5295 12.4741C60.007 12.4551 59.4821 12.4598 58.9667 12.4883C57.7816 12.5548 56.5965 12.7496 55.447 13.0678C54.307 13.3813 53.1978 13.8183 52.1505 14.3646C51.8132 14.5403 51.4831 14.7256 51.1672 14.9179C50.6756 15.2196 50.203 15.5402 49.766 15.8751C47.4456 17.6326 45.6311 19.9814 44.5196 22.6652C42.5982 27.3036 42.9165 32.4621 45.3983 36.8178Z" fill="#371A45"/>
<path d="M59.7027 45.7952C59.1826 45.7952 58.6672 45.7714 58.1542 45.7263C57.3824 45.6574 56.6152 45.5363 55.8719 45.3677C54.986 45.1682 54.1049 44.895 53.2546 44.5554C52.9411 44.4295 52.6656 44.3108 52.4115 44.192C51.8581 43.9379 51.3095 43.6482 50.7799 43.3323C48.2766 41.836 46.1914 39.7104 44.7521 37.1858C42.1562 32.6305 41.8214 27.2345 43.8354 22.3824C44.9991 19.5775 46.8944 17.1242 49.3192 15.2859C49.7752 14.9368 50.2692 14.6019 50.7822 14.2884C51.1124 14.0865 51.4567 13.8918 51.8082 13.7089C52.9007 13.1389 54.0597 12.6829 55.2496 12.3552C56.449 12.0227 57.6864 11.8184 58.9237 11.7495C59.4629 11.7187 60.0115 11.7139 60.553 11.7353C60.7691 11.7424 60.971 11.7543 61.1681 11.7685C62.9327 11.8944 64.676 12.2958 66.3456 12.9608C70.6277 14.6708 73.9646 17.9293 75.7387 22.1402C77.4986 26.3178 77.5081 30.9324 75.7649 35.1362C73.3994 40.8433 68.0794 44.876 61.883 45.6622C61.5552 45.7025 61.2251 45.7358 60.8974 45.7595C60.5007 45.7833 60.0994 45.7952 59.7027 45.7952ZM45.4789 36.7702C46.8469 39.1713 48.8276 41.19 51.2074 42.6127C51.7109 42.9143 52.2334 43.1898 52.7606 43.432C53.0029 43.5437 53.2665 43.6577 53.5634 43.7788C54.3709 44.1018 55.2092 44.3607 56.0524 44.5507C56.7601 44.7122 57.4916 44.8262 58.2255 44.8927C59.0852 44.971 59.964 44.9805 60.8356 44.9188C61.1467 44.8974 61.465 44.8642 61.7761 44.8262C67.6756 44.078 72.7367 40.24 74.9882 34.8108C76.646 30.816 76.6365 26.4294 74.9645 22.4608C73.2782 18.4589 70.1052 15.3595 66.0321 13.735C64.4432 13.1009 62.7831 12.7185 61.0992 12.5998C60.914 12.5855 60.724 12.5737 60.5197 12.5689C59.9996 12.5499 59.4771 12.5547 58.9665 12.5832C57.7885 12.6497 56.6105 12.8444 55.4681 13.1603C54.3329 13.4738 53.2309 13.906 52.1906 14.4499C51.8557 14.6233 51.528 14.8085 51.2145 15.0009C50.7252 15.3002 50.2574 15.6208 49.8227 15.9509C47.5166 17.6989 45.7116 20.0335 44.6049 22.703C42.6954 27.3129 43.0136 32.4405 45.4789 36.7702Z" fill="#371A45"/>
<path d="M47.6926 40.3796C57.6558 46.9821 71.0056 41.8663 71.5424 30.1125C71.9081 22.1158 64.2583 15.6368 56.454 15.8268C50.7754 15.9646 45.2773 18.5533 43.0329 27.3076C43.0329 27.3076 42.6458 31.3308 43.7881 33.9813C44.9305 36.6318 46.4956 39.0187 46.4956 39.0187L47.6926 40.3796Z" fill="#371A45"/>
<path d="M71.5398 30.1129C71.0031 41.8644 57.6556 46.9825 47.6924 40.38L47.4502 40.1045C58.3324 41.7979 69.0556 35.1716 69.8203 23.2966C71.0031 25.3225 71.6514 27.6453 71.5398 30.1129Z" fill="#220F2D"/>
<path d="M57.1597 45.4171C56.7535 45.4171 56.3474 45.4028 55.9389 45.3767L55.8748 45.3672C54.9889 45.1677 54.1078 44.8946 53.2575 44.555C52.944 44.4291 52.6685 44.3103 52.4144 44.1916C51.861 43.9375 51.3124 43.6477 50.7828 43.3318C48.2795 41.8356 46.1943 39.71 44.755 37.1853C42.1592 32.6301 41.8243 27.2341 43.8383 22.382C45.002 19.5771 46.8973 17.1237 49.3222 15.2855L49.3554 15.2593L49.3934 15.2403C51.4003 14.2856 53.7373 13.7702 56.3427 13.7061C61.0285 13.5945 65.8617 15.599 69.265 19.076C72.3288 22.2062 73.9153 26.1582 73.73 30.2005C73.5282 34.6013 71.773 38.4037 68.6523 41.1967C65.617 43.909 61.4845 45.4171 57.1597 45.4171ZM56.0244 44.5431C60.5512 44.8305 64.9497 43.3841 68.0918 40.5721C71.0415 37.9335 72.7017 34.333 72.8917 30.1601C73.065 26.3506 71.564 22.6218 68.6642 19.6578C65.4199 16.3447 60.8219 14.4281 56.3593 14.5397C53.8893 14.5991 51.6782 15.0836 49.7877 15.9742C47.4982 17.7198 45.7074 20.0426 44.6054 22.6978C42.6912 27.3101 43.0094 32.4377 45.477 36.7673C46.845 39.1685 48.8258 41.1872 51.2055 42.6098C51.709 42.9115 52.2315 43.187 52.7588 43.4292C53.001 43.5408 53.2647 43.6548 53.5615 43.776C54.3643 44.0966 55.1908 44.3555 56.0244 44.5431Z" fill="#371A45"/>
<path d="M57.202 43.7167C53.8556 43.7167 50.4499 42.7074 47.4621 40.7266L47.417 40.6957L46.1464 39.247C46.0822 39.1472 44.548 36.8007 43.4056 34.1479C42.2347 31.4285 42.6029 27.4361 42.6195 27.2675L42.6314 27.2034C44.5907 19.5535 49.2386 15.5849 56.4467 15.4091C60.6291 15.3046 64.9397 17.0977 67.9774 20.1995C70.7134 22.9949 72.1289 26.5217 71.9626 30.1317C71.7227 35.3639 68.9582 39.7006 64.3769 42.0281C62.1444 43.1586 59.6886 43.7167 57.202 43.7167ZM47.968 40.0616C52.9199 43.3225 59.0545 43.7904 63.9921 41.2847C68.298 39.0974 70.8962 35.0195 71.1219 30.0961C71.2762 26.7189 69.9439 23.4152 67.3741 20.7885C64.4956 17.8482 60.4177 16.1501 56.461 16.2475C49.6827 16.4137 45.3032 20.1591 43.4436 27.3815C43.4127 27.7567 43.1349 31.419 44.168 33.8201C45.2225 36.2664 46.6594 38.5107 46.8256 38.7672L47.968 40.0616Z" fill="#371A45"/>
<path d="M78.9978 29.2316C79.2495 32.4972 77.5039 35.3947 75.098 35.6987C72.6945 36.0051 70.5404 33.6039 70.291 30.3359C70.2887 30.3146 70.2886 30.2932 70.2863 30.2742C70.0606 27.0323 71.8015 24.1728 74.1884 23.8688C76.0457 23.6337 77.7533 25.0112 78.5489 27.1582C78.784 27.7899 78.9408 28.4906 78.9978 29.2316Z" fill="white"/>
<g opacity="0.25">
<path d="M78.9976 29.2318C79.2494 32.4974 77.5038 35.3949 75.0979 35.6989C72.6944 36.0053 70.5403 33.6041 70.2909 30.3361C70.2885 30.3148 70.2885 30.2934 70.2861 30.2744C70.5759 30.576 71.0129 30.8539 71.5615 30.671C72.5234 30.3528 74.1123 28.0276 74.1123 28.0276C74.1123 28.0276 76.0336 27.6381 78.5488 27.156C78.7839 27.7901 78.9406 28.4908 78.9976 29.2318Z" fill="#371A45"/>
</g>
<path d="M74.6794 36.1456C73.7887 36.1456 72.9242 35.8226 72.1571 35.198C70.8604 34.1387 70.0267 32.3812 69.8724 30.372C69.6064 26.8926 71.5182 23.7909 74.1355 23.4584C75.19 23.3254 76.2255 23.6412 77.128 24.3775C78.4247 25.4367 79.2584 27.1942 79.4127 29.2035C79.6787 32.6829 77.7669 35.7846 75.1496 36.1171C74.9929 36.1361 74.8361 36.1456 74.6794 36.1456ZM74.601 24.2611C74.4822 24.2611 74.3611 24.2682 74.24 24.2849C72.0574 24.5627 70.4709 27.2631 70.7036 30.3055C70.839 32.0606 71.5776 33.6471 72.6844 34.5472C73.404 35.1339 74.221 35.3904 75.0427 35.2859C77.2254 35.008 78.8119 32.3076 78.5791 29.2652C78.4437 27.5101 77.7051 25.9236 76.5984 25.0235C75.9856 24.5224 75.3016 24.2611 74.601 24.2611Z" fill="#371A45"/>
<path d="M79.6513 30.2365C79.7018 27.632 78.1469 25.4898 76.1785 25.4516C74.2101 25.4135 72.5734 27.4939 72.523 30.0984C72.4725 32.7029 74.0274 34.8451 75.9958 34.8832C77.9642 34.9214 79.6009 32.8409 79.6513 30.2365Z" fill="white"/>
<path d="M76.0525 34.9298C75.6843 34.9298 75.3162 34.8538 74.9576 34.7018C73.0718 33.9085 72.0411 31.2295 72.6586 28.731C73.003 27.3393 73.7986 26.2397 74.8388 25.7195C75.6131 25.3324 76.4348 25.3015 77.2186 25.6317C79.1043 26.4249 80.1351 29.1039 79.5176 31.6024C79.1732 32.9942 78.3776 34.0938 77.3373 34.6139C76.9193 34.8229 76.4871 34.9298 76.0525 34.9298ZM76.1237 25.4915C75.7033 25.4915 75.283 25.5937 74.8768 25.7979C73.8603 26.3085 73.0813 27.3844 72.7417 28.7524C72.1313 31.2105 73.1407 33.8444 74.9885 34.621C75.7485 34.9417 76.5465 34.9108 77.297 34.5355C78.3135 34.0249 79.0925 32.949 79.4321 31.581C80.0425 29.1229 79.0331 26.489 77.1853 25.7124C76.8362 25.5652 76.48 25.4915 76.1237 25.4915Z" fill="#371A45"/>
<g opacity="0.25">
<path d="M72.8825 32.4259C72.5951 31.5804 72.5452 30.6518 72.6901 29.7659C73.5071 31.6398 75.3453 32.2834 76.9461 31.1885C77.9816 30.4808 78.6775 29.2102 78.9031 27.8374C78.9553 27.9562 79.0028 28.0797 79.0456 28.2079C79.7747 30.362 78.9838 33.0529 77.2833 34.219C75.5805 35.3828 73.6116 34.58 72.8825 32.4259Z" fill="#371A45"/>
</g>
<path d="M76.1406 35.3044C75.4828 35.3044 74.8439 35.0645 74.2715 34.599C73.2218 33.7464 72.5211 32.2217 72.3976 30.5164C72.1886 27.6403 73.6659 25.0777 75.6918 24.8045C76.4755 24.6977 77.2474 24.9352 77.9266 25.4862C78.9764 26.3388 79.677 27.8635 79.8005 29.5688C80.0095 32.4449 78.5323 35.0075 76.5064 35.2807C76.3829 35.2973 76.2618 35.3044 76.1406 35.3044ZM76.0504 25.6144C75.9673 25.6144 75.8865 25.6192 75.8034 25.631C74.2074 25.8472 73.0531 28.0108 73.2313 30.4547C73.3381 31.9343 73.9248 33.2405 74.7988 33.9507C75.2951 34.352 75.8461 34.5278 76.3948 34.4518C77.9908 34.2357 79.145 32.072 78.9669 29.6282C78.86 28.1485 78.2734 26.8423 77.3994 26.1322C76.9766 25.7925 76.5159 25.6144 76.0504 25.6144Z" fill="#371A45"/>
<g opacity="0.5">
<path d="M60.6884 19.057C60.6884 19.057 53.8603 18.6271 49.9178 22.8784C49.913 22.8831 49.9107 22.8879 49.9059 22.8926C49.077 23.788 48.032 25.9564 47.7732 27.1391C47.4312 28.7042 47.4264 29.83 47.462 30.8227C47.5713 33.839 48.1935 35.2284 48.1935 35.2284C46.398 33.706 45.3507 31.9366 45.2367 29.4262C45.2248 29.1792 45.2248 28.9227 45.2295 28.6591C45.2319 28.5997 45.2343 28.538 45.2367 28.4786C45.2343 28.4786 45.2367 28.4762 45.2367 28.4739C45.2889 27.9419 45.3815 27.246 45.5549 26.4694C46.0727 24.1276 47.2982 21.0496 50.1933 19.5272C55.6083 16.682 60.9283 18.7316 60.6884 19.057Z" fill="white"/>
</g>
<g opacity="0.5">
<path d="M66.3108 29.7058C67.4951 29.3268 68.1022 27.9167 67.6668 26.5563C67.2314 25.1959 65.9184 24.4003 64.7342 24.7793C63.5499 25.1583 62.9428 26.5684 63.3782 27.9288C63.8136 29.2893 65.1265 30.0849 66.3108 29.7058Z" fill="white"/>
</g>
<g opacity="0.5">
<path d="M67.3397 32.7145C67.8115 32.5135 68.0065 31.9103 67.7751 31.3673C67.5437 30.8242 66.9736 30.547 66.5018 30.748C66.03 30.9491 65.835 31.5523 66.0664 32.0953C66.2978 32.6383 66.8679 32.9156 67.3397 32.7145Z" fill="white"/>
</g>
<path d="M76.8096 67.5807C77.0851 72.7059 77.4389 77.2683 77.0969 79.8167C76.9687 80.7667 76.7454 81.4364 76.3844 81.7523C75.3513 82.6572 72.3541 82.8353 69.9862 82.8353C66.6754 82.8329 63.9727 82.6738 64.0012 80.1943C64.0036 80.0471 64.0226 79.9069 64.0582 79.7692C64.4928 78.0972 67.2834 77.3372 67.2834 77.3372C67.1243 75.0144 66.7277 70.5566 66.4569 67.5783C66.2978 65.8351 66.1815 64.6001 66.1815 64.6001L71.0312 60.3298L76.8998 57.5511L77.4793 54.6536C78.0754 60.3916 76.6196 63.2534 76.6196 63.2534C76.6671 64.7188 76.7359 66.1699 76.8096 67.5807Z" fill="white"/>
<g opacity="0.25">
<path d="M77.0999 79.8168C76.9716 80.7668 76.7484 81.4365 76.3874 81.7524C75.3543 82.6573 72.357 82.8354 69.9891 82.8354C66.6784 82.833 63.9756 82.6739 64.0041 80.1944C64.0065 80.0472 64.0255 79.907 64.0611 79.7693C64.3034 80.3037 64.9019 80.8357 66.2699 81.0138C67.7353 81.2085 74.1406 81.6859 77.0999 79.8168Z" fill="#371A45"/>
</g>
<g opacity="0.25">
<path d="M76.6203 63.2537C76.6678 64.7191 76.7367 66.1702 76.8127 67.581C73.2834 66.0159 68.6237 66.9801 66.4601 67.581C66.3009 65.8377 66.1846 64.6027 66.1846 64.6027L71.0343 60.3325L76.9029 57.5537L77.4824 54.6562C78.0762 60.3919 76.6203 63.2537 76.6203 63.2537Z" fill="#371A45"/>
</g>
<path d="M66.3938 64.5812C66.7002 66.1416 66.8878 67.7566 67.0493 69.336C67.2156 70.9272 67.3652 72.5185 67.4935 74.1121C67.579 75.1761 67.6526 76.2401 67.7048 77.3089C67.731 77.5131 67.598 77.7055 67.3985 77.7411C66.2822 78.0926 64.4511 78.8787 64.425 80.2254C64.3917 81.3867 65.2135 81.9211 66.2608 82.1539C67.3628 82.4009 68.5005 82.4056 69.6428 82.4175C71.5262 82.4056 73.4713 82.4127 75.2787 81.8689C75.5803 81.7691 75.92 81.6195 76.1385 81.4176C76.5683 80.9094 76.6301 80.1517 76.7227 79.4939C76.8035 78.7457 76.8248 77.981 76.8272 77.2115C76.7916 72.5636 76.3356 67.9252 76.2073 63.2678C76.205 63.1942 76.2216 63.1253 76.2525 63.066C76.3142 62.9401 76.3878 62.7525 76.4377 62.61C76.8486 61.4438 77.0481 60.2136 77.1455 58.981C77.2547 57.5607 77.2143 56.1238 77.0671 54.6965C77.0433 54.4661 77.2096 54.2618 77.44 54.2381C77.6703 54.2143 77.8746 54.3806 77.8983 54.611C78.0503 56.0787 78.0931 57.5631 77.9791 59.0451C77.8508 60.5414 77.611 62.059 76.9958 63.446L77.041 63.2441C77.1383 66.3387 77.345 69.4334 77.5088 72.5399C77.6133 74.8816 77.7725 77.2352 77.5516 79.5865C77.2927 81.9591 76.6847 82.5101 74.3548 82.9566C72.7873 83.2274 71.2127 83.2606 69.6357 83.2559C68.4553 83.244 67.2417 83.2345 66.0661 82.9685C64.6411 82.6597 63.5557 81.7929 63.5866 80.2254C63.608 78.589 65.2467 77.6532 66.5862 77.1355C66.7786 77.0619 66.9638 76.9977 67.1776 76.9384L66.8712 77.3706C66.591 74.3021 66.287 70.8821 66.0827 67.8231C66.0186 66.7591 65.9687 65.6951 65.9782 64.624C65.983 64.3746 66.3416 64.3319 66.3938 64.5812Z" fill="#371A45"/>
<path d="M70.5681 70.6565C69.2524 70.6565 67.8511 70.476 66.495 69.9749C66.2789 69.8941 66.1672 69.6542 66.248 69.4381C66.3287 69.222 66.5686 69.1104 66.7847 69.1911C71.2402 70.8346 76.4296 68.6995 76.4819 68.6757C76.6956 68.5855 76.9402 68.6876 77.0281 68.899C77.1184 69.1127 77.0186 69.3574 76.8049 69.4452C76.6457 69.5141 73.8765 70.6565 70.5681 70.6565Z" fill="#371A45"/>
<path d="M67.2246 76.9242C68.405 76.822 69.5664 76.8363 70.742 76.9218C71.1291 76.9503 71.5162 76.993 71.901 77.0382C72.015 77.0524 72.0981 77.1569 72.0839 77.2709C72.0696 77.3802 71.9746 77.4609 71.8677 77.4538C70.3644 77.4039 68.8301 77.487 67.3505 77.7483C66.7734 77.8457 66.6451 77.0002 67.2246 76.9242Z" fill="#371A45"/>
<path d="M57.8073 61.1991C58.6809 61.1991 59.3891 60.491 59.3891 59.6174C59.3891 58.7438 58.6809 58.0356 57.8073 58.0356C56.9338 58.0356 56.2256 58.7438 56.2256 59.6174C56.2256 60.491 56.9338 61.1991 57.8073 61.1991Z" fill="white"/>
<path d="M57.8074 61.6172C56.7054 61.6172 55.8076 60.7194 55.8076 59.6174C55.8076 58.5154 56.7054 57.6177 57.8074 57.6177C58.9094 57.6177 59.8071 58.5154 59.8071 59.6174C59.8071 60.7194 58.9117 61.6172 57.8074 61.6172ZM57.8074 58.4537C57.1661 58.4537 56.6436 58.9762 56.6436 59.6174C56.6436 60.2587 57.1661 60.7812 57.8074 60.7812C58.4486 60.7812 58.9711 60.2587 58.9711 59.6174C58.9711 58.9762 58.451 58.4537 57.8074 58.4537Z" fill="#371A45"/>
<path d="M58.8764 63.6574L68.0463 63.8451C69.1317 63.8688 70.0389 62.9972 70.0603 61.9118L70.1601 57.0312C70.1791 56.0788 69.5141 55.2666 68.6187 55.0647C68.4928 55.0362 68.3598 55.0196 68.2244 55.0172L59.0569 54.8296C57.9692 54.8058 57.0643 55.6774 57.0429 56.7628L56.9622 60.6269L56.9408 61.6411C56.9194 62.7288 57.7911 63.6361 58.8764 63.6574Z" fill="white"/>
<path d="M58.8764 63.6574L68.0463 63.8451C69.1317 63.8688 70.0389 62.9972 70.0603 61.9118L70.1601 57.0312C70.1791 56.0788 69.5141 55.2666 68.6187 55.0647C68.4928 55.0362 68.3598 55.0196 68.2244 55.0172L59.0569 54.8296C57.9692 54.8058 57.0643 55.6774 57.0429 56.7628L56.9622 60.6269L56.9408 61.6411C56.9194 62.7288 57.7911 63.6361 58.8764 63.6574Z" fill="white"/>
<path d="M58.8764 63.6574L68.0463 63.8451C69.1317 63.8688 70.0389 62.9972 70.0603 61.9118L70.1601 57.0312C70.1791 56.0788 69.5141 55.2666 68.6187 55.0647C68.4928 55.0362 68.3598 55.0196 68.2244 55.0172L59.0569 54.8296C57.9692 54.8058 57.0643 55.6774 57.0429 56.7628L56.9622 60.6269L56.9408 61.6411C56.9194 62.7288 57.7911 63.6361 58.8764 63.6574Z" fill="white"/>
<g opacity="0.25">
<path d="M58.8627 63.6577L68.0326 63.8453C69.1179 63.8691 70.0252 62.9974 70.0466 61.9121L70.1463 57.0314C70.1653 56.0791 69.5003 55.2668 68.6049 55.0649C68.0777 55.3998 67.7428 55.6136 67.7428 55.6136C67.2156 59.5204 66.0613 61.4513 61.1949 61.4323C59.0954 61.4228 57.7749 61.0761 56.9484 60.6272L56.9271 61.6413C56.9081 62.7314 57.7773 63.6363 58.8627 63.6577Z" fill="#371A45"/>
</g>
<path d="M68.02 64.2633C68.0034 64.2633 67.9868 64.2633 67.9678 64.2633L58.9333 64.0781C58.2778 64.0638 57.6674 63.7955 57.2114 63.3205C56.7554 62.8455 56.5108 62.2232 56.525 61.5677L56.6224 56.8225C56.6509 55.4663 57.7766 54.3833 59.1328 54.4142L68.1672 54.5995C68.8227 54.6137 69.4331 54.8821 69.8891 55.3571C70.3451 55.8321 70.5898 56.4543 70.5755 57.1098L70.4781 61.8551C70.452 63.1922 69.3548 64.2633 68.02 64.2633ZM67.9868 63.4273C68.419 63.4345 68.8299 63.2753 69.1434 62.9737C69.4569 62.6721 69.635 62.2683 69.6445 61.8361L69.7419 57.0908C69.7514 56.6586 69.5899 56.2477 69.2882 55.9342C68.9866 55.6207 68.5829 55.4426 68.1506 55.4331L59.1161 55.2478C58.2184 55.2336 57.4774 55.9437 57.4584 56.8391L57.361 61.5843C57.3515 62.0166 57.513 62.4275 57.8146 62.741C58.1163 63.0545 58.52 63.2326 58.9523 63.2421L67.9868 63.4273Z" fill="#371A45"/>
<path d="M62.1201 63.6907L62.1367 63.7263L68.0457 63.8474C68.8414 63.8617 69.5396 63.4009 69.865 62.7241C69.9837 62.4794 70.0526 62.2039 70.0597 61.9142L70.1049 59.7458L70.1191 59.0309L70.1452 57.7746L70.1619 57.0336C70.1832 55.9458 69.314 55.0409 68.2286 55.0172L66.2479 54.9768C67.1575 55.1668 67.8367 55.9862 67.8177 56.9481L67.7892 58.3968L67.7631 59.5843L67.718 61.8311C67.6942 62.9164 66.787 63.7857 65.7016 63.7643L62.1201 63.6907Z" fill="white"/>
<g opacity="0.25">
<path d="M61.1855 63.6718L61.2022 63.7074L68.0469 63.8475C68.8426 63.8618 69.5408 63.401 69.8662 62.7242C69.9849 62.4795 70.0538 62.204 70.0609 61.9143L70.106 59.7459L70.1203 59.031L70.1464 57.7747C69.7498 57.7105 69.2225 57.7557 68.9233 58.3375C68.51 59.1427 68.0944 58.8624 67.788 58.3993L67.7619 59.5868L67.7168 61.8335C67.693 62.9189 66.7858 63.7882 65.7004 63.7668L61.1855 63.6718Z" fill="#371A45"/>
</g>
<path d="M68.0898 64.2657C68.0732 64.2657 68.0565 64.2657 68.0375 64.2657L59.3213 64.0876L59.326 63.672C59.3308 63.3727 59.5327 63.2896 59.7512 63.2706V63.2611L59.896 63.2635C59.934 63.2635 59.972 63.2635 60.0077 63.2635L65.71 63.3466C66.1233 63.3537 66.5199 63.2017 66.8192 62.912C67.1208 62.6222 67.2918 62.2351 67.2989 61.8218L67.3987 56.9412C67.4129 56.1955 66.8928 55.54 66.1613 55.3856L66.2563 54.5591L68.237 54.5995C68.8735 54.6137 69.4697 54.875 69.9138 55.3357C70.3579 55.7988 70.5954 56.4045 70.5812 57.041L70.4814 61.9216C70.4695 62.5581 70.2059 63.1542 69.7452 63.5983C69.2915 64.0282 68.7073 64.2657 68.0898 64.2657ZM67.4913 63.4178L68.0542 63.4297C68.4674 63.4368 68.8617 63.2848 69.1609 62.9951C69.4625 62.7053 69.6335 62.3182 69.6407 61.905L69.7404 57.0243C69.7499 56.6111 69.5955 56.2168 69.3058 55.9152C69.016 55.6136 68.6289 55.4426 68.2157 55.4355L67.7145 55.426C68.0494 55.8487 68.2442 56.3855 68.2323 56.9602L68.1325 61.8408C68.1207 62.4298 67.895 62.9856 67.4913 63.4178Z" fill="#371A45"/>
<path d="M64.1485 59.3538C64.1461 59.5343 64.3788 60.9949 64.3788 60.9949C64.3788 60.9949 64.8396 61.002 65.4072 61.0092C66.115 61.0187 66.6992 60.2943 66.7134 59.3918C66.7277 58.4869 66.1648 57.7459 65.4547 57.7364C64.9773 57.7293 64.4263 57.7222 64.4263 57.7222C64.4263 57.7222 64.1532 59.0593 64.1485 59.3538Z" fill="#22A7F0"/>
<path d="M64.1485 59.3538C64.1461 59.5343 64.3788 60.9949 64.3788 60.9949C64.3788 60.9949 64.8396 61.002 65.4072 61.0092C66.115 61.0187 66.6992 60.2943 66.7134 59.3918C66.7277 58.4869 66.1648 57.7459 65.4547 57.7364C64.9773 57.7293 64.4263 57.7222 64.4263 57.7222C64.4263 57.7222 64.1532 59.0593 64.1485 59.3538Z" fill="#1C7AEA"/>
<path d="M65.4215 61.3253C65.4143 61.3253 65.4096 61.3253 65.4025 61.3253L64.6876 61.3158C64.3527 61.311 64.0701 61.0664 64.0202 60.7363C63.8326 59.525 63.835 59.3992 63.835 59.354C63.8373 59.1783 63.9133 58.7128 64.0582 57.9694C64.1223 57.644 64.4073 57.4137 64.7422 57.416L65.4595 57.4255C65.9012 57.4327 66.3073 57.6512 66.6042 58.043C66.8845 58.4112 67.0341 58.8933 67.027 59.4015C67.0103 60.4655 66.2931 61.3253 65.4215 61.3253ZM64.462 59.3588C64.4643 59.4277 64.5095 59.8029 64.6401 60.6389C64.6448 60.6674 64.6686 60.6888 64.6971 60.6888L65.412 60.6983C65.4143 60.6983 65.4191 60.6983 65.4215 60.6983C65.9511 60.6983 66.3881 60.114 66.4 59.3897C66.4047 59.0215 66.3002 58.6772 66.1055 58.4207C65.9273 58.1855 65.6946 58.0549 65.45 58.0525L64.7327 58.043C64.7018 58.0478 64.6805 58.062 64.6733 58.0905C64.5213 58.8672 64.4643 59.2543 64.462 59.3588Z" fill="#371A45"/>
<path d="M65.6866 59.3764C65.7 58.4727 65.1367 57.7317 64.4285 57.7212C63.7202 57.7107 63.1353 58.4347 63.1219 59.3384C63.1085 60.2421 63.6718 60.9831 64.38 60.9936C65.0883 61.0041 65.6732 60.28 65.6866 59.3764Z" fill="#22A7F0"/>
<g opacity="0.7">
<path d="M65.6844 59.3779C65.6844 59.4467 65.6797 59.5132 65.6726 59.5774C65.5467 58.8577 65.0503 58.3162 64.4447 58.3067C63.7892 58.2972 63.2406 58.9171 63.1503 59.7246C63.1289 59.6011 63.1171 59.4705 63.1194 59.3375C63.1337 58.4326 63.7179 57.7082 64.4257 57.7201C65.1334 57.732 65.6963 58.473 65.6844 59.3779Z" fill="white"/>
</g>
<path d="M65.685 59.3776C65.6707 60.2801 65.0865 61.0068 64.3787 60.9949C63.671 60.9831 63.1081 60.2421 63.1223 59.3372C63.1247 59.1947 63.1413 59.0569 63.1698 58.9239C63.348 59.5367 63.8063 59.9737 64.3478 59.9832C64.944 59.9927 65.4522 59.4797 65.6066 58.7791C65.6588 58.9643 65.6873 59.1662 65.685 59.3776Z" fill="#1C7AEA"/>
<path d="M64.3938 61.3089C64.3867 61.3089 64.3796 61.3089 64.3724 61.3089C63.9307 61.3017 63.5246 61.0832 63.2277 60.6914C62.9474 60.3232 62.7978 59.8411 62.8049 59.3329C62.8121 58.827 62.9759 58.3472 63.2681 57.9886C63.5721 57.6134 63.9758 57.4067 64.4104 57.4067C64.4176 57.4067 64.4247 57.4067 64.4318 57.4067C64.8736 57.4139 65.2797 57.6324 65.5766 58.0242C65.8568 58.3924 66.0064 58.8745 65.9993 59.3827C65.9922 59.891 65.8283 60.3684 65.5362 60.727C65.2322 61.1022 64.8284 61.3089 64.3938 61.3089ZM63.4343 59.3447C63.4296 59.7129 63.5341 60.0572 63.7288 60.3137C63.9069 60.5489 64.1397 60.6795 64.3843 60.6819C64.6242 60.6866 64.8641 60.5607 65.0493 60.3327C65.2512 60.081 65.3676 59.7414 65.3723 59.3732C65.3771 59.0051 65.2726 58.6607 65.0778 58.4042C64.8997 58.1691 64.6669 58.0385 64.4223 58.0361C64.4199 58.0361 64.4152 58.0361 64.4128 58.0361C64.1729 58.0361 63.9402 58.1596 63.7573 58.3852C63.5554 58.6346 63.4391 58.9766 63.4343 59.3447Z" fill="#371A45"/>
<path d="M61.7296 63.9947C61.5563 63.9947 61.4161 63.8545 61.4161 63.6812L61.409 61.2112C61.4066 60.7433 61.1739 60.3087 60.782 60.0522C60.2001 59.6698 59.8605 59.0262 59.8724 58.3303L59.9317 54.8485C59.9341 54.6775 60.0743 54.5398 60.2453 54.5398C60.2476 54.5398 60.25 54.5398 60.25 54.5398C60.4234 54.5422 60.5611 54.6847 60.5588 54.858L60.4994 58.3398C60.4923 58.8195 60.725 59.2637 61.1264 59.5273C61.694 59.9002 62.0336 60.5295 62.036 61.2088L62.0431 63.6788C62.0431 63.8545 61.903 63.9947 61.7296 63.9947Z" fill="#371A45"/>
<path d="M77.5463 57.062C77.5463 57.062 78.3918 57.7959 78.2897 59.0261C78.1828 60.3205 77.1734 60.6863 77.1734 60.6863C77.1734 60.6863 73.4613 62.154 70.0721 61.1494C70.0721 61.1494 68.1603 59.8051 70.1196 57.8695C70.122 57.8695 74.2688 58.8836 77.5463 57.062Z" fill="white"/>
<g opacity="0.25">
<path d="M78.2924 59.0261C78.1856 60.3204 77.1738 60.6862 77.1738 60.6862C77.1738 60.6862 73.4617 62.1539 70.0726 61.1469C70.0726 61.1469 68.7521 60.2159 69.4337 58.7909C69.4456 58.8218 69.4598 58.8527 69.4741 58.8836C69.7068 59.3704 70.1676 59.7148 70.6948 59.8288C73.9201 60.5342 77.2332 59.2232 77.2332 59.2232C77.2332 59.2232 77.9053 58.9786 78.2117 58.1853C78.2806 58.4323 78.3162 58.7126 78.2924 59.0261Z" fill="#371A45"/>
</g>
<path d="M72.6778 61.9214C71.7991 61.9214 70.8705 61.8216 69.9561 61.5485L69.8896 61.5295L69.8326 61.4891C69.7946 61.463 68.9158 60.8336 68.8256 59.7744C68.7638 59.0286 69.0987 58.2876 69.8254 57.5704L69.9917 57.4065L70.2197 57.4611C70.2601 57.4706 74.2525 58.4111 77.3447 56.694L77.6012 56.5515L77.8221 56.7439C77.8625 56.7795 78.8267 57.6321 78.708 59.0595C78.5821 60.6033 77.3685 61.0593 77.3162 61.0783C77.2093 61.1234 75.1502 61.9214 72.6778 61.9214ZM70.2672 60.7719C73.4521 61.6791 76.9837 60.3135 77.0193 60.2993C77.0573 60.285 77.7912 59.9881 77.8743 58.993C77.929 58.328 77.6535 57.8411 77.4563 57.5823C74.5541 59.0381 71.184 58.5133 70.2601 58.328C69.8278 58.803 69.6259 59.2638 69.6592 59.7008C69.7043 60.2541 70.1247 60.6508 70.2672 60.7719Z" fill="#371A45"/>
<path d="M34.0225 65.7402C35.0271 71.3262 33.6615 79.2136 34.4761 80.28C35.3786 81.4627 39.0361 81.7121 41.651 81.2513C43.2992 81.3321 44.2611 81.2585 44.5865 80.622C46.0352 77.7957 40.359 76.9478 40.359 76.9478C40.359 76.9478 43.3633 69.45 42.6437 62.002" fill="#62ED2E"/>
<path d="M41.4752 79.2229C41.8148 79.7906 42.4845 80.1421 43.1448 80.1041C43.805 80.0661 44.4273 79.6362 44.698 79.0329C44.9925 79.6314 44.9379 80.4508 44.4083 80.8546C44.0829 81.1016 43.6483 81.1514 43.2398 81.1586C42.6674 81.1704 42.095 81.1182 41.5369 81.0042C41.867 80.3677 41.7625 79.5317 41.2828 78.9973C41.1498 79.0828 41.0168 79.1707 40.8838 79.2562" fill="#2BC614"/>
<path d="M40.9288 74.1382C40.5845 73.371 39.7865 72.8295 38.9481 72.7939C38.1073 72.7583 37.2666 73.2309 36.8605 73.9672C36.585 74.4659 36.5066 75.0502 36.4496 75.6178C36.3403 76.7412 36.3023 77.874 36.3356 79.0022C36.3427 79.2515 36.3593 79.5199 36.509 79.7194C36.6396 79.8952 36.851 79.9902 37.0552 80.0733C37.7867 80.3678 38.5728 80.5887 39.3566 80.5127C40.1427 80.4367 40.9288 80.0092 41.2613 79.2967C41.5582 79.8025 41.8479 80.4652 41.4917 80.9283C41.2328 81.2655 40.7531 81.3178 40.328 81.3439C38.5657 81.446 36.7037 81.5292 35.1338 80.7169C34.8156 80.5507 34.4973 80.3322 34.3501 80.0044C34.2313 79.7408 34.2385 79.4392 34.2456 79.1518C34.3145 76.6984 34.3833 74.245 34.4522 71.7917C34.6541 72.098 35.1053 72.0648 35.464 71.984C37.9458 71.4259 40.3113 70.3477 42.3586 68.8372C42.1448 70.6659 41.7245 72.4709 41.1093 74.2047" fill="#2BC614"/>
<path d="M34.4329 65.6664C35.1454 69.806 34.6942 73.9812 34.6206 78.1304C34.6229 78.6885 34.6158 79.2324 34.7156 79.7572C34.7464 79.8855 34.7607 79.971 34.8272 80.0494C35.1929 80.4484 35.7226 80.6051 36.2712 80.7571C38.0121 81.1704 39.9049 81.1039 41.6719 80.8307C42.3868 80.8545 43.2513 80.9257 43.8949 80.693C44.2037 80.5814 44.2773 80.3225 44.3604 80.0541C44.7238 78.6267 42.4984 77.9119 41.4344 77.6079C41.0592 77.5081 40.6673 77.4179 40.2968 77.3585C40.0712 77.33 39.9121 77.121 39.9429 76.8954C40.1401 76.2755 40.3728 75.6485 40.5581 75.0096C41.4558 72.0076 42.0994 68.913 42.3084 65.7827C42.4011 64.5311 42.4248 63.2795 42.4367 62.016C42.4367 61.8996 42.5317 61.807 42.6481 61.8094C42.7502 61.8094 42.8333 61.883 42.8523 61.9804C43.2204 63.8804 43.1919 65.835 42.9972 67.7516C42.6671 70.9531 41.9284 74.1047 40.7457 77.102L40.4203 76.5344C40.8478 76.6032 41.2468 76.6935 41.6529 76.8027C43.2276 77.2302 45.6762 78.2064 45.1703 80.2679C45.1038 80.5125 45.0112 80.7429 44.8758 80.9542C44.7072 81.206 44.4507 81.3746 44.2156 81.4696C43.3772 81.7807 42.4913 81.6929 41.6316 81.6691L41.7242 81.6644C39.7909 82.0064 35.5041 82.1655 34.1479 80.541C33.9318 80.2441 33.8843 79.8902 33.8416 79.5554C33.7869 79.0637 33.7869 78.5959 33.7869 78.128C33.8202 75.8266 33.9959 73.5229 33.9936 71.2381C33.9959 69.4141 33.9271 67.5854 33.6136 65.816C33.5304 65.2745 34.3166 65.1201 34.4329 65.6664Z" fill="#371A45"/>
<path d="M43.7355 65.7496C42.9684 69.3501 39.9118 71.053 36.1284 71.5185C32.1503 72.0101 27.4121 69.9961 26.3648 66.7542C26.0703 65.8422 25.9016 64.9611 25.8304 64.1014C25.2746 57.3801 30.6896 52.1694 27.9323 46.6807C26.6759 44.1799 36.962 43.4507 39.9403 49.7825C41.4626 53.0172 42.8211 55.6131 43.5503 58.2707C44.1796 60.5697 44.3435 62.9115 43.7355 65.7496Z" fill="#62ED2E"/>
<path d="M43.7362 65.7498C42.9691 69.3503 39.9124 71.0532 36.1291 71.5187C32.1509 72.0103 27.4128 69.9963 26.3654 66.7544C26.0709 65.8424 25.9023 64.9613 25.8311 64.1016C27.7714 66.2533 31.2247 66.6215 32.9347 65.4268C36.6302 62.8476 33.3836 59.4585 33.4263 56.9077C33.4524 55.2713 38.7748 56.6773 43.5486 58.2709C44.1803 60.5699 44.3442 62.9117 43.7362 65.7498Z" fill="#2BC614"/>
<path d="M34.9122 72.0104C33.2426 72.0104 31.4969 71.6304 29.9698 70.9155C27.9178 69.956 26.4952 68.5263 25.9656 66.8828C24.6118 62.7004 25.8611 59.0476 26.9607 55.8248C28.0674 52.5853 29.0246 49.7875 27.5568 46.8686C27.3383 46.4364 27.3597 45.9875 27.6138 45.6075C28.1814 44.7596 29.9176 44.3131 32.0337 44.4723C34.9763 44.6931 38.6956 46.1585 40.3177 49.6046C40.5861 50.177 40.8497 50.728 41.1062 51.2624C43.5738 56.4233 45.3574 60.1496 44.1438 65.833C43.4099 69.2696 40.6549 71.3763 36.1781 71.9296C35.7648 71.9866 35.3421 72.0104 34.9122 72.0104ZM28.3049 46.4958C29.9294 49.7281 28.8726 52.8204 27.7539 56.0979C26.6424 59.3493 25.4953 62.7099 26.7612 66.6286C27.6946 69.5119 32.0479 71.6043 36.0783 71.1055C38.9307 70.754 42.5027 69.5238 43.3292 65.6644C44.4834 60.2589 42.7521 56.6394 40.3557 51.6281C40.0992 51.0914 39.8332 50.538 39.5648 49.9656C38.0947 46.8425 34.6794 45.5149 31.9743 45.3106C30.0268 45.1634 28.6351 45.5956 28.3121 46.0778C28.2479 46.168 28.2004 46.2891 28.3049 46.4958Z" fill="#371A45"/>
<path d="M36.8076 64.6861C37.2802 63.4107 38.5604 62.7101 39.6671 63.121C40.7739 63.5318 41.2869 64.8975 40.8119 66.1728C40.3392 67.4482 39.0591 68.1488 37.9524 67.738" fill="#62ED2E"/>
<path d="M36.6104 64.6145C36.9311 63.3795 38.2349 62.3868 39.5388 62.6789C40.9306 62.9782 41.6359 64.5053 41.3343 65.8187C41.0517 67.3315 39.3963 68.6402 37.8787 67.9348C37.6483 67.8232 37.7789 67.4764 38.0236 67.5429C38.8026 67.7353 39.6124 67.3505 40.0708 66.7164C41.0256 65.5123 40.5886 63.2964 38.8192 63.3819C38.0283 63.446 37.3491 64.0421 37.0023 64.7594C36.8931 64.9898 36.5416 64.8592 36.6104 64.6145Z" fill="#371A45"/>
<path d="M40.8116 66.1723C40.3366 67.4476 39.0565 68.1483 37.9521 67.7398C37.9521 67.7398 37.2966 67.4975 36.9404 66.5499C36.5817 65.6023 36.8074 64.6855 36.8074 64.6855C36.9617 64.2723 37.1992 63.9184 37.4914 63.6453C36.8976 64.7971 37.09 66.0963 37.9664 66.6259C38.8902 67.184 40.2274 66.6663 40.9517 65.4693C40.9612 65.4526 40.9707 65.436 40.9802 65.4194C40.9589 65.6688 40.9042 65.9229 40.8116 66.1723Z" fill="#2BC614"/>
<g opacity="0.7">
<path d="M40.8119 66.1728C40.6955 66.484 40.5316 66.7618 40.3345 66.9946C40.6955 65.7738 40.1801 64.5198 39.128 64.1303C38.3347 63.8358 37.4489 64.1137 36.8385 64.7692L36.8076 64.6861C37.2802 63.4107 38.5604 62.7101 39.6671 63.121C40.7715 63.5318 41.2869 64.8975 40.8119 66.1728Z" fill="white"/>
</g>
<path d="M36.6104 64.6145C36.9311 63.3795 38.2349 62.3868 39.5388 62.6789C40.9306 62.9782 41.6359 64.5053 41.3343 65.8187C41.0517 67.3315 39.3963 68.6402 37.8787 67.9348C37.6483 67.8232 37.7789 67.4764 38.0236 67.5429C38.8026 67.7353 39.6124 67.3505 40.0708 66.7164C41.0256 65.5123 40.5886 63.2964 38.8192 63.3819C38.0283 63.446 37.3491 64.0421 37.0023 64.7594C36.8931 64.9898 36.5416 64.8592 36.6104 64.6145Z" fill="#371A45"/>
<path d="M39.4123 66.2202C39.3387 66.2202 39.2366 65.8829 38.8993 65.4626C38.365 65.5552 38.0681 65.7452 38.0135 65.6977C37.9588 65.6502 38.1631 65.3106 38.6761 65.1704C38.384 64.7263 38.4528 64.3392 38.5265 64.3416C38.6001 64.3416 38.6998 64.6788 39.0395 65.0992C39.5738 65.0066 39.8707 64.8166 39.9253 64.8641C39.98 64.9139 39.7781 65.2512 39.2627 65.3913C39.5525 65.8331 39.4836 66.2202 39.4123 66.2202Z" fill="#371A45"/>
<path d="M40.2163 81.0091C40.9383 81.0043 41.5012 80.5887 41.1853 79.8334C40.8718 79.1281 39.9883 78.6626 39.2473 78.4583C39.0193 78.3942 39.0644 78.0546 39.2972 78.0474C40.3422 78.0332 41.4418 78.5106 41.9525 79.4677C42.6151 80.7906 41.5819 81.9852 40.1902 81.8451C39.6653 81.7976 39.6891 81.0281 40.2163 81.0091Z" fill="#371A45"/>
<path d="M46.8681 42.838C45.2008 46.524 41.9969 49.5165 36.5463 50.6969C36.5463 50.6969 34.0573 51.1291 32.9838 51.0175L30.4212 51.0555C26.3148 50.7349 22.5789 49.4738 19.5294 47.5951C15.3637 45.023 12.4804 41.2966 11.6919 37.2354C9.65418 26.7569 15.4492 15.9031 25.9277 13.8678C36.4062 11.8324 45.8444 19.7245 47.8798 30.203C48.6826 34.3308 48.6208 38.9691 46.8681 42.838Z" fill="#62ED2E"/>
<path d="M46.8679 42.8384C45.2007 46.5244 41.9968 49.5169 36.5462 50.6973C36.5462 50.6973 34.0572 51.1295 32.9837 51.0179L30.421 51.0559C26.3147 50.7353 22.5788 49.4741 19.5293 47.5955L19.5554 47.5575C19.5554 47.5599 34.3683 53.1934 46.8679 42.8384Z" fill="#2BC614"/>
<g opacity="0.7">
<path d="M17.9146 20.6466C17.6795 21.0931 17.6249 21.4945 17.7959 21.7961C18.2733 22.6345 20.3348 22.359 22.3986 21.181C24.4601 20.003 25.745 18.369 25.2653 17.5306C25.0254 17.1126 24.3936 16.9701 23.5648 17.0793C24.4863 16.7255 25.4576 16.4452 26.4694 16.2481C36.4658 14.3053 45.5145 21.4018 48.0938 31.1583C48.0534 30.7831 47.9964 30.4055 47.9228 30.0278C45.8874 19.5493 36.4491 11.6548 25.9706 13.6926C15.4921 15.728 9.69715 26.5817 11.7349 37.0602C11.8085 37.4378 11.8988 37.8107 12.0009 38.1741C11.1649 31.5383 13.4021 24.9216 17.9146 20.6466Z" fill="white"/>
</g>
<path d="M32.9889 51.2458C32.3928 51.4026 31.7848 51.4477 31.1792 51.4453C23.3512 51.2814 15.174 47.0444 11.9868 39.6344C11.5094 38.5039 11.2339 37.2879 11.0772 36.0719C9.63792 26.3154 15.2999 15.7348 25.3343 13.5712C35.3877 11.2199 44.9542 18.3568 47.7543 27.8782C49.1009 32.5308 49.3337 37.6489 47.607 42.2469C45.897 46.8711 41.4677 50.4407 36.5752 50.9062C36.3044 50.9157 36.2688 50.5571 36.5182 50.4929C37.7437 49.9989 38.9882 49.6403 40.1709 49.0513C42.1255 48.1203 43.8736 46.7309 45.1323 44.9639C48.2127 40.6319 48.4027 34.8916 47.3529 29.8304C44.6288 16.9579 30.5997 9.13468 19.2115 17.2714C13.0365 21.8433 10.5262 30.3102 12.2172 37.6751C13.2598 41.6366 16.2048 44.8618 19.5915 47.0539C22.5484 48.9516 25.966 50.0916 29.4525 50.4811C30.6329 50.6283 31.799 50.5856 32.9747 50.8302C33.1955 50.8658 33.2074 51.1936 32.9889 51.2458Z" fill="#371A45"/>
<path d="M47.2419 27.4862C48.4341 28.6167 49.6881 31.8989 48.2797 35.8296C46.8737 39.7626 43.2044 40.7672 41.8696 39.3897C40.846 38.3328 39.7915 35.1931 41.1975 31.2624C42.6059 27.3294 46.0211 26.3296 47.2419 27.4862Z" fill="#371A45"/>
<g opacity="0.5">
<path d="M41.0491 37.6606C40.8425 36.2593 40.9375 34.5089 41.631 32.5662C43.037 28.6332 46.4523 27.6333 47.673 28.7876C48.0768 29.1699 48.4853 29.7969 48.7988 30.6116C48.5494 28.9776 47.8868 27.7378 47.2408 27.1274C46.02 25.9708 42.6048 26.9731 41.1988 30.9037C40.1894 33.7228 40.4459 36.1311 41.0491 37.6606Z" fill="white"/>
</g>
<g opacity="0.35">
<path d="M41.8713 39.3916C43.206 40.7691 46.8754 39.7621 48.2814 35.8315C49.3098 32.9553 48.9179 30.4283 48.165 28.8347C48.2767 30.1006 48.1389 31.5636 47.5784 33.1311C46.1724 37.0641 42.5054 38.0711 41.1683 36.6912C40.9569 36.4727 40.7432 36.164 40.5508 35.7792C40.6909 37.5011 41.287 38.786 41.8713 39.3916Z" fill="#111A28"/>
</g>
<path d="M24.2042 33.5757C23.3919 35.1954 23.5843 38.7389 27.1587 41.4559C30.7331 44.1753 35.4569 43.135 36.3072 41.2255C36.9603 39.7578 36.6136 36.4447 33.0368 33.7253C29.4601 31.0059 25.0354 31.9179 24.2042 33.5757Z" fill="#371A45"/>
<g opacity="0.5">
<path d="M24.1396 37.0907C24.0921 36.2072 24.2512 35.4353 24.5267 34.8867C25.358 33.229 29.785 32.317 33.3617 35.0363C35.1358 36.3853 36.1143 37.8792 36.5727 39.2211C36.5015 37.561 35.5966 35.3118 33.0387 33.3691C29.4643 30.6497 25.035 31.5617 24.2037 33.2195C23.7643 34.0935 23.6195 35.5256 24.1396 37.0907Z" fill="white"/>
</g>
<g opacity="0.35">
<path d="M27.1585 41.4582C30.7329 44.1776 35.4568 43.1373 36.307 41.2278C36.6799 40.3894 36.725 38.9502 36.0315 37.3613C36.003 37.8007 35.9104 38.1854 35.775 38.4871C34.9248 40.3989 30.2009 41.4392 26.6265 38.7198C25.2015 37.6344 24.3133 36.4208 23.8122 35.2476C23.7385 37.0407 24.546 39.4703 27.1585 41.4582Z" fill="#111A28"/>
</g>
<path d="M43.4338 40.3943C42.6786 40.3943 42.0231 40.1497 41.5718 39.6818C40.4912 38.5656 39.3275 35.2548 40.8071 31.1223C41.7808 28.403 43.6666 27.0658 45.1082 26.7215C46.0891 26.4863 46.9726 26.655 47.5307 27.1846C48.7705 28.3578 50.1765 31.7802 48.6755 35.9721C47.7088 38.6725 45.7637 39.9787 44.2651 40.3041C43.9777 40.3634 43.6975 40.3943 43.4338 40.3943ZM45.9395 27.453C45.7376 27.453 45.5238 27.4791 45.3006 27.5313C44.0727 27.8258 42.453 28.9967 41.5932 31.4026C40.2418 35.1788 41.2298 38.1286 42.1727 39.1C42.5741 39.5132 43.289 39.6581 44.0893 39.4847C45.3695 39.2068 47.0391 38.0644 47.8893 35.6894C49.1837 32.0747 48.1221 28.8946 46.956 27.7902C46.7208 27.5693 46.3622 27.453 45.9395 27.453Z" fill="#371A45"/>
<path d="M32.0675 43.5222C30.462 43.5222 28.5834 43.0638 26.9066 41.7884C23.0639 38.8648 22.9807 35.0838 23.831 33.388C24.2062 32.6399 25.1277 32.0485 26.3651 31.7612C28.6594 31.2292 31.2505 31.8395 33.293 33.3928C37.0811 36.2737 37.3875 39.829 36.6916 41.3942C36.3092 42.2539 35.3117 42.9474 33.958 43.2942C33.4022 43.4367 32.7586 43.5222 32.0675 43.5222ZM24.5767 33.7633C23.793 35.3284 24.154 38.6463 27.4125 41.1258C29.5761 42.7717 32.1055 42.9094 33.749 42.4867C34.8391 42.2064 35.6537 41.672 35.9269 41.0569C36.5182 39.7269 36.1905 36.6489 32.7847 34.0602C30.6092 32.4048 28.1392 32.21 26.5504 32.5782C25.5742 32.8038 24.8356 33.2455 24.5767 33.7633Z" fill="#371A45"/>
<path d="M39.6201 40.6459C39.5369 40.9285 39.5987 41.1945 39.7554 41.2397C39.9122 41.2848 40.1069 41.0924 40.1877 40.8098C40.2708 40.5272 40.2091 40.2612 40.0523 40.216C39.8956 40.1709 39.7008 40.3633 39.6201 40.6459Z" fill="#371A45"/>
<path d="M39.306 41.3528C39.4244 41.2394 39.3555 40.9755 39.1522 40.7633C38.949 40.5512 38.6882 40.4712 38.5698 40.5846C38.4514 40.6981 38.5203 40.962 38.7236 41.1741C38.9269 41.3863 39.1876 41.4663 39.306 41.3528Z" fill="#371A45"/>
<path d="M31.3549 27.0704L29.0915 28.8849C28.6735 28.0038 28.265 27.2984 27.8684 26.7379C26.2748 24.4912 24.8617 24.6052 23.857 25.2963C22.4843 26.2392 22.6672 28.8255 22.6672 28.8255C24.1159 30.0059 22.7384 31.5639 21.4559 31.4903C20.3468 31.4262 19.5868 29.8088 20.836 28.721C20.7743 28.2057 20.4418 23.6955 23.3773 22.6767C26.27 21.6744 28.5809 23.4509 29.956 25.0398C30.8372 26.0587 31.3335 26.9992 31.3549 27.0704Z" fill="#62ED2E"/>
<g opacity="0.5">
<path d="M30.8891 26.2724C30.8369 26.2107 30.7822 26.1465 30.7276 26.0824C29.2741 24.4057 26.8516 22.5864 23.776 23.5863C21.23 24.4128 21.5672 28.5382 21.6314 29.0844C20.8144 29.6805 20.5626 30.5902 20.47 30.9155C20.0567 30.3337 20.033 29.4193 20.8334 28.721C20.7716 28.2057 20.4391 23.6955 23.3746 22.6767C26.2674 21.6744 28.5782 23.4509 29.9534 25.0398C30.3429 25.4887 30.6564 25.9209 30.8891 26.2724Z" fill="white"/>
</g>
<path d="M31.3547 27.0706C31.3547 27.0706 31.3072 27.8686 30.5234 28.422C29.7397 28.973 29.0913 28.8875 29.0913 28.8875C28.6733 28.0064 28.2648 27.301 27.8682 26.7405C28.7873 26.7998 30.1173 26.6336 29.9558 25.0376C30.8369 26.0588 31.3333 26.9994 31.3547 27.0706Z" fill="#31C418"/>
<path d="M31.1526 27.1279C30.1361 25.4631 28.6209 23.7958 26.7304 23.0809C25.5191 22.6321 24.1108 22.6914 22.985 23.3327C22.4649 23.6533 22.0778 24.1616 21.8118 24.7482C21.4009 25.6341 21.256 26.6791 21.2251 27.6694C21.218 27.9972 21.2228 28.3534 21.2489 28.6717C21.2655 28.8142 21.2085 28.9496 21.1088 29.0374C20.4153 29.5908 20.4176 30.6952 21.2845 31.0396C21.8403 31.1987 22.5338 30.8187 22.776 30.3223C23.0064 29.8806 22.7594 29.4341 22.4008 29.1538C22.3081 29.0778 22.2559 28.9686 22.2488 28.8593C22.2108 28.3534 22.2345 27.8689 22.3129 27.3702C22.4316 26.6221 22.6976 25.8193 23.2629 25.2541C23.8471 24.6793 24.7164 24.3611 25.5334 24.5107C27.4524 24.9026 28.5686 27.1873 29.2811 28.8023C29.3809 29.0469 29.0294 29.2156 28.9035 28.9804C28.4689 28.1682 27.9986 27.3749 27.4334 26.6791C26.9085 26.0449 26.2269 25.3847 25.4123 25.2683C24.6523 25.1733 23.8804 25.6341 23.5408 26.3181C23.1821 27.0306 23.0705 27.9568 23.08 28.8023L22.928 28.5078C23.0705 28.6266 23.2083 28.7596 23.3294 28.9139C24.3459 30.2131 23.1156 31.8423 21.6479 31.9112C20.8119 31.9848 20.0258 31.3246 19.8358 30.5289C19.6125 29.7571 19.9688 28.8997 20.5601 28.4081L20.42 28.7738C20.3321 28.0281 20.344 27.2966 20.4248 26.5508C20.5934 25.0641 21.1705 23.4111 22.5385 22.6012C23.878 21.8364 25.5928 21.8056 27.0011 22.3827C28.3763 22.9361 29.5044 23.9811 30.3974 25.1329C30.8225 25.6934 31.2144 26.2824 31.5184 26.9189C31.5279 26.9474 31.5493 26.9831 31.5564 27.0163C31.6229 27.2823 31.2334 27.3916 31.1526 27.1279Z" fill="#371A45"/>
<path d="M55.5181 20.2787C54.8317 21.2287 53.4328 20.6254 53.136 19.5092C52.8011 19.198 46.2176 15.398 44.3176 21.725C44.0967 22.4613 43.94 23.3353 43.864 24.366L41.2158 24.2378C41.1873 24.1618 41.3061 22.9553 41.8286 21.4757C42.4603 19.692 43.6858 17.5118 45.9587 16.4478C49.4523 14.8138 53.7938 17.8728 54.1881 18.1174C55.2711 18.0842 56.3802 19.0864 55.5181 20.2787Z" fill="#62ED2E"/>
<path d="M55.5181 20.2787C54.8317 21.2287 53.4328 20.6254 53.136 19.5092C52.8011 19.198 46.2176 15.398 44.3176 21.725C44.0967 22.4613 43.94 23.3353 43.864 24.366L41.2158 24.2378C41.1873 24.1618 41.3061 22.9553 41.8286 21.4757C42.4603 19.692 43.6858 17.5118 45.9587 16.4478C49.4523 14.8138 53.7938 17.8728 54.1881 18.1174C55.2711 18.0842 56.3802 19.0864 55.5181 20.2787Z" fill="#62ED2E"/>
<g opacity="0.5">
<path d="M55.8244 19.4751C55.5038 19.259 54.5158 18.6937 53.9719 19.0215C53.5468 18.7579 49.5877 15.5872 45.8209 17.3495C43.6383 18.3707 42.3534 20.3444 41.6172 22.1232C41.6789 21.9142 41.7478 21.6957 41.8286 21.4725C42.4603 19.6889 43.6858 17.5086 45.9587 16.4446C49.4523 14.8106 53.7938 17.8696 54.1881 18.1142C55.0146 18.0905 55.8577 18.67 55.8244 19.4751Z" fill="white"/>
</g>
<path d="M44.3176 21.7245C44.0967 22.4607 43.94 23.3347 43.864 24.3655C43.864 24.3655 43.2061 24.9022 42.3725 24.85C41.5388 24.7977 41.2158 24.2372 41.2158 24.2372C41.1873 24.1612 41.3061 22.9547 41.8286 21.4751C42.0827 22.5153 42.8427 23.2136 44.3176 21.7245Z" fill="#31C418"/>
<path d="M41.021 24.3085C40.9948 24.2087 41.0067 24.2253 41.002 24.1588C41.002 24.1161 41.0067 23.9736 41.0115 23.9261C41.3511 20.2163 43.6715 15.8843 47.766 15.5471C50.1766 15.3951 52.459 16.4496 54.4112 17.7606L54.1785 17.6988C55.6866 17.6561 56.8551 19.1096 55.9003 20.4657C55.5108 21.0998 54.6725 21.335 54.0075 21.05C53.3757 20.8006 52.9102 20.2591 52.7345 19.6178L52.8556 19.8173C52.8556 19.8197 52.858 19.8197 52.858 19.8221L52.8485 19.815C52.8318 19.8055 52.7606 19.758 52.7416 19.7485C51.0435 18.8103 48.7326 18.0313 46.8706 18.8768C44.8613 19.8743 44.327 22.3182 44.0728 24.3868C44.042 24.6481 43.6501 24.6243 43.6572 24.3536C43.7047 23.2112 43.8567 22.0546 44.2652 20.9455C45.505 17.516 48.7278 17.06 51.7987 18.3282C52.3378 18.5515 52.8675 18.8032 53.3448 19.1428L53.3781 19.169L53.4208 19.207C53.4826 19.2616 53.523 19.3305 53.542 19.4065C53.6417 19.7912 53.9457 20.1356 54.3067 20.2733C54.8886 20.5275 55.3588 20.0121 55.4087 19.473C55.4277 18.884 54.7603 18.5206 54.2046 18.5372C54.0431 18.5562 53.8531 18.3923 53.7225 18.3187C52.5563 17.5943 51.2833 16.9768 49.9533 16.6443C48.906 16.3902 47.8253 16.3047 46.7922 16.5945C44.3056 17.3426 42.7215 19.7223 41.933 22.0878C41.705 22.7647 41.5102 23.463 41.4247 24.1731L41.4223 24.1992C41.42 24.2016 41.4271 24.2182 41.4105 24.166C41.5031 24.4177 41.1207 24.565 41.021 24.3085Z" fill="#371A45"/>
<path d="M37.0118 42.6979C38.0354 43.5244 38.7218 43.7999 39.7288 42.7668C39.8856 42.6029 40.1634 42.7834 40.0803 42.9924C39.6409 44.2155 38.2729 44.6882 37.2493 43.8237C37.0237 43.6622 36.3468 42.7929 36.8076 42.648C36.8812 42.6267 36.9572 42.6504 37.0118 42.6979Z" fill="#371A45"/>
<path d="M70.4855 50.2195C70.7301 59.3039 61.1422 67.5689 56.2046 71.2145C54.4898 72.4804 52.1695 72.5422 50.3906 71.3713C45.263 67.9964 35.2452 60.261 35.0006 51.1766C34.8581 45.8448 39.0618 41.4083 44.3937 41.2658C47.7805 41.1755 50.8086 42.838 52.6017 45.4339C54.2523 42.7478 57.1855 40.9214 60.5746 40.8311C65.9041 40.6839 70.343 44.8876 70.4855 50.2195Z" fill="#FC4F8B"/>
<g opacity="0.5">
<path d="M56.3147 46.0589C56.2387 45.4651 58.1505 42.9975 62.6868 44.071C66.3514 44.9379 67.8762 47.7499 67.6339 48.1655C67.508 48.3816 64.8813 46.6859 61.8104 46.2774C59.2478 45.9401 56.3503 46.3439 56.3147 46.0589Z" fill="white"/>
</g>
<g opacity="0.5">
<path d="M70.4576 51.2788C70.0895 46.1607 65.7504 42.3654 60.5681 42.3298C57.4165 42.3084 53.2793 44.2298 53.4313 46.9539C51.6381 44.3604 47.774 42.6742 44.3873 42.7668C39.4473 42.8998 35.4739 46.7188 35.0345 51.5187C35.0203 51.3263 35.0108 51.1315 35.0036 50.9368C34.8588 45.6073 39.0649 41.1684 44.3944 41.0259C47.7835 40.9357 50.8093 42.6005 52.6024 45.194C54.253 42.5055 57.1861 40.6815 60.5753 40.5913C65.9048 40.4464 70.3436 44.6525 70.4861 49.982C70.498 50.4167 70.4885 50.8489 70.4576 51.2788Z" fill="white"/>
</g>
<path d="M55.9743 69.3286C54.3759 70.4852 52.2147 70.5422 50.5545 69.4711C45.776 66.386 36.4375 59.3084 36.2095 50.9983C36.1905 50.3286 36.2499 49.6731 36.3758 49.0437C36.865 52.9886 40.0143 56.5653 43.4699 59.3726C47.2272 55.2139 65.764 56.5249 69.2197 49.305C69.2529 49.5733 69.2743 49.8488 69.2814 50.1243C69.5094 58.4368 60.5747 65.9941 55.9743 69.3286Z" fill="#ED2F86"/>
<path d="M53.184 72.5611C52.1413 72.5611 51.0987 72.2642 50.1938 71.6705C47.5766 69.9486 43.7861 67.158 40.5988 63.6572C36.7561 59.4321 34.7516 55.2355 34.6423 51.1885C34.5711 48.5142 35.5448 45.973 37.3831 44.0326C39.2237 42.0922 41.7079 40.9831 44.3822 40.9119C47.6027 40.8287 50.6284 42.2727 52.5831 44.8069C54.3976 42.1706 57.3426 40.5627 60.5631 40.4749C63.2373 40.406 65.7786 41.375 67.719 43.2156C69.6593 45.0539 70.7685 47.5405 70.8421 50.2147C70.9513 54.2641 69.1748 58.5605 65.5648 62.9875C62.5723 66.6569 58.9386 69.6446 56.4163 71.5066C55.4639 72.2049 54.3263 72.5611 53.184 72.5611ZM44.6577 41.6172C44.5722 41.6172 44.4891 41.6172 44.4036 41.6196C41.9193 41.6861 39.6108 42.7169 37.9032 44.5195C36.1956 46.3221 35.2907 48.6829 35.3572 51.1647C35.4617 55.0384 37.4044 59.0782 41.1284 63.1727C44.2658 66.6212 48.0041 69.3715 50.5857 71.072C52.2339 72.155 54.4047 72.098 55.9912 70.9271C58.4802 69.0912 62.0641 66.1415 65.0114 62.5315C68.5098 58.2422 70.2317 54.1026 70.1272 50.2314C70.0607 47.7471 69.03 45.441 67.2273 43.731C65.4247 42.0234 63.0663 41.1185 60.5821 41.185C57.4281 41.2705 54.5567 42.9282 52.9037 45.6191C52.8396 45.7212 52.7303 45.7854 52.6092 45.7901C52.4857 45.7972 52.3741 45.7355 52.3052 45.6357C50.5619 43.1064 47.7167 41.6172 44.6577 41.6172Z" fill="#371A45"/>
<path d="M52.913 45.2558C53.2194 45.9184 53.4759 46.5929 53.692 47.2911C53.7252 47.4028 53.6635 47.5191 53.5542 47.5524C53.4521 47.5833 53.3452 47.5334 53.3025 47.4408C53.1529 47.1225 52.9937 46.8114 52.8227 46.5026C52.6565 46.201 52.4736 45.8899 52.2884 45.6049C52.0295 45.1703 52.6802 44.8069 52.913 45.2558Z" fill="#371A45"/>
<path d="M48.7254 54.0882L43.4268 54.2758C45.6973 54.0241 47.8989 51.148 48.4499 50.3595C48.5283 50.2455 48.6233 50.1434 48.7301 50.0555C49.4236 49.476 50.5826 49.514 50.9294 51.0743C50.9413 51.1266 50.9508 51.1788 50.9555 51.2287C51.1859 52.9458 48.7254 54.0882 48.7254 54.0882Z" fill="#62ED2E"/>
<path d="M48.7254 54.0884L43.4268 54.276C45.6973 54.0243 47.8989 51.1482 48.4499 50.3597C48.5283 50.2457 48.6233 50.1435 48.7301 50.0557C48.8394 50.6114 49.2669 51.6113 50.9579 51.2289C51.1859 52.946 48.7254 54.0884 48.7254 54.0884Z" fill="#2BC614"/>
<path d="M43.4271 54.6939C43.2157 54.6939 43.0352 54.5348 43.0115 54.321C42.9854 54.0906 43.1516 53.884 43.382 53.8603C45.6145 53.6133 47.8589 50.4783 48.1082 50.1196C48.5334 49.5116 49.2625 49.1886 49.9251 49.3193C50.3336 49.4 51.058 49.723 51.3406 50.9794C51.8109 53.0884 49.0226 54.4089 48.9015 54.4659C48.6925 54.5633 48.4431 54.473 48.3457 54.2616C48.2484 54.0526 48.3386 53.8033 48.5476 53.7059C48.5714 53.694 50.8466 52.6134 50.5212 51.1599C50.3906 50.5709 50.1199 50.2075 49.7612 50.1363C49.424 50.0698 49.025 50.2574 48.7922 50.5946C48.3505 51.2288 46.0182 54.4065 43.4722 54.6868C43.458 54.6915 43.4414 54.6939 43.4271 54.6939Z" fill="#371A45"/>
<path d="M56.1432 55.6135C55.6207 56.2618 54.4926 56.6846 52.6211 56.8223C52.6211 56.8223 56.0149 57.9505 55.1552 60.0951C54.1791 62.5247 50.2959 60.9335 47.7808 61.5153C44.2682 63.2823 40.4421 62.4155 38.0742 60.7245C36.1932 59.3802 34.4309 57.8246 33.7398 57.1952C33.5403 57.0123 33.4287 56.9102 33.4287 56.9102L26.6172 58.226C27.3653 56.3473 27.7596 54.8321 28.1087 53.6303C28.8212 51.1793 29.3484 50.0251 32.3291 49.7353C36.4497 49.3316 39.4921 53.4926 42.7957 53.7728C42.9097 53.7823 43.0261 53.7895 43.1424 53.7895C44.9071 53.4071 46.6052 52.6685 48.6453 52.2457C51.0702 51.7422 55.9461 51.3907 56.4519 54.2098C56.5493 54.7513 56.4567 55.224 56.1432 55.6135Z" fill="#62ED2E"/>
<g opacity="0.6">
<path d="M42.7954 53.775C39.9929 54.7179 34.8724 49.4929 30.9703 50.9749C29.5453 51.5164 28.619 52.7419 28.1084 53.6325C28.8209 51.1815 29.3481 50.0273 32.3288 49.7375C36.447 49.3338 39.4918 53.4948 42.7954 53.775Z" fill="white"/>
</g>
<path d="M52.6186 56.8222C52.6186 56.8222 56.0124 57.9503 55.1527 60.0949C54.1766 62.5246 50.2934 60.9333 47.7783 61.5152C44.2657 63.2822 40.4396 62.4153 38.0717 60.7243C36.1907 59.3801 34.4284 57.8244 33.7373 57.1951C34.9177 57.9954 38.7082 60.3871 42.2897 60.6222C45.6004 60.8383 47.2368 59.6698 49.2104 59.8859C51.4358 60.1282 51.8776 59.9809 51.0297 57.5632C50.6544 56.4921 51.6044 52.2693 52.9463 52.7799C53.8512 53.1219 55.0173 54.2738 56.1431 55.6109C55.6206 56.2617 54.4924 56.6844 52.6186 56.8222Z" fill="#2BC614"/>
<path d="M26.2276 58.0735C26.5767 57.1995 26.8831 56.3089 27.1562 55.4064C27.6051 54.0336 27.8473 52.5659 28.5646 51.2596C29.3626 49.7919 31.0702 49.381 32.6116 49.2979C35.6516 49.1483 38.0907 51.3143 40.6082 52.6348C41.4252 53.0551 42.2849 53.3734 43.1399 53.3734L43.0521 53.3829C45.0067 52.9459 46.9993 52.0885 49.0466 51.7441C51.2339 51.3855 55.0529 51.0696 56.4732 53.1478C57.0194 53.979 57.1026 55.2021 56.3901 55.9645C55.4163 56.9691 53.9224 57.114 52.6494 57.2399L52.7516 56.4276C54.0744 56.905 55.6894 57.8123 55.7464 59.3988C55.7512 60.382 55.1028 61.3011 54.1979 61.6526C53.0983 62.0778 51.9916 61.959 50.8824 61.9091C49.8826 61.8545 48.8399 61.7548 47.8804 61.9661C45.7334 63.1299 42.3704 63.2914 39.7461 62.1348C38.4493 61.617 37.3331 60.7335 36.2667 59.8595C35.2169 58.9879 34.2147 58.0688 33.2837 57.0665C33.2053 56.981 33.2101 56.8504 33.2956 56.7696C33.3716 56.6984 33.4879 56.696 33.5663 56.7578C35.1528 58.0023 36.7322 59.2634 38.3757 60.4224C41.0666 62.2963 44.7573 62.5718 47.6738 61.066C48.2438 60.9378 48.8019 60.914 49.3434 60.9164C50.3956 60.9235 51.4406 61.0613 52.4689 61.0375C52.9629 61.0233 53.4474 60.9686 53.8488 60.8048C54.6041 60.5269 55.0791 59.5721 54.7014 58.8478C54.3547 58.1685 53.5258 57.6769 52.8181 57.3539C52.7041 57.3016 52.5806 57.2518 52.4761 57.2138C52.2599 57.1354 52.1483 56.8955 52.2267 56.677C52.2837 56.5179 52.4309 56.4158 52.5877 56.4039C53.3857 56.3421 54.1884 56.2305 54.8914 55.9598C55.2382 55.822 55.5564 55.6415 55.7678 55.404C56.2214 54.9219 56.1122 54.1286 55.7749 53.6038C54.7537 52.1503 52.0011 52.2548 50.3908 52.3996C48.7616 52.5516 47.2131 53.0076 45.6551 53.5135C44.8381 53.7629 44.0068 54.0503 43.1423 54.207C40.2804 54.1571 37.8746 51.5898 35.2716 50.6184C34.2076 50.1885 33.0913 50.0199 31.9774 50.198C30.9134 50.331 29.8209 50.6896 29.2889 51.6824C28.6334 52.8984 28.3959 54.3139 27.9589 55.6486C27.6787 56.5701 27.3628 57.4845 27.0066 58.3823C26.7952 58.881 26.0376 58.6008 26.2276 58.0735Z" fill="#371A45"/>
<path d="M33.5539 68.7116C33.5539 68.7116 33.2903 70.6424 32.8841 73.1766C32.6039 74.9246 32.2571 76.9623 31.8795 78.8481C31.3926 81.2848 29.4071 81.3489 29.4071 81.3489H22.8664C22.8664 81.3489 20.5626 81.4582 21.1564 79.2874C21.61 77.6297 24.0206 77.2996 24.0206 77.2996L25.3625 71.3906L26.2864 67.3127C26.2864 67.3127 25.9301 66.0706 25.7876 64.4936C25.7021 63.5364 25.695 62.4582 25.8969 61.4607L30.7846 66.0896L33.5539 68.7116Z" fill="#62ED2E"/>
<path d="M33.5538 68.7112C33.5538 68.7112 33.2902 70.642 32.884 73.1762C32.6038 74.9242 32.257 76.9619 31.8794 78.8477C31.3925 81.2844 29.407 81.3485 29.407 81.3485H22.8663C22.8663 81.3485 20.781 81.4459 21.0898 79.5887C21.5149 79.7264 21.9187 79.7074 21.9187 79.7074C21.9187 79.7074 22.5979 79.7692 23.0587 79.5578C23.5194 79.3464 23.9635 78.5318 24.8447 78.5009C24.5763 79.7858 26.0155 79.7074 26.0155 79.7074H28.4594C28.4594 79.7074 30.2454 79.5934 30.9318 77.2065C31.0054 76.9524 31.0862 76.6627 31.1717 76.3444C32.0765 72.9909 28.7539 69.9913 25.5429 71.3142C25.4835 71.3379 25.4242 71.364 25.3648 71.3902L26.2887 67.3123C26.2887 67.3123 25.9324 66.0702 25.7899 64.4932C26.6687 65.1843 28.2765 66.0678 30.7893 66.0892L32.5159 67.7232L33.5538 68.7112Z" fill="#2BC614"/>
<path d="M33.7612 68.7399C33.5831 71.0342 33.2744 73.3118 32.9062 75.5823C32.7162 76.7176 32.5167 77.8457 32.2935 78.9833C32.17 79.5937 31.9206 80.2159 31.486 80.7242C30.973 81.3298 30.213 81.7359 29.4174 81.7929C29.3366 81.7906 28.9424 81.7953 28.8521 81.7929C27.2989 81.7929 24.4037 81.7882 22.8244 81.7858C21.6867 81.7953 20.5752 81.1612 20.6299 79.8977C20.6489 78.4418 21.7651 77.5132 23.0524 77.1047C23.3564 77.0049 23.6461 76.9289 23.9644 76.8814L23.6105 77.2068L25.881 67.2223L25.8857 67.4313C25.4962 65.9493 25.2849 64.4507 25.3205 62.9188C25.3371 62.4082 25.387 61.8928 25.4891 61.3822C25.5342 61.1566 25.7527 61.0093 25.9807 61.0521C26.2087 61.0948 26.3536 61.3157 26.3109 61.5437C26.1304 62.4557 26.1232 63.4199 26.2016 64.3723C26.2824 65.3176 26.4486 66.2913 26.6932 67.2009C26.7122 67.2698 26.7146 67.3434 26.698 67.4099L24.4346 77.3944C24.3942 77.5678 24.2541 77.6913 24.0879 77.7174C23.9715 77.7341 23.8266 77.7673 23.7055 77.7982C23.3279 77.8956 22.9455 78.0357 22.6082 78.2233C21.9266 78.5891 21.5015 79.1781 21.4944 79.9167C21.4421 80.6624 22.1926 80.9189 22.822 80.9166C24.6769 80.9023 27.5744 80.9166 29.4031 80.9094C29.9042 80.8596 30.4742 80.5722 30.821 80.1566C31.1369 79.7932 31.3411 79.3206 31.4504 78.8099C31.8589 76.8767 32.3315 74.0386 32.7044 72.0649C32.9086 70.9368 33.1271 69.8111 33.3527 68.6853C33.3955 68.4359 33.7779 68.4739 33.7612 68.7399Z" fill="#371A45"/>
<path d="M26.1492 78.2445C25.432 78.5343 24.4084 78.9452 24.2944 79.7717C24.235 80.2704 24.3822 80.6623 24.8834 80.8143C25.3227 80.9544 25.8452 80.952 26.325 80.9378C26.8475 80.9354 26.9116 81.6835 26.3962 81.769C25.0971 81.9875 23.3776 81.674 23.4299 80.0163C23.4275 78.9262 24.2706 78.273 25.2206 77.9952C25.5009 77.912 25.7764 77.855 26.0732 77.8337C26.1896 77.8265 26.2894 77.912 26.2989 78.0284C26.306 78.1282 26.2395 78.2137 26.1492 78.2445Z" fill="#371A45"/>
<path d="M61.0752 49.7944L56.7432 51.0223C56.7432 51.0223 54.3445 51.0223 53.9669 49.1271C53.9336 48.9656 53.9217 48.8183 53.9241 48.6806C53.9384 47.4337 55.2541 47.1772 55.8574 47.7757C56.3537 48.2673 56.9047 48.6426 57.4961 48.9299C58.5744 49.4548 59.7927 49.6852 61.0752 49.7944Z" fill="white"/>
<g opacity="0.25">
<path d="M61.0752 49.7943L56.7432 51.0222C56.7432 51.0222 54.3445 51.0222 53.9669 49.1269C53.9336 48.9654 53.9217 48.8182 53.9241 48.6804C54.1806 49.1483 55.019 50.0104 57.4985 48.9322C58.5744 49.4547 59.7927 49.685 61.0752 49.7943Z" fill="#371A45"/>
</g>
<path d="M56.7433 51.4403C55.7956 51.4403 53.9099 50.9748 53.556 49.2102C53.3779 48.3267 53.6629 47.5904 54.3136 47.2389C54.9121 46.9183 55.684 47.0181 56.1495 47.4812C57.5935 48.9109 59.56 49.2458 61.1109 49.3788C61.3413 49.3978 61.5123 49.5997 61.4909 49.8301C61.4719 50.0604 61.27 50.2314 61.0396 50.2101C59.3486 50.0652 57.1969 49.6947 55.5605 48.0749C55.3515 47.8683 54.9858 47.8256 54.7079 47.9752C54.3896 48.1462 54.2709 48.5286 54.373 49.0463C54.6794 50.5782 56.6578 50.6043 56.7409 50.6043C56.9713 50.6043 57.1589 50.7919 57.1565 51.0223C57.1613 51.2551 56.9736 51.4403 56.7433 51.4403Z" fill="#371A45"/>
<path d="M76.9 51.0795L72.112 48.9895C72.112 48.9895 71.9695 49.9752 71.485 51.2885C70.8509 53.0128 69.6302 55.3023 67.381 56.6727C64.4788 58.442 60.6693 58.2283 57.8074 58.7745C56.4252 59.2234 53.6345 59.8267 52.8722 59.1807C51.1503 57.7224 51.8153 54.8487 51.8153 54.8487C51.3213 54.7988 50.8154 54.2763 50.8914 53.4878C50.9199 53.2052 51.0054 52.9368 51.1503 52.6874C52.3045 50.6663 57.0664 49.6664 63.1607 49.3434C64.8255 48.4575 65.8373 43.014 69.3167 41.1354C71.8104 39.7888 75.4085 42.4108 76.9 51.0795Z" fill="white"/>
<g opacity="0.25">
<path d="M71.488 51.2881C70.8538 53.0123 69.6331 55.3018 67.384 56.6722C64.4817 58.4416 60.6722 58.2278 57.8103 58.7741C56.4281 59.223 53.6375 59.8262 52.8751 59.1802C51.1532 57.722 51.8182 54.8482 51.8182 54.8482C51.3242 54.7983 50.8183 54.2758 50.8943 53.4873C50.9228 53.2047 51.0083 52.9363 51.1532 52.687C51.4097 53.1905 51.9868 53.9813 53.134 54.2117C53.134 54.2117 52.7587 57.5937 55.1076 57.7552C57.1168 57.893 58.8292 56.7933 62.7836 56.9121C66.0397 57.0071 69.8991 54.3043 71.488 51.2881Z" fill="#371A45"/>
</g>
<path d="M76.4892 51.1484C75.9121 48.0182 74.8956 43.8358 72.2926 41.8265C70.9579 40.8742 69.7941 41.1022 68.6043 42.121C67.0819 43.4083 66.1936 45.2774 65.2864 47.0492C64.923 47.7474 64.5668 48.4765 64.0561 49.1035C63.8543 49.3268 63.5408 49.6973 63.1821 49.7543C61.902 49.8231 60.6242 49.9229 59.356 50.0725C57.0712 50.3765 54.0906 50.7874 52.2072 52.134C51.7441 52.4855 51.3903 52.9344 51.319 53.4355C51.2406 53.863 51.4235 54.3499 51.8557 54.4283C52.0909 54.4568 52.2548 54.6705 52.2262 54.9057C52.193 55.0862 52.1621 55.2975 52.1455 55.4899C52.0458 56.6845 52.2215 58.1167 53.238 58.8767C53.8911 59.1142 54.6749 58.9764 55.3684 58.8861C56.1403 58.7603 56.9192 58.575 57.665 58.3375C58.4891 58.1665 59.318 58.0905 60.1326 58.005C64.3411 57.6274 67.7587 57.1548 70.1385 53.2717C70.9555 51.9535 71.5516 50.4644 71.9055 48.9515C71.9316 48.8399 72.0433 48.7686 72.1549 48.7924C72.2594 48.8161 72.3282 48.9159 72.3164 49.0204C72.2214 49.8422 72.0243 50.6259 71.7677 51.4049C70.9935 53.7466 69.5186 55.9649 67.3289 57.1928C64.4717 58.8125 60.9947 58.6772 57.8906 59.2282C56.9857 59.5203 55.423 59.8931 54.2403 59.9193C53.6964 59.9216 53.124 59.9145 52.6324 59.5773C51.2264 58.4349 51.0554 56.4138 51.4021 54.7536L51.7679 55.2643C50.8155 55.155 50.3286 54.1385 50.4878 53.312C51.0031 50.3029 56.7625 49.5809 59.2515 49.2484C60.5435 49.094 61.8379 48.9943 63.1322 48.9254L62.9589 48.9729C63.308 48.7782 63.5906 48.3506 63.8186 47.992C65.3006 45.4484 66.3432 42.311 69.0816 40.7839C70.2596 40.0999 71.7297 40.3612 72.7747 41.1473C74.0905 42.1092 74.9479 43.565 75.5986 45.0067C76.4465 46.9352 76.95 48.9682 77.3062 51.0083C77.3466 51.2363 77.1946 51.4524 76.9666 51.4928C76.7457 51.5308 76.5272 51.3764 76.4892 51.1484Z" fill="#371A45"/>
<path d="M63.1602 49.3384C63.1602 49.3384 64.5994 49.3384 66.7013 49.6851L63.1602 49.3384Z" fill="white"/>
<path d="M63.1601 48.9226C63.7776 48.9654 64.3619 49.0461 64.9675 49.1411C65.5613 49.2361 66.1503 49.3501 66.7345 49.4831C66.9863 49.5425 66.9245 49.9201 66.6656 49.8964C65.5019 49.78 64.3191 49.7111 63.1554 49.761C62.5687 49.7657 62.5735 48.906 63.1601 48.9226Z" fill="#371A45"/>
<path d="M66.3269 57.6344C66.2866 57.6344 66.2462 57.6297 66.2082 57.6178C65.9873 57.5513 65.8614 57.3186 65.9279 57.0977C67.5477 51.6542 63.3107 49.8041 63.1302 49.7281C62.9188 49.6378 62.8167 49.3932 62.9069 49.1818C62.9948 48.9681 63.2394 48.8683 63.4532 48.9562C63.5054 48.9776 64.7618 49.5096 65.7973 50.8111C66.7521 52.0128 67.6878 54.1218 66.7307 57.3352C66.6737 57.5181 66.5074 57.6344 66.3269 57.6344Z" fill="#371A45"/>
<path d="M40.8604 54.8108C40.8604 54.8108 42.8245 53.9534 43.499 53.7112L40.8604 54.8108Z" fill="white"/>
<path d="M40.7763 54.6181C41.5268 54.2333 42.5955 53.661 43.3555 53.3166C43.8685 53.1052 44.1963 53.8391 43.6975 54.0813C43.4624 54.1597 43.2154 54.2262 42.9708 54.3093C42.5385 54.4495 41.3866 54.8485 40.9425 55.0005C40.7003 55.086 40.5483 54.7368 40.7763 54.6181Z" fill="#371A45"/>
</g>
<defs>
<clipPath id="clip0_2_64420">
<rect width="95" height="95" rx="8" fill="white"/>
</clipPath>
</defs>
</svg>
