<svg width="63" height="72" viewBox="0 0 63 72" fill="none" xmlns="http://www.w3.org/2000/svg">
<path d="M61.8392 70.6101H1.14844C1.14844 68.8003 1.30756 66.9834 1.63531 65.1808C2.21244 61.9983 3.31444 58.8562 4.96981 55.8708C7.56094 51.2134 11.1923 47.5037 15.4174 44.8722C16.0967 44.4471 16.7926 44.0528 17.5003 43.6847C21.3146 41.7063 25.5136 40.5521 29.8076 40.3122C29.8456 40.3098 29.8836 40.3051 29.9216 40.3051C30.1828 40.2908 30.4464 40.2813 30.7124 40.2742C31.2373 40.2599 31.7622 40.2599 32.2847 40.2718C35.8472 40.3597 39.4334 41.0817 42.8724 42.4806C44.0077 42.9389 45.1311 43.4733 46.2283 44.0861C46.4658 44.2167 46.6986 44.3497 46.9313 44.4898C47.0714 44.5706 47.2116 44.6561 47.3469 44.7416C56.6237 50.4178 61.8297 60.3667 61.8392 70.6101Z" fill="#FFD243"/>
<path d="M4.13137 66.1027C4.7085 62.9202 5.8105 59.7781 7.46587 56.7927C10.057 52.1353 13.6884 48.4256 17.9135 45.7941C18.5927 45.369 19.2886 44.9747 19.9964 44.6066C23.8106 42.6282 28.0096 41.474 32.3036 41.2341C32.3416 41.2317 32.3796 41.227 32.4176 41.227C32.6789 41.2127 32.9425 41.2032 33.2085 41.1961C33.7334 41.1818 34.2583 41.1819 34.7808 41.1937C37.5049 41.2626 40.2409 41.702 42.9175 42.5285C42.7845 42.4738 42.6539 42.4168 42.5209 42.3646C39.0795 40.9657 35.4956 40.2437 31.9331 40.1558C31.4106 40.144 30.8857 40.144 30.3609 40.1582C30.0949 40.163 29.8336 40.1748 29.57 40.1891C29.532 40.1891 29.494 40.1939 29.456 40.1962C25.162 40.4361 20.963 41.588 17.1488 43.5687C16.441 43.9369 15.7451 44.3311 15.0659 44.7562C10.8407 47.3877 7.20937 51.0975 4.61825 55.7548C2.96287 58.7402 1.86088 61.88 1.28375 65.0648C0.953625 66.8675 0.796875 68.6844 0.796875 70.4941H3.66587C3.71337 69.0287 3.86537 67.561 4.13137 66.1027Z" fill="#FCAC38"/>
<path d="M44.1341 54.0909C44.3316 52.6418 41.8801 51.111 38.6584 50.6717C35.4366 50.2324 32.6647 51.051 32.4671 52.5C32.2696 53.9491 34.7211 55.4799 37.9428 55.9192C41.1646 56.3585 43.9365 55.5399 44.1341 54.0909Z" fill="#FFD243"/>
<path d="M58.3784 70.6102H51.2344C52.3791 68.5962 53.9894 67.2353 55.4904 67.2329C56.9724 67.2305 58.0601 68.6009 58.3784 70.6102Z" fill="#FCAC38"/>
<path d="M17.8861 55.0453C19.5486 54.9388 20.8227 53.7031 20.7318 52.2854C20.641 50.8677 19.2196 49.8048 17.5571 49.9113C15.8946 50.0179 14.6205 51.2535 14.7114 52.6712C14.8022 54.0889 16.2236 55.1518 17.8861 55.0453Z" fill="#FCAC38"/>
<path d="M19.0193 55.0552C20.1928 54.6208 20.86 53.5009 20.5094 52.5537C20.1588 51.6066 18.9233 51.1908 17.7498 51.6252C16.5763 52.0595 15.9092 53.1795 16.2598 54.1266C16.6103 55.0738 17.8458 55.4895 19.0193 55.0552Z" fill="#FFD243"/>
<path d="M17.8187 55.3032C16.4792 55.4885 14.9497 54.7902 14.4177 53.484C13.8192 52.0733 14.6409 50.4962 15.9496 49.855C17.7878 48.867 20.6022 49.6341 21.0439 51.8453C21.1413 52.3582 21.0724 52.8902 20.8468 53.3534C20.7756 53.5077 20.6758 53.6431 20.5856 53.7809C20.5523 53.8331 20.4811 53.8474 20.4288 53.8117C20.3766 53.7785 20.3647 53.7096 20.3932 53.6574C20.6758 53.1159 20.7542 52.4984 20.5808 51.9497C20.0631 50.2231 17.7593 49.7101 16.2963 50.52C14.5982 51.4154 14.4319 53.4792 16.1063 54.5124C16.6003 54.8235 17.1941 54.9874 17.8044 55.0206C17.9778 55.0301 17.9849 55.2819 17.8187 55.3032Z" fill="#371A45"/>
<path d="M21.6202 50.6506C22.4965 51.6647 22.6248 53.2322 21.9883 54.4173C21.3755 55.6309 20.15 56.4503 18.8509 56.7472C17.5542 57.044 16.141 56.8683 15.001 56.1653C13.8705 55.5027 13.0345 54.232 13.1058 52.9044C13.1153 52.7667 13.3148 52.7619 13.3314 52.8973C13.4098 53.4958 13.6378 54.0539 13.9869 54.5194C15.6019 56.6379 19.0908 56.6545 20.891 54.7759C21.4753 54.1608 21.8482 53.3367 21.8458 52.4817C21.8505 51.9093 21.6819 51.3322 21.3874 50.8121C21.3043 50.6648 21.5109 50.5199 21.6202 50.6506Z" fill="#371A45"/>
<path d="M9.5501 59.4118C13.5092 59.7823 15.5185 64.0383 14.4972 67.6293C14.1909 68.7883 13.6256 69.8666 12.8466 70.743C12.7991 70.7976 12.716 70.8023 12.6613 70.7548C12.6138 70.7121 12.6044 70.6432 12.6352 70.591C13.1957 69.6053 13.5971 68.5532 13.7918 67.4726C14.4165 64.1618 12.8704 60.73 9.49072 59.7325C9.30547 59.6802 9.35535 59.3952 9.5501 59.4118Z" fill="#371A45"/>
<path d="M11.8723 67.4249C11.5945 68.7929 10.8273 69.9187 9.82272 70.6098H5.14872C3.73322 69.5814 2.97797 67.6482 3.38172 65.6556C3.91135 63.0359 6.24122 61.3069 8.58772 61.7962C10.9318 62.2854 12.402 64.8053 11.8723 67.4249Z" fill="#FCAC38"/>
<path d="M11.3636 68.3608C10.9053 69.3655 10.1999 70.135 9.39238 70.6123H6.85113C5.58526 69.1897 5.27651 66.829 6.22888 64.7366C6.84401 63.39 7.86051 62.421 8.99338 61.9602C9.27838 62.022 9.56101 62.1217 9.83176 62.2666C11.7484 63.2831 12.4348 66.0096 11.3636 68.3608Z" fill="#FFD243"/>
<path d="M4.43047 70.6861C3.96735 70.4534 3.6111 70.0116 3.45197 69.5224C3.40922 69.3894 3.5826 69.2897 3.6776 69.3894C3.85097 69.5652 4.0006 69.7409 4.15972 69.9095C4.29985 70.0639 4.49935 70.2682 4.63235 70.4297C4.7416 70.5627 4.58485 70.7598 4.43047 70.6861Z" fill="#371A45"/>
<path d="M3.41972 64.7913C4.41722 62.2619 7.53322 60.7087 10.008 62.1788C12.117 63.4304 12.573 66.2306 11.5208 68.3324C11.3617 68.6721 11.1646 68.9903 10.939 69.2872C10.4853 69.8762 9.91534 70.3726 9.26697 70.7074C9.12684 70.7787 9.00097 70.5816 9.12684 70.4866C10.7181 69.2801 11.6277 67.1426 11.1503 65.1832C10.9865 64.4968 10.635 63.839 10.1125 63.3568C8.78722 62.0743 6.69009 62.2525 5.26034 63.2856C4.64047 63.7202 4.12984 64.2878 3.70947 64.9409C3.60972 65.1048 3.34372 64.9742 3.41972 64.7913Z" fill="#371A45"/>
<path d="M26.0057 70.774C25.2861 70.0948 24.8681 69.1638 24.6116 68.2256C24.5308 67.9145 24.4667 67.601 24.4382 67.2804C24.4311 67.2163 24.4786 67.1593 24.5427 67.1521C24.5926 67.1474 24.6377 67.1759 24.6591 67.2163L25.07 68.0499C25.4713 68.8526 25.9273 69.6269 26.476 70.3346C26.7135 70.6505 26.2978 71.0329 26.0057 70.774Z" fill="#371A45"/>
<path d="M43.4336 65.2925C43.8397 67.1402 43.5381 69.2136 42.372 70.7383C42.1226 71.0708 41.6191 70.7312 41.8329 70.375C42.068 69.995 42.2889 69.615 42.4717 69.2207C42.8399 68.4251 43.0156 67.5416 43.1249 66.67C43.1747 66.2258 43.2032 65.7746 43.208 65.3162C43.2104 65.1856 43.4075 65.1618 43.4336 65.2925Z" fill="#371A45"/>
<path d="M36.8868 70.6102H30.8448C29.2036 69.6721 28.0256 67.9834 27.8143 65.9576C27.4675 62.6159 29.8924 59.6282 33.2364 59.2791C36.578 58.9323 39.5658 61.3596 39.9149 64.7012C40.169 67.1736 38.9103 69.4512 36.8868 70.6102Z" fill="#FCAC38"/>
<path d="M40.167 66.8526C39.901 68.4462 38.9225 69.7786 37.5735 70.6099H30.9211C29.7122 69.857 28.843 68.7146 28.4844 67.406C29.3845 64.5109 32.4957 62.6037 35.8017 63.0574C37.6685 63.3162 39.2289 64.271 40.2216 65.5962C40.2525 66.0071 40.2382 66.4299 40.167 66.8526Z" fill="#FFD243"/>
<path d="M34.6392 59.3479C37.2541 59.5664 39.6837 61.6706 40.0162 64.3354C40.3582 66.5227 39.1897 68.7885 37.3277 69.938C34.6107 71.6931 30.7537 71.1516 28.7254 68.6009C26.9869 66.4895 27.0582 63.3664 28.9724 61.3927C29.0841 61.2787 29.2622 61.4355 29.1624 61.559C28.7824 62.0411 28.4832 62.5802 28.2861 63.1502C27.8942 64.2807 27.9037 65.5442 28.3502 66.651C29.9794 70.7716 35.9668 71.3511 38.4392 67.7292C39.8262 65.7247 39.4961 63.0196 37.7552 61.3191C36.9144 60.4689 35.7958 59.9012 34.5941 59.659C34.4017 59.621 34.4444 59.3312 34.6392 59.3479Z" fill="#371A45"/>
<path d="M43.0554 53.9588C44.1194 53.2582 44.9126 52.3106 45.295 51.1611C45.9885 49.0782 45.143 46.9359 43.3309 45.1547C42.141 43.9862 40.5212 43.0243 38.6094 42.4591C33.7881 41.0317 28.9479 42.6704 27.8007 46.1189C27.3732 47.4014 27.5181 48.7552 28.1166 50.0211C29.126 52.1586 31.4606 53.9256 34.4864 54.8209" fill="#FFD243"/>
<path d="M45.1395 51.1116C45.6953 49.1546 44.7666 47.1667 43.3986 45.775C40.6318 42.9582 36.2665 41.7541 32.4333 42.659C30.5261 43.1268 28.6808 44.2716 27.9255 46.1621C27.8994 46.231 27.821 46.2618 27.7545 46.2357C27.6928 46.2096 27.6595 46.1431 27.6761 46.079C27.8139 45.5683 28.0395 45.0767 28.3364 44.6302C29.2365 43.2836 30.7114 42.4072 32.2385 41.956C37.1334 40.4882 43.8903 42.9392 45.5623 48.0383C45.7119 48.5585 45.7926 49.1023 45.7736 49.6462C45.757 50.1877 45.643 50.7221 45.4483 51.2161C45.415 51.2992 45.32 51.342 45.2369 51.3087C45.1585 51.2755 45.1181 51.19 45.1395 51.1116Z" fill="#371A45"/>
<path d="M43.3733 49.7964C43.8191 47.057 41.1243 44.339 37.3543 43.7255C33.5844 43.1121 30.1669 44.8356 29.7212 47.575C29.2754 50.3144 31.9702 53.0324 35.7402 53.6459C39.5101 54.2593 42.9276 52.5358 43.3733 49.7964Z" fill="#FCAC38"/>
<path d="M41.9306 47.7872C42.0936 45.7515 39.6088 43.8917 36.3806 43.6332C33.1524 43.3748 30.4034 44.8156 30.2404 46.8513C30.0774 48.8871 32.5623 50.7469 35.7904 51.0053C39.0186 51.2637 41.7676 49.823 41.9306 47.7872Z" fill="#FFD243"/>
<path d="M31.6795 44.7438C30.0954 45.8696 29.5373 47.7933 30.4374 49.5366C31.8719 52.2702 35.28 53.5859 38.2535 53.3841C40.5977 53.2511 43.2078 51.7643 42.9798 49.1399C42.6805 46.6058 40.3459 44.8839 38.073 44.0764C37.9163 44.0218 37.9875 43.7867 38.1467 43.8247C40.6737 44.4446 43.3099 46.3018 43.697 49.0592C43.9987 51.3083 42.3552 53.1513 40.3198 53.8329C38.3913 54.5169 36.2348 54.3839 34.3324 53.7071C31.841 52.8188 29.314 50.6599 29.3924 47.8052C29.428 47.1069 29.6489 46.4229 30.0289 45.8482C30.4018 45.2782 30.9195 44.8174 31.499 44.4731C31.6819 44.3662 31.8434 44.6203 31.6795 44.7438Z" fill="#371A45"/>
<path d="M56.6203 70.6101H51.2812C52.2051 69.0901 53.4116 68.076 54.5184 68.0499C55.6584 68.0214 56.4184 69.045 56.6203 70.6101Z" fill="#FFD243"/>
<path d="M57.9223 69.1734C57.0483 68.0073 55.8275 67.5679 54.4809 68.0571C53.177 68.5345 52.1344 69.5558 51.2034 70.6031C51.1084 70.7148 50.9208 70.5984 50.9801 70.463C51.8518 68.3873 54.2553 66.2711 56.6326 67.2544C57.0198 67.4254 57.3594 67.6866 57.623 67.9954C57.8866 68.3065 58.0861 68.6533 58.2073 69.0214C58.2358 69.1069 58.1883 69.2019 58.1028 69.2304C58.0386 69.2518 57.965 69.228 57.9223 69.1734Z" fill="#371A45"/>
<g opacity="0.6">
<path d="M47.7043 50.8596C47.854 54.5266 53.8508 57.5334 56.1783 67.0666C57.1663 71.1112 60.4628 66.4942 57.2186 58.9109C54.2118 51.8832 47.5998 48.2756 47.7043 50.8596Z" fill="white"/>
</g>
<g opacity="0.6">
<path d="M38.7185 45.905C39.5712 46.9809 42.2264 47.3537 44.5848 48.926C47.107 50.6075 48.9073 49.1659 45.1073 45.5986C41.0555 41.7962 37.113 43.8767 38.7185 45.905Z" fill="white"/>
</g>
<path d="M1.15003 71.0261C0.91965 71.0261 0.7344 70.8409 0.7344 70.6105C0.732025 68.7675 0.898275 66.9174 1.2284 65.1076C1.82927 61.8064 2.9669 58.631 4.6104 55.6717C7.14453 51.1141 10.8068 47.2595 15.2005 44.5211C15.8822 44.0936 16.5923 43.6898 17.3119 43.317C21.1547 41.3243 25.47 40.1416 29.7878 39.8994L29.84 39.897C29.8638 39.8946 29.8852 39.8946 29.9089 39.8922C30.1891 39.878 30.4528 39.8661 30.7069 39.8613C31.2247 39.8471 31.759 39.8471 32.3005 39.859C35.9984 39.9516 39.6084 40.7068 43.0355 42.0986C44.1922 42.5665 45.3393 43.1151 46.4389 43.7255C46.6693 43.8537 46.9115 43.9915 47.1514 44.1363C47.2915 44.2171 47.4317 44.305 47.5718 44.3928C52.1128 47.1692 55.8677 51.0975 58.4303 55.7525C60.9264 60.2864 62.2493 65.414 62.2588 70.5867C62.2588 70.696 62.216 70.8029 62.1377 70.8812C62.0593 70.9596 61.9548 71.0023 61.8432 71.0023L1.15003 71.0261ZM31.5239 40.6807C31.2532 40.6807 30.9872 40.6855 30.7235 40.6902C30.4765 40.695 30.2224 40.7068 29.9445 40.7211L29.8899 40.7235C29.8685 40.7258 29.8472 40.7258 29.8282 40.7258C25.6315 40.961 21.4325 42.1105 17.6943 44.0508C16.9937 44.4142 16.3049 44.8085 15.6399 45.2217C11.3649 47.8841 7.8024 51.6366 5.33715 56.0707C3.73877 58.9516 2.62965 62.0391 2.0454 65.2525C1.7509 66.877 1.5894 68.5347 1.56803 70.1901L61.4228 70.1664C61.266 59.8351 55.946 50.4847 47.1348 45.0958C46.9994 45.0103 46.864 44.9272 46.7263 44.8488C46.4912 44.7087 46.2537 44.5757 46.0304 44.4498C44.9617 43.8561 43.8478 43.3217 42.7197 42.8657C39.3875 41.5096 35.8749 40.7757 32.2768 40.6855C32.025 40.6855 31.7733 40.6807 31.5239 40.6807Z" fill="#371A45"/>
<path d="M45.4752 34.4169C45.4111 35.7683 45.2544 37.0365 44.9955 38.0578C44.7889 38.8653 44.1405 39.478 43.3211 39.63C42.4067 39.801 41.0031 39.9103 39.1387 39.6134L37.7969 23.0644C37.7969 23.0644 39.2646 22.9338 40.8297 23.1404C41.9151 23.2853 43.048 23.5893 43.7771 24.2139C44.9907 25.2542 45.6724 30.2369 45.4752 34.4169Z" fill="white"/>
<path d="M41.3894 40.1788C40.722 40.1788 39.9525 40.1265 39.0832 39.9888C38.9099 39.9603 38.7792 39.8202 38.765 39.6444L37.4231 23.0954C37.4065 22.8888 37.5609 22.7059 37.7675 22.6869C37.8292 22.6822 39.2946 22.5539 40.8835 22.7653C42.2871 22.9505 43.344 23.3424 44.028 23.9267C45.4102 25.1094 46.0539 30.3012 45.8567 34.4337C45.7902 35.8658 45.6192 37.1507 45.3651 38.1505C45.1229 39.0958 44.351 39.8225 43.3939 40.003C42.9022 40.0957 42.2277 40.1788 41.3894 40.1788ZM39.4965 39.2834C41.2041 39.5209 42.4747 39.4045 43.2561 39.2597C43.9235 39.1338 44.4626 38.6279 44.6312 37.9653C44.8735 37.0153 45.035 35.7803 45.0991 34.4004C45.3034 30.0969 44.5576 25.3802 43.534 24.5062C42.964 24.0193 42.0377 23.6868 40.7837 23.5205C39.7411 23.3828 38.7341 23.3994 38.2092 23.4232L39.4965 39.2834Z" fill="#371A45"/>
<g opacity="0.2">
<path d="M45.4831 34.4167C45.4189 35.768 45.2622 37.0363 45.0033 38.0575C44.7967 38.865 44.1483 39.4778 43.3289 39.6298C42.4146 39.8008 41.0109 39.91 39.1466 39.6132L37.8047 23.0642C37.8047 23.0642 39.2724 22.9335 40.8376 23.1402C39.3698 25.0473 35.0711 31.8018 45.4831 34.4167Z" fill="#371A45"/>
</g>
<path d="M42.8046 36.576C42.2774 36.576 41.8048 36.2031 41.6979 35.6687C41.61 35.2293 41.5554 34.771 41.5316 34.3102C41.5221 34.1012 41.6836 33.9231 41.8926 33.9136C42.1016 33.9041 42.2798 34.0632 42.2893 34.2746C42.3106 34.6997 42.3605 35.1201 42.4413 35.5238C42.4817 35.721 42.6764 35.8516 42.8759 35.8136L44.0468 35.5856C44.1869 35.5571 44.2985 35.4526 44.3365 35.3125C44.7996 33.5763 44.5693 31.4555 44.4482 30.6242C44.441 30.5743 44.3983 30.5387 44.3484 30.5387C44.346 30.5387 44.346 30.5387 44.3436 30.5387C42.8949 30.5957 42.6598 30.648 42.6384 30.6551C42.4365 30.7097 42.2275 30.591 42.1729 30.3891C42.1183 30.1872 42.237 29.9782 42.4389 29.9236C42.5125 29.9046 42.7334 29.8428 44.3151 29.7811C44.7521 29.7621 45.1345 30.0803 45.1986 30.5173C45.3245 31.3961 45.5668 33.6381 45.0704 35.5096C44.9588 35.9276 44.6144 36.2506 44.1916 36.3337L43.0208 36.5617C42.9495 36.5688 42.8759 36.576 42.8046 36.576Z" fill="#371A45"/>
<path d="M44.267 33.4506C44.0651 34.2676 43.2766 35.8659 40.1844 34.9611C40.1844 34.9611 41.911 39.1601 39.2652 43.5301C37.2797 46.8099 36.1801 50.6289 35.755 52.3318C35.5294 53.2319 34.9499 54.0133 34.1281 54.4456C33.5082 54.7733 32.7435 54.9182 31.9597 54.4384C30.1547 53.3293 30.1381 52.8828 30.1381 52.8662C30.1381 52.8662 29.1525 52.9232 28.3474 52.6168C27.8415 52.4268 27.4069 52.0919 27.3309 51.5148C27.3261 51.4863 27.3237 51.4602 27.3214 51.4317C27.2739 50.7667 27.4662 50.2038 27.8059 49.7763C28.2737 49.1802 29.0242 48.8429 29.7937 48.8429C29.7937 48.8429 30.7057 45.0097 31.3945 42.8817L29.0314 42.7724L28.8936 42.7677C28.8936 42.7677 26.2479 48.5769 25.2409 51.7404C25.2409 51.7404 25.1174 52.7379 21.8565 52.4696C19.1822 52.2487 17.2965 51.9518 16.6529 51.1847C16.6505 51.1823 16.6505 51.1799 16.6481 51.1776C16.5104 51.0113 16.4296 50.8237 16.413 50.6099C16.318 49.4011 17.2181 47.8098 19.6715 48.3846C20.0467 45.4704 20.5977 42.8342 21.7995 41.2334L21.3459 30.9639C21.3459 30.9639 22.2864 26.4894 25.7206 25.3684C29.1525 24.2474 37.9257 24.5063 37.9257 24.5063C37.9257 24.5063 40.657 24.9647 42.2981 27.7126C43.0391 28.9547 43.5284 30.1612 43.8419 31.1064V31.1088C44.0794 31.8261 44.2147 32.3937 44.2836 32.7191C44.3287 32.9589 44.3264 33.2107 44.267 33.4506Z" fill="white"/>
<path d="M33.0104 55.127C32.5758 55.127 32.1554 55.0058 31.7588 54.7612C30.7898 54.1651 30.1581 53.6521 29.8944 53.2484C29.5239 53.246 28.8257 53.2056 28.2082 52.9705C28.2011 52.9681 28.1939 52.9657 28.1868 52.961C27.2772 52.6095 27.0112 52.011 26.9494 51.5668C26.9447 51.5312 26.9399 51.4956 26.9376 51.4576C26.8853 50.7309 27.0801 50.0682 27.5052 49.5362C27.9754 48.9401 28.6998 48.5553 29.4883 48.4746C29.6926 47.6315 30.3314 45.0356 30.8824 43.233L29.1297 43.1522C28.6286 44.2637 26.4863 49.0707 25.6076 51.8233C25.5387 52.182 25.0447 53.1059 21.8218 52.8399C18.9884 52.6071 17.0861 52.2889 16.3593 51.422C16.3546 51.4149 16.3474 51.4077 16.3427 51.4006C16.1598 51.175 16.0529 50.9185 16.0316 50.6335C15.9674 49.807 16.2857 49.0066 16.8842 48.4912C17.3212 48.116 18.0907 47.736 19.3447 47.9284C19.6772 45.4655 20.1997 42.8079 21.4109 41.1097L20.9644 30.9732C20.9621 30.9424 20.9668 30.9091 20.9716 30.8782C21.0119 30.6859 21.9976 26.1757 25.5981 25.0001C29.0537 23.872 37.5704 24.1071 37.9314 24.119C37.9481 24.119 37.9671 24.1214 37.9837 24.1237C38.1024 24.1427 40.9073 24.6439 42.6173 27.5105C43.2562 28.5792 43.7858 29.7477 44.1943 30.9804C44.1967 30.9899 44.1991 30.9994 44.2014 31.0089C44.4508 31.7689 44.5862 32.3531 44.6456 32.6357C44.7097 32.9397 44.7049 33.2437 44.6313 33.5406C44.5031 34.0655 44.1848 34.7827 43.4129 35.2292C42.7313 35.6211 41.8383 35.709 40.7529 35.4929C41.1377 36.8894 41.6958 40.2381 39.5844 43.727C37.5942 47.0116 36.4969 50.9042 36.1169 52.4242C35.8604 53.4502 35.1978 54.31 34.3001 54.7826C33.8654 55.013 33.4308 55.127 33.0104 55.127ZM30.5096 52.8018C30.5428 52.8683 30.7827 53.2721 32.1578 54.1152C32.7112 54.4548 33.2978 54.4549 33.9486 54.1105C34.6563 53.7376 35.1788 53.056 35.3831 52.239C35.8652 50.3081 36.9672 46.5841 38.9384 43.3327C41.4488 39.186 39.8481 35.1437 39.8314 35.1034C39.7768 34.968 39.8029 34.8136 39.9003 34.7067C39.9977 34.5999 40.1473 34.5547 40.2874 34.5975C41.4773 34.9442 42.4012 34.9371 43.0353 34.5737C43.5768 34.2626 43.8024 33.7425 43.8951 33.3625C43.9402 33.1772 43.9426 32.9872 43.9022 32.7972C43.8452 32.5265 43.7146 31.966 43.4723 31.2274C43.4699 31.2179 43.4676 31.2107 43.4652 31.2012C43.0757 30.0304 42.5722 28.9212 41.9642 27.9071C40.5178 25.4822 38.1357 24.9384 37.8768 24.8837C37.3116 24.8695 29.0632 24.6724 25.8308 25.7292C22.8241 26.7101 21.8289 30.5457 21.7197 30.9994L22.1709 41.2166C22.1757 41.3045 22.1472 41.39 22.0949 41.4612C20.8623 43.1023 20.3659 45.9048 20.0406 48.4318C20.0263 48.5387 19.9693 48.6337 19.8814 48.6955C19.7936 48.7572 19.6843 48.7786 19.5798 48.7525C18.6393 48.5316 17.8769 48.6432 17.3758 49.0707C16.8866 49.4911 16.7488 50.1252 16.7844 50.5765C16.7939 50.7095 16.8414 50.8235 16.9317 50.9304C16.9364 50.9351 16.9412 50.9422 16.9436 50.947C17.5444 51.6405 19.6701 51.9065 21.8812 52.087C24.4248 52.2984 24.8357 51.7046 24.8642 51.6524C24.8666 51.6429 24.8689 51.631 24.8713 51.6215C25.8736 48.4722 28.5122 42.6654 28.5407 42.606C28.6048 42.4659 28.7473 42.378 28.9017 42.3851L29.0394 42.3899C29.0489 42.3899 29.0608 42.3922 29.0703 42.3922L31.4049 42.4991C31.5237 42.5039 31.6329 42.5656 31.6994 42.663C31.7659 42.7604 31.7849 42.8839 31.7493 42.9955C31.0724 45.0855 30.1652 48.8902 30.1557 48.9282C30.1153 49.0992 29.9633 49.2204 29.7876 49.2204C29.1178 49.2204 28.4861 49.5149 28.0989 50.0089C27.7949 50.3912 27.6548 50.8734 27.6928 51.403C27.6928 51.4172 27.6952 51.4339 27.6976 51.4505C27.6976 51.4552 27.6999 51.46 27.6999 51.4624C27.7166 51.593 27.7712 51.9944 28.4742 52.2604C28.4813 52.2627 28.4884 52.2651 28.4956 52.2698C29.2104 52.5335 30.1034 52.4883 30.1106 52.4883C30.2174 52.4836 30.3172 52.5192 30.3932 52.5929C30.4549 52.6499 30.4953 52.7235 30.5096 52.8018Z" fill="#371A45"/>
<path d="M36.9998 38.5849L30.972 41.7057C30.7013 41.8458 30.3973 41.9052 30.0933 41.879L20.2893 40.9979L19.5174 40.929C18.9498 40.8792 18.4582 40.5182 18.2397 39.9909L15.1047 32.455C15.0025 32.2128 15.0382 31.9373 15.1925 31.7283L15.6937 31.0514C15.8362 30.859 16.0618 30.7474 16.3017 30.7498L26.792 30.9042C27.2742 30.9113 27.704 31.2177 27.8655 31.6737L29.7537 36.9842L36.5295 37.4497L36.8573 37.4734L36.9998 38.5849Z" fill="#B1B1BA"/>
<g opacity="0.61">
<path d="M16.2518 31.8827C16.0974 32.0917 16.0642 32.3672 16.1639 32.6094L19.2989 40.1453C19.4604 40.5372 19.7763 40.8364 20.161 40.986L19.5174 40.929C18.9498 40.8792 18.4582 40.5182 18.2397 39.9909L15.1047 32.455C15.0025 32.2128 15.0382 31.9373 15.1925 31.7283L15.6937 31.0514C15.8362 30.859 16.0618 30.7474 16.3017 30.7498L26.792 30.9042C26.9868 30.9065 27.1744 30.9588 27.3383 31.0514L17.3633 30.9042C17.1234 30.9018 16.8978 31.0134 16.7553 31.2058L16.2518 31.8827Z" fill="white"/>
</g>
<path d="M30.2341 42.2641C30.1748 42.2641 30.1154 42.2617 30.056 42.257L19.4801 41.307C18.77 41.2428 18.1596 40.794 17.8841 40.1361L14.7491 32.6002C14.5995 32.2392 14.6494 31.8165 14.8821 31.503L15.3833 30.8261C15.597 30.5363 15.9461 30.363 16.3024 30.3701L26.7928 30.5245C27.4316 30.534 28.004 30.9448 28.2177 31.5457L30.0227 36.6211L36.877 37.0937C37.0575 37.1056 37.2048 37.2433 37.2261 37.4238L37.371 38.5353C37.3924 38.6945 37.3116 38.8465 37.1691 38.9201L31.1414 42.0408C30.8611 42.1905 30.55 42.2641 30.2341 42.2641ZM16.2881 31.1277C16.1741 31.1277 16.0649 31.1823 15.996 31.275L15.4949 31.9518C15.4189 32.054 15.4022 32.1917 15.4521 32.3081L18.5871 39.844C18.7534 40.2406 19.1215 40.5113 19.549 40.5493L30.1249 41.4993C30.3576 41.5207 30.588 41.4756 30.7946 41.3687L36.5873 38.3691L36.5184 37.83L29.7259 37.3621C29.5762 37.3526 29.4456 37.2528 29.3934 37.1103L27.5052 31.7998C27.396 31.4958 27.1063 31.2868 26.7833 31.2821L16.2929 31.1277C16.2905 31.1277 16.2905 31.1277 16.2881 31.1277Z" fill="#371A45"/>
<path d="M31.2703 41.9288C31.1112 41.9288 30.9639 41.829 30.9093 41.6699L29.3869 37.1028C29.3204 36.9033 29.4273 36.6895 29.6268 36.623C29.8263 36.5565 30.0401 36.6634 30.1066 36.8629L31.6289 41.43C31.6954 41.6295 31.5886 41.8433 31.3891 41.9098C31.3511 41.9216 31.3083 41.9288 31.2703 41.9288Z" fill="#371A45"/>
<path d="M30.8672 40.6185C30.7603 40.6185 30.6582 40.5591 30.6083 40.457C30.5371 40.3145 30.5964 40.1411 30.7389 40.0722L36.5577 37.2008C36.7002 37.1296 36.8736 37.189 36.9424 37.3315C37.0137 37.474 36.9543 37.6473 36.8118 37.7162L30.9931 40.5876C30.9527 40.609 30.9099 40.6185 30.8672 40.6185Z" fill="#371A45"/>
<path d="M28.8871 42.0555C28.8515 42.0555 28.8135 42.0532 28.7779 42.0508C28.6187 42.0342 28.5047 41.894 28.5214 41.7349C28.538 41.5758 28.6805 41.4618 28.8372 41.4784C28.9987 41.4951 29.1507 41.4309 29.2552 41.3051C29.3574 41.1768 29.3859 41.0153 29.3336 40.8609L26.7639 33.1802C26.6499 32.8358 26.3292 32.6054 25.9659 32.6054L15.9505 32.4297C15.8317 32.4273 15.7249 32.4819 15.656 32.5769C15.5871 32.6743 15.5705 32.793 15.6109 32.9047L15.6821 33.1042C15.7367 33.2538 15.6584 33.4177 15.5087 33.4723C15.3591 33.5246 15.1952 33.4485 15.1406 33.2989L15.0694 33.0994C14.9672 32.8121 15.0124 32.4914 15.1905 32.242C15.3686 31.9927 15.6607 31.8454 15.9624 31.8549L25.973 32.0307C26.5786 32.0307 27.1177 32.4202 27.3101 32.9973L29.8799 40.6781C29.9939 41.0177 29.9274 41.3858 29.7041 41.6661C29.5022 41.9131 29.203 42.0555 28.8871 42.0555Z" fill="#371A45"/>
<path d="M27.7814 31.3844L26.7578 32.2584L27.3254 31.0376C27.5534 30.6173 28.1234 31.0519 27.7814 31.3844Z" fill="#371A45"/>
<path d="M24.126 36.3716C24.126 37.5092 23.2852 38.4307 22.2497 38.4307C21.8602 38.4307 21.4992 38.3001 21.2 38.0768C21.048 37.9628 21.0955 37.7277 21.2807 37.6802C21.9695 37.5021 22.473 36.9273 22.473 36.2433C22.473 35.6424 22.0811 35.1223 21.5182 34.8872C21.3401 34.8136 21.3235 34.5642 21.4969 34.4811C21.7272 34.3694 21.9814 34.3101 22.2497 34.3101C23.2852 34.3101 24.126 35.2316 24.126 36.3716Z" fill="#371A45"/>
<g opacity="0.61">
<path d="M24.3606 36.7157C24.3606 37.8534 23.5198 38.7749 22.4843 38.7749C22.0948 38.7749 21.7338 38.6442 21.4346 38.421C21.3515 38.3592 21.3277 38.2595 21.3538 38.1764C21.6198 38.3379 21.9286 38.4305 22.254 38.4305C23.2895 38.4305 24.1302 37.509 24.1302 36.3714C24.1302 35.9937 24.0376 35.6375 23.8737 35.3335C24.1777 35.6969 24.3606 36.1837 24.3606 36.7157Z" fill="white"/>
</g>
<g opacity="0.2">
<path d="M36.9989 38.5565L30.9711 41.6773C30.7004 41.8174 30.3964 41.8768 30.0924 41.8507L20.2884 40.9695L20.2812 40.9576C20.742 40.8175 27.7958 39.9744 26.7603 32.6119L27.7958 32.1084L29.9095 37.4308C29.9095 37.4308 30.6529 40.181 33.548 38.8653C34.8424 38.2763 35.8304 37.7846 36.5263 37.4189L36.854 37.4426L36.9989 38.5565Z" fill="#371A45"/>
</g>
<path d="M29.8248 48.4651C31.1476 48.7572 32.3874 49.3557 33.4609 50.1703C33.164 50.0278 32.8671 49.8901 32.5584 49.7808C31.663 49.4531 30.7035 49.2417 29.7535 49.2204C29.2025 49.199 29.2761 48.3844 29.8248 48.4651Z" fill="#371A45"/>
<path d="M29.9524 52.5336C30.5129 52.3863 31.0591 52.4124 31.622 52.4124C31.2658 52.5882 30.9143 52.7711 30.5841 52.9872C30.4796 53.0561 30.3751 53.1321 30.311 53.2009C30.1614 53.3648 29.9096 53.3767 29.7458 53.2271C29.4988 53.0038 29.6294 52.5953 29.9524 52.5336Z" fill="#371A45"/>
<path d="M19.7716 48.0187C20.5268 48.3869 21.2987 48.7265 21.9851 49.2062C21.7903 49.135 21.5885 49.0899 21.389 49.0471C20.7857 48.9213 20.1682 48.8286 19.5602 48.7479C19.3488 48.7217 19.2016 48.527 19.2301 48.318C19.2562 48.0615 19.5412 47.9071 19.7716 48.0187Z" fill="#371A45"/>
<path d="M26.9104 47.3799C26.7323 47.3799 26.5732 47.254 26.5376 47.0735C26.2977 45.8432 25.5733 44.8362 24.5022 44.2401C23.3883 43.6226 22.0322 43.5181 20.8732 43.9599C20.6784 44.0359 20.4576 43.9361 20.3839 43.7414C20.3103 43.5466 20.4077 43.3257 20.6024 43.2521C21.9681 42.7296 23.5641 42.8507 24.8703 43.5775C26.1433 44.2829 27.0007 45.4727 27.2833 46.9286C27.3237 47.1352 27.1883 47.3324 26.9841 47.3727C26.9603 47.3775 26.9342 47.3799 26.9104 47.3799Z" fill="#371A45"/>
<path d="M28.8886 43.143C28.8055 43.143 28.7247 43.1168 28.6559 43.0646C28.4469 42.9506 27.0955 42.3901 25.8795 41.9008C25.6847 41.8225 25.5897 41.6016 25.6681 41.4068C25.7465 41.2121 25.9674 41.1171 26.1621 41.1955C29.0454 42.3521 29.1095 42.4328 29.1831 42.5255C29.3137 42.6893 29.2876 42.9268 29.1237 43.0598C29.0549 43.1168 28.9717 43.143 28.8886 43.143Z" fill="#371A45"/>
<path d="M37.1472 47.6672C37.0214 47.6672 36.8955 47.6031 36.8242 47.4891C36.0951 46.3158 34.0811 43.7295 31.1266 45.0286C30.9342 45.1117 30.711 45.0262 30.6255 44.8338C30.5424 44.6415 30.6279 44.4182 30.8202 44.3327C33.2475 43.264 35.7317 44.2947 37.4679 47.0877C37.5795 47.2658 37.5249 47.4986 37.3467 47.6102C37.285 47.6506 37.2161 47.6672 37.1472 47.6672Z" fill="#371A45"/>
<path d="M35.8919 35.4502C35.7494 35.4502 35.6022 35.4336 35.4502 35.3956C34.6735 35.2008 33.9325 34.8612 33.4172 34.4598C32.9588 34.1036 32.6999 33.5526 32.707 32.9683C32.4387 33.1987 32.1774 33.4125 32.0492 33.4932C31.7974 33.6523 31.4578 33.6357 31.1799 33.4505C30.9947 33.327 30.579 32.947 30.7263 32.0777C30.9234 30.9116 33.1773 29.6695 33.6262 29.432C34.1772 29.1398 36.298 29.3013 37.2172 29.3868L39.2454 29.2681C39.2692 29.2657 39.2953 29.2681 39.319 29.2705C40.3474 29.413 41.1739 30.0827 41.5824 31.1111C42.1144 32.4435 41.8532 34.0656 40.915 35.2388C40.7844 35.4027 40.5445 35.4288 40.383 35.2982C40.3807 35.2958 40.3759 35.2935 40.3735 35.2887C40.2928 35.3386 40.1907 35.3552 40.0909 35.3315L37.4903 34.7116C37.2172 34.9823 36.64 35.4502 35.8919 35.4502ZM33.2414 31.6146C33.3055 31.6146 33.3697 31.6312 33.4267 31.6621C33.5692 31.7405 33.6428 31.902 33.6143 32.0611L33.4837 32.7736C33.4077 33.194 33.5597 33.6096 33.8803 33.859C34.3102 34.1938 34.9657 34.4931 35.633 34.6593C36.412 34.8541 37.0533 34.0632 37.0604 34.0537C37.1507 33.9397 37.3027 33.8851 37.4452 33.9207L40.2643 34.5928C40.3165 34.6047 40.3617 34.6285 40.402 34.657C41.0955 33.7141 41.2879 32.4197 40.877 31.3913C40.5707 30.6242 39.9935 30.1421 39.2502 30.0257L37.2314 30.1445C37.2124 30.1445 37.1934 30.1445 37.1744 30.1445C35.8515 30.0186 34.2508 29.9735 33.9777 30.1017C32.8329 30.705 31.567 31.6478 31.472 32.2036C31.4269 32.4696 31.4602 32.6833 31.5623 32.7902C31.6027 32.833 31.6407 32.8425 31.6573 32.8448C31.8592 32.7071 32.5717 32.0848 32.9873 31.7143C33.0609 31.6478 33.1512 31.6146 33.2414 31.6146Z" fill="#371A45"/>
<path d="M37.1546 34.4931L36.4943 33.5882L36.6867 33.5526L36.2734 34.2105L36.4706 33.46C36.4967 33.3697 36.6012 33.3602 36.6629 33.4244L37.5654 34.0917C37.9051 34.3696 37.4348 34.8375 37.1546 34.4931Z" fill="#371A45"/>
<path d="M36.6796 29.8883L36.2734 28.1545L37.3089 29.6033L36.6796 29.8883Z" fill="#371A45"/>
<path d="M24.8359 30.7499L25.1803 29.1326L25.5247 30.7499H24.8359Z" fill="#371A45"/>
<path d="M27.849 31.7264C27.6447 31.7264 27.4785 31.5649 27.469 31.3607C27.4618 31.1517 27.6257 30.9759 27.8347 30.9688L31.611 30.831C31.8223 30.8239 31.9957 30.9878 32.0028 31.1968C32.01 31.4058 31.8461 31.5815 31.6371 31.5887L27.8608 31.7264C27.8585 31.7264 27.8537 31.7264 27.849 31.7264Z" fill="#371A45"/>
<path d="M29.3524 36.2125C29.1672 36.2125 29.0152 36.0677 29.0081 35.88C29.0009 35.69 29.1482 35.5285 29.3382 35.5214L33.1026 35.3718C33.3163 35.3623 33.4849 35.1889 33.4849 34.9728V34.2912C33.4849 34.1012 33.6393 33.9468 33.8293 33.9468C34.0193 33.9468 34.1737 34.1012 34.1737 34.2912V34.9752C34.1737 35.5618 33.7153 36.0392 33.1287 36.0629L29.3643 36.2125C29.3619 36.2125 29.3572 36.2125 29.3524 36.2125Z" fill="#371A45"/>
<path d="M29.1337 35.1914C28.9508 35.1914 28.7964 35.0465 28.7893 34.8612C28.7822 34.6712 28.9294 34.5097 29.1194 34.5026L31.6417 34.3957C31.7248 34.3934 31.8008 34.3577 31.8554 34.296C31.9101 34.2342 31.9386 34.1559 31.9338 34.0727L31.8673 32.909C31.8554 32.719 32.0027 32.5551 32.1927 32.5456C32.3827 32.5361 32.5466 32.681 32.5561 32.871L32.6226 34.0347C32.6368 34.3031 32.5466 34.5596 32.3661 34.7591C32.1856 34.9586 31.9386 35.075 31.6702 35.0869L29.1479 35.1937C29.1432 35.1914 29.1384 35.1914 29.1337 35.1914Z" fill="#371A45"/>
<path d="M32.459 34.2983L33.5206 35.3148L32.1122 34.8944C31.9246 34.8374 31.8177 34.6403 31.8747 34.4527C31.9412 34.2033 32.2761 34.1154 32.459 34.2983Z" fill="#371A45"/>
<path d="M42.8982 24.4775C42.4707 24.9288 41.8722 25.2019 41.25 25.2233C41.6751 24.7673 42.276 24.4989 42.8982 24.4775Z" fill="#371A45"/>
<g opacity="0.3">
<path d="M27.7986 49.7734C27.6633 50.3363 27.5041 50.9348 27.3213 51.5119C27.3165 51.4834 27.3141 51.4573 27.3118 51.4288C27.2643 50.7638 27.459 50.2009 27.7986 49.7734Z" fill="#000070"/>
</g>
<g opacity="0.2">
<path d="M29.0262 42.7696L28.8885 42.7649C28.8885 42.7649 26.2428 48.5741 25.2358 51.7376C25.2358 51.7376 25.1123 52.7351 21.8514 52.4668C19.1771 52.2459 17.2914 51.949 16.6478 51.1819C16.643 51.1748 16.6406 51.1724 16.6406 51.1724C16.6406 51.1724 17.5574 49.6809 20.4335 50.6143C23.3096 51.5453 23.8274 48.3818 23.8274 48.3818C23.8274 48.3818 26.8175 43.2945 25.1787 41.4373L29.0262 42.7696Z" fill="#371A45"/>
</g>
<g opacity="0.2">
<path d="M44.2087 33.4788C44.0068 34.2958 43.2183 35.8942 40.1261 34.9893C40.1261 34.9893 41.8527 39.1883 39.2069 43.5583C37.2214 46.8382 36.1218 50.6572 35.6967 52.3601C35.4711 53.2602 34.8916 54.0416 34.0698 54.4738C33.4499 54.8016 32.6852 54.9465 31.9014 54.4667C30.0964 53.3576 30.0798 52.9111 30.0798 52.8945C30.0798 52.8945 29.0942 52.9515 28.2891 52.6451C28.2891 52.6451 32.3171 53.1462 32.5736 51.5051C32.8301 49.864 32.5736 49.7333 32.5736 49.7333C32.5736 49.7333 36.1266 43.5726 36.6301 42.1856C37.1359 40.7986 36.4068 40.3592 36.4068 40.3592L31.5761 41.7961L37.0979 38.4592L36.9459 36.2243C36.9459 36.2243 34.6422 36.4808 33.9273 35.0986L33.4666 35.6116L32.1936 34.3386L32.2316 32.5739L33.4666 31.9018C33.4666 31.9018 34.4688 34.0084 36.2239 32.9159L36.9459 32.4956C36.9459 32.4956 44.0804 34.3908 43.7812 31.1323C44.0187 31.8496 44.1541 32.4172 44.2229 32.7426C44.2704 32.9872 44.2681 33.239 44.2087 33.4788Z" fill="#371A45"/>
</g>
<g opacity="0.2">
<path d="M31.2734 28.0117C31.2734 28.0117 38.1206 29.6505 40.4504 25.4515L38.4222 24.6321" fill="#371A45"/>
</g>
<path d="M20.3095 22.0122C21.3569 23.6724 22.8318 25.0807 24.6487 26.0569C25.0192 26.2564 25.4015 26.4369 25.8005 26.5984C25.9929 26.6767 26.19 26.7527 26.3919 26.8216C26.9975 27.033 27.6079 27.1897 28.2207 27.299C28.7479 27.394 29.2775 27.4534 29.8048 27.4771C30.4413 27.5056 31.073 27.4819 31.6953 27.413C31.9233 27.3869 32.1489 27.3536 32.3722 27.3156C36.4785 26.6055 40.1028 23.7911 41.6085 19.6349C43.8315 13.5145 40.6182 6.81224 34.4384 4.66049C33.2486 4.24725 32.0325 4.03112 30.8308 3.99787C30.6907 3.99312 30.5505 3.99074 30.408 3.99312C30.0304 3.99549 29.6575 4.01687 29.2847 4.05249C28.4249 4.14037 27.5818 4.31849 26.7719 4.58449C25.9597 4.84812 25.1783 5.19724 24.442 5.62474C24.2069 5.76012 23.9789 5.90262 23.7533 6.05462C23.416 6.28262 23.0907 6.52487 22.7748 6.78849C21.2073 8.08999 19.958 9.80712 19.2194 11.8449C17.9417 15.3694 18.4618 19.0815 20.3095 22.0122Z" fill="white"/>
<path d="M30.3316 27.5246C30.1535 27.5246 29.9754 27.5198 29.7996 27.5127C29.2652 27.4889 28.7309 27.4296 28.2107 27.3346C27.5932 27.2253 26.9757 27.0638 26.3772 26.8548C26.1587 26.7764 25.964 26.7028 25.7835 26.6292C25.394 26.4701 25.0045 26.2872 24.6292 26.0853C22.8551 25.1306 21.3494 23.7269 20.2782 22.0288C18.345 18.9651 17.946 15.2506 19.1857 11.8377C19.9006 9.86405 21.1356 8.1113 22.753 6.76705C23.0594 6.51055 23.3871 6.26355 23.7339 6.0308C23.9547 5.88118 24.1875 5.73631 24.425 5.59856C25.1636 5.17106 25.9497 4.81956 26.762 4.55593C27.5814 4.28993 28.4292 4.10943 29.2819 4.02393C29.6524 3.98593 30.0324 3.96693 30.4076 3.96455C30.5572 3.96218 30.6974 3.96456 30.8304 3.96931C32.0559 4.00256 33.2719 4.22581 34.4475 4.63193C37.459 5.67931 39.8625 7.8263 41.2186 10.6787C42.5629 13.5073 42.7125 16.6946 41.639 19.6491C40.1831 23.6628 36.6325 26.6149 32.3765 27.3512C32.1532 27.3892 31.9252 27.4224 31.6972 27.4486C31.2412 27.4984 30.7852 27.5246 30.3316 27.5246ZM20.3352 21.9932C21.4016 23.6818 22.8979 25.0783 24.6625 26.0259C25.0377 26.2278 25.4225 26.4083 25.8096 26.5674C25.9877 26.6411 26.1801 26.7147 26.3986 26.7907C26.9924 26.9973 27.6075 27.1588 28.2226 27.2681C28.738 27.3607 29.27 27.4201 29.802 27.4438C30.4242 27.4723 31.0584 27.4509 31.6877 27.3797C31.9157 27.3536 32.1414 27.3203 32.3646 27.2823C36.5969 26.5508 40.1261 23.6177 41.5749 19.6253C42.6412 16.6851 42.494 13.5192 41.1569 10.7048C39.8079 7.86906 37.4186 5.73393 34.4237 4.69368C33.2552 4.28756 32.0464 4.06668 30.828 4.03343C30.695 4.02868 30.5572 4.02631 30.4076 4.02868C30.0324 4.03106 29.6571 4.05243 29.289 4.08806C28.4411 4.17356 27.598 4.35168 26.7834 4.61768C25.9759 4.87893 25.1945 5.22806 24.4606 5.65556C24.2255 5.79331 23.9927 5.93581 23.7742 6.08543C23.4322 6.31581 23.1045 6.56281 22.8005 6.81693C21.1926 8.15406 19.9671 9.89731 19.2546 11.8591C18.0149 15.2529 18.4115 18.9461 20.3352 21.9932Z" fill="#371A45"/>
<g opacity="0.2">
<path d="M41.6032 19.6378C40.0951 23.7916 36.4732 26.6084 32.3668 27.3185C32.1436 27.3565 31.9179 27.3898 31.6899 27.4159C31.0677 27.4871 30.4336 27.5109 29.7994 27.4824C29.2722 27.4586 28.7426 27.4016 28.2153 27.3043C27.6026 27.195 26.9922 27.0359 26.3866 26.8269C26.1871 26.7556 25.9899 26.682 25.7952 26.6036C25.3986 26.4421 25.0138 26.2593 24.6433 26.0598C22.8264 25.0813 21.3516 23.6753 20.3042 22.0151C19.7294 21.1031 19.2806 20.1128 18.9766 19.0773C20.0144 20.64 21.4347 21.9629 23.1684 22.8939C23.5389 23.0934 23.9213 23.2739 24.3203 23.4378C24.5127 23.5161 24.7098 23.5898 24.9117 23.661C25.5173 23.8724 26.1277 24.0291 26.7404 24.1408C27.2677 24.2358 27.7973 24.2928 28.3246 24.3189C28.9611 24.3474 29.5928 24.3236 30.2151 24.2524C30.4431 24.2263 30.6687 24.193 30.8919 24.155C34.9983 23.4473 38.6226 20.6305 40.1283 16.4743C41.0094 14.0518 41.0356 11.5366 40.3634 9.24951C42.3323 12.2088 42.9142 16.0254 41.6032 19.6378Z" fill="#371A45"/>
</g>
<path d="M30.3356 27.7475C30.1551 27.7475 29.9722 27.7428 29.7941 27.7357C29.2502 27.7119 28.7039 27.6502 28.1767 27.5552C27.5473 27.4435 26.918 27.2773 26.3099 27.0659C26.0867 26.9875 25.8896 26.9115 25.7067 26.8355C25.3101 26.674 24.9158 26.4888 24.5311 26.2822C22.7213 25.3084 21.1894 23.8787 20.0946 22.1473C18.1233 19.0242 17.7172 15.2384 18.9807 11.759C19.7098 9.74741 20.9662 7.96141 22.6144 6.59103C22.9256 6.33216 23.2604 6.07803 23.6119 5.84291C23.8376 5.69091 24.0751 5.54366 24.315 5.40353C25.0678 4.96653 25.8682 4.61028 26.6947 4.34191C27.5283 4.07116 28.3928 3.88828 29.2621 3.79803C29.6397 3.76003 30.0268 3.73866 30.4092 3.73628C30.5612 3.73391 30.7037 3.73628 30.8414 3.74103C32.0883 3.77428 33.3281 4.00228 34.5227 4.41791C37.5912 5.48428 40.0398 7.67403 41.4221 10.5787C42.7924 13.4619 42.9468 16.7085 41.8519 19.7224C40.3676 23.8122 36.7528 26.8189 32.4161 27.567C32.1881 27.605 31.9577 27.6383 31.7249 27.6668C31.2618 27.7214 30.7963 27.7475 30.3356 27.7475ZM20.5292 21.8742C21.5742 23.5319 23.0419 24.8975 24.7733 25.8309C25.1414 26.028 25.5191 26.2062 25.8991 26.3605C26.0748 26.4318 26.2648 26.5054 26.4786 26.5814C27.0604 26.7833 27.6637 26.9424 28.2669 27.0493C28.7728 27.1419 29.2953 27.1989 29.8178 27.2227C30.4306 27.2512 31.0528 27.2298 31.6679 27.1585C31.8912 27.1324 32.1144 27.0992 32.3306 27.0635C36.4844 26.3463 39.9472 23.4678 41.3698 19.549C42.4172 16.6658 42.27 13.5593 40.959 10.8019C39.6361 8.02078 37.292 5.92841 34.3565 4.90716C33.2093 4.51053 32.0242 4.29203 30.8272 4.25878C30.6942 4.25403 30.5612 4.25166 30.4163 4.25403C30.0482 4.25641 29.6777 4.27541 29.3167 4.31341C28.4854 4.39891 27.6566 4.57228 26.8562 4.83353C26.063 5.09003 25.2958 5.43203 24.5762 5.85003C24.3435 5.98303 24.1178 6.12553 23.9017 6.27041C23.5644 6.49841 23.2438 6.73828 22.9446 6.98766C21.3676 8.29866 20.1634 10.011 19.4652 11.9348C18.2539 15.2645 18.6434 18.8864 20.5292 21.8742Z" fill="#371A45"/>
<path d="M30.3327 27.8235C30.1498 27.8235 29.9693 27.8187 29.7865 27.8116C29.2378 27.7879 28.6916 27.7261 28.1596 27.6287C27.5255 27.5147 26.8937 27.3509 26.281 27.1371C26.0553 27.0564 25.8558 26.9827 25.673 26.9067C25.274 26.7452 24.8773 26.5576 24.4902 26.3486C22.6686 25.3701 21.1272 23.9309 20.0276 22.1876C18.0445 19.0431 17.636 15.2336 18.9066 11.7352C19.6405 9.71174 20.904 7.91387 22.5641 6.53637C22.8776 6.27512 23.2148 6.02099 23.5687 5.78349C23.7943 5.63149 24.0342 5.48187 24.2765 5.34174C25.0341 4.90237 25.8392 4.54374 26.6705 4.27299C27.5088 3.99987 28.3781 3.81462 29.2521 3.72674C29.6321 3.68874 30.0216 3.66737 30.4063 3.66499C30.5607 3.66262 30.7032 3.66499 30.8433 3.66974C32.0973 3.70299 33.3442 3.93099 34.546 4.34899C37.6335 5.42249 40.0987 7.62412 41.4881 10.5477C42.868 13.45 43.0223 16.718 41.9203 19.7485C40.4265 23.8644 36.7903 26.8877 32.4275 27.643C32.1995 27.681 31.9643 27.7166 31.7316 27.7427C31.2661 27.7974 30.7958 27.8235 30.3327 27.8235ZM20.5881 21.8337C21.626 23.4796 23.0842 24.8381 24.8037 25.7644C25.1695 25.9615 25.5447 26.1372 25.9223 26.2916C26.0981 26.3629 26.2857 26.4341 26.4995 26.5101C27.079 26.712 27.6751 26.8687 28.276 26.9756C28.7795 27.0659 29.2972 27.1252 29.815 27.149C30.423 27.1775 31.0405 27.1561 31.6532 27.0849C31.8741 27.0587 32.095 27.0279 32.3135 26.9899C36.4412 26.2774 39.8826 23.4155 41.2933 19.5252C42.3336 16.661 42.1887 13.5759 40.8848 10.8375C39.5715 8.07537 37.2416 5.99487 34.3251 4.98074C33.1875 4.58649 32.0071 4.36799 30.8196 4.33712C30.689 4.33237 30.556 4.32999 30.4111 4.33237C30.0453 4.33474 29.6772 4.35374 29.3186 4.39174C28.4921 4.47487 27.6703 4.65062 26.8747 4.90949C26.0862 5.16599 25.3238 5.50562 24.609 5.92124C24.3786 6.05424 24.153 6.19437 23.9392 6.33924C23.6043 6.56487 23.2861 6.80474 22.9892 7.05174C21.4217 8.35562 20.2271 10.0537 19.5312 11.968C18.3295 15.2669 18.7166 18.865 20.5881 21.8337Z" fill="#371A45"/>
<path d="M22.2318 24.33C29.4755 28.6762 38.7356 24.6387 38.7404 16.3262C38.7451 10.6714 33.1378 6.33936 27.6349 6.72173C23.6306 6.99961 19.8306 8.99936 18.5244 15.2527C18.5244 15.2527 18.3795 18.1051 19.2678 19.941C20.1584 21.7769 21.3388 23.4109 21.3388 23.4109L22.2318 24.33Z" fill="#371A45"/>
<path d="M38.7438 16.3284C38.7391 24.6409 29.4766 28.676 22.2352 24.3322L22.0547 24.1445C29.7901 24.9948 37.1478 19.9764 37.3141 11.5713C38.2118 12.963 38.7438 14.5828 38.7438 16.3284Z" fill="#220F2D"/>
<path d="M28.4826 27.6363C28.3923 27.6363 28.3021 27.6363 28.2118 27.6339L28.1596 27.6292C27.5255 27.5152 26.8937 27.3513 26.281 27.1375C26.0553 27.0568 25.8558 26.9832 25.673 26.9072C25.274 26.7456 24.8773 26.558 24.4902 26.349C22.6686 25.3705 21.1272 23.9313 20.0276 22.188C18.0445 19.0435 17.636 15.234 18.9066 11.7356C19.6405 9.71215 20.904 7.91427 22.5641 6.53677L22.5902 6.5154L22.6211 6.49877C24.0105 5.76015 25.6492 5.3184 27.4922 5.19252C30.8101 4.96215 34.2918 6.2304 36.8117 8.58402C39.0822 10.7049 40.3315 13.4528 40.3291 16.3218C40.3267 19.4449 39.2033 22.1951 37.0825 24.2709C34.8856 26.4179 31.7648 27.6363 28.4826 27.6363ZM28.2498 26.9689C31.4466 27.0259 34.4913 25.8717 36.6122 23.7935C38.6025 21.8437 39.657 19.2597 39.6593 16.3194C39.6617 13.6356 38.4885 11.0611 36.3533 9.06852C33.9665 6.8384 30.67 5.63902 27.535 5.85515C25.8012 5.97627 24.2598 6.38477 22.9607 7.07115C21.4075 8.37027 20.22 10.0613 19.5312 11.9636C18.3318 15.2673 18.7166 18.8654 20.5905 21.8342C21.6283 23.48 23.0866 24.8385 24.8061 25.7648C25.1718 25.9619 25.5471 26.1376 25.9247 26.292C26.1005 26.3633 26.2881 26.4345 26.5018 26.5105C27.0695 26.7077 27.6585 26.862 28.2498 26.9689Z" fill="#371A45"/>
<path d="M28.5171 26.2208C26.3534 26.2208 24.1518 25.6223 22.1687 24.4325L22.1449 24.4135L21.2448 23.4777C21.2329 23.4611 20.0478 21.8128 19.1643 19.9912C18.2713 18.1506 18.4019 15.3623 18.4091 15.246L18.4114 15.227C19.5348 9.84996 22.6366 6.95008 27.6288 6.60333C30.531 6.40383 33.5806 7.51058 35.7869 9.57208C37.7701 11.4246 38.8626 13.8233 38.8602 16.3266C38.8578 19.9627 37.0765 23.055 33.9724 24.8125C32.3052 25.753 30.4266 26.2208 28.5171 26.2208ZM22.3041 24.2377C25.9616 26.4251 30.3838 26.5676 33.8513 24.6058C36.8794 22.8935 38.6156 19.8748 38.6179 16.3266C38.6203 13.8898 37.5563 11.5528 35.6207 9.74546C33.4618 7.72908 30.4764 6.64371 27.6407 6.84083C22.7695 7.17808 19.7414 10.0138 18.6418 15.2673C18.6347 15.4455 18.5326 18.153 19.3757 19.8891C20.2236 21.6347 21.3469 23.2165 21.4324 23.3328L22.3041 24.2377Z" fill="#371A45"/>
<path d="M43.9787 15.4691C44.259 17.7681 43.119 19.8676 41.4327 20.1574C39.7441 20.4495 38.1505 18.8226 37.8702 16.5236C37.8678 16.5094 37.8678 16.4927 37.8655 16.4785C37.6042 14.1985 38.7418 12.1227 40.4162 11.833C41.7201 11.6074 42.9693 12.5265 43.5987 14.0156C43.784 14.4597 43.9146 14.9466 43.9787 15.4691Z" fill="white"/>
<g opacity="0.2">
<path d="M43.9726 15.4687C44.2529 17.7677 43.1129 19.8672 41.4266 20.157C39.738 20.4491 38.1444 18.8222 37.8641 16.5232C37.8618 16.509 37.8618 16.4923 37.8594 16.4781C38.0731 16.6823 38.3914 16.8652 38.7714 16.718C39.4388 16.4615 40.4885 14.7728 40.4885 14.7728C40.4885 14.7728 41.8328 14.4356 43.5926 14.0176C43.7779 14.4593 43.9085 14.9462 43.9726 15.4687Z" fill="#371A45"/>
</g>
<path d="M41.0326 20.5254C40.4365 20.5254 39.8499 20.3212 39.3179 19.9245C38.3608 19.212 37.71 17.9889 37.5366 16.5639C37.235 14.0963 38.5009 11.8282 40.3581 11.5075C41.1086 11.3769 41.8591 11.5717 42.5265 12.068C43.4836 12.7805 44.1344 14.0037 44.3078 15.4287C44.6094 17.8963 43.3435 20.1644 41.4862 20.485C41.3366 20.5135 41.1846 20.5254 41.0326 20.5254ZM40.807 12.1369C40.6954 12.1369 40.5838 12.1464 40.4698 12.1654C38.9569 12.4267 37.9356 14.3647 38.1969 16.4855C38.3465 17.711 38.9141 18.7964 39.7145 19.3925C40.2323 19.7773 40.807 19.9293 41.3746 19.8319C42.8875 19.5707 43.9088 17.6327 43.6475 15.5118C43.4979 14.2863 42.9303 13.2009 42.1299 12.6048C41.7143 12.2937 41.263 12.1369 40.807 12.1369Z" fill="#371A45"/>
<path d="M42.1733 19.5506C43.4601 19.4683 44.4054 17.8723 44.2847 15.986C44.164 14.0997 43.023 12.6372 41.7362 12.7196C40.4494 12.8019 39.5041 14.3978 39.6248 16.2842C39.7455 18.1705 40.8865 19.633 42.1733 19.5506Z" fill="white"/>
<g opacity="0.2">
<path d="M42.3568 19.5283C43.6298 19.2979 44.4824 17.5927 44.2615 15.7164C44.2378 15.5122 44.2022 15.3151 44.1547 15.1274C43.9694 16.4598 43.2308 17.5143 42.2404 17.6924C41.1218 17.8943 40.0507 16.9087 39.6469 15.4148C39.6065 15.7782 39.6065 16.1606 39.6516 16.5524C39.8725 18.4263 41.0838 19.7587 42.3568 19.5283Z" fill="#371A45"/>
</g>
<path d="M42.0673 19.8863C41.6256 19.8863 41.1886 19.7343 40.7872 19.4375C40.0106 18.8627 39.4643 17.7987 39.3194 16.5898C39.0748 14.5117 40.0296 12.6782 41.4949 12.4122C42.0554 12.3101 42.6183 12.455 43.1218 12.8278C43.8984 13.4026 44.4447 14.4666 44.5896 15.6755C44.8342 17.7536 43.8794 19.5871 42.4141 19.8531C42.3001 19.8745 42.1837 19.8863 42.0673 19.8863ZM41.8393 13.0463C41.7633 13.0463 41.6873 13.0535 41.6137 13.0677C40.5307 13.2625 39.7826 14.8418 39.9821 16.5115C40.1032 17.5422 40.5521 18.4376 41.1838 18.9031C41.5377 19.1643 41.9224 19.2688 42.2977 19.2C43.3807 19.0052 44.1288 17.4258 43.9293 15.7538C43.8082 14.7231 43.3569 13.8277 42.7276 13.3622C42.4449 13.1532 42.1409 13.0463 41.8393 13.0463Z" fill="#371A45"/>
<g opacity="0.5">
<path d="M30.6616 9.08477C30.6616 9.08477 25.7264 8.92565 23.1186 12.0036C23.1162 12.006 23.1139 12.0108 23.1115 12.0131C22.5629 12.6615 22.0831 14.2741 21.9406 15.1054C21.7506 16.2026 21.7839 16.7489 21.8385 17.4376C22.0071 19.53 22.4845 20.4776 22.4845 20.4776C21.1878 19.4754 20.4064 18.2784 20.2472 16.5375C20.233 16.3665 20.2235 16.1884 20.2188 16.0055C20.2188 15.9628 20.2188 15.9224 20.2188 15.8797V15.8773C20.2377 15.5068 20.2805 15.2574 20.3755 14.7135C20.6629 13.07 21.4181 10.8921 23.3822 9.74502C27.0564 7.59327 30.8184 8.85202 30.6616 9.08477Z" fill="white"/>
</g>
<g opacity="0.5">
<path d="M35.0828 16.8464C35.907 16.5411 36.2908 15.5259 35.94 14.5787C35.5892 13.6315 34.6367 13.1111 33.8126 13.4164C32.9884 13.7216 32.6047 14.7368 32.9554 15.684C33.3062 16.6312 34.2587 17.1516 35.0828 16.8464Z" fill="white"/>
</g>
<g opacity="0.5">
<path d="M35.8953 19.1732C36.2229 19.0159 36.342 18.5836 36.1614 18.2076C35.9808 17.8316 35.569 17.6544 35.2414 17.8116C34.9139 17.9689 34.7948 18.4012 34.9754 18.7772C35.156 19.1532 35.5678 19.3305 35.8953 19.1732Z" fill="white"/>
</g>
<path d="M54.196 22.4922L54.9655 23.8151L56.4903 23.9291C56.9249 23.9623 57.1339 24.4777 56.8418 24.8031L55.8229 25.9431L56.1839 27.4298C56.286 27.8526 55.8609 28.2112 55.4619 28.0354L54.063 27.4179L52.7615 28.2207C52.391 28.4487 51.9184 28.1542 51.9635 27.7196L52.1179 26.1972L50.9518 25.2068C50.6193 24.9242 50.7547 24.3851 51.1798 24.2924L52.6737 23.9694L53.2555 22.5539C53.4194 22.1526 53.9752 22.1146 54.196 22.4922Z" fill="#FFD243"/>
<g opacity="0.2">
<path d="M56.8416 24.8037L55.8227 25.9437L56.1837 27.4304C56.2858 27.8532 55.8607 28.2118 55.4617 28.036L54.0628 27.4185L52.7613 28.2213C52.4193 28.4327 51.9894 28.1952 51.9609 27.8152C52.0393 27.808 52.1153 27.7819 52.1889 27.7368L53.4904 26.934L54.8893 27.5515C55.2883 27.7273 55.7158 27.3687 55.6113 26.9459L55.2503 25.4592L56.2692 24.3192C56.3737 24.2004 56.4141 24.0579 56.4022 23.9202L56.4901 23.9273C56.9247 23.9605 57.1337 24.4783 56.8416 24.8037Z" fill="#371A45"/>
</g>
<g opacity="0.61">
<path d="M54.2903 22.666C54.117 22.6898 53.9578 22.799 53.8795 22.9866L53.2976 24.4021L51.8037 24.7251C51.3786 24.8178 51.2432 25.3569 51.5733 25.6395L52.7395 26.6275L52.5851 28.1499C52.5803 28.1974 52.5827 28.2425 52.5898 28.2876C52.2597 28.3636 51.9177 28.0929 51.9557 27.7224L52.1101 26.2L50.944 25.212C50.6115 24.9294 50.7468 24.3903 51.172 24.2976L52.6682 23.9746L53.2477 22.5591C53.414 22.1578 53.9697 22.1174 54.1882 22.495L54.2903 22.666Z" fill="white"/>
</g>
<path d="M52.4795 28.6225C52.3251 28.6225 52.1684 28.5798 52.0306 28.4919C51.7551 28.3185 51.6055 28.0122 51.6364 27.6892L51.7741 26.3354L50.7362 25.4543C50.4892 25.2429 50.3847 24.9175 50.4631 24.6017C50.5415 24.2858 50.7885 24.0483 51.1067 23.9794L52.4367 23.692L52.9545 22.4333C53.078 22.1317 53.3559 21.9322 53.6812 21.9084C54.0066 21.887 54.3082 22.0462 54.4721 22.3264L55.1561 23.502L56.5122 23.6042C56.8352 23.6279 57.1131 23.8322 57.2342 24.1314C57.3554 24.433 57.296 24.7703 57.0799 25.0125L56.1726 26.0267L56.4932 27.3495C56.5692 27.6654 56.4624 27.9908 56.213 28.1998C55.9636 28.4088 55.624 28.4563 55.3271 28.3257L54.0826 27.777L52.926 28.4919C52.7882 28.5798 52.6339 28.6225 52.4795 28.6225ZM53.7359 22.552C53.7311 22.552 53.7264 22.552 53.7216 22.552C53.6836 22.5544 53.591 22.571 53.5482 22.6779L52.9664 24.0934C52.926 24.1908 52.8405 24.2644 52.736 24.2858L51.2421 24.6088C51.1305 24.6325 51.0972 24.7228 51.0877 24.7584C51.0782 24.794 51.0664 24.889 51.1542 24.9627L52.3204 25.953C52.4011 26.0219 52.4439 26.1264 52.432 26.2309L52.2776 27.7533C52.2657 27.8673 52.3394 27.9267 52.3726 27.9457C52.4059 27.967 52.4914 28.0074 52.5887 27.9457L53.8902 27.1429C53.9805 27.0883 54.0921 27.0788 54.1895 27.1215L55.5884 27.739C55.6929 27.7842 55.7712 27.7343 55.8021 27.7082C55.8306 27.6844 55.8971 27.6155 55.8686 27.5039L55.5076 26.0172C55.4815 25.915 55.51 25.8058 55.5812 25.7274L56.6001 24.5874C56.6761 24.5019 56.6524 24.4117 56.6381 24.376C56.6239 24.3404 56.5787 24.2573 56.4647 24.2478L54.94 24.1338C54.8355 24.1267 54.7405 24.0673 54.6859 23.9747L53.9164 22.6542C53.8617 22.5663 53.781 22.552 53.7359 22.552Z" fill="#371A45"/>
<path d="M7.70384 27.3283L8.47334 28.6512L9.99809 28.7652C10.4327 28.7984 10.6417 29.3138 10.3496 29.6392L9.33072 30.7792L9.69172 32.2659C9.79384 32.6887 9.36872 33.0473 8.96972 32.8715L7.57084 32.254L6.26934 33.0568C5.89884 33.2848 5.42622 32.9903 5.47134 32.5557L5.62572 31.0333L4.45959 30.0429C4.12709 29.7603 4.26247 29.2212 4.68759 29.1285L6.18147 28.8055L6.76334 27.39C6.92959 26.991 7.48534 26.953 7.70384 27.3283Z" fill="#FFD243"/>
<g opacity="0.2">
<path d="M10.3572 29.6413L9.33831 30.7813L9.69931 32.2681C9.80144 32.6908 9.37631 33.0494 8.97731 32.8737L7.57844 32.2562L6.27694 33.0589C5.93494 33.2703 5.50506 33.0328 5.47656 32.6528C5.55494 32.6457 5.63094 32.6196 5.70456 32.5744L7.00606 31.7717L8.40494 32.3892C8.80394 32.5649 9.23144 32.2063 9.12694 31.7836L8.76594 30.2968L9.78481 29.1568C9.88931 29.0381 9.92969 28.8956 9.91781 28.7578L10.0057 28.7649C10.4379 28.7982 10.6469 29.3159 10.3572 29.6413Z" fill="#371A45"/>
</g>
<g opacity="0.61">
<path d="M7.80597 27.5015C7.63259 27.5252 7.47346 27.6345 7.39509 27.8221L6.81321 29.2376L5.31934 29.5606C4.89422 29.6532 4.75884 30.1923 5.08897 30.475L6.25509 31.463L6.10072 32.9853C6.09597 33.0328 6.09834 33.078 6.10547 33.1231C5.77534 33.1991 5.43334 32.9283 5.47134 32.5578L5.62572 31.0355L4.45959 30.0475C4.12709 29.7648 4.26247 29.2257 4.68759 29.1331L6.18384 28.8101L6.76334 27.3946C6.92959 26.9932 7.48534 26.9528 7.70384 27.3305L7.80597 27.5015Z" fill="white"/>
</g>
<path d="M5.9951 33.4607C5.83835 33.4607 5.68398 33.418 5.54623 33.3301C5.27073 33.1567 5.1211 32.8504 5.15198 32.5274L5.28973 31.1736L4.25185 30.2925C4.00485 30.0811 3.90035 29.7557 3.97873 29.4399C4.0571 29.124 4.3041 28.8865 4.62235 28.8176L5.95236 28.5302L6.46773 27.2715C6.59123 26.9699 6.8691 26.7704 7.19448 26.749C7.51985 26.7276 7.82148 26.8867 7.98535 27.167L8.66936 28.3426L10.0255 28.4447C10.3485 28.4685 10.6264 28.6727 10.7475 28.972C10.8686 29.2736 10.8092 29.6109 10.5931 29.8531L9.68585 30.8672L10.0065 32.1901C10.0825 32.506 9.97561 32.8314 9.72623 33.0404C9.47686 33.2494 9.13723 33.2969 8.84035 33.1662L7.59585 32.6176L6.43923 33.3325C6.30385 33.418 6.14948 33.4607 5.9951 33.4607ZM7.25148 27.3902C7.24673 27.3902 7.24198 27.3902 7.23723 27.3902C7.19923 27.3926 7.1066 27.4092 7.06148 27.5161L6.4796 28.9316C6.43923 29.029 6.35373 29.1026 6.24923 29.124L4.75535 29.447C4.64373 29.4707 4.61048 29.561 4.60098 29.5966C4.59148 29.6346 4.5796 29.7272 4.66748 29.8009L5.83361 30.7912C5.91436 30.8601 5.9571 30.9646 5.94523 31.0691L5.79085 32.5915C5.77898 32.7055 5.8526 32.7649 5.88585 32.7839C5.9191 32.8052 6.0046 32.8456 6.10198 32.7839L7.40348 31.9811C7.49373 31.9265 7.60535 31.917 7.70273 31.9597L9.1016 32.5772C9.2061 32.6224 9.28448 32.5725 9.31535 32.5464C9.34385 32.5226 9.41036 32.4537 9.38186 32.3421L9.02085 30.8554C8.99473 30.7532 9.02323 30.644 9.09448 30.5656L10.1134 29.4256C10.1894 29.3401 10.1656 29.2499 10.1514 29.2142C10.1371 29.1786 10.092 29.0955 9.97798 29.086L8.45323 28.972C8.34873 28.9649 8.25373 28.9055 8.1991 28.8129L7.4296 27.49C7.37498 27.4021 7.29423 27.3902 7.25148 27.3902Z" fill="#371A45"/>
<path d="M13.4695 1.49282L14.239 2.81569L15.7637 2.92969C16.1983 2.96294 16.4073 3.47832 16.1152 3.80369L15.0963 4.94369L15.4573 6.43044C15.5595 6.85319 15.1343 7.21182 14.7353 7.03607L13.3365 6.41857L12.035 7.22132C11.6645 7.44932 11.1918 7.15482 11.237 6.72019L11.3913 5.19782L10.2252 4.20744C9.89272 3.92482 10.0281 3.38569 10.4532 3.29307L11.9471 2.97007L12.529 1.55457C12.6928 1.15557 13.2486 1.11519 13.4695 1.49282Z" fill="#FFD243"/>
<g opacity="0.2">
<path d="M16.115 3.80415L15.0961 4.94415L15.4571 6.4309C15.5593 6.85365 15.1341 7.21228 14.7351 7.03653L13.3363 6.41903L12.0348 7.22178C11.6928 7.43315 11.2629 7.19565 11.2344 6.81565C11.3128 6.80853 11.3888 6.7824 11.4624 6.73728L12.7639 5.93453L14.1628 6.55203C14.5618 6.72778 14.9893 6.36915 14.8848 5.9464L14.5238 4.45966L15.5426 3.31966C15.6471 3.20091 15.6875 3.0584 15.6756 2.92065L15.7635 2.92778C16.1981 2.96341 16.4071 3.47878 16.115 3.80415Z" fill="#371A45"/>
</g>
<g opacity="0.61">
<path d="M13.5716 1.66602C13.3982 1.68977 13.2391 1.79902 13.1607 1.98664L12.5788 3.40214L11.085 3.72514C10.6598 3.81777 10.5245 4.35689 10.8546 4.63952L12.0207 5.62752L11.8663 7.14989C11.8616 7.19739 11.864 7.24252 11.8711 7.28764C11.541 7.36364 11.199 7.09289 11.237 6.72239L11.3913 5.20002L10.2252 4.21202C9.89272 3.92939 10.0281 3.39027 10.4532 3.29764L11.9495 2.97464L12.529 1.55914C12.6952 1.15777 13.251 1.11739 13.4695 1.49502L13.5716 1.66602Z" fill="white"/>
</g>
<path d="M11.7607 7.62302C11.6064 7.62302 11.4496 7.58027 11.3119 7.49239C11.0364 7.31902 10.8867 7.01264 10.9176 6.68964L11.0554 5.33589L10.0175 4.45477C9.77048 4.24339 9.66598 3.91802 9.74435 3.60214C9.82273 3.28627 10.0697 3.04877 10.388 2.97989L11.718 2.69252L12.2357 1.43377C12.3592 1.13214 12.6371 0.932643 12.9625 0.908893C13.2879 0.887518 13.5895 1.04664 13.7534 1.32689L14.4374 2.50252L15.7935 2.60464C16.1165 2.62839 16.3944 2.83264 16.5155 3.13189C16.6366 3.43352 16.5772 3.77077 16.3611 4.01302L15.4539 5.02714L15.7745 6.35002C15.8505 6.66589 15.7436 6.99127 15.4942 7.20027C15.2449 7.40927 14.9052 7.45677 14.6084 7.32614L13.3639 6.77752L12.2072 7.49239C12.0671 7.58264 11.9151 7.62302 11.7607 7.62302ZM13.0171 1.55252C13.0124 1.55252 13.0076 1.55252 13.0029 1.55252C12.9649 1.55489 12.8722 1.57152 12.8295 1.67839L12.2476 3.09389C12.2072 3.19127 12.1217 3.26489 12.0172 3.28627L10.5234 3.60927C10.4117 3.63302 10.3785 3.72089 10.369 3.75889C10.3595 3.79689 10.3476 3.88952 10.4355 3.96314L11.6016 4.95352C11.6824 5.02239 11.7251 5.12689 11.7132 5.23139L11.5589 6.75377C11.547 6.86777 11.6206 6.92714 11.6539 6.94614C11.6871 6.96752 11.7726 7.00789 11.87 6.94614L13.1715 6.14339C13.2617 6.08639 13.3734 6.07927 13.4707 6.12202L14.8696 6.73952C14.9741 6.78464 15.0525 6.73477 15.0834 6.70864C15.1119 6.68489 15.1784 6.61602 15.1499 6.50439L14.7889 5.01764C14.7627 4.91552 14.7912 4.80627 14.8625 4.72789L15.8814 3.58789C15.9574 3.50239 15.9336 3.41214 15.9194 3.37652C15.9051 3.34089 15.86 3.25777 15.746 3.24827L14.2212 3.13427C14.1167 3.12714 14.0217 3.06777 13.9671 2.97514L13.1976 1.65464C13.1406 1.56677 13.0599 1.55252 13.0171 1.55252Z" fill="#371A45"/>
</svg>
