<svg width="95" height="95" viewBox="0 0 95 95" fill="none" xmlns="http://www.w3.org/2000/svg">
<g clip-path="url(#clip0_2_64423)">
<path d="M95 0H0V95H95V0Z" fill="#845BFF"/>
<g opacity="0.25">
<path d="M41.0281 86.034C55.3555 86.034 66.9702 85.313 66.9702 84.4237C66.9702 83.5344 55.3555 82.8135 41.0281 82.8135C26.7006 82.8135 15.0859 83.5344 15.0859 84.4237C15.0859 85.313 26.7006 86.034 41.0281 86.034Z" fill="#371A45"/>
</g>
<path d="M57.0295 42.3007C57.6463 42.0452 57.9392 41.338 57.6837 40.7211C57.4282 40.1043 56.721 39.8114 56.1042 40.0669C55.4873 40.3224 55.1944 41.0296 55.4499 41.6464C55.7054 42.2633 56.4126 42.5562 57.0295 42.3007Z" fill="white"/>
<path d="M59.2626 38.6529C60.3736 38.6529 61.2742 37.7523 61.2742 36.6413C61.2742 35.5303 60.3736 34.6296 59.2626 34.6296C58.1516 34.6296 57.251 35.5303 57.251 36.6413C57.251 37.7523 58.1516 38.6529 59.2626 38.6529Z" fill="white"/>
<path d="M59.2633 39.0138C57.9546 39.0138 56.8906 37.9498 56.8906 36.6412C56.8906 35.3326 57.9546 34.2686 59.2633 34.2686C60.5719 34.2686 61.6359 35.3326 61.6359 36.6412C61.6359 37.9498 60.5719 39.0138 59.2633 39.0138ZM59.2633 34.9906C58.3536 34.9906 57.6126 35.7316 57.6126 36.6412C57.6126 37.5508 58.3536 38.2918 59.2633 38.2918C60.1729 38.2918 60.9139 37.5508 60.9139 36.6412C60.9139 35.7316 60.1753 34.9906 59.2633 34.9906Z" fill="#371A45"/>
<path d="M56.565 42.7547C55.7005 42.7547 54.9951 42.0494 54.9951 41.1849C54.9951 40.3204 55.7005 39.615 56.565 39.615C57.4295 39.615 58.1349 40.3204 58.1349 41.1849C58.1349 42.0494 57.4295 42.7547 56.565 42.7547ZM56.565 40.3346C56.0971 40.3346 55.7147 40.7146 55.7147 41.1849C55.7147 41.6527 56.0947 42.0351 56.565 42.0351C57.0329 42.0351 57.4152 41.6551 57.4152 41.1849C57.4129 40.717 57.0329 40.3346 56.565 40.3346Z" fill="#371A45"/>
<path d="M30.6865 79.4814V67.813C30.6865 65.4309 32.6174 63.5 34.9995 63.5H45.9483C48.3304 63.5 50.2613 65.4309 50.2613 67.813V79.4814C50.2613 81.8635 48.3304 83.7944 45.9483 83.7944H34.9995C32.6174 83.7968 30.6865 81.8659 30.6865 79.4814Z" fill="white"/>
<g opacity="0.25">
<path d="M30.6865 79.4814V67.813C30.6865 65.4309 32.6174 63.5 34.9995 63.5H45.9483C48.3304 63.5 50.2613 65.4309 50.2613 67.813V79.4814C50.2613 81.8635 48.3304 83.7944 45.9483 83.7944H34.9995C32.6174 83.7968 30.6865 81.8659 30.6865 79.4814Z" fill="#371A45"/>
</g>
<path d="M45.9482 84.2173H34.9994C32.3893 84.2173 30.2637 82.0941 30.2637 79.484V67.8156C30.2637 65.2055 32.3869 63.0798 34.9994 63.0798H45.9482C48.5583 63.0798 50.6839 65.2031 50.6839 67.8156V79.484C50.6839 82.0941 48.5583 84.2173 45.9482 84.2173ZM34.9994 63.9182C32.8524 63.9182 31.1044 65.6638 31.1044 67.8132V79.4816C31.1044 81.6286 32.85 83.3742 34.9994 83.3742H45.9482C48.0952 83.3742 49.8432 81.6286 49.8432 79.4816V67.8132C49.8432 65.6662 48.0975 63.9182 45.9482 63.9182H34.9994Z" fill="#371A45"/>
<path d="M57.2917 84.1271C57.0447 84.2482 56.7835 84.3338 56.5151 84.3741C54.8526 84.633 53.1426 83.7661 53.1426 83.7661L40.4506 84.0583V84.0606L40.4197 84.0583L40.3889 84.0606V84.0583H40.3865L27.6969 83.7661C27.6969 83.7661 25.9892 84.633 24.3244 84.3741C24.056 84.3338 23.7947 84.2482 23.5477 84.1271C20.9329 82.8565 19.5411 77.5317 20.6384 74.373C20.9804 73.3897 21.5599 72.6179 22.4196 72.2426C22.4434 72.2307 22.4671 72.2212 22.4932 72.2117C26.9036 70.4329 28.3239 76.1709 28.3239 76.1709L30.2239 76.159L31.9671 76.1471C31.9671 76.1471 32.0075 75.5771 32.0835 74.715C32.2806 72.435 32.7176 68.1125 33.2757 66.8324C33.3327 66.7017 33.3921 66.5782 33.4562 66.4571C35.2897 63.011 40.0065 63.6427 40.4197 63.7045C40.8377 63.6404 45.6732 62.9967 47.4521 66.5972C47.4901 66.6732 47.5257 66.7516 47.5614 66.8324C48.3309 68.597 48.8676 76.1495 48.8676 76.1495L52.5085 76.1709C52.5085 76.1709 53.9287 70.4329 58.3391 72.2117C58.3652 72.2212 58.389 72.2307 58.4127 72.2426C62.0441 73.8267 60.7189 82.4646 57.2917 84.1271Z" fill="white"/>
<g opacity="0.25">
<path d="M60.164 74.373C59.4681 77.3608 57.7225 81.2178 53.4142 79.4199C53.4142 79.4199 53.0437 80.7119 50.8136 80.7119C49.3055 80.7119 49.9325 77.9498 50.4977 76.159L48.7402 76.1472C48.7402 76.1472 48.6999 75.6698 48.6239 74.8053H40.3683H40.2639H32.0867C32.0131 75.6698 31.9703 76.1472 31.9703 76.1472L30.2271 76.159C30.7876 77.9498 31.4098 80.7119 29.9136 80.7119C27.7001 80.7119 27.3344 79.4199 27.3344 79.4199C23.0641 81.2178 21.3327 77.3608 20.6416 74.373C19.5443 77.5318 20.9337 82.8589 23.551 84.1272C23.798 84.2483 24.0592 84.3338 24.3276 84.3742C25.9901 84.6331 27.7001 83.7662 27.7001 83.7662L40.2615 84.0559V84.0583L40.3256 84.0559L40.3897 84.0583V84.0559L53.0461 83.7662C53.0461 83.7662 54.768 84.6331 56.4471 84.3742C56.7178 84.3338 56.9815 84.2483 57.2308 84.1272C59.8695 82.8589 61.2707 77.5318 60.164 74.373Z" fill="#371A45"/>
</g>
<g opacity="0.25">
<path d="M47.4539 66.5969C45.8246 68.0314 43.3285 68.9506 40.5331 68.9506C37.6475 68.9506 35.0825 67.9721 33.458 66.4568C35.2915 63.0107 40.0083 63.6424 40.4215 63.7042C40.8371 63.6401 45.6726 62.9941 47.4539 66.5969Z" fill="#371A45"/>
</g>
<path d="M24.6164 84.6996C24.2008 84.6996 23.7851 84.5998 23.4123 84.3956C21.1798 83.3055 19.9067 79.6123 19.9637 76.6673C20.0112 74.309 20.8639 72.5942 22.3031 71.9672C22.8636 71.725 23.5049 71.763 24.1129 72.0741C25.0961 72.5776 26.4522 73.9955 27.3167 77.8928C28.2169 81.9517 27.0056 83.5667 26.2029 84.1676C25.7326 84.5191 25.1721 84.6996 24.6164 84.6996ZM23.0726 72.409C22.8898 72.409 22.7116 72.4446 22.543 72.5182C21.3294 73.0478 20.6074 74.5655 20.5646 76.6816C20.51 79.3796 21.688 82.8922 23.6806 83.8612L23.6949 83.8683C24.3646 84.2365 25.2054 84.1676 25.8419 83.6902C27.0104 82.8138 27.3358 80.75 26.7301 78.0258C25.8728 74.1617 24.5499 72.9742 23.8398 72.6108C23.5809 72.4755 23.322 72.409 23.0726 72.409Z" fill="#371A45"/>
<path d="M25.7786 74.3767L20.1104 76.0723L20.2826 76.648L25.9508 74.9524L25.7786 74.3767Z" fill="#371A45"/>
<path d="M26.8986 77.3584L20.5332 79.1292L20.6942 79.708L27.0597 77.9373L26.8986 77.3584Z" fill="#371A45"/>
<path d="M27.1799 80.4211L21.3545 81.9521L21.5072 82.5333L27.3327 81.0023L27.1799 80.4211Z" fill="#371A45"/>
<path d="M28.6298 75.8715C28.663 76.0853 28.6915 76.2895 28.7176 76.4985C28.7438 76.7075 28.7675 76.9165 28.7865 77.1255C28.8269 77.5435 28.8554 77.9639 28.8625 78.3843C28.8649 78.4745 28.7913 78.5482 28.701 78.5505C28.6203 78.5529 28.5514 78.4935 28.5371 78.4152V78.4128C28.4659 78.0114 28.3756 77.6124 28.2711 77.2158C28.2189 77.0187 28.1643 76.8192 28.1073 76.6244C28.0503 76.4297 27.9909 76.2302 27.9291 76.0402C27.8674 75.8502 27.9695 75.6459 28.1595 75.5842C28.3495 75.5224 28.5538 75.6245 28.6155 75.8145C28.6226 75.8335 28.6274 75.8549 28.6298 75.8715Z" fill="#371A45"/>
<path d="M32.2758 76.161L32.0217 78.5146C32.0098 78.6286 31.9077 78.7117 31.7937 78.6975C31.6844 78.6856 31.6061 78.593 31.6085 78.4861L31.6773 76.1206C31.6821 75.9544 31.8198 75.8237 31.9861 75.8285C32.1523 75.8332 32.283 75.971 32.2782 76.1372C32.2758 76.1444 32.2758 76.1515 32.2758 76.161Z" fill="#371A45"/>
<path d="M27.4288 83.4882C27.443 83.4834 27.481 83.462 27.5072 83.4454C27.5357 83.4288 27.5665 83.4098 27.595 83.3884C27.6544 83.348 27.7114 83.3053 27.7684 83.2602C27.88 83.1675 27.9822 83.063 28.0748 82.9514C28.1674 82.8398 28.2482 82.7163 28.3099 82.5857C28.3788 82.455 28.4215 82.3149 28.4595 82.17L28.4643 82.1534C28.4928 82.0465 28.602 81.9848 28.7065 82.0133C28.8015 82.0394 28.8609 82.1273 28.8538 82.2223C28.8372 82.4004 28.8134 82.5833 28.7564 82.759C28.7042 82.9348 28.6305 83.1058 28.5379 83.2649C28.4477 83.424 28.3408 83.576 28.2197 83.7162C28.1579 83.785 28.0962 83.8539 28.0273 83.918C27.994 83.9513 27.9584 83.9822 27.9228 84.013C27.8848 84.0463 27.8539 84.0724 27.7993 84.1104L27.7684 84.1318C27.6022 84.2482 27.3765 84.2054 27.2602 84.0415C27.1438 83.8753 27.1865 83.6497 27.3504 83.5333C27.3765 83.5119 27.4027 83.4977 27.4288 83.4882Z" fill="#371A45"/>
<path d="M24.9793 84.785C24.7465 84.785 24.5114 84.7684 24.2739 84.7328C23.9723 84.6853 23.6754 84.5926 23.3928 84.4525C21.1341 83.3576 19.8469 79.6337 19.9063 76.6673C19.9538 74.2852 20.8183 72.5514 22.2813 71.9125C22.3074 71.9006 22.3383 71.8864 22.3715 71.8745C23.6065 71.3758 24.7465 71.3853 25.7583 71.903C27.5395 72.8126 28.3613 75.0261 28.6011 75.8075L31.6364 75.7885C31.7504 74.2852 32.2468 68.293 32.9474 66.6875C34.6788 62.707 39.6259 63.2295 40.4191 63.3388C41.2124 63.2271 46.1571 62.7023 47.8933 66.6875C48.5939 68.293 49.0903 74.2875 49.2043 75.7885L52.2395 75.8075C52.4818 75.0261 53.3011 72.8126 55.0824 71.903C56.0941 71.3853 57.2365 71.3781 58.4763 71.8769C58.5024 71.8864 58.5309 71.9006 58.5618 71.9125C60.0224 72.5514 60.8869 74.2852 60.9344 76.6673C60.9938 79.6337 59.7065 83.3577 57.4479 84.4549C57.1653 84.5927 56.8708 84.6877 56.5691 84.7352C55.0064 84.9798 53.4436 84.3124 53.0636 84.1343L40.488 84.424C40.4714 84.4264 40.4548 84.4264 40.4358 84.4264H40.4215H40.4073C40.3906 84.4264 40.3716 84.4264 40.355 84.424L27.7794 84.1343C27.4564 84.2815 26.2808 84.785 24.9793 84.785ZM24.1148 72.2308C23.6469 72.2308 23.1529 72.3353 22.6328 72.5443C22.609 72.5538 22.59 72.5609 22.5734 72.5704C21.3764 73.0929 20.6686 74.5915 20.6259 76.6815C20.5641 79.7548 21.9464 82.9492 23.7086 83.8042C23.9271 83.911 24.1551 83.9846 24.3831 84.0203C25.9079 84.2578 27.5205 83.455 27.5371 83.4479C27.5894 83.4218 27.6488 83.4075 27.7081 83.4099L40.4001 83.702C40.4025 83.702 40.4049 83.702 40.4073 83.702C40.4168 83.702 40.4263 83.702 40.4358 83.702C40.4381 83.702 40.4405 83.702 40.4429 83.702L53.1349 83.4099C53.1919 83.4075 53.2536 83.4218 53.3059 83.4479C53.3225 83.455 54.9351 84.2578 56.4575 84.0203C56.6879 83.9846 56.9135 83.911 57.132 83.8065C58.8943 82.9515 60.2765 79.7548 60.2148 76.6815C60.172 74.5915 59.4643 73.0953 58.272 72.5728C58.2696 72.5728 58.2696 72.5728 58.2673 72.5704C58.2506 72.5633 58.2316 72.5538 58.2126 72.5467C57.17 72.1263 56.2295 72.1263 55.4125 72.5419C53.5695 73.4824 52.8665 76.2279 52.8594 76.2564C52.819 76.4179 52.6718 76.5319 52.5079 76.5295L48.867 76.5081C48.6794 76.5081 48.5226 76.3609 48.5108 76.1733C48.506 76.0973 47.9693 68.6635 47.233 66.9749C45.6679 63.3791 41.001 63.98 40.4738 64.0584C40.4381 64.0631 40.4001 64.0631 40.3645 64.0584C39.8373 63.9776 35.168 63.3815 33.6053 66.9725C32.869 68.6611 32.3323 76.0949 32.3275 76.1709C32.3133 76.3585 32.1589 76.5034 31.9713 76.5058L28.3304 76.5271C28.1594 76.5271 28.0193 76.4155 27.9789 76.254C27.9718 76.2255 27.2688 73.48 25.4258 72.5395C25.0196 72.3329 24.5803 72.2308 24.1148 72.2308Z" fill="#371A45"/>
<path d="M56.2231 84.6996C55.6673 84.6996 55.1068 84.5191 54.6366 84.1676C53.8338 83.5667 52.6202 81.9517 53.5227 77.8928C54.3872 73.9955 55.7433 72.5776 56.7266 72.0741C57.3346 71.763 57.9758 71.725 58.534 71.9672C59.9756 72.5966 60.8258 74.3113 60.8733 76.6697C60.9327 79.6147 59.6597 83.3078 57.4248 84.398C57.0543 84.5998 56.6387 84.6996 56.2231 84.6996ZM57.7668 72.409C57.5175 72.409 57.2586 72.4755 56.9997 72.6085C56.2872 72.9718 54.9667 74.1593 54.1093 78.0235C53.5037 80.7476 53.8291 82.8115 54.9976 83.6878C55.6341 84.1652 56.4772 84.2341 57.1446 83.866L57.1588 83.8588C59.1538 82.8898 60.3295 79.3796 60.2748 76.6792C60.2321 74.5655 59.5125 73.0478 58.2965 72.5158C58.1278 72.4446 57.9497 72.409 57.7668 72.409Z" fill="#371A45"/>
<path d="M55.0628 74.3686L54.8906 74.9443L60.5566 76.6386L60.7287 76.0629L55.0628 74.3686Z" fill="#371A45"/>
<path d="M53.9375 77.3547L53.7764 77.9336L60.1418 79.705L60.3029 79.1261L53.9375 77.3547Z" fill="#371A45"/>
<path d="M53.6576 80.4177L53.5049 80.9988L59.3297 82.5298L59.4825 81.9487L53.6576 80.4177Z" fill="#371A45"/>
<path d="M52.9068 76.0424C52.8474 76.2324 52.7881 76.4319 52.7334 76.6267C52.6788 76.8238 52.6266 77.0209 52.5767 77.2204C52.477 77.6171 52.3891 78.0161 52.3226 78.4174V78.4198C52.306 78.5219 52.2086 78.5932 52.1065 78.5766C52.0115 78.5599 51.945 78.4792 51.9473 78.3866C51.9568 77.9638 51.9901 77.5458 52.0352 77.1278C52.059 76.9188 52.0827 76.7098 52.1112 76.5032C52.1397 76.2942 52.1706 76.0899 52.2062 75.8762C52.2394 75.6791 52.4247 75.5461 52.6218 75.5793C52.8189 75.6126 52.9519 75.7978 52.9187 75.9949C52.9163 76.0116 52.9116 76.0258 52.9068 76.0424Z" fill="#371A45"/>
<path d="M49.165 76.1186L49.2101 78.4865C49.2124 78.5886 49.1317 78.6741 49.0296 78.6741C48.9346 78.6765 48.8538 78.6028 48.8419 78.5102L48.5665 76.159C48.5475 75.9951 48.6662 75.8455 48.8301 75.8265C48.9939 75.8075 49.1436 75.9262 49.1626 76.0901C49.1626 76.0996 49.1626 76.1091 49.165 76.1186Z" fill="#371A45"/>
<path d="M49.5924 76.325H47.6402C47.0037 76.325 46.4883 75.8096 46.4883 75.1731C46.4883 74.5366 47.0037 74.0212 47.6402 74.0212H49.5924C50.2289 74.0212 50.7443 74.5366 50.7443 75.1731C50.7443 75.8096 50.2289 76.325 49.5924 76.325Z" fill="white"/>
<g opacity="0.2">
<path d="M50.7443 75.1733C50.7443 75.4916 50.616 75.7789 50.407 75.9879C50.198 76.1969 49.9107 76.3252 49.5924 76.3252H47.6402C47.0037 76.3252 46.4883 75.8098 46.4883 75.1733C46.4883 74.9952 46.5287 74.8289 46.5999 74.6793C46.8089 74.9786 47.1557 75.1733 47.5452 75.1733H49.4974C49.8157 75.1733 50.103 75.0451 50.312 74.8361C50.4047 74.7434 50.4807 74.6366 50.5377 74.5178C50.6683 74.7031 50.7443 74.9287 50.7443 75.1733Z" fill="#000049"/>
</g>
<path d="M49.5921 76.6864H47.6398C46.8062 76.6864 46.127 76.0071 46.127 75.1735C46.127 74.3399 46.8062 73.6606 47.6398 73.6606H49.5921C50.4257 73.6606 51.105 74.3399 51.105 75.1735C51.105 76.0071 50.4257 76.6864 49.5921 76.6864ZM47.6398 74.3826C47.2028 74.3826 46.8466 74.7389 46.8466 75.1759C46.8466 75.6129 47.2028 75.9691 47.6398 75.9691H49.5921C50.0291 75.9691 50.3853 75.6129 50.3853 75.1759C50.3853 74.7389 50.0291 74.3826 49.5921 74.3826H47.6398Z" fill="#371A45"/>
<path d="M33.359 76.325H31.4068C30.7703 76.325 30.2549 75.8096 30.2549 75.1731C30.2549 74.5366 30.7703 74.0212 31.4068 74.0212H33.359C33.9955 74.0212 34.5109 74.5366 34.5109 75.1731C34.5133 75.8096 33.9955 76.325 33.359 76.325Z" fill="white"/>
<g opacity="0.2">
<path d="M34.5138 75.1735C34.5138 75.4917 34.3856 75.7791 34.1766 75.9881C33.9676 76.1971 33.6802 76.3254 33.3619 76.3254H31.4097C30.7732 76.3254 30.2578 75.81 30.2578 75.1735C30.2578 74.9954 30.2982 74.8291 30.3694 74.6795C30.5784 74.9787 30.9252 75.1735 31.3147 75.1735H33.2669C33.5852 75.1735 33.8726 75.0452 34.0816 74.8362C34.1742 74.7436 34.2502 74.6367 34.3072 74.5156C34.4378 74.7032 34.5138 74.9289 34.5138 75.1735Z" fill="#000049"/>
</g>
<path d="M33.3597 76.6864H31.4074C30.5738 76.6864 29.8945 76.0071 29.8945 75.1735C29.8945 74.3399 30.5738 73.6606 31.4074 73.6606H33.3597C34.1933 73.6606 34.8725 74.3399 34.8725 75.1735C34.8725 76.0071 34.1957 76.6864 33.3597 76.6864ZM31.4074 74.3826C30.9704 74.3826 30.6142 74.7389 30.6142 75.1759C30.6142 75.6129 30.9704 75.9691 31.4074 75.9691H33.3597C33.7967 75.9691 34.1529 75.6129 34.1529 75.1759C34.1529 74.7389 33.7967 74.3826 33.3597 74.3826H31.4074Z" fill="#371A45"/>
<path d="M53.0401 84.1056C52.9855 84.0676 52.9546 84.0415 52.9142 84.0106C52.8762 83.9797 52.843 83.9488 52.8074 83.9156C52.7385 83.8515 52.6744 83.7849 52.6126 83.7161C52.4891 83.5783 52.3822 83.4263 52.2872 83.2672C52.1922 83.1081 52.1162 82.9371 52.0616 82.7613C52.0022 82.5856 51.9761 82.4027 51.9571 82.2222C51.9452 82.0987 52.0355 81.9894 52.1566 81.9776C52.2682 81.9657 52.368 82.0393 52.3941 82.1462L52.3989 82.1652C52.4345 82.3077 52.4749 82.4478 52.5414 82.5784C52.6031 82.7091 52.6791 82.8326 52.7694 82.9442C52.8596 83.0582 52.9594 83.1627 53.0686 83.2553C53.1232 83.3005 53.1802 83.3456 53.2396 83.386C53.2681 83.405 53.299 83.4263 53.3275 83.4429C53.3536 83.4596 53.3916 83.4809 53.4059 83.4857C53.5911 83.5641 53.6766 83.7754 53.6006 83.9607C53.5222 84.1459 53.3109 84.2314 53.1256 84.1554C53.1042 84.1459 53.0829 84.1341 53.0639 84.1222L53.0401 84.1056Z" fill="#371A45"/>
<path d="M35.0312 76.9332V73.8219C35.0312 72.6914 35.948 71.7747 37.0785 71.7747H44.0349C45.1654 71.7747 46.0821 72.6914 46.0821 73.8219V76.9332C46.0821 78.0637 45.1654 78.9804 44.0349 78.9804H37.0785C35.9504 78.9804 35.0312 78.0637 35.0312 76.9332Z" fill="white"/>
<g opacity="0.25">
<path d="M46.0792 74.2683V76.9354C46.0792 78.0636 45.1624 78.9827 44.0319 78.9827H37.0756C35.9474 78.9851 35.0283 78.0659 35.0283 76.9354V74.2683C35.0283 75.3988 35.9451 76.3156 37.0756 76.3156H44.0319C45.1624 76.3132 46.0792 75.3988 46.0792 74.2683Z" fill="#371A45"/>
</g>
<path d="M37.0754 79.3415C36.4341 79.3415 35.8309 79.0921 35.3772 78.6385C34.9212 78.1825 34.6719 77.5792 34.6719 76.9356V73.8243C34.6719 72.4967 35.7525 71.4185 37.0777 71.4185H44.0341C45.3618 71.4185 46.44 72.4991 46.44 73.8243V76.9356C46.44 78.2632 45.3594 79.3415 44.0341 79.3415H37.0777H37.0754ZM37.0777 72.1357C36.1467 72.1357 35.3915 72.8933 35.3915 73.822V76.9332C35.3915 77.3845 35.5672 77.8072 35.8855 78.1278C36.2037 78.4461 36.6265 78.6195 37.0754 78.6195C37.0754 78.6195 37.0754 78.6195 37.0777 78.6195H44.0341C44.9651 78.6195 45.7204 77.8618 45.7204 76.9332V73.822C45.7204 72.891 44.9628 72.1357 44.0341 72.1357H37.0777Z" fill="#371A45"/>
<path d="M37.0754 79.3416C36.4341 79.3416 35.8309 79.0922 35.3772 78.6386C34.9212 78.1826 34.6719 77.5793 34.6719 76.9357V75.4442C34.6719 74.1166 35.7525 73.0383 37.0777 73.0383H44.0341C45.3618 73.0383 46.44 74.119 46.44 75.4442V76.9357C46.44 78.2633 45.3594 79.3416 44.0341 79.3416H37.0777H37.0754ZM37.0777 73.758C36.1467 73.758 35.3915 74.5156 35.3915 75.4442V76.9357C35.3915 77.387 35.5672 77.8097 35.8855 78.1303C36.2037 78.4486 36.6265 78.6219 37.0754 78.6219C37.0754 78.6219 37.0754 78.6219 37.0777 78.6219H44.0341C44.9651 78.6219 45.7204 77.8643 45.7204 76.9357V75.4442C45.7204 74.5132 44.9628 73.758 44.0341 73.758H37.0777Z" fill="#371A45"/>
<path d="M49.8423 82.7139C49.5929 84.1745 46.959 84.4524 43.653 83.1414C43.653 83.1414 41.4918 84.7374 40.5822 83.5547C40.4967 83.4407 40.4658 83.2982 40.4753 83.1343C40.537 82.1962 41.9597 80.6025 41.9597 80.6025L41.9478 70.3069L47.9613 68.3L47.9257 69.1099L47.472 79.2678C47.4744 79.2678 50.1605 80.859 49.8423 82.7139Z" fill="white"/>
<g opacity="0.25">
<path d="M49.8423 82.7139C49.5929 84.1745 46.959 84.4524 43.653 83.1414C43.653 83.1414 41.4918 84.7374 40.5822 83.5546C40.4967 83.4406 40.4658 83.2981 40.4753 83.1342C41.8077 83.1604 42.4584 82.2816 42.7505 81.6617C42.8907 81.3625 43.2517 81.2461 43.5462 81.3934C44.3798 81.8114 45.9568 82.4597 47.3272 82.1937C49.296 81.809 46.4864 79.605 46.4864 79.605L47.928 69.1099L47.4744 79.2677C47.4744 79.2677 50.1605 80.859 49.8423 82.7139Z" fill="#371A45"/>
</g>
<path d="M47.6425 75.1969C47.5713 75.1969 47.5 75.1708 47.443 75.1209C45.3245 73.2376 42.1539 74.9357 42.1206 74.9523C41.9758 75.0331 41.7929 74.9784 41.7121 74.8336C41.6338 74.6887 41.686 74.5058 41.8309 74.4251C41.9758 74.3467 45.4029 72.5061 47.8397 74.6721C47.9632 74.7813 47.975 74.9713 47.8634 75.0948C47.8088 75.1637 47.7257 75.1969 47.6425 75.1969Z" fill="#371A45"/>
<path d="M48.3251 68.3145L47.8359 79.2822L47.6601 78.9568C47.8834 79.0946 48.0757 79.23 48.2729 79.3796C48.4676 79.5268 48.6576 79.686 48.8381 79.8546C49.1991 80.1895 49.5387 80.5647 49.8047 81.0112C49.9377 81.2345 50.0517 81.4743 50.1277 81.7356C50.2037 81.9945 50.2417 82.2771 50.2227 82.5573C50.218 82.6262 50.2061 82.6975 50.199 82.7663C50.1847 82.8376 50.1705 82.9136 50.1467 82.9872C50.1016 83.1321 50.0327 83.2722 49.9472 83.3981C49.7739 83.6498 49.5364 83.8351 49.2941 83.9681C48.8001 84.2293 48.2824 84.3101 47.7836 84.3386C47.2825 84.3647 46.7909 84.3291 46.3064 84.2578C45.3397 84.113 44.4135 83.8327 43.5181 83.4812L43.8649 83.4361C43.606 83.619 43.3566 83.7638 43.0835 83.9016C42.8127 84.037 42.5325 84.1557 42.2261 84.2388C41.9221 84.322 41.5896 84.3718 41.2357 84.3148C41.06 84.2863 40.8795 84.227 40.718 84.1296C40.5565 84.0322 40.4187 83.904 40.3047 83.7567C40.2359 83.657 40.1836 83.5453 40.1622 83.4385C40.1575 83.4123 40.1504 83.3838 40.1456 83.3577L40.1385 83.2817C40.1337 83.2295 40.1361 83.182 40.1385 83.1345C40.1504 82.9445 40.1955 82.7806 40.2501 82.6286C40.3594 82.3246 40.5066 82.061 40.661 81.8068C40.9769 81.301 41.3307 80.8473 41.7202 80.4008L41.6395 80.6098L41.6229 78.0353L41.6181 75.4608L41.6205 72.8863C41.6252 72.029 41.63 71.1692 41.6704 70.3118C41.6775 70.1598 41.8057 70.0435 41.9577 70.0506C42.1002 70.0577 42.2119 70.1717 42.219 70.3118C42.2617 71.1692 42.2689 72.029 42.276 72.8863L42.2831 75.4608V78.0353L42.2712 80.6098V80.6122C42.2712 80.6906 42.2404 80.7642 42.1905 80.8188C41.8366 81.2321 41.497 81.6833 41.2191 82.1441C41.0814 82.3745 40.9555 82.6143 40.8771 82.8447C40.8391 82.9587 40.8106 83.0751 40.8082 83.1677C40.8035 83.2651 40.8249 83.3221 40.8462 83.353C40.9721 83.5097 41.1336 83.6118 41.345 83.638C41.554 83.6688 41.7962 83.638 42.0385 83.5667C42.2807 83.4978 42.523 83.391 42.7605 83.2698C42.9932 83.1487 43.2331 83.0015 43.435 82.8542L43.4374 82.8518C43.5395 82.7782 43.6725 82.7663 43.7817 82.8091C44.6344 83.144 45.5155 83.41 46.4085 83.543C46.855 83.6095 47.3039 83.6403 47.7409 83.619C48.1755 83.5952 48.6077 83.5145 48.9474 83.334C49.116 83.2413 49.2561 83.1273 49.3487 82.992C49.3939 82.9231 49.4319 82.8518 49.4556 82.7711C49.4699 82.7331 49.4746 82.6903 49.4841 82.65L49.5007 82.5098C49.5269 82.1346 49.3986 81.7427 49.1825 81.3817C48.9664 81.0207 48.6719 80.6882 48.3465 80.3866C48.1826 80.237 48.0116 80.0921 47.8335 79.9567C47.6577 79.8213 47.4654 79.6883 47.2896 79.5791L47.2849 79.5767C47.1685 79.5055 47.1091 79.3796 47.1139 79.2537L47.6031 68.286C47.6126 68.0865 47.7812 67.9321 47.9784 67.9416C48.1802 67.9487 48.3322 68.1173 48.3251 68.3145Z" fill="#371A45"/>
<path d="M43.494 83.4667C43.4703 83.4572 43.4631 83.4524 43.4513 83.4453C43.4394 83.4382 43.4299 83.4334 43.4204 83.4263C43.4014 83.4144 43.38 83.4026 43.3634 83.3907C43.3254 83.3669 43.2945 83.3384 43.2613 83.3123C43.1971 83.2577 43.1378 83.2007 43.0879 83.1366C42.9834 83.0107 42.9026 82.8706 42.8456 82.7233C42.7934 82.5761 42.7578 82.4241 42.7483 82.2768C42.7388 82.2032 42.7459 82.1296 42.7435 82.0583C42.7483 81.9871 42.7578 81.9158 42.7649 81.8469C42.7768 81.7353 42.8742 81.6546 42.9858 81.6664C43.0808 81.6759 43.1544 81.7519 43.1663 81.8422L43.1686 81.8683C43.1758 81.9253 43.1805 81.9823 43.1876 82.0369C43.2019 82.0916 43.2066 82.1462 43.2256 82.1961C43.2541 82.3006 43.3017 82.3932 43.3515 82.4763C43.4062 82.5571 43.4726 82.6283 43.5439 82.6829C43.5795 82.7114 43.6199 82.7352 43.6579 82.7566C43.6769 82.7661 43.6959 82.7756 43.7149 82.7827C43.7244 82.7874 43.7339 82.7898 43.741 82.7922C43.7458 82.7946 43.7505 82.7946 43.7529 82.7946C43.7553 82.7946 43.76 82.7969 43.7529 82.7922C43.9381 82.8634 44.0308 83.0724 43.9595 83.2577C43.8883 83.4429 43.6793 83.5379 43.494 83.4667Z" fill="#371A45"/>
<path d="M32.8465 68.6587L33.2763 78.9638C33.2763 78.9638 30.6805 80.8567 30.9987 82.7139C31.2481 84.1746 33.882 84.4524 37.188 83.1414C37.188 83.1414 39.3492 84.7374 40.2588 83.5547C40.8407 82.7971 38.879 80.6026 38.879 80.6026L38.8908 70.3069" fill="white"/>
<path d="M33.2074 68.6444L33.6373 78.9495C33.642 79.0706 33.585 79.1823 33.4948 79.2511L33.49 79.2559C33.319 79.3842 33.1385 79.5361 32.9699 79.6881C32.8013 79.8425 32.6374 80.0016 32.4806 80.1679C32.1719 80.5004 31.8916 80.8567 31.6779 81.239C31.4665 81.619 31.3264 82.0275 31.3335 82.417C31.3359 82.4645 31.3335 82.5144 31.343 82.5619C31.3501 82.6094 31.3525 82.6593 31.3644 82.6973C31.381 82.7804 31.4143 82.8564 31.4523 82.93C31.5354 83.0725 31.6636 83.1984 31.8299 83.2958C32.1624 83.4929 32.5994 83.5831 33.0364 83.6116C33.2573 83.6283 33.4829 83.6259 33.7085 83.614C33.9341 83.6022 34.1621 83.5784 34.3878 83.5451C35.295 83.4145 36.1904 83.1461 37.0549 82.8041H37.0573C37.176 82.759 37.3066 82.7804 37.4016 82.8493C37.6059 82.9965 37.8434 83.1414 38.0785 83.2625C38.3136 83.3837 38.5583 83.4881 38.8005 83.557C39.0428 83.6259 39.285 83.6568 39.494 83.6259C39.703 83.5974 39.8621 83.4953 39.988 83.3409C40.0094 83.3124 40.0284 83.2554 40.0236 83.1604C40.0189 83.0678 39.9928 82.9538 39.9524 82.8398C39.874 82.6094 39.7481 82.3719 39.6104 82.1415C39.3325 81.6808 38.9905 81.2319 38.6366 80.821C38.582 80.7616 38.5535 80.688 38.5535 80.6144V80.6025L38.5345 79.3153C38.5298 78.8854 38.525 78.4579 38.525 78.028C38.525 77.1706 38.5155 76.3109 38.5226 75.4535L38.5369 72.879C38.544 72.0216 38.5678 71.1619 38.658 70.3045C38.6723 70.1763 38.7863 70.0836 38.9145 70.0979C39.0261 70.1098 39.1116 70.1976 39.1211 70.3045C39.2114 71.1619 39.2328 72.0216 39.2375 72.879L39.247 75.4535C39.2541 76.3109 39.2423 77.1706 39.2399 78.028C39.2399 78.4579 39.2328 78.8854 39.228 79.3153L39.2066 80.6025L39.1235 80.384C39.513 80.8305 39.8645 81.2841 40.1828 81.7924C40.3371 82.0465 40.4844 82.3125 40.5936 82.6165C40.6459 82.7709 40.6934 82.9348 40.7053 83.1248C40.7076 83.1723 40.71 83.2198 40.7053 83.2744L40.6981 83.3528C40.6934 83.3789 40.6886 83.4074 40.6815 83.4335C40.6601 83.5404 40.6079 83.6544 40.5366 83.7541C40.4226 83.9038 40.2849 84.0297 40.121 84.1294C39.9595 84.2292 39.7766 84.2885 39.6009 84.3147C39.2446 84.3693 38.9121 84.3194 38.6105 84.2363C38.3041 84.1532 38.0239 84.032 37.7531 83.8966C37.4824 83.7589 37.233 83.6117 36.9741 83.4288L37.3209 83.4739C36.4136 83.8301 35.4708 84.1151 34.4899 84.2576C34.2453 84.2933 33.9959 84.3194 33.7465 84.3313C33.4971 84.3455 33.243 84.3455 32.9889 84.3289C32.483 84.2909 31.9534 84.2007 31.4594 83.9109C31.2148 83.7684 30.9844 83.557 30.8276 83.2863C30.754 83.1509 30.6923 83.0037 30.6614 82.854C30.6424 82.778 30.6353 82.7091 30.6258 82.6379C30.6139 82.5666 30.6139 82.4978 30.6115 82.4265C30.6044 81.8589 30.7968 81.3364 31.0461 80.8875C31.2979 80.4363 31.6138 80.0396 31.951 79.6739C32.122 79.491 32.2978 79.3176 32.483 79.1514C32.6683 78.9828 32.8511 78.8284 33.0625 78.6693L32.9153 78.9756L32.4854 68.6705C32.4783 68.471 32.6326 68.3048 32.8298 68.2953C33.0316 68.2905 33.1979 68.4449 33.2074 68.6444Z" fill="#371A45"/>
<path d="M37.1263 82.764C37.1239 82.7664 37.1192 82.7688 37.1263 82.764C37.1287 82.7664 37.1334 82.764 37.1382 82.764C37.1453 82.7617 37.1548 82.7593 37.1643 82.7545C37.1833 82.7474 37.2023 82.7379 37.2213 82.7284C37.2593 82.707 37.2997 82.6833 37.3353 82.6548C37.4089 82.5978 37.473 82.5289 37.5277 82.4482C37.5775 82.365 37.625 82.2724 37.6535 82.1679C37.6725 82.118 37.6773 82.061 37.6892 82.0088C37.6963 81.9542 37.701 81.8972 37.7082 81.8402L37.7105 81.814C37.7248 81.7024 37.8245 81.6217 37.9385 81.6359C38.0359 81.6478 38.1095 81.7262 38.119 81.8188C38.1262 81.89 38.1357 81.9589 38.138 82.0302C38.1357 82.1014 38.1428 82.175 38.1333 82.2487C38.1238 82.3959 38.0882 82.5479 38.0359 82.6952C37.9789 82.8424 37.8982 82.9825 37.7913 83.1084C37.739 83.1725 37.6797 83.2295 37.6155 83.2842C37.5823 83.3103 37.549 83.3364 37.5134 83.3625C37.4968 83.3744 37.4778 83.3863 37.4564 83.3982C37.4469 83.4053 37.4374 83.41 37.4255 83.4172C37.4137 83.4243 37.4042 83.429 37.3828 83.4385C37.1975 83.5098 36.9885 83.4172 36.9173 83.2319C36.8484 83.0443 36.941 82.8353 37.1263 82.764Z" fill="#371A45"/>
<g opacity="0.25">
<path d="M30.9987 82.7139C31.2481 84.1745 33.882 84.4524 37.188 83.1414C37.188 83.1414 39.3492 84.7374 40.2588 83.5546C40.3443 83.4406 40.3752 83.2981 40.3657 83.1342C39.0333 83.1604 38.3826 82.2816 38.0905 81.6617C37.9504 81.3625 37.5894 81.2461 37.2949 81.3934C36.4612 81.8114 34.8842 82.4597 33.5138 82.1937C31.545 81.809 34.3546 79.605 34.3546 79.605L32.913 69.1099L33.2763 78.9661C33.2763 78.9661 30.6805 80.859 30.9987 82.7139Z" fill="#371A45"/>
</g>
<path d="M33.2048 75.197C33.1217 75.197 33.0385 75.1638 32.9792 75.0973C32.8699 74.9738 32.8794 74.7838 33.0029 74.6745C35.4397 72.5085 38.8668 74.3491 39.0117 74.4275C39.1565 74.5083 39.2112 74.6888 39.1304 74.836C39.0497 74.9809 38.8692 75.0355 38.7219 74.9548C38.6768 74.931 35.5157 73.2448 33.3995 75.1234C33.3473 75.1733 33.276 75.197 33.2048 75.197Z" fill="#371A45"/>
<path d="M77.9308 27.8471C76.2802 29.2626 73.7935 29.5713 71.8057 28.6878C70.3498 30.747 68.0365 32.115 65.5713 32.4237C63.9183 32.6303 62.213 32.3572 60.693 31.6732C59.9473 31.3383 59.249 30.9061 58.622 30.3812C56.5534 32.6636 53.3852 33.5281 50.4212 33.2668C50.2668 33.2526 50.1124 33.236 49.958 33.217C46.8682 32.8203 44.0182 31.3597 41.3534 29.7423C39.7717 30.8277 37.6484 31.1175 35.9147 30.3836C34.1809 29.6497 32.9079 27.9255 32.7179 26.0516C32.5303 24.1801 33.4304 22.235 34.9837 21.1686C36.1593 20.3611 37.7957 20.0832 39.0164 20.8195C39.1209 19.5512 39.6173 18.5466 40.4153 17.8982C41.2133 17.2522 42.301 16.9767 43.3128 17.162C44.1084 14.9057 46.006 11.5878 50.4069 9.97046C53.6322 8.78296 57.2659 8.44334 60.4674 9.49309C63.6689 10.5428 66.5189 12.6352 68.4783 15.376C69.6682 14.9128 71.1169 14.9318 72.2355 15.5707C73.3542 16.2096 74.107 17.447 74.1593 18.7366C76.4155 18.5276 78.667 19.9003 79.4603 21.9262C80.2559 23.9521 79.5814 26.4316 77.9308 27.8471Z" fill="white"/>
<g opacity="0.25">
<path d="M77.9301 27.8465C76.2795 29.262 73.7928 29.5708 71.805 28.6873C70.3491 30.7464 68.0358 32.1144 65.5706 32.4232C63.9176 32.6298 62.2123 32.3567 60.6923 31.6727C59.9466 31.3402 59.2483 30.9055 58.6213 30.3807C56.5527 32.6654 53.3845 33.5275 50.4205 33.2663C50.2661 33.252 50.1117 33.2354 49.9573 33.2164C46.8675 32.8198 44.0175 31.3592 41.3527 29.7418C39.771 30.8272 37.6477 31.1145 35.914 30.383C34.1802 29.6492 32.9072 27.9249 32.7172 26.051C32.6507 25.3932 32.7196 24.7282 32.9025 24.0964C33.3466 25.5927 34.47 26.8894 35.914 27.4998C37.6477 28.2337 39.771 27.9463 41.3527 26.8585C44.0175 28.4759 46.8675 29.9365 49.9573 30.3332C50.1117 30.3522 50.2637 30.3688 50.4205 30.383C53.3845 30.6443 56.5527 29.7822 58.6213 27.4974C59.2483 28.0199 59.949 28.4545 60.6923 28.7894C62.2123 29.4734 63.9176 29.7465 65.5706 29.5399C68.0358 29.2312 70.3491 27.8632 71.805 25.804C73.7905 26.6875 76.2795 26.3788 77.9301 24.9633C78.7352 24.2722 79.31 23.3269 79.5926 22.3057C80.1697 24.2508 79.481 26.5189 77.9301 27.8465Z" fill="#371A45"/>
</g>
<path d="M60.6947 31.6732C59.949 31.3384 59.2507 30.9061 58.6237 30.3812C56.5551 32.6636 53.3869 33.5281 50.4229 33.2669C50.7269 28.7496 53.4866 24.5482 55.6098 24.7572C58.1962 25.0114 59.9917 28.4812 60.6947 31.6732Z" fill="#62ED2E"/>
<path d="M60.4916 31.82C59.7459 31.4851 59.0476 31.0528 58.4206 30.528C56.352 32.8103 53.1837 33.6748 50.2197 33.4136C50.5237 28.8963 53.2835 24.695 55.4067 24.904C57.9955 25.1557 59.7886 28.6256 60.4916 31.82Z" fill="#31C418"/>
<path d="M51.4461 33.6722C51.097 33.6722 50.7431 33.658 50.3893 33.6247C50.1945 33.6081 50.0472 33.4371 50.0615 33.2423C50.2752 30.0788 51.7121 26.7776 53.5527 25.2172C54.2605 24.6163 54.9825 24.3337 55.6427 24.3978C58.5236 24.6805 60.3524 28.452 61.0459 31.5965C61.0744 31.7295 61.0269 31.8672 60.9224 31.9527C60.8155 32.0382 60.6706 32.0572 60.5471 32.0026C59.8679 31.6986 59.2338 31.3186 58.6566 30.8721C56.8896 32.6628 54.2724 33.6722 51.4461 33.6722ZM50.8096 32.9336C53.8045 33.1046 56.6046 32.0738 58.355 30.1406C58.4856 29.9981 58.7041 29.9815 58.8538 30.105C59.2575 30.4422 59.6945 30.7415 60.1576 31.0003C59.3715 28.11 57.7233 25.3241 55.5739 25.1151C55.1131 25.07 54.5764 25.2956 54.0206 25.7658C52.6313 26.9415 51.1184 29.7511 50.8096 32.9336Z" fill="#371A45"/>
<path d="M53.3994 30.2214C53.1738 30.9054 51.4994 34.2446 49.5163 33.0215C48.0105 32.0953 49.3643 30.0338 50.0863 29.06C49.5899 28.6586 48.4808 27.9533 48.4903 26.8251C48.4927 26.5924 48.5449 26.3549 48.6732 26.1126C48.8014 25.8656 49.0033 25.6115 49.3049 25.3431C49.3168 25.3313 49.3263 25.3218 49.3382 25.3123C50.1884 26.3098 51.2453 27.1268 52.4257 27.6944C52.7938 27.8725 53.1952 28.0435 53.4279 28.3808C53.7842 28.9056 53.5989 29.6158 53.3994 30.2214Z" fill="#62ED2E"/>
<path d="M53.3994 30.2219C53.1738 30.9059 51.4994 34.2452 49.5163 33.0221C48.0105 32.0958 49.3643 30.0343 50.0863 29.0606C49.5899 28.6592 48.4808 27.9538 48.4903 26.8257C48.4927 26.5929 48.5449 26.3554 48.6732 26.1132C49.0033 26.7924 49.825 28.0203 50.9033 28.8611C51.1574 29.0606 51.25 29.4002 51.1242 29.6971C50.8297 30.3882 50.4212 31.5686 50.8914 31.8892C51.5683 32.3523 52.9577 29.9559 52.7653 29.0297C52.7653 29.0297 50.2597 27.2223 49.3049 25.3389C49.3263 25.3247 49.3192 25.3294 49.3429 25.3152C50.1908 26.3103 51.2477 27.1249 52.4257 27.6926C52.7938 27.8707 53.1952 28.0417 53.4279 28.3789C53.7842 28.9062 53.5989 29.6163 53.3994 30.2219Z" fill="#31C418"/>
<path d="M52.3112 27.6191C50.9123 26.7261 48.6228 25.3201 47.7749 21.7314C47.1907 19.2543 47.8177 16.5326 49.321 14.4806C50.6154 12.7159 52.6009 11.4382 54.7693 11.1437C56.9377 10.8492 59.2533 11.5854 60.7495 13.1838C61.899 14.4093 62.5237 16.0552 62.7849 17.7153C63.1174 19.8267 62.7754 21.6626 61.9323 23.6267C60.7614 26.3627 57.1775 30.7303 52.3112 27.6191Z" fill="#62ED2E"/>
<g opacity="0.6">
<path d="M62.7892 17.7124C62.528 16.0523 61.9034 14.4064 60.7539 13.1809C59.2576 11.5825 56.942 10.8463 54.7736 11.1408C52.6052 11.4353 50.6174 12.713 49.3254 14.4776C47.9977 16.2898 47.3541 18.6196 47.6225 20.8426C47.6652 19.002 48.2922 17.1685 49.3824 15.6818C50.5699 14.062 52.3416 12.8555 54.301 12.4399C54.2962 12.4684 54.2939 12.4993 54.2939 12.5278C54.2939 13.0503 55.0277 13.473 55.935 13.473C56.8422 13.473 57.5761 13.0503 57.5761 12.5278C57.5761 12.5206 57.5737 12.5159 57.5737 12.5088C58.804 12.8223 59.9464 13.4588 60.8132 14.3826C61.9627 15.6081 62.5874 17.254 62.8486 18.9141C62.8747 19.0851 62.8985 19.2538 62.9151 19.4176C62.9199 18.8666 62.8795 18.3014 62.7892 17.7124Z" fill="white"/>
</g>
<path d="M61.9378 23.6242C60.7622 26.3602 57.1783 30.7302 52.3119 27.619C50.9131 26.726 48.6236 25.32 47.7757 21.7313C47.6332 21.1281 47.5619 20.513 47.5596 19.8931C47.5714 19.9453 47.5833 20 47.5952 20.0522C48.4431 23.6408 50.5164 25.206 51.9129 26.1013C56.7793 29.2126 60.5817 24.6835 61.7573 21.9451C62.4176 20.4061 62.7691 18.9455 62.7311 17.3708C62.7524 17.4848 62.7714 17.5988 62.7904 17.7128C63.1206 19.8242 62.7786 21.6601 61.9378 23.6242Z" fill="#31C418"/>
<path d="M51.4058 33.6535C51.0567 33.6535 50.7028 33.6393 50.3489 33.606C50.1993 33.5942 50.0449 33.5775 49.8739 33.5562C46.6748 33.1453 43.7654 31.6205 41.3216 30.1504C39.6377 31.2144 37.4717 31.4305 35.7356 30.6967C33.8949 29.9177 32.5222 28.058 32.3227 26.0702C32.1232 24.0823 33.0946 21.9852 34.7428 20.8547C35.7854 20.1398 37.3434 19.7265 38.6853 20.2562C38.8753 19.1399 39.3788 18.2279 40.1507 17.6009C40.9534 16.9525 42.0103 16.6438 43.0363 16.7459C43.9578 14.3068 45.9504 11.1908 50.2444 9.61378C53.8188 8.29803 57.4763 8.12703 60.5401 9.13165C63.7297 10.179 66.5726 12.231 68.5723 14.9267C69.8596 14.5063 71.2941 14.6203 72.3771 15.2378C73.4933 15.8743 74.2794 17.0642 74.4504 18.3372C74.4884 18.3372 74.5264 18.3348 74.5668 18.3348C76.7922 18.3348 78.9677 19.7479 79.7609 21.7738C80.5969 23.9089 79.9106 26.5689 78.1269 28.0984C76.4597 29.5282 73.9873 29.9177 71.8926 29.1078C70.3892 31.0933 68.0498 32.4518 65.5798 32.7605C63.8698 32.9743 62.1147 32.7059 60.5092 31.9815C59.8299 31.6775 59.1958 31.2975 58.6187 30.851C56.8493 32.6442 54.2321 33.6535 51.4058 33.6535ZM41.3144 29.3643C41.3786 29.3643 41.4427 29.3809 41.5021 29.4165C43.9198 30.8819 46.8149 32.4375 49.9666 32.8413C50.1257 32.8603 50.2729 32.8769 50.4131 32.8888C53.5433 33.1643 56.4954 32.1312 58.3171 30.1219C58.4477 29.9794 58.6662 29.9628 58.8158 30.0863C59.4119 30.585 60.0793 31.0007 60.8037 31.326C62.2904 31.9958 63.9102 32.2428 65.4896 32.0457C67.8574 31.7488 70.0971 30.4069 71.4746 28.4594C71.5743 28.3193 71.7572 28.2694 71.9139 28.3383C73.8163 29.1838 76.1248 28.8679 77.6567 27.5522C79.2147 26.2174 79.8156 23.897 79.0888 22.0374C78.3526 20.1564 76.2317 18.8834 74.1559 19.0758C74.0562 19.0853 73.9588 19.052 73.8852 18.9879C73.8116 18.9238 73.7664 18.8312 73.7617 18.7314C73.7142 17.5677 73.0302 16.4419 72.0184 15.8648C71.0447 15.309 69.7242 15.2425 68.5699 15.6938C68.4156 15.7532 68.2422 15.7009 68.1448 15.5679C66.2282 12.8865 63.4471 10.844 60.3144 9.81803C57.4027 8.86328 53.9162 9.0319 50.4914 10.2907C46.2948 11.832 44.4328 14.9338 43.6134 17.2637C43.5541 17.4299 43.3831 17.5297 43.2073 17.4988C42.2953 17.3302 41.3216 17.5795 40.6019 18.1614C39.8681 18.7552 39.4311 19.679 39.3361 20.8309C39.3266 20.9544 39.2529 21.066 39.1413 21.123C39.0297 21.18 38.8967 21.1753 38.7922 21.1112C37.6332 20.4129 36.1274 20.7787 35.1489 21.4484C33.7121 22.434 32.8642 24.2628 33.0376 25.9965C33.2133 27.7303 34.4079 29.3524 36.0158 30.0317C37.5999 30.7014 39.5997 30.4639 41.1102 29.426C41.1696 29.3857 41.2408 29.3643 41.3144 29.3643Z" fill="#371A45"/>
<path d="M55.627 28.9932C54.4822 28.9932 53.3161 28.618 52.1476 27.8699L52.0716 27.82C50.6775 26.9294 48.3429 25.4402 47.4831 21.797C46.8894 19.2771 47.4855 16.4746 49.0791 14.2991C50.4685 12.4015 52.53 11.1404 54.7292 10.8411C57.0496 10.5252 59.4412 11.3422 60.9707 12.9739C62.0537 14.1281 62.7829 15.7502 63.0845 17.6645C63.4051 19.7094 63.1367 21.5832 62.2129 23.7397C61.422 25.5827 59.6312 28.0029 57.1945 28.7534C56.6767 28.9149 56.1542 28.9932 55.627 28.9932ZM55.7291 11.3779C55.4251 11.3779 55.1187 11.3992 54.8147 11.4396C52.7746 11.7175 50.8627 12.8907 49.5684 14.6577C48.0769 16.6931 47.5164 19.3127 48.0721 21.664C48.8772 25.0697 50.9957 26.4235 52.3994 27.3189L52.4754 27.3687C54.0262 28.3615 55.5557 28.6346 57.0211 28.1857C59.2631 27.497 60.9232 25.236 61.6642 23.5094C62.5406 21.4621 62.7971 19.6904 62.4955 17.7619C62.2129 15.9664 61.536 14.4559 60.5361 13.3895C59.3367 12.107 57.5555 11.3779 55.7291 11.3779Z" fill="#371A45"/>
<path d="M54.6336 26.5836C54.5339 26.5836 54.4531 26.5028 54.4531 26.4054C54.4531 26.3057 54.5315 26.2249 54.6313 26.2249C55.0635 26.2226 55.5219 25.9091 55.795 25.4293C55.8449 25.3438 55.9541 25.3129 56.0396 25.3628C56.1251 25.4127 56.156 25.5219 56.1061 25.6074C55.7665 26.2036 55.2036 26.5788 54.6336 26.5836Z" fill="#371A45"/>
<path d="M50.3945 33.5891C50.043 33.5891 49.6963 33.4846 49.359 33.278C48.9244 33.0096 48.656 32.6391 48.5681 32.176C48.4161 31.3875 48.7771 30.3853 49.6749 29.1194C49.1001 28.6776 48.181 27.9461 48.1905 26.8228C48.1953 26.21 48.5064 25.64 49.1405 25.0866C49.1999 25.0344 49.2806 25.0083 49.3614 25.013C49.4421 25.0178 49.5158 25.0558 49.568 25.1175C50.3874 26.0794 51.4205 26.8774 52.5558 27.4236L52.6484 27.4688C53.0094 27.6398 53.4179 27.8345 53.6744 28.2121C54.0924 28.8249 53.9261 29.5849 53.6863 30.3164C53.5509 30.7273 52.5534 32.9218 51.0643 33.468C50.8386 33.5464 50.6154 33.5891 50.3945 33.5891ZM49.3163 25.7421C48.8531 26.2195 48.7914 26.5829 48.789 26.8251C48.7819 27.673 49.5585 28.2691 50.0715 28.6658C50.1451 28.7228 50.214 28.775 50.2734 28.8249C50.3993 28.927 50.4206 29.1075 50.3256 29.2358C49.4231 30.4541 49.0289 31.4041 49.1548 32.0573C49.2118 32.3541 49.3804 32.5845 49.6725 32.7626C50.062 33.0025 50.4515 33.0476 50.8576 32.898C52.0214 32.4729 52.9547 30.6109 53.1139 30.124C53.3062 29.5398 53.4464 28.9436 53.1756 28.547C53.0094 28.3024 52.7054 28.1599 52.3848 28.0055L52.2898 27.9604C51.1759 27.426 50.1546 26.6613 49.3163 25.7421Z" fill="#371A45"/>
<path d="M50.1401 28.6756C50.4441 28.8965 50.7172 29.1031 51.0354 29.2646C51.1138 29.305 51.1423 29.4 51.1043 29.476C51.0711 29.5401 50.9998 29.5733 50.9309 29.5591C50.5581 29.4807 50.1899 29.3335 49.8551 29.2028H49.8527C49.696 29.1435 49.6176 28.9677 49.6793 28.811C49.7387 28.6542 49.9145 28.5758 50.0712 28.6376C50.095 28.6471 50.1187 28.6613 50.1401 28.6756Z" fill="#371A45"/>
<path d="M50.2811 26.336C50.141 26.4144 50.0175 26.4975 49.9296 26.602C49.8394 26.7041 49.7871 26.8419 49.7729 27.0034V27.0081C49.7658 27.0865 49.6969 27.1435 49.6185 27.1364C49.5544 27.1292 49.5045 27.0817 49.4926 27.0224C49.4736 26.925 49.4618 26.8205 49.4689 26.7112C49.476 26.602 49.5021 26.4904 49.5449 26.3882C49.6304 26.1792 49.7705 26.0106 49.9083 25.8657L49.913 25.861C50.0294 25.7399 50.2218 25.7351 50.3429 25.8515C50.464 25.9679 50.4688 26.1602 50.3524 26.2814C50.331 26.3027 50.3049 26.3217 50.2811 26.336Z" fill="#371A45"/>
<path d="M56.7882 20.933C57.8641 19.5507 59.3984 19.3394 60.3127 20.2537C61.1654 21.1064 61.0324 22.7119 59.6335 23.7782C58.3272 24.7734 56.6149 25.0275 56.109 24.4575C55.5794 23.8637 55.7789 22.2297 56.7882 20.933Z" fill="#371A45"/>
<g opacity="0.6">
<path d="M56.7881 21.4888C57.864 20.1065 59.3982 19.8952 60.3126 20.8095C60.5976 21.0945 60.771 21.465 60.8256 21.8688C60.904 21.2513 60.7235 20.6647 60.3126 20.2538C59.3982 19.3394 57.864 19.5532 56.7881 20.933C56.0614 21.8688 55.7574 22.9779 55.8405 23.7474C55.9094 23.0492 56.2205 22.2155 56.7881 21.4888Z" fill="white"/>
</g>
<path d="M52.572 22.0564C51.7288 20.9734 50.5271 20.8071 49.8098 21.5244C49.1425 22.1917 49.2446 23.4505 50.3418 24.2865C51.3655 25.0655 52.7073 25.265 53.104 24.8185C53.5196 24.353 53.3628 23.0705 52.572 22.0564Z" fill="#371A45"/>
<g opacity="0.6">
<path d="M49.69 21.9186C50.4072 21.2014 51.609 21.3676 52.4521 22.4506C53.034 23.1964 53.2715 24.0846 53.1907 24.6902C53.4876 24.1487 53.3 22.9921 52.5709 22.0564C51.7277 20.9734 50.526 20.8071 49.8087 21.5244C49.595 21.7381 49.4596 22.0136 49.4121 22.3176C49.481 22.1704 49.5736 22.035 49.69 21.9186Z" fill="white"/>
</g>
<path d="M56.2509 25.9984C56.1607 25.9984 56.0823 25.9319 56.0728 25.8392C56.0609 25.7371 56.0039 25.6397 55.9232 25.578C55.8424 25.5162 55.7332 25.4877 55.6334 25.4996C55.5337 25.5139 55.4434 25.445 55.4316 25.3452C55.4173 25.2455 55.4862 25.1552 55.5859 25.1434C55.7831 25.1172 55.9873 25.1719 56.1464 25.293C56.3056 25.4165 56.4101 25.5994 56.4338 25.7965C56.4457 25.8962 56.3744 25.9841 56.2771 25.996C56.2652 25.9984 56.2581 25.9984 56.2509 25.9984Z" fill="#371A45"/>
<path d="M68.6708 15.692C68.3597 15.8037 68.0533 15.9343 67.7541 16.0863C67.4525 16.2359 67.1556 16.4045 66.8563 16.5779C66.7803 16.623 66.6806 16.5969 66.6355 16.5185C66.5975 16.4497 66.6117 16.3665 66.6687 16.3167C66.93 16.091 67.1936 15.863 67.4738 15.6469C67.7541 15.4308 68.051 15.2289 68.3573 15.0437L68.3597 15.0413C68.5307 14.9392 68.754 14.9938 68.8561 15.1672C68.9582 15.3382 68.9036 15.5614 68.7302 15.6635C68.7136 15.6754 68.6922 15.6849 68.6708 15.692Z" fill="#371A45"/>
<path d="M74.5371 18.8075C74.5086 19.0925 74.4611 19.3823 74.3851 19.6602C74.3114 19.9404 74.2117 20.204 74.1072 20.4582C74.0668 20.5555 73.9576 20.603 73.8602 20.5627C73.7747 20.527 73.7296 20.4392 73.7438 20.3537C73.7913 20.0877 73.8293 19.8288 73.8412 19.5723C73.8554 19.3158 73.8436 19.0617 73.8151 18.8075C73.7937 18.608 73.9362 18.4299 74.1357 18.4062C74.3352 18.3848 74.5133 18.5273 74.5371 18.7268C74.5394 18.7529 74.5394 18.7767 74.5371 18.8004V18.8075Z" fill="#371A45"/>
<path d="M43.3607 16.7769C43.7692 16.8909 44.1682 17.0595 44.5292 17.2804C44.8902 17.5013 45.2061 17.7697 45.4982 18.0475C45.5789 18.1259 45.5837 18.2542 45.5053 18.3373C45.4341 18.4133 45.3177 18.4204 45.2369 18.361C44.9234 18.133 44.6028 17.9264 44.2656 17.7792C43.9283 17.6295 43.5744 17.5322 43.2134 17.4823C43.0163 17.4538 42.8786 17.2709 42.9071 17.0738C42.9356 16.8767 43.1184 16.7389 43.3156 16.7674C43.3298 16.7698 43.3464 16.7722 43.3607 16.7769Z" fill="#371A45"/>
<path d="M41.1563 30.0434C40.8167 29.7798 40.5578 29.4758 40.3251 29.1528C40.0971 28.8298 39.9 28.4854 39.7598 28.1149C39.7218 28.0176 39.7717 27.9083 39.8691 27.8703C39.957 27.8371 40.0543 27.8727 40.0995 27.9534L40.1018 27.9558C40.2776 28.2646 40.5008 28.5472 40.7478 28.8013C40.9948 29.0531 41.2703 29.2858 41.553 29.4402C41.7287 29.5352 41.7928 29.7561 41.6955 29.9318C41.5981 30.1076 41.3796 30.1717 41.2038 30.0743C41.1872 30.0648 41.1706 30.0553 41.1563 30.0434Z" fill="#371A45"/>
<path d="M62.009 32.1596C60.7882 31.8318 59.5936 31.3022 58.5296 30.5826C58.1235 30.8723 57.7839 31.1146 57.4039 31.2713C57.0239 31.4305 56.594 31.5017 56.1974 31.3925C55.4801 31.193 55.0241 30.4068 55.0574 29.6635C55.0787 29.1671 55.2806 28.6992 55.5799 28.3002C55.7295 28.1007 55.9029 27.9155 56.0929 27.754C56.5132 27.393 57.0191 27.1151 57.5701 27.0391C58.1187 26.9631 58.6602 27.0652 59.2682 27.4191C59.3632 27.3146 59.444 27.222 59.5176 27.1365C59.7052 26.9132 59.8406 26.7398 60.0544 26.5332C61.2252 27.0201 62.1562 27.8442 62.5837 28.9272C63.0089 30.0031 62.8426 31.3497 62.009 32.1596Z" fill="#62ED2E"/>
<path d="M62.009 32.1598C60.7882 31.832 59.5936 31.3024 58.5296 30.5828C58.1235 30.8725 57.7839 31.1148 57.4039 31.2715C57.0239 31.4306 56.594 31.5019 56.1974 31.3926C55.4801 31.1931 55.0241 30.407 55.0574 29.6636C55.0787 29.1673 55.2806 28.6994 55.5799 28.3004C55.8364 29.2741 56.5204 30.3286 58.3325 29.5876C58.3325 29.5876 60.9854 30.6588 61.4865 30.426C61.8974 30.236 60.7336 28.2363 59.5176 27.1343C59.7052 26.911 59.8406 26.7376 60.0544 26.531C61.2252 27.0179 62.1562 27.842 62.5837 28.925C63.0089 30.0033 62.8426 31.3499 62.009 32.1598Z" fill="#31C418"/>
<path d="M62.0087 32.4593C61.9826 32.4593 61.9565 32.4569 61.9303 32.4498C60.7191 32.1244 59.5506 31.6067 58.5341 30.9464C58.2016 31.1815 57.8786 31.3977 57.5176 31.5473C57.1756 31.6898 56.6531 31.8299 56.1163 31.6803C55.3017 31.4547 54.7175 30.5807 54.7578 29.6473C54.7911 28.8897 55.2067 28.1154 55.8978 27.5217C56.4037 27.087 56.9666 26.8139 57.5271 26.7355C58.0995 26.6548 58.6362 26.7498 59.2015 27.0348C59.2751 26.9493 59.3416 26.8709 59.4057 26.7949C59.5387 26.6334 59.667 26.4814 59.8427 26.3104C59.9282 26.2273 60.0565 26.2012 60.1681 26.2487C61.4648 26.7878 62.422 27.6974 62.8613 28.8089C63.3553 30.0605 63.0893 31.5259 62.2177 32.3714C62.1607 32.4308 62.0847 32.4593 62.0087 32.4593ZM58.5293 30.2814C58.5887 30.2814 58.6481 30.298 58.698 30.3337C59.6503 30.9797 60.7595 31.4927 61.9161 31.8228C62.5265 31.1269 62.688 30.0059 62.3032 29.0322C61.9446 28.1249 61.1751 27.3697 60.1253 26.8875C60.0351 26.9849 59.9567 27.0799 59.8688 27.1844C59.7643 27.3103 59.6456 27.4504 59.4888 27.6214C59.3938 27.7235 59.2395 27.7473 59.1183 27.676C58.5958 27.372 58.1161 27.2628 57.6126 27.334C57.1661 27.3958 56.7101 27.619 56.2897 27.98C55.7221 28.4669 55.3825 29.0844 55.3587 29.6758C55.3302 30.3242 55.734 30.9512 56.2778 31.1032C56.6507 31.2077 57.0331 31.1008 57.2872 30.9963C57.6458 30.8467 57.9902 30.5997 58.3536 30.3408C58.4058 30.3004 58.4676 30.2814 58.5293 30.2814Z" fill="#371A45"/>
<path d="M59.4315 27.1454C59.9896 27.5824 60.4836 28.1002 60.8945 28.6583C60.9372 28.7177 60.9254 28.8032 60.866 28.8459C60.8114 28.8863 60.7377 28.8792 60.6926 28.8341C60.2081 28.3614 59.6761 27.9624 59.0966 27.6418C58.9517 27.5611 58.8971 27.3782 58.9779 27.2333C59.0586 27.0884 59.2415 27.0338 59.3864 27.1146C59.4006 27.1217 59.4125 27.1312 59.4267 27.1407L59.4315 27.1454Z" fill="#371A45"/>
<path d="M55.1379 30.6683C55.3422 30.1102 55.7198 29.64 56.1829 29.3288C56.2447 29.2861 56.3302 29.3027 56.3705 29.3668C56.4062 29.4215 56.399 29.4927 56.3563 29.5378C56.0072 29.8988 55.7839 30.3596 55.7198 30.8227C55.696 30.989 55.544 31.103 55.3778 31.0792C55.2115 31.0555 55.0975 30.9035 55.1213 30.7372C55.1237 30.7158 55.1284 30.6968 55.1355 30.6755L55.1379 30.6683Z" fill="#371A45"/>
<path d="M54.341 56.8502C47.6078 75.178 21.8272 66.7373 26.3753 48.4925C32.8211 29.5662 59.4615 38.3157 54.341 56.8502Z" fill="white"/>
<path d="M54.341 56.8502C47.6078 75.178 21.8272 66.7373 26.3753 48.4925C32.8211 29.5662 59.4615 38.3157 54.341 56.8502Z" fill="white"/>
<path d="M54.341 56.8502C47.6078 75.178 21.8272 66.7373 26.3753 48.4925C32.8211 29.5662 59.4615 38.3157 54.341 56.8502Z" fill="white"/>
<path d="M40.6684 67.3599C39.1556 67.3599 37.6213 67.1295 36.1179 66.6688C32.5436 65.5715 29.5439 63.2891 27.6653 60.2468C25.5658 56.8458 25.0291 52.756 26.1073 48.424L26.1144 48.4026C27.6297 43.959 30.3657 40.6981 34.0327 38.9763C37.2841 37.4468 41.0746 37.2235 44.7059 38.3421C48.3444 39.4631 51.3797 41.7906 53.2512 44.8924C55.3483 48.3694 55.8162 52.5304 54.6026 56.9241L54.5954 56.9455C53.0113 61.2538 50.2611 64.4125 46.6368 66.075C44.7772 66.93 42.7442 67.3599 40.6684 67.3599ZM26.6369 48.5689C24.3189 57.8955 30.0071 64.2178 36.2771 66.1463C42.6943 68.1175 50.6862 65.9824 54.0777 56.7674C56.6902 47.2911 50.9688 40.8454 44.5444 38.8646C38.1842 36.9029 29.8669 39.1045 26.6369 48.5689Z" fill="#371A45"/>
<g opacity="0.25">
<path d="M54.3417 56.8481C48.8008 72.7796 26.5304 69.0366 25.8203 52.8414C27.7274 57.7719 29.5301 57.6461 32.7102 59.7432C42.5759 66.7328 54.3821 58.0284 54.0923 47.3979C55.2394 50.4807 55.2893 53.8081 54.3417 56.8481Z" fill="#371A45"/>
</g>
<path d="M40.6683 67.4714C39.1435 67.4714 37.5998 67.2411 36.0845 66.7756C32.4864 65.6688 29.463 63.3722 27.5702 60.306C25.4564 56.8789 24.9125 52.7607 26.0003 48.3978L26.0098 48.3669C27.5345 43.8948 30.2919 40.6126 33.985 38.8741C37.2625 37.3351 41.0792 37.1071 44.7367 38.2328C48.4013 39.3633 51.4579 41.7051 53.3437 44.8306C55.4574 48.3337 55.93 52.5232 54.7069 56.9478L54.6974 56.9787C53.1038 61.3154 50.3322 64.4956 46.6818 66.1699C44.8103 67.0368 42.7583 67.4714 40.6683 67.4714ZM26.7437 48.5997C24.4447 57.8551 30.09 64.1274 36.3125 66.0393C42.6799 67.9963 50.6077 65.8754 53.9754 56.7317C56.5642 47.3291 50.8879 40.9332 44.5134 38.9691C38.2007 37.0239 29.9499 39.2089 26.7437 48.5997Z" fill="#293856"/>
<path d="M40.6683 67.4714C39.1435 67.4714 37.5998 67.2411 36.0845 66.7756C32.4864 65.6688 29.463 63.3722 27.5702 60.306C25.4564 56.8789 24.9125 52.7607 26.0003 48.3978L26.0098 48.3669C27.5345 43.8948 30.2919 40.6126 33.985 38.8741C37.2625 37.3351 41.0792 37.1071 44.7367 38.2328C48.4013 39.3633 51.4579 41.7051 53.3437 44.8306C55.4574 48.3337 55.93 52.5232 54.7069 56.9478L54.6974 56.9787C53.1038 61.3154 50.3322 64.4956 46.6818 66.1699C44.8103 67.0368 42.7583 67.4714 40.6683 67.4714ZM26.7437 48.5997C24.4447 57.8551 30.09 64.1274 36.3125 66.0393C42.6799 67.9963 50.6077 65.8754 53.9754 56.7317C56.5642 47.3291 50.8879 40.9332 44.5134 38.9691C38.2007 37.0239 29.9499 39.2089 26.7437 48.5997Z" fill="#371A45"/>
<path d="M52.7779 60.2464C40.5276 72.2377 24.2351 58.5079 32.7186 46.1246C43.0618 32.8365 61.3635 45.0701 52.7779 60.2464Z" fill="#371A45"/>
<path d="M54.1822 49.4478C57.9513 64.4768 36.7449 71.0294 31.0449 57.8553C39.9322 64.2535 51.9425 57.7199 54.1822 49.4478Z" fill="#21102B"/>
<path d="M42.2158 66.7565C41.2325 66.7565 40.2374 66.6473 39.2494 66.424C36.0503 65.702 33.2074 63.897 31.2433 61.3391C29.0773 58.5176 28.1653 55.0407 28.6046 51.2882C29.1628 47.405 31.4665 43.7998 34.9293 41.3868C38.4039 38.9643 42.61 38.0499 46.467 38.874L46.5288 38.893C49.9203 40.2515 52.6254 42.9662 54.143 46.5382C55.5751 49.913 55.7818 53.7154 54.7059 56.9715V56.9739C53.4163 60.781 51.1576 63.65 48.1699 65.2722C46.3625 66.253 44.3176 66.7565 42.2158 66.7565ZM43.6336 39.3443C40.7813 39.3443 37.879 40.2681 35.3686 42.0161C32.0793 44.308 29.8919 47.7233 29.3646 51.3879C28.4621 59.0734 33.7394 64.3958 39.418 65.6759C44.358 66.7898 51.1363 65.1154 53.9768 56.7293C55.9504 50.7538 53.3236 42.4603 46.2746 39.6198C45.4078 39.4345 44.5219 39.3443 43.6336 39.3443Z" fill="#371A45"/>
<path d="M42.4638 65.2531C39.4761 65.2531 36.5976 64.2081 34.2986 62.2796C32.0495 60.3914 30.5675 57.8169 30.1257 55.0311C29.6365 51.9531 30.4226 48.7991 32.4033 45.9111L32.4176 45.8921C34.8662 42.7476 37.9276 40.7882 41.2763 40.2277C44.2878 39.7242 47.3587 40.3892 49.9261 42.0992C52.5528 43.8496 54.3816 46.5143 55.0798 49.5971C55.8565 53.0432 55.1796 56.7909 53.1157 60.4366L53.0896 60.4841L53.0516 60.5221C50.0496 63.4599 46.5773 65.0916 43.0053 65.2412C42.8225 65.2483 42.642 65.2531 42.4638 65.2531ZM33.0303 46.3528C28.8717 52.4328 30.919 58.4344 34.795 61.6882C39.0628 65.2721 46.1807 66.1366 52.4721 60.0091C56.7661 52.3687 53.947 45.7021 49.4986 42.7357C45.0241 39.7551 38.2007 39.7194 33.0303 46.3528Z" fill="#371A45"/>
<path d="M25.0596 59.3629C27.5961 65.7635 34.2247 63.759 32.4173 57.4035C30.0043 50.5991 22.9197 52.7414 25.0596 59.3629Z" fill="white"/>
<g opacity="0.35">
<path d="M30.4444 63.1683C32.4346 62.5816 33.3205 59.7744 32.3064 57.0764C31.7269 60.2921 27.5255 56.2024 26.9864 54.8748C22.1153 57.4065 26.8106 64.3249 30.4444 63.1683Z" fill="#371A45"/>
</g>
<path d="M29.5433 63.6618C27.8523 63.6618 25.8763 62.4648 24.7007 59.5032L24.6912 59.4795C23.5417 55.9193 24.9596 53.6393 26.7622 53.0266C28.762 52.3497 31.4695 53.5895 32.7757 57.2731L32.7828 57.2968C33.759 60.7335 32.4052 62.8805 30.6287 63.4837C30.2938 63.6025 29.9257 63.6618 29.5433 63.6618ZM25.4203 59.2325C26.6743 62.3865 28.8736 63.2723 30.3865 62.757C31.8162 62.2725 32.885 60.4651 32.0513 57.5201C30.909 54.3138 28.6527 53.2 27.0116 53.7557C25.5557 54.2497 24.4371 56.1735 25.4203 59.2325Z" fill="#371A45"/>
<path d="M24.8871 59.7952C26.9486 64.9798 31.9385 63.5619 30.4803 58.4224C28.528 52.8364 23.1059 54.3825 24.8871 59.7952Z" fill="white"/>
<path d="M28.4585 63.4316C27.119 63.4316 25.5183 62.4222 24.5279 59.9356L24.5208 59.9142C23.5565 56.9811 24.6229 55.1357 26.0218 54.6607C27.5988 54.1264 29.76 55.2022 30.8383 58.2945L30.8454 58.3159C31.641 61.116 30.6222 62.8379 29.2613 63.301C29.0119 63.3865 28.7412 63.4316 28.4585 63.4316ZM25.2475 59.6625C26.2593 62.199 27.9099 62.9495 29.0167 62.5742C30.0332 62.2299 30.7647 60.8476 30.1115 58.5367C29.1948 55.9242 27.4848 54.9742 26.2688 55.3875C25.219 55.7461 24.4519 57.2352 25.2475 59.6625Z" fill="#371A45"/>
<g opacity="0.5">
<path d="M33.0324 54.2121C34.436 56.7486 37.343 55.2001 36.4999 52.8013C35.2649 49.8397 31.8093 51.6091 33.0324 54.2121Z" fill="white"/>
</g>
<g opacity="0.5">
<path d="M35.6821 58.0902C36.2735 59.0284 37.5584 58.3753 37.0097 57.297C36.416 56.3565 35.1311 57.0096 35.6821 58.0902Z" fill="white"/>
</g>
<g opacity="0.5">
<path d="M52.5818 50.7111C52.0047 40.197 41.2103 41.2562 38.5146 44.1252C45.3475 43.0683 49.2639 46.5477 52.5818 50.7111Z" fill="white"/>
</g>
<g opacity="0.25">
<path d="M31.0263 59.5792C30.9503 58.7979 30.6629 58.0355 30.2307 57.3752C30.0953 61.2299 26.0744 60.4532 24.6328 58.0379C25.0461 63.5977 31.0833 64.8707 31.0263 59.5792Z" fill="#371A45"/>
</g>
<path d="M52.3871 25.175C51.7577 25.175 50.9336 24.89 50.2686 24.3818C49.6796 23.9329 49.3186 23.3178 49.2758 22.6931C49.2426 22.2063 49.4017 21.7621 49.7247 21.4391C50.0548 21.109 50.4918 20.9451 50.9621 20.9736C51.5843 21.0116 52.1876 21.3703 52.6649 21.983C53.4416 22.9805 53.6886 24.3438 53.1922 24.8995C53.0259 25.0848 52.7362 25.175 52.3871 25.175ZM50.8528 21.2088C50.4847 21.2088 50.1546 21.3465 49.8933 21.6078C49.6202 21.8809 49.4872 22.2585 49.5157 22.6741C49.5537 23.2299 49.8814 23.7809 50.4134 24.1894C51.4038 24.9446 52.6721 25.1204 53.0141 24.738C53.3822 24.3248 53.2278 23.0945 52.4773 22.1303C52.0498 21.5816 51.4917 21.2468 50.9478 21.2135C50.9169 21.2111 50.8837 21.2088 50.8528 21.2088Z" fill="#371A45"/>
<path d="M57.0206 24.8803C56.5836 24.8803 56.225 24.7711 56.0184 24.5383C55.4674 23.9185 55.6099 22.256 56.6929 20.8618C57.2961 20.0876 58.0585 19.634 58.8423 19.5865C59.4313 19.5508 59.9823 19.7575 60.3955 20.1707C60.7993 20.5745 60.9988 21.135 60.9584 21.7453C60.9061 22.5338 60.4478 23.3081 59.7044 23.8757C58.8589 24.517 57.8115 24.8803 57.0206 24.8803ZM56.8805 21.0067C55.8973 22.2702 55.7073 23.8282 56.1965 24.3768C56.6406 24.878 58.2794 24.6547 59.5571 23.681C60.2459 23.1561 60.6686 22.4436 60.7161 21.7263C60.7518 21.1848 60.5784 20.6908 60.2245 20.337C59.8611 19.9736 59.3766 19.7907 58.8541 19.8216C58.1535 19.8691 57.4339 20.299 56.8805 21.0067Z" fill="#371A45"/>
</g>
<defs>
<clipPath id="clip0_2_64423">
<rect width="95" height="95" rx="8" fill="white"/>
</clipPath>
</defs>
</svg>
