<svg width="95" height="95" viewBox="0 0 95 95" fill="none" xmlns="http://www.w3.org/2000/svg">
<g clip-path="url(#clip0_2_64415)">
<path d="M95 0H0V95H95V0Z" fill="#845BFF"/>
<g opacity="0.2">
<path d="M48.4121 84.0749C66.487 84.0749 81.1396 82.5714 81.1396 80.7167C81.1396 78.8619 66.487 77.3584 48.4121 77.3584C30.3372 77.3584 15.6846 78.8619 15.6846 80.7167C15.6846 82.5714 30.3372 84.0749 48.4121 84.0749Z" fill="#371A45"/>
</g>
<path d="M83.5069 69.1787C82.8229 71.3423 81.5903 73.3444 79.8471 74.9713C79.4908 75.3014 79.1156 75.6173 78.7213 75.9142C78.5289 76.0591 78.3294 76.1992 78.1276 76.3369C77.5124 76.7502 76.8783 77.1064 76.2252 77.4081C75.6647 77.6693 75.0899 77.8902 74.508 78.0707C73.8074 78.2892 73.0926 78.4483 72.3777 78.5528C72.1164 78.5908 71.8552 78.6193 71.5915 78.6431C66.7964 79.0563 61.9229 76.9734 59.0207 72.7744C54.7433 66.5899 56.363 58.1611 62.6378 53.9454C63.8467 53.1332 65.141 52.5371 66.4734 52.1476C66.6278 52.1001 66.7869 52.0573 66.9437 52.0193C67.364 51.9124 67.7892 51.8246 68.2143 51.7581C69.1999 51.6037 70.1927 51.5562 71.1783 51.6156C72.1616 51.6726 73.1377 51.8317 74.0853 52.0929C74.3869 52.1761 74.6862 52.2687 74.9807 52.3708C75.4248 52.5252 75.8594 52.7033 76.2869 52.9028C78.4197 53.8979 80.3197 55.4488 81.7423 57.5079C84.2028 61.0633 84.7111 65.3644 83.5069 69.1787Z" fill="white"/>
<path d="M70.3921 78.7333C65.8558 78.7333 61.5642 76.527 58.9873 72.7958C56.9211 69.8081 56.154 66.2052 56.8261 62.6522C57.503 59.0683 59.5597 55.9642 62.6163 53.9122C63.8086 53.1118 65.103 52.5062 66.4615 52.1096C66.6087 52.0645 66.7631 52.0241 66.9341 51.9813C67.3545 51.8745 67.7843 51.7866 68.2095 51.7177C69.188 51.5633 70.1878 51.5158 71.1806 51.5728C72.1662 51.6298 73.1471 51.7913 74.0971 52.0526C74.4035 52.1357 74.7051 52.2307 74.9948 52.3328C75.4485 52.492 75.8878 52.6701 76.3058 52.8672C78.5075 53.8932 80.398 55.4916 81.7778 57.4866C84.1623 60.9351 84.8083 65.2006 83.5472 69.1906C82.849 71.4041 81.5783 73.411 79.8755 74.9998C79.5145 75.3347 79.1345 75.653 78.745 75.9451C78.5668 76.0805 78.3721 76.2182 78.1488 76.3702C77.5408 76.7787 76.8996 77.1397 76.2417 77.4437C75.6907 77.7002 75.1112 77.9235 74.5198 78.1087C73.8287 78.3248 73.1091 78.4863 72.3823 78.5908C72.1211 78.6288 71.8551 78.6573 71.5938 78.6811C71.1925 78.7167 70.7911 78.7333 70.3921 78.7333ZM70.3636 51.6275C69.644 51.6275 68.9243 51.6821 68.2166 51.7937C67.7938 51.8602 67.3663 51.9481 66.9483 52.055C66.7773 52.0977 66.6253 52.1381 66.4805 52.1832C65.1291 52.5775 63.8418 53.1807 62.6567 53.9763C59.6191 56.0188 57.5742 59.104 56.8997 62.6665C56.2323 66.2005 56.9947 69.782 59.0491 72.7531C61.8397 76.7882 66.6443 79.0302 71.5843 78.6051C71.8432 78.5813 72.1068 78.5528 72.3681 78.5148C73.0901 78.4103 73.805 78.2488 74.4937 78.0351C75.0803 77.8522 75.6575 77.629 76.2061 77.3748C76.8616 77.0708 77.5005 76.7122 78.1037 76.3061C78.3246 76.1565 78.5193 76.0163 78.6975 75.8833C79.0846 75.5936 79.4622 75.2753 79.8208 74.9428C81.5142 73.3635 82.7753 71.3685 83.4712 69.1668C84.7252 65.1982 84.084 60.9565 81.7113 57.5293C80.341 55.5462 78.4576 53.9573 76.2702 52.9361C75.8546 52.7413 75.4176 52.5632 74.9663 52.4041C74.6766 52.302 74.3773 52.2093 74.0733 52.1262C73.1281 51.865 72.152 51.7058 71.1735 51.6488C70.9051 51.6346 70.6343 51.6275 70.3636 51.6275Z" fill="#371A45"/>
<path d="M59.018 72.7744C61.9203 76.9734 66.7938 79.0563 71.5889 78.6431C71.8502 78.6193 72.1114 78.5908 72.3727 78.5528C73.0899 78.4483 73.8024 78.2892 74.503 78.0707C75.0849 77.8902 75.6597 77.6693 76.2202 77.4081C76.8733 77.1064 77.5074 76.7502 78.1225 76.3369C78.3244 76.1992 78.5239 76.0591 78.7163 75.9142C79.1129 75.6173 79.4858 75.3014 79.842 74.9689C81.5853 73.3444 82.8203 71.3399 83.5019 69.1763C83.8772 67.9888 84.0862 66.7514 84.1218 65.5069C83.4212 67.5566 82.2218 69.4518 80.5593 71.0003C80.203 71.3328 79.8302 71.6463 79.4335 71.9456C79.2412 72.0904 79.0417 72.2306 78.8398 72.3683C78.2247 72.7816 77.5905 73.1378 76.9374 73.4394C76.3745 73.7007 75.8022 73.9216 75.2203 74.1021C74.5197 74.3206 73.8048 74.4797 73.0899 74.5842C72.8287 74.6222 72.5674 74.6507 72.3038 74.6744C67.5087 75.0877 62.6352 73.0048 59.7329 68.8058C58.0395 66.3572 57.27 63.5547 57.3508 60.8044C56.0232 64.6923 56.4934 69.1241 59.018 72.7744Z" fill="#E8E8E8"/>
<path d="M70.3919 78.9923C65.7701 78.9923 61.4001 76.7432 58.7734 72.9432C56.6668 69.8984 55.8854 66.2267 56.5694 62.6024C57.2605 58.9497 59.3553 55.7885 62.4689 53.6962C63.6849 52.8815 65.0006 52.264 66.3853 51.8603C66.5325 51.8152 66.6916 51.7724 66.8674 51.7297C67.2949 51.6204 67.7319 51.5302 68.1641 51.4613C69.1593 51.3045 70.1781 51.2547 71.1923 51.314C72.1945 51.371 73.1944 51.5349 74.161 51.8009C74.4721 51.8864 74.7809 51.9814 75.0754 52.0859C75.5361 52.2474 75.985 52.4303 76.4101 52.6298C78.6521 53.6748 80.5806 55.304 81.9843 57.3347C84.4163 60.8497 85.0718 65.1959 83.7869 69.2643C83.0744 71.5182 81.78 73.5654 80.0463 75.1852C79.6781 75.5272 79.291 75.8525 78.8944 76.1494C78.7139 76.2872 78.5144 76.4273 78.2888 76.5817C77.6689 76.9973 77.0158 77.3654 76.3436 77.6765C75.7831 77.9378 75.1918 78.1658 74.5909 78.3534C73.8855 78.5719 73.154 78.7382 72.413 78.845C72.147 78.883 71.8763 78.9139 71.6103 78.9377C71.2065 78.9757 70.798 78.9923 70.3919 78.9923ZM70.3634 51.8864C69.658 51.8864 68.9526 51.941 68.2568 52.0503C67.8411 52.1144 67.4231 52.2023 67.0123 52.3068C66.846 52.3495 66.6964 52.3899 66.5539 52.4327C65.2263 52.8198 63.9628 53.4112 62.799 54.1925C59.8184 56.1947 57.8139 59.2228 57.1536 62.7164C56.4981 66.1815 57.2463 69.6942 59.2626 72.6059C61.9986 76.565 66.713 78.7643 71.5628 78.3463C71.8169 78.3249 72.0758 78.294 72.3323 78.2584C73.04 78.1563 73.7406 77.9972 74.4175 77.7882C74.9946 77.6077 75.5599 77.3915 76.0966 77.1398C76.7403 76.8429 77.3673 76.489 77.9586 76.0924C78.1748 75.9452 78.3648 75.8098 78.5405 75.6792C78.9205 75.3942 79.291 75.083 79.6449 74.7553C81.305 73.2068 82.5424 71.2498 83.224 69.0909C84.4543 65.2007 83.8249 61.0397 81.4998 57.679C80.1555 55.7339 78.3101 54.1759 76.1631 53.1737C75.757 52.9813 75.3248 52.8079 74.883 52.6512C74.6004 52.5514 74.3059 52.4612 74.0066 52.378C73.078 52.1215 72.1209 51.9648 71.1614 51.9102C70.893 51.8959 70.6294 51.8864 70.3634 51.8864Z" fill="#371A45"/>
<path d="M70.3919 79.0778C65.7416 79.0778 61.3455 76.8168 58.7021 72.9931C56.5836 69.9293 55.7951 66.2338 56.4862 62.5882C57.1821 58.9141 59.2887 55.7316 62.4214 53.625C63.6445 52.8056 64.9697 52.1833 66.3615 51.7772C66.5111 51.7321 66.6702 51.6893 66.846 51.6442C67.2759 51.535 67.7152 51.4447 68.1499 51.3758C69.1521 51.2191 70.1781 51.1692 71.1946 51.2286C72.204 51.2856 73.2086 51.4518 74.1824 51.7202C74.4959 51.8057 74.8046 51.9031 75.1039 52.0076C75.5694 52.1691 76.0206 52.3543 76.4481 52.5562C78.7044 53.6083 80.6424 55.2471 82.0579 57.292C84.5041 60.8283 85.1644 65.2031 83.8724 69.2976C83.1551 71.5657 81.8536 73.6272 80.108 75.2541C79.7375 75.5985 79.348 75.9238 78.949 76.2231C78.7661 76.3608 78.5666 76.5033 78.341 76.6577C77.7164 77.0781 77.0585 77.4462 76.384 77.7597C75.8187 78.0233 75.225 78.2513 74.6194 78.4413C73.9116 78.6622 73.173 78.8285 72.4296 78.9353C72.1612 78.9733 71.8905 79.0042 71.6221 79.028C71.2112 79.0612 70.8004 79.0778 70.3919 79.0778ZM70.3634 51.9743C69.6604 51.9743 68.9597 52.029 68.271 52.1358C67.8601 52.2 67.4421 52.2855 67.036 52.39C66.8697 52.4303 66.7225 52.4707 66.5824 52.5135C65.2619 52.8982 64.0079 53.4872 62.8512 54.2615C59.8896 56.2517 57.8994 59.2585 57.2415 62.7283C56.5907 66.1697 57.3341 69.661 59.3362 72.5537C62.0556 76.4867 66.7391 78.6717 71.558 78.2585C71.8097 78.2371 72.0686 78.2062 72.3227 78.1706C73.0257 78.0685 73.724 77.9117 74.3937 77.7027C74.9661 77.5246 75.529 77.3085 76.0634 77.0591C76.7022 76.7622 77.3245 76.4131 77.9135 76.0165C78.1272 75.8716 78.3172 75.7362 78.4906 75.6056C78.8682 75.3206 79.2387 75.0118 79.5879 74.6865C81.2361 73.1498 82.4664 71.2023 83.1432 69.0601C84.364 65.196 83.7394 61.0635 81.4285 57.7242C80.0914 55.791 78.2579 54.2425 76.1251 53.2473C75.7214 53.0573 75.2939 52.884 74.8545 52.7296C74.5742 52.6322 74.2797 52.5396 73.9829 52.4588C73.0614 52.2047 72.109 52.048 71.1542 51.9933C70.8906 51.9815 70.627 51.9743 70.3634 51.9743Z" fill="#371A45"/>
<path d="M82.0359 72.3351C75.2197 79.3129 63.6914 77.5221 61.2475 68.2383C59.5827 61.9208 64.5749 55.4394 70.833 54.2519C75.3883 53.3874 80.219 54.5084 83.5108 61.1085C83.5108 61.1085 84.5107 64.253 84.0547 66.5639C83.5987 68.8748 82.7603 71.0455 82.7603 71.0455L82.0359 72.3351Z" fill="#371A45"/>
<path d="M61.2484 68.2381C63.6947 77.522 75.2229 79.3128 82.0368 72.335L82.184 72.0738C73.7932 75.2943 64.1008 71.8458 61.4503 62.5049C60.8542 64.3241 60.7354 66.2883 61.2484 68.2381Z" fill="#220F2D"/>
<path d="M72.1967 78.3579C69.7932 78.3579 67.4515 77.7689 65.4351 76.6218C62.4568 74.9237 60.3953 72.1829 59.4762 68.694C58.6307 65.4878 59.2197 62.0512 61.134 59.0183C63.2596 55.6505 66.7793 53.2114 70.5508 52.4965C72.6456 52.0999 74.605 52.1094 76.3743 52.5274L76.4123 52.5369L76.448 52.5535C78.7042 53.6057 80.6446 55.2444 82.0577 57.2893C84.504 60.8257 85.1642 65.2004 83.8722 69.2949C83.155 71.563 81.8535 73.6245 80.1078 75.2514C79.7373 75.5958 79.3478 75.9212 78.9488 76.2204C78.766 76.3582 78.5665 76.5007 78.3408 76.655C77.7162 77.0754 77.0583 77.4435 76.3838 77.757L76.3268 77.7784C74.9612 78.1655 73.5695 78.3579 72.1967 78.3579ZM73.5101 52.9739C72.6076 52.9739 71.6671 53.0665 70.6933 53.2518C67.1285 53.9287 63.7963 56.2372 61.7847 59.4292C59.9845 62.2815 59.4287 65.502 60.2196 68.4993C61.0841 71.7839 63.0197 74.3632 65.8175 75.9544C68.7981 77.6525 72.5411 78.0492 76.0917 77.0469C76.7211 76.7548 77.3338 76.408 77.9133 76.0185C78.1271 75.8737 78.3171 75.7383 78.4905 75.6077C78.8681 75.3227 79.2386 75.0139 79.5877 74.6885C81.236 73.1519 82.4662 71.2044 83.1431 69.0622C84.3638 65.198 83.7392 61.0655 81.4283 57.7263C80.0983 55.8049 78.2791 54.2635 76.1606 53.266C75.3222 53.0713 74.4363 52.9739 73.5101 52.9739Z" fill="#371A45"/>
<path d="M72.2349 76.9712C71.1472 76.9712 70.0618 76.8358 69.0002 76.5555C64.9294 75.482 61.9678 72.4848 60.8753 68.3357C60.12 65.4714 60.6473 62.4029 62.3549 59.693C64.2525 56.6863 67.3947 54.5108 70.76 53.8719C76.5598 52.7699 80.9678 55.1473 83.8534 60.9328L83.8748 60.9874C83.9175 61.1204 84.8984 64.253 84.4282 66.6328C83.9698 68.9508 83.148 71.0907 83.1148 71.1785L83.091 71.2284L82.3429 72.5632L82.3073 72.5988C79.5547 75.425 75.8924 76.9712 72.2349 76.9712ZM73.3749 54.3849C72.584 54.3849 71.7623 54.4657 70.9049 54.6272C67.7438 55.228 64.7917 57.2753 63.0057 60.1039C61.412 62.6309 60.918 65.4857 61.6187 68.1409C62.6399 72.0145 65.402 74.8123 69.1973 75.8145C73.5507 76.964 78.3458 75.5414 81.7254 72.1048L82.4094 70.884C82.502 70.637 83.2597 68.6088 83.6777 66.4903C84.0862 64.4145 83.2478 61.5622 83.1528 61.2534C80.868 56.6863 77.5858 54.3849 73.3749 54.3849Z" fill="#371A45"/>
<path d="M55.1477 68.8158C55.5087 71.4639 57.3968 73.4755 59.368 73.3069C61.3393 73.1383 62.6432 70.8535 62.2822 68.203C62.2798 68.1864 62.2774 68.1698 62.275 68.1531C61.8974 65.5288 60.0188 63.5456 58.0618 63.7119C56.5394 63.8425 55.4137 65.2366 55.1477 67.0844C55.0717 67.6283 55.0669 68.2125 55.1477 68.8158Z" fill="white"/>
<path d="M55.1477 68.815C55.5087 71.4632 57.3968 73.4748 59.368 73.3062C61.3393 73.1375 62.6432 70.8528 62.2822 68.2023C62.2798 68.1857 62.2774 68.169 62.275 68.1524C62.0945 68.4422 61.7953 68.739 61.325 68.6892C60.5033 68.5989 58.836 67.0195 58.836 67.0195C58.836 67.0195 57.2353 67.0385 55.1477 67.086C55.0717 67.6275 55.0669 68.2118 55.1477 68.815Z" fill="#E8E8E8"/>
<path d="M59.141 73.7006C57.07 73.7006 55.1391 71.5987 54.7663 68.8675C54.543 67.2263 54.9088 65.6683 55.7709 64.5925C56.3718 63.842 57.1531 63.405 58.0295 63.329C60.1979 63.1413 62.276 65.305 62.6631 68.1502C62.8864 69.7913 62.5206 71.3493 61.6585 72.4252C61.0576 73.1757 60.2763 73.6127 59.3999 73.6887C59.3144 73.6958 59.2265 73.7006 59.141 73.7006ZM55.5263 68.763C55.8588 71.2092 57.5664 73.076 59.3334 72.924C59.996 72.867 60.5921 72.5297 61.0576 71.9455C61.7773 71.0453 62.0931 69.6655 61.9008 68.2547C61.5683 65.8085 59.8606 63.9441 58.0936 64.0937C57.431 64.1507 56.8349 64.488 56.3694 65.0698C55.6498 65.9723 55.3363 67.3522 55.5263 68.763Z" fill="#371A45"/>
<path d="M58.352 72.843C59.8131 72.5576 60.6581 70.5888 60.2395 68.4455C59.8208 66.3021 58.297 64.796 56.8359 65.0814C55.3749 65.3668 54.5298 67.3356 54.9485 69.479C55.3671 71.6223 56.891 73.1284 58.352 72.843Z" fill="white"/>
<path d="M58.1495 72.8717C56.6603 72.9881 55.2068 71.3327 54.9052 69.1738C54.872 68.9387 54.8553 68.7083 54.8506 68.4827C55.4467 69.9172 56.582 70.8791 57.741 70.7865C59.0496 70.682 59.9568 69.2688 59.9711 67.4805C60.1231 67.8747 60.2371 68.3022 60.2988 68.7511C60.6005 70.9123 59.6386 72.7553 58.1495 72.8717Z" fill="#E8E8E8"/>
<path d="M57.9944 73.2637C56.3509 73.2637 54.8452 71.537 54.5222 69.2285C54.3274 67.8344 54.6267 66.4854 55.3249 65.6162C55.7786 65.0509 56.3652 64.7232 57.0207 64.6733C58.7331 64.5379 60.341 66.3097 60.6758 68.7013C60.8706 70.0954 60.5713 71.4444 59.8731 72.3137C59.4194 72.8789 58.8328 73.2067 58.1773 73.2565C58.118 73.2589 58.0562 73.2637 57.9944 73.2637ZM55.2846 69.1217C55.5553 71.0478 56.8545 72.5915 58.118 72.4918C58.5573 72.4585 58.9563 72.2305 59.2746 71.8339C59.8422 71.1262 60.0821 69.9957 59.9158 68.8082C59.6451 66.882 58.3483 65.3383 57.0824 65.438C56.6431 65.4713 56.2441 65.6993 55.9258 66.0959C55.3558 66.8013 55.1183 67.9342 55.2846 69.1217Z" fill="#371A45"/>
<g opacity="0.7">
<path d="M68.0762 57.2015C68.0762 57.2015 74.2726 56.4249 78.3196 59.2583C78.3243 59.2606 78.3291 59.2654 78.3314 59.2678C79.1817 59.8639 79.8538 60.6785 80.2813 61.619C80.8466 62.8611 81.0532 63.7993 81.2004 64.6305C81.6493 67.1623 81.3809 68.4305 81.3809 68.4305C82.6041 66.8393 83.1574 65.1791 82.8036 63.0678C82.7679 62.8588 82.7228 62.6474 82.6705 62.4289C82.6587 62.379 82.6468 62.3291 82.6326 62.2793C82.6326 62.2793 82.6325 62.2769 82.6302 62.2769C82.4924 61.8446 82.2906 61.2818 82.0079 60.6643C81.1577 58.807 79.5854 56.4629 76.8993 55.7124C71.8786 54.3135 67.8173 56.9735 68.0762 57.2015Z" fill="white"/>
</g>
<g opacity="0.7">
<path d="M66.4422 64.4048C66.5561 63.2443 65.8293 62.2231 64.8189 62.124C63.8086 62.0249 62.8972 62.8852 62.7833 64.0457C62.6695 65.2062 63.3962 66.2273 64.4066 66.3265C65.4169 66.4256 66.3283 65.5652 66.4422 64.4048Z" fill="white"/>
</g>
<g opacity="0.7">
<path d="M65.0114 68.1888C65.1027 67.7161 64.8437 67.2687 64.4329 67.1893C64.0221 67.1099 63.6151 67.4287 63.5237 67.9013C63.4324 68.3739 63.6914 68.8214 64.1022 68.9008C64.513 68.9802 64.9201 68.6614 65.0114 68.1888Z" fill="white"/>
</g>
<path d="M68.3148 65.714L69.5902 64.5027L70.3169 64.7925L72.4022 64.2249L73.2762 65.429L72.8986 66.4312L74.3164 66.8706L72.0958 69.4712L70.7017 68.5877L69.4239 69.4712L67.7686 67.9821L68.3148 65.714Z" fill="#220F2D"/>
<g opacity="0.7">
<path d="M70.2506 66.6495L68.0585 68.5424L68.0443 68.1647L69.5358 69.2549L69.8089 69.4544C69.6474 69.5636 68.6309 70.2595 68.4456 70.3854C68.4171 70.4044 68.3768 70.3972 68.3578 70.3687C68.3411 70.345 68.3435 70.3117 68.3625 70.2904L69.2318 69.2691L69.2508 69.6444L67.7593 68.5542L67.5146 68.3761L67.745 68.1766L69.9371 66.2837C70.1794 66.0819 70.4881 66.4381 70.2506 66.6495Z" fill="white"/>
<path d="M70.5871 66.2908L70.9884 63.8493L71.0098 63.7139L71.1357 63.664L73.8598 62.5739L73.7102 62.8328C73.6936 62.7259 73.4893 61.3555 73.4822 61.2985L73.6437 61.232L76.7431 59.9543C76.7621 59.9471 76.7858 59.9566 76.7929 59.9756C76.8001 59.9946 76.793 60.0136 76.7763 60.0231L73.8551 61.6666L73.9881 61.4149C74.0047 61.5289 74.2066 62.8874 74.2161 62.9515L74.0379 63.0228L71.3138 64.1129L71.4634 63.9276L71.0621 66.3691C71.0051 66.6779 70.5419 66.6066 70.5871 66.2908Z" fill="white"/>
<path d="M71.1083 66.3881L73.4738 67.8368L73.241 67.8249L74.704 67.1124L74.8228 67.0531L74.913 67.1124L76.2929 67.9936C76.3428 68.0244 76.3048 68.1076 76.2478 68.0862L74.7016 67.5447H74.913L73.45 68.2572L73.3313 68.3142L73.2196 68.2453L70.8541 66.7966C70.5905 66.6279 70.8304 66.2289 71.1083 66.3881Z" fill="white"/>
</g>
<path d="M48.0944 78.7049C49.1418 79.9423 54.5164 80.0373 55.8108 79.3296C58.6204 79.8544 58.6537 77.9853 58.5919 77.5388C58.5896 77.5246 58.5872 77.5151 58.5848 77.5032C58.2523 75.6958 54.6138 75.1068 54.6138 75.1068C54.6138 75.1068 56.0246 72.3613 56.0364 69.8581V69.7844C56.0388 66.6376 55.2432 63.9491 53.8111 62.4481C51.9894 60.5409 49.9683 60.1799 49.9683 60.1799L44.9404 65.8491C51.0394 67.2907 46.4747 76.7931 48.0944 78.7049Z" fill="#62ED2E"/>
<path d="M48.0939 78.7049C49.1413 79.9423 54.5159 80.0373 55.8103 79.3296C58.6199 79.8544 58.6531 77.9853 58.5914 77.5388C58.3681 77.7359 57.9929 77.9378 57.3588 78.0779C56.1214 78.3534 55.6891 77.1564 55.2545 76.8287C55.2141 77.7763 54.3235 78.4033 52.547 78.3772C50.3644 78.3463 49.051 77.6267 48.8871 75.6151C48.7232 73.6011 49.336 72.2877 49.7279 71.1833C50.3193 69.5208 54.0314 68.7679 56.0335 69.7844C56.0359 66.6376 55.2403 63.9491 53.8081 62.4481C51.9865 60.5409 49.9654 60.1799 49.9654 60.1799L44.9375 65.8491C51.0389 67.2907 46.4741 76.7931 48.0939 78.7049Z" fill="#31C418"/>
<path d="M52.7609 80.1866C52.4451 80.1866 52.1339 80.1771 51.8347 80.1605C50.6377 80.094 48.5216 79.8517 47.7758 78.973C47.0894 78.1607 47.2842 76.5434 47.5336 74.4961C47.9563 71.031 48.4337 67.1004 44.8403 66.2549C44.6171 66.2026 44.4793 65.9794 44.5316 65.7561C44.5838 65.5329 44.8071 65.3951 45.0303 65.4474C49.3457 66.4662 48.7733 71.1664 48.3553 74.5982C48.1582 76.2227 47.9539 77.9042 48.4052 78.4386C49.2483 79.4337 54.3546 79.6522 55.6062 78.9682C55.6893 78.9231 55.7867 78.9065 55.8817 78.9231C56.8174 79.0989 57.5014 79.0015 57.8601 78.6429C58.2092 78.2937 58.2021 77.7451 58.1712 77.5812C57.9408 76.3367 55.4732 75.6717 54.5422 75.5197C54.4116 75.4984 54.2976 75.4152 54.2382 75.2965C54.1788 75.1777 54.1788 75.0376 54.2382 74.9212C54.2524 74.8951 55.6038 72.2304 55.6133 69.8577C55.6276 66.7512 54.8581 64.1577 53.5019 62.7375C51.8062 60.961 49.9038 60.5952 49.8848 60.5929C49.6592 60.5525 49.5096 60.3364 49.5499 60.1107C49.5903 59.8851 49.8064 59.7355 50.0297 59.7759C50.1176 59.7925 52.2076 60.182 54.1004 62.1651C55.6014 63.7397 56.4564 66.5446 56.4398 69.8625C56.4303 71.8219 55.6181 73.8857 55.2048 74.8072C56.3163 75.059 58.6794 75.7857 58.9811 77.4316C58.9882 77.4744 59.1687 78.5027 58.4396 79.2319C57.8909 79.7781 57.0241 79.9586 55.8603 79.7662C55.1882 80.0607 53.9508 80.1842 52.7609 80.1866Z" fill="#371A45"/>
<path d="M37.0818 63.4979C37.5663 64.8326 38.198 65.9323 39.015 66.6614C42.1928 67.2908 44.0999 66.9535 47.0734 66.5046L55.7398 64.9989C56.2171 63.3791 56.6803 62.0254 56.5306 60.5006C56.3264 58.4011 54.9631 55.9691 50.8853 52.0504C50.5955 51.7725 50.8449 51.3379 50.5266 51.0458C51.2011 50.9911 50.3366 49.7704 49.579 48.1269C49.0518 46.9798 48.5791 45.626 48.7145 44.315L38.4521 43.2439C38.4521 43.2439 36.9583 44.733 36.1436 46.9774C35.8586 47.7659 35.6544 48.6446 35.6306 49.5875C35.5166 53.9741 35.7019 59.6884 37.0818 63.4979Z" fill="#62ED2E"/>
<path d="M36.1475 46.9752C36.3921 47.2935 36.727 47.4882 37.1782 47.4929C40.8927 47.5286 40.8927 51.0958 45.1558 50.9343C47.6591 50.7633 48.8395 49.4642 49.5828 48.1247C49.0556 46.9776 48.583 45.6238 48.7183 44.3128L38.456 43.2417C38.4536 43.2417 36.9621 44.7308 36.1475 46.9752Z" fill="#31C418"/>
<path d="M43.0488 46.8469L48.0245 49.9676C48.7275 49.4522 49.2096 48.792 49.5801 48.1222C49.5397 48.0367 49.5017 47.9512 49.4637 47.8634C49.2262 47.6211 48.9911 47.3884 48.7583 47.1627C46.2242 44.707 43.0488 46.8469 43.0488 46.8469Z" fill="#31C418"/>
<path d="M37.0801 63.498C37.5646 64.8327 38.1963 65.9324 39.0133 66.6615C42.1911 67.2909 44.0982 66.9536 47.0717 66.5047L55.7381 64.999C56.2155 63.3792 56.6786 62.0255 56.5289 60.5007L51.6863 60.3036C51.6863 60.3036 50.4395 63.2866 48.0977 63.4861C44.9342 63.7545 43.1696 59.8809 41.0226 55.955C38.9753 52.212 38.1916 59.2325 38.1916 59.2325L37.0801 63.498Z" fill="#31C418"/>
<path d="M42.325 67.419C41.299 67.419 40.2113 67.3193 38.9335 67.0675C38.8599 67.0533 38.7934 67.02 38.7388 66.9702C35.523 64.1083 35.0504 55.9312 35.219 49.5733C35.3188 45.8279 38.0477 43.0634 38.1617 42.947C38.2495 42.8592 38.373 42.814 38.4965 42.8283L48.7589 43.8994C48.8682 43.9113 48.9679 43.9659 49.0392 44.0514C49.108 44.1369 49.1413 44.2462 49.1294 44.3554C48.9537 46.025 49.8633 47.8063 50.5259 49.1054C51.0508 50.1362 51.3405 50.7038 51.1007 51.1337C51.0935 51.1455 51.0864 51.1598 51.0769 51.174C51.1149 51.307 51.1244 51.4329 51.1339 51.5327C51.1434 51.6514 51.1505 51.725 51.1767 51.7512C58.1307 58.432 57.3493 61.054 56.2687 64.6806C56.2259 64.8231 56.1832 64.968 56.1404 65.1153C56.0763 65.3362 55.8459 65.4597 55.625 65.3955C55.4042 65.3314 55.2807 65.101 55.3448 64.8802C55.3875 64.7329 55.4327 64.5856 55.4754 64.4431C56.005 62.6619 56.4254 61.2583 55.9243 59.5103C55.3733 57.5842 53.6823 55.3089 50.6019 52.3497C50.3454 52.105 50.3217 51.7987 50.3074 51.5968C50.2955 51.4353 50.286 51.383 50.248 51.3474C50.1269 51.2358 50.0842 51.0624 50.1388 50.908C50.1744 50.8059 50.248 50.7228 50.3407 50.6753C50.2694 50.4188 50.0082 49.9082 49.792 49.483C49.1698 48.2647 48.253 46.4668 48.2839 44.6832L38.62 43.6762C38.0904 44.2652 36.1287 46.6354 36.0503 49.597C35.8223 58.2302 36.9433 64.1439 39.2114 66.2767C42.1232 66.8372 43.9353 66.5617 46.6594 66.1484L47.0157 66.0938C47.2413 66.0605 47.4527 66.2149 47.4883 66.4429C47.5215 66.6685 47.3672 66.8799 47.1392 66.9155L46.7829 66.9702C45.1608 67.2124 43.8047 67.419 42.325 67.419Z" fill="#371A45"/>
<path d="M36.9743 75.6032C36.6371 76.6007 36.9387 80.0207 38.5276 80.5978C39.3754 80.9042 41.0926 81.2105 42.4914 80.308C44.2798 80.8376 46.0421 80.6358 46.0872 79.4174C46.0991 79.0707 46.0231 78.712 45.8782 78.3961C45.8212 78.2726 45.7547 78.1586 45.6787 78.0518C44.8284 76.8666 44.4413 75.6055 44.4413 75.6055C45.8948 74.1497 46.5907 72.5988 46.8876 71.2165C47.0301 70.5539 47.0799 69.9317 47.0776 69.3735C49.9133 69.0482 52.5306 68.4995 54.3261 66.799L53.1552 66.4475L51.4476 65.9369L36.4922 61.4624C37.0076 64.12 38.2046 66.1792 38.6843 68.1053C38.7936 68.5447 38.8672 68.9769 38.8862 69.4068C39.0881 73.905 37.6488 73.6129 36.9743 75.6032Z" fill="#62ED2E"/>
<path d="M36.9738 75.6032C36.6365 76.6007 36.9381 80.0207 38.527 80.5978C39.3749 80.9042 41.092 81.2105 42.4909 80.308C44.2793 80.8376 46.0415 80.6358 46.0866 79.4174C46.0985 79.0707 46.0225 78.712 45.8776 78.3961C45.7541 78.731 45.4668 79.0493 44.8754 79.2345C43.6261 79.624 42.6286 78.3582 42.2795 77.9188C42.2795 77.9188 42.1204 79.909 40.0138 79.7736C37.6601 79.624 37.7076 77.002 37.9523 76.147C38.1969 75.2944 39.5008 73.6224 40.2156 72.67C40.8735 71.7913 44.2175 70.219 46.8846 71.2165C47.0271 70.5539 47.077 69.9317 47.0746 69.3735C49.9104 69.0482 52.5276 68.4995 54.3231 66.799L53.1523 66.4475C52.72 66.4665 52.1381 66.2813 51.4446 65.9369L36.4893 61.4624C37.0046 64.12 38.2016 66.1792 38.6814 68.1053C38.7906 68.5447 38.8643 68.9769 38.8833 69.4068C39.0875 73.905 37.6483 73.6129 36.9738 75.6032Z" fill="#31C418"/>
<path d="M40.3006 81.3224C39.6 81.3224 38.9302 81.1871 38.384 80.9876C36.4697 80.2941 36.2251 76.5178 36.5813 75.4704C36.8188 74.7698 37.1371 74.3352 37.4458 73.9124C38.0396 73.1002 38.6025 72.3331 38.4718 69.4237C38.4196 68.2694 37.9565 67.0914 37.4173 65.7282C36.9352 64.5051 36.389 63.1204 36.0826 61.5387C36.0398 61.3131 36.1871 61.0969 36.4103 61.0518C36.6336 61.0091 36.8521 61.1563 36.8972 61.3796C37.1893 62.8853 37.6976 64.1749 38.1892 65.4218C38.7307 66.7946 39.2413 68.0913 39.3007 69.3833C39.4456 72.5824 38.7687 73.5063 38.1156 74.3993C37.8306 74.7888 37.5622 75.1546 37.3675 75.7341C37.0468 76.6769 37.4078 79.7478 38.669 80.2062C39.0133 80.3297 40.7993 80.9044 42.2671 79.9592C42.3692 79.8927 42.4927 79.8761 42.6091 79.9093C43.7871 80.2584 44.9128 80.2513 45.4092 79.8927C45.5802 79.7692 45.6633 79.6124 45.6705 79.4011C45.6847 79.0139 45.5588 78.5983 45.338 78.2896C44.4568 77.0617 44.0578 75.7768 44.0412 75.7222C43.9961 75.5749 44.0365 75.4158 44.1433 75.3066C46.231 73.2142 46.6632 70.9223 46.6585 69.3691C46.6585 69.1577 46.8152 68.9796 47.0266 68.9558C49.632 68.6589 52.2825 68.1531 54.0352 66.4929C54.2015 66.3362 54.4651 66.3433 54.6218 66.5096C54.7786 66.6758 54.7715 66.9394 54.6052 67.0962C52.7598 68.8442 50.1117 69.4189 47.4802 69.7396C47.4185 71.3831 46.8912 73.6274 44.9105 75.7079C45.0601 76.1093 45.4187 76.9833 46.0101 77.8074C46.3402 78.2682 46.516 78.8596 46.497 79.4296C46.4803 79.8998 46.2713 80.2917 45.8913 80.5648C45.1931 81.0683 43.9533 81.1348 42.5497 80.7548C41.8443 81.1633 41.0558 81.3224 40.3006 81.3224Z" fill="#371A45"/>
<path d="M55.4827 79.0731C55.8841 78.3606 55.6015 77.6101 54.9674 77.1161C54.5304 76.8073 54.0007 76.6197 53.4854 76.4297C53.2597 76.3608 53.3072 76.0236 53.5424 76.0188C54.1812 76.0165 54.8177 76.1281 55.3925 76.444C56.0005 76.8073 56.4897 77.4462 56.5586 78.173C56.6037 78.6812 56.4517 79.1871 56.1359 79.5837C55.7891 80.0065 55.1574 79.5148 55.4827 79.0731Z" fill="#371A45"/>
<path d="M42.1659 80.0515C42.4224 79.5765 42.4271 78.997 42.1564 78.5244C42.04 78.313 41.9213 78.0779 41.8358 77.8547C41.717 77.5412 41.6244 77.2277 41.5935 76.8785C41.584 76.7622 41.6671 76.66 41.7835 76.6482C41.8714 76.641 41.9498 76.6885 41.9901 76.7598C42.249 77.1707 42.5103 77.591 42.7953 77.9853C43.2323 78.5482 43.3985 79.3533 43.1206 80.0349C43.0446 80.2297 42.9496 80.4007 42.8143 80.5622C42.4509 80.9612 41.8856 80.5052 42.1659 80.0515Z" fill="#371A45"/>
<path d="M51.5898 60.5291C52.0007 59.4247 53.1098 58.8167 54.067 59.1729C55.0241 59.5292 55.4682 60.7119 55.0597 61.8163C54.6488 62.9207 53.5397 63.5287 52.5826 63.1724" fill="#62ED2E"/>
<path d="M51.3973 60.4554C51.6681 59.3629 52.82 58.4842 53.9718 58.7407C55.2021 58.9996 55.8362 60.3604 55.5655 61.5171C55.3446 62.6262 54.3352 63.6189 53.1596 63.5406C52.934 63.5121 52.2642 63.4266 52.4138 63.0893C52.4566 63.0014 52.5516 62.9563 52.6418 62.9753C53.1406 63.0869 53.6607 62.9444 54.0455 62.6143C55.2021 61.7142 55.0572 59.4081 53.3401 59.4437C52.6656 59.4936 52.0861 59.9994 51.7797 60.6074C51.6657 60.8259 51.3308 60.6906 51.3973 60.4554Z" fill="#371A45"/>
<path d="M55.0623 61.8161C54.6514 62.9229 53.5423 63.5285 52.5852 63.1723C52.5852 63.1723 52.0175 62.9609 51.7088 62.1415C51.4 61.3221 51.5924 60.5265 51.5924 60.5265C51.7254 60.1679 51.932 59.8615 52.1838 59.624C51.6684 60.6239 51.837 61.7473 52.597 62.2056C53.3974 62.6901 54.5564 62.2413 55.1834 61.2034C55.1929 61.1891 55.2 61.1749 55.2072 61.1606C55.1882 61.3815 55.1407 61.6 55.0623 61.8161Z" fill="#2BC614"/>
<g opacity="0.7">
<path d="M55.0622 61.8163C54.9625 62.0847 54.82 62.3246 54.649 62.5288C54.9601 61.4719 54.516 60.3842 53.604 60.0469C52.9152 59.7928 52.1481 60.0327 51.6209 60.6003L51.5947 60.5291C52.0056 59.4247 53.1124 58.8167 54.0719 59.1729C55.0266 59.5268 55.4707 60.7119 55.0622 61.8163Z" fill="white"/>
</g>
<path d="M51.3973 60.4554C51.6681 59.3629 52.82 58.4842 53.9718 58.7407C55.2021 58.9996 55.8362 60.3604 55.5655 61.5171C55.3446 62.6262 54.3352 63.6189 53.1596 63.5406C52.934 63.5121 52.2642 63.4266 52.4138 63.0893C52.4566 63.0014 52.5516 62.9563 52.6418 62.9753C53.1406 63.0869 53.6607 62.9444 54.0455 62.6143C55.2021 61.7142 55.0572 59.4081 53.3401 59.4437C52.6656 59.4936 52.0861 59.9994 51.7797 60.6074C51.6657 60.8259 51.3308 60.6906 51.3973 60.4554Z" fill="#371A45"/>
<path d="M53.8487 61.8565C53.7845 61.8565 53.6967 61.5644 53.4045 61.201C52.9414 61.2818 52.6849 61.4457 52.6374 61.4029C52.5899 61.3602 52.7657 61.068 53.2122 60.9469C52.9604 60.5622 53.0198 60.2273 53.0815 60.2273C53.1457 60.2273 53.2335 60.5194 53.5257 60.8828C53.9888 60.802 54.2453 60.6382 54.2928 60.6809C54.3403 60.7237 54.1645 61.0182 53.718 61.1369C53.9698 61.5217 53.9104 61.8565 53.8487 61.8565Z" fill="#371A45"/>
<path d="M21.3631 71.6586C21.3631 71.6657 21.3655 71.6705 21.3679 71.6752C21.5152 72.2072 22.0614 72.516 22.5958 72.3759C38.2898 68.2172 54.4303 66.5904 70.6373 67.538C71.1859 67.5689 71.6609 67.1556 71.6989 66.607C71.6989 66.5999 71.6989 66.5951 71.6989 66.5904C71.7393 66.0346 71.3165 65.5525 70.7608 65.5192C67.3194 65.3174 63.8828 65.2319 60.4533 65.258C59.584 65.2651 58.7148 65.2794 57.8455 65.3007C45.7758 65.6 33.7986 67.3124 22.0685 70.4236C21.5318 70.5637 21.2135 71.1219 21.3631 71.6586Z" fill="#E5E5E5"/>
<path d="M21.6162 72.1074C21.8608 72.3592 22.2337 72.4732 22.5971 72.3782C38.2911 68.2196 54.4316 66.5927 70.6386 67.5403C71.0875 67.5641 71.4865 67.2957 71.6385 66.8943C71.4722 66.7233 71.2418 66.6093 70.983 66.5951C54.5575 65.6356 38.1961 67.2814 22.2907 71.4994C21.9677 71.5849 21.7255 71.8177 21.6162 72.1074Z" fill="#E5E5E5"/>
<path d="M21.6162 72.1074C21.8608 72.3592 22.2337 72.4732 22.5971 72.3782C38.2911 68.2196 54.4316 66.5927 70.6386 67.5403C71.0875 67.5641 71.4865 67.2957 71.6385 66.8943C71.4722 66.7233 71.2418 66.6093 70.983 66.5951C54.5575 65.6356 38.1961 67.2814 22.2907 71.4994C21.9677 71.5849 21.7255 71.8177 21.6162 72.1074Z" fill="#B2B2B2"/>
<path d="M22.3401 72.8248C21.7179 72.8248 21.1431 72.4115 20.9698 71.7869L20.965 71.7679C20.8629 71.3998 20.9128 71.015 21.1028 70.6825C21.2928 70.3524 21.5991 70.1173 21.9673 70.0199C37.9035 65.7948 54.329 64.1394 70.7901 65.1037C71.1701 65.125 71.5169 65.296 71.7686 65.581C72.0204 65.8684 72.1463 66.2365 72.1201 66.6165C72.1201 66.6189 72.1201 66.6332 72.1178 66.6355C72.0631 67.4074 71.3934 67.9988 70.6168 67.9513C54.4644 67.0084 38.3453 68.6305 22.7035 72.7773C22.5824 72.8105 22.4589 72.8248 22.3401 72.8248ZM22.4898 71.9769C38.2146 67.8088 54.424 66.1772 70.6619 67.1248C70.9873 67.1438 71.2651 66.8992 71.2865 66.5785L71.2889 66.5572C71.3008 66.4028 71.2485 66.2484 71.144 66.1297C71.0395 66.0109 70.897 65.942 70.7403 65.9325C54.367 64.9754 38.0294 66.6213 22.1786 70.8227C22.0266 70.863 21.9008 70.9604 21.8224 71.0958C21.744 71.2335 21.7226 71.395 21.7654 71.547L21.7701 71.5637C21.8556 71.8748 22.1786 72.06 22.4898 71.9769Z" fill="#371A45"/>
<path d="M49.9752 51.1884C51.6947 54.2331 58.1927 58.748 55.402 64.714C55.364 64.7947 55.3237 64.8779 55.2809 64.961C55.687 65.5405 55.9032 65.9181 55.9032 65.9181C55.9032 65.9181 56.1312 66.4169 55.9649 67.07C55.8818 67.3977 55.5493 67.2766 55.2215 67.8371C55.0505 68.8156 56.0219 69.369 56.7819 69.5946C58.6724 70.1551 60.4679 69.9366 61.4654 69.7419C62.6007 69.521 62.9522 68.4641 62.9878 67.4191C63.0163 66.6377 62.8667 65.8635 62.7384 65.4502C62.2064 63.7402 54.6254 52.8532 48.7544 47.1627C46.2203 44.707 43.0449 46.8469 43.0449 46.8469L49.9752 51.1884Z" fill="#62ED2E"/>
<path d="M56.7841 69.5945C58.6746 70.155 60.4701 69.9365 61.4676 69.7417C62.6029 69.5209 62.9544 68.464 62.99 67.419C62.591 67.9344 61.7764 68.483 60.1186 68.5637C57.1356 68.711 56.5252 68.312 56.587 67.7895C56.6345 67.3715 56.9789 65.5689 55.3995 64.7139C55.3615 64.7946 55.3211 64.8777 55.2784 64.9609C55.6845 65.5404 55.9006 65.918 55.9006 65.918C55.9006 65.918 56.1286 66.4167 55.9624 67.0699C55.8792 67.3976 55.5467 67.2765 55.219 67.837C55.0527 68.8155 56.0241 69.3689 56.7841 69.5945Z" fill="#31C418"/>
<path d="M43.0488 46.8469L48.0245 49.9676C48.7275 49.4522 49.2096 48.792 49.5801 48.1222C49.5397 48.0367 49.5017 47.9512 49.4637 47.8634C49.2262 47.6211 48.9911 47.3884 48.7583 47.1627C46.2242 44.707 43.0488 46.8469 43.0488 46.8469Z" fill="#31C418"/>
<path d="M42.8168 46.5048C44.6337 45.3576 47.0752 45.1368 48.7733 46.6188C52.4023 50.0886 55.5017 54.081 58.4871 58.0971C60.0189 60.2275 61.5556 62.3389 62.8357 64.645C63.2893 65.4501 63.4176 66.4429 63.4081 67.3644C63.4057 68.4783 62.9521 69.7869 61.7384 70.1004C61.4036 70.1859 61.0592 70.2334 60.7148 70.2785C59.1544 70.4709 56.6227 70.3878 55.3758 69.3048C54.9531 68.9509 54.6894 68.3049 54.8153 67.7515C54.9127 67.4119 55.2974 67.096 55.5753 66.9416C55.5848 66.9345 55.5682 66.9464 55.5634 66.9583C55.6228 66.716 55.6276 66.3503 55.5231 66.089L55.5421 66.1246C55.4684 66.0035 55.3354 65.785 55.2523 65.6615C55.1122 65.3931 54.7464 65.12 54.9008 64.7899C56.1026 62.403 55.7249 59.9378 54.3546 57.6934C53.7109 56.5961 52.9034 55.582 52.0698 54.5726C51.4499 53.8055 50.7517 53.074 50.2339 52.2214C50.0582 51.9316 49.8991 51.6253 49.7922 51.2928C49.7566 51.1811 49.8159 51.0624 49.9276 51.0268C50.0107 51.0006 50.0962 51.0268 50.1508 51.0861C50.5831 51.5659 51.0153 52.0361 51.4428 52.5278C54.6087 56.1116 58.2757 60.1278 55.6489 65.1509L55.6181 64.7258C55.8413 65.044 56.0622 65.3765 56.2617 65.7138C56.4612 66.1531 56.4802 66.659 56.3757 67.1269C56.3401 67.343 56.1809 67.5568 56.0004 67.6613C55.8199 67.7586 55.6798 67.8679 55.5801 68.0484L55.6299 67.9106C55.4494 69.3119 58.3754 69.5375 59.3658 69.5399C59.9904 69.5399 60.6174 69.4781 61.2326 69.3665C61.7622 69.3048 62.1802 69.0126 62.3773 68.4783C62.7359 67.5306 62.6077 65.9323 62.0994 65.0345C61.7052 64.2959 61.2397 63.5644 60.7742 62.8424C57.9171 58.527 54.7583 54.3826 51.3478 50.4948C50.4904 49.5281 49.6093 48.5829 48.6902 47.678C48.4147 47.4025 48.1012 47.108 47.7639 46.9109C46.4031 46.0488 44.5933 46.3741 43.2799 47.1935C42.8216 47.4975 42.3584 46.823 42.8168 46.5048Z" fill="#371A45"/>
<path d="M30.4943 44.9159C33.0735 46.3741 35.9971 47.3598 38.783 47.8158L43.3145 48.5283C49.5726 48.8655 53.4415 46.4264 55.6313 42.8829C58.1725 38.767 58.4456 33.1644 57.5526 28.7113C55.5434 18.6769 46.4519 11.1624 36.4175 13.1716C26.3831 15.1809 20.8874 25.619 22.899 35.651C23.697 39.6505 26.7299 42.7879 30.4943 44.9159Z" fill="#62ED2E"/>
<g opacity="0.5">
<path d="M22.8991 35.6533C22.9134 35.7269 22.93 35.7982 22.9442 35.8694C21.8731 25.9966 27.547 16.2543 37.408 14.2807C42.3361 13.2927 47.0457 14.4992 50.8766 17.1425C46.9769 13.7795 41.835 12.0885 36.42 13.1739C26.3809 15.1832 20.8875 25.6189 22.8991 35.6533Z" fill="white"/>
</g>
<path d="M30.4941 44.9161C33.0734 46.3743 35.997 47.3599 38.7829 47.8159L43.3144 48.5284C49.5725 48.8657 53.4414 46.4266 55.6311 42.8831C54.2228 44.1394 51.501 46.0133 47.2854 46.6641C42.4831 47.4074 35.5814 46.7472 30.4941 44.9161Z" fill="#31C418"/>
<path d="M38.7481 48.0222C37.6081 48.1315 36.5251 47.7705 35.4445 47.4736C34.371 47.1553 33.3188 46.773 32.2928 46.3193C28.2197 44.5048 24.3342 41.4577 22.8522 37.1067C20.2896 28.5116 24.0279 17.988 32.3712 14.0787C36.4491 12.1265 41.3107 11.8913 45.543 13.4897C54.1856 16.6627 59.1897 26.1698 58.3988 35.1212C58.1115 39.5743 56.3231 44.303 52.4328 46.8205C51.0031 47.7586 49.3762 48.3856 47.6971 48.673C47.1366 48.7561 46.569 48.7822 46.0037 48.7015C45.8874 48.6848 45.8066 48.578 45.8232 48.4616C45.8351 48.3785 45.8945 48.312 45.9705 48.2882C47.0131 47.9415 48.0652 47.8108 49.0984 47.4736C54.5846 45.7921 57.1591 40.4697 57.5106 35.0547C57.8146 30.756 56.9643 26.3337 54.8007 22.5836C51.6633 16.9667 45.4884 12.8983 38.9381 13.276C27.189 13.8293 20.5509 26.1318 23.6502 36.8336C25.0729 40.9518 28.8064 43.7543 32.6562 45.5071C33.6395 45.956 34.656 46.3383 35.6891 46.659C36.7341 47.0033 37.8005 47.1458 38.8146 47.609C39.0141 47.6945 38.9619 48.0056 38.7481 48.0222Z" fill="#371A45"/>
<path d="M55.6955 23.1704C56.845 24.2463 58.0634 27.386 56.7381 31.1623C55.4129 34.9385 51.9003 35.9242 50.613 34.6108C49.625 33.6014 48.5967 30.5994 49.9243 26.8232C51.2519 23.0469 54.5175 22.0684 55.6955 23.1704Z" fill="#371A45"/>
<g opacity="0.5">
<path d="M49.8174 33.1808C49.6108 31.8389 49.6915 30.1598 50.347 28.2931C51.6747 24.5144 54.9403 23.5359 56.1183 24.6379C56.5078 25.0013 56.9044 25.5998 57.206 26.3812C56.9567 24.8161 56.3154 23.6309 55.6932 23.0491C54.5152 21.9471 51.2472 22.9256 49.9219 26.7018C48.9719 29.4093 49.2308 31.7178 49.8174 33.1808Z" fill="white"/>
</g>
<g opacity="0.35">
<path d="M50.613 34.613C51.9003 35.9264 55.4105 34.9408 56.7381 31.1645C57.7095 28.4024 57.3176 25.9799 56.5885 24.4575C56.7025 25.6711 56.579 27.0748 56.0494 28.5805C54.7241 32.3568 51.2115 33.3448 49.9243 32.029C49.72 31.82 49.5134 31.5255 49.3281 31.1574C49.4706 32.808 50.0501 34.0359 50.613 34.613Z" fill="#111A28"/>
</g>
<path d="M33.6441 29.1361C32.8746 30.6917 33.0788 34.088 36.5202 36.6744C39.9639 39.2607 44.4859 38.2395 45.2911 36.4012C45.9086 34.9905 45.5571 31.8175 42.1157 29.2287C38.6719 26.6447 34.4326 27.5425 33.6441 29.1361Z" fill="#371A45"/>
<g opacity="0.5">
<path d="M33.6057 32.7275C33.5534 31.8796 33.7031 31.141 33.9643 30.6114C34.7528 29.0177 38.9922 28.12 42.4359 30.7064C44.1436 31.9889 45.0912 33.4162 45.5353 34.7011C45.4593 33.1099 44.5758 30.9605 42.1153 29.1104C38.6716 26.524 34.4322 27.4217 33.6437 29.0154C33.2281 29.8561 33.0951 31.2312 33.6057 32.7275Z" fill="white"/>
</g>
<g opacity="0.35">
<path d="M36.5204 36.6748C39.9617 39.2612 44.4837 38.2399 45.2912 36.4017C45.6427 35.5966 45.6807 34.2143 45.0062 32.6967C44.9801 33.1194 44.8946 33.4876 44.7664 33.7773C43.9612 35.6156 39.4392 36.6368 35.9955 34.0504C34.6227 33.0173 33.7654 31.8583 33.2785 30.7373C33.2191 32.4616 34.0052 34.7843 36.5204 36.6748Z" fill="#111A28"/>
</g>
<path d="M52.0976 35.58C51.378 35.58 50.7533 35.3472 50.3163 34.9031C49.2713 33.8367 48.1337 30.6637 49.5326 26.688C50.4517 24.0683 52.2591 22.774 53.6413 22.4343C54.5866 22.204 55.4368 22.3607 55.9807 22.869C57.1777 23.9876 58.5481 27.2675 57.1302 31.3026C56.2182 33.9008 54.3538 35.1691 52.9146 35.4897C52.632 35.5491 52.3588 35.58 52.0976 35.58ZM54.4607 23.1587C54.266 23.1587 54.0546 23.1848 53.8385 23.2371C52.6652 23.5245 51.1262 24.6526 50.3163 26.9587C49.0433 30.5806 50.0052 33.395 50.9101 34.3188C51.2925 34.7107 51.9765 34.8437 52.7365 34.6727C53.9572 34.402 55.5485 33.3 56.3488 31.0223C57.5672 27.5548 56.5365 24.5196 55.4155 23.4698C55.1922 23.268 54.8573 23.1587 54.4607 23.1587Z" fill="#371A45"/>
<path d="M41.1886 38.6412C39.6568 38.6412 37.8708 38.209 36.27 37.0048C32.5626 34.219 32.4629 30.5852 33.2704 28.9512C33.6266 28.2292 34.5125 27.6521 35.7 27.3695C37.9016 26.8446 40.393 27.417 42.3619 28.8966C46.017 31.6421 46.3305 35.0573 45.6703 36.5655C45.3069 37.3967 44.3521 38.0688 43.0506 38.4108C42.5068 38.5557 41.8726 38.6412 41.1886 38.6412ZM37.3174 28.0202C36.7925 28.0202 36.3104 28.0796 35.89 28.1793C34.9709 28.3978 34.2536 28.8348 34.0138 29.3193C33.2728 30.8203 33.6361 33.991 36.7688 36.3422C38.8493 37.905 41.2694 38.0213 42.8393 37.6105C43.8795 37.3373 44.6538 36.8243 44.9103 36.2353C45.4684 34.96 45.1359 32.0197 41.8655 29.5616C40.3503 28.424 38.6925 28.0202 37.3174 28.0202Z" fill="#371A45"/>
<path d="M49.0624 36.3088C48.9841 36.5795 49.0458 36.836 49.1954 36.8788C49.3451 36.9215 49.5303 36.7363 49.6087 36.4655C49.6871 36.1948 49.6253 35.9383 49.4757 35.8955C49.3261 35.8528 49.1408 36.038 49.0624 36.3088Z" fill="#371A45"/>
<path d="M48.7641 36.9847C48.8771 36.8752 48.8096 36.6222 48.6133 36.4198C48.417 36.2173 48.1662 36.142 48.0532 36.2516C47.9402 36.3611 48.0078 36.6141 48.2041 36.8165C48.4004 37.019 48.6511 37.0943 48.7641 36.9847Z" fill="#371A45"/>
<path d="M47.464 39.4082C47.7656 38.6529 48.547 38.1447 49.345 38.0711C50.1311 38.0212 50.9386 38.2231 51.5276 38.7503C51.777 38.9997 51.4754 39.4058 51.1666 39.2467C50.409 38.8857 49.4044 38.7052 48.6396 39.1422C48.3926 39.2823 48.1765 39.4771 48.0055 39.7098C47.787 40.0019 47.3286 39.7431 47.464 39.4082Z" fill="#371A45"/>
<path d="M47.9079 40.5481C47.9079 40.5481 48.6014 38.7787 46.4307 38.5579L47.9079 40.5481Z" fill="#62ED2E"/>
<path d="M47.7154 40.4723C47.7082 39.3821 47.3164 39.1921 46.402 38.7599C46.2951 38.7053 46.2524 38.5723 46.307 38.4654C46.3379 38.406 46.3925 38.368 46.4519 38.3538C46.8627 38.254 47.333 38.3229 47.7082 38.5533C48.2759 38.8881 48.511 39.6363 48.2972 40.2324C48.226 40.4248 48.0859 40.8428 47.808 40.6741C47.7367 40.6266 47.7154 40.5483 47.7154 40.4723Z" fill="#371A45"/>
<path d="M22.5924 36.1239C22.647 36.2949 22.7349 36.4541 22.8299 36.5966C23.0484 36.9243 23.3096 37.1476 23.3096 37.1476C34.6431 18.1951 51.6125 17.8151 51.6125 17.8151C51.6125 17.8151 51.7336 17.3519 51.4819 16.9696C51.3869 16.8223 51.2396 16.6893 51.0116 16.5943C50.6791 16.4589 50.4582 16.1763 50.1519 15.8771C49.6911 15.4282 49.038 14.9366 47.5346 14.8463C47.5346 14.8463 31.6554 13.7586 22.4855 32.4308C22.4855 32.4308 22.305 33.3998 22.4855 34.1194C22.4855 34.1194 22.4855 34.1194 22.4855 34.1218C22.6707 34.8628 22.2765 35.1549 22.5924 36.1239Z" fill="#12A5FF"/>
<path d="M22.5922 36.1237C22.6469 36.2947 22.7347 36.4538 22.8297 36.5963C24.5611 32.2477 26.454 30.4498 28.9454 27.6022C37.1819 18.1972 47.5915 17.1071 51.4841 16.9693C51.3891 16.8221 51.2419 16.6891 51.0139 16.5941C50.6814 16.4587 50.4605 16.1761 50.1541 15.8768C48.2802 15.6773 44.6465 15.7224 39.2932 17.6462C31.7669 20.3513 25.1929 28.4619 22.4877 34.1216C22.6706 34.8626 22.2764 35.1547 22.5922 36.1237Z" fill="white"/>
<path d="M23.4143 37.7837L23.0414 37.4607C22.9773 37.4061 22.4121 36.905 22.1983 36.2519C21.9941 35.6225 22.0487 35.214 22.0914 34.8839C22.1223 34.6535 22.1461 34.4706 22.0843 34.2165C21.8848 33.4161 22.0701 32.3949 22.0796 32.3497L22.0891 32.2927L22.1152 32.2405C24.2289 27.9346 26.8794 24.3199 29.9907 21.4936C32.4844 19.2279 35.2798 17.4632 38.2961 16.2472C43.4427 14.1739 47.3994 14.4161 47.5657 14.428C49.4372 14.5396 50.1307 15.2497 50.6366 15.7675C50.8337 15.9694 50.9904 16.1309 51.1733 16.2045C52.0948 16.5821 52.1281 17.4894 52.0164 17.9145L51.9381 18.2185L51.6246 18.2256C51.5818 18.2256 47.3686 18.3515 41.8419 20.7669C36.7452 22.9922 29.4563 27.6781 23.6684 37.3562L23.4143 37.7837ZM22.8847 32.5564C22.8538 32.7559 22.7541 33.4826 22.8894 34.017C22.9916 34.4231 22.9512 34.7271 22.9156 34.9955C22.8752 35.29 22.8419 35.5465 22.9892 35.9954C23.0414 36.1569 23.1412 36.3207 23.2457 36.4585C25.7964 32.2999 28.8222 28.7207 32.2493 25.8137C35.0969 23.3984 38.2272 21.439 41.5498 19.9926C46.3164 17.9169 50.0547 17.5012 51.2279 17.4181C51.2018 17.259 51.1116 17.0785 50.8598 16.974C50.5202 16.8339 50.2779 16.5869 50.0452 16.3494C49.5868 15.8815 49.0691 15.3495 47.5134 15.2569C47.4707 15.2545 43.5424 15.0194 38.5668 17.0334C33.9854 18.8906 27.5516 23.0872 22.8847 32.5564Z" fill="#371A45"/>
<path d="M40.0994 22.6145L37.9406 24.3673C37.5368 23.5265 37.1402 22.8497 36.7554 22.3177C35.2141 20.173 33.8627 20.2894 32.9008 20.9568C31.5898 21.8688 31.7798 24.3459 31.7798 24.3459C33.1763 25.4693 31.8629 26.9703 30.6327 26.9062C29.5687 26.8515 28.8324 25.3054 30.0247 24.2533C29.9629 23.7593 29.6186 19.4392 32.4258 18.444C35.1951 17.4655 37.4181 19.1589 38.7457 20.6718C39.5983 21.6455 40.0804 22.5433 40.0994 22.6145Z" fill="#62ED2E"/>
<g opacity="0.5">
<path d="M39.6471 21.8525C39.5973 21.7931 39.5426 21.7313 39.4904 21.672C38.0868 20.0712 35.7545 18.3422 32.8119 19.3183C30.3775 20.1235 30.7219 24.0778 30.786 24.6003C30.0046 25.1775 29.7695 26.0491 29.684 26.3602C29.285 25.8045 29.2589 24.9281 30.0213 24.256C29.9595 23.762 29.6151 19.4418 32.4224 18.4467C35.1916 17.4682 37.4146 19.1616 38.7423 20.6745C39.1199 21.102 39.4239 21.5152 39.6471 21.8525Z" fill="white"/>
</g>
<path d="M40.0989 22.6142C40.0989 22.6142 40.0585 23.379 39.3104 23.9133C38.5623 24.4477 37.94 24.367 37.94 24.367C37.5363 23.5262 37.1396 22.8493 36.7549 22.3173C37.636 22.3696 38.9114 22.2033 38.7451 20.6738C39.5978 21.6452 40.0799 22.543 40.0989 22.6142Z" fill="#31C418"/>
<path d="M39.8998 22.6692C38.3346 20.097 35.2186 17.3658 32.0646 19.0877C30.7465 19.9569 30.4568 21.75 30.4069 23.2415C30.3998 23.555 30.4069 23.8947 30.433 24.201C30.4496 24.3435 30.395 24.4765 30.2953 24.5644C30.11 24.7307 29.9651 24.923 29.8891 25.132C29.6493 25.7282 30.0815 26.5499 30.7703 26.4905C31.3901 26.4597 32.1335 25.854 31.9221 25.1985C31.8533 24.9895 31.6918 24.8162 31.516 24.6689C31.4234 24.5929 31.3711 24.486 31.3616 24.3768C31.2999 23.3983 31.3973 22.434 31.8533 21.5387C32.3306 20.5982 33.4469 19.9854 34.5014 20.1754C36.3491 20.5435 37.4321 22.7285 38.1233 24.277C38.223 24.5193 37.8763 24.6879 37.7504 24.4575C37.3276 23.6833 36.8716 22.9257 36.3254 22.2607C35.8195 21.6598 35.164 21.0304 34.3874 20.9259C33.663 20.8428 32.9315 21.2845 32.6133 21.9377C32.276 22.6193 32.1739 23.5075 32.1881 24.315L32.0338 24.0229C32.1715 24.1369 32.3045 24.2628 32.4233 24.4124C33.4113 25.6617 32.2356 27.2434 30.8178 27.3194C30.0103 27.3954 29.2455 26.7613 29.0603 25.9942C28.8394 25.2508 29.179 24.4195 29.7466 23.9422L29.6089 24.3055C29.5186 23.5883 29.5281 22.8877 29.5994 22.1728C29.7538 20.743 30.3 19.1494 31.611 18.3633C32.8935 17.6199 34.5441 17.5819 35.8979 18.1305C37.2208 18.653 38.3085 19.6529 39.173 20.7525C39.5815 21.2893 39.9615 21.8522 40.256 22.4602C40.2655 22.4887 40.2869 22.5219 40.294 22.5552C40.3676 22.8212 39.9805 22.9304 39.8998 22.6692Z" fill="#371A45"/>
<path d="M63.2264 15.9668C62.5733 16.8812 61.229 16.3112 60.9369 15.2424C60.6139 14.9456 54.2798 11.3379 52.4961 17.4156C52.2895 18.1209 52.1423 18.9593 52.0758 19.9497L49.5369 19.8404C49.5108 19.7668 49.6153 18.6102 50.1093 17.1899C50.7054 15.4752 51.8668 13.3804 54.0423 12.3449C57.3815 10.7584 61.5615 13.6678 61.9415 13.9006C62.977 13.8626 64.0458 14.8197 63.2264 15.9668Z" fill="#62ED2E"/>
<path d="M63.2264 15.9668C62.5733 16.8812 61.229 16.3112 60.9369 15.2424C60.6139 14.9456 54.2798 11.3379 52.4961 17.4156C52.2895 18.1209 52.1423 18.9593 52.0758 19.9497L49.5369 19.8404C49.5108 19.7668 49.6153 18.6102 50.1093 17.1899C50.7054 15.4752 51.8668 13.3804 54.0423 12.3449C57.3815 10.7584 61.5615 13.6678 61.9415 13.9006C62.977 13.8626 64.0458 14.8197 63.2264 15.9668Z" fill="#62ED2E"/>
<g opacity="0.5">
<path d="M63.5156 15.1949C63.2068 14.9883 62.2568 14.4539 61.7367 14.7722C61.3282 14.5228 57.5163 11.5042 53.9134 13.2142C51.8282 14.2046 50.6051 16.1046 49.9092 17.8146C49.9686 17.6127 50.0327 17.4061 50.1087 17.1899C50.7048 15.4752 51.8662 13.3804 54.0417 12.3449C57.3809 10.7584 61.5609 13.6678 61.9409 13.9006C62.7318 13.8721 63.5417 14.4231 63.5156 15.1949Z" fill="white"/>
</g>
<path d="M52.4961 17.4158C52.2895 18.1212 52.1423 18.9596 52.0758 19.9499C52.0758 19.9499 51.4488 20.4677 50.6484 20.4226C49.848 20.3774 49.5369 19.8407 49.5369 19.8407C49.5108 19.7671 49.6153 18.6104 50.1093 17.1902C50.3586 18.1853 51.0901 18.8503 52.4961 17.4158Z" fill="#31C418"/>
<path d="M49.3422 19.9142C49.3161 19.8144 49.3256 19.8334 49.3232 19.7693C49.3232 19.7289 49.328 19.5912 49.3304 19.5461C49.5322 17.3991 50.297 15.2592 51.7244 13.6133C54.7121 10.1933 58.8232 11.3191 62.1554 13.5492L61.925 13.4874C62.5734 13.4732 63.2051 13.7249 63.616 14.2474C64.2952 15.0787 63.7846 16.4728 62.7919 16.7768C61.7872 17.0666 60.7921 16.2899 60.5404 15.3518L60.6615 15.5489C60.6615 15.5513 60.6639 15.5513 60.6662 15.5537L60.6567 15.5466L60.6282 15.5276C60.5855 15.5014 60.4406 15.4183 60.3931 15.3922C58.7662 14.5609 56.6905 13.8841 54.9354 14.6797C53.0164 15.6463 52.52 17.9857 52.2849 19.9664C52.273 20.0804 52.1709 20.1636 52.0569 20.1493C51.9476 20.1374 51.8692 20.0424 51.8716 19.9356C51.9096 18.8407 52.0474 17.7292 52.4345 16.6604C53.603 13.3568 56.7 12.8984 59.6592 14.0978C60.177 14.3092 60.6876 14.5491 61.1484 14.8721L61.1792 14.8958L61.222 14.9314C61.2837 14.9861 61.3241 15.0526 61.3431 15.1286C61.4405 15.4919 61.7302 15.8173 62.0722 15.9456C62.6209 16.1831 63.0602 15.6914 63.1054 15.1856C63.1196 14.6274 62.4879 14.2926 61.9582 14.3092C61.7991 14.3306 61.6162 14.1714 61.488 14.1002L61.26 13.9624C59.3576 12.8604 57.0562 11.8986 54.8475 12.4876C53.1874 12.9911 51.8977 14.3187 51.0736 15.8197C50.4086 17.0357 49.9336 18.3918 49.746 19.7693L49.7436 19.7931C49.7412 19.7954 49.7484 19.8097 49.7317 19.7598C49.8244 20.0211 49.4444 20.1683 49.3422 19.9142Z" fill="#371A45"/>
<path d="M37.518 67.4573C37.708 68.0772 37.9075 69.1982 37.214 69.4927C37.1427 70.7016 38.1545 71.0198 39.228 71.046C39.779 71.0578 42.9282 70.8916 43.7143 69.6518C44.2725 68.7707 44.4767 68.1817 44.4838 67.3576C44.4886 67.037 44.4601 66.6783 44.4126 66.2556C44.0825 63.2892 40.2801 54.1075 40.2801 54.1075L39.7125 48.0726C35.5016 46.4433 33.9697 47.9657 33.9697 51.3073C33.9697 56.8672 35.9576 62.9995 36.9693 65.8922C37.2448 66.6807 37.4467 67.227 37.518 67.4573Z" fill="#62ED2E"/>
<path d="M37.2134 69.4899C37.1421 70.6988 38.1539 71.017 39.2274 71.0432C39.7784 71.055 42.9276 70.8888 43.7137 69.649C44.2719 68.7679 44.4761 68.1789 44.4832 67.3548C44.1033 67.9485 43.3005 68.7513 41.657 69.0814C40.764 69.2595 40.08 69.345 39.5623 69.383C38.9186 69.4281 38.3605 68.9508 38.3011 68.3072C38.2489 67.7585 37.99 67.0057 37.2134 66.0818C37.1326 65.9844 37.0495 65.9227 36.9688 65.8894C37.2442 66.6803 37.4485 67.2265 37.5174 67.4569C37.7074 68.0744 37.9069 69.1954 37.2134 69.4899Z" fill="#31C418"/>
<path d="M39.6386 48.2645C38.292 47.989 36.2566 47.3311 35.1831 48.445C34.2308 49.5399 34.4303 51.2475 34.4588 52.6202C34.6891 56.1376 35.4681 59.598 36.4918 62.9634C36.8219 64.0464 37.1686 65.1222 37.5439 66.1934C37.7743 66.8679 38.0996 67.6469 38.121 68.3689C38.1638 68.9341 37.9666 69.6347 37.3753 69.8722L37.627 69.516C37.6175 69.7179 37.6436 69.9007 37.7125 70.0432C38.1994 70.884 39.9213 70.6061 40.7739 70.504C41.6526 70.352 43.0016 70.1145 43.4505 69.2856C43.631 68.9911 43.802 68.6729 43.9089 68.3522C44.1963 67.4901 44.0443 66.476 43.8756 65.583C43.441 63.6569 42.7261 61.7569 42.054 59.8901C41.4674 58.2086 40.458 55.9144 40.0875 54.1854C40.0376 53.9645 40.3488 53.8315 40.4699 54.0286C41.028 54.8907 41.4223 55.8217 41.7951 56.7599C42.1751 57.6956 42.5385 58.6385 42.8829 59.5885C43.6381 61.7497 44.4551 63.9181 44.8233 66.1957C44.9705 67.2859 44.9396 68.3997 44.3601 69.3735C44.22 69.6181 44.0894 69.8675 43.9065 70.0836C43.6951 70.3282 43.4481 70.4992 43.1988 70.637C42.4839 71.0241 41.6811 71.2022 40.8974 71.3257C40.1136 71.4326 39.3038 71.5276 38.5081 71.3946C37.9144 71.2972 37.2541 71.0122 36.9668 70.4114C36.8148 70.1002 36.7815 69.7654 36.7958 69.4685C36.8029 69.3236 36.886 69.2001 37.0071 69.1336C37.076 69.0956 37.1354 69.0647 37.1758 68.9935C37.4845 68.2834 36.9335 67.1956 36.7055 66.4926C35.1546 62.1796 33.8959 57.6956 33.5824 53.1047L33.5515 52.6725L33.542 52.2379C33.4636 50.4875 33.5373 48.1267 35.3898 47.2812C36.2638 46.8894 37.2898 46.9701 38.159 47.2147C38.7338 47.3739 39.2776 47.5971 39.7859 47.8821C39.888 47.9391 39.9236 48.065 39.8666 48.1671C39.8215 48.2455 39.7265 48.2859 39.6386 48.2645Z" fill="#371A45"/>
<path d="M39.2462 71.9868C38.5622 74.1504 37.3296 76.1525 35.5863 77.7794C35.2301 78.1095 34.8548 78.4254 34.4606 78.7223C34.2682 78.8672 34.0687 79.0073 33.8668 79.145C33.2517 79.5583 32.6176 79.9145 31.9644 80.2162C31.4039 80.4774 30.8292 80.6983 30.2473 80.8788C29.5467 81.0973 28.8318 81.2564 28.1169 81.3609C27.8557 81.3989 27.5944 81.4274 27.3308 81.4512C22.5357 81.8644 17.6622 79.7815 14.7599 75.5825C10.4826 69.398 12.1023 60.9692 18.3771 56.7535C19.5859 55.9413 20.8803 55.3452 22.2127 54.9557C22.3671 54.9082 22.5262 54.8654 22.6829 54.8274C23.1033 54.7205 23.5284 54.6327 23.9536 54.5662C24.9392 54.4118 25.9319 54.3643 26.9176 54.4237C27.9008 54.4807 28.8769 54.6398 29.8246 54.901C30.1262 54.9842 30.4254 55.0768 30.7199 55.1789C31.1641 55.3333 31.5987 55.5114 32.0262 55.7109C34.1589 56.706 36.0589 58.2569 37.4816 60.316C39.9421 63.8714 40.4503 68.1725 39.2462 71.9868Z" fill="white"/>
<path d="M26.1314 81.5414C21.5951 81.5414 17.3035 79.3351 14.7266 75.6039C12.6604 72.6162 11.8932 69.0133 12.5654 65.4603C13.2422 61.8764 15.299 58.7747 18.3556 56.7203C19.5479 55.9199 20.8422 55.3143 22.2007 54.9177C22.348 54.8726 22.5024 54.8322 22.6734 54.7894C23.0937 54.6826 23.5236 54.5923 23.9487 54.5258C24.9272 54.3714 25.9271 54.3239 26.9199 54.3809C27.9055 54.4379 28.8864 54.5994 29.8364 54.8607C30.1427 54.9438 30.4444 55.0388 30.7341 55.1409C31.1877 55.3001 31.6271 55.4782 32.0451 55.6753C34.2467 56.7013 36.1372 58.2997 37.5171 60.2947C39.9016 63.7432 40.5476 68.0087 39.2865 71.9987C38.5882 74.2122 37.3176 76.2191 35.6147 77.8079C35.2537 78.1428 34.8737 78.4611 34.4842 78.7532C34.3061 78.8886 34.1114 79.0263 33.8881 79.1783C33.2801 79.5868 32.6389 79.9478 31.981 80.2518C31.43 80.5083 30.8505 80.7316 30.2591 80.9168C29.568 81.1329 28.8484 81.2944 28.1216 81.3989C27.8604 81.4369 27.5944 81.4654 27.3331 81.4892C26.9294 81.5248 26.5304 81.5414 26.1314 81.5414ZM26.1029 54.4356C25.3832 54.4356 24.6636 54.4902 23.9559 54.6018C23.5331 54.6683 23.1056 54.7562 22.6876 54.8631C22.519 54.9058 22.3646 54.9462 22.2197 54.9913C20.8684 55.3856 19.5811 55.9888 18.396 56.7844C15.3584 58.8269 13.3135 61.9121 12.639 65.4746C11.9716 69.0086 12.734 72.5901 14.7884 75.5612C17.579 79.5963 22.3836 81.8383 27.3236 81.4132C27.5825 81.3894 27.8461 81.3609 28.1074 81.3229C28.8294 81.2184 29.5442 81.0569 30.233 80.8432C30.822 80.6603 31.3967 80.4371 31.9454 80.1829C32.6009 79.8789 33.2397 79.5203 33.843 79.1142C34.0639 78.9646 34.2586 78.8244 34.4367 78.6914C34.8239 78.4017 35.2015 78.0834 35.5601 77.7509C37.2535 76.1716 38.5146 74.1766 39.2105 71.9749C40.4645 68.0063 39.8232 63.7646 37.4506 60.3374C36.0802 58.3543 34.1969 56.7654 32.0095 55.7442C31.5939 55.5494 31.1569 55.3713 30.7056 55.2122C30.4159 55.1101 30.1166 55.0174 29.8126 54.9343C28.8674 54.6754 27.8936 54.5139 26.9127 54.4569C26.642 54.4427 26.3736 54.4356 26.1029 54.4356Z" fill="#371A45"/>
<path d="M14.7583 75.5818C17.6605 79.7808 22.534 81.8637 27.3291 81.4504C27.5904 81.4267 27.8516 81.3982 28.1129 81.3602C28.8301 81.2557 29.5426 81.0966 30.2433 80.8781C30.8251 80.6976 31.3999 80.4767 31.9604 80.2154C32.6135 79.9138 33.2476 79.5576 33.8628 79.1443C34.0646 79.0066 34.2641 78.8664 34.4565 78.7216C34.8531 78.4247 35.226 78.1088 35.5823 77.7763C37.3255 76.1518 38.5605 74.1473 39.2421 71.9837C39.6174 70.7962 39.8264 69.5588 39.862 68.3143C39.1614 70.3639 37.962 72.2592 36.2995 73.8077C35.9433 74.1402 35.5704 74.4537 35.1738 74.7529C34.9814 74.8978 34.7819 75.0379 34.58 75.1757C33.9649 75.5889 33.3308 75.9452 32.6776 76.2468C32.1148 76.5081 31.5424 76.7289 30.9605 76.9094C30.2599 77.1279 29.545 77.2871 28.8301 77.3916C28.5689 77.4296 28.3076 77.4581 28.044 77.4818C23.2489 77.8951 18.3754 75.8122 15.4731 71.6132C13.7798 69.1646 13.0103 66.3621 13.091 63.6118C11.7634 67.4997 12.2336 71.9314 14.7583 75.5818Z" fill="#E8E8E8"/>
<path d="M26.1321 81.7997C21.5104 81.7997 17.1404 79.5505 14.5136 75.7505C12.407 72.7058 11.6256 69.034 12.3096 65.4098C13.0008 61.757 15.0955 58.5959 18.2091 56.5035C19.4251 55.6889 20.7409 55.0714 22.1255 54.6677C22.2751 54.6225 22.4319 54.5798 22.6076 54.537C23.0351 54.4278 23.4721 54.3375 23.9044 54.2687C24.8995 54.1119 25.9184 54.062 26.9325 54.1214C27.9348 54.1784 28.9346 54.3423 29.9013 54.6083C30.2124 54.6938 30.5211 54.7888 30.8156 54.8933C31.2764 55.0548 31.7253 55.2377 32.1504 55.4372C34.3924 56.4822 36.3209 58.1114 37.7245 60.142C40.1565 63.657 40.812 68.0033 39.5271 72.0717C38.8146 74.3255 37.5203 76.3728 35.7865 77.9925C35.4184 78.3345 35.0313 78.6599 34.6346 78.9568C34.4541 79.0945 34.2546 79.2347 34.029 79.389C33.4091 79.8047 32.756 80.1728 32.0839 80.4839C31.5234 80.7452 30.932 80.9732 30.3311 81.1608C29.6258 81.3793 28.8943 81.5455 28.1533 81.6524C27.8873 81.6904 27.6165 81.7213 27.3505 81.745C26.9468 81.783 26.5383 81.7997 26.1321 81.7997ZM26.1036 54.6938C25.3959 54.6938 24.6905 54.7484 23.997 54.8577C23.5814 54.9218 23.1634 55.0097 22.7525 55.1142C22.5863 55.1545 22.4366 55.1973 22.2941 55.24C20.9665 55.6272 19.703 56.2185 18.5393 56.9999C15.5586 59.002 13.5541 62.0302 12.8939 65.5238C12.2384 68.9889 12.9865 72.5015 15.0005 75.4133C17.7365 79.3724 22.4509 81.5717 27.3006 81.1537C27.5548 81.1323 27.8136 81.1014 28.0701 81.0658C28.7779 80.9637 29.4785 80.8045 30.1554 80.5955C30.7325 80.415 31.2978 80.1989 31.8345 79.9472C32.4781 79.6503 33.1051 79.2964 33.6965 78.8998C33.9126 78.7525 34.1026 78.6172 34.2784 78.4865C34.6584 78.2015 35.0289 77.8904 35.3828 77.5627C37.0429 76.0142 38.2803 74.0572 38.9619 71.8983C40.1921 68.008 39.5628 63.847 37.2376 60.4864C35.8934 58.5413 34.048 56.9833 31.901 55.981C31.4949 55.7887 31.0626 55.6153 30.6209 55.4585C30.3383 55.3588 30.0438 55.2685 29.7445 55.1854C28.8183 54.9313 27.8588 54.7722 26.8993 54.7175C26.6333 54.7009 26.3696 54.6938 26.1036 54.6938Z" fill="#371A45"/>
<path d="M26.1321 81.8852C21.4819 81.8852 17.0857 79.6242 14.4424 75.8005C12.3239 72.7367 11.5354 69.0412 12.2265 65.3956C12.9224 61.7215 15.029 58.539 18.1616 56.4323C19.3847 55.613 20.71 54.9907 22.1017 54.5846C22.2514 54.5395 22.4105 54.4967 22.5862 54.4516C23.0161 54.3423 23.4555 54.2521 23.8901 54.1832C24.8924 54.0265 25.9184 53.9766 26.9349 54.036C27.9442 54.093 28.9489 54.2592 29.9226 54.5276C30.2361 54.6131 30.5449 54.7105 30.8441 54.815C31.3096 54.9765 31.7609 55.1617 32.1884 55.3636C34.4446 56.4157 36.3826 58.0545 37.7981 60.0993C40.2444 63.6357 40.9046 68.0105 39.6126 72.105C38.8954 74.3731 37.5939 76.4346 35.8482 78.0615C35.4777 78.4058 35.0882 78.7312 34.6892 79.0305C34.5064 79.1682 34.3069 79.3107 34.0812 79.4651C33.4566 79.8855 32.7987 80.2536 32.1242 80.5671C31.5614 80.8307 30.9676 81.0587 30.3596 81.2487C29.6519 81.4696 28.9132 81.6358 28.1699 81.7427C27.9015 81.7807 27.6307 81.8116 27.3624 81.8353C26.9515 81.8686 26.5406 81.8852 26.1321 81.8852ZM26.1036 54.7817C25.4006 54.7817 24.7 54.8363 24.0112 54.9432C23.6004 55.0073 23.1824 55.0928 22.7762 55.1973C22.61 55.2377 22.4627 55.2781 22.3226 55.3208C21.0021 55.7056 19.7481 56.2946 18.5915 57.0688C15.6299 59.0591 13.6396 62.0658 12.9817 65.5357C12.331 68.9771 13.0744 72.4683 15.0765 75.3611C17.7959 79.2941 22.4794 81.4791 27.2982 81.0658C27.55 81.0445 27.8089 81.0136 28.063 80.978C28.766 80.8758 29.4642 80.7191 30.134 80.5101C30.7087 80.332 31.2692 80.1158 31.8036 79.8665C32.4425 79.5696 33.0647 79.2205 33.6537 78.8238C33.8675 78.679 34.0575 78.5436 34.2309 78.413C34.6085 78.128 34.979 77.8192 35.3281 77.4938C36.9764 75.9572 38.2066 74.0097 38.8835 71.8675C40.1042 68.0033 39.4796 63.8708 37.1687 60.5316C35.8316 58.5983 33.9981 57.0498 31.8654 56.0547C31.4616 55.8647 31.0341 55.6913 30.5947 55.537C30.3145 55.4396 30.02 55.347 29.7231 55.2662C28.8016 55.0121 27.8516 54.8553 26.8945 54.8007C26.6309 54.7888 26.3672 54.7817 26.1036 54.7817Z" fill="#371A45"/>
<path d="M37.7761 75.1425C30.9599 82.1203 19.4316 80.3295 16.9878 71.0456C15.3229 64.7281 20.3151 58.2468 26.5733 57.0593C31.1285 56.1948 35.9593 57.3158 39.251 63.9159C39.251 63.9159 40.2509 67.0604 39.7949 69.3713C39.3389 71.6821 38.5005 73.8529 38.5005 73.8529L37.7761 75.1425Z" fill="#371A45"/>
<path d="M16.9887 71.0455C19.4349 80.3294 30.9632 82.1201 37.7771 75.1424L37.9243 74.8811C29.5334 78.1016 19.8411 74.6531 17.1906 65.3123C16.5944 67.1315 16.4733 69.0956 16.9887 71.0455Z" fill="#220F2D"/>
<path d="M27.935 81.166C25.5315 81.166 23.1897 80.577 21.1734 79.4299C18.1951 77.7318 16.1336 74.991 15.2145 71.5021C14.369 68.2959 14.958 64.8593 16.8722 61.8264C18.9979 58.4586 22.5176 56.0195 26.2891 55.3046C28.3839 54.908 30.3432 54.9175 32.1126 55.3355L32.1506 55.345L32.1862 55.3616C34.4425 56.4138 36.3829 58.0525 37.796 60.0974C40.2422 63.6338 40.9025 68.0085 39.6105 72.103C38.8932 74.3711 37.5917 76.4326 35.8461 78.0595C35.4756 78.4039 35.0861 78.7293 34.6871 79.0285C34.5042 79.1663 34.3047 79.3088 34.0791 79.4631C33.4545 79.8835 32.7966 80.2516 32.1221 80.5651L32.0651 80.5865C30.7019 80.9736 29.3077 81.166 27.935 81.166ZM29.2484 55.782C28.3459 55.782 27.4054 55.8746 26.4316 56.0599C22.8667 56.7368 19.5346 59.0453 17.523 62.2373C15.7227 65.0896 15.167 68.3101 15.9579 71.3074C16.8224 74.592 18.758 77.1713 21.5557 78.7625C24.5364 80.4606 28.2794 80.8573 31.83 79.855C32.4594 79.5629 33.0721 79.2161 33.6516 78.8266C33.8654 78.6818 34.0554 78.5464 34.2287 78.4158C34.6064 78.1308 34.9769 77.822 35.326 77.4966C36.9742 75.96 38.2045 74.0125 38.8814 71.8703C40.1021 68.0061 39.4775 63.8736 37.1666 60.5344C35.8366 58.613 34.0174 57.0716 31.8989 56.0741C31.0605 55.8794 30.1746 55.782 29.2484 55.782Z" fill="#371A45"/>
<path d="M27.9761 79.7785C26.8907 79.7785 25.803 79.6432 24.7414 79.3629C20.6706 78.2894 17.709 75.2922 16.6165 71.143C15.8612 68.2788 16.3885 65.2103 18.0961 62.5004C19.9937 59.4937 23.1359 57.3182 26.5012 56.6793C32.301 55.5773 36.709 57.9547 39.5946 63.7402L39.616 63.7948C39.6587 63.9278 40.6396 67.0604 40.1694 69.4402C39.711 71.7582 38.8892 73.898 38.856 73.9859L38.8322 74.0358L38.0841 75.3705L38.0485 75.4062C35.2959 78.2324 31.6336 79.7785 27.9761 79.7785ZM29.1137 57.1923C28.3229 57.1923 27.5011 57.273 26.6437 57.4345C23.4826 58.0354 20.5305 60.0827 18.7445 62.9113C17.1509 65.4383 16.6569 68.293 17.3575 70.9483C18.3787 74.8219 21.1409 77.6197 24.9361 78.6219C29.2895 79.7714 34.0846 78.3488 37.4642 74.9122L38.1482 73.6914C38.2409 73.4468 38.9985 71.4162 39.4165 69.2977C39.825 67.2219 38.9866 64.3695 38.8916 64.0608C36.6092 59.4937 33.3246 57.1923 29.1137 57.1923Z" fill="#371A45"/>
<path d="M10.8878 71.6231C11.2488 74.2713 13.1369 76.2829 15.1082 76.1143C17.0794 75.9456 18.3833 73.6609 18.0223 71.0104C18.0199 70.9938 18.0175 70.9771 18.0152 70.9605C17.6376 68.3361 15.7589 66.353 13.8019 66.5193C12.2795 66.6499 11.1538 68.044 10.8878 69.8918C10.8094 70.4356 10.8071 71.0199 10.8878 71.6231Z" fill="white"/>
<path d="M10.8878 71.6231C11.2488 74.2713 13.1369 76.2829 15.1082 76.1143C17.0794 75.9456 18.3833 73.6609 18.0223 71.0104C18.0199 70.9938 18.0175 70.9771 18.0152 70.9605C17.8347 71.2503 17.5354 71.5471 17.0652 71.4973C16.2434 71.407 14.5762 69.8276 14.5762 69.8276C14.5762 69.8276 12.9754 69.8466 10.8878 69.8941C10.8094 70.4356 10.8071 71.0199 10.8878 71.6231Z" fill="#E8E8E8"/>
<path d="M14.8793 76.5087C12.8083 76.5087 10.8774 74.4068 10.5045 71.6756C10.2813 70.0344 10.647 68.4764 11.5092 67.4006C12.11 66.6501 12.8914 66.2131 13.7678 66.1371C15.9362 65.9494 18.0143 68.1131 18.4014 70.9583C18.6247 72.5994 18.2589 74.1574 17.3968 75.2333C16.7959 75.9838 16.0145 76.4208 15.1382 76.4968C15.055 76.5039 14.9672 76.5087 14.8793 76.5087ZM11.2669 71.5711C11.5994 74.0173 13.3094 75.8841 15.074 75.7321C15.7367 75.6751 16.3328 75.3378 16.7983 74.7536C17.5179 73.8534 17.8338 72.4736 17.6414 71.0628C17.3089 68.6166 15.6013 66.7522 13.8343 66.9018C13.1717 66.9588 12.5755 67.2961 12.11 67.8779C11.3904 68.7781 11.0745 70.1603 11.2669 71.5711Z" fill="#371A45"/>
<path d="M14.1018 75.6475C15.5629 75.3619 16.4078 73.3929 15.9889 71.2496C15.57 69.1063 14.046 67.6003 12.5849 67.8858C11.1239 68.1714 10.279 70.1403 10.6979 72.2837C11.1168 74.427 12.6408 75.933 14.1018 75.6475Z" fill="white"/>
<path d="M13.8897 75.6791C12.4006 75.7955 10.9471 74.1401 10.6454 71.9812C10.6122 71.7461 10.5956 71.5157 10.5908 71.2901C11.1869 72.7246 12.3222 73.6865 13.4812 73.5938C14.7898 73.4893 15.6971 72.0762 15.7113 70.2878C15.8633 70.6821 15.9773 71.1096 16.0391 71.5585C16.3407 73.7197 15.3764 75.5627 13.8897 75.6791Z" fill="#E8E8E8"/>
<path d="M13.7347 76.0686C12.0912 76.0686 10.5854 74.342 10.2624 72.0335C10.0677 70.6393 10.3669 69.2903 11.0652 68.4211C11.5188 67.8558 12.1054 67.5281 12.7609 67.4782C14.4757 67.3452 16.0812 69.1146 16.4161 71.5062C16.6108 72.9003 16.3116 74.2493 15.6133 75.1186C15.1597 75.6838 14.5731 76.0116 13.9176 76.0615C13.8558 76.0662 13.7964 76.0686 13.7347 76.0686ZM11.0224 71.9266C11.2932 73.8527 12.5923 75.3941 13.8558 75.2967C14.2952 75.2635 14.6942 75.0355 15.0124 74.6388C15.5801 73.9311 15.8199 72.8006 15.6537 71.6131C15.3829 69.687 14.0814 68.1456 12.8203 68.243C12.3809 68.2762 11.9819 68.5042 11.6637 68.9008C11.0961 69.6086 10.8562 70.7391 11.0224 71.9266Z" fill="#371A45"/>
<g opacity="0.7">
<path d="M23.8145 60.0091C23.8145 60.0091 30.0108 59.2325 34.0578 62.0658C34.0626 62.0682 34.0673 62.0729 34.0697 62.0753C34.92 62.6714 35.5921 63.4861 36.0196 64.4266C36.5848 65.6687 36.7915 66.6068 36.9387 67.4381C37.3876 69.9698 37.1192 71.2381 37.1192 71.2381C38.3423 69.6468 38.8957 67.9867 38.5418 65.8753C38.5062 65.6663 38.4611 65.455 38.4088 65.2365C38.397 65.1866 38.3851 65.1367 38.3708 65.0868C38.3708 65.0868 38.3708 65.0844 38.3685 65.0844C38.2307 64.6522 38.0288 64.0893 37.7462 63.4718C36.896 61.6146 35.3237 59.2704 32.6376 58.5199C27.6192 57.1187 23.5556 59.7811 23.8145 60.0091Z" fill="white"/>
</g>
<g opacity="0.7">
<path d="M22.1815 67.2107C22.2953 66.0502 21.5686 65.0291 20.5582 64.9299C19.5479 64.8308 18.6365 65.6912 18.5226 66.8516C18.4087 68.0121 19.1355 69.0333 20.1458 69.1324C21.1562 69.2316 22.0676 68.3712 22.1815 67.2107Z" fill="white"/>
</g>
<g opacity="0.7">
<path d="M20.7517 70.9944C20.843 70.5218 20.584 70.0743 20.1732 69.9949C19.7624 69.9156 19.3553 70.2344 19.264 70.707C19.1727 71.1796 19.4317 71.6271 19.8425 71.7065C20.2533 71.7858 20.6603 71.4671 20.7517 70.9944Z" fill="white"/>
</g>
</g>
<defs>
<clipPath id="clip0_2_64415">
<rect width="95" height="95" rx="8" fill="white"/>
</clipPath>
</defs>
</svg>
