<svg width="66" height="79" viewBox="0 0 66 79" fill="none" xmlns="http://www.w3.org/2000/svg">
<g opacity="0.25">
<path d="M26.0281 78.034C40.3555 78.034 51.9702 77.313 51.9702 76.4237C51.9702 75.5344 40.3555 74.8135 26.0281 74.8135C11.7006 74.8135 0.0859375 75.5344 0.0859375 76.4237C0.0859375 77.313 11.7006 78.034 26.0281 78.034Z" fill="#371A45"/>
</g>
<path d="M42.0265 34.3007C42.6434 34.0452 42.9363 33.338 42.6808 32.7211C42.4253 32.1043 41.7181 31.8114 41.1013 32.0669C40.4844 32.3224 40.1915 33.0296 40.447 33.6464C40.7025 34.2633 41.4097 34.5562 42.0265 34.3007Z" fill="white"/>
<path d="M44.2616 30.6529C45.3726 30.6529 46.2732 29.7523 46.2732 28.6413C46.2732 27.5303 45.3726 26.6296 44.2616 26.6296C43.1506 26.6296 42.25 27.5303 42.25 28.6413C42.25 29.7523 43.1506 30.6529 44.2616 30.6529Z" fill="white"/>
<path d="M44.2633 31.0138C42.9546 31.0138 41.8906 29.9498 41.8906 28.6412C41.8906 27.3326 42.9546 26.2686 44.2633 26.2686C45.5719 26.2686 46.6359 27.3326 46.6359 28.6412C46.6359 29.9498 45.5719 31.0138 44.2633 31.0138ZM44.2633 26.9906C43.3536 26.9906 42.6126 27.7316 42.6126 28.6412C42.6126 29.5508 43.3536 30.2918 44.2633 30.2918C45.1729 30.2918 45.9139 29.5508 45.9139 28.6412C45.9139 27.7316 45.1753 26.9906 44.2633 26.9906Z" fill="#371A45"/>
<path d="M41.5621 34.7547C40.6976 34.7547 39.9922 34.0494 39.9922 33.1849C39.9922 32.3204 40.6976 31.615 41.5621 31.615C42.4266 31.615 43.1319 32.3204 43.1319 33.1849C43.1319 34.0494 42.4266 34.7547 41.5621 34.7547ZM41.5621 32.3346C41.0942 32.3346 40.7118 32.7146 40.7118 33.1849C40.7118 33.6527 41.0918 34.0351 41.5621 34.0351C42.0299 34.0351 42.4123 33.6551 42.4123 33.1849C42.4099 32.717 42.0299 32.3346 41.5621 32.3346Z" fill="#371A45"/>
<path d="M15.6875 71.4814V59.813C15.6875 57.4309 17.6184 55.5 20.0005 55.5H30.9493C33.3314 55.5 35.2623 57.4309 35.2623 59.813V71.4814C35.2623 73.8635 33.3314 75.7944 30.9493 75.7944H20.0005C17.6184 75.7968 15.6875 73.8659 15.6875 71.4814Z" fill="white"/>
<g opacity="0.25">
<path d="M15.6875 71.4814V59.813C15.6875 57.4309 17.6184 55.5 20.0005 55.5H30.9493C33.3314 55.5 35.2623 57.4309 35.2623 59.813V71.4814C35.2623 73.8635 33.3314 75.7944 30.9493 75.7944H20.0005C17.6184 75.7968 15.6875 73.8659 15.6875 71.4814Z" fill="#371A45"/>
</g>
<path d="M30.9501 76.2173H20.0014C17.3912 76.2173 15.2656 74.0941 15.2656 71.484V59.8156C15.2656 57.2055 17.3889 55.0798 20.0014 55.0798H30.9501C33.5602 55.0798 35.6859 57.2031 35.6859 59.8156V71.484C35.6859 74.0941 33.5602 76.2173 30.9501 76.2173ZM20.0014 55.9182C17.8544 55.9182 16.1064 57.6638 16.1064 59.8132V71.4816C16.1064 73.6286 17.852 75.3742 20.0014 75.3742H30.9501C33.0971 75.3742 34.8451 73.6286 34.8451 71.4816V59.8132C34.8451 57.6662 33.0995 55.9182 30.9501 55.9182H20.0014Z" fill="#371A45"/>
<path d="M42.2888 76.1271C42.0418 76.2482 41.7806 76.3338 41.5122 76.3741C39.8497 76.633 38.1397 75.7661 38.1397 75.7661L25.4477 76.0583V76.0606L25.4168 76.0583L25.3859 76.0606V76.0583H25.3836L12.6939 75.7661C12.6939 75.7661 10.9863 76.633 9.32144 76.3741C9.05306 76.3338 8.79181 76.2482 8.54481 76.1271C5.92994 74.8565 4.53819 69.5317 5.63544 66.373C5.97744 65.3897 6.55694 64.6179 7.41669 64.2426C7.44044 64.2307 7.46419 64.2212 7.49031 64.2117C11.9007 62.4329 13.3209 68.1709 13.3209 68.1709L15.2209 68.159L16.9642 68.1471C16.9642 68.1471 17.0046 67.5771 17.0806 66.715C17.2777 64.435 17.7147 60.1125 18.2728 58.8324C18.3298 58.7017 18.3892 58.5782 18.4533 58.4571C20.2868 55.011 25.0036 55.6427 25.4168 55.7045C25.8348 55.6404 30.6703 54.9967 32.4492 58.5972C32.4872 58.6732 32.5228 58.7516 32.5584 58.8324C33.3279 60.597 33.8647 68.1495 33.8647 68.1495L37.5056 68.1709C37.5056 68.1709 38.9258 62.4329 43.3362 64.2117C43.3623 64.2212 43.3861 64.2307 43.4098 64.2426C47.0412 65.8267 45.7159 74.4646 42.2888 76.1271Z" fill="white"/>
<g opacity="0.25">
<path d="M45.1659 66.373C44.4701 69.3608 42.7244 73.2178 38.4162 71.4199C38.4162 71.4199 38.0457 72.7119 35.8156 72.7119C34.3074 72.7119 34.9344 69.9498 35.4997 68.159L33.7422 68.1472C33.7422 68.1472 33.7018 67.6698 33.6258 66.8053H25.3703H25.2658H17.0887C17.0151 67.6698 16.9723 68.1472 16.9723 68.1472L15.2291 68.159C15.7896 69.9498 16.4118 72.7119 14.9156 72.7119C12.7021 72.7119 12.3363 71.4199 12.3363 71.4199C8.06605 73.2178 6.33468 69.3608 5.64355 66.373C4.5463 69.5318 5.93568 74.8589 8.55293 76.1272C8.79993 76.2483 9.06118 76.3338 9.32955 76.3742C10.9921 76.6331 12.7021 75.7662 12.7021 75.7662L25.2634 76.0559V76.0583L25.3276 76.0559L25.3917 76.0583V76.0559L38.0481 75.7662C38.0481 75.7662 39.7699 76.6331 41.4491 76.3742C41.7198 76.3338 41.9834 76.2483 42.2328 76.1272C44.8714 74.8589 46.2727 69.5318 45.1659 66.373Z" fill="#371A45"/>
</g>
<g opacity="0.25">
<path d="M32.4568 58.5969C30.8276 60.0314 28.3314 60.9506 25.5361 60.9506C22.6504 60.9506 20.0854 59.9721 18.4609 58.4568C20.2944 55.0107 25.0112 55.6424 25.4244 55.7042C25.8401 55.6401 30.6756 54.9941 32.4568 58.5969Z" fill="#371A45"/>
</g>
<path d="M9.6154 76.6996C9.19977 76.6996 8.78415 76.5998 8.41127 76.3956C6.17877 75.3055 4.90577 71.6123 4.96277 68.6673C5.01027 66.309 5.8629 64.5942 7.30215 63.9672C7.86265 63.725 8.5039 63.763 9.1119 64.0741C10.0951 64.5776 11.4513 65.9955 12.3158 69.8928C13.2159 73.9517 12.0047 75.5667 11.2019 76.1676C10.7317 76.5191 10.1711 76.6996 9.6154 76.6996ZM8.07165 64.409C7.88877 64.409 7.71065 64.4446 7.54202 64.5182C6.3284 65.0478 5.6064 66.5655 5.56365 68.6816C5.50902 71.3796 6.68702 74.8922 8.67965 75.8612L8.6939 75.8683C9.36365 76.2365 10.2044 76.1676 10.8409 75.6902C12.0094 74.8138 12.3348 72.75 11.7291 70.0258C10.8718 66.1617 9.5489 64.9742 8.83877 64.6108C8.5799 64.4755 8.32102 64.409 8.07165 64.409Z" fill="#371A45"/>
<path d="M10.7776 66.3767L5.10938 68.0723L5.28159 68.648L10.9498 66.9524L10.7776 66.3767Z" fill="#371A45"/>
<path d="M11.8967 69.3584L5.53125 71.1292L5.69228 71.708L12.0577 69.9373L11.8967 69.3584Z" fill="#371A45"/>
<path d="M12.177 72.4211L6.35156 73.9521L6.50431 74.5333L12.3297 73.0023L12.177 72.4211Z" fill="#371A45"/>
<path d="M13.6327 67.8715C13.6659 68.0853 13.6944 68.2895 13.7206 68.4985C13.7467 68.7075 13.7704 68.9165 13.7894 69.1255C13.8298 69.5435 13.8583 69.9639 13.8654 70.3843C13.8678 70.4745 13.7942 70.5482 13.7039 70.5505C13.6232 70.5529 13.5543 70.4935 13.5401 70.4152V70.4128C13.4688 70.0114 13.3786 69.6124 13.2741 69.2158C13.2218 69.0187 13.1672 68.8192 13.1102 68.6244C13.0532 68.4297 12.9938 68.2302 12.9321 68.0402C12.8703 67.8502 12.9724 67.6459 13.1624 67.5842C13.3524 67.5224 13.5567 67.6245 13.6184 67.8145C13.6256 67.8335 13.6303 67.8549 13.6327 67.8715Z" fill="#371A45"/>
<path d="M17.2768 68.161L17.0227 70.5146C17.0108 70.6286 16.9087 70.7117 16.7947 70.6975C16.6854 70.6856 16.6071 70.593 16.6094 70.4861L16.6783 68.1206C16.6831 67.9544 16.8208 67.8237 16.9871 67.8285C17.1533 67.8332 17.2839 67.971 17.2792 68.1372C17.2768 68.1444 17.2768 68.1515 17.2768 68.161Z" fill="#371A45"/>
<path d="M12.4298 75.4882C12.444 75.4834 12.482 75.462 12.5081 75.4454C12.5366 75.4288 12.5675 75.4098 12.596 75.3884C12.6554 75.348 12.7124 75.3053 12.7694 75.2602C12.881 75.1675 12.9831 75.063 13.0758 74.9514C13.1684 74.8398 13.2491 74.7163 13.3109 74.5857C13.3798 74.455 13.4225 74.3149 13.4605 74.17L13.4653 74.1534C13.4938 74.0465 13.603 73.9848 13.7075 74.0133C13.8025 74.0394 13.8619 74.1273 13.8548 74.2223C13.8381 74.4004 13.8144 74.5833 13.7574 74.759C13.7051 74.9348 13.6315 75.1058 13.5389 75.2649C13.4486 75.424 13.3418 75.576 13.2206 75.7162C13.1589 75.785 13.0971 75.8539 13.0283 75.918C12.995 75.9513 12.9594 75.9822 12.9238 76.013C12.8858 76.0463 12.8549 76.0724 12.8003 76.1104L12.7694 76.1318C12.6031 76.2482 12.3775 76.2054 12.2611 76.0415C12.1448 75.8753 12.1875 75.6497 12.3514 75.5333C12.3775 75.5119 12.4036 75.4977 12.4298 75.4882Z" fill="#371A45"/>
<path d="M9.98122 76.785C9.74847 76.785 9.51334 76.7684 9.27584 76.7328C8.97422 76.6853 8.67734 76.5926 8.39472 76.4525C6.13609 75.3576 4.84884 71.6337 4.90822 68.6673C4.95572 66.2852 5.82022 64.5514 7.28322 63.9125C7.30934 63.9006 7.34022 63.8864 7.37347 63.8745C8.60847 63.3758 9.74847 63.3853 10.7602 63.903C12.5415 64.8126 13.3632 67.0261 13.6031 67.8075L16.6383 67.7885C16.7523 66.2852 17.2487 60.293 17.9493 58.6875C19.6807 54.707 24.6278 55.2295 25.4211 55.3388C26.2143 55.2271 31.1591 54.7023 32.8952 58.6875C33.5958 60.293 34.0922 66.2875 34.2062 67.7885L37.2415 67.8075C37.4837 67.0261 38.3031 64.8126 40.0843 63.903C41.0961 63.3853 42.2385 63.3781 43.4782 63.8769C43.5043 63.8864 43.5328 63.9006 43.5637 63.9125C45.0243 64.5514 45.8888 66.2852 45.9363 68.6673C45.9957 71.6337 44.7085 75.3577 42.4498 76.4549C42.1672 76.5927 41.8727 76.6877 41.5711 76.7352C40.0083 76.9798 38.4456 76.3124 38.0656 76.1343L25.49 76.424C25.4733 76.4264 25.4567 76.4264 25.4377 76.4264H25.4235H25.4092C25.3926 76.4264 25.3736 76.4264 25.357 76.424L12.7813 76.1343C12.4583 76.2815 11.2827 76.785 9.98122 76.785ZM9.11672 64.2308C8.64884 64.2308 8.15484 64.3353 7.63472 64.5443C7.61097 64.5538 7.59197 64.5609 7.57534 64.5704C6.37834 65.0929 5.67059 66.5915 5.62784 68.6815C5.56609 71.7548 6.94834 74.9492 8.71059 75.8042C8.92909 75.911 9.15709 75.9846 9.38509 76.0203C10.9098 76.2578 12.5225 75.455 12.5391 75.4479C12.5913 75.4218 12.6507 75.4075 12.7101 75.4099L25.4021 75.702C25.4045 75.702 25.4068 75.702 25.4092 75.702C25.4187 75.702 25.4282 75.702 25.4377 75.702C25.4401 75.702 25.4425 75.702 25.4448 75.702L38.1368 75.4099C38.1938 75.4075 38.2556 75.4218 38.3078 75.4479C38.3245 75.455 39.9371 76.2578 41.4595 76.0203C41.6898 75.9846 41.9155 75.911 42.134 75.8065C43.8962 74.9515 45.2785 71.7548 45.2167 68.6815C45.174 66.5915 44.4662 65.0953 43.274 64.5728C43.2716 64.5728 43.2716 64.5728 43.2692 64.5704C43.2526 64.5633 43.2336 64.5538 43.2146 64.5467C42.172 64.1263 41.2315 64.1263 40.4145 64.5419C38.5715 65.4824 37.8685 68.2279 37.8613 68.2564C37.821 68.4179 37.6737 68.5319 37.5098 68.5295L33.869 68.5081C33.6813 68.5081 33.5246 68.3609 33.5127 68.1733C33.508 68.0973 32.9712 60.6635 32.235 58.9749C30.6698 55.3791 26.003 55.98 25.4757 56.0584C25.4401 56.0631 25.4021 56.0631 25.3665 56.0584C24.8392 55.9776 20.17 55.3815 18.6072 58.9725C17.871 60.6611 17.3342 68.0949 17.3295 68.1709C17.3152 68.3585 17.1608 68.5034 16.9732 68.5058L13.3323 68.5271C13.1613 68.5271 13.0212 68.4155 12.9808 68.254C12.9737 68.2255 12.2707 65.48 10.4277 64.5395C10.0216 64.3329 9.58222 64.2308 9.11672 64.2308Z" fill="#371A45"/>
<path d="M41.2231 76.6996C40.6673 76.6996 40.1068 76.5191 39.6366 76.1676C38.8338 75.5667 37.6202 73.9517 38.5227 69.8928C39.3872 65.9955 40.7433 64.5776 41.7266 64.0741C42.3346 63.763 42.9758 63.725 43.534 63.9672C44.9756 64.5966 45.8258 66.3113 45.8733 68.6697C45.9327 71.6147 44.6597 75.3078 42.4248 76.398C42.0543 76.5998 41.6387 76.6996 41.2231 76.6996ZM42.7668 64.409C42.5175 64.409 42.2586 64.4755 41.9997 64.6085C41.2872 64.9718 39.9667 66.1593 39.1093 70.0235C38.5037 72.7476 38.8291 74.8115 39.9976 75.6878C40.6341 76.1652 41.4772 76.2341 42.1446 75.866L42.1588 75.8588C44.1538 74.8898 45.3295 71.3796 45.2748 68.6792C45.2321 66.5655 44.5125 65.0478 43.2965 64.5158C43.1278 64.4446 42.9497 64.409 42.7668 64.409Z" fill="#371A45"/>
<path d="M40.0628 66.3686L39.8906 66.9443L45.5566 68.6386L45.7287 68.0629L40.0628 66.3686Z" fill="#371A45"/>
<path d="M38.9345 69.3547L38.7734 69.9336L45.1389 71.705L45.3 71.1261L38.9345 69.3547Z" fill="#371A45"/>
<path d="M38.6606 72.4177L38.5078 72.9988L44.3327 74.5298L44.4854 73.9487L38.6606 72.4177Z" fill="#371A45"/>
<path d="M37.9049 68.0424C37.8455 68.2324 37.7861 68.4319 37.7315 68.6267C37.6769 68.8238 37.6246 69.0209 37.5747 69.2204C37.475 69.6171 37.3871 70.0161 37.3206 70.4174V70.4198C37.304 70.5219 37.2066 70.5932 37.1045 70.5766C37.0095 70.5599 36.943 70.4792 36.9454 70.3866C36.9549 69.9638 36.9881 69.5458 37.0332 69.1278C37.057 68.9188 37.0807 68.7098 37.1092 68.5032C37.1377 68.2942 37.1686 68.0899 37.2042 67.8762C37.2375 67.6791 37.4227 67.5461 37.6199 67.5793C37.817 67.6126 37.95 67.7978 37.9167 67.9949C37.9144 68.0116 37.9096 68.0258 37.9049 68.0424Z" fill="#371A45"/>
<path d="M34.163 68.1186L34.2081 70.4865C34.2105 70.5886 34.1297 70.6741 34.0276 70.6741C33.9326 70.6765 33.8519 70.6028 33.84 70.5102L33.5645 68.159C33.5455 67.9951 33.6642 67.8455 33.8281 67.8265C33.992 67.8075 34.1416 67.9262 34.1606 68.0901C34.1606 68.0996 34.1606 68.1091 34.163 68.1186Z" fill="#371A45"/>
<path d="M34.5885 68.325H32.6363C31.9998 68.325 31.4844 67.8096 31.4844 67.1731C31.4844 66.5366 31.9998 66.0212 32.6363 66.0212H34.5885C35.225 66.0212 35.7404 66.5366 35.7404 67.1731C35.7404 67.8096 35.225 68.325 34.5885 68.325Z" fill="white"/>
<g opacity="0.2">
<path d="M35.7404 67.1733C35.7404 67.4916 35.6121 67.7789 35.4031 67.9879C35.1941 68.1969 34.9068 68.3252 34.5885 68.3252H32.6363C31.9998 68.3252 31.4844 67.8098 31.4844 67.1733C31.4844 66.9952 31.5247 66.8289 31.596 66.6793C31.805 66.9786 32.1518 67.1733 32.5413 67.1733H34.4935C34.8118 67.1733 35.0991 67.0451 35.3081 66.8361C35.4007 66.7434 35.4767 66.6366 35.5337 66.5178C35.6644 66.7031 35.7404 66.9287 35.7404 67.1733Z" fill="#000049"/>
</g>
<path d="M34.5901 68.6864H32.6379C31.8043 68.6864 31.125 68.0071 31.125 67.1735C31.125 66.3399 31.8043 65.6606 32.6379 65.6606H34.5901C35.4238 65.6606 36.103 66.3399 36.103 67.1735C36.103 68.0071 35.4238 68.6864 34.5901 68.6864ZM32.6379 66.3826C32.2009 66.3826 31.8446 66.7389 31.8446 67.1759C31.8446 67.6129 32.2009 67.9691 32.6379 67.9691H34.5901C35.0271 67.9691 35.3834 67.6129 35.3834 67.1759C35.3834 66.7389 35.0271 66.3826 34.5901 66.3826H32.6379Z" fill="#371A45"/>
<path d="M18.3619 68.325H16.4097C15.7732 68.325 15.2578 67.8096 15.2578 67.1731C15.2578 66.5366 15.7732 66.0212 16.4097 66.0212H18.3619C18.9984 66.0212 19.5138 66.5366 19.5138 67.1731C19.5162 67.8096 18.9984 68.325 18.3619 68.325Z" fill="white"/>
<g opacity="0.2">
<path d="M19.5138 67.1735C19.5138 67.4917 19.3856 67.7791 19.1766 67.9881C18.9676 68.1971 18.6802 68.3254 18.3619 68.3254H16.4097C15.7732 68.3254 15.2578 67.81 15.2578 67.1735C15.2578 66.9954 15.2982 66.8291 15.3694 66.6795C15.5784 66.9787 15.9252 67.1735 16.3147 67.1735H18.2669C18.5852 67.1735 18.8726 67.0452 19.0816 66.8362C19.1742 66.7436 19.2502 66.6367 19.3072 66.5156C19.4378 66.7032 19.5138 66.9289 19.5138 67.1735Z" fill="#000049"/>
</g>
<path d="M18.3557 68.6864H16.4035C15.5699 68.6864 14.8906 68.0071 14.8906 67.1735C14.8906 66.3399 15.5699 65.6606 16.4035 65.6606H18.3557C19.1894 65.6606 19.8686 66.3399 19.8686 67.1735C19.8686 68.0071 19.1917 68.6864 18.3557 68.6864ZM16.4035 66.3826C15.9665 66.3826 15.6103 66.7389 15.6103 67.1759C15.6103 67.6129 15.9665 67.9691 16.4035 67.9691H18.3557C18.7927 67.9691 19.149 67.6129 19.149 67.1759C19.149 66.7389 18.7927 66.3826 18.3557 66.3826H16.4035Z" fill="#371A45"/>
<path d="M38.0372 76.1056C37.9826 76.0676 37.9517 76.0415 37.9113 76.0106C37.8733 75.9797 37.84 75.9488 37.8044 75.9156C37.7355 75.8515 37.6714 75.7849 37.6097 75.7161C37.4862 75.5783 37.3793 75.4263 37.2843 75.2672C37.1893 75.1081 37.1133 74.9371 37.0587 74.7613C36.9993 74.5856 36.9732 74.4027 36.9542 74.2222C36.9423 74.0987 37.0326 73.9894 37.1537 73.9776C37.2653 73.9657 37.3651 74.0393 37.3912 74.1462L37.3959 74.1652C37.4316 74.3077 37.4719 74.4478 37.5384 74.5784C37.6002 74.7091 37.6762 74.8326 37.7664 74.9442C37.8567 75.0582 37.9564 75.1627 38.0657 75.2553C38.1203 75.3005 38.1773 75.3456 38.2367 75.386C38.2652 75.405 38.296 75.4263 38.3245 75.4429C38.3507 75.4596 38.3887 75.4809 38.4029 75.4857C38.5882 75.5641 38.6737 75.7754 38.5977 75.9607C38.5193 76.1459 38.3079 76.2314 38.1227 76.1554C38.1013 76.1459 38.0799 76.1341 38.0609 76.1222L38.0372 76.1056Z" fill="#371A45"/>
<path d="M20.0312 68.9332V65.8219C20.0312 64.6914 20.948 63.7747 22.0785 63.7747H29.0349C30.1654 63.7747 31.0821 64.6914 31.0821 65.8219V68.9332C31.0821 70.0637 30.1654 70.9804 29.0349 70.9804H22.0785C20.9504 70.9804 20.0312 70.0637 20.0312 68.9332Z" fill="white"/>
<g opacity="0.25">
<path d="M31.0821 66.2683V68.9354C31.0821 70.0636 30.1654 70.9827 29.0349 70.9827H22.0785C20.9504 70.9851 20.0312 70.0659 20.0312 68.9354V66.2683C20.0312 67.3988 20.948 68.3156 22.0785 68.3156H29.0349C30.1654 68.3132 31.0821 67.3988 31.0821 66.2683Z" fill="#371A45"/>
</g>
<path d="M22.0754 71.3415C21.4341 71.3415 20.8309 71.0921 20.3772 70.6385C19.9212 70.1825 19.6719 69.5792 19.6719 68.9356V65.8243C19.6719 64.4967 20.7525 63.4185 22.0777 63.4185H29.0341C30.3618 63.4185 31.44 64.4991 31.44 65.8243V68.9356C31.44 70.2632 30.3594 71.3415 29.0341 71.3415H22.0777H22.0754ZM22.0777 64.1357C21.1467 64.1357 20.3915 64.8933 20.3915 65.822V68.9332C20.3915 69.3845 20.5672 69.8072 20.8855 70.1278C21.2037 70.4461 21.6265 70.6195 22.0754 70.6195C22.0754 70.6195 22.0754 70.6195 22.0777 70.6195H29.0341C29.9651 70.6195 30.7204 69.8618 30.7204 68.9332V65.822C30.7204 64.891 29.9628 64.1357 29.0341 64.1357H22.0777Z" fill="#371A45"/>
<path d="M22.0754 71.3416C21.4341 71.3416 20.8309 71.0922 20.3772 70.6386C19.9212 70.1826 19.6719 69.5793 19.6719 68.9357V67.4442C19.6719 66.1166 20.7525 65.0383 22.0777 65.0383H29.0341C30.3618 65.0383 31.44 66.119 31.44 67.4442V68.9357C31.44 70.2633 30.3594 71.3416 29.0341 71.3416H22.0777H22.0754ZM22.0777 65.758C21.1467 65.758 20.3915 66.5156 20.3915 67.4442V68.9357C20.3915 69.387 20.5672 69.8097 20.8855 70.1303C21.2037 70.4486 21.6265 70.6219 22.0754 70.6219C22.0754 70.6219 22.0754 70.6219 22.0777 70.6219H29.0341C29.9651 70.6219 30.7204 69.8643 30.7204 68.9357V67.4442C30.7204 66.5132 29.9628 65.758 29.0341 65.758H22.0777Z" fill="#371A45"/>
<path d="M34.8452 74.7139C34.5958 76.1745 31.962 76.4524 28.656 75.1414C28.656 75.1414 26.4947 76.7374 25.5851 75.5547C25.4996 75.4407 25.4687 75.2982 25.4782 75.1343C25.54 74.1962 26.9626 72.6025 26.9626 72.6025L26.9507 62.3069L32.9642 60.3L32.9286 61.1099L32.475 71.2678C32.4773 71.2678 35.1635 72.859 34.8452 74.7139Z" fill="white"/>
<g opacity="0.25">
<path d="M34.8452 74.7139C34.5958 76.1745 31.962 76.4524 28.656 75.1414C28.656 75.1414 26.4947 76.7374 25.5851 75.5546C25.4996 75.4406 25.4687 75.2981 25.4782 75.1342C26.8106 75.1604 27.4613 74.2816 27.7535 73.6617C27.8936 73.3625 28.2546 73.2461 28.5491 73.3934C29.3827 73.8114 30.9597 74.4597 32.3301 74.1937C34.299 73.809 31.4893 71.605 31.4893 71.605L32.931 61.1099L32.4773 71.2677C32.4773 71.2677 35.1635 72.859 34.8452 74.7139Z" fill="#371A45"/>
</g>
<path d="M32.6386 67.1969C32.5674 67.1969 32.4961 67.1708 32.4391 67.1209C30.3206 65.2376 27.15 66.9357 27.1167 66.9523C26.9719 67.0331 26.789 66.9784 26.7082 66.8336C26.6299 66.6887 26.6821 66.5058 26.827 66.4251C26.9719 66.3467 30.399 64.5061 32.8357 66.6721C32.9592 66.7813 32.9711 66.9713 32.8595 67.0948C32.8049 67.1637 32.7217 67.1969 32.6386 67.1969Z" fill="#371A45"/>
<path d="M33.3222 60.3145L32.8329 71.2822L32.6572 70.9568C32.8804 71.0946 33.0728 71.23 33.2699 71.3796C33.4647 71.5268 33.6547 71.686 33.8352 71.8546C34.1962 72.1895 34.5358 72.5647 34.8018 73.0112C34.9348 73.2345 35.0488 73.4743 35.1248 73.7356C35.2008 73.9945 35.2388 74.2771 35.2198 74.5573C35.2151 74.6262 35.2032 74.6975 35.1961 74.7663C35.1818 74.8376 35.1676 74.9136 35.1438 74.9872C35.0987 75.1321 35.0298 75.2722 34.9443 75.3981C34.7709 75.6498 34.5334 75.8351 34.2912 75.9681C33.7972 76.2293 33.2794 76.3101 32.7807 76.3386C32.2796 76.3647 31.7879 76.3291 31.3034 76.2578C30.3368 76.113 29.4106 75.8327 28.5152 75.4812L28.8619 75.4361C28.6031 75.619 28.3537 75.7638 28.0806 75.9016C27.8098 76.037 27.5296 76.1557 27.2232 76.2388C26.9192 76.322 26.5867 76.3718 26.2328 76.3148C26.0571 76.2863 25.8766 76.227 25.7151 76.1296C25.5536 76.0322 25.4158 75.904 25.3018 75.7567C25.2329 75.657 25.1807 75.5453 25.1593 75.4385C25.1546 75.4123 25.1474 75.3838 25.1427 75.3577L25.1356 75.2817C25.1308 75.2295 25.1332 75.182 25.1356 75.1345C25.1474 74.9445 25.1926 74.7806 25.2472 74.6286C25.3564 74.3246 25.5037 74.061 25.6581 73.8068C25.9739 73.301 26.3278 72.8473 26.7173 72.4008L26.6366 72.6098L26.6199 70.0353L26.6152 67.4608L26.6176 64.8863C26.6223 64.029 26.6271 63.1692 26.6674 62.3118C26.6746 62.1598 26.8028 62.0435 26.9548 62.0506C27.0973 62.0577 27.2089 62.1717 27.2161 62.3118C27.2588 63.1692 27.2659 64.029 27.2731 64.8863L27.2802 67.4608V70.0353L27.2683 72.6098V72.6122C27.2683 72.6906 27.2374 72.7642 27.1876 72.8188C26.8337 73.2321 26.4941 73.6833 26.2162 74.1441C26.0784 74.3745 25.9526 74.6143 25.8742 74.8447C25.8362 74.9587 25.8077 75.0751 25.8053 75.1677C25.8006 75.2651 25.8219 75.3221 25.8433 75.353C25.9692 75.5097 26.1307 75.6118 26.3421 75.638C26.5511 75.6688 26.7933 75.638 27.0356 75.5667C27.2778 75.4978 27.5201 75.391 27.7576 75.2698C27.9903 75.1487 28.2302 75.0015 28.4321 74.8542L28.4344 74.8518C28.5366 74.7782 28.6696 74.7663 28.7788 74.8091C29.6314 75.144 30.5126 75.41 31.4056 75.543C31.8521 75.6095 32.3009 75.6403 32.7379 75.619C33.1726 75.5952 33.6048 75.5145 33.9444 75.334C34.1131 75.2413 34.2532 75.1273 34.3458 74.992C34.3909 74.9231 34.4289 74.8518 34.4527 74.7711C34.4669 74.7331 34.4717 74.6903 34.4812 74.65L34.4978 74.5098C34.5239 74.1346 34.3957 73.7427 34.1796 73.3817C33.9634 73.0207 33.6689 72.6882 33.3436 72.3866C33.1797 72.237 33.0087 72.0921 32.8306 71.9567C32.6548 71.8213 32.4624 71.6883 32.2867 71.5791L32.2819 71.5767C32.1656 71.5055 32.1062 71.3796 32.1109 71.2537L32.6002 60.286C32.6097 60.0865 32.7783 59.9321 32.9754 59.9416C33.1773 59.9487 33.3293 60.1173 33.3222 60.3145Z" fill="#371A45"/>
<path d="M28.493 75.4667C28.4693 75.4572 28.4622 75.4524 28.4503 75.4453C28.4384 75.4382 28.4289 75.4334 28.4194 75.4263C28.4004 75.4144 28.379 75.4026 28.3624 75.3907C28.3244 75.3669 28.2935 75.3384 28.2603 75.3123C28.1962 75.2577 28.1368 75.2007 28.0869 75.1366C27.9824 75.0107 27.9017 74.8706 27.8447 74.7233C27.7924 74.5761 27.7568 74.4241 27.7473 74.2768C27.7378 74.2032 27.7449 74.1296 27.7425 74.0583C27.7473 73.9871 27.7568 73.9158 27.7639 73.8469C27.7758 73.7353 27.8732 73.6546 27.9848 73.6664C28.0798 73.6759 28.1534 73.7519 28.1653 73.8422L28.1677 73.8683C28.1748 73.9253 28.1795 73.9823 28.1867 74.0369C28.2009 74.0916 28.2057 74.1462 28.2247 74.1961C28.2532 74.3006 28.3007 74.3932 28.3505 74.4763C28.4052 74.5571 28.4717 74.6283 28.5429 74.6829C28.5785 74.7114 28.6189 74.7352 28.6569 74.7566C28.6759 74.7661 28.6949 74.7756 28.7139 74.7827C28.7234 74.7874 28.7329 74.7898 28.74 74.7922C28.7448 74.7946 28.7495 74.7946 28.7519 74.7946C28.7543 74.7946 28.759 74.7969 28.7519 74.7922C28.9372 74.8634 29.0298 75.0724 28.9585 75.2577C28.8873 75.4429 28.6783 75.5379 28.493 75.4667Z" fill="#371A45"/>
<path d="M17.8435 60.6587L18.2734 70.9638C18.2734 70.9638 15.6775 72.8567 15.9958 74.7139C16.2452 76.1746 18.879 76.4524 22.185 75.1414C22.185 75.1414 24.3463 76.7374 25.2559 75.5547C25.8378 74.7971 23.876 72.6026 23.876 72.6026L23.8879 62.3069" fill="white"/>
<path d="M18.2054 60.6444L18.6353 70.9495C18.6401 71.0706 18.5831 71.1823 18.4928 71.2511L18.4881 71.2559C18.3171 71.3842 18.1366 71.5361 17.9679 71.6881C17.7993 71.8425 17.6354 72.0016 17.4787 72.1679C17.1699 72.5004 16.8897 72.8567 16.6759 73.239C16.4646 73.619 16.3244 74.0275 16.3316 74.417C16.3339 74.4645 16.3316 74.5144 16.3411 74.5619C16.3482 74.6094 16.3506 74.6593 16.3624 74.6973C16.3791 74.7804 16.4123 74.8564 16.4503 74.93C16.5334 75.0725 16.6617 75.1984 16.8279 75.2958C17.1604 75.4929 17.5974 75.5831 18.0344 75.6116C18.2553 75.6283 18.4809 75.6259 18.7066 75.614C18.9322 75.6022 19.1602 75.5784 19.3858 75.5451C20.2931 75.4145 21.1884 75.1461 22.0529 74.8041H22.0553C22.1741 74.759 22.3047 74.7804 22.3997 74.8493C22.6039 74.9965 22.8414 75.1414 23.0766 75.2625C23.3117 75.3837 23.5563 75.4881 23.7986 75.557C24.0408 75.6259 24.2831 75.6568 24.4921 75.6259C24.7011 75.5974 24.8602 75.4953 24.9861 75.3409C25.0074 75.3124 25.0264 75.2554 25.0217 75.1604C25.0169 75.0678 24.9908 74.9538 24.9504 74.8398C24.8721 74.6094 24.7462 74.3719 24.6084 74.1415C24.3306 73.6808 23.9886 73.2319 23.6347 72.821C23.5801 72.7616 23.5516 72.688 23.5516 72.6144V72.6025L23.5326 71.3153C23.5278 70.8854 23.5231 70.4579 23.5231 70.028C23.5231 69.1706 23.5136 68.3109 23.5207 67.4535L23.5349 64.879C23.5421 64.0216 23.5658 63.1619 23.6561 62.3045C23.6703 62.1763 23.7843 62.0836 23.9126 62.0979C24.0242 62.1098 24.1097 62.1976 24.1192 62.3045C24.2094 63.1619 24.2308 64.0216 24.2356 64.879L24.2451 67.4535C24.2522 68.3109 24.2403 69.1706 24.2379 70.028C24.2379 70.4579 24.2308 70.8854 24.2261 71.3153L24.2047 72.6025L24.1216 72.384C24.5111 72.8305 24.8626 73.2841 25.1808 73.7924C25.3352 74.0465 25.4824 74.3125 25.5917 74.6165C25.6439 74.7709 25.6914 74.9348 25.7033 75.1248C25.7057 75.1723 25.7081 75.2198 25.7033 75.2744L25.6962 75.3528C25.6914 75.3789 25.6867 75.4074 25.6796 75.4335C25.6582 75.5404 25.6059 75.6544 25.5347 75.7541C25.4207 75.9038 25.2829 76.0297 25.1191 76.1294C24.9576 76.2292 24.7747 76.2885 24.5989 76.3147C24.2427 76.3693 23.9102 76.3194 23.6086 76.2363C23.3022 76.1532 23.0219 76.032 22.7512 75.8966C22.4804 75.7589 22.2311 75.6117 21.9722 75.4288L22.3189 75.4739C21.4117 75.8301 20.4688 76.1151 19.4879 76.2576C19.2433 76.2933 18.9939 76.3194 18.7446 76.3313C18.4952 76.3455 18.2411 76.3455 17.9869 76.3289C17.4811 76.2909 16.9514 76.2007 16.4574 75.9109C16.2128 75.7684 15.9824 75.557 15.8257 75.2863C15.7521 75.1509 15.6903 75.0037 15.6594 74.854C15.6404 74.778 15.6333 74.7091 15.6238 74.6379C15.6119 74.5666 15.6119 74.4978 15.6096 74.4265C15.6024 73.8589 15.7948 73.3364 16.0442 72.8875C16.2959 72.4363 16.6118 72.0396 16.9491 71.6739C17.1201 71.491 17.2958 71.3176 17.4811 71.1514C17.6663 70.9828 17.8492 70.8284 18.0606 70.6693L17.9133 70.9756L17.4834 60.6705C17.4763 60.471 17.6307 60.3048 17.8278 60.2953C18.0297 60.2905 18.1959 60.4449 18.2054 60.6444Z" fill="#371A45"/>
<path d="M22.1224 74.764C22.1152 74.7688 22.12 74.7664 22.1224 74.764C22.1247 74.7664 22.1295 74.764 22.1342 74.764C22.1414 74.7617 22.1509 74.7593 22.1604 74.7545C22.1794 74.7474 22.1984 74.7379 22.2174 74.7284C22.2554 74.707 22.2957 74.6833 22.3314 74.6548C22.405 74.5978 22.4691 74.5289 22.5237 74.4482C22.5736 74.365 22.6211 74.2724 22.6496 74.1679C22.6686 74.118 22.6734 74.061 22.6852 74.0088C22.6924 73.9542 22.6971 73.8972 22.7042 73.8402L22.7066 73.814C22.7209 73.7024 22.8206 73.6217 22.9346 73.6359C23.032 73.6478 23.1056 73.7262 23.1151 73.8188C23.1222 73.89 23.1317 73.9589 23.1341 74.0302C23.1317 74.1014 23.1389 74.175 23.1294 74.2487C23.1199 74.3959 23.0842 74.5479 23.032 74.6952C22.975 74.8424 22.8942 74.9825 22.7874 75.1084C22.7351 75.1725 22.6757 75.2295 22.6116 75.2842C22.5784 75.3103 22.5451 75.3364 22.5095 75.3625C22.4929 75.3744 22.4739 75.3863 22.4525 75.3982C22.443 75.4053 22.4335 75.41 22.4216 75.4172C22.4097 75.4243 22.4002 75.429 22.3789 75.4385C22.1936 75.5098 21.9846 75.4172 21.9134 75.2319C21.8445 75.0443 21.9371 74.8353 22.1224 74.764Z" fill="#371A45"/>
<g opacity="0.25">
<path d="M15.9958 74.7139C16.2452 76.1745 18.879 76.4524 22.185 75.1414C22.185 75.1414 24.3463 76.7374 25.2559 75.5546C25.3414 75.4406 25.3723 75.2981 25.3628 75.1342C24.0304 75.1604 23.3797 74.2816 23.0875 73.6617C22.9474 73.3625 22.5864 73.2461 22.2919 73.3934C21.4583 73.8114 19.8813 74.4597 18.5109 74.1937C16.542 73.809 19.3517 71.605 19.3517 71.605L17.91 61.1099L18.2734 70.9661C18.2734 70.9661 15.6775 72.859 15.9958 74.7139Z" fill="#371A45"/>
</g>
<path d="M18.2077 67.197C18.1246 67.197 18.0415 67.1638 17.9821 67.0973C17.8729 66.9738 17.8824 66.7838 18.0059 66.6745C20.4426 64.5085 23.8697 66.3491 24.0146 66.4275C24.1595 66.5083 24.2141 66.6888 24.1334 66.836C24.0526 66.9809 23.8721 67.0355 23.7249 66.9548C23.6797 66.931 20.5186 65.2448 18.4025 67.1234C18.3502 67.1733 18.279 67.197 18.2077 67.197Z" fill="#371A45"/>
<path d="M62.9327 19.8471C61.2821 21.2626 58.7955 21.5713 56.8076 20.6878C55.3517 22.747 53.0385 24.115 50.5732 24.4237C48.9202 24.6303 47.215 24.3572 45.695 23.6732C44.9492 23.3383 44.251 22.9061 43.624 22.3812C41.5554 24.6636 38.3871 25.5281 35.4231 25.2668C35.2687 25.2526 35.1144 25.236 34.96 25.217C31.8701 24.8203 29.0201 23.3597 26.3554 21.7423C24.7736 22.8277 22.6504 23.1175 20.9166 22.3836C19.1829 21.6497 17.9099 19.9255 17.7199 18.0516C17.5322 16.1801 18.4324 14.235 19.9856 13.1686C21.1612 12.3611 22.7976 12.0832 24.0184 12.8195C24.1229 11.5512 24.6192 10.5466 25.4172 9.89821C26.2152 9.25221 27.303 8.97671 28.3147 9.16196C29.1104 6.90571 31.008 3.58784 35.4089 1.97046C38.6341 0.782962 42.2679 0.443337 45.4694 1.49309C48.6709 2.54284 51.5209 4.63521 53.4802 7.37596C54.6701 6.91284 56.1189 6.93184 57.2375 7.57071C58.3561 8.20959 59.109 9.44696 59.1612 10.7366C61.4175 10.5276 63.669 11.9003 64.4622 13.9262C65.2579 15.9521 64.5834 18.4316 62.9327 19.8471Z" fill="white"/>
<g opacity="0.25">
<path d="M62.933 19.8465C61.2824 21.262 58.7958 21.5708 56.8079 20.6873C55.352 22.7464 53.0388 24.1144 50.5735 24.4232C48.9205 24.6298 47.2153 24.3567 45.6953 23.6727C44.9495 23.3402 44.2513 22.9055 43.6243 22.3807C41.5556 24.6654 38.3874 25.5275 35.4234 25.2663C35.269 25.252 35.1146 25.2354 34.9603 25.2164C31.8704 24.8198 29.0204 23.3592 26.3556 21.7418C24.7739 22.8272 22.6506 23.1145 20.9169 22.383C19.1831 21.6492 17.9101 19.9249 17.7201 18.051C17.6536 17.3932 17.7225 16.7282 17.9054 16.0964C18.3495 17.5927 19.4729 18.8894 20.9169 19.4998C22.6506 20.2337 24.7739 19.9463 26.3556 18.8585C29.0204 20.4759 31.8704 21.9365 34.9603 22.3332C35.1146 22.3522 35.2666 22.3688 35.4234 22.383C38.3874 22.6443 41.5556 21.7822 43.6243 19.4974C44.2513 20.0199 44.9519 20.4545 45.6953 20.7894C47.2153 21.4734 48.9205 21.7465 50.5735 21.5399C53.0388 21.2312 55.352 19.8632 56.8079 17.804C58.7934 18.6875 61.2824 18.3788 62.933 16.9633C63.7381 16.2722 64.3129 15.3269 64.5955 14.3057C65.1726 16.2508 64.4839 18.5189 62.933 19.8465Z" fill="#371A45"/>
</g>
<path d="M45.6937 23.6732C44.948 23.3384 44.2497 22.9061 43.6227 22.3812C41.5541 24.6636 38.3859 25.5281 35.4219 25.2669C35.7259 20.7496 38.4856 16.5482 40.6089 16.7572C43.1952 17.0114 44.9907 20.4812 45.6937 23.6732Z" fill="#62ED2E"/>
<path d="M45.4906 23.82C44.7449 23.4851 44.0466 23.0528 43.4196 22.528C41.351 24.8103 38.1828 25.6748 35.2188 25.4136C35.5228 20.8963 38.2825 16.695 40.4057 16.904C42.9945 17.1557 44.7876 20.6256 45.4906 23.82Z" fill="#31C418"/>
<path d="M36.4481 25.6722C36.099 25.6722 35.7451 25.658 35.3912 25.6247C35.1965 25.6081 35.0492 25.4371 35.0635 25.2423C35.2772 22.0788 36.7141 18.7776 38.5547 17.2172C39.2625 16.6163 39.9845 16.3337 40.6447 16.3978C43.5256 16.6805 45.3543 20.452 46.0478 23.5965C46.0763 23.7295 46.0288 23.8672 45.9243 23.9527C45.8175 24.0382 45.6726 24.0572 45.5491 24.0026C44.8698 23.6986 44.2357 23.3186 43.6586 22.8721C41.8916 24.6628 39.2743 25.6722 36.4481 25.6722ZM35.8116 24.9336C38.8065 25.1046 41.6066 24.0738 43.357 22.1406C43.4876 21.9981 43.7061 21.9815 43.8557 22.105C44.2595 22.4422 44.6965 22.7415 45.1596 23.0003C44.3735 20.11 42.7252 17.3241 40.5758 17.1151C40.1151 17.07 39.5783 17.2956 39.0226 17.7658C37.6332 18.9415 36.1203 21.7511 35.8116 24.9336Z" fill="#371A45"/>
<path d="M38.4014 22.2214C38.1757 22.9054 36.5014 26.2446 34.5182 25.0215C33.0125 24.0953 34.3662 22.0338 35.0882 21.06C34.5919 20.6586 33.4827 19.9533 33.4922 18.8251C33.4946 18.5924 33.5469 18.3549 33.6751 18.1126C33.8034 17.8656 34.0052 17.6115 34.3069 17.3431C34.3187 17.3313 34.3282 17.3218 34.3401 17.3123C35.1904 18.3098 36.2472 19.1268 37.4276 19.6944C37.7957 19.8725 38.1971 20.0435 38.4299 20.3808C38.7861 20.9056 38.6009 21.6158 38.4014 22.2214Z" fill="#62ED2E"/>
<path d="M38.4014 22.2219C38.1757 22.9059 36.5014 26.2452 34.5182 25.0221C33.0125 24.0958 34.3662 22.0343 35.0882 21.0606C34.5919 20.6592 33.4827 19.9538 33.4922 18.8257C33.4946 18.5929 33.5469 18.3554 33.6751 18.1132C34.0052 18.7924 34.827 20.0203 35.9053 20.8611C36.1594 21.0606 36.252 21.4002 36.1261 21.6971C35.8316 22.3882 35.4231 23.5686 35.8934 23.8892C36.5703 24.3523 37.9596 21.9559 37.7672 21.0297C37.7672 21.0297 35.2616 19.2223 34.3069 17.3389C34.3282 17.3247 34.3211 17.3294 34.3449 17.3152C35.1928 18.3103 36.2496 19.1249 37.4276 19.6926C37.7957 19.8707 38.1971 20.0417 38.4299 20.3789C38.7861 20.9062 38.6009 21.6163 38.4014 22.2219Z" fill="#31C418"/>
<path d="M37.3073 19.6191C35.9084 18.7261 33.6189 17.3201 32.771 13.7314C32.1867 11.2543 32.8137 8.53256 34.3171 6.48056C35.6115 4.71594 37.597 3.43819 39.7654 3.14369C41.9338 2.84919 44.2494 3.58543 45.7456 5.18381C46.8951 6.40931 47.5198 8.05519 47.781 9.71531C48.1135 11.8267 47.7715 13.6626 46.9284 15.6267C45.7575 18.3627 42.1736 22.7303 37.3073 19.6191Z" fill="#62ED2E"/>
<g opacity="0.6">
<path d="M47.7892 9.71238C47.528 8.05226 46.9034 6.40638 45.7539 5.18088C44.2576 3.58251 41.942 2.84626 39.7736 3.14076C37.6052 3.43526 35.6174 4.71301 34.3254 6.47763C32.9977 8.28976 32.3541 10.6196 32.6225 12.8426C32.6652 11.002 33.2922 9.16851 34.3824 7.68176C35.5699 6.06201 37.3416 4.85551 39.301 4.43988C39.2962 4.46838 39.2939 4.49926 39.2939 4.52776C39.2939 5.05026 40.0277 5.47301 40.935 5.47301C41.8422 5.47301 42.5761 5.05026 42.5761 4.52776C42.5761 4.52063 42.5737 4.51588 42.5737 4.50876C43.804 4.82226 44.9464 5.45876 45.8132 6.38263C46.9627 7.60813 47.5874 9.25401 47.8486 10.9141C47.8747 11.0851 47.8985 11.2538 47.9151 11.4176C47.9199 10.8666 47.8795 10.3014 47.7892 9.71238Z" fill="white"/>
</g>
<path d="M46.9407 15.6242C45.7651 18.3602 42.1813 22.7302 37.3149 19.619C35.916 18.726 33.6265 17.32 32.7786 13.7313C32.6361 13.1281 32.5649 12.513 32.5625 11.8931C32.5744 11.9453 32.5862 12 32.5981 12.0522C33.446 15.6408 35.5194 17.206 36.9159 18.1013C41.7823 21.2126 45.5846 16.6835 46.7603 13.9451C47.4205 12.4061 47.772 10.9455 47.734 9.37085C47.7554 9.48485 47.7744 9.59885 47.7934 9.71285C48.1235 11.8242 47.7815 13.6601 46.9407 15.6242Z" fill="#31C418"/>
<path d="M36.4058 25.6535C36.0567 25.6535 35.7028 25.6393 35.3489 25.606C35.1993 25.5942 35.0449 25.5775 34.8739 25.5562C31.6748 25.1453 28.7654 23.6205 26.3216 22.1504C24.6377 23.2144 22.4717 23.4305 20.7356 22.6967C18.8949 21.9177 17.5222 20.058 17.3227 18.0702C17.1232 16.0823 18.0946 13.9852 19.7428 12.8547C20.7854 12.1398 22.3434 11.7265 23.6853 12.2562C23.8753 11.1399 24.3788 10.2279 25.1507 9.6009C25.9534 8.95253 27.0103 8.64378 28.0363 8.7459C28.9578 6.30678 30.9504 3.19078 35.2444 1.61378C38.8188 0.298029 42.4763 0.127029 45.5401 1.13165C48.7297 2.17903 51.5726 4.23103 53.5723 6.92665C54.8596 6.50628 56.2941 6.62028 57.3771 7.23778C58.4933 7.87428 59.2794 9.06415 59.4504 10.3372C59.4884 10.3372 59.5264 10.3348 59.5668 10.3348C61.7922 10.3348 63.9677 11.7479 64.7609 13.7738C65.5969 15.9089 64.9106 18.5689 63.1269 20.0984C61.4597 21.5282 58.9873 21.9177 56.8926 21.1078C55.3892 23.0933 53.0498 24.4518 50.5798 24.7605C48.8698 24.9743 47.1147 24.7059 45.5092 23.9815C44.8299 23.6775 44.1958 23.2975 43.6187 22.851C41.8493 24.6442 39.2321 25.6535 36.4058 25.6535ZM26.3144 21.3643C26.3786 21.3643 26.4427 21.3809 26.5021 21.4165C28.9198 22.8819 31.8149 24.4375 34.9666 24.8413C35.1257 24.8603 35.2729 24.8769 35.4131 24.8888C38.5433 25.1643 41.4954 24.1312 43.3171 22.1219C43.4477 21.9794 43.6662 21.9628 43.8158 22.0863C44.4119 22.585 45.0793 23.0007 45.8037 23.326C47.2904 23.9958 48.9102 24.2428 50.4896 24.0457C52.8574 23.7488 55.0971 22.4069 56.4746 20.4594C56.5743 20.3193 56.7572 20.2694 56.9139 20.3383C58.8163 21.1838 61.1248 20.8679 62.6567 19.5522C64.2147 18.2174 64.8156 15.897 64.0888 14.0374C63.3526 12.1564 61.2317 10.8834 59.1559 11.0758C59.0562 11.0853 58.9588 11.052 58.8852 10.9879C58.8116 10.9238 58.7664 10.8312 58.7617 10.7314C58.7142 9.56765 58.0302 8.4419 57.0184 7.86478C56.0447 7.30903 54.7242 7.24253 53.5699 7.69378C53.4156 7.75315 53.2422 7.7009 53.1448 7.5679C51.2282 4.88653 48.4471 2.84403 45.3144 1.81803C42.4027 0.863279 38.9162 1.0319 35.4914 2.29065C31.2948 3.83203 29.4328 6.93378 28.6134 9.26365C28.5541 9.4299 28.3831 9.52965 28.2073 9.49878C27.2953 9.33015 26.3216 9.57953 25.6019 10.1614C24.8681 10.7552 24.4311 11.679 24.3361 12.8309C24.3266 12.9544 24.2529 13.066 24.1413 13.123C24.0297 13.18 23.8967 13.1753 23.7922 13.1112C22.6332 12.4129 21.1274 12.7787 20.1489 13.4484C18.7121 14.434 17.8642 16.2628 18.0376 17.9965C18.2133 19.7303 19.4079 21.3524 21.0158 22.0317C22.5999 22.7014 24.5997 22.4639 26.1102 21.426C26.1696 21.3857 26.2408 21.3643 26.3144 21.3643Z" fill="#371A45"/>
<path d="M40.627 20.9932C39.4822 20.9932 38.3161 20.618 37.1476 19.8699L37.0716 19.82C35.6775 18.9294 33.3429 17.4402 32.4831 13.797C31.8894 11.2771 32.4855 8.47461 34.0791 6.29911C35.4685 4.40149 37.53 3.14036 39.7292 2.84111C42.0496 2.52524 44.4412 3.34224 45.9707 4.97386C47.0537 6.12811 47.7829 7.75024 48.0845 9.66449C48.4051 11.7094 48.1367 13.5832 47.2129 15.7397C46.422 17.5827 44.6312 20.0029 42.1945 20.7534C41.6767 20.9149 41.1542 20.9932 40.627 20.9932ZM40.7291 3.37786C40.4251 3.37786 40.1187 3.39924 39.8147 3.43961C37.7746 3.71749 35.8627 4.89074 34.5684 6.65774C33.0769 8.69311 32.5164 11.3127 33.0721 13.664C33.8772 17.0697 35.9957 18.4235 37.3994 19.3189L37.4754 19.3687C39.0262 20.3615 40.5557 20.6346 42.0211 20.1857C44.2631 19.497 45.9232 17.236 46.6642 15.5094C47.5406 13.4621 47.7971 11.6904 47.4955 9.76186C47.2129 7.96636 46.536 6.45586 45.5361 5.38949C44.3367 4.10699 42.5555 3.37786 40.7291 3.37786Z" fill="#371A45"/>
<path d="M39.6336 18.5836C39.5339 18.5836 39.4531 18.5028 39.4531 18.4054C39.4531 18.3057 39.5315 18.2249 39.6313 18.2249C40.0635 18.2226 40.5219 17.9091 40.795 17.4293C40.8449 17.3438 40.9541 17.3129 41.0396 17.3628C41.1251 17.4127 41.156 17.5219 41.1061 17.6074C40.7665 18.2036 40.2036 18.5788 39.6336 18.5836Z" fill="#371A45"/>
<path d="M35.3916 25.5891C35.0401 25.5891 34.6933 25.4846 34.3561 25.278C33.9214 25.0096 33.6531 24.6391 33.5652 24.176C33.4132 23.3875 33.7742 22.3853 34.672 21.1194C34.0972 20.6776 33.1781 19.9461 33.1876 18.8228C33.1923 18.21 33.5035 17.64 34.1376 17.0866C34.197 17.0344 34.2777 17.0083 34.3584 17.013C34.4392 17.0178 34.5128 17.0558 34.5651 17.1175C35.3845 18.0794 36.4176 18.8774 37.5528 19.4236L37.6454 19.4688C38.0064 19.6398 38.4149 19.8345 38.6714 20.2121C39.0894 20.8249 38.9232 21.5849 38.6833 22.3164C38.5479 22.7273 37.5504 24.9218 36.0613 25.468C35.8357 25.5464 35.6124 25.5891 35.3916 25.5891ZM34.3133 17.7421C33.8502 18.2195 33.7884 18.5829 33.7861 18.8251C33.7789 19.673 34.5556 20.2691 35.0686 20.6658C35.1422 20.7228 35.2111 20.775 35.2704 20.8249C35.3963 20.927 35.4177 21.1075 35.3227 21.2358C34.4202 22.4541 34.0259 23.4041 34.1518 24.0573C34.2088 24.3541 34.3774 24.5845 34.6696 24.7626C35.0591 25.0025 35.4486 25.0476 35.8547 24.898C37.0184 24.4729 37.9518 22.6109 38.1109 22.124C38.3033 21.5398 38.4434 20.9436 38.1727 20.547C38.0064 20.3024 37.7024 20.1599 37.3818 20.0055L37.2868 19.9604C36.1729 19.426 35.1517 18.6613 34.3133 17.7421Z" fill="#371A45"/>
<path d="M35.1381 20.6756C35.4421 20.8965 35.7152 21.1031 36.0335 21.2646C36.1119 21.305 36.1404 21.4 36.1024 21.476C36.0691 21.5401 35.9979 21.5733 35.929 21.5591C35.5561 21.4807 35.188 21.3335 34.8531 21.2028H34.8507C34.694 21.1435 34.6156 20.9677 34.6774 20.811C34.7367 20.6542 34.9125 20.5758 35.0692 20.6376C35.093 20.6471 35.1167 20.6613 35.1381 20.6756Z" fill="#371A45"/>
<path d="M35.2831 18.336C35.143 18.4144 35.0195 18.4975 34.9316 18.602C34.8413 18.7041 34.7891 18.8419 34.7748 19.0034V19.0081C34.7677 19.0865 34.6988 19.1435 34.6205 19.1364C34.5563 19.1292 34.5065 19.0817 34.4946 19.0224C34.4756 18.925 34.4637 18.8205 34.4708 18.7112C34.478 18.602 34.5041 18.4904 34.5468 18.3882C34.6323 18.1792 34.7725 18.0106 34.9102 17.8657L34.915 17.861C35.0313 17.7399 35.2237 17.7351 35.3448 17.8515C35.466 17.9679 35.4707 18.1602 35.3543 18.2814C35.333 18.3027 35.3068 18.3217 35.2831 18.336Z" fill="#371A45"/>
<path d="M41.7922 12.933C42.868 11.5507 44.4023 11.3394 45.3167 12.2537C46.1693 13.1064 46.0363 14.7119 44.6374 15.7782C43.3311 16.7734 41.6188 17.0275 41.1129 16.4575C40.5833 15.8637 40.7828 14.2297 41.7922 12.933Z" fill="#371A45"/>
<g opacity="0.6">
<path d="M41.7891 13.4888C42.865 12.1065 44.3992 11.8952 45.3136 12.8095C45.5986 13.0945 45.772 13.465 45.8266 13.8688C45.905 13.2513 45.7245 12.6647 45.3136 12.2538C44.3992 11.3394 42.865 11.5532 41.7891 12.933C41.0623 13.8688 40.7583 14.9779 40.8415 15.7474C40.9103 15.0492 41.2215 14.2155 41.7891 13.4888Z" fill="white"/>
</g>
<path d="M37.57 14.0564C36.7269 12.9734 35.5251 12.8071 34.8079 13.5244C34.1405 14.1917 34.2426 15.4505 35.3399 16.2865C36.3635 17.0655 37.7054 17.265 38.102 16.8185C38.5176 16.353 38.3609 15.0705 37.57 14.0564Z" fill="#371A45"/>
<g opacity="0.6">
<path d="M34.6919 13.9186C35.4092 13.2014 36.6109 13.3676 37.4541 14.4506C38.0359 15.1964 38.2734 16.0846 38.1927 16.6902C38.4896 16.1487 38.3019 14.9921 37.5728 14.0564C36.7297 12.9734 35.5279 12.8071 34.8107 13.5244C34.5969 13.7381 34.4616 14.0136 34.4141 14.3176C34.4829 14.1704 34.5756 14.035 34.6919 13.9186Z" fill="white"/>
</g>
<path d="M41.2509 17.9984C41.1607 17.9984 41.0823 17.9319 41.0728 17.8392C41.0609 17.7371 41.0039 17.6397 40.9232 17.578C40.8424 17.5162 40.7332 17.4877 40.6334 17.4996C40.5337 17.5139 40.4434 17.445 40.4316 17.3452C40.4173 17.2455 40.4862 17.1552 40.5859 17.1434C40.7831 17.1172 40.9873 17.1719 41.1464 17.293C41.3056 17.4165 41.4101 17.5994 41.4338 17.7965C41.4457 17.8962 41.3744 17.9841 41.2771 17.996C41.2652 17.9984 41.2581 17.9984 41.2509 17.9984Z" fill="#371A45"/>
<path d="M53.6738 7.69204C53.3626 7.80367 53.0563 7.93429 52.757 8.08629C52.4554 8.23592 52.1585 8.40454 51.8593 8.57792C51.7833 8.62304 51.6835 8.59692 51.6384 8.51854C51.6004 8.44967 51.6146 8.36654 51.6716 8.31667C51.9329 8.09104 52.1965 7.86304 52.4768 7.64692C52.757 7.43079 53.0539 7.22892 53.3603 7.04367L53.3626 7.04129C53.5336 6.93917 53.7569 6.99379 53.859 7.16717C53.9611 7.33817 53.9065 7.56142 53.7331 7.66354C53.7165 7.67542 53.6951 7.68492 53.6738 7.69204Z" fill="#371A45"/>
<path d="M59.538 10.8075C59.5095 11.0925 59.462 11.3823 59.386 11.6602C59.3124 11.9404 59.2127 12.204 59.1082 12.4582C59.0678 12.5555 58.9585 12.603 58.8612 12.5627C58.7757 12.527 58.7305 12.4392 58.7448 12.3537C58.7923 12.0877 58.8303 11.8288 58.8422 11.5723C58.8564 11.3158 58.8445 11.0617 58.816 10.8075C58.7947 10.608 58.9372 10.4299 59.1367 10.4062C59.3362 10.3848 59.5143 10.5273 59.538 10.7268C59.5404 10.7529 59.5404 10.7767 59.538 10.8004V10.8075Z" fill="#371A45"/>
<path d="M28.3636 8.77691C28.7721 8.89091 29.1711 9.05953 29.5321 9.28041C29.8931 9.50128 30.209 9.76966 30.5011 10.0475C30.5819 10.1259 30.5866 10.2542 30.5082 10.3373C30.437 10.4133 30.3206 10.4204 30.2399 10.361C29.9264 10.133 29.6057 9.92641 29.2685 9.77916C28.9312 9.62953 28.5774 9.53216 28.2164 9.48228C28.0192 9.45378 27.8815 9.27091 27.91 9.07378C27.9385 8.87666 28.1214 8.73891 28.3185 8.76741C28.3327 8.76978 28.3494 8.77216 28.3636 8.77691Z" fill="#371A45"/>
<path d="M26.1593 22.0434C25.8196 21.7798 25.5608 21.4758 25.328 21.1528C25.1 20.8298 24.9029 20.4854 24.7628 20.1149C24.7248 20.0176 24.7746 19.9083 24.872 19.8703C24.9599 19.8371 25.0573 19.8727 25.1024 19.9534L25.1048 19.9558C25.2805 20.2646 25.5038 20.5472 25.7508 20.8013C25.9978 21.0531 26.2733 21.2858 26.5559 21.4402C26.7316 21.5352 26.7958 21.7561 26.6984 21.9318C26.601 22.1076 26.3825 22.1717 26.2068 22.0743C26.1901 22.0648 26.1735 22.0553 26.1593 22.0434Z" fill="#371A45"/>
<path d="M47.008 24.1596C45.7873 23.8318 44.5926 23.3022 43.5286 22.5826C43.1225 22.8723 42.7829 23.1146 42.4029 23.2713C42.0229 23.4305 41.593 23.5017 41.1964 23.3925C40.4791 23.193 40.0231 22.4068 40.0564 21.6635C40.0778 21.1671 40.2796 20.6992 40.5789 20.3002C40.7285 20.1007 40.9019 19.9155 41.0919 19.754C41.5123 19.393 42.0181 19.1151 42.5691 19.0391C43.1178 18.9631 43.6593 19.0652 44.2673 19.4191C44.3623 19.3146 44.443 19.222 44.5166 19.1365C44.7043 18.9132 44.8396 18.7398 45.0534 18.5332C46.2243 19.0201 47.1553 19.8442 47.5828 20.9272C48.0079 22.0031 47.8416 23.3497 47.008 24.1596Z" fill="#62ED2E"/>
<path d="M47.008 24.1598C45.7873 23.832 44.5926 23.3024 43.5286 22.5828C43.1225 22.8725 42.7829 23.1148 42.4029 23.2715C42.0229 23.4306 41.593 23.5019 41.1964 23.3926C40.4791 23.1931 40.0231 22.407 40.0564 21.6636C40.0778 21.1673 40.2796 20.6994 40.5789 20.3004C40.8354 21.2741 41.5194 22.3286 43.3315 21.5876C43.3315 21.5876 45.9844 22.6588 46.4855 22.426C46.8964 22.236 45.7326 20.2363 44.5166 19.1343C44.7043 18.911 44.8396 18.7376 45.0534 18.531C46.2243 19.0179 47.1553 19.842 47.5828 20.925C48.0079 22.0033 47.8416 23.3499 47.008 24.1598Z" fill="#31C418"/>
<path d="M47.0107 24.4593C46.9845 24.4593 46.9584 24.4569 46.9323 24.4498C45.721 24.1244 44.5525 23.6067 43.536 22.9464C43.2035 23.1815 42.8805 23.3977 42.5195 23.5473C42.1775 23.6898 41.655 23.8299 41.1183 23.6803C40.3037 23.4547 39.7194 22.5807 39.7598 21.6473C39.793 20.8897 40.2087 20.1154 40.8998 19.5217C41.4057 19.087 41.9685 18.8139 42.529 18.7355C43.1014 18.6548 43.6382 18.7498 44.2034 19.0348C44.277 18.9493 44.3435 18.8709 44.4077 18.7949C44.5407 18.6334 44.6689 18.4814 44.8447 18.3104C44.9302 18.2273 45.0584 18.2012 45.17 18.2487C46.4668 18.7878 47.4239 19.6974 47.8633 20.8089C48.3573 22.0605 48.0913 23.5259 47.2197 24.3714C47.1627 24.4308 47.0867 24.4593 47.0107 24.4593ZM43.5313 22.2814C43.5907 22.2814 43.65 22.298 43.6999 22.3337C44.6523 22.9797 45.7614 23.4927 46.918 23.8228C47.5284 23.1269 47.6899 22.0059 47.3052 21.0322C46.9465 20.1249 46.177 19.3697 45.1273 18.8875C45.037 18.9849 44.9587 19.0799 44.8708 19.1844C44.7663 19.3103 44.6475 19.4504 44.4908 19.6214C44.3958 19.7235 44.2414 19.7473 44.1203 19.676C43.5978 19.372 43.118 19.2628 42.6145 19.334C42.168 19.3958 41.712 19.619 41.2917 19.98C40.724 20.4669 40.3844 21.0844 40.3607 21.6758C40.3322 22.3242 40.7359 22.9512 41.2798 23.1032C41.6527 23.2077 42.035 23.1008 42.2892 22.9963C42.6478 22.8467 42.9922 22.5997 43.3555 22.3408C43.4078 22.3004 43.4695 22.2814 43.5313 22.2814Z" fill="#371A45"/>
<path d="M44.4285 19.1454C44.9867 19.5824 45.4807 20.1002 45.8915 20.6583C45.9343 20.7177 45.9224 20.8032 45.863 20.8459C45.8084 20.8863 45.7348 20.8792 45.6897 20.8341C45.2052 20.3614 44.6732 19.9624 44.0937 19.6418C43.9488 19.5611 43.8942 19.3782 43.9749 19.2333C44.0557 19.0884 44.2385 19.0338 44.3834 19.1146C44.3977 19.1217 44.4095 19.1312 44.4238 19.1407L44.4285 19.1454Z" fill="#371A45"/>
<path d="M40.1369 22.6683C40.3412 22.1102 40.7188 21.64 41.1819 21.3288C41.2437 21.2861 41.3292 21.3027 41.3696 21.3668C41.4052 21.4215 41.3981 21.4927 41.3553 21.5378C41.0062 21.8988 40.7829 22.3596 40.7188 22.8227C40.6951 22.989 40.5431 23.103 40.3768 23.0792C40.2106 23.0555 40.0966 22.9035 40.1203 22.7372C40.1227 22.7158 40.1274 22.6968 40.1346 22.6755L40.1369 22.6683Z" fill="#371A45"/>
<path d="M39.3361 48.8502C32.603 67.178 6.82233 58.7373 11.3705 40.4925C17.8162 21.5662 44.4566 30.3157 39.3361 48.8502Z" fill="white"/>
<path d="M39.3361 48.8502C32.603 67.178 6.82233 58.7373 11.3705 40.4925C17.8162 21.5662 44.4566 30.3157 39.3361 48.8502Z" fill="white"/>
<path d="M39.3361 48.8502C32.603 67.178 6.82233 58.7373 11.3705 40.4925C17.8162 21.5662 44.4566 30.3157 39.3361 48.8502Z" fill="white"/>
<path d="M25.6655 59.3599C24.1526 59.3599 22.6184 59.1295 21.115 58.6688C17.5406 57.5715 14.541 55.2891 12.6624 52.2468C10.5629 48.8458 10.0261 44.756 11.1044 40.424L11.1115 40.4026C12.6268 35.959 15.3628 32.6981 19.0298 30.9763C22.2811 29.4468 26.0716 29.2235 29.703 30.3421C33.3415 31.4631 36.3768 33.7906 38.2483 36.8924C40.3454 40.3694 40.8133 44.5304 39.5996 48.9241L39.5925 48.9455C38.0084 53.2538 35.2581 56.4125 31.6339 58.075C29.7743 58.93 27.7413 59.3599 25.6655 59.3599ZM11.634 40.5689C9.316 49.8955 15.0041 56.2178 21.2741 58.1463C27.6914 60.1175 35.6833 57.9824 39.0748 48.7674C41.6873 39.2911 35.9659 32.8454 29.5415 30.8646C23.1813 28.9029 14.864 31.1045 11.634 40.5689Z" fill="#371A45"/>
<g opacity="0.25">
<path d="M39.3417 48.8481C33.8008 64.7796 11.5304 61.0366 10.8203 44.8414C12.7274 49.7719 14.5301 49.6461 17.7102 51.7432C27.5759 58.7328 39.3821 50.0284 39.0923 39.3979C40.2394 42.4807 40.2893 45.8081 39.3417 48.8481Z" fill="#371A45"/>
</g>
<path d="M25.6673 59.4714C24.1426 59.4714 22.5988 59.2411 21.0836 58.7756C17.4854 57.6688 14.4621 55.3722 12.5692 52.306C10.4554 48.8789 9.91156 44.7607 10.9993 40.3978L11.0088 40.3669C12.5336 35.8948 15.2909 32.6126 18.9841 30.8741C22.2616 29.3351 26.0782 29.1071 29.7357 30.2328C33.4003 31.3633 36.4569 33.7051 38.3427 36.8306C40.4564 40.3337 40.9291 44.5232 39.7059 48.9478L39.6964 48.9787C38.1028 53.3154 35.3312 56.4956 31.6808 58.1699C29.8093 59.0368 27.7573 59.4714 25.6673 59.4714ZM11.7427 40.5997C9.44368 49.8551 15.0891 56.1274 21.3116 58.0393C27.6789 59.9963 35.6067 57.8754 38.9744 48.7317C41.5632 39.3291 35.8869 32.9332 29.5124 30.9691C23.1997 29.0239 14.9489 31.2089 11.7427 40.5997Z" fill="#293856"/>
<path d="M25.6673 59.4714C24.1426 59.4714 22.5988 59.2411 21.0836 58.7756C17.4854 57.6688 14.4621 55.3722 12.5692 52.306C10.4554 48.8789 9.91156 44.7607 10.9993 40.3978L11.0088 40.3669C12.5336 35.8948 15.2909 32.6126 18.9841 30.8741C22.2616 29.3351 26.0782 29.1071 29.7357 30.2328C33.4003 31.3633 36.4569 33.7051 38.3427 36.8306C40.4564 40.3337 40.9291 44.5232 39.7059 48.9478L39.6964 48.9787C38.1028 53.3154 35.3312 56.4956 31.6808 58.1699C29.8093 59.0368 27.7573 59.4714 25.6673 59.4714ZM11.7427 40.5997C9.44368 49.8551 15.0891 56.1274 21.3116 58.0393C27.6789 59.9963 35.6067 57.8754 38.9744 48.7317C41.5632 39.3291 35.8869 32.9332 29.5124 30.9691C23.1997 29.0239 14.9489 31.2089 11.7427 40.5997Z" fill="#371A45"/>
<path d="M37.7769 52.2464C25.5267 64.2377 9.23417 50.5079 17.7177 38.1246C28.0608 24.8365 46.3625 37.0701 37.7769 52.2464Z" fill="#371A45"/>
<path d="M39.1841 41.4478C42.9532 56.4768 21.7469 63.0294 16.0469 49.8553C24.9341 56.2535 36.9445 49.7199 39.1841 41.4478Z" fill="#21102B"/>
<path d="M27.2109 58.7565C26.2276 58.7565 25.2325 58.6473 24.2445 58.424C21.0454 57.702 18.2025 55.897 16.2384 53.3391C14.0724 50.5176 13.1604 47.0406 13.5998 43.2882C14.1579 39.405 16.4616 35.7998 19.9244 33.3868C23.399 30.9643 27.6051 30.0499 31.4621 30.874L31.5239 30.893C34.9154 32.2515 37.6205 34.9662 39.1381 38.5382C40.5702 41.913 40.7769 45.7154 39.701 48.9715V48.9739C38.4114 52.781 36.1528 55.65 33.165 57.2722C31.3576 58.253 29.3128 58.7565 27.2109 58.7565ZM28.6287 31.3443C25.7764 31.3443 22.8741 32.2681 20.3637 34.0161C17.0744 36.308 14.887 39.7233 14.3598 43.3879C13.4573 51.0734 18.7345 56.3958 24.4131 57.6759C29.3531 58.7898 36.1314 57.1154 38.9719 48.7293C40.9455 42.7538 38.3188 34.4603 31.2698 31.6198C30.4029 31.4345 29.517 31.3443 28.6287 31.3443Z" fill="#371A45"/>
<path d="M27.4638 57.2531C24.4761 57.2531 21.5976 56.2081 19.2986 54.2796C17.0495 52.3914 15.5675 49.8169 15.1257 47.0311C14.6365 43.9531 15.4226 40.7991 17.4033 37.9111L17.4176 37.8921C19.8662 34.7476 22.9276 32.7882 26.2763 32.2277C29.2878 31.7242 32.3587 32.3892 34.9261 34.0992C37.5528 35.8496 39.3816 38.5143 40.0798 41.5971C40.8565 45.0432 40.1796 48.7909 38.1157 52.4366L38.0896 52.4841L38.0516 52.5221C35.0496 55.4599 31.5773 57.0916 28.0053 57.2412C27.8225 57.2483 27.642 57.2531 27.4638 57.2531ZM18.0303 38.3528C13.8717 44.4328 15.919 50.4344 19.795 53.6882C24.0628 57.2721 31.1807 58.1366 37.4721 52.0091C41.7661 44.3687 38.947 37.7021 34.4986 34.7357C30.0241 31.7551 23.2007 31.7194 18.0303 38.3528Z" fill="#371A45"/>
<path d="M10.0615 51.3629C12.598 57.7635 19.2266 55.759 17.4193 49.4035C15.0063 42.5991 7.92164 44.7414 10.0615 51.3629Z" fill="white"/>
<g opacity="0.35">
<path d="M15.4454 55.1683C17.4356 54.5816 18.3215 51.7744 17.3074 49.0764C16.7279 52.2921 12.5265 48.2024 11.9874 46.8748C7.11624 49.4065 11.8116 56.3249 15.4454 55.1683Z" fill="#371A45"/>
</g>
<path d="M14.5404 55.6618C12.8494 55.6618 10.8734 54.4648 9.69779 51.5032L9.68828 51.4795C8.53878 47.9193 9.95666 45.6393 11.7593 45.0266C13.759 44.3497 16.4665 45.5895 17.7728 49.2731L17.7799 49.2968C18.756 52.7335 17.4023 54.8805 15.6258 55.4837C15.2909 55.6025 14.9228 55.6618 14.5404 55.6618ZM10.4174 51.2325C11.6714 54.3865 13.8707 55.2723 15.3835 54.757C16.8133 54.2725 17.882 52.4651 17.0484 49.5201C15.906 46.3138 13.6498 45.2 12.0087 45.7557C10.5528 46.2497 9.43416 48.1735 10.4174 51.2325Z" fill="#371A45"/>
<path d="M9.8852 51.7952C11.9467 56.9798 16.9366 55.5619 15.4783 50.4224C13.5261 44.8364 8.10395 46.3825 9.8852 51.7952Z" fill="white"/>
<path d="M13.4566 55.4316C12.1171 55.4316 10.5163 54.4222 9.52597 51.9356L9.51884 51.9142C8.55459 48.9811 9.62096 47.1357 11.0198 46.6607C12.5968 46.1264 14.7581 47.2022 15.8363 50.2945L15.8435 50.3159C16.6391 53.116 15.6202 54.8379 14.2593 55.301C14.01 55.3865 13.7392 55.4316 13.4566 55.4316ZM10.2456 51.6625C11.2573 54.199 12.908 54.9495 14.0147 54.5742C15.0312 54.2299 15.7627 52.8476 15.1096 50.5367C14.1928 47.9242 12.4828 46.9742 11.2668 47.3875C10.2171 47.7461 9.44997 49.2352 10.2456 51.6625Z" fill="#371A45"/>
<g opacity="0.5">
<path d="M18.0314 46.2121C19.4351 48.7486 22.3421 47.2001 21.4989 44.8013C20.2639 41.8397 16.8083 43.6091 18.0314 46.2121Z" fill="white"/>
</g>
<g opacity="0.5">
<path d="M20.6811 50.0902C21.2725 51.0284 22.5574 50.3753 22.0088 49.297C21.415 48.3565 20.1301 49.0096 20.6811 50.0902Z" fill="white"/>
</g>
<g opacity="0.5">
<path d="M37.5828 42.7111C37.0056 32.197 26.2113 33.2562 23.5156 36.1252C30.3485 35.0683 34.2649 38.5477 37.5828 42.7111Z" fill="white"/>
</g>
<g opacity="0.25">
<path d="M16.0263 51.5792C15.9503 50.7979 15.6629 50.0355 15.2307 49.3752C15.0953 53.2299 11.0744 52.4532 9.63281 50.0379C10.0461 55.5977 16.0833 56.8707 16.0263 51.5792Z" fill="#371A45"/>
</g>
<path d="M37.389 17.175C36.7596 17.175 35.9355 16.89 35.2705 16.3818C34.6815 15.9329 34.3205 15.3178 34.2778 14.6931C34.2445 14.2063 34.4036 13.7621 34.7266 13.4391C35.0568 13.109 35.4938 12.9451 35.964 12.9736C36.5863 13.0116 37.1895 13.3703 37.6669 13.983C38.4435 14.9805 38.6905 16.3438 38.1941 16.8995C38.0279 17.0848 37.7381 17.175 37.389 17.175ZM35.8548 13.2088C35.4866 13.2088 35.1565 13.3465 34.8953 13.6078C34.6221 13.8809 34.4891 14.2585 34.5176 14.6741C34.5556 15.2299 34.8834 15.7809 35.4154 16.1894C36.4058 16.9446 37.674 17.1204 38.016 16.738C38.3841 16.3248 38.2298 15.0945 37.4793 14.1303C37.0518 13.5816 36.4936 13.2468 35.9498 13.2135C35.9189 13.2111 35.8856 13.2088 35.8548 13.2088Z" fill="#371A45"/>
<path d="M42.0197 16.8803C41.5827 16.8803 41.224 16.7711 41.0174 16.5383C40.4664 15.9185 40.6089 14.256 41.6919 12.8618C42.2952 12.0876 43.0575 11.634 43.8413 11.5865C44.4303 11.5508 44.9813 11.7575 45.3945 12.1707C45.7983 12.5745 45.9978 13.135 45.9574 13.7453C45.9052 14.5338 45.4468 15.3081 44.7034 15.8757C43.8579 16.517 42.8105 16.8803 42.0197 16.8803ZM41.8795 13.0067C40.8963 14.2702 40.7063 15.8282 41.1955 16.3768C41.6397 16.878 43.2784 16.6547 44.5562 15.681C45.2449 15.1561 45.6677 14.4436 45.7152 13.7263C45.7508 13.1848 45.5774 12.6908 45.2235 12.337C44.8602 11.9736 44.3757 11.7907 43.8532 11.8216C43.1525 11.8691 42.4329 12.299 41.8795 13.0067Z" fill="#371A45"/>
</svg>
