<svg width="95" height="95" viewBox="0 0 95 95" fill="none" xmlns="http://www.w3.org/2000/svg">
<g clip-path="url(#clip0_2_64421)">
<path d="M95 0H0V95H95V0Z" fill="#FFC700"/>
<g opacity="0.2">
<path d="M47.17 87.044C60.1688 87.044 70.7063 85.2342 70.7063 83.0017C70.7063 80.7692 60.1688 78.9595 47.17 78.9595C34.1713 78.9595 23.6338 80.7692 23.6338 83.0017C23.6338 85.2342 34.1713 87.044 47.17 87.044Z" fill="#371A45"/>
</g>
<path d="M28.1582 60.5364C28.6498 64.2366 33.1505 70.699 39.525 66.1081C44.2156 62.7332 45.1988 54.0241 45.1988 54.0241C45.1988 54.0241 54.022 48.5212 47.8636 48.9416C43.4817 49.2409 42.1588 52.706 38.8885 55.404C37.625 56.4466 36.0717 57.3729 33.9366 57.9619C33.8321 57.9904 33.7252 58.0189 33.616 58.0474L28.1582 60.5364Z" fill="#62ED2E"/>
<path d="M28.1582 60.5364C28.6498 64.2366 33.1505 70.699 39.525 66.1081C44.2156 62.7332 45.1988 54.0241 45.1988 54.0241C45.1988 54.0241 54.022 48.5212 47.8636 48.9416C43.4817 49.2409 42.1588 52.706 38.8885 55.404C40.722 60.2609 38.4871 63.4362 36.7985 63.5217C35.0338 63.6096 37.0193 59.5246 37.0193 59.5246L33.9366 57.9595C33.8321 57.988 33.7252 58.0165 33.616 58.045L28.1582 60.5364Z" fill="#31C418"/>
<path d="M35.2028 68.1747C34.2599 68.1747 33.4524 67.9562 32.8088 67.6783C29.9255 66.4338 28.0136 63.1041 27.6811 60.6008C27.6455 60.3372 27.8308 60.095 28.0944 60.0593C28.358 60.0237 28.6003 60.209 28.6359 60.4726C28.9375 62.7431 30.7235 65.7261 33.1888 66.7901C35.0816 67.6071 37.1194 67.2461 39.245 65.7166C43.7076 62.5032 44.7123 54.053 44.7218 53.9698C44.7384 53.8226 44.8215 53.692 44.945 53.616C44.9569 53.6088 46.237 52.8085 47.453 51.8608C49.638 50.1627 49.5668 49.5998 49.5644 49.5951C49.5644 49.5951 49.3459 49.3243 47.8971 49.4217C45.059 49.6141 43.577 51.2433 41.8599 53.1291C40.0145 55.1573 37.9245 57.454 33.735 58.5108C33.4761 58.575 33.2149 58.4182 33.1508 58.1617C33.0866 57.9028 33.241 57.6416 33.4999 57.5775C37.4044 56.5918 39.3068 54.5018 41.1474 52.4807C42.9263 50.5261 44.6078 48.6783 47.8306 48.4598C48.8305 48.391 50.1914 48.4052 50.4811 49.2982C50.7353 50.0843 49.9895 51.1032 48.0658 52.6042C47.073 53.3785 46.0636 54.0411 45.648 54.3095C45.4533 55.7582 44.2373 63.3107 39.8055 66.5003C38.0623 67.7567 36.5019 68.1747 35.2028 68.1747Z" fill="#371A45"/>
<path d="M39.5915 82.9542C40.1116 83.0326 43.5578 83.0326 44.8949 83.0326C46.1726 83.0326 48.7875 83.0944 49.1153 81.5601C49.4193 80.1327 47.8446 76.727 47.9681 75.1144C48.2959 70.7539 57.7056 71.0341 57.7056 71.0341L46.327 65.5479C44.6906 65.764 43.3986 66.1511 42.3916 66.657C35.7488 69.9986 41.4037 78.6056 41.4037 78.6056C41.4037 78.6056 39.0595 78.8431 38.3708 80.1755C38.2378 80.432 38.1594 80.6813 38.1238 80.9212C37.9646 81.9805 38.6819 82.8141 39.5915 82.9542Z" fill="#62ED2E"/>
<path d="M39.5915 82.9542C40.1116 83.0326 43.5578 83.0326 44.8949 83.0326C46.1726 83.0326 48.7875 83.0944 49.1153 81.5601C49.4193 80.1327 47.8446 76.727 47.9681 75.1144C48.2959 70.7539 57.7056 71.0341 57.7056 71.0341L46.327 65.5479C44.6906 65.764 43.3986 66.1511 42.3916 66.657C42.413 68.0654 42.755 70.4784 44.4793 73.1953C47.3601 77.7435 47.6926 80.8761 45.358 81.5102C42.907 82.1776 40.6698 81.5577 40.8788 80.2942C40.8788 80.2942 39.5535 82.6455 38.1238 80.9212C37.9646 81.9805 38.6819 82.8141 39.5915 82.9542Z" fill="#31C418"/>
<path d="M45.2009 83.5143C45.1439 83.5143 45.0893 83.5143 45.0347 83.5143H44.8922C42.51 83.5143 40.0068 83.5048 39.5175 83.4288C38.805 83.3195 38.1852 82.873 37.8598 82.2365C37.5083 81.5454 37.5368 80.7355 37.9382 79.9541C38.4773 78.9115 39.793 78.4484 40.6243 78.2536C39.736 76.6885 37.6912 72.4776 39.2207 69.136C40.2348 66.9201 42.6027 65.5521 46.2578 65.07C46.5214 65.0344 46.7637 65.222 46.7993 65.4856C46.8349 65.7493 46.6497 65.9915 46.3837 66.0271C43.08 66.4641 40.9639 67.6445 40.097 69.5374C38.4417 73.1498 41.7667 78.2916 41.7999 78.3439C41.8925 78.484 41.9044 78.6645 41.8332 78.8165C41.7619 78.9685 41.6147 79.0706 41.446 79.0896C40.8665 79.149 39.2587 79.5029 38.7932 80.403C38.5367 80.8994 38.5082 81.3981 38.7172 81.8043C38.9024 82.1676 39.2539 82.4194 39.6624 82.4811C40.1469 82.5548 43.7189 82.5548 44.8922 82.5548H45.0347C46.1272 82.5595 48.4048 82.5595 48.6399 81.4623C48.7753 80.8281 48.4095 79.5076 48.0889 78.3463C47.7445 77.1041 47.4192 75.9285 47.4833 75.0806C47.8419 70.3164 57.3134 70.5444 57.7148 70.5563C57.9808 70.5634 58.1898 70.7866 58.1827 71.0526C58.1755 71.3139 57.9618 71.5205 57.7005 71.5205C57.6958 71.5205 57.691 71.5205 57.6863 71.5205C57.6625 71.5205 55.3469 71.4588 53.036 71.9195C51.022 72.3209 48.5924 73.2068 48.4452 75.1543C48.3929 75.8359 48.7112 76.9806 49.0199 78.0898C49.407 79.4839 49.7704 80.7996 49.5852 81.6665C49.2004 83.4525 46.6829 83.5143 45.2009 83.5143Z" fill="#371A45"/>
<path d="M42.8067 66.1298C42.8209 66.1891 42.8328 66.2485 42.847 66.3055C44.8254 74.4066 59.2702 72.6111 60.9944 67.0038C61.5549 65.1845 61.5335 62.9971 61.0395 60.6981C60.3294 57.3874 58.6337 53.851 56.2753 50.8656C55.1875 49.4905 53.9597 48.2318 52.6225 47.1678C49.7132 44.8521 44.9988 43.8903 43.3244 47.7069C43.4788 49.4549 43.5287 50.9796 43.512 52.3334C43.4313 58.8741 41.783 61.4391 42.8067 66.1298Z" fill="#62ED2E"/>
<path d="M42.8477 66.3054C44.826 74.4065 59.2708 72.611 60.995 67.0036C61.5555 65.1844 61.5342 62.997 61.0402 60.698C58.3802 61.7501 54.687 63.1252 54.687 63.1252C54.687 63.1252 47.3768 71.4187 42.8477 66.3054Z" fill="#31C418"/>
<path d="M43.5152 52.3356C44.9331 52.7013 46.4507 52.8985 48.0324 52.8985C51.1152 52.8985 53.9652 52.1432 56.2761 50.8678C55.1883 49.4927 53.9604 48.234 52.6233 47.17C49.7139 44.8543 44.9996 43.8925 43.3252 47.7091C43.4819 49.4571 43.5318 50.9818 43.5152 52.3356Z" fill="#31C418"/>
<path d="M52.8252 48.5713L53.8844 51.9319C55.1408 51.4949 56.2951 50.9202 57.3139 50.2338C56.3711 49.4928 55.0054 48.8135 52.8252 48.5713Z" fill="#31C418"/>
<path d="M51.5116 72.2853C51.3145 72.2853 51.1198 72.2806 50.925 72.2734C46.3294 72.0811 43.1208 69.8224 42.337 66.2338C41.7243 63.4266 42.0473 61.3081 42.4201 58.8547C42.8168 56.2422 43.3108 52.9932 42.8476 47.7516C42.8405 47.6708 42.8548 47.5901 42.8856 47.5164C43.5079 46.0962 44.5861 45.1604 45.9993 44.8113C48.056 44.3031 50.773 45.0797 52.9248 46.7921C56.0075 49.2454 58.6081 52.7462 60.2516 56.6483C61.9046 60.5742 62.3321 64.3029 61.4558 67.1458C60.4464 70.4328 55.7201 72.2853 51.5116 72.2853ZM43.819 47.7919C44.275 53.0739 43.7739 56.3562 43.3725 58.9972C42.9996 61.4529 42.7051 63.3933 43.2775 66.0248C43.9615 69.1598 46.8353 71.1334 50.963 71.3068C55.4304 71.4968 59.722 69.4994 60.5343 66.8608C62.2181 61.3912 58.3801 52.3638 52.3239 47.5426C50.4286 46.0344 47.98 45.3101 46.2296 45.7423C45.1395 46.0154 44.3273 46.7042 43.819 47.7919Z" fill="#371A45"/>
<path d="M52.5995 73.6988C54.129 78.3752 58.9312 79.9213 58.9312 79.9213C58.9312 79.9213 58.3446 80.4414 57.9195 81.0993C57.378 81.9305 57.093 82.9803 58.5584 83.479C59.5107 83.802 61.6482 83.4458 61.9285 83.1275C62.2942 83.2867 62.888 83.5479 64.0137 83.479C65.7451 83.3745 67.5976 81.7952 65.6525 78.3443C65.5361 78.1377 65.4078 77.9239 65.263 77.703C63.8546 75.5608 62.2847 74.549 61.8382 72.0173C61.8263 71.9555 61.8168 71.8938 61.8073 71.832C61.0853 67.5832 61.7884 65.1654 61.1685 61.3369L52.1482 70.3025C52.1007 71.5874 52.2788 72.7132 52.5995 73.6988Z" fill="#62ED2E"/>
<path d="M58.5577 83.4812C59.5101 83.8042 61.6476 83.4479 61.9278 83.1297C62.2936 83.2888 62.8873 83.5501 64.0131 83.4812C65.7445 83.3767 67.597 81.7973 65.6518 78.3464C65.8371 79.4579 65.8869 81.1822 64.6044 81.7379C62.0822 82.8304 61.8376 81.3722 61.7735 80.7238C60.966 82.3364 57.7455 82.9136 57.9165 81.1014C57.3773 81.9303 57.09 82.9801 58.5577 83.4812Z" fill="#31C418"/>
<path d="M52.5995 73.6986C53.3048 72.4992 54.5042 71.1835 56.5254 70.8652C59.5178 70.3926 61.083 71.212 61.8073 71.8342C61.0853 67.5854 61.7883 65.1676 61.1685 61.3391L52.1482 70.3047C52.1007 71.5872 52.2788 72.713 52.5995 73.6986Z" fill="#31C418"/>
<path d="M61.6434 61.2633C62.2134 64.6192 61.6529 68.0273 62.2205 71.3713C62.4936 73.9244 63.9115 75.0003 65.346 76.9763C66.5264 78.6222 67.8184 81.1634 66.2248 82.9779C65.0966 84.1797 63.1586 84.2034 61.736 83.5693L62.2918 83.4458C62.2324 83.5099 62.1801 83.5527 62.1184 83.5931C61.8025 83.7854 61.4344 83.8638 61.0876 83.9374C60.2778 84.0847 59.4679 84.1631 58.6461 84.0039C56.2118 83.3342 56.8435 81.3724 58.2234 79.9451C58.3469 79.8121 58.468 79.6909 58.6129 79.5603L58.7863 80.3797C58.5013 80.2894 58.2614 80.1968 57.9954 80.0804C55.2238 78.8834 52.8488 76.5274 52.0745 73.5563C51.8038 72.4828 51.742 71.3666 51.9083 70.2978C51.9296 70.1648 52.0531 70.0746 52.1861 70.0959C52.2978 70.1126 52.3809 70.2052 52.3904 70.3121C52.5353 71.8511 52.8416 73.3141 53.5375 74.6726C54.6989 76.8837 56.7865 78.5319 59.0808 79.4629C59.4323 79.5651 59.532 80.0496 59.2518 80.2823C58.7174 80.8072 57.9289 81.6313 57.9716 82.3889C58.0215 82.7286 58.3683 82.8924 58.6746 83.0088C59.0903 83.1513 59.5178 83.1323 59.969 83.1133C60.5105 83.0682 61.1066 83.0041 61.5935 82.7856C61.5983 82.7832 61.5745 82.7998 61.5674 82.8117L62.1231 82.6882C62.9924 83.0824 64.1158 83.1584 64.9826 82.7333C65.8733 82.2892 66.1488 81.3178 65.9421 80.3702C65.6025 78.7956 64.5551 77.4703 63.5458 76.2306C62.7121 75.2307 61.8761 74.1144 61.5318 72.8177C61.2658 71.8321 61.1684 70.8156 61.0663 69.8086C60.9214 68.1176 60.9879 66.3838 60.9665 64.7118C60.9475 63.6003 60.8691 62.5031 60.6934 61.4177C60.6079 60.8002 61.5151 60.6244 61.6434 61.2633Z" fill="#371A45"/>
<path d="M45.7305 63.5932C45.7305 63.5932 52.7462 71.5209 57.881 68.4073C59.6883 67.31 60.8782 64.9897 61.301 62.2869C61.8828 58.5748 61.0183 54.1454 58.3251 51.1838C57.387 50.153 55.9335 48.918 52.8246 48.5713L54.4823 53.8248C54.5203 55.4493 54.2448 57.1047 53.9907 58.2542C53.7865 59.1757 53.5988 59.7742 53.5988 59.7742L49.8392 56.3945L45.7305 63.5932Z" fill="#62ED2E"/>
<path d="M45.7305 63.5934C45.7305 63.5934 52.7462 71.5212 57.881 68.4075C59.6883 67.3103 60.8782 64.9899 61.301 62.2872C60.56 64.1705 58.983 67.0704 56.2802 67.1773C51.193 67.3815 55.3397 61.4844 54.2757 58.7057C54.2211 58.5655 54.1237 58.4135 53.9883 58.2544C53.7841 59.1759 53.5965 59.7744 53.5965 59.7744L49.8368 56.3948L45.7305 63.5934Z" fill="#31C418"/>
<path d="M52.8252 48.5713L53.8844 51.9319C55.1408 51.4949 56.2951 50.9202 57.3139 50.2338C56.3711 49.4928 55.0054 48.8135 52.8252 48.5713Z" fill="#31C418"/>
<path d="M54.7218 53.8197C54.888 55.7387 54.6268 57.6767 54.166 59.5387C54.1375 59.6646 54.0853 59.7834 53.9428 59.8807C53.8668 60.1254 53.5461 60.2156 53.3561 60.0399L49.5965 56.6626L50.1523 56.5724L46.0435 63.771L46.0008 63.353C46.5351 63.9396 47.1265 64.5072 47.7274 65.0416C49.5205 66.6044 51.5583 68.0579 53.8976 68.616C57.4839 69.4235 59.7045 66.9464 60.6141 63.7354C61.8468 59.2205 60.816 53.6796 57.1466 50.5612C56.5363 50.072 55.8404 49.7039 55.1041 49.4426C54.3608 49.1837 53.5794 49.0199 52.7861 48.932C52.5866 48.9106 52.4441 48.7301 52.4679 48.533C52.4893 48.3335 52.6698 48.191 52.8669 48.2147C53.7029 48.3097 54.5389 48.4807 55.3464 48.7634C56.1539 49.0507 56.9281 49.4592 57.5979 49.9984C61.5024 53.2996 62.621 59.1421 61.31 63.9349C60.3006 67.5282 57.7071 70.2144 53.7433 69.3237C50.5465 68.5542 47.6775 66.184 45.4616 63.8351C45.3548 63.7164 45.3405 63.5477 45.4189 63.4171L49.5276 56.2185C49.6369 56.019 49.9148 55.9762 50.0834 56.1282L53.843 59.5055L53.2564 59.6646C53.1851 59.5221 53.2041 59.3986 53.2421 59.2822L53.3466 58.9284C53.6791 57.7409 53.9404 56.5296 54.1043 55.3065C54.1779 54.8125 54.2111 54.3185 54.2468 53.8197C54.2658 53.5252 54.6956 53.5229 54.7218 53.8197Z" fill="#371A45"/>
<path d="M59.8935 45.9305C57.1409 47.7283 53.975 49.0251 50.9255 49.7281L45.9594 50.8372C39.0577 51.6542 34.5998 49.2246 31.9255 45.4578C28.8214 41.0807 28.1232 34.8986 28.7953 29.9063C30.3105 18.656 39.8438 9.69508 51.0918 11.2103C62.3422 12.7256 69.1632 23.8905 67.6479 35.1385C67.0447 39.6201 63.912 43.3085 59.8935 45.9305Z" fill="#62ED2E"/>
<path d="M59.8938 45.9306C57.1412 47.7285 53.9753 49.0253 50.9258 49.7283L45.9597 50.8374C39.0579 51.6544 34.6 49.2248 31.9258 45.458C33.574 46.75 36.7185 48.631 41.4329 49.0538C46.798 49.5359 54.3909 48.3175 59.8938 45.9306Z" fill="#31C418"/>
<g opacity="0.7">
<path d="M60.0144 18.0978C60.2923 18.5562 60.373 18.9813 60.2115 19.309C59.7555 20.2282 57.5515 20.0643 55.2881 18.9409C53.0248 17.8175 51.5618 16.1622 52.0178 15.243C52.2458 14.7847 52.9084 14.5947 53.7966 14.6588C52.7944 14.3405 51.7494 14.103 50.6616 13.9558C39.929 12.5094 30.7591 20.601 28.624 31.1175C28.643 30.7162 28.681 30.3124 28.7357 29.9063C30.2509 18.6583 39.7818 9.69505 51.0321 11.2103C62.2801 12.7255 69.1011 23.8904 67.5859 35.1384C67.5313 35.5445 67.4576 35.9459 67.3721 36.3378C67.8519 29.2437 65.0708 22.3585 60.0144 18.0978Z" fill="white"/>
</g>
<path d="M50.8711 49.493C56.5973 47.8233 62.6179 44.6266 65.6959 39.3303C66.9546 37.1881 67.3394 34.7965 67.3703 32.3478C67.6054 23.8311 62.4706 14.9628 54.0964 12.3788C41.2144 8.3081 29.6196 19.2355 29.1161 31.937C28.6696 38.9883 31.2584 47.5502 38.6755 49.8184C39.9675 50.2316 41.3331 50.4477 42.6988 50.4976C43.777 50.5332 44.8458 50.4667 45.9216 50.6021C46.0594 50.614 46.1615 50.7398 46.1473 50.8776C46.1378 50.9702 46.0784 51.0438 46 51.0771C45.0928 51.4571 44.1143 51.4785 43.15 51.4785C40.2478 51.4666 37.2885 50.7493 34.8708 49.0845C29.4178 45.3343 27.7576 38.1452 28.1044 31.8776C28.6744 18.5728 40.9104 7.1871 54.3885 11.4597C63.1736 14.1672 68.5673 23.4297 68.3416 32.3597C68.3321 36.6181 67.1898 39.7982 64.2851 42.938C60.7725 46.6382 55.9584 49.0203 50.9804 49.9632C50.6764 50.0083 50.5814 49.5808 50.8711 49.493Z" fill="#371A45"/>
<path d="M29.3075 26.9778C28.1105 28.2508 26.9824 31.8109 28.7185 35.8983C30.4546 39.9857 34.4114 40.8288 35.7414 39.2827C36.765 38.0976 37.6889 34.6989 35.9528 30.6116C34.219 26.5266 30.533 25.6739 29.3075 26.9778Z" fill="#371A45"/>
<g opacity="0.5">
<path d="M36.5302 37.4109C36.6632 35.9123 36.4566 34.0598 35.5968 32.0387C33.8607 27.9513 30.1747 27.0987 28.9492 28.4002C28.5455 28.83 28.1488 29.5212 27.8662 30.407C28.0301 28.6567 28.6595 27.2982 29.3055 26.6118C30.531 25.3079 34.217 26.1605 35.9531 30.2479C37.2 33.1763 37.0765 35.7508 36.5302 37.4109Z" fill="white"/>
</g>
<g opacity="0.35">
<path d="M35.7418 39.2852C34.4095 40.8289 30.4527 39.9858 28.719 35.9008C27.4483 32.9107 27.712 30.2032 28.4102 28.467C28.3698 29.8184 28.605 31.3645 29.2985 32.9938C31.0346 37.0812 34.989 37.9243 36.3214 36.3782C36.5327 36.1335 36.7393 35.7939 36.9198 35.3712C36.8795 37.207 36.3261 38.6059 35.7418 39.2852Z" fill="#111A28"/>
</g>
<path d="M54.141 32.0224C55.1028 33.692 55.1171 37.4635 51.4905 40.5724C47.8615 43.6789 42.7837 42.8666 41.7625 40.8906C40.9787 39.373 41.1426 35.8342 44.7716 32.7277C48.4006 29.6212 53.1553 30.3124 54.141 32.0224Z" fill="#371A45"/>
<g opacity="0.5">
<path d="M54.4454 35.7632C54.443 34.8227 54.2245 34.0128 53.8991 33.4476C52.9135 31.74 48.1564 31.0441 44.5297 34.1506C42.7295 35.6896 41.7819 37.3378 41.3805 38.7913C41.3544 37.0243 42.1761 34.5828 44.772 32.3598C48.401 29.2533 53.1581 29.9468 54.1414 31.6568C54.6591 32.5593 54.9037 34.0722 54.4454 35.7632Z" fill="white"/>
</g>
<g opacity="0.35">
<path d="M51.4882 40.5701C47.8616 43.6766 42.7814 42.8643 41.7602 40.8883C41.3137 40.0214 41.1759 38.4943 41.8148 36.7653C41.8742 37.2308 41.9953 37.6322 42.1568 37.9457C43.1781 39.9241 48.2582 40.7339 51.8848 37.6274C53.3312 36.3877 54.198 35.0434 54.6588 33.7681C54.8464 35.6728 54.1411 38.2996 51.4882 40.5701Z" fill="#111A28"/>
</g>
<path d="M33.9249 40.4893C33.7088 40.4893 33.4832 40.4727 33.2528 40.4347C31.6307 40.1806 29.4718 38.9052 28.2748 36.0861C26.4175 31.7113 27.7072 27.9731 28.9564 26.6455C29.5264 26.0398 30.4645 25.8023 31.5333 25.9947C33.0937 26.2726 35.1908 27.5836 36.3973 30.4241C38.2284 34.7371 37.1905 38.34 36.1075 39.5963C35.6088 40.1782 34.8322 40.4893 33.9249 40.4893ZM29.657 27.3081C28.4933 28.5431 27.5718 31.9678 29.1607 35.7108C30.2033 38.1666 32.0344 39.271 33.4 39.4847C34.2455 39.6177 34.9842 39.4253 35.376 38.9693C36.3783 37.808 37.0813 34.5043 35.509 30.8017C34.4522 28.3151 32.6733 27.1775 31.3623 26.9423C30.6332 26.8141 29.9943 26.9495 29.657 27.3081Z" fill="#371A45"/>
<path d="M45.892 43.1183C45.3458 43.1183 44.8352 43.0685 44.3792 42.9782C42.909 42.6908 41.7975 42.0092 41.332 41.1091C40.4913 39.4798 40.5958 35.6656 44.4552 32.3596C46.5357 30.576 49.2598 29.7661 51.7417 30.1912C53.0812 30.4216 54.1072 31.0011 54.556 31.7801C55.5702 33.54 55.7174 37.5798 51.801 40.9357C49.9177 42.5507 47.7137 43.1183 45.892 43.1183ZM50.4758 31.0533C48.8679 31.0533 46.8468 31.583 45.0845 33.0935C41.6455 36.0385 41.484 39.3041 42.1894 40.6697C42.5124 41.2967 43.4007 41.8073 44.5644 42.0353C46.3267 42.3797 48.989 42.0805 51.1764 40.2066C54.4658 37.3898 54.6463 33.8653 53.7248 32.2646C53.4279 31.7492 52.6061 31.3217 51.5825 31.146C51.2429 31.0842 50.8724 31.0533 50.4758 31.0533Z" fill="#371A45"/>
<path d="M38.1002 41.121C38.2646 41.0626 38.3129 40.7758 38.208 40.4804C38.1032 40.185 37.8849 39.9928 37.7205 40.0511C37.5561 40.1094 37.5078 40.3962 37.6127 40.6917C37.7175 40.9871 37.9358 41.1793 38.1002 41.121Z" fill="#371A45"/>
<path d="M39.1898 40.9805C39.3932 40.742 39.4505 40.4569 39.3178 40.3437C39.1851 40.2305 38.9126 40.3321 38.7092 40.5706C38.5057 40.8091 38.4484 41.0942 38.5811 41.2074C38.7139 41.3206 38.9864 41.219 39.1898 40.9805Z" fill="#371A45"/>
<path d="M46.1465 25.5577L48.6616 27.346C49.0511 26.3865 49.4406 25.6099 49.8277 24.9924C51.381 22.5082 52.8867 22.5414 53.9982 23.2135C55.5135 24.1303 55.4802 26.8877 55.4802 26.8877C54.0149 28.2319 55.5752 29.7994 56.9314 29.6403C58.107 29.5025 58.8124 27.7403 57.4182 26.662C57.4515 26.111 57.5251 21.304 54.3497 20.4015C51.2171 19.5157 48.873 21.5439 47.5097 23.3157C46.6357 24.4509 46.1655 25.4793 46.1465 25.5577Z" fill="#62ED2E"/>
<g opacity="0.5">
<path d="M46.5938 24.6813C46.646 24.6124 46.7006 24.5412 46.7529 24.4699C48.1921 22.6008 50.6526 20.5203 53.98 21.3919C56.7326 22.1115 56.6305 26.5124 56.5949 27.0967C57.4997 27.6809 57.8228 28.6285 57.9391 28.9682C58.3429 28.3245 58.3096 27.3532 57.4166 26.662C57.4499 26.111 57.5235 21.304 54.3481 20.4015C51.2155 19.5157 48.8714 21.5439 47.5081 23.3157C47.1234 23.8144 46.817 24.2942 46.5938 24.6813Z" fill="white"/>
</g>
<path d="M46.1465 25.5576C46.1465 25.5576 46.2439 26.4031 47.1107 26.9399C47.9776 27.4766 48.6592 27.346 48.6592 27.346C49.0487 26.3865 49.4382 25.6099 49.8254 24.9924C48.854 25.1111 47.4314 25.0185 47.505 23.3132C46.6357 24.4509 46.1655 25.4792 46.1465 25.5576Z" fill="#31C418"/>
<path d="M45.912 25.5078C45.9382 25.408 45.9952 25.2845 46.0332 25.1895C46.9784 23.1732 48.42 21.2803 50.4649 20.278C51.745 19.651 53.2888 19.5465 54.652 19.9812C57.1505 20.7958 57.8868 23.7479 57.9153 26.0873C57.9153 26.2868 57.9129 26.4768 57.8987 26.6929L57.7134 26.282C58.3808 26.7713 58.8202 27.6809 58.6278 28.5264C58.4734 29.398 57.6635 30.1652 56.7539 30.1343C55.1603 30.1485 53.7377 28.467 54.7518 26.9969C54.8729 26.8212 55.013 26.6715 55.1579 26.5338L55.0012 26.8829C54.9275 25.7904 54.7494 24.5982 53.9942 23.8239C53.1463 23.0663 52.0942 23.1257 51.2439 23.8857C50.168 24.8238 49.5054 26.149 48.8855 27.441C48.8285 27.5622 48.686 27.6144 48.5649 27.5574C48.4509 27.5052 48.3987 27.3745 48.439 27.2582C48.7763 26.3153 49.1682 25.3819 49.7192 24.5103C50.2987 23.6078 51.0444 22.7267 52.1654 22.444C53.0347 22.2303 53.9918 22.5177 54.6568 23.0972C55.3004 23.6648 55.6329 24.5174 55.8087 25.3059C55.9227 25.8355 55.9773 26.3485 55.9678 26.8924C55.9725 27.1822 55.6828 27.3247 55.5522 27.536C55.3574 27.8234 55.3147 28.1464 55.4928 28.4599C55.7683 28.9539 56.5117 29.3102 57.0745 29.113C57.6255 28.8922 57.8607 28.163 57.6113 27.6334C57.5139 27.4102 57.3429 27.2107 57.1292 27.042C57.0009 26.9399 56.9368 26.7832 56.9439 26.6312C56.951 26.2915 56.9344 25.9163 56.9059 25.5695C56.8109 24.5269 56.5924 23.4297 56.1055 22.5224C55.4263 21.1877 54.2697 20.6889 52.8399 20.6604C51.4292 20.6319 50.1063 21.2969 49.0447 22.2137C47.9878 23.1352 47.0995 24.2918 46.4322 25.5315L46.4037 25.5885L46.3918 25.6147L46.387 25.6242C46.3205 25.8783 45.8693 25.8617 45.912 25.5078Z" fill="#371A45"/>
<path d="M20.0765 19.8363C20.8627 20.8029 22.3114 20.0762 22.5584 18.8721C22.8957 18.5206 29.6502 14.0793 32.056 20.6818C32.3339 21.4489 32.5572 22.3657 32.702 23.4582L35.5045 23.1589C35.5283 23.0758 35.3312 21.8028 34.6828 20.2662C33.9014 18.4113 32.4669 16.1717 29.9874 15.1813C26.1779 13.6613 21.7557 17.1787 21.3543 17.4613C20.2024 17.4898 19.0885 18.6227 20.0765 19.8363Z" fill="#62ED2E"/>
<path d="M20.0765 19.8363C20.8627 20.8029 22.3114 20.0762 22.5584 18.8721C22.8957 18.5206 29.6502 14.0793 32.056 20.6818C32.3339 21.4489 32.5572 22.3657 32.702 23.4582L35.5045 23.1589C35.5283 23.0758 35.3312 21.8028 34.6828 20.2662C33.9014 18.4113 32.4669 16.1717 29.9874 15.1813C26.1779 13.6613 21.7557 17.1787 21.3543 17.4613C20.2024 17.4898 19.0885 18.6227 20.0765 19.8363Z" fill="#62ED2E"/>
<g opacity="0.5">
<path d="M19.7009 19.0028C20.0263 18.7534 21.0404 18.0932 21.6389 18.4067C22.0735 18.1003 26.0802 14.4903 30.1889 16.129C32.5687 17.079 34.0554 19.0954 34.946 20.9384C34.8677 20.7199 34.7798 20.4943 34.6824 20.2615C33.901 18.4067 32.4665 16.167 29.987 15.1767C26.1775 13.6567 21.7553 17.174 21.3539 17.4567C20.4752 17.4828 19.6178 18.1478 19.7009 19.0028Z" fill="white"/>
</g>
<path d="M32.0557 20.6793C32.3335 21.4464 32.5568 22.3632 32.7017 23.4557C32.7017 23.4557 33.4332 23.9853 34.3143 23.8784C35.1954 23.7715 35.5042 23.1564 35.5042 23.1564C35.5279 23.0733 35.3308 21.8003 34.6824 20.2637C34.4782 21.3799 33.7158 22.1708 32.0557 20.6793Z" fill="#31C418"/>
<path d="M35.2743 23.0829C35.2601 23.1446 35.2672 23.1256 35.2648 23.1233L35.2625 23.0971L35.253 23.033C34.5143 19.8078 32.5051 16.2595 29.1088 15.4211C26.627 14.9248 24.157 16.1479 22.1335 17.4993C22.01 17.5848 21.7582 17.7605 21.6347 17.8484C21.554 17.9054 21.4637 17.9339 21.3711 17.9363C20.7963 17.9529 20.1337 18.3614 20.186 18.9623C20.2121 19.2615 20.5161 19.7223 20.8343 19.7793C21.4115 19.898 21.9815 19.328 22.0883 18.7699C22.1097 18.6369 22.1952 18.5395 22.2926 18.4588C22.409 18.3614 22.5325 18.2711 22.656 18.1904C23.5822 17.58 24.5916 17.1216 25.6698 16.839C30.4626 15.6444 32.5835 19.1641 32.9445 23.4201C32.9682 23.7241 32.5241 23.7859 32.4671 23.4843C31.8496 19.822 30.1681 16.6134 25.9263 17.808C24.8671 18.1073 23.8268 18.5775 22.9148 19.2021C22.9125 19.2045 22.9053 19.2093 22.9053 19.2093C22.9077 19.2069 22.9101 19.2045 22.9101 19.2021L23.036 18.9646C22.8222 20.0334 21.7606 20.9691 20.6182 20.7174C19.8582 20.525 19.3452 19.8434 19.2312 19.0668C19.0982 17.8816 20.2525 16.9863 21.3473 16.972L21.0837 17.0599C23.6867 15.0625 27.3537 13.3311 30.5718 14.8963C33.5928 16.3711 35.3005 19.7603 35.747 22.9689L35.7541 23.0544L35.7565 23.1043C35.7707 23.5033 35.196 23.4819 35.2743 23.0829Z" fill="#371A45"/>
<path d="M40.3534 45.18C40.81 45.1111 41.0739 44.3528 40.943 43.4864C40.8121 42.62 40.3359 41.9736 39.8794 42.0426C39.4228 42.1116 39.1589 42.8698 39.2898 43.7362C39.4207 44.6026 39.8969 45.249 40.3534 45.18Z" fill="#371A45"/>
<path d="M58.7949 61.9736C57.1681 60.6056 55.3132 59.4989 53.3847 58.6177C52.8147 58.3375 53.1947 57.492 53.7837 57.739C55.7217 58.8006 57.5386 60.076 59.1227 61.6197C59.3364 61.8359 59.0301 62.1707 58.7949 61.9736Z" fill="#371A45"/>
<path d="M61.6904 83.5477C61.1156 83.2532 60.7618 82.5668 60.8615 81.9303C60.909 81.5788 61.0301 81.2249 61.2035 80.9209C61.3531 80.6502 61.5455 80.4483 61.669 80.1918C61.7236 80.0778 61.7569 79.9448 61.7878 79.8071C61.8163 79.6764 61.9469 79.5933 62.0775 79.6218C62.3625 79.6907 62.2794 80.1253 62.2651 80.3557C62.1725 80.8806 61.8471 81.3294 61.8353 81.8258C61.821 81.9731 61.8186 82.1464 61.8709 82.2771C61.9231 82.4338 62.0348 82.5787 62.1559 82.6951L62.1654 82.7046C62.1654 82.7069 62.1749 82.7117 62.163 82.7069C62.7092 83.0371 62.2556 83.8446 61.6904 83.5477Z" fill="#371A45"/>
<path d="M21.1825 53.4941C21.2228 53.715 21.2775 53.9335 21.3463 54.1544C22.2298 56.9474 24.4528 56.8096 24.4528 56.8096C24.4528 56.8096 25.2081 58.0185 25.4598 58.4341C25.9016 59.1585 26.4288 59.6834 26.9917 60.0586C29.2408 61.5596 32.0505 60.6737 32.1716 60.6096L34.131 59.5456C36.601 58.8426 36.6271 52.5916 36.6271 52.5916C36.6271 52.5916 36.6698 51.8554 36.4513 51.0004C36.1925 49.9862 35.5655 48.8082 34.0621 48.509C34.0597 48.5019 34.0597 48.4947 34.0573 48.4876C33.3947 44.4762 30.2668 44.3765 28.1768 44.7636C24.9255 45.3621 20.4082 49.2666 21.1825 53.4941Z" fill="#FF3B3B"/>
<g opacity="0.5">
<path d="M28.5613 46.7683C28.5613 46.7683 23.6807 47.4452 23.1416 51.9221C23.1416 51.9244 25.196 48.4047 28.5613 46.7683Z" fill="white"/>
</g>
<g opacity="0.7">
<path d="M29.3784 51.7581C29.2216 50.8271 32.8649 46.8989 36.4511 51.0005C36.1922 49.9864 35.5652 48.8084 34.0618 48.5091C34.0595 48.502 34.0595 48.4949 34.0571 48.4877C33.7792 48.4379 33.4776 48.407 33.1546 48.407C28.768 48.407 29.3594 51.6631 29.3784 51.7581Z" fill="white"/>
</g>
<path d="M21.1816 53.4943C21.222 53.7151 21.2766 53.9336 21.3455 54.1545C22.229 56.9475 24.452 56.8098 24.452 56.8098C24.452 56.8098 25.2073 58.0186 25.459 58.4343C25.9008 59.1586 26.428 59.6835 26.9909 60.0588C26.9695 59.6336 27.1025 58.8665 28.0145 57.9023C29.4324 56.4084 31.2683 57.0116 32.2586 54.2139C34.0755 54.0239 33.5126 52.4041 33.5126 52.4041C33.5126 52.4041 33.7501 51.6156 32.9901 51.3449C32.0401 51.0053 30.8835 52.4659 29.4466 51.9529C28.6985 50.8319 29.9834 49.1718 31.0569 48.7751C30.0119 48.825 29.4918 48.5519 28.4088 50.7226C26.7534 54.0334 23.0864 55.1116 21.1816 53.4943Z" fill="#D62D2D"/>
<g opacity="0.7">
<path d="M21.3481 54.155C21.4787 54.5659 21.6355 54.9126 21.8136 55.2048C20.6973 50.0154 24.6113 46.555 28.6275 45.7689C30.2876 45.4435 32.6958 45.7475 33.9071 47.7829C33.0117 44.465 30.138 44.4009 28.1786 44.7619C24.7562 45.3936 19.9326 49.6829 21.3481 54.155Z" fill="white"/>
</g>
<path d="M30.1311 61.4128C28.5042 61.4128 26.3928 60.888 25.051 58.684C24.8681 58.3847 24.4145 57.6556 24.1841 57.2875C23.2127 57.2162 21.5977 56.5417 20.89 54.2997C20.3437 52.5731 20.6121 50.7301 21.669 48.9702C23.0607 46.6546 25.6993 44.7285 28.091 44.2891C29.9696 43.9423 31.4896 44.168 32.613 44.9588C33.5653 45.6286 34.1923 46.6902 34.4821 48.1176C36.7098 48.7755 37.1825 51.2977 37.1112 52.6063C37.1065 53.3426 36.9901 59.235 34.2636 60.0092C34.0071 60.0828 33.7411 59.9332 33.6675 59.6767C33.5938 59.4202 33.7435 59.1542 34 59.0806C35.7337 58.589 36.1398 54.1168 36.147 52.5873C36.147 52.5778 36.147 52.5707 36.147 52.5612C36.1541 52.4353 36.2871 49.4405 33.9691 48.9797C33.772 48.9393 33.62 48.7826 33.5867 48.5855C33.373 47.265 32.8576 46.3102 32.0572 45.745C31.1547 45.1085 29.8793 44.9375 28.2667 45.2343C26.4617 45.5668 23.9015 47.1272 22.4978 49.4642C21.8637 50.5211 21.2296 52.167 21.8115 54.0076C22.5643 56.385 24.3551 56.3327 24.4311 56.328C24.6068 56.3208 24.7731 56.4063 24.8657 56.5536C24.8966 56.6035 25.6257 57.7696 25.8775 58.1828C27.8867 61.4841 31.8268 60.2206 31.9741 60.1707C32.2021 60.0638 32.4776 60.1541 32.5987 60.3797C32.727 60.6125 32.6391 60.907 32.4063 61.0328C32.1831 61.1516 31.2782 61.4128 30.1311 61.4128ZM31.9646 60.1755C31.9551 60.1802 31.948 60.185 31.9432 60.1873C31.9503 60.1826 31.9575 60.1778 31.9646 60.1755Z" fill="#371A45"/>
<path d="M32.0191 54.2141L31.7745 52.8294L32.3398 53.2997C32.2068 53.3211 32.0999 53.3329 31.9811 53.3424C30.5205 53.4802 28.9198 53.0693 28.8153 51.3379C28.6419 49.7087 29.9529 48.5307 31.4064 48.1388C32.3065 47.8823 33.247 47.8562 34.1566 48.0319C34.4179 48.0818 34.5889 48.3359 34.5366 48.5972C34.4868 48.8608 34.2303 49.0294 33.969 48.9772C32.5915 48.7159 30.7129 48.9796 29.9576 50.2811C29.7391 50.6848 29.7201 51.1859 29.846 51.6348C30.0455 52.3307 30.9528 52.4043 31.6083 52.3972C31.7888 52.3924 32.0025 52.3758 32.1735 52.3473L32.7388 52.8176L32.5013 54.2093C32.4538 54.4824 32.0619 54.4824 32.0191 54.2141Z" fill="#371A45"/>
<path d="M24.4192 56.3302C25.792 56.2209 27.1837 55.7507 28.2501 54.86C28.9008 54.3209 29.3877 53.606 29.6751 52.8104C29.7226 52.6869 29.8627 52.6252 29.9862 52.675C30.105 52.7225 30.1643 52.8508 30.1287 52.9719C29.9957 53.4184 29.8128 53.8507 29.573 54.252C29.1668 54.9218 28.6111 55.5013 27.9698 55.9478C26.9367 56.6674 25.7326 57.1139 24.4881 57.2897C23.8302 57.3395 23.7566 56.3777 24.4192 56.3302Z" fill="#371A45"/>
<path d="M32.074 52.3804C32.5775 52.2736 33.0502 52.1762 33.5703 52.1501C33.7033 52.1453 33.8173 52.2498 33.8244 52.3828C33.8292 52.4944 33.7579 52.5894 33.6582 52.6251C33.3518 52.7486 33.0312 52.9267 32.7367 53.0953C32.6369 53.1547 32.5324 53.2141 32.4374 53.2758C31.7629 53.6392 31.3354 52.5871 32.074 52.3804Z" fill="#371A45"/>
<path d="M27.4738 60.3983C27.4548 62.7306 29.4806 63.5856 29.4806 63.5856C30.5209 63.8326 34.2829 62.0584 36.3396 60.4696C36.5296 60.3223 36.7078 60.1774 36.8645 60.0349C37.33 59.6169 37.6364 59.2251 37.6958 58.9092C37.995 57.3227 36.2684 55.4868 36.2684 55.4868C35.981 55.7457 35.6865 55.9974 35.3825 56.2397C34.2924 57.1232 33.1286 57.9069 32.0314 58.5482C30.0245 59.7191 28.2314 60.4173 27.4738 60.3983Z" fill="#FF3B3B"/>
<g opacity="0.7">
<path d="M35.3818 56.2402C35.807 56.5395 36.2843 56.9955 36.6715 57.6795C37.2391 58.6746 37.0871 59.5082 36.8638 60.0379C37.3293 59.6199 37.6357 59.228 37.6951 58.9121C37.9943 57.3256 36.2677 55.4897 36.2677 55.4897C35.9803 55.7439 35.6835 55.9956 35.3818 56.2402Z" fill="white"/>
</g>
<path d="M27.4738 60.3986C27.4548 62.7309 29.4806 63.5859 29.4806 63.5859C30.5209 63.8329 34.2829 62.0588 36.3396 60.4699C35.4538 61.0494 34.2663 61.503 32.8555 61.2679C30.7916 60.9259 31.3616 59.5128 32.0314 58.5461C30.0245 59.7194 28.2314 60.4176 27.4738 60.3986Z" fill="#D62D2D"/>
<path d="M29.6941 64.0897C29.573 64.0897 29.4637 64.0778 29.3687 64.0564C29.3426 64.0493 29.3165 64.0422 29.2927 64.0303C29.1977 63.9899 26.9723 63.0185 26.9913 60.3942C26.9913 60.2659 27.046 60.1424 27.1386 60.0522C27.2312 59.9619 27.3547 59.9144 27.4853 59.9168C27.4925 59.9168 27.4996 59.9168 27.5067 59.9168C28.5897 59.9168 32.6652 58.0762 35.9451 55.1264C36.1398 54.9507 36.4391 54.9625 36.6196 55.1549C36.698 55.238 38.5101 57.1903 38.1681 58.9977C38.0375 59.6864 37.1801 60.5509 35.6221 61.565C33.9596 62.6457 31.0858 64.0897 29.6941 64.0897ZM29.63 63.1254C30.3116 63.2204 32.9146 62.1754 35.0972 60.7575C36.5768 59.7957 37.1682 59.1117 37.2228 58.8195C37.3915 57.9218 36.7122 56.8055 36.2182 56.1714C33.4062 58.5868 29.7677 60.5034 27.9817 60.8312C28.167 62.3464 29.383 63.0067 29.63 63.1254Z" fill="#371A45"/>
<path d="M51.6436 60.9973L46.3664 64.7854C46.3664 64.7854 40.6426 64.2415 37.5717 59.6198C36.5244 58.0428 36.1847 56.6249 36.2679 55.3566C36.332 54.3544 36.6645 53.4424 37.1229 52.6254C37.6834 51.6231 38.4291 50.7563 39.106 50.0224C40.4265 48.5879 43.837 47.3339 45.4876 50.248C45.4876 50.248 45.5019 50.2338 45.528 50.21C45.5304 50.2076 45.5327 50.2076 45.5351 50.2053C45.7702 49.9963 46.8889 49.1151 48.5347 49.6068C48.625 49.6353 48.7176 49.6661 48.8126 49.7018C51.855 50.8608 51.5082 55.6131 51.3444 56.5513C51.3111 56.7436 51.342 57.3849 51.3942 58.1235C51.4845 59.4108 51.6436 60.9973 51.6436 60.9973Z" fill="#FF3B3B"/>
<g opacity="0.5">
<path d="M48.2242 50.54C48.3691 50.4427 50.0648 51.0364 50.3831 53.1763C50.4686 53.751 50.4163 54.0954 50.3071 54.1097C50.0434 54.1453 49.6112 52.8485 49.2074 52.0672C48.7918 51.2644 48.0793 50.6374 48.2242 50.54Z" fill="white"/>
</g>
<g opacity="0.5">
<path d="M38.4726 56.4753C38.2114 56.3019 38.6128 52.9033 41.4248 51.2408C42.3201 50.7112 42.9234 50.5473 43.0231 50.7183C43.263 51.1292 41.268 52.4972 40.2966 53.7369C39.1068 55.2498 38.7339 56.6463 38.4726 56.4753Z" fill="white"/>
</g>
<g opacity="0.7">
<path d="M45.7187 51.2954C45.7187 51.2954 44.8827 48.766 41.4746 49.7113C38.4797 50.5401 36.2686 55.3566 36.2686 55.3566C36.3327 54.3544 36.6652 53.4424 37.1236 52.6254C37.6841 51.6231 38.4298 50.7563 39.1067 50.0224C40.4272 48.5879 43.8377 47.3339 45.4883 50.248C45.4883 50.248 45.5026 50.2338 45.5287 50.21C45.5311 50.2076 45.5334 50.2076 45.5358 50.2053C45.6379 50.7871 45.7187 51.2954 45.7187 51.2954Z" fill="white"/>
</g>
<path d="M48.536 49.6046C48.5123 49.6094 48.4885 49.6141 48.4624 49.6189C46.2252 49.9799 46.6455 52.324 46.6455 52.324C46.0447 51.5165 45.705 50.7185 45.5293 50.2103C45.7502 50.0108 46.8735 49.1083 48.536 49.6046Z" fill="#D62D2D"/>
<path d="M51.6442 60.9971L46.3669 64.7852C46.3669 64.7852 40.6432 64.2414 37.5723 59.6196C35.6961 56.7957 36.0879 54.4777 37.1234 52.6252C36.4679 54.8744 37.2873 58.6031 40.8783 60.4604C46.3646 63.2961 50.8557 57.0166 50.8557 57.0166L51.3948 58.121C51.4851 59.4106 51.6442 60.9971 51.6442 60.9971Z" fill="#D62D2D"/>
<path d="M46.3645 65.1557C46.3526 65.1557 46.3407 65.1557 46.3289 65.1533C46.089 65.1295 40.3937 64.5382 37.2611 59.8238C34.0406 54.974 37.2754 51.4591 38.831 49.7704C39.6789 48.8489 41.358 47.9441 43.0347 48.1364C44.0774 48.2552 44.949 48.7943 45.5784 49.6992C46.1412 49.3121 47.3382 48.7397 48.9437 49.3524C52.0336 50.5304 51.9719 55.1023 51.7082 56.6104C51.656 56.9073 51.8199 59.0567 52.0099 60.959C52.0241 61.0897 51.9647 61.2203 51.8579 61.2963L46.5806 65.0844C46.5189 65.1319 46.4429 65.1557 46.3645 65.1557ZM42.5835 48.8513C41.3366 48.8513 40.0612 49.5329 39.3796 50.2715C37.0949 52.7534 35.335 55.5773 37.881 59.4129C40.5624 63.4528 45.4026 64.2817 46.2671 64.398L51.2546 60.8189C51.1596 59.8428 50.8936 56.9833 50.9815 56.4798C51.1762 55.3778 51.352 51.0601 48.6825 50.0412C46.925 49.3714 45.7969 50.4592 45.7494 50.5043C45.6662 50.5851 45.5522 50.6254 45.4382 50.6088C45.3242 50.5922 45.2221 50.5257 45.1651 50.4259C44.6402 49.4997 43.8969 48.9772 42.954 48.8679C42.8305 48.8584 42.707 48.8513 42.5835 48.8513Z" fill="#371A45"/>
<path d="M52.9645 62.8922C51.8435 64.8516 50.4351 66.7279 49.7535 67.0152C49.7535 67.0152 47.1315 66.3835 46.4356 65.0986C46.0912 64.4621 47.0436 63.2746 48.2145 61.7689C49.4162 60.2299 50.8484 58.356 51.3661 56.4014C51.3661 56.4014 53.8195 56.8977 54.513 58.3489C54.8526 59.0614 54.0404 61.016 52.9645 62.8922Z" fill="#FF3B3B"/>
<g opacity="0.7">
<path d="M53.71 61.4839C54.109 60.4769 54.2919 59.6385 54.0876 59.2157C53.52 58.0235 51.8409 57.4345 51.0928 57.2255C51.202 56.9524 51.2923 56.6769 51.3659 56.4014C51.3659 56.4014 53.8193 56.8977 54.5128 58.3489C54.7669 58.8832 54.3774 60.1111 53.71 61.4839Z" fill="white"/>
</g>
<path d="M52.9645 62.8924C51.8435 64.8518 50.4351 66.728 49.7535 67.0154C49.7535 67.0154 47.1315 66.3837 46.4356 65.0988C46.0912 64.4623 47.0436 63.2748 48.2145 61.769C48.1646 62.4364 48.3214 63.2297 49.0885 63.8258C50.3021 64.7663 52.005 63.9042 52.9645 62.8924Z" fill="#D62D2D"/>
<path d="M49.7544 67.3857C49.7259 67.3857 49.6974 67.3834 49.6689 67.3762C49.5549 67.3477 46.8783 66.6899 46.1136 65.2767C45.6647 64.4455 46.5719 63.2841 47.8259 61.6739C49.0158 60.1468 50.4978 58.2467 51.0108 56.3087C51.0607 56.1187 51.2507 56.0024 51.4431 56.0404C51.5499 56.0618 54.0864 56.589 54.8512 58.1921C55.0673 58.6457 54.9747 59.3867 54.5662 60.4602C53.6423 62.8875 51.0749 66.8632 49.8993 67.3596C49.8518 67.3762 49.8019 67.3857 49.7544 67.3857ZM51.6236 56.8479C51.0013 58.8001 49.5716 60.636 48.4078 62.1275C47.5338 63.2485 46.5434 64.5191 46.7619 64.9229C47.2393 65.804 48.9398 66.4168 49.7093 66.621C50.6189 66.0581 52.9441 62.631 53.8727 60.1942C54.3311 58.9901 54.2242 58.5982 54.1814 58.508C53.7183 57.5366 52.2767 57.0331 51.6236 56.8479Z" fill="#371A45"/>
<path d="M46.5076 52.4475C46.0777 51.9915 45.7547 51.4666 45.4412 50.9298C45.3391 50.7517 45.2441 50.5736 45.1491 50.3931C45.0541 50.2102 45.1229 49.987 45.3058 49.892C45.4887 49.797 45.7119 49.8658 45.8069 50.0487C45.8877 50.2482 45.9471 50.4525 46.0278 50.652C46.2344 51.184 46.4648 51.7255 46.7854 52.2005C46.9279 52.3833 46.6714 52.6113 46.5076 52.4475Z" fill="#371A45"/>
<path d="M52.9529 60.4608C52.6299 61.3277 52.1667 62.1471 51.7131 62.8335C50.9412 64.002 50.1955 64.7881 50.1955 64.7881C49.4877 64.6456 48.1934 63.7265 48.1934 63.7265C48.818 62.9261 49.369 62.1495 49.825 61.4702C50.7275 60.1283 51.2595 59.1736 51.2595 59.1736C52.4185 59.6201 52.9529 60.4608 52.9529 60.4608Z" fill="white"/>
<path d="M51.7131 62.833C50.9412 64.0015 50.1955 64.7876 50.1955 64.7876C49.4877 64.6451 48.1934 63.726 48.1934 63.726C48.818 62.9256 49.369 62.149 49.825 61.4697C49.749 61.9637 49.6944 62.7831 50.0744 63.1441C50.49 63.5383 51.1645 63.2225 51.7131 62.833Z" fill="#D8D8D8"/>
<path d="M42.4228 83.5052C41.5084 83.4174 40.6249 82.8497 40.2853 81.9686C40.1238 81.4936 40.0288 81.0091 40.2402 80.4795C40.7793 79.2397 42.3539 79.2564 43.3894 78.7576C43.6388 78.6199 43.8787 78.9595 43.6649 79.1495C42.9976 79.7907 40.8411 80.0472 41.0857 81.2039C41.2116 81.9496 41.8196 82.3914 42.5249 82.5505C43.1543 82.6597 43.0569 83.5456 42.4228 83.5052Z" fill="#371A45"/>
</g>
<defs>
<clipPath id="clip0_2_64421">
<rect width="95" height="95" rx="8" fill="white"/>
</clipPath>
</defs>
</svg>
