<svg width="83" height="76" viewBox="0 0 83 76" fill="none" xmlns="http://www.w3.org/2000/svg">
<path d="M22.8239 67.2757C22.8239 67.2757 22.1946 67.4752 21.3776 67.5085C21.3491 68.5796 21.1424 69.4132 21.1424 69.4132C21.1424 69.4132 20.9334 68.5796 20.9073 67.5085C20.0903 67.4752 19.4609 67.2757 19.4609 67.2757C19.4609 67.2757 20.0903 67.0762 20.9073 67.043C20.9358 65.9719 21.1424 65.1406 21.1424 65.1406C21.1424 65.1406 21.3514 65.9742 21.3776 67.043C22.1969 67.0739 22.8239 67.2757 22.8239 67.2757Z" fill="white"/>
<path d="M79.3161 25.2145C79.3161 25.2145 78.6867 25.414 77.8697 25.4472C77.8412 26.5183 77.6346 27.352 77.6346 27.352C77.6346 27.352 77.4256 26.5183 77.3995 25.4472C76.5825 25.414 75.9531 25.2145 75.9531 25.2145C75.9531 25.2145 76.5825 25.015 77.3995 24.9817C77.428 23.9106 77.6346 23.0793 77.6346 23.0793C77.6346 23.0793 77.8436 23.913 77.8697 24.9817C78.6867 25.015 79.3161 25.2145 79.3161 25.2145Z" fill="white"/>
<path d="M82.6755 47.3566C82.6755 47.3566 82.0461 47.5561 81.2291 47.5893C81.2006 48.6604 80.994 49.4941 80.994 49.4941C80.994 49.4941 80.785 48.6604 80.7589 47.5893C79.9419 47.5561 79.3125 47.3566 79.3125 47.3566C79.3125 47.3566 79.9419 47.1571 80.7589 47.1238C80.7874 46.0527 80.994 45.2214 80.994 45.2214C80.994 45.2214 81.203 46.0551 81.2291 47.1238C82.0461 47.1571 82.6755 47.3566 82.6755 47.3566Z" fill="white"/>
<path d="M7.50362 24.642C7.50362 24.642 6.87425 24.8415 6.05725 24.8747C6.02875 25.9458 5.82212 26.7795 5.82212 26.7795C5.82212 26.7795 5.61313 25.9458 5.587 24.8747C4.77 24.8415 4.14062 24.642 4.14062 24.642C4.14062 24.642 4.77 24.4425 5.587 24.4092C5.6155 23.3381 5.82212 22.5068 5.82212 22.5068C5.82212 22.5068 6.03112 23.3405 6.05725 24.4092C6.87663 24.4425 7.50362 24.642 7.50362 24.642Z" fill="white"/>
<path d="M14.427 43.9128C14.427 43.9128 13.933 44.0695 13.2894 44.0956C13.268 44.9388 13.1041 45.5919 13.1041 45.5919C13.1041 45.5919 12.9403 44.9364 12.9189 44.0956C12.2753 44.0695 11.7812 43.9128 11.7812 43.9128C11.7812 43.9128 12.2753 43.756 12.9189 43.7299C12.9403 42.8891 13.1041 42.2336 13.1041 42.2336C13.1041 42.2336 13.268 42.8891 13.2894 43.7299C13.933 43.756 14.427 43.9128 14.427 43.9128Z" fill="white"/>
<path d="M6.34888 72.4814C6.34888 72.4814 5.85488 72.6381 5.21125 72.6642C5.18988 73.5074 5.026 74.1605 5.026 74.1605C5.026 74.1605 4.86212 73.505 4.84075 72.6642C4.19712 72.6381 3.70312 72.4814 3.70312 72.4814C3.70312 72.4814 4.19712 72.3246 4.84075 72.2985C4.86212 71.4577 5.026 70.8022 5.026 70.8022C5.026 70.8022 5.18988 71.4577 5.21125 72.2985C5.85488 72.3246 6.34888 72.4814 6.34888 72.4814Z" fill="white"/>
<path d="M29.0051 8.91008C29.0051 8.91008 28.5111 9.06683 27.8675 9.09296C27.8461 9.93608 27.6823 10.5892 27.6823 10.5892C27.6823 10.5892 27.5184 9.93371 27.497 9.09296C26.8534 9.06683 26.3594 8.91008 26.3594 8.91008C26.3594 8.91008 26.8534 8.75333 27.497 8.72721C27.5184 7.88646 27.6823 7.23096 27.6823 7.23096C27.6823 7.23096 27.8461 7.88646 27.8675 8.72721C28.5111 8.75096 29.0051 8.91008 29.0051 8.91008Z" fill="white"/>
<path d="M40.1223 1.69719C40.1223 1.69719 39.6283 1.85394 38.9847 1.88007C38.9633 2.72319 38.7994 3.37632 38.7994 3.37632C38.7994 3.37632 38.6356 2.72082 38.6142 1.88007C37.9706 1.85394 37.4766 1.69719 37.4766 1.69719C37.4766 1.69719 37.9706 1.54044 38.6142 1.51432C38.6356 0.673566 38.7994 0.0180664 38.7994 0.0180664C38.7994 0.0180664 38.9633 0.673566 38.9847 1.51432C39.6283 1.54044 40.1223 1.69719 40.1223 1.69719Z" fill="white"/>
<path d="M12.4583 5.81999C12.4583 5.81999 11.9643 5.97674 11.3206 6.00287C11.2993 6.84599 11.1354 7.49912 11.1354 7.49912C11.1354 7.49912 10.9715 6.84362 10.9501 6.00287C10.3065 5.97674 9.8125 5.81999 9.8125 5.81999C9.8125 5.81999 10.3065 5.66324 10.9501 5.63712C10.9715 4.79637 11.1354 4.14087 11.1354 4.14087C11.1354 4.14087 11.2993 4.79637 11.3206 5.63712C11.9643 5.66324 12.4583 5.81999 12.4583 5.81999Z" fill="white"/>
<path d="M2.64575 52.3415C2.64575 52.3415 2.15175 52.4982 1.50813 52.5244C1.48675 53.3675 1.32287 54.0206 1.32287 54.0206C1.32287 54.0206 1.159 53.3651 1.13763 52.5244C0.494 52.4982 0 52.3415 0 52.3415C0 52.3415 0.494 52.1847 1.13763 52.1586C1.159 51.3179 1.32287 50.6624 1.32287 50.6624C1.32287 50.6624 1.48675 51.3179 1.50813 52.1586C2.15175 52.1847 2.64575 52.3415 2.64575 52.3415Z" fill="white"/>
<path d="M62.0754 38.7402C62.0754 38.7402 61.5814 38.8969 60.9378 38.923C60.9164 39.7662 60.7526 40.4193 60.7526 40.4193C60.7526 40.4193 60.5887 39.7638 60.5673 38.923C59.9237 38.8969 59.4297 38.7402 59.4297 38.7402C59.4297 38.7402 59.9237 38.5834 60.5673 38.5573C60.5887 37.7165 60.7526 37.061 60.7526 37.061C60.7526 37.061 60.9164 37.7165 60.9378 38.5573C61.5814 38.5834 62.0754 38.7402 62.0754 38.7402Z" fill="white"/>
<path d="M67.5364 58.2507C67.5364 58.2507 67.0424 58.4074 66.3987 58.4335C66.3774 59.2767 66.2135 59.9298 66.2135 59.9298C66.2135 59.9298 66.0496 59.2743 66.0283 58.4335C65.3846 58.4074 64.8906 58.2507 64.8906 58.2507C64.8906 58.2507 65.3846 58.0939 66.0283 58.0678C66.0496 57.227 66.2135 56.5715 66.2135 56.5715C66.2135 56.5715 66.3774 57.227 66.3987 58.0678C67.04 58.0939 67.5364 58.2507 67.5364 58.2507Z" fill="white"/>
<path d="M46.6379 74.1633C46.6379 74.1633 46.1439 74.32 45.5003 74.3461C45.4789 75.1893 45.3151 75.8424 45.3151 75.8424C45.3151 75.8424 45.1512 75.1869 45.1298 74.3461C44.4862 74.32 43.9922 74.1633 43.9922 74.1633C43.9922 74.1633 44.4862 74.0065 45.1298 73.9804C45.1512 73.1396 45.3151 72.4841 45.3151 72.4841C45.3151 72.4841 45.4789 73.1396 45.5003 73.9804C46.1416 74.0065 46.6379 74.1633 46.6379 74.1633Z" fill="white"/>
<path d="M75.9504 11.6318C75.9504 11.6318 75.4564 11.7885 74.8128 11.8146C74.7914 12.6578 74.6276 13.3109 74.6276 13.3109C74.6276 13.3109 74.4637 12.6554 74.4423 11.8146C73.7987 11.7885 73.3047 11.6318 73.3047 11.6318C73.3047 11.6318 73.7987 11.475 74.4423 11.4489C74.4637 10.6081 74.6276 9.95264 74.6276 9.95264C74.6276 9.95264 74.7914 10.6081 74.8128 11.4489C75.4541 11.475 75.9504 11.6318 75.9504 11.6318Z" fill="white"/>
<path d="M59.5989 23.0771C59.5989 23.0771 59.1049 23.2338 58.4613 23.26C58.4399 24.1031 58.276 24.7562 58.276 24.7562C58.276 24.7562 58.1121 24.1007 58.0907 23.26C57.4471 23.2338 56.9531 23.0771 56.9531 23.0771C56.9531 23.0771 57.4471 22.9203 58.0907 22.8942C58.1121 22.0534 58.276 21.3979 58.276 21.3979C58.276 21.3979 58.4399 22.0534 58.4613 22.8942C59.1049 22.9203 59.5989 23.0771 59.5989 23.0771Z" fill="white"/>
<path d="M60.1614 5.81999C60.1614 5.81999 59.6674 5.97674 59.0237 6.00287C59.0024 6.84599 58.8385 7.49912 58.8385 7.49912C58.8385 7.49912 58.6746 6.84362 58.6532 6.00287C58.0096 5.97674 57.5156 5.81999 57.5156 5.81999C57.5156 5.81999 58.0096 5.66324 58.6532 5.63712C58.6746 4.79637 58.8385 4.14087 58.8385 4.14087C58.8385 4.14087 59.0024 4.79637 59.0237 5.63712C59.6674 5.66324 60.1614 5.81999 60.1614 5.81999Z" fill="white"/>
<path d="M80.6379 69.8095C80.6379 69.8095 80.1439 69.9662 79.5003 69.9924C79.4789 70.8355 79.3151 71.4886 79.3151 71.4886C79.3151 71.4886 79.1512 70.8331 79.1298 69.9924C78.4862 69.9662 77.9922 69.8095 77.9922 69.8095C77.9922 69.8095 78.4862 69.6527 79.1298 69.6266C79.1512 68.7859 79.3151 68.1304 79.3151 68.1304C79.3151 68.1304 79.4789 68.7859 79.5003 69.6266C80.1439 69.6527 80.6379 69.8095 80.6379 69.8095Z" fill="white"/>
<path d="M32.3438 60.6184C32.3438 60.6184 37.5996 65.4848 46.4845 63.3972C55.1295 61.3666 56.8229 54.2891 56.8229 54.2891L32.3438 60.6184Z" fill="#FFDB45"/>
<g opacity="0.2">
<path d="M49.3851 60.7968C43.7017 62.1315 39.5027 60.621 37.2156 59.3599L32.3516 60.6186C32.3516 60.6186 37.6074 65.485 46.4923 63.3974C50.4182 62.4759 52.9096 60.5141 54.4604 58.645C53.1162 59.5404 51.4489 60.3123 49.3851 60.7968Z" fill="#371A45"/>
</g>
<path d="M42.1473 64.3378C39.5371 64.3378 37.4258 63.775 35.9295 63.186C33.4595 62.2122 32.1129 60.982 32.0583 60.9297C31.9443 60.8228 31.8968 60.6637 31.9348 60.5141C31.9728 60.3621 32.0915 60.2457 32.2411 60.2053L56.7179 53.876C56.8628 53.838 57.0171 53.8807 57.124 53.9852C57.2309 54.0897 57.2736 54.2417 57.2404 54.389C57.2214 54.465 56.7796 56.2676 55.2406 58.3362C53.8251 60.2386 51.177 62.7347 46.5861 63.813C44.983 64.1882 43.4986 64.3378 42.1473 64.3378ZM33.2885 60.8134C33.8941 61.2432 34.9059 61.8702 36.2786 62.407C38.428 63.2477 41.9264 64.0291 46.389 62.9817C49.8589 62.1671 52.5996 60.4428 54.5329 57.8588C55.4164 56.6785 55.9199 55.5788 56.1788 54.8948L33.2885 60.8134Z" fill="#371A45"/>
<path d="M74.5978 42.6229C75.8803 47.9761 63.0838 56.158 45.124 60.4639C27.1643 64.7698 10.8433 63.568 9.5608 58.2148C8.2783 52.8615 21.792 44.5324 39.7518 40.2289C57.7115 35.9254 73.3129 37.2672 74.5978 42.6229Z" fill="#7B71FF"/>
<g opacity="0.6">
<path d="M39.3952 41.331C57.3549 37.0251 72.9587 38.3717 74.2412 43.7273C74.3528 44.1952 74.3552 44.6845 74.2578 45.1903C74.6639 44.2855 74.7898 43.4233 74.5974 42.623C73.3149 37.2697 57.7112 35.9231 39.7514 40.2266C23.2642 44.1786 10.5247 51.5197 9.53906 56.8397C11.9069 51.648 24.0218 45.017 39.3952 41.331Z" fill="white"/>
</g>
<g opacity="0.2">
<path d="M47.4611 57.3526C30.5084 61.4162 15.1017 60.2833 13.8905 55.2293C13.3941 53.1631 15.2371 50.6242 18.7474 48.0711C12.4726 51.5861 8.86973 55.3315 9.56086 58.2147C10.8434 63.568 27.1644 64.7697 45.1241 60.4638C62.1481 56.3836 74.5337 48.8192 74.6834 43.4802C71.9592 48.2421 61.3454 54.0228 47.4611 57.3526Z" fill="#371A45"/>
</g>
<path d="M20.5795 55.8271C21.3145 54.7854 21.3195 53.524 20.5907 53.0098C19.8619 52.4956 18.6752 52.9233 17.9402 53.965C17.2052 55.0068 17.2002 56.2682 17.929 56.7824C18.6578 57.2966 19.8444 56.8689 20.5795 55.8271Z" fill="#FFDB45"/>
<g opacity="0.2">
<path d="M18.87 55.1654C18.3902 54.8281 18.2311 54.1655 18.3855 53.4578C18.2287 53.605 18.0791 53.7736 17.9461 53.9613C17.2098 55.0039 17.2051 56.265 17.9342 56.7804C18.6633 57.2958 19.8508 56.8659 20.5847 55.8256C20.8365 55.4694 21.0003 55.087 21.0811 54.7165C20.3686 55.3744 19.4661 55.5858 18.87 55.1654Z" fill="#371A45"/>
</g>
<g opacity="0.6">
<path d="M20.5956 53.0071C19.8664 52.4918 18.6789 52.9216 17.9451 53.9619C17.8619 54.0783 17.7907 54.1994 17.7266 54.3205C18.4581 53.5225 19.4651 53.2351 20.1134 53.6911C20.7594 54.1471 20.8283 55.1921 20.3201 56.1493C20.4127 56.0471 20.5029 55.9403 20.5861 55.8215C21.3176 54.7813 21.3223 53.5201 20.5956 53.0071Z" fill="white"/>
</g>
<path d="M18.6472 57.4239C18.2933 57.4239 17.9632 57.3242 17.6853 57.1271C17.2151 56.7969 16.9586 56.2412 16.961 55.5667C16.9633 54.9468 17.189 54.2913 17.5927 53.7166C17.9988 53.1418 18.5427 52.7096 19.1246 52.5006C19.7587 52.2726 20.3691 52.3272 20.837 52.6597C21.7727 53.3199 21.8107 54.8186 20.9272 56.0702C20.5211 56.6449 19.9772 57.0772 19.3953 57.2862C19.1388 57.3788 18.8871 57.4239 18.6472 57.4239ZM19.8727 53.2131C19.6922 53.2131 19.526 53.2582 19.412 53.3009C18.9916 53.4529 18.5926 53.7736 18.2886 54.2082C17.9822 54.6404 17.8136 55.1249 17.8112 55.5714C17.8112 55.7971 17.8563 56.2079 18.1746 56.4336C18.4928 56.6592 18.8966 56.5642 19.108 56.4858C19.5283 56.3338 19.9273 56.0132 20.2313 55.5786C20.8203 54.7449 20.8726 53.7261 20.3453 53.3532C20.1981 53.2487 20.0295 53.2131 19.8727 53.2131Z" fill="#371A45"/>
<path d="M45.1433 56.4742C46.0124 56.2736 46.4845 55.1039 46.1977 53.8616C45.911 52.6193 44.974 51.7748 44.1049 51.9754C43.2358 52.176 42.7637 53.3457 43.0504 54.588C43.3372 55.8303 44.2742 56.6748 45.1433 56.4742Z" fill="#FFDB45"/>
<g opacity="0.2">
<path d="M44.5647 54.6997C43.9924 54.8327 43.3939 54.5097 42.9688 53.9231C42.9735 54.1392 42.9996 54.3624 43.0519 54.5881C43.3392 55.8302 44.275 56.6757 45.1443 56.4738C46.0135 56.2743 46.4861 55.1034 46.1987 53.8613C46.1014 53.4362 45.9256 53.0586 45.7024 52.7522C45.7214 53.7212 45.2772 54.5358 44.5647 54.6997Z" fill="#371A45"/>
</g>
<g opacity="0.6">
<path d="M44.1074 51.9731C43.2381 52.1726 42.7655 53.3435 43.0529 54.5856C43.0861 54.7258 43.1265 54.8588 43.174 54.9894C43.0671 53.9111 43.5231 52.9706 44.295 52.7925C45.0669 52.6144 45.891 53.2604 46.2663 54.2769C46.252 54.1391 46.2306 54.0014 46.1998 53.8613C45.9124 52.6168 44.9766 51.7713 44.1074 51.9731Z" fill="white"/>
</g>
<path d="M44.8791 56.9298C44.435 56.9298 43.9885 56.7445 43.5918 56.3883C43.1311 55.975 42.7915 55.3694 42.6347 54.683C42.4756 53.9967 42.516 53.3032 42.7487 52.7308C43.0005 52.1038 43.4493 51.6882 44.0075 51.5599C45.1213 51.3034 46.2661 52.2724 46.6105 53.7663C46.9548 55.2602 46.3516 56.6329 45.2377 56.8894C45.119 56.9155 45.0002 56.9298 44.8791 56.9298ZM44.3637 52.3698C44.3091 52.3698 44.2521 52.3769 44.1998 52.3888C43.8198 52.4767 43.6227 52.84 43.5396 53.049C43.3733 53.4623 43.3472 53.9753 43.466 54.4907C43.5847 55.0084 43.8341 55.4573 44.1642 55.7542C44.3305 55.9038 44.6677 56.146 45.0477 56.0582C45.6747 55.9133 46.012 54.9514 45.784 53.9563C45.5726 53.0467 44.9503 52.3698 44.3637 52.3698Z" fill="#371A45"/>
<path d="M68.1278 43.1724C68.3812 42.3172 67.5956 41.3303 66.3732 40.9681C65.1508 40.6059 63.9544 41.0055 63.701 41.8607C63.4476 42.7159 64.2332 43.7028 65.4556 44.065C66.678 44.4272 67.8744 44.0276 68.1278 43.1724Z" fill="#FFDB45"/>
<g opacity="0.2">
<path d="M66.2989 42.8011C66.1327 43.364 65.5579 43.7274 64.8359 43.8081C65.0259 43.9102 65.2326 43.9981 65.4534 44.0622C66.6766 44.4256 67.8736 44.0242 68.1253 43.1692C68.3771 42.3142 67.5933 41.3262 66.3702 40.9652C65.9522 40.8417 65.5366 40.8085 65.1589 40.8512C66.0187 41.3144 66.5079 42.1005 66.2989 42.8011Z" fill="#371A45"/>
</g>
<g opacity="0.6">
<path d="M63.704 41.8583C63.4498 42.7133 64.236 43.7013 65.4591 44.0623C65.5968 44.1027 65.7346 44.1335 65.87 44.1549C64.8796 43.7179 64.2835 42.8558 64.5091 42.0958C64.7347 41.3358 65.7013 40.9392 66.7725 41.1102C66.6466 41.0556 66.516 41.0057 66.3782 40.9629C65.1527 40.6043 63.9581 41.0033 63.704 41.8583Z" fill="white"/>
</g>
<path d="M66.3687 44.6253C66.0386 44.6253 65.6895 44.5755 65.3356 44.471C63.8655 44.0363 62.9677 42.8346 63.2931 41.7373C63.457 41.1863 63.8987 40.766 64.54 40.5522C65.1266 40.3575 65.8225 40.3575 66.497 40.557C67.1715 40.7565 67.7557 41.1341 68.1405 41.6186C68.5608 42.1458 68.7033 42.742 68.5395 43.293C68.2901 44.1266 67.4185 44.6253 66.3687 44.6253ZM65.4733 41.2576C65.2382 41.2576 65.0126 41.2908 64.8083 41.3597C64.5946 41.431 64.2193 41.6067 64.1101 41.9796C63.9272 42.5971 64.5993 43.3642 65.5778 43.654C66.5563 43.9437 67.5372 43.6658 67.7225 43.0483C67.8341 42.6755 67.6132 42.324 67.4731 42.1482C67.1952 41.7991 66.763 41.5236 66.2547 41.374C65.9911 41.298 65.7251 41.2576 65.4733 41.2576Z" fill="#371A45"/>
<path d="M24.8089 63.5014C24.7851 63.5014 24.7637 63.499 24.74 63.4966C24.5072 63.4586 24.3505 63.2401 24.3885 63.0074C24.4407 62.6915 25.7066 55.2126 31.01 49.629C31.1715 49.458 31.4422 49.4509 31.6132 49.6124C31.7842 49.7739 31.7914 50.0446 31.6299 50.2156C26.5046 55.6116 25.2435 63.0715 25.2316 63.1451C25.1936 63.3518 25.0131 63.5014 24.8089 63.5014Z" fill="#371A45"/>
<path d="M65.9113 53.0514C65.7831 53.0514 65.6548 52.992 65.5717 52.8828C65.5218 52.8163 60.4369 46.2067 53.471 45.2875C53.2383 45.2567 53.0744 45.0429 53.1053 44.8102C53.1362 44.5774 53.3499 44.4135 53.5827 44.4444C60.9072 45.411 66.0372 52.0872 66.2509 52.3698C66.3934 52.5574 66.3554 52.8234 66.1678 52.9659C66.0918 53.0229 66.0016 53.0514 65.9113 53.0514Z" fill="#371A45"/>
<g opacity="0.45">
<path d="M48.0348 49.0737C51.2268 47.8577 56.6584 45.3688 60.0665 41.5046C60.2209 41.3289 60.4845 41.3051 60.6745 41.4429C61.3728 41.9535 62.7408 43.2692 61.3728 44.9769C59.8551 46.8721 53.8108 49.5297 48.2295 49.9501C47.707 49.9881 47.5479 49.259 48.0348 49.0737Z" fill="white"/>
</g>
<path d="M24.7688 63.5037C23.4886 63.5037 22.2489 63.4657 21.059 63.385C14.048 62.9195 9.81813 61.1169 9.14363 58.312C8.46913 55.5 11.3381 52.0016 17.2186 48.4605C23.0421 44.955 31.0079 41.8841 39.6505 39.8107C48.2813 37.7421 56.7363 36.8776 63.4575 37.3764C70.231 37.8799 74.335 39.7062 75.0095 42.523C76.4108 48.3702 63.049 56.6044 45.2199 60.877C38.0474 62.5989 30.9295 63.5037 24.7688 63.5037ZM59.5578 38.0912C53.6678 38.0912 46.8206 38.97 39.85 40.642C31.2905 42.694 23.4079 45.7316 17.658 49.192C12.2026 52.4766 9.40013 55.728 9.97251 58.1149C10.5425 60.4922 14.6038 62.1025 21.116 62.5371C27.8491 62.986 36.563 62.0787 45.0251 60.0505C53.5395 58.0104 61.2915 54.9989 66.8537 51.5741C72.0882 48.3512 74.7601 45.126 74.183 42.7225C73.6106 40.3332 69.6776 38.6945 63.3958 38.229C62.1726 38.1364 60.8878 38.0912 59.5578 38.0912Z" fill="#371A45"/>
<path d="M57.2353 42.3021C45.6714 51.5907 30.5284 50.2346 24.712 49.2632C23.2775 49.0233 22.2753 47.7171 22.4202 46.2707C22.9332 41.1739 25.4198 29.9164 37.3542 27.8882C49.336 25.8528 55.6678 34.6807 57.9335 38.8156C58.5795 39.9936 58.2827 41.4613 57.2353 42.3021Z" fill="#64DBFF"/>
<g opacity="0.2">
<path d="M51.176 46.1283C44.0486 49.5935 36.4557 50.1539 30.8436 49.9046C28.8462 49.7692 27.1505 49.5412 25.8917 49.3322C24.4572 49.0923 23.455 47.7837 23.5998 46.3373C24.1057 41.3213 26.5211 30.3417 37.9733 28.0593C31.0265 32.5766 29.934 41.0696 29.8437 45.2899C29.8128 46.7435 30.9148 47.9666 32.366 48.0924C36.0757 48.4131 43.4928 48.5936 51.176 46.1283Z" fill="#371A45"/>
</g>
<g opacity="0.6">
<path d="M57.9305 38.8156C55.6648 34.6807 49.333 25.8528 37.3511 27.8882C33.2329 28.5888 30.238 30.3867 28.0625 32.6548C30.1573 30.7572 32.9146 29.2823 36.5531 28.6624C48.535 26.6271 54.8668 35.4549 57.1325 39.5898C57.6526 40.5374 57.56 41.6703 56.9615 42.5158C57.0518 42.4446 57.142 42.3757 57.2323 42.3044C58.2796 41.4613 58.5765 39.9936 57.9305 38.8156Z" fill="white"/>
</g>
<path d="M33.1784 50.3579C29.6302 50.3579 26.6306 49.9922 24.6403 49.6597C23.0016 49.3865 21.8497 47.8784 22.0159 46.2302C22.5123 41.2926 24.9942 29.579 37.2824 27.4914C49.5849 25.4014 56.0663 34.5784 58.2822 38.623C59.0208 39.972 58.6859 41.6512 57.4818 42.6178C49.6966 48.8712 40.3248 50.3579 33.1784 50.3579ZM40.7784 27.9925C39.7121 27.9925 38.5934 28.0852 37.4178 28.2847C25.6734 30.2797 23.2937 41.5562 22.8163 46.3109C22.6928 47.5412 23.5526 48.6645 24.7733 48.8688C26.7303 49.1965 29.6896 49.5575 33.1832 49.5575C40.1942 49.5575 49.3712 48.1017 56.9783 41.9908C57.8761 41.2688 58.1278 40.0172 57.5768 39.0102C55.6578 35.5047 50.4114 27.9925 40.7784 27.9925Z" fill="#371A45"/>
<path d="M53.9144 32.6169C53.9144 32.6169 54.9476 32.0303 55.5009 32.6169C56.0543 33.2035 55.1376 34.2343 54.4108 34.4742C53.6841 34.714 53.0547 33.4149 53.0547 33.4149L53.9144 32.6169Z" fill="#8BE230"/>
<path d="M54.221 34.909C53.3565 34.909 52.7627 33.7405 52.6891 33.5933C52.6107 33.4342 52.6487 33.2442 52.777 33.123L53.6367 32.325C53.6605 32.3037 53.6842 32.2847 53.7127 32.2704C54.1972 31.9949 55.1828 31.7004 55.7908 32.344C56.0426 32.61 56.1281 32.9639 56.0331 33.3439C55.8597 34.0327 55.1187 34.6668 54.5345 34.8592C54.4276 34.8924 54.3231 34.909 54.221 34.909ZM53.5583 33.4935C53.7745 33.8308 54.0832 34.1562 54.2827 34.092C54.6912 33.9567 55.1638 33.4959 55.2517 33.142C55.2873 33.0019 55.2493 32.9402 55.2066 32.8927C54.9263 32.5958 54.3017 32.8737 54.145 32.9497L53.5583 33.4935Z" fill="#371A45"/>
<path d="M53.3076 33.4535C53.3076 33.4535 54.0843 33.7836 54.469 34.3014C54.5545 34.4106 54.6186 34.5318 54.6566 34.6576C54.7706 35.059 54.5427 36.351 52.2199 35.116C52.2199 35.116 49.7998 38.9778 44.8479 41.7161C44.437 41.9441 44.0071 42.1626 43.5606 42.3716C43.5606 42.3716 43.0595 42.0558 42.4895 41.4359C42.0074 40.9158 41.4801 40.1771 41.1619 39.2319C40.9196 38.5123 40.8009 37.6739 40.9244 36.7168C40.9648 36.3819 41.036 36.0351 41.1405 35.6718C41.1405 35.6718 42.6391 35.1896 44.9073 34.3726C45.0878 34.3061 45.2706 34.2396 45.4606 34.1708C47.2799 33.5058 49.5172 32.6508 51.8447 31.6699C51.8447 31.6699 54.7992 29.3804 55.6874 29.093C56.0365 28.9814 56.3382 29.2165 56.3382 29.7081C56.3453 30.4681 55.6375 31.8338 53.3076 33.4535Z" fill="#63FF48"/>
<g opacity="0.2">
<path d="M52.2226 35.1134C52.2226 35.1134 49.8024 38.9751 44.8506 41.7135C44.4397 41.9415 44.0098 42.16 43.5633 42.369C43.5633 42.369 43.0622 42.0531 42.4922 41.4333V38.8849C42.4922 38.8849 47.9286 36.9991 51.1942 34.0043C51.3913 33.8238 51.6882 33.8048 51.9067 33.9591C52.5978 34.4413 54.0418 35.2915 54.4741 34.3011C54.5596 34.4104 54.6237 34.5315 54.6617 34.6574C54.7733 35.0588 54.5453 36.3484 52.2226 35.1134Z" fill="#371A45"/>
</g>
<g opacity="0.6">
<path d="M56.3463 29.7103C56.2323 29.7365 56.1183 29.7436 56.0185 29.7246C55.5791 29.6462 52.2256 32.3561 52.2256 32.3561C47.3593 34.3772 44.875 34.4746 44.875 34.4746C44.875 34.4746 44.8869 34.4366 44.913 34.3725C45.0935 34.306 45.2764 34.2395 45.4664 34.1706C47.2856 33.5056 49.5229 32.6506 51.8504 31.6697C51.8504 31.6697 54.8049 29.3802 55.6931 29.0928C56.0423 28.9812 56.3439 29.2187 56.3463 29.7103Z" fill="white"/>
</g>
<path d="M51.9884 35.4413C51.6987 35.1539 51.4493 34.8499 51.2712 34.4794C51.2165 34.3678 51.34 34.2395 51.4517 34.2894C51.72 34.3939 51.9694 34.5388 52.2212 34.667L52.4587 34.7905C52.9883 35.1064 52.4539 35.845 51.9884 35.4413Z" fill="#371A45"/>
<path d="M43.5605 42.773C43.4845 42.773 43.4109 42.7516 43.3467 42.7112C43.3064 42.6875 39.4161 40.1629 40.758 35.5577C40.796 35.4295 40.8934 35.3274 41.0216 35.287C41.0715 35.2704 46.1255 33.6411 51.645 31.3207C52.1034 30.9669 54.6731 29.0004 55.5685 28.7106C56.0007 28.5705 56.4259 28.7486 56.6254 29.1547C57.0505 30.0145 56.4021 31.6319 54.0627 33.4036C54.4475 33.6554 54.9011 34.0425 55.046 34.546C55.1315 34.8452 55.1006 35.4176 54.6636 35.7715C54.172 36.1705 53.3954 36.123 52.3575 35.6337C51.6022 36.7144 48.7879 40.3695 43.7315 42.735C43.6769 42.7587 43.6175 42.773 43.5605 42.773ZM41.4729 35.9852C40.5941 39.3886 42.9169 41.4002 43.5985 41.9061C49.0966 39.258 51.8516 34.945 51.8801 34.8999C51.9917 34.7217 52.2245 34.66 52.4097 34.7574C53.6542 35.4176 54.0627 35.2205 54.1577 35.1421C54.2955 35.0305 54.2884 34.8144 54.2717 34.7645C54.1577 34.3631 53.469 33.9546 53.1531 33.8192C53.0177 33.7622 52.9251 33.6364 52.9109 33.4891C52.8966 33.3442 52.9607 33.2017 53.0819 33.1186C55.6754 31.3184 56.1029 29.91 55.9057 29.5086C55.8844 29.4659 55.8749 29.454 55.8155 29.473C55.2122 29.6677 53.26 31.0809 52.0962 31.9857C52.0677 32.0071 52.0392 32.0261 52.006 32.038C47.066 34.1185 42.487 35.6527 41.4729 35.9852Z" fill="#371A45"/>
<path d="M46.6802 47.9236C46.6802 47.9236 41.5549 49.8426 34.1924 49.9186C33.7554 49.9234 33.3113 49.921 32.8577 49.9115C32.8577 49.9115 32.8268 49.6004 32.8387 49.0256C32.8767 47.337 33.2757 43.385 35.8692 38.4212C36.0805 38.0151 36.3109 37.5995 36.5532 37.1791L38.2845 36.982L40.669 36.7136H41.6547L42.2365 38.2479C42.2365 38.2479 42.2698 38.3476 42.3339 38.5115C42.5524 39.0767 43.1295 40.4067 43.9299 41.0005C44.1864 41.1905 44.5094 41.4114 44.8443 41.7106C45.6352 42.4207 46.4925 43.575 46.6873 45.8099C46.7395 46.4297 46.7443 47.128 46.6802 47.9236Z" fill="#63FF48"/>
<g opacity="0.2">
<path d="M46.6802 47.924C46.6802 47.924 41.5549 49.843 34.1924 49.919C33.7554 49.9237 33.3113 49.9213 32.8577 49.9118C32.8577 49.9118 32.8268 49.6007 32.8387 49.026C33.715 46.7008 35.5557 42.034 36.7883 40.5068C36.7883 40.5068 35.748 47.6888 40.8709 48.4702C45.9938 49.2516 46.6802 45.8102 46.6802 45.8102C46.6802 45.8102 46.6825 45.8126 46.6873 45.8126C46.7395 46.4301 46.7443 47.1283 46.6802 47.924Z" fill="#371A45"/>
</g>
<g opacity="0.6">
<path d="M42.8672 44.4252C42.8672 44.4252 43.8718 43.3351 44.9406 43.9906C46.0117 44.6461 45.6578 46.1067 45.6578 46.1067C45.6578 46.1067 46.4724 44.4822 45.6626 43.5987C44.8551 42.7128 43.3256 42.9717 42.8672 44.4252Z" fill="white"/>
</g>
<path d="M42.4772 44.7387C42.577 43.4965 43.508 42.4183 44.8309 42.6772C46.4791 43.0524 47.3935 45.3277 45.864 46.4249C45.5552 46.6505 45.2132 46.793 44.8689 46.8714C44.7786 46.8928 44.6884 46.8358 44.667 46.7455C44.6504 46.6743 44.6836 46.6007 44.743 46.5627C45.0232 46.3917 45.2892 46.2088 45.4887 45.9903C46.3675 45.1472 45.6977 43.753 44.6527 43.4205C43.7597 43.1973 43.128 43.9525 42.8145 44.7957C42.7551 44.9952 42.4606 44.9405 42.4772 44.7387Z" fill="#371A45"/>
<path d="M45.3395 44.1191C45.0902 44.5371 44.9025 45.0144 44.7648 45.4847C44.7363 45.5892 44.627 45.6486 44.5225 45.6177C44.4252 45.5892 44.3658 45.4894 44.3872 45.3921C44.4418 45.1308 44.5083 44.8743 44.5914 44.6202C44.6793 44.3566 44.7672 44.1167 44.8954 43.8626C44.9595 43.7367 45.1163 43.6844 45.2422 43.7509C45.3752 43.8174 45.4227 43.9908 45.3395 44.1191Z" fill="#371A45"/>
<path d="M44.3138 44.0455C44.7935 44.3067 45.2139 44.6345 45.6129 45.0026C45.791 45.1736 45.5535 45.4491 45.3588 45.2995C44.9717 44.9931 44.5418 44.7105 44.0953 44.5134C43.7723 44.3637 43.9955 43.8887 44.3138 44.0455Z" fill="#371A45"/>
<path d="M42.3478 38.2124C42.8655 39.1173 43.2954 40.1504 44.1385 40.7846C44.7893 41.2239 45.4163 41.7179 45.8913 42.3616C46.7629 43.5586 47.0883 45.0643 47.1168 46.5202C47.1168 46.6318 47.1263 46.9501 47.1263 47.0593C47.1263 47.1947 47.0859 47.8074 47.0835 47.9523C47.0764 48.1138 46.9672 48.2492 46.8223 48.2967C45.9649 48.5983 45.1265 48.8334 44.2549 49.0519C40.5309 49.9758 36.6834 50.3748 32.8502 50.3131C32.6435 50.3131 32.4749 50.1516 32.4583 49.9497C32.4464 49.7858 32.4417 49.6481 32.4393 49.5008C32.4322 49.0686 32.4464 48.6363 32.4797 48.2064C32.6982 45.3707 33.5128 42.5967 34.6647 40.0056C34.8499 39.5543 35.1824 38.9154 35.3962 38.4713C35.6574 37.9678 35.9377 37.4762 36.206 36.9798C36.2678 36.8658 36.377 36.7969 36.4958 36.7827C36.5029 36.7708 40.614 36.3243 40.6235 36.3148C40.8444 36.2887 41.0439 36.4478 41.0677 36.6687C41.0938 36.8896 40.9347 37.0891 40.7138 37.1128L36.5979 37.5783L36.9019 37.3812C36.6383 37.8681 36.3652 38.3478 36.111 38.8371C35.6337 39.7942 35.1373 40.8582 34.7715 41.8628C33.9925 43.9148 33.4534 46.0737 33.2824 48.2658C33.242 48.7954 33.2254 49.3488 33.2587 49.8737L32.8668 49.5103C37.479 49.5697 42.1554 49.0092 46.5397 47.5462C46.5397 47.5462 46.2784 47.8929 46.2808 47.8906C46.4518 45.1949 46.162 42.8936 43.7823 41.2667C43.2432 40.8487 42.8537 40.2359 42.571 39.6422C42.3715 39.2052 42.2124 38.7587 42.1245 38.2861C42.1127 38.2219 42.1554 38.1602 42.2195 38.1483C42.2742 38.1388 42.3264 38.1673 42.3478 38.2124Z" fill="#371A45"/>
<path d="M38.4037 37.1221C38.2517 37.2836 37.81 38.2194 37.4276 39.0649C37.0856 39.8201 36.7887 40.5041 36.7887 40.5041C35.7295 42.4825 34.637 46.0664 34.637 46.0664C34.637 46.0664 34.7533 46.1257 34.9101 46.2445C35.2165 46.4725 35.6748 46.9166 35.7461 47.5579C35.853 48.534 34.8531 48.3321 34.8531 48.3321C34.8531 48.3321 35.4753 49.5505 34.1928 49.9162C34.1715 49.9234 34.1453 49.9305 34.1216 49.9376C32.7441 50.282 28.4145 49.4222 28.1841 47.3275C28.1152 46.6981 28.3456 46.1234 28.6805 45.6389L28.6828 45.6365C29.355 44.6722 30.4498 44.0595 30.4498 44.0595C32.0886 41.067 33.6395 38.958 34.5776 37.7895C35.15 37.077 35.4967 36.7136 35.4967 36.7136C35.4967 36.7136 37.7102 36.7849 38.285 36.982C38.4037 37.0247 38.4536 37.0699 38.4037 37.1221Z" fill="#63FF48"/>
<g opacity="0.2">
<path d="M34.8531 48.335C34.8531 48.335 35.4967 49.5961 34.1216 49.9405C32.7441 50.2848 28.4145 49.4251 28.1841 47.3303C28.1152 46.701 28.3456 46.1262 28.6805 45.6417L28.6828 45.6393C28.6852 45.637 28.6852 45.637 28.6852 45.637C28.6852 45.637 28.709 47.9051 31.4236 48.5535C34.1382 49.2042 33.5872 48.2471 34.2356 48.1616C34.8863 48.0761 35.53 47.1973 34.8531 46.2592C34.8531 46.2592 34.8721 46.2521 34.9101 46.245C35.2165 46.473 35.6748 46.9171 35.7461 47.5583C35.853 48.5345 34.8531 48.335 34.8531 48.335Z" fill="#371A45"/>
</g>
<path d="M34.6258 48.6646C34.1983 48.4153 34.0439 48.4343 33.6971 48.8048C33.6615 48.8428 33.5998 48.8475 33.5641 48.8071C33.5143 48.7264 33.5546 48.6219 33.5523 48.5269C33.6639 47.8001 34.526 47.6078 35.0794 48.002C35.0817 48.002 34.6258 48.6646 34.6258 48.6646Z" fill="#371A45"/>
<path d="M35.7861 36.9918C34.0738 38.9061 32.6393 41.0744 31.3449 43.2903C31.1596 43.6109 30.9839 43.9339 30.801 44.2546C30.6918 44.4327 30.4923 44.4826 30.326 44.6156C30.0078 44.8341 29.7014 45.0858 29.4354 45.3613C28.2051 46.6438 28.2313 47.9192 29.9009 48.7647C31.0456 49.3418 32.4041 49.6553 33.689 49.5983C34.1783 49.5603 34.7103 49.3893 34.582 48.8003C34.5654 48.7101 34.5298 48.5961 34.4941 48.5153C34.3991 48.3087 34.4894 48.0664 34.696 47.9714C34.8504 47.8931 35.0261 47.9762 35.1853 47.9358C35.3325 47.8931 35.3254 47.8741 35.3491 47.7197C35.3491 47.2233 34.9929 46.7863 34.5868 46.5132C34.5203 46.4657 34.4633 46.4372 34.4086 46.4016C34.2543 46.3042 34.1949 46.1166 34.2495 45.9527C34.5678 44.9956 34.9121 44.0622 35.3016 43.1336C35.6983 42.2097 36.0854 41.2716 36.6625 40.4403C36.7551 40.3097 36.9713 40.4166 36.9095 40.5733L36.387 41.9579C35.8693 43.3426 35.437 44.7699 35.019 46.1854L34.8171 45.7104C34.9098 45.7603 34.9691 45.7983 35.038 45.8458C35.665 46.2686 36.1638 46.9478 36.1519 47.7434C36.1329 48.4963 35.4845 48.8597 34.7696 48.7291L35.2066 48.1519C35.4679 48.6934 35.5035 49.4178 35.0499 49.8738C34.0001 50.9996 30.7179 50.1374 29.5209 49.4748C27.381 48.3942 27.2456 46.4538 28.8535 44.8008C29.2763 44.3709 29.7299 44.0147 30.2476 43.7083L30.0909 43.8651C30.4566 43.2096 30.8248 42.5564 31.2166 41.9176C32.1928 40.3121 33.2591 38.7588 34.449 37.3029C34.6913 37.0084 34.9288 36.7258 35.1971 36.4361C35.3491 36.2722 35.6033 36.2627 35.7648 36.4147C35.9381 36.5691 35.9453 36.8303 35.7861 36.9918Z" fill="#371A45"/>
<g opacity="0.2">
<path d="M45.4604 34.1704C44.6457 35.7902 43.6174 37.2555 42.399 38.4454C42.399 38.4454 42.3776 38.4715 42.3349 38.5143C42.1924 38.6568 41.81 38.9964 41.1592 39.2292C40.3494 39.5213 39.1239 39.6567 37.4281 39.0653C37.3189 39.0273 37.2072 38.9869 37.0932 38.9418C36.7299 38.7993 36.3166 38.6259 35.8701 38.4217C35.4664 38.2364 35.0317 38.025 34.5781 37.7899C35.1505 37.0774 35.4972 36.714 35.4972 36.714C35.4972 36.714 37.7107 36.7853 38.2855 36.9824L40.67 36.714H40.9217C40.9621 36.3792 41.0334 36.0324 41.1379 35.669C41.1402 35.669 42.8835 35.1085 45.4604 34.1704Z" fill="#371A45"/>
</g>
<path d="M42.2288 36.8354C42.2288 36.8354 40.6328 38.7853 36.923 37.3318C33.2133 35.8783 24.421 31.2138 24.0197 22.7255C23.6088 14.014 33.9614 8.38765 41.8939 12.4014C49.8264 16.4152 48.7102 30.4989 42.2288 36.8354Z" fill="#63FF48"/>
<g opacity="0.2">
<path d="M41.8939 12.4036C33.9614 8.38985 23.6088 14.0162 24.0197 22.7277C24.421 31.216 33.2157 35.8805 36.923 37.334C40.6328 38.7875 42.2288 36.8376 42.2288 36.8376C48.7102 30.4987 49.8288 16.4197 41.8939 12.4036ZM37.5928 35.168C34.2488 33.8594 26.321 29.6532 25.96 22.001C25.5895 14.1492 34.9209 9.07622 42.0744 12.6957C49.2279 16.3152 48.2185 29.0072 42.376 34.7215C42.376 34.7191 40.9368 36.479 37.5928 35.168Z" fill="#371A45"/>
</g>
<g opacity="0.6">
<path d="M41.9011 12.4036C36.5953 9.71745 30.2066 11.3467 26.6797 15.3272C30.3206 12.0188 36.1227 10.8313 41.0104 13.3037C48.6841 17.1868 47.8884 30.4868 41.9628 37.0893C42.1457 36.9444 42.2359 36.8352 42.2359 36.8352C48.7173 30.4987 49.8359 16.4197 41.9011 12.4036Z" fill="white"/>
</g>
<path d="M41.9342 33.2805C41.9342 33.2805 41.1315 33.8743 39.3906 33.5299C39.3906 33.5299 39.5806 35.6721 40.6613 35.6721C41.4165 35.6698 41.9342 33.2805 41.9342 33.2805Z" fill="#371A45"/>
<path d="M39.5391 34.3036C39.5391 34.3036 41.0519 33.7526 41.3322 35.0517C41.3322 35.0493 40.4154 36.8163 39.5391 34.3036Z" fill="#F24466"/>
<path d="M40.6659 36.0709C39.2575 36.0709 39.0177 33.8194 38.9939 33.5629C38.982 33.437 39.0319 33.3135 39.1245 33.228C39.2195 33.1425 39.3478 33.1069 39.4713 33.133C40.9842 33.4323 41.6943 32.9573 41.7014 32.9525C41.8368 32.8528 42.0149 32.8504 42.155 32.9407C42.2952 33.0309 42.3617 33.2019 42.3284 33.3658C42.155 34.178 41.642 36.0709 40.6659 36.0709ZM39.8798 34.0094C40.008 34.5865 40.2693 35.2682 40.6659 35.2682C40.8393 35.2183 41.1243 34.6435 41.3452 33.9382C40.9818 34.0213 40.4925 34.0712 39.8798 34.0094Z" fill="#371A45"/>
<path d="M39.5011 38.2769C38.7458 38.2769 37.8433 38.1249 36.7817 37.7069C34.6632 36.8781 24.0731 32.2563 23.6218 22.7468C23.4342 18.7782 25.3746 15.1729 28.9466 12.8597C32.9342 10.2757 37.9668 9.96455 42.0803 12.0451C45.0681 13.5579 47.0536 16.6003 47.6734 20.6164C48.5759 26.4756 46.4598 33.2562 42.5268 37.1108C42.382 37.2771 41.4272 38.2769 39.5011 38.2769ZM36.2877 11.4822C33.8961 11.4822 31.4878 12.1733 29.386 13.5342C26.061 15.6883 24.2536 19.0323 24.427 22.7088C24.8521 31.7219 35.0385 36.1608 37.0762 36.9588C40.4392 38.2769 41.8666 36.6501 41.926 36.5788C41.9331 36.5693 41.945 36.5574 41.9545 36.5479C45.7212 32.8643 47.7471 26.3639 46.8802 20.7376C46.3031 16.9851 44.4696 14.1541 41.7193 12.7623C40.0236 11.9049 38.1592 11.4822 36.2877 11.4822Z" fill="#371A45"/>
<path d="M45.1331 31.0306C44.3422 31.4628 43.3542 31.0591 43.0669 30.2064C42.6156 28.8717 42.181 26.7247 43.1191 24.8508C43.8007 23.4852 44.8339 22.6729 45.7506 22.1932C46.8977 21.5923 48.2895 22.2431 48.584 23.5042C48.8619 24.6988 48.8904 26.3233 47.9095 28.0618C46.9642 29.7267 45.943 30.5864 45.1331 31.0306Z" fill="#371A45"/>
<g opacity="0.6">
<path d="M43.6725 30.9546C43.2569 29.7219 42.8579 27.7436 43.72 26.0169C44.3494 24.7582 45.2994 24.0101 46.1449 23.5683C47.1946 23.0197 48.4629 23.6039 48.7479 24.7487C48.7336 24.2974 48.6695 23.8794 48.584 23.5042C48.2895 22.2431 46.9001 21.5923 45.7506 22.1932C44.8339 22.6729 43.8031 23.4852 43.1191 24.8508C42.181 26.7247 42.6156 28.8717 43.0669 30.2064C43.1809 30.5437 43.4041 30.8073 43.6796 30.9807C43.6796 30.9712 43.6749 30.9641 43.6725 30.9546Z" fill="white"/>
</g>
<path d="M44.4513 31.6076C44.2257 31.6076 43.9977 31.5649 43.7792 31.4817C43.2615 31.2799 42.8625 30.8619 42.6843 30.3346C42.1761 28.8336 41.7771 26.6296 42.758 24.6702C43.3731 23.4424 44.316 22.4876 45.5628 21.8369C46.2183 21.4949 46.9783 21.4735 47.6457 21.7822C48.3202 22.091 48.8047 22.6871 48.9733 23.4139C49.2417 24.5705 49.3367 26.3494 48.2561 28.2612C47.4296 29.7219 46.444 30.774 45.3253 31.3867C45.057 31.5316 44.7553 31.6076 44.4513 31.6076ZM46.6648 22.3689C46.4155 22.3689 46.1685 22.4282 45.9381 22.5494C44.8456 23.1217 44.0167 23.9554 43.48 25.0289C42.6226 26.7412 42.9907 28.7196 43.4491 30.0757C43.5512 30.3774 43.7792 30.6149 44.0737 30.7289C44.3587 30.8405 44.677 30.8215 44.943 30.6742C45.9286 30.1351 46.8073 29.1899 47.5602 27.8599C48.325 26.5061 48.5387 25.0716 48.1943 23.592C48.0827 23.1099 47.7621 22.7132 47.3156 22.509C47.1066 22.4164 46.8857 22.3689 46.6648 22.3689Z" fill="#371A45"/>
<path d="M38.6256 32.351C39.3357 32.1586 39.8083 31.4888 39.7513 30.755C39.6302 29.1875 39.0531 26.4515 36.5831 25.0502C34.9206 24.105 33.3198 24.0076 32.0825 24.1715C30.6076 24.3686 29.641 25.8173 30.0328 27.2518C30.4485 28.7766 31.3842 30.6837 33.4861 31.8166C35.493 32.8972 37.4428 32.674 38.6256 32.351Z" fill="#371A45"/>
<g opacity="0.6">
<path d="M31.9266 25.701C33.1664 25.5371 34.7671 25.6345 36.4272 26.5797C38.598 27.8123 39.3057 30.0757 39.529 31.6693C39.6905 31.4033 39.7736 31.0851 39.7475 30.755C39.6264 29.1875 39.0492 26.4515 36.5792 25.0502C34.9167 24.105 33.316 24.0076 32.0786 24.1715C30.6417 24.3638 29.6917 25.7413 30.0052 27.1378C30.3401 26.3897 31.0407 25.8197 31.9266 25.701Z" fill="white"/>
</g>
<path d="M36.6656 33.0204C35.6396 33.0204 34.4782 32.8066 33.2978 32.1701C31.0321 30.9494 30.0631 28.8784 29.6475 27.356C29.4313 26.5604 29.5667 25.7125 30.0227 25.0261C30.4787 24.3374 31.2126 23.8814 32.032 23.7721C33.7087 23.5489 35.3095 23.86 36.7843 24.7008C39.4277 26.2018 40.031 29.1206 40.1545 30.7238C40.2257 31.65 39.6272 32.4979 38.7342 32.7401C38.1571 32.8969 37.4493 33.0204 36.6656 33.0204ZM33.0651 24.506C32.7587 24.506 32.4476 24.5274 32.1341 24.5678C31.5451 24.6461 31.0178 24.9763 30.6901 25.4703C30.3623 25.9643 30.265 26.5723 30.4193 27.1446C30.7946 28.515 31.6615 30.377 33.6755 31.4624C35.528 32.4599 37.3306 32.2865 38.5181 31.9635C39.0406 31.821 39.3897 31.327 39.347 30.7855C39.2353 29.3391 38.7033 26.7171 36.383 25.399C35.3403 24.8053 34.2288 24.506 33.0651 24.506Z" fill="#371A45"/>
<path d="M38.4697 14.933C38.4697 15.0399 38.4531 15.1397 38.4199 15.2347C38.3557 15.4294 38.2299 15.5957 38.066 15.712C37.9092 15.826 37.7169 15.8925 37.5102 15.8925C36.9782 15.8925 36.5507 15.4603 36.5507 14.933C36.5507 14.933 31.9646 12.8478 32.3992 18.258C32.4016 18.2913 32.404 18.3245 32.4064 18.3554C32.4064 18.3554 32.3185 18.4932 32.1522 18.638C32.1499 18.6404 32.1499 18.6404 32.1475 18.6404C32.0644 18.7117 31.9646 18.7829 31.8506 18.8423C31.4397 19.0537 30.8151 19.1035 30.0266 18.353C30.0266 18.353 29.6324 16.1158 30.6702 14.3345C30.6702 14.3345 30.6702 14.3345 30.6726 14.3322C31.0882 13.622 31.7319 12.9832 32.7246 12.5889C35.7147 11.399 37.5126 13.9688 37.5126 13.9688C38.0399 13.9712 38.4697 14.401 38.4697 14.933Z" fill="#63FF48"/>
<g opacity="0.2">
<path d="M38.4216 15.2348C38.2958 15.6172 37.9348 15.8927 37.512 15.8927C36.98 15.8927 36.5525 15.4605 36.5525 14.9332C36.5525 14.9332 31.9664 12.848 32.401 18.2582C32.3796 18.2297 32.3678 18.2155 32.3678 18.2155C32.3678 18.2155 32.3179 18.4506 32.1564 18.6406C32.154 18.643 32.154 18.643 32.1516 18.643C32.0804 18.7261 31.9901 18.7997 31.869 18.8401C31.8643 18.8425 31.8571 18.8425 31.8524 18.8448C31.5318 18.9422 31.2088 18.6786 31.204 18.3413C31.1898 17.3248 31.3275 14.7883 32.9805 13.9713C34.7594 13.0902 36.4979 14.1043 36.9658 14.4178C37.0418 14.4677 37.0964 14.5413 37.1249 14.6268C37.2246 14.9308 37.5453 15.679 38.2364 15.318C38.3005 15.2847 38.3623 15.2562 38.4216 15.2348Z" fill="#6D4C41"/>
</g>
<g opacity="0.6">
<path d="M38.4714 14.9331C38.4714 15.04 38.4547 15.1397 38.4215 15.2347C38.3574 15.4295 38.2315 15.5957 38.0676 15.7121C38.165 14.4819 37.1509 14.4819 37.1509 14.4819C34.479 11.2162 30.774 14.2491 30.6719 14.3346C31.0875 13.6245 31.7311 12.9856 32.7239 12.5914C35.714 11.4015 37.5119 13.9712 37.5119 13.9712C38.0415 13.9712 38.4714 14.4011 38.4714 14.9331Z" fill="white"/>
</g>
<path d="M29.8241 18.3937C29.2969 16.2989 29.8883 13.7505 31.8263 12.5749C33.2655 11.6558 35.2083 11.5845 36.6238 12.5844C37.0916 12.905 37.5073 13.2827 37.8398 13.7458L37.5096 13.5748C38.5238 13.5629 39.2006 14.691 38.7114 15.5793C38.0345 16.819 36.1583 16.3464 36.1464 14.9357L36.3815 15.3014C35.2724 14.8193 33.5909 14.5984 32.9948 15.9023C32.6361 16.6528 32.6171 17.5054 32.6266 18.3462C32.629 18.6241 32.2229 18.6549 32.1849 18.3771C32.1255 17.9353 32.0851 17.4579 32.1041 17.0162C32.1968 14.786 33.674 13.7885 35.8044 14.2778C36.1226 14.3514 36.4053 14.4369 36.7164 14.5676C36.8684 14.6317 36.9491 14.7789 36.9515 14.9333C36.9444 15.4226 37.5643 15.6767 37.9039 15.3275C38.2554 14.9879 37.9989 14.3657 37.5096 14.3752C37.3743 14.3681 37.2555 14.3015 37.1795 14.2042C36.6071 13.5012 35.7973 12.9502 34.9019 12.772C34.0065 12.5939 33.0446 12.8314 32.2656 13.2922C31.4558 13.7672 30.8976 14.5485 30.6008 15.4392C30.2968 16.3369 30.197 17.3439 30.2231 18.3224C30.2421 18.567 29.8883 18.6336 29.8241 18.3937Z" fill="#371A45"/>
<path d="M48.567 13.4553C48.567 13.4885 48.5646 13.5218 48.5599 13.5527C48.5528 13.6239 48.5361 13.6904 48.51 13.7545C48.3913 14.0799 48.0754 14.3127 47.7073 14.3127C47.2323 14.3127 46.8499 13.9255 46.8499 13.4553C46.8499 13.4553 42.772 11.6004 43.1378 16.3908C43.1401 16.4312 43.1449 16.4715 43.1473 16.5119C43.1473 16.5119 43.1354 16.5309 43.1093 16.5618V16.5642C43.0238 16.6758 42.7934 16.9323 42.4443 17.0297C42.088 17.1318 41.6035 17.0677 41.0193 16.5119C41.0193 16.5119 40.9005 15.8398 40.9813 14.9658C41.0953 13.7284 41.6106 12.0849 43.4275 11.3605C46.0994 10.2989 47.7049 12.5932 47.7049 12.5932C48.1846 12.5955 48.567 12.9803 48.567 13.4553Z" fill="#63FF48"/>
<g opacity="0.2">
<path d="M48.5652 13.5528C48.5177 13.9803 48.1543 14.3128 47.7126 14.3128C47.3136 14.3128 46.9787 14.0397 46.8837 13.6739C46.8433 13.5243 46.7364 13.4032 46.5892 13.3533C45.6891 13.0398 42.8367 12.351 43.1431 16.3933C43.1383 16.3909 43.1359 16.3909 43.1359 16.3909C43.1359 16.3909 43.1383 16.4669 43.1169 16.5643V16.5667C43.0718 16.778 42.9246 17.0939 42.4519 17.0322H42.4496C42.2358 17.006 42.0767 16.8232 42.0624 16.6094C42.0102 15.7877 42.0126 13.6335 43.3687 12.7477C44.5443 11.9805 46.0311 12.4389 46.8291 12.7904C47.1354 12.9258 47.3848 13.1609 47.5606 13.4483C47.7102 13.6953 47.9714 13.9328 48.3609 13.6692C48.4298 13.6145 48.5011 13.5765 48.5652 13.5528Z" fill="#6D4C41"/>
</g>
<g opacity="0.6">
<path d="M48.5677 13.4556C48.5677 13.4889 48.5654 13.5221 48.5606 13.553C48.5535 13.6242 48.5369 13.6907 48.5108 13.7549C48.3659 13.2324 47.993 13.173 47.7365 13.2015C47.575 13.2181 47.4183 13.1469 47.3233 13.0139C47.0406 12.6196 46.4136 11.8739 44.6086 11.8881C42.2859 11.9071 40.9844 14.9685 40.9844 14.9685C41.0984 13.7311 41.6137 12.0876 43.4306 11.3632C46.1025 10.3016 47.708 12.5959 47.708 12.5959C48.1854 12.5959 48.5677 12.9806 48.5677 13.4556Z" fill="white"/>
</g>
<path d="M40.8246 16.55C40.3283 14.6666 40.8674 12.3676 42.6106 11.3084C44.1971 10.3061 46.1826 10.4652 47.534 11.7857C47.724 11.9662 47.8879 12.1467 48.0423 12.3652L47.7121 12.1942C49.0136 12.2037 49.453 13.9399 48.3083 14.5645C47.4913 15.0205 46.4368 14.3887 46.451 13.453L46.6861 13.8187C45.7195 13.396 44.2304 13.1917 43.7103 14.3317C43.392 14.9967 43.3706 15.752 43.373 16.5001C43.373 16.7756 42.9693 16.8065 42.9313 16.531C42.8743 16.1367 42.8363 15.7069 42.8529 15.3102C42.9289 13.2939 44.2755 12.3866 46.1993 12.826C46.489 12.8925 46.7408 12.9685 47.021 13.0872C47.1754 13.1514 47.2538 13.301 47.2561 13.4554C47.2466 13.8496 47.762 14.0634 48.0351 13.776C48.3201 13.5029 48.1088 12.9875 47.7121 12.9994C47.5791 12.9922 47.4628 12.9281 47.3844 12.8307C46.8785 12.2109 46.1636 11.7264 45.3728 11.5696C44.5866 11.4129 43.7364 11.6219 43.05 12.028C42.3351 12.446 41.8435 13.1324 41.5799 13.9185C41.3068 14.7141 41.2141 15.6071 41.226 16.4787C41.2403 16.721 40.8911 16.7851 40.8246 16.55Z" fill="#371A45"/>
<path d="M20.7319 18.2345C21.0858 17.2821 21.1428 16.2134 20.8246 15.166C20.0527 12.6271 17.3689 11.195 14.8301 11.9669C12.2912 12.7387 10.8591 15.4225 11.6309 17.9614C12.4028 20.5002 15.0866 21.9324 17.6254 21.1605C18.3308 20.9467 18.9507 20.5834 19.4637 20.1155L21.7413 20.1796L20.7319 18.2345Z" fill="white"/>
<g opacity="0.5">
<path d="M15.1059 12.8526C17.4785 12.1306 19.9746 13.3348 20.9222 15.5649C20.8914 15.3986 20.851 15.2324 20.8011 15.0661C20.0292 12.5273 17.3455 11.0951 14.8066 11.867C12.2677 12.6389 10.8356 15.3226 11.6075 17.8615C11.6574 18.0278 11.7167 18.1893 11.7832 18.346C11.3272 15.9639 12.7332 13.5723 15.1059 12.8526Z" fill="white"/>
</g>
<path d="M16.2251 21.773C15.382 21.773 14.546 21.5664 13.7788 21.1579C12.551 20.5024 11.6532 19.4099 11.2495 18.0775C10.4135 15.3296 11.9691 12.4155 14.717 11.5819C16.047 11.1781 17.4553 11.3159 18.6832 11.969C19.9111 12.6245 20.8088 13.717 21.2126 15.0494C21.5285 16.092 21.5142 17.1774 21.1722 18.2034L22.1008 19.9941C22.1673 20.12 22.1602 20.272 22.0842 20.3931C22.0082 20.5143 21.8776 20.5855 21.7327 20.5808L19.6142 20.5214C19.068 20.9893 18.441 21.3336 17.7451 21.5426C17.244 21.6994 16.7333 21.773 16.2251 21.773ZM16.237 12.159C15.8071 12.159 15.3748 12.2231 14.9497 12.3514C12.627 13.0568 11.3112 15.522 12.019 17.8448C12.361 18.9705 13.121 19.8944 14.1588 20.4478C15.1967 21.0011 16.3866 21.1175 17.5123 20.7755C18.1441 20.5831 18.7117 20.2625 19.1962 19.8184C19.2722 19.7471 19.372 19.7115 19.4788 19.7139L21.0748 19.759L20.3813 18.4195C20.3291 18.3198 20.322 18.201 20.3623 18.0941C20.6996 17.1845 20.7305 16.2131 20.4478 15.2845C20.1058 14.1588 19.3458 13.2349 18.308 12.6815C17.6572 12.3348 16.9495 12.159 16.237 12.159Z" fill="#371A45"/>
<g opacity="0.2">
<path d="M20.7557 18.1844C19.6774 19.5286 17.9912 20.3551 16.1387 20.2601C14.0843 20.1556 12.3482 18.9444 11.4766 17.2344C11.5122 17.4766 11.5644 17.7189 11.6381 17.9611C12.4099 20.5 15.0937 21.9321 17.6326 21.1603C18.3379 20.9465 18.9578 20.5831 19.4708 20.1153L21.7484 20.1794L20.7391 18.2319C20.7438 18.2176 20.7486 18.201 20.7557 18.1844Z" fill="#371A45"/>
</g>
<path d="M17.7796 15.2136C17.364 14.798 16.6895 14.8716 16.2738 15.2872L16.2097 15.3514L16.1456 15.2872C15.73 14.8716 15.0555 14.798 14.6398 15.2136C14.2242 15.6292 14.2242 16.3037 14.6398 16.7194L14.704 16.7835L16.0102 18.0897C16.1195 18.199 16.2976 18.199 16.4068 18.0897L17.7131 16.7835L17.7772 16.7194C18.1976 16.3037 18.1976 15.6292 17.7796 15.2136Z" fill="#FF0068"/>
</svg>
