<svg width="95" height="95" viewBox="0 0 95 95" fill="none" xmlns="http://www.w3.org/2000/svg">
<g clip-path="url(#clip0_2_64416)">
<path d="M0 0V95H95V0H0Z" fill="#FFC700"/>
<path d="M80.3825 58.1688C79.993 58.0881 79.1665 57.9337 78.2498 57.8886C77.2689 57.8387 76.1883 57.9147 75.4307 58.3351C74.6635 58.7602 74.2954 59.4299 73.5449 59.9976C73.1982 60.2612 72.7707 60.5034 72.184 60.6887C71.6615 60.8549 71.1889 60.9119 70.7305 60.9381C69.5027 61.0117 68.3603 60.8858 66.5434 62.1446C66.3629 62.2704 66.142 62.3892 65.8974 62.5008C65.8285 62.5341 65.7573 62.5626 65.686 62.5934C65.6813 62.5958 65.6789 62.5982 65.6742 62.5982C63.976 63.3154 61.3469 63.7406 61.3469 63.7406L47.8213 42.6221L77.6442 53.6017L80.4847 58.0168C80.5345 58.0904 80.4704 58.1878 80.3825 58.1688Z" fill="#F91C1C"/>
<g opacity="0.2">
<path d="M80.3825 58.1688C79.993 58.0881 79.1665 57.9337 78.2498 57.8886C77.2689 57.8387 76.1883 57.9147 75.4307 58.3351C74.6635 58.7602 74.2954 59.4299 73.5449 59.9976C73.1982 60.2612 72.7707 60.5034 72.184 60.6887C71.6615 60.8549 71.1889 60.9119 70.7305 60.9381C69.5027 61.0117 68.3603 60.8858 66.5434 62.1446C66.3629 62.2704 66.142 62.3892 65.8974 62.5008C65.8285 62.5341 65.7573 62.5626 65.686 62.5934C65.6813 62.5958 65.6789 62.5982 65.6742 62.5982C63.976 63.3154 61.3469 63.7406 61.3469 63.7406L47.8213 42.6221L77.6442 53.6017L80.4847 58.0168C80.5345 58.0904 80.4704 58.1878 80.3825 58.1688Z" fill="#371A45"/>
</g>
<g opacity="0.35">
<path d="M78.2487 57.8886C77.2678 57.8387 76.1872 57.9147 75.4296 58.3351C74.6625 58.7602 74.2943 59.43 73.5438 59.9976C73.7742 59.4727 73.9951 58.5726 73.304 57.8174C72.0001 56.3947 69.3116 55.44 69.3282 55.1906C69.3876 54.4116 75.0472 56.7557 78.2487 57.8886Z" fill="#371A45"/>
</g>
<g opacity="0.35">
<path d="M70.7294 60.9358C69.5016 61.0094 68.3592 60.8836 66.5423 62.1423C66.3618 62.2682 66.1409 62.3869 65.8963 62.4986C65.8203 62.5271 65.7491 62.5579 65.6849 62.5912C65.6802 62.5936 65.6778 62.5959 65.6731 62.5959C65.9866 62.1162 66.9033 61.6863 66.4069 60.2019C65.7966 58.3732 63.0724 56.3972 63.1318 56.1549C63.2933 55.5066 67.6229 58.9171 70.7294 60.9358Z" fill="#371A45"/>
</g>
<path d="M61.1504 64.1825L46.8291 41.8242L77.9131 53.2693L80.8272 57.7985C80.9389 57.9718 80.9341 58.1903 80.8177 58.359C80.7014 58.5276 80.4971 58.6083 80.2976 58.568C78.7372 58.2402 76.6924 58.1001 75.6284 58.6891C75.246 58.9005 74.9729 59.1855 74.657 59.5156C74.1321 60.0642 73.536 60.6841 72.3057 61.076C71.5552 61.3135 70.9092 61.3396 70.2846 61.3657C69.2467 61.4061 68.2659 61.4465 66.7744 62.4772C65.2876 63.5056 61.5707 64.116 61.414 64.1421L61.1504 64.1825ZM48.8146 43.4202L61.5446 63.2942C62.4091 63.1375 65.1855 62.5888 66.3112 61.8098C67.9975 60.6437 69.1422 60.5986 70.2514 60.5535C70.8475 60.5297 71.4127 60.506 72.0611 60.3017C73.0942 59.974 73.5692 59.4776 74.0704 58.9551C74.4005 58.6107 74.7425 58.2521 75.2341 57.9813C76.5 57.2783 78.4997 57.4422 79.7609 57.6441L77.3764 53.9391L48.8146 43.4202Z" fill="#371A45"/>
<path d="M51.7061 44.7163C51.7061 44.7163 67.8609 50.1575 80.6194 58.223C80.6194 58.223 82.669 54.7483 79.6052 51.7962C79.6052 51.7962 73.7532 51.1953 65.4669 47.868C57.4204 44.638 51.167 40.9543 51.167 40.9543L51.7061 44.7163Z" fill="#F91C1C"/>
<g opacity="0.35">
<path d="M80.8164 57.8147C80.8282 57.7695 80.8377 57.722 80.8496 57.6745C81.384 55.2449 79.7595 52.8604 77.3109 52.4091C74.924 51.9674 70.5587 50.958 65.1556 48.7896C58.4225 46.0869 52.9434 43.0659 51.3355 42.1515L51.1621 40.9521C51.1621 40.9521 57.4179 44.6381 65.4644 47.8681C73.7507 51.1931 79.6027 51.794 79.6027 51.794C82.0371 54.1382 81.2462 56.8148 80.8164 57.8147Z" fill="white"/>
</g>
<path d="M80.5813 58.587C80.4863 58.587 80.3913 58.5608 80.3105 58.5086C67.7539 50.5951 51.7345 45.1563 51.5754 45.1017L51.3379 45.021L50.6396 40.1736L51.3688 40.6035C51.4305 40.6391 57.691 44.3108 65.614 47.491C73.7436 50.7542 79.5861 51.386 79.6431 51.3907L79.7833 51.405L79.883 51.5023C82.8494 54.3642 81.3579 57.6797 81.0278 58.3138C80.9636 58.4397 80.8473 58.5323 80.7119 58.568C80.6715 58.5798 80.6264 58.587 80.5813 58.587ZM52.0718 44.413C54.1024 45.116 68.6991 50.2958 80.4506 57.637C80.8449 56.7107 81.5384 54.3143 79.4175 52.1792C78.4604 52.0605 72.8459 51.2648 65.3124 48.2415C58.8975 45.667 53.5633 42.7718 51.6823 41.715L52.0718 44.413Z" fill="#371A45"/>
<path d="M41.334 58.9975C42.1914 62.2228 43.0677 63.7452 43.0677 63.7452C43.0677 63.7452 44.4856 66.8493 47.5209 68.3883C49.4731 69.3763 51.9597 69.1744 51.9597 69.1744C51.9597 69.1744 53.2304 73.2167 54.9261 74.036C56.6219 74.8554 59.4647 73.7225 59.0087 70.7585C58.7047 68.7873 57.465 65.8494 56.6385 64.897C55.6054 63.7048 51.3422 58.7909 50.8316 56.8838" fill="white"/>
<g opacity="0.35">
<path d="M41.334 58.9975C42.1914 62.2228 43.0677 63.7452 43.0677 63.7452C43.0677 63.7452 44.4856 66.8493 47.5209 68.3883C49.4731 69.3763 51.9597 69.1744 51.9597 69.1744C51.9597 69.1744 53.2304 73.2167 54.9261 74.036C56.6219 74.8554 59.4647 73.7225 59.0087 70.7585C58.7047 68.7873 57.465 65.8494 56.6385 64.897C55.6054 63.7048 51.3422 58.7909 50.8316 56.8838" fill="#371A45"/>
</g>
<path d="M56.1114 74.7008C55.6364 74.7008 55.1661 74.601 54.7481 74.3992C53.1687 73.6368 52.0192 70.6134 51.6701 69.5922C50.9125 69.6135 48.9674 69.5732 47.3357 68.7467C44.2957 67.2053 42.8375 64.2104 42.7069 63.9278C42.6024 63.7425 41.7664 62.1988 40.9422 59.0994C40.8852 58.8833 41.0135 58.66 41.2296 58.603C41.4457 58.546 41.669 58.6743 41.726 58.8904C42.5549 62.0135 43.4099 63.524 43.4194 63.5407L43.436 63.5739C43.4502 63.6024 44.8372 66.5712 47.7015 68.0223C49.5302 68.9485 51.9005 68.768 51.9242 68.7657L52.2472 68.7395L52.3446 69.0483C52.6842 70.1265 53.8409 73.0573 55.0996 73.6653C55.8834 74.0429 56.9497 73.9218 57.6955 73.3708C58.4484 72.8127 58.7714 71.9054 58.6051 70.8153C58.3059 68.863 57.0827 66.0249 56.3275 65.158C52.7721 61.0612 50.789 58.3109 50.4351 56.9833C50.3781 56.7672 50.5064 56.5439 50.7225 56.4869C50.9386 56.4299 51.1619 56.5582 51.2189 56.7743C51.4017 57.4535 52.3874 59.3773 56.9426 64.626C57.8641 65.69 59.1086 68.7514 59.4079 70.6918C59.7 72.5847 58.7642 73.5917 58.18 74.0215C57.5791 74.4704 56.8381 74.7008 56.1114 74.7008Z" fill="#371A45"/>
<path d="M41.75 43.7094L22.5458 25.1322C22.5458 25.1322 19.7765 21.3322 16.2425 24.1157C12.7726 26.8469 14.6726 29.5948 15.891 30.8868L33.8816 45.5097C33.8816 45.5097 35.3209 58.1803 42.9114 62.6952C48.0699 65.7613 53.0598 63.3032 53.0598 63.3032C53.0598 63.3032 54.4776 66.4073 57.5129 67.9463C59.4651 68.9343 61.9518 68.7324 61.9518 68.7324C61.9518 68.7324 63.2224 72.7747 64.9181 73.5941C66.6139 74.4134 69.4568 73.2806 69.0008 70.3166C68.6968 68.3453 67.457 65.4074 66.6305 64.4551C65.5974 63.2628 61.3343 58.3489 60.8236 56.4418C58.0544 46.1248 50.3618 41.5387 50.3618 41.5387L41.75 43.7094Z" fill="white"/>
<path d="M69.0458 70.9054C69.0625 73.4252 66.4903 74.3515 64.9133 73.5891C63.22 72.7721 61.947 68.7299 61.947 68.7299C61.947 68.7299 59.4604 68.9317 57.5081 67.9437C54.4752 66.4047 53.055 63.303 53.055 63.303C53.055 63.303 48.0651 65.7635 42.9066 62.695C42.8306 62.6499 42.7522 62.6024 42.6762 62.5549C37.7291 59.4555 35.4634 52.8696 34.5039 48.8535C34.0312 46.868 33.8769 45.5119 33.8769 45.5119L31.1883 43.3269L28.5877 41.2131L15.8886 30.8866C15.872 30.8676 15.853 30.851 15.8364 30.832C14.618 29.5186 12.8201 26.8111 16.2401 24.1179C19.7741 21.3344 22.5457 25.1344 22.5457 25.1344L28.9701 31.3498L41.75 43.7116L50.3593 41.5385C50.3593 41.5385 51.3378 42.1227 52.7225 43.3435C53.1524 43.7211 53.6226 44.1629 54.1142 44.6664C56.0594 46.6542 58.3465 49.6277 59.9164 53.6795C60.2536 54.5511 60.5576 55.4726 60.8189 56.444C61.3319 58.3511 65.5926 63.265 66.6281 64.4572C67.4546 65.4096 68.6967 68.3475 68.9983 70.3187C69.0292 70.5206 69.0458 70.7177 69.0458 70.9054Z" fill="white"/>
<g opacity="0.35">
<path d="M69.0454 70.9055C69.062 73.4254 66.4899 74.3516 64.9129 73.5892C63.2195 72.7722 61.9465 68.73 61.9465 68.73C61.9465 68.73 59.4599 68.9319 57.5077 67.9439C54.4748 66.4049 53.0545 63.3031 53.0545 63.3031C53.0545 63.3031 48.0647 65.7636 42.9062 62.6951C42.8302 62.65 42.7518 62.6025 42.6758 62.555C44.4119 62.9635 46.9745 63.3316 49.2189 62.7117C53.045 61.6572 53.045 60.4032 54.4962 60.6336C55.9473 60.864 54.5864 63.7544 57.8449 66.0272C61.3575 68.4782 64.8179 66.203 65.3832 66.8015C65.9484 67.4 63.647 68.4236 63.8988 70.6276C64.1244 72.5609 68.074 73.5916 69.0454 70.9055Z" fill="#371A45"/>
</g>
<g opacity="0.35">
<path d="M31.1903 43.3246L15.8882 30.8867C15.8716 30.8677 15.8526 30.8511 15.8359 30.8321L19.0018 26.3457C19.0018 26.3457 21.0609 34.3851 24.8016 35.7032C27.7798 36.753 28.1859 31.68 28.1859 31.68L31.1903 43.3246Z" fill="#371A45"/>
</g>
<path d="M66.1034 74.2567C65.6284 74.2567 65.1582 74.1569 64.7402 73.955C63.1608 73.1927 62.0113 70.1693 61.6622 69.148C60.9045 69.1694 58.9594 69.129 57.3278 68.3025C54.7865 67.0153 53.3497 64.7092 52.8699 63.8233C51.5945 64.3387 47.2412 65.7375 42.7025 63.0395C38.6769 60.6455 36.3827 56.0095 35.1643 52.5397C34.01 49.2455 33.5897 46.424 33.497 45.7187L15.6109 31.1837L15.5919 31.1647C14.3664 29.8655 13.7703 28.5023 13.8653 27.2222C13.9579 25.9872 14.6704 24.8353 15.9885 23.7974C17.0953 22.9282 18.2472 22.5672 19.418 22.7287C21.3584 22.997 22.6575 24.612 22.8499 24.8638L41.8689 43.2605L50.4213 41.0993L50.5662 41.1848C50.6469 41.2323 52.5659 42.3889 54.8483 44.8399C56.9502 47.0962 59.7598 50.9223 61.2109 56.3325C61.3938 57.0118 62.3794 58.9355 66.9347 64.1843C67.8562 65.2483 69.1007 68.3097 69.3999 70.25C69.692 72.1429 68.7563 73.1499 68.172 73.5798C67.5712 74.0263 66.8278 74.2567 66.1034 74.2567ZM62.2369 68.3002L62.3343 68.6089C62.6739 69.6872 63.8305 72.6179 65.0893 73.2259C65.873 73.6035 66.9394 73.4824 67.6852 72.9314C68.438 72.3733 68.761 71.466 68.5948 70.3759C68.2932 68.4237 67.0724 65.5855 66.3172 64.7187C62.7618 60.6218 60.781 57.8715 60.4248 56.5439C57.9358 47.2743 51.3262 42.6502 50.2859 41.9709L41.6267 44.1583L22.2348 25.4005L22.2134 25.372C22.2015 25.3554 21.0164 23.7665 19.2993 23.5314C18.3588 23.4032 17.4112 23.7072 16.4873 24.4339C15.3568 25.3245 14.744 26.2817 14.6704 27.2815C14.573 28.5949 15.4233 29.8014 16.1595 30.5875L34.257 45.2983L34.276 45.4622C34.2903 45.588 35.7842 57.9879 43.111 62.3437C48.0107 65.2554 52.8248 62.9588 52.8723 62.935L53.2475 62.7522L53.4209 63.1322C53.4352 63.1607 54.8222 66.1294 57.6864 67.5805C59.508 68.5044 61.8854 68.3263 61.9092 68.3239L62.2369 68.3002Z" fill="#371A45"/>
<path d="M50.9505 58.4581C50.9623 59.4413 50.4517 60.3699 49.6276 60.6977C47.5613 61.5171 44.0867 62.4671 40.358 61.6311C39.4911 61.4363 38.7073 60.8948 38.1373 60.0826C37.4486 59.0993 36.5271 57.4843 35.7908 55.1259C35.5225 54.2686 36.0948 53.3661 36.8501 53.4468C38.7216 53.6487 42.1938 53.6273 46.951 51.9054C47.8748 51.5706 48.8605 52.1239 49.2405 53.1951L50.1976 55.8907L50.7937 57.5722C50.8982 57.8643 50.9481 58.1636 50.9505 58.4581Z" fill="white"/>
<g opacity="0.35">
<path d="M50.9507 58.458C50.9626 59.4412 50.452 60.3698 49.6278 60.6976C47.5616 61.517 44.087 62.467 40.3582 61.631C39.4913 61.4362 38.7076 60.8947 38.1376 60.0825C38.0948 60.0231 38.0545 59.9637 38.0117 59.8996C38.3157 60.0777 38.6411 60.206 38.9807 60.282C42.7095 61.118 46.1841 60.168 48.2503 59.3486C48.6066 59.2085 48.9035 58.9543 49.1267 58.6337C48.7372 58.534 48.3928 58.1967 48.248 57.7407L48.2195 57.6552C47.982 56.9095 48.3667 56.159 49.027 56.0782C49.1338 56.064 49.2431 56.0497 49.35 56.0355L47.8656 51.8555C48.4617 51.998 48.9866 52.4825 49.2407 53.1997L50.1978 55.8953L50.794 57.5768C50.8082 57.6125 50.8177 57.6481 50.8296 57.6861C50.8391 57.7146 50.8486 57.7455 50.8557 57.774C50.8723 57.8333 50.8866 57.8951 50.8985 57.9545C50.9032 57.9806 50.908 58.0067 50.9127 58.0328C50.9198 58.0637 50.9222 58.0946 50.927 58.1278C50.9317 58.1635 50.9365 58.2015 50.9388 58.2395C50.9436 58.2775 50.946 58.3131 50.946 58.3511C50.9507 58.3843 50.9507 58.4223 50.9507 58.458Z" fill="#371A45"/>
</g>
<path d="M43.3593 62.3627C42.3641 62.3627 41.3263 62.263 40.2694 62.0255C39.3028 61.8093 38.4264 61.2013 37.8065 60.3131C37.132 59.3512 36.1701 57.6887 35.4054 55.2448C35.2201 54.6558 35.3389 54.0051 35.7141 53.5491C36.0181 53.1786 36.4504 52.9933 36.8945 53.0408C38.9038 53.2593 42.2549 53.1715 46.8149 51.5208C47.3231 51.338 47.8718 51.3641 48.3634 51.5968C48.9381 51.8676 49.387 52.3877 49.6245 53.0575L51.1801 57.437C51.7003 58.9 51.059 60.5648 49.7789 61.0731C48.1496 61.7191 45.891 62.3627 43.3593 62.3627ZM36.7568 53.8483C36.5549 53.8483 36.41 53.9837 36.3411 54.0668C36.1416 54.3115 36.0775 54.6796 36.1796 55.005C36.9111 57.3491 37.8303 58.9332 38.4715 59.85C38.9774 60.572 39.678 61.0636 40.4475 61.2346C44.0005 62.0302 47.3208 61.1776 49.4796 60.3202C50.3489 59.9758 50.7859 58.7551 50.4154 57.7101L48.8598 53.3306C48.6935 52.8651 48.3943 52.5112 48.0166 52.3331C47.7174 52.193 47.3968 52.1763 47.0904 52.288C42.3855 53.9908 38.9014 54.0763 36.8066 53.8507C36.79 53.8483 36.7734 53.8483 36.7568 53.8483Z" fill="#371A45"/>
<g opacity="0.35">
<path d="M59.1708 52.6751C57.3088 53.6156 53.029 55.5868 49.0295 56.0761C48.3693 56.1568 47.9869 56.9049 48.222 57.6531L48.2505 57.7386C48.4358 58.3204 48.944 58.7099 49.4594 58.6577C53.6323 58.2468 58.3728 56.4394 60.3702 55.6106C60.9045 55.3897 61.1349 54.6843 60.8808 54.0502L60.6077 53.3686C60.3464 52.7249 59.6957 52.4091 59.1708 52.6751Z" fill="#371A45"/>
</g>
<path d="M59.2694 51.6614C57.4074 52.6019 53.1277 54.5731 49.1282 55.0624C48.4679 55.1431 48.0855 55.8913 48.3207 56.6394L48.3492 56.7249C48.5344 57.3068 49.0427 57.6963 49.558 57.644C53.7309 57.2331 58.4714 55.4258 60.4688 54.5969C61.0032 54.376 61.2335 53.6706 60.9794 53.0365L60.7063 52.3549C60.4474 51.7113 59.7967 51.3954 59.2694 51.6614Z" fill="white"/>
<path d="M49.4717 58.0543C48.8138 58.0543 48.1939 57.565 47.9659 56.8478L47.9374 56.7623C47.7759 56.2516 47.8401 55.7006 48.1061 55.285C48.3341 54.9311 48.6808 54.7079 49.0822 54.6604C53.0722 54.1735 57.4089 52.15 59.0881 51.2998C59.4158 51.1335 59.7911 51.1169 60.1449 51.2523C60.5606 51.409 60.9026 51.7558 61.0831 52.2046L61.3562 52.8863C61.6958 53.7294 61.3657 54.6651 60.6247 54.9739C58.7294 55.7576 53.8607 57.6291 49.5976 58.0495C49.5572 58.0519 49.5144 58.0543 49.4717 58.0543ZM59.4538 52.0218C57.7367 52.8886 53.2978 54.9596 49.1796 55.4631C48.9777 55.4869 48.8542 55.6175 48.7877 55.722C48.6499 55.9358 48.6214 56.2326 48.7093 56.5153L48.7378 56.6008C48.8637 56.995 49.1986 57.2705 49.5192 57.2396C53.6754 56.8311 58.4539 54.9929 60.3136 54.221C60.6413 54.0856 60.7719 53.6106 60.6033 53.1855L60.3302 52.5039C60.2352 52.2664 60.0618 52.0835 59.8599 52.0075C59.7626 51.9719 59.6106 51.9434 59.4538 52.0218Z" fill="#371A45"/>
<g opacity="0.35">
<path d="M48.3242 56.6368L48.3527 56.7247C48.538 57.3065 49.0462 57.696 49.5616 57.6438C53.7345 57.2329 58.475 55.4232 60.4724 54.5967C61.0067 54.3734 61.2371 53.6704 60.9806 53.0363L60.7075 52.3523C60.7004 52.3333 60.6932 52.3167 60.6837 52.3C60.66 52.7252 60.4367 53.1028 60.071 53.2572C58.0736 54.0837 53.3331 55.8934 49.1602 56.3043C48.8372 56.3375 48.5142 56.195 48.2767 55.9409C48.234 56.157 48.2482 56.3969 48.3242 56.6368Z" fill="#371A45"/>
</g>
<path d="M15.0381 29.8205C15.0381 29.8205 15.905 30.913 17.1376 30.723C19.1872 30.4071 22.0443 28.215 21.4553 26.6712C20.9685 25.3887 19.5696 25.3863 20.0636 24.3865" fill="white"/>
<g opacity="0.35">
<path d="M17.1376 30.7252C15.905 30.9152 15.0381 29.8227 15.0381 29.8227L15.0405 29.8203C15.3706 29.9818 15.7791 30.0887 16.2351 30.0174C18.2847 29.7015 21.1418 27.5094 20.5552 25.9657C20.3462 25.4147 19.9686 25.1012 19.6456 24.8423L20.066 24.3887C19.5696 25.3909 20.9685 25.3909 21.4577 26.6734C22.0443 28.2148 19.1872 30.4093 17.1376 30.7252Z" fill="#371A45"/>
</g>
<path d="M15.3555 29.5689L15.3982 29.6164C15.4148 29.6354 15.4338 29.6544 15.4505 29.671C15.4861 29.709 15.5265 29.7447 15.5645 29.7803C15.6428 29.8515 15.726 29.918 15.8115 29.9774C15.9825 30.0985 16.1677 30.1935 16.3553 30.2553C16.543 30.317 16.7377 30.3432 16.9277 30.3337L17.0702 30.3218L17.2317 30.2933C17.341 30.2695 17.4478 30.2458 17.5571 30.2125C17.9893 30.089 18.4168 29.9038 18.8206 29.6805C19.2243 29.4573 19.6115 29.196 19.9606 28.8968C20.3073 28.5999 20.628 28.2674 20.8465 27.9017C20.9557 27.7188 21.0341 27.5288 21.0721 27.3483C21.1125 27.1678 21.103 27.0039 21.0578 26.859C21.0507 26.8258 21.0293 26.7735 21.0127 26.7308C20.9913 26.688 20.9747 26.6405 20.951 26.6002C20.9058 26.5147 20.8583 26.4292 20.7966 26.3484C20.6778 26.1845 20.5306 26.0302 20.362 25.8639C20.2788 25.7784 20.1838 25.6953 20.0936 25.5955C20.0033 25.4934 19.9012 25.3865 19.8276 25.2322C19.7896 25.1585 19.7611 25.0707 19.7445 24.9852C19.7302 24.8973 19.7326 24.807 19.7492 24.7263C19.7801 24.5624 19.8585 24.4365 19.944 24.3297C19.9915 24.2703 20.077 24.2584 20.1387 24.3059C20.1815 24.3392 20.1981 24.3914 20.1886 24.4413L20.1862 24.4508C20.1648 24.5624 20.1553 24.6717 20.1743 24.7524C20.1933 24.8332 20.229 24.883 20.286 24.94C20.4 25.0517 20.6066 25.1704 20.8132 25.3082C21.0246 25.4459 21.2455 25.6169 21.4355 25.8354C21.5305 25.9423 21.6183 26.061 21.6943 26.1893C21.7323 26.251 21.7656 26.3175 21.7988 26.384C21.8273 26.4529 21.8606 26.5123 21.8843 26.5978C21.9912 26.916 21.9865 27.2604 21.9057 27.5549C21.8273 27.8518 21.6967 28.1083 21.5495 28.341C21.2502 28.8065 20.8845 29.1865 20.4902 29.5238C20.0936 29.861 19.6661 30.1484 19.2172 30.3978C18.766 30.6472 18.291 30.8538 17.7827 31.001C17.6568 31.039 17.5262 31.0675 17.3956 31.096L17.1961 31.1317L16.9752 31.153C16.6783 31.1673 16.3791 31.1245 16.1036 31.0343C15.8281 30.944 15.574 30.8087 15.346 30.6495C15.232 30.5712 15.1227 30.4833 15.0206 30.3907C14.9683 30.3432 14.9185 30.298 14.871 30.2458C14.8472 30.222 14.8211 30.1959 14.7973 30.1674C14.7712 30.1389 14.7522 30.1175 14.719 30.0772C14.5765 29.9038 14.6026 29.6473 14.776 29.5072C14.9446 29.3694 15.194 29.3908 15.3365 29.5523L15.3555 29.5689Z" fill="#371A45"/>
<path d="M23.7301 27.1011C22.5426 25.1322 21.1912 25.0206 19.6023 25.9183C18.4433 26.5738 17.8543 27.7233 18.232 28.3955C18.6856 29.203 20.9133 27.8635 20.987 27.9276C21.0582 27.9917 20.4977 29.0842 20.7946 30.0413" fill="white"/>
<path d="M23.6738 27.1364C23.5669 27.0414 23.4696 26.9464 23.3746 26.849L23.2226 26.7136C23.1727 26.6685 23.1276 26.621 23.0777 26.5783C22.8734 26.412 22.6787 26.2481 22.4673 26.1294C22.3676 26.0605 22.2559 26.0201 22.1538 25.9655C22.0446 25.9299 21.9424 25.8824 21.8332 25.8634C21.6194 25.8088 21.4009 25.7969 21.1777 25.823C21.0661 25.8301 20.9521 25.8586 20.8381 25.8776C20.7241 25.9133 20.6101 25.9346 20.4937 25.9821C20.2633 26.0581 20.0353 26.1698 19.8073 26.2838C19.3822 26.5141 18.9974 26.8443 18.7599 27.2433C18.6388 27.438 18.5628 27.6518 18.5438 27.8394C18.5391 27.932 18.5414 28.0199 18.5676 28.0864C18.5723 28.1244 18.5961 28.1481 18.6079 28.1814C18.6151 28.1909 18.6151 28.1861 18.6198 28.1885C18.6269 28.1909 18.6816 28.2123 18.7694 28.2099C18.8573 28.2099 18.9642 28.1956 19.0758 28.1719C19.3014 28.1244 19.5437 28.0413 19.7859 27.951C20.0282 27.8608 20.2704 27.7563 20.5269 27.6518C20.5934 27.6256 20.6552 27.5995 20.7359 27.5686C20.7573 27.5615 20.7787 27.5544 20.8096 27.5425L20.8333 27.5354L20.8689 27.5259C20.8832 27.5235 20.9117 27.5164 20.9331 27.5164C20.9616 27.514 20.9924 27.514 21.0209 27.5164C21.0257 27.5164 21.0542 27.5188 21.1112 27.5354C21.1587 27.5496 21.2038 27.5758 21.2394 27.6043C21.2751 27.6328 21.2798 27.6423 21.3012 27.666C21.3178 27.6874 21.3321 27.7088 21.3463 27.7325C21.3724 27.7753 21.3891 27.8418 21.3891 27.8465C21.3962 27.8821 21.4009 27.9178 21.4009 27.9534L21.3986 27.9985C21.3962 28.0151 21.3938 28.0294 21.3938 28.0365C21.3867 28.0745 21.3796 28.0983 21.3724 28.1244C21.3463 28.2099 21.3226 28.2716 21.2988 28.3358L21.2276 28.521C21.0423 29.0055 20.8808 29.4686 20.8618 30.0196V30.022C20.8594 30.06 20.8286 30.0909 20.7882 30.0909C20.7644 30.0909 20.7454 30.079 20.7312 30.06C20.5602 29.813 20.4794 29.5066 20.4509 29.2074C20.4248 28.9058 20.4533 28.6041 20.5079 28.3191L20.5911 27.9273C20.5911 27.9178 20.5934 27.9083 20.5911 27.913C20.5911 27.9106 20.5887 27.9178 20.5887 27.9249C20.5887 27.932 20.5887 27.9391 20.5887 27.9439C20.5887 27.97 20.5911 27.9985 20.5958 28.0246L20.6053 28.0603C20.6124 28.0816 20.6219 28.1054 20.6338 28.1268C20.6457 28.1481 20.6599 28.1695 20.6742 28.1861C20.6932 28.2075 20.6979 28.2146 20.7312 28.2408C20.7668 28.2693 20.8096 28.293 20.8547 28.3073C20.9093 28.3239 20.9354 28.3239 20.9378 28.3263C20.9616 28.3286 20.9877 28.3286 21.0138 28.3263C21.0257 28.3263 21.0471 28.3215 21.0542 28.3215L21.0661 28.3191L21.0423 28.331L20.8737 28.4141C20.6338 28.54 20.3749 28.6635 20.1089 28.7751C19.8429 28.8868 19.5627 28.9841 19.2516 29.0483C19.0948 29.0791 18.9309 29.1005 18.7433 29.0958C18.5604 29.0886 18.3348 29.053 18.1139 28.901C18.0071 28.825 17.9121 28.7158 17.8527 28.6041C17.8099 28.5115 17.7624 28.4165 17.7434 28.3168C17.6864 28.1196 17.6912 27.9296 17.7102 27.7491C17.7577 27.3929 17.8978 27.0889 18.0617 26.8181C18.4037 26.2814 18.8668 25.8705 19.3893 25.5546C19.6434 25.4098 19.9023 25.2673 20.1897 25.1628C20.3298 25.1034 20.4818 25.0654 20.6314 25.025C20.7074 25.0084 20.7882 24.9965 20.8642 24.9823C20.9046 24.9751 20.9426 24.968 20.9829 24.9633L21.1041 24.9561C21.2656 24.9419 21.4294 24.9538 21.5933 24.968C21.7548 24.9989 21.9187 25.0274 22.0707 25.0868C22.1491 25.1129 22.2251 25.1414 22.2963 25.1794C22.3676 25.2174 22.4412 25.253 22.5101 25.2934C22.6407 25.386 22.7737 25.4715 22.8829 25.5808C23.1157 25.785 23.2914 26.0296 23.4434 26.279C23.5171 26.4049 23.5788 26.5355 23.6406 26.6638C23.6952 26.7968 23.7427 26.9321 23.7854 27.0675C23.7973 27.1031 23.7759 27.1435 23.7403 27.1554C23.7166 27.1625 23.6904 27.1578 23.6738 27.1411V27.1364Z" fill="#371A45"/>
<path d="M51.9363 68.8177C52.0385 68.7892 52.1715 68.7655 52.2902 68.7394L52.656 68.661C52.8982 68.604 53.1428 68.5494 53.3803 68.4734C53.6202 68.3997 53.8506 68.3 54.0762 68.186C54.3066 68.072 54.5132 67.92 54.7317 67.7514L54.7341 67.749C54.7578 67.7324 54.7887 67.7347 54.8077 67.7585C54.8196 67.7751 54.822 67.7941 54.8148 67.8107C54.7008 68.0672 54.5393 68.3142 54.3375 68.5209C54.1332 68.7251 53.9028 68.9127 53.6487 69.0576C53.397 69.2025 53.131 69.3284 52.8531 69.4067C52.713 69.4471 52.5728 69.4804 52.4303 69.5017C52.2831 69.5255 52.1477 69.535 51.9838 69.5279C51.7867 69.5207 51.6347 69.3545 51.6418 69.1574C51.649 68.9982 51.7582 68.8676 51.9031 68.8272L51.9363 68.8177Z" fill="#371A45"/>
<path d="M61.927 68.3739C62.0291 68.3454 62.1621 68.3217 62.2809 68.2955L62.6466 68.2172C62.8889 68.1602 63.1335 68.1055 63.371 68.0295C63.6109 67.9559 63.8413 67.8562 64.0669 67.7422C64.2973 67.6282 64.5039 67.4762 64.72 67.3075L64.7224 67.3052C64.7461 67.2885 64.777 67.2909 64.796 67.3147C64.8079 67.3313 64.8103 67.3503 64.8031 67.3669C64.6891 67.6234 64.5276 67.8704 64.3257 68.077C64.1215 68.2813 63.8911 68.4689 63.637 68.6138C63.3852 68.7587 63.1192 68.8845 62.8414 68.9653C62.7012 69.0057 62.5611 69.0389 62.4186 69.0603C62.2714 69.084 62.136 69.0935 61.9721 69.0864C61.775 69.0793 61.623 68.913 61.6301 68.7159C61.6372 68.5568 61.7465 68.4262 61.8914 68.3858L61.927 68.3739Z" fill="#371A45"/>
<path d="M67.7835 56.6937C66.3562 57.1093 64.5915 56.7839 64.5915 56.7839C64.5915 56.7839 64.5155 58.8858 63.3328 58.4797C62.9504 58.3491 62.6345 57.5701 62.4137 56.8267C62.0812 55.7128 61.409 54.7296 60.4638 54.0527C60.2809 53.9221 60.098 53.7938 59.9128 53.6727C56.811 51.6207 53.5288 50.8013 53.5288 50.8013L53.0205 46.1083L52.7213 43.3367L52.707 43.2061C53.2485 43.3106 53.8922 43.5409 54.5999 43.8639C58.1577 45.4789 63.2615 49.3336 64.3897 50.3382C65.7434 51.5447 69.7738 51.0649 70.2227 53.5349C70.5338 55.2497 69.6764 56.1451 67.7835 56.6937Z" fill="white"/>
<g opacity="0.35">
<path d="M67.785 56.6937C66.3577 57.1093 64.593 56.784 64.593 56.784C64.593 56.784 64.517 58.8858 63.3343 58.4797C62.9519 58.3491 62.636 57.5701 62.4152 56.8267C62.0827 55.7128 61.4105 54.7296 60.4653 54.0527C60.2824 53.9221 60.0995 53.7938 59.9143 53.6727C56.8125 51.6207 53.5303 50.8013 53.5303 50.8013C54.2166 50.3192 55.0859 50.1743 55.8934 50.4118C56.7603 50.6683 57.9359 51.1291 59.5034 52.167C59.6886 52.2881 59.8715 52.4163 60.0544 52.547C60.9973 53.2238 61.6718 54.2071 62.0043 55.321C62.2252 56.0667 62.5434 56.8433 62.9234 56.974C63.605 57.2067 63.8497 56.5987 63.9328 56.0406C63.9969 55.6202 64.3722 55.3186 64.7973 55.3518C65.5027 55.4088 66.5334 55.4302 67.3742 55.1856C69.001 54.713 69.8632 53.9862 69.875 52.7013C70.0437 52.9341 70.1648 53.2096 70.2242 53.5326C70.5353 55.2497 69.6779 56.1451 67.785 56.6937Z" fill="#371A45"/>
</g>
<path d="M53.5627 50.6734C53.9047 50.6805 54.2301 50.7304 54.5578 50.7921C54.8832 50.8563 55.2038 50.9394 55.5197 51.0368C56.1491 51.2363 56.7642 51.4785 57.3627 51.7588C57.6643 51.8941 57.9564 52.0509 58.2486 52.2029L58.6808 52.4451L58.8969 52.5663L59.1107 52.6945L59.5358 52.9486L59.9538 53.2194L60.1628 53.3548L60.3671 53.4973L60.7756 53.7823C61.3432 54.1931 61.8324 54.7156 62.1982 55.3165C62.3811 55.6158 62.5378 55.934 62.6566 56.2641C62.6874 56.3473 62.7159 56.4304 62.7397 56.5135L62.8109 56.7486C62.8561 56.8983 62.9036 57.0455 62.9558 57.1904C63.0603 57.4754 63.1838 57.7604 63.3263 57.9599C63.3429 57.9836 63.3619 58.0098 63.3786 58.0264L63.4023 58.0549C63.4094 58.062 63.4166 58.0668 63.4237 58.0739C63.4403 58.0905 63.4474 58.0881 63.4569 58.1C63.4641 58.0976 63.4522 58.1024 63.4854 58.1095C63.5852 58.138 63.6517 58.138 63.6992 58.1166C63.7491 58.1 63.8108 58.0478 63.8726 57.9575C63.9343 57.8673 63.9866 57.7485 64.0293 57.6179C64.0721 57.4873 64.1053 57.3471 64.1314 57.2046C64.1552 57.0645 64.1742 56.9054 64.1813 56.7771L64.2051 56.3164L64.6611 56.3924C64.9247 56.4375 65.2168 56.4684 65.4971 56.4874C65.7797 56.5064 66.0647 56.5135 66.3449 56.5016C66.6252 56.4921 66.9031 56.466 67.1762 56.4209C67.4469 56.3758 67.7011 56.3021 67.9742 56.2143C68.5038 56.0338 69.0073 55.7986 69.3659 55.4566C69.5417 55.2833 69.6723 55.0885 69.7554 54.8676C69.8386 54.6468 69.8718 54.4021 69.8718 54.1456C69.8623 54.015 69.8599 53.8868 69.8362 53.7538C69.8196 53.616 69.7934 53.502 69.7578 53.388C69.6842 53.16 69.5631 52.9581 69.3968 52.7848C69.0643 52.4309 68.5632 52.1958 68.0336 52.0176C67.4992 51.8395 66.9292 51.7113 66.3473 51.5711C66.0552 51.4999 65.7607 51.4263 65.4638 51.3336C65.1669 51.241 64.8653 51.1318 64.5661 50.9655L64.4544 50.9014L64.3452 50.8278C64.2716 50.7826 64.2003 50.7209 64.1291 50.6639L63.9652 50.5214L63.7989 50.3813C63.5757 50.196 63.3453 50.0131 63.1126 49.8326C62.6494 49.4716 62.1768 49.1178 61.7018 48.7686C60.7518 48.0704 59.7828 47.3959 58.7972 46.7499C57.8116 46.1063 56.8141 45.4769 55.7786 44.933C55.2584 44.667 54.7288 44.4271 54.2134 44.1659C53.6933 43.9118 53.1922 43.6553 52.6721 43.3489L52.6673 43.3465C52.6008 43.3061 52.5771 43.2206 52.6174 43.1541C52.6412 43.1138 52.6816 43.09 52.7243 43.0853C52.8811 43.0686 53.0449 43.0615 53.1993 43.0758C53.2777 43.0829 53.3561 43.0876 53.4344 43.0971C53.5128 43.109 53.5888 43.1233 53.6648 43.1375C53.9712 43.1969 54.2633 43.2895 54.5483 43.3988C55.1207 43.6125 55.6503 43.9094 56.1728 44.2063C56.6953 44.5055 57.2178 44.8 57.7284 45.1111C58.2391 45.4223 58.7449 45.7429 59.2437 46.0706C60.2436 46.7261 61.2197 47.4078 62.1816 48.1131C62.6637 48.467 63.1387 48.8256 63.6113 49.1938C63.8464 49.379 64.0816 49.5643 64.3143 49.7566L64.4901 49.9039L64.6611 50.0535C64.7489 50.1248 64.8439 50.196 64.9579 50.2554C65.4044 50.5 65.9721 50.6425 66.5397 50.7826C67.1097 50.9228 67.7011 51.051 68.2924 51.2481C68.5869 51.3479 68.8838 51.4643 69.1736 51.621C69.4609 51.7754 69.7459 51.9725 69.9858 52.229C70.2281 52.4831 70.4204 52.8014 70.5273 53.141C70.5819 53.3096 70.6176 53.4854 70.6366 53.6421C70.6651 53.8013 70.6698 53.9699 70.6793 54.1361C70.6817 54.4734 70.6366 54.8249 70.5107 55.1598C70.3872 55.4946 70.1782 55.801 69.9288 56.0433C69.4206 56.5254 68.8173 56.7866 68.2283 56.9885C68.0763 57.0336 67.9386 57.0859 67.7771 57.1239C67.6203 57.1666 67.4636 57.1975 67.3068 57.226C66.9933 57.2783 66.6798 57.3044 66.3687 57.3163C66.0576 57.3281 65.7464 57.3186 65.4401 57.2996C65.1289 57.2783 64.8321 57.2474 64.5091 57.1928L64.9888 56.808C64.9793 57.0028 64.9579 57.1666 64.9271 57.3448C64.8962 57.5205 64.8558 57.6963 64.7964 57.8744C64.7371 58.0525 64.6611 58.233 64.5399 58.4135C64.4212 58.5893 64.2431 58.7793 63.9866 58.8766C63.8607 58.9265 63.7253 58.9479 63.5994 58.9455C63.5353 58.9431 63.4736 58.9408 63.4166 58.9289C63.3572 58.9194 63.3026 58.9051 63.2479 58.8885C63.2028 58.879 63.1197 58.8434 63.0508 58.8078C62.9938 58.7721 62.9297 58.7318 62.8869 58.689L62.8181 58.6273L62.7611 58.5655C62.7207 58.5228 62.6922 58.4824 62.6613 58.442C62.5426 58.2758 62.4571 58.1143 62.3811 57.9528C62.3051 57.7913 62.2409 57.6298 62.1839 57.4683C62.1269 57.3068 62.0723 57.1453 62.0248 56.9861L61.9559 56.7558C61.9346 56.6845 61.9108 56.6133 61.8847 56.5444C61.7826 56.2641 61.6519 55.9958 61.4952 55.744C61.1841 55.2358 60.7708 54.794 60.2863 54.4425C59.2603 53.6991 58.1369 53.0864 56.9779 52.5591C55.8261 52.0105 54.6386 51.5593 53.4843 50.9418L53.4819 50.9394C53.4154 50.9038 53.3893 50.8183 53.4249 50.7518C53.4629 50.6971 53.5128 50.671 53.5627 50.6734Z" fill="#371A45"/>
<g opacity="0.35">
<path d="M54.6017 43.8666C54.5185 44.0138 54.4307 44.1587 54.3404 44.306C54.2668 44.4247 54.1908 44.5458 54.1124 44.6622C53.7751 45.1752 53.4118 45.6573 53.0223 46.111C50.12 49.4977 45.8593 51.2576 41.5676 51.0795C41.2945 51.0676 41.0214 51.0486 40.7483 51.0201C39.9978 50.9441 39.2497 50.8111 38.511 50.614C37.9007 50.4501 37.2926 50.2458 36.6989 49.9965C36.0078 49.7091 35.3309 49.3623 34.673 48.9586C34.6184 48.923 34.5614 48.8897 34.5068 48.8541C34.0342 46.8686 33.8798 45.5125 33.8798 45.5125L31.1913 43.3275L28.5907 41.2137C27.567 38.055 27.643 34.5566 28.9707 31.3503L41.7505 43.7122L50.3599 41.5391C50.3599 41.5391 51.3384 42.1233 52.723 43.3441L52.7088 43.2135C53.2479 43.3132 53.8939 43.546 54.6017 43.8666Z" fill="#371A45"/>
</g>
<g opacity="0.7">
<path d="M29.0866 30.9036C28.823 31.5662 28.6377 32.1671 28.5166 32.6302C28.6425 32.0246 28.8372 31.4474 29.0866 30.9036Z" fill="white"/>
</g>
<path d="M27.7521 39.3588C28.4741 41.6364 29.7685 43.743 31.5877 45.4459C31.9582 45.7926 32.3501 46.1228 32.7634 46.4339C32.9629 46.5859 33.1719 46.7331 33.3832 46.878C34.0245 47.3103 34.6871 47.6831 35.3664 47.9966C35.9506 48.2698 36.5491 48.4978 37.1547 48.6854C37.8839 48.911 38.6272 49.0773 39.373 49.1818C39.6461 49.2198 39.9168 49.2483 40.19 49.272C45.1751 49.6805 50.2291 47.4575 53.2216 43.0139C57.632 36.4684 55.903 27.5883 49.3599 23.1779C48.0987 22.33 46.7521 21.7054 45.3651 21.304C45.2036 21.2565 45.0397 21.2114 44.8759 21.171C44.4365 21.0594 43.9971 20.9691 43.553 20.9026C42.5294 20.7459 41.4939 20.7008 40.4726 20.7673C39.4514 20.8314 38.4372 21.0071 37.454 21.2874C37.1405 21.3753 36.8317 21.475 36.5254 21.5866C36.0646 21.7529 35.6134 21.9405 35.1692 22.1566C32.9581 23.2183 30.994 24.8641 29.5239 27.0444C26.985 30.8064 26.4791 35.345 27.7521 39.3588Z" fill="white"/>
<g opacity="0.35">
<path d="M53.2195 43.0137C50.227 47.4574 45.173 49.6804 40.1878 49.2719C39.9147 49.2505 39.644 49.2196 39.3708 49.1816C38.6251 49.0771 37.8841 48.9109 37.1526 48.6852C36.547 48.4976 35.9485 48.2696 35.3642 47.9965C34.685 47.683 34.0223 47.3101 33.3811 46.8779C33.1697 46.733 32.9631 46.5857 32.7612 46.4337C32.348 46.1226 31.9561 45.7901 31.5856 45.4434C29.7663 43.7405 28.472 41.6339 27.75 39.3562C27.3533 38.1046 27.1277 36.8031 27.085 35.4897C27.8236 37.6462 29.08 39.6389 30.8161 41.2634C31.1866 41.6125 31.5785 41.9402 31.9917 42.2537C32.1912 42.4057 32.4002 42.553 32.6116 42.6979C33.2528 43.1301 33.9155 43.503 34.5947 43.8165C35.1813 44.0896 35.7775 44.3176 36.3831 44.5052C37.1122 44.7309 37.8556 44.8971 38.6013 45.0016C38.8745 45.0396 39.1452 45.0681 39.4183 45.0919C44.4035 45.5004 49.4551 43.2774 52.45 38.8337C54.198 36.2426 54.9793 33.2834 54.882 30.3811C56.288 34.4756 55.8248 39.152 53.2195 43.0137Z" fill="#371A45"/>
</g>
<path d="M41.3563 49.728C40.9573 49.728 40.5583 49.7114 40.1545 49.6782C39.8743 49.6544 39.594 49.6235 39.3161 49.5855C38.5395 49.4763 37.7724 49.3029 37.0338 49.0749C36.402 48.8802 35.7845 48.6403 35.1955 48.3672C34.4925 48.0418 33.8061 47.6547 33.1578 47.2177C32.9179 47.0538 32.7089 46.9042 32.5189 46.7617C32.1033 46.4482 31.6971 46.1062 31.31 45.7452C29.486 44.0375 28.1228 41.8739 27.3651 39.4847C25.9995 35.1764 26.6621 30.5594 29.1844 26.8188C30.6426 24.6552 32.6495 22.9167 34.9913 21.7933C35.433 21.5795 35.9033 21.3824 36.3854 21.209C36.6941 21.0974 37.0171 20.9929 37.3425 20.9003C38.3543 20.6129 39.3993 20.4324 40.4466 20.3659C41.5059 20.297 42.5723 20.3445 43.6149 20.5037C44.0685 20.5725 44.5269 20.6675 44.9757 20.7815C45.1539 20.8267 45.3201 20.8718 45.4816 20.9193C46.928 21.3397 48.3103 21.988 49.5856 22.8454C56.3045 27.3745 58.0858 36.5254 53.559 43.2443C50.8159 47.3127 46.2203 49.728 41.3563 49.728ZM28.1394 39.2377C28.8543 41.4939 30.1439 43.5388 31.8658 45.1514C32.2315 45.4934 32.6163 45.8164 33.0081 46.1133C33.1886 46.251 33.3858 46.3912 33.6138 46.5455C34.2265 46.9588 34.8749 47.3245 35.5375 47.6309C36.0933 47.8898 36.6775 48.1154 37.276 48.3007C37.9743 48.5168 38.6986 48.6783 39.4301 48.7828C39.6914 48.8184 39.9598 48.8493 40.2234 48.8707C45.2299 49.2815 50.082 46.9517 52.8845 42.7907C57.1643 36.4423 55.4804 27.7973 49.132 23.5175C47.9279 22.7077 46.6216 22.0949 45.2513 21.6959C45.0993 21.6508 44.9473 21.608 44.7786 21.5677C44.3511 21.4584 43.9189 21.3705 43.4914 21.3064C42.5058 21.1544 41.4988 21.1117 40.4989 21.1758C39.5085 21.2375 38.5205 21.4085 37.5658 21.6817C37.2594 21.7695 36.9554 21.8669 36.6633 21.9714C36.2073 22.1353 35.7655 22.3229 35.3475 22.5248C33.1364 23.5864 31.2411 25.2275 29.8636 27.2724C27.4744 30.804 26.8498 35.1669 28.1394 39.2377Z" fill="#371A45"/>
<path d="M41.3563 49.728C40.9573 49.728 40.5583 49.7114 40.1545 49.6782C39.8743 49.6544 39.594 49.6235 39.3161 49.5855C38.5395 49.4763 37.7724 49.3029 37.0338 49.0749C36.402 48.8802 35.7845 48.6403 35.1955 48.3672C34.4925 48.0418 33.8061 47.6547 33.1578 47.2177C32.9179 47.0538 32.7089 46.9042 32.5189 46.7617C32.1033 46.4482 31.6971 46.1062 31.31 45.7452C29.486 44.0375 28.1228 41.8739 27.3651 39.4847C25.9995 35.1764 26.6621 30.5594 29.1844 26.8188C30.6426 24.6552 32.6495 22.9167 34.9913 21.7933C35.433 21.5795 35.9033 21.3824 36.3854 21.209C36.6941 21.0974 37.0171 20.9929 37.3425 20.9003C38.3543 20.6129 39.3993 20.4324 40.4466 20.3659C41.5059 20.297 42.5723 20.3445 43.6149 20.5037C44.0685 20.5725 44.5269 20.6675 44.9757 20.7815C45.1539 20.8267 45.3201 20.8718 45.4816 20.9193C46.928 21.3397 48.3103 21.988 49.5856 22.8454C56.3045 27.3745 58.0858 36.5254 53.559 43.2443C50.8159 47.3127 46.2203 49.728 41.3563 49.728ZM28.1394 39.2377C28.8543 41.4939 30.1439 43.5388 31.8658 45.1514C32.2315 45.4934 32.6163 45.8164 33.0081 46.1133C33.1886 46.251 33.3858 46.3912 33.6138 46.5455C34.2265 46.9588 34.8749 47.3245 35.5375 47.6309C36.0933 47.8898 36.6775 48.1154 37.276 48.3007C37.9743 48.5168 38.6986 48.6783 39.4301 48.7828C39.6914 48.8184 39.9598 48.8493 40.2234 48.8707C45.2299 49.2815 50.082 46.9517 52.8845 42.7907C57.1643 36.4423 55.4804 27.7973 49.132 23.5175C47.9279 22.7077 46.6216 22.0949 45.2513 21.6959C45.0993 21.6508 44.9473 21.608 44.7786 21.5677C44.3511 21.4584 43.9189 21.3705 43.4914 21.3064C42.5058 21.1544 41.4988 21.1117 40.4989 21.1758C39.5085 21.2375 38.5205 21.4085 37.5658 21.6817C37.2594 21.7695 36.9554 21.8669 36.6633 21.9714C36.2073 22.1353 35.7655 22.3229 35.3475 22.5248C33.1364 23.5864 31.2411 25.2275 29.8636 27.2724C27.4744 30.804 26.8498 35.1669 28.1394 39.2377Z" fill="#371A45"/>
<path d="M29.2971 42.6789C36.4173 50.001 48.3873 48.0464 50.8787 38.2424C52.5745 31.5734 47.3518 24.7642 40.8396 23.5459C36.1015 22.66 31.0878 23.8689 27.7011 30.8466C27.7011 30.8466 26.6798 34.1669 27.1667 36.6012C27.6536 39.0356 28.5371 41.3204 28.5371 41.3204L29.2971 42.6789Z" fill="#371A45"/>
<g opacity="0.35">
<path d="M50.8766 38.2448C48.3852 48.0488 36.4152 50.0011 29.295 42.6813L29.1406 42.4058C37.8783 45.7546 47.9316 42.0662 50.6344 32.2004C51.2661 34.1147 51.3991 36.1857 50.8766 38.2448Z" fill="#111A28"/>
</g>
<path d="M39.4753 48.9774C38.074 48.9774 36.6514 48.7827 35.2573 48.3884L35.1979 48.3671C34.4949 48.0417 33.8085 47.6546 33.1578 47.2176C32.9179 47.0537 32.7089 46.9041 32.5189 46.7616C32.1033 46.4481 31.6971 46.1061 31.31 45.7451C29.486 44.0374 28.1228 41.8738 27.3651 39.4846C25.9995 35.1763 26.6621 30.5593 29.1844 26.8187C30.6426 24.6551 32.6495 22.9166 34.9913 21.7932L35.0293 21.7742L35.0696 21.7647C36.9079 21.3134 38.9456 21.2921 41.1283 21.7006C45.0138 22.4273 48.6665 24.9448 50.8966 28.4384C52.9486 31.6494 53.5994 35.2998 52.7301 38.7198C51.7849 42.4343 49.6331 45.3532 46.5053 47.1558C44.4105 48.3576 41.9738 48.9774 39.4753 48.9774ZM35.509 47.6166C39.1689 48.6449 43.0283 48.2198 46.0991 46.4481C49.0323 44.7571 51.0534 42.0139 51.9416 38.5156C52.7539 35.3164 52.1411 31.8917 50.2103 28.8707C48.0965 25.5647 44.6456 23.1802 40.9763 22.4938C38.9266 22.1114 37.0171 22.1257 35.3024 22.5389C33.1079 23.6006 31.2269 25.2346 29.8565 27.2676C27.4744 30.8016 26.8474 35.1644 28.137 39.2352C28.8519 41.4914 30.1415 43.5363 31.8634 45.1489C32.2291 45.4909 32.6139 45.8139 33.0058 46.1108C33.1863 46.2486 33.3834 46.3887 33.6114 46.5431C34.217 46.9492 34.8535 47.3102 35.509 47.6166Z" fill="#371A45"/>
<path d="M39.4419 47.5143C35.6609 47.5143 31.868 45.9041 29.0061 42.9615L28.9681 42.9235L28.1582 41.4676C28.1226 41.3726 27.2557 39.1211 26.7689 36.682C26.2677 34.1763 27.27 30.868 27.3151 30.7278L27.3389 30.6708C30.3076 24.5505 34.8771 22.0187 40.9167 23.1492C44.3866 23.7976 47.6451 26.0467 49.6377 29.1627C51.4689 32.0293 52.0507 35.2902 51.2741 38.3445C50.1531 42.7548 47.0656 45.9373 42.8049 47.0773C41.7005 47.3718 40.57 47.5143 39.4419 47.5143ZM29.626 42.4342C33.1339 46.0157 38.0976 47.493 42.5935 46.2912C46.5645 45.2296 49.4406 42.2585 50.4856 38.1426C51.2052 35.3068 50.6614 32.274 48.9514 29.5973C47.0775 26.6666 44.0185 24.5528 40.7671 23.9448C35.1407 22.8927 30.8729 25.2653 28.0846 30.9938C27.9896 31.3192 27.1299 34.3331 27.5692 36.5205C28.0157 38.753 28.8137 40.8905 28.9111 41.147L29.626 42.4342Z" fill="#371A45"/>
<path d="M57.1596 39.1844C57.6666 36.4076 56.4427 33.8582 54.426 33.49C52.4092 33.1218 50.3634 35.0743 49.8564 37.851C49.3495 40.6277 50.5734 43.1772 52.5901 43.5454C54.6068 43.9136 56.6527 41.9611 57.1596 39.1844Z" fill="white"/>
<path d="M53.0811 43.9924C52.9956 43.9924 52.9101 43.99 52.827 43.9829C51.9221 43.9093 51.1123 43.4604 50.4853 42.6861C49.5709 41.5556 49.1743 39.9074 49.3999 38.1618C49.787 35.1598 51.9388 32.8655 54.1974 33.0508C55.1023 33.1244 55.9121 33.5733 56.5391 34.3475C57.4535 35.478 57.8501 37.1263 57.6245 38.8719C57.2516 41.7599 55.2448 43.9924 53.0811 43.9924ZM53.9338 33.8511C52.1739 33.8511 50.5233 35.7773 50.2026 38.2663C50.0079 39.7696 50.3499 41.2326 51.1146 42.1755C51.5991 42.774 52.2119 43.1184 52.8911 43.173C54.7246 43.3226 56.4845 41.3466 56.817 38.7674C57.0118 37.264 56.6698 35.801 55.905 34.8581C55.4205 34.2596 54.8078 33.9153 54.1285 33.8606C54.0644 33.8535 54.0003 33.8511 53.9338 33.8511Z" fill="#371A45"/>
<path d="M57.6631 39.4456C58.1058 37.417 57.1411 35.4837 55.5085 35.1274C53.8758 34.7711 52.1935 36.1268 51.7508 38.1555C51.3081 40.1841 52.2727 42.1174 53.9054 42.4737C55.538 42.83 57.2204 41.4743 57.6631 39.4456Z" fill="white"/>
<g opacity="0.35">
<path d="M51.5904 40.4299C51.5001 39.6676 51.6188 38.8767 51.892 38.1547C52.2458 39.8766 53.659 40.7434 55.179 40.1046C56.1599 39.6913 56.9602 38.7437 57.3854 37.6274C57.4091 37.7367 57.4257 37.8483 57.44 37.9647C57.6704 39.9074 56.547 42.0354 54.9296 42.7171C53.3146 43.3963 51.8207 42.3727 51.5904 40.4299Z" fill="#371A45"/>
</g>
<path d="M54.2735 43.5244C54.2141 43.5244 54.1547 43.522 54.0954 43.5172C53.4185 43.4674 52.8105 43.1325 52.3379 42.5482C51.5969 41.6362 51.2715 40.2089 51.4686 38.7269C51.8035 36.1999 53.4684 34.326 55.252 34.4566C55.9289 34.5065 56.5369 34.8414 57.0095 35.4256C57.7505 36.3376 58.0759 37.765 57.8787 39.247C57.5534 41.6909 55.9906 43.5244 54.2735 43.5244ZM55.0786 35.2641C53.8033 35.2641 52.5326 36.8625 52.2714 38.8361C52.1027 40.0996 52.364 41.2966 52.9649 42.0376C53.295 42.4437 53.7059 42.6765 54.1524 42.7097C55.4634 42.8071 56.8029 41.1731 57.0712 39.1425C57.2399 37.879 56.9786 36.682 56.3777 35.941C56.0476 35.5349 55.6367 35.3021 55.1902 35.2689C55.1546 35.2665 55.1166 35.2641 55.0786 35.2641Z" fill="#371A45"/>
<g opacity="0.7">
<path d="M43.7242 26.6428C43.7242 26.6428 37.2808 25.859 33.0913 28.8705C33.0866 28.8729 33.0818 28.8777 33.0771 28.88C32.196 29.5142 31.5025 30.3763 31.0631 31.369C30.4812 32.6824 30.2746 33.6728 30.125 34.5515C29.6713 37.2234 29.9587 38.5605 29.9587 38.5605C28.6786 36.8909 28.0943 35.1429 28.4506 32.9128C28.4862 32.6943 28.5313 32.4687 28.5836 32.2383C28.5955 32.186 28.6097 32.1338 28.624 32.0815C28.624 32.0815 28.624 32.0792 28.6263 32.0792C28.7665 31.6208 28.9755 31.027 29.2652 30.3763C30.1392 28.4122 31.759 25.9327 34.5448 25.1275C39.7532 23.6194 43.9902 26.4029 43.7242 26.6428Z" fill="white"/>
</g>
<g opacity="0.7">
<path d="M47.5656 36.2463C48.6156 36.1482 49.3741 35.0765 49.2597 33.8528C49.1453 32.629 48.2013 31.7165 47.1513 31.8147C46.1012 31.9129 45.3427 32.9845 45.4571 34.2082C45.5715 35.432 46.5155 36.3445 47.5656 36.2463Z" fill="white"/>
</g>
<g opacity="0.7">
<path d="M47.9009 38.963C48.3296 38.886 48.6043 38.4185 48.5145 37.9189C48.4248 37.4192 48.0046 37.0766 47.5759 37.1536C47.1473 37.2306 46.8726 37.698 46.9623 38.1977C47.0521 38.6973 47.4723 39.0399 47.9009 38.963Z" fill="white"/>
</g>
<path d="M43.7066 57.2232C43.7422 57.3871 44.2671 58.6529 44.2671 58.6529C44.2671 58.6529 44.6851 58.5603 45.1981 58.4463C45.8394 58.3038 46.2099 57.5248 46.027 56.7054C45.8441 55.8861 45.1767 55.3398 44.5355 55.4823C44.1032 55.5797 43.6045 55.6889 43.6045 55.6889C43.6045 55.6889 43.6472 56.9572 43.7066 57.2232Z" fill="#22A7F0"/>
<g opacity="0.35">
<path d="M43.7066 57.2232C43.7422 57.3871 44.2671 58.6529 44.2671 58.6529C44.2671 58.6529 44.6851 58.5603 45.1981 58.4463C45.8394 58.3038 46.2099 57.5248 46.027 56.7054C45.8441 55.8861 45.1767 55.3398 44.5355 55.4823C44.1032 55.5797 43.6045 55.6889 43.6045 55.6889C43.6045 55.6889 43.6472 56.9572 43.7066 57.2232Z" fill="#371A45"/>
</g>
<path d="M44.2661 58.8903C44.1711 58.8903 44.0832 58.8333 44.0476 58.7431C43.9217 58.4415 43.5132 57.444 43.4752 57.273C43.4135 56.9927 43.3731 55.829 43.3684 55.696C43.3636 55.582 43.442 55.4822 43.5536 55.4561L44.4846 55.2495C45.2517 55.0785 46.0474 55.7078 46.2587 56.6531C46.3585 57.0996 46.3157 57.5532 46.1352 57.9308C45.9476 58.3275 45.6317 58.5911 45.2494 58.6766L44.3184 58.8832C44.3017 58.8903 44.2851 58.8903 44.2661 58.8903ZM43.9384 57.1708C43.9597 57.2611 44.183 57.824 44.411 58.3773L45.1472 58.2135C45.3847 58.1612 45.5842 57.9878 45.7077 57.7266C45.8407 57.4463 45.874 57.102 45.7956 56.7576C45.6412 56.0688 45.0997 55.601 44.5891 55.715L43.8505 55.8788C43.8695 56.3633 43.9027 57.0165 43.9384 57.1708Z" fill="#371A45"/>
<path d="M44.2654 58.6579C44.9055 58.515 45.2764 57.7361 45.0939 56.918C44.9113 56.1 44.2444 55.5526 43.6043 55.6955C42.9642 55.8383 42.5933 56.6173 42.7759 57.4353C42.9584 58.2534 43.6253 58.8007 44.2654 58.6579Z" fill="#22A7F0"/>
<g opacity="0.35">
<path d="M45.0975 56.9144C45.2804 57.7314 44.9099 58.5128 44.2686 58.6553C43.6274 58.7978 42.96 58.2515 42.7771 57.4321C42.751 57.3229 42.7367 57.2113 42.7344 57.102C43.0241 57.6269 43.5395 57.9333 44.0359 57.8216C44.5892 57.6981 44.9431 57.0996 44.9099 56.4109C44.9906 56.5605 45.0547 56.7315 45.0975 56.9144Z" fill="#371A45"/>
</g>
<path d="M45.0975 56.9146C45.1094 56.9693 45.1189 57.0263 45.126 57.0809C44.8553 56.4681 44.2948 56.0953 43.7533 56.2164C43.1572 56.3494 42.7914 57.0358 42.8959 57.791C42.846 57.677 42.8057 57.5583 42.7772 57.43C42.5943 56.613 42.9648 55.8317 43.606 55.6892C44.2473 55.549 44.9147 56.0953 45.0975 56.9146Z" fill="white"/>
<path d="M44.0603 58.9143C43.7611 58.9143 43.4642 58.8027 43.2006 58.5866C42.8776 58.3229 42.6448 57.9311 42.5451 57.4822C42.3337 56.5369 42.7873 55.6297 43.5544 55.4587C44.3216 55.2877 45.1172 55.9171 45.3286 56.8623C45.4283 57.3088 45.3856 57.7624 45.2051 58.1401C45.0174 58.5367 44.7016 58.8003 44.3192 58.8858C44.2337 58.9048 44.1458 58.9143 44.0603 58.9143ZM43.8133 55.9052C43.7611 55.9052 43.7088 55.9099 43.6566 55.9218C43.1436 56.0358 42.8538 56.6889 43.0082 57.3801C43.0842 57.7244 43.2599 58.0237 43.4998 58.2208C43.7231 58.4037 43.9772 58.4773 44.2147 58.4227C44.4522 58.3704 44.6517 58.1971 44.7752 57.9358C44.9082 57.6556 44.9414 57.3112 44.8631 56.9668C44.7277 56.3469 44.2764 55.9052 43.8133 55.9052Z" fill="#371A45"/>
<path d="M42.3978 62.061C42.2648 62.061 42.1437 61.9731 42.1081 61.8401L41.322 59.0352C41.2792 58.8809 41.1628 58.7574 41.0203 58.7099L39.9207 58.3536C39.669 58.2729 39.4766 58.0662 39.4077 57.8026L38.3841 53.8506C38.3413 53.6891 38.4387 53.5252 38.6002 53.4825C38.7617 53.4397 38.9256 53.5371 38.9683 53.6986L39.992 57.6506C40.0086 57.7124 40.0513 57.7599 40.106 57.7789L41.2056 58.1351C41.5428 58.2444 41.8041 58.5199 41.9015 58.8714L42.6876 61.6762C42.7327 61.8377 42.6401 62.004 42.4786 62.0491C42.4525 62.0562 42.424 62.061 42.3978 62.061Z" fill="#371A45"/>
</g>
<defs>
<clipPath id="clip0_2_64416">
<rect width="95" height="95" rx="8" fill="white"/>
</clipPath>
</defs>
</svg>
