<svg width="49" height="71" viewBox="0 0 49 71" fill="none" xmlns="http://www.w3.org/2000/svg">
<path d="M30.1906 69.6951C25.9394 69.9991 21.2986 69.8163 20.4745 67.9756C20.1871 66.7501 20.0921 65.3014 20.142 63.6769C20.1563 63.2399 20.0185 62.8124 19.7478 62.4704C18.3703 60.7319 16.8336 59.1501 15.1094 57.7536L24.6236 53.8064C25.4216 54.3978 26.1032 55.0533 26.678 55.799C28.3571 57.9793 29.1029 60.9171 29.0767 65.2444C30.5017 66.0258 31.2689 66.9496 31.1002 68.0778C31.1145 68.1205 31.1288 68.1633 31.1406 68.2036C31.4043 69.0444 31.0551 69.5241 30.1906 69.6951Z" fill="#62ED2E"/>
<path d="M30.1906 69.6951C25.9394 69.9991 21.2986 69.8163 20.4745 67.9756C20.1871 66.7501 20.0921 65.3014 20.142 63.6769C20.1562 63.2399 20.0185 62.8124 19.7478 62.4704C18.3703 60.7319 16.8336 59.1501 15.1094 57.7536L24.6236 53.8064C25.4216 54.3978 26.1032 55.0533 26.678 55.799C25.5095 55.5116 24.1985 55.8418 23.3245 56.673C22.3531 57.5969 21.9707 59.0884 22.3792 60.3661C22.517 60.796 22.7331 61.195 22.9184 61.6083C23.5763 63.0784 23.8137 64.6958 24.0346 66.2918C24.0441 66.3535 24.0869 66.4081 24.1486 66.4224C24.151 66.4224 24.1534 66.4248 24.1557 66.4248C24.5025 66.5008 24.7923 66.7406 24.8825 67.0826C25.044 67.6978 25.3908 68.2583 25.9204 68.605C26.4001 68.9185 26.9796 69.0325 27.5496 69.0776C28.7965 69.1774 30.1384 68.9066 31.143 68.206C31.4042 69.0444 31.0551 69.5241 30.1906 69.6951Z" fill="#31C418"/>
<path d="M27.1021 70.1295C23.9196 70.1295 20.8962 69.6854 20.1885 68.1037C20.1813 68.0847 20.1742 68.0657 20.1694 68.0467C19.8868 66.8378 19.7752 65.4057 19.8298 63.6672C19.8417 63.3014 19.7253 62.9475 19.5021 62.6649C18.108 60.905 16.5642 59.3352 14.9136 57.9957C14.8281 57.9268 14.7853 57.8152 14.7996 57.7059C14.8162 57.5967 14.8875 57.504 14.9896 57.4613L24.5038 53.514C24.606 53.4713 24.7223 53.4856 24.8126 53.5521C28.064 55.9651 29.3963 59.3043 29.394 65.0565C30.8712 65.9092 31.5552 66.9114 31.4246 68.0419C31.5932 68.5454 31.5837 68.9729 31.3937 69.3078C31.1966 69.6593 30.8118 69.892 30.2537 70.0037C30.2418 70.006 30.2276 70.0084 30.2157 70.0084C29.2111 70.0797 28.1495 70.1295 27.1021 70.1295ZM20.7751 67.8709C21.4139 69.2104 24.8245 69.759 30.1492 69.3814C30.5078 69.3078 30.743 69.1795 30.8451 68.9967C30.9496 68.8114 30.9377 68.5383 30.8071 68.1797C30.7881 68.1298 30.7833 68.0775 30.7905 68.0253C30.9282 67.0967 30.3178 66.2749 28.9261 65.5125C28.824 65.4579 28.7622 65.351 28.7622 65.2347C28.7931 59.6819 27.5795 56.4567 24.5774 54.16L15.714 57.8389C17.2482 59.1309 18.6851 60.62 19.9937 62.2707C20.3072 62.6673 20.4711 63.1684 20.4568 63.6814C20.4069 65.3297 20.5138 66.738 20.7751 67.8709Z" fill="#371A45"/>
<path d="M29.4816 65.8407C28.2038 65.3918 26.8073 65.5913 25.589 66.1399C25.4797 66.1898 25.3895 66.033 25.4868 65.9618C26.6672 65.0854 28.2893 64.7173 29.693 65.2469C30.0825 65.3965 29.8758 65.9713 29.4816 65.8407Z" fill="#371A45"/>
<path d="M33.2296 49.0491C29.6956 54.5069 27.9761 62.1211 32.9683 65.762C34.0679 66.5648 35.3647 67.0421 36.7137 67.225C37.9273 67.3889 39.2051 67.4388 40.5327 67.396C42.0432 67.3485 43.5062 66.8331 44.7008 65.9069C48.4224 63.0189 49.6194 59.1239 47.5009 53.9036C46.2873 50.9681 42.2379 47.8308 41.5302 46.0091L41.0243 41.6581C42.3401 39.5325 41.9791 37.4093 40.3166 38.6229C39.6088 37.7109 38.2764 37.3665 37.6851 38.5208C36.7327 38.2405 35.7376 37.8866 35.2839 38.4851C35.0702 38.7701 35.0797 39.1644 35.2792 39.4589L36.9773 41.9621L33.2296 49.0491Z" fill="#FFBB94"/>
<g opacity="0.25">
<path d="M45.8123 64.6958C44.6201 65.6221 43.1547 66.1374 41.6442 66.1849C40.3166 66.2253 39.0388 66.1778 37.8252 66.0139C36.4762 65.8311 35.1794 65.3513 34.0798 64.5509C29.0876 60.9101 30.8071 53.2958 34.3411 47.8381L38.0864 40.7534L36.3883 38.2502C36.3741 38.2288 36.3646 38.2074 36.3527 38.1861C35.9038 38.1243 35.5167 38.1766 35.2816 38.4901C35.0678 38.7751 35.0773 39.1693 35.2768 39.4638L36.9749 41.9671L33.2296 49.0517C29.6956 54.5094 27.9761 62.1237 32.9683 65.7646C34.0679 66.5673 35.3647 67.0447 36.7137 67.2276C37.9273 67.3914 39.2051 67.4413 40.5327 67.3986C42.0432 67.3511 43.5062 66.8357 44.7008 65.9094C45.5012 65.2872 46.1852 64.6198 46.7433 63.9002C46.4512 64.1757 46.1424 64.4393 45.8123 64.6958Z" fill="#371A45"/>
</g>
<path d="M39.6459 67.7262C38.5819 67.7262 37.6034 67.6645 36.6724 67.5363C35.2237 67.3391 33.8794 66.8143 32.7846 66.0139C30.4119 64.2825 29.3076 61.5322 29.5902 58.06C29.8253 55.1791 31.0532 51.8375 32.9603 48.8877L36.6107 41.9836L35.0171 39.6371C34.7344 39.2191 34.7392 38.6824 35.0313 38.2952C35.5776 37.5732 36.6154 37.8749 37.5393 38.1504C37.8124 37.7585 38.1972 37.5234 38.6484 37.4806C39.2351 37.426 39.8834 37.7063 40.3703 38.2074C41.1161 37.7656 41.5554 37.9936 41.7621 38.1836C42.3938 38.7703 42.2133 40.2808 41.3488 41.7295L41.8381 45.9333C42.1492 46.6909 43.1277 47.7596 44.1608 48.8925C45.5383 50.4006 47.0987 52.1106 47.7922 53.785C49.8656 58.896 48.8895 63.057 44.8947 66.1564C43.6668 67.1088 42.1207 67.6621 40.5437 67.7096C40.2373 67.7215 39.9381 67.7262 39.6459 67.7262ZM36.0549 38.4758C35.8269 38.4758 35.6417 38.5304 35.5324 38.6776C35.4066 38.8439 35.4066 39.0956 35.5372 39.2856L37.2353 41.7889C37.2994 41.8863 37.3066 42.0097 37.2543 42.1119L33.5089 49.1965C33.5042 49.2036 33.4994 49.2131 33.4947 49.2202C29.9916 54.6305 28.3908 62.0358 33.1551 65.508C34.1668 66.2443 35.4113 66.7311 36.7579 66.914C37.9098 67.0708 39.1424 67.1254 40.5247 67.0826C41.9687 67.0375 43.3842 66.534 44.5099 65.66C48.3076 62.7126 49.1911 58.9055 47.2103 54.0225C46.5596 52.4526 45.0396 50.7854 43.6977 49.3152C42.5601 48.0684 41.5768 46.9925 41.2396 46.1233C41.2301 46.0995 41.2229 46.0734 41.2206 46.0449L40.7147 41.6939C40.7076 41.6226 40.7218 41.5514 40.7598 41.492C41.5839 40.1596 41.6528 38.9365 41.3393 38.6444C41.1968 38.5114 40.8857 38.5993 40.5057 38.8748C40.3679 38.9745 40.1756 38.9484 40.0711 38.813C39.7077 38.3475 39.1638 38.0625 38.7126 38.1052C38.3919 38.1361 38.1426 38.3237 37.9668 38.6634C37.8979 38.7987 37.7412 38.8652 37.5987 38.8225L37.3944 38.7608C36.9123 38.623 36.4254 38.4758 36.0549 38.4758Z" fill="#371A45"/>
<path d="M39.1477 41.9026C39.2759 41.6746 39.1334 41.3326 39.0479 41.107C38.9505 40.8457 38.8247 40.5987 38.6774 40.3612C38.5302 40.1285 38.3687 39.9005 38.1906 39.6891C38.0219 39.4896 37.8082 39.2711 37.5517 39.1999C37.5256 39.1927 37.4899 39.2141 37.4923 39.245C37.5232 39.4849 37.6704 39.6986 37.8129 39.891C37.9697 40.1071 38.1359 40.3137 38.2784 40.5394C38.4114 40.7484 38.5326 40.9692 38.6252 41.1972C38.6727 41.316 38.7154 41.4395 38.7463 41.5654C38.7795 41.6912 38.8057 41.8361 38.9031 41.9311C38.9767 42.0024 39.1002 41.9905 39.1477 41.9026Z" fill="#371A45"/>
<path d="M39.1862 41.2903C39.1482 41.1526 39.1672 40.9792 39.1719 40.8319C39.1767 40.6586 39.1909 40.4852 39.2123 40.3118C39.2337 40.1384 39.2574 39.9651 39.2812 39.7941C39.3049 39.6231 39.3311 39.4426 39.3263 39.2716C39.3239 39.2217 39.2622 39.2074 39.2361 39.2478C39.0081 39.5803 38.9392 40.0173 38.8988 40.4092C38.8774 40.6134 38.8679 40.8201 38.8679 41.0267C38.8679 41.1644 38.8442 41.4732 39.0651 41.4542C39.1434 41.4447 39.2076 41.3758 39.1862 41.2903Z" fill="#371A45"/>
<path d="M39.6412 40.1239C39.4987 40.1381 39.3989 40.2806 39.3205 40.3899C39.2398 40.5039 39.1757 40.6274 39.121 40.7556C39.0712 40.8767 39.0355 41.0002 39.0023 41.1285C38.9714 41.2544 38.9524 41.4016 38.988 41.5275C38.9952 41.5536 39.0308 41.5584 39.0474 41.5346C39.1115 41.4349 39.1495 41.3137 39.1899 41.2021C39.2303 41.0857 39.2897 40.9717 39.349 40.8625C39.4108 40.7532 39.4749 40.6487 39.5462 40.5466C39.615 40.4492 39.7267 40.3352 39.729 40.2117C39.7314 40.169 39.6887 40.1215 39.6412 40.1239Z" fill="#371A45"/>
<path d="M38.1139 43.5037C37.9833 43.6154 38.0427 43.7602 38.0664 43.9122C38.0949 44.1093 38.121 44.3017 38.121 44.5036C38.121 44.8836 38.0617 45.2517 37.9358 45.6103C37.6817 46.3371 37.2898 47.0306 36.8955 47.6885C36.5274 48.3012 36.126 48.895 35.7912 49.5291C35.6202 49.8545 35.4658 50.1894 35.3423 50.5337C35.2259 50.8567 35.1214 51.3103 35.4943 51.517C35.9218 51.7521 36.1759 51.251 36.3802 50.9707C36.6438 50.6097 36.8575 50.2297 37.0808 49.845C37.1164 49.7809 37.0262 49.7049 36.9763 49.7642C36.8718 49.8925 36.7554 50.0089 36.6462 50.1324C36.525 50.2701 36.411 50.4173 36.2852 50.5503C36.1735 50.6715 36.0572 50.795 35.936 50.9066C35.8838 50.9541 35.8339 51.0016 35.7817 51.0491C35.765 51.0657 35.7413 51.0942 35.7175 51.1013C35.7009 51.1085 35.7033 51.1109 35.727 51.1109C35.7152 51.1061 35.708 51.0966 35.7033 51.0847C35.6653 50.9636 35.7318 50.8211 35.7722 50.7047C35.8292 50.5432 35.8909 50.3841 35.9622 50.2297C36.0952 49.9376 36.2472 49.6526 36.4087 49.3747C37.0832 48.2086 37.8384 47.0924 38.3063 45.8194C38.5652 45.1116 38.615 44.3184 38.3514 43.6059C38.3324 43.556 38.2944 43.499 38.235 43.4895C38.1947 43.4871 38.1495 43.4729 38.1139 43.5037Z" fill="#371A45"/>
<path d="M38.403 43.3466C38.1608 43.7052 38.1917 44.2325 38.2273 44.6457C38.2677 45.0994 38.3555 45.5458 38.5028 45.9781C38.6524 46.4151 38.8567 46.8236 39.0942 47.2178C39.3388 47.624 39.5644 48.0064 39.6618 48.4742C39.714 48.7212 39.7212 48.9492 39.7164 49.201C39.7117 49.4503 39.7022 49.7282 39.638 49.9705C39.6214 50.0346 39.7069 50.0679 39.7425 50.0132C39.8637 49.8232 39.9634 49.6594 40.0347 49.4432C40.1083 49.22 40.1297 48.9967 40.132 48.764C40.1415 48.289 40.0204 47.8472 39.809 47.4245C39.5977 47.0041 39.3245 46.6241 39.1393 46.1895C38.9612 45.7715 38.8424 45.3273 38.7712 44.8808C38.7332 44.641 38.7118 44.394 38.7047 44.1517C38.6952 43.8857 38.7118 43.6268 38.6239 43.3703C38.5883 43.2753 38.4624 43.2587 38.403 43.3466Z" fill="#371A45"/>
<path d="M40.3626 56.279L40.7402 57.7159L42.1391 58.2194C42.5167 58.3548 42.5737 58.8654 42.2365 59.0839L40.9849 59.8866L40.9374 61.3734C40.9255 61.7748 40.4576 61.9885 40.1465 61.732L38.997 60.7915L37.5696 61.2048C37.1849 61.3164 36.8381 60.9388 36.983 60.5635L37.5221 59.1789L36.6861 57.9486C36.4605 57.6161 36.7146 57.1696 37.116 57.1934L38.6004 57.2789L39.5124 56.1056C39.757 55.7898 40.2605 55.8919 40.3626 56.279Z" fill="#FFD243"/>
<path d="M40.9411 61.3755C40.9293 61.7769 40.4614 61.9883 40.1503 61.7342L39.0008 60.7937L37.5734 61.2069C37.1886 61.3185 36.8419 60.9409 36.9868 60.5657L37.1554 60.1358C37.2456 60.3472 37.4831 60.4849 37.7373 60.4113L39.1646 59.998L40.3141 60.9386C40.5184 61.1048 40.7915 61.0715 40.9578 60.9124L40.9411 61.3755Z" fill="#FFA92C"/>
<g opacity="0.6">
<path d="M37.1164 57.1955L38.8359 57.3023L38.5794 57.6325L37.1425 57.5422L37.076 57.4425C37.0237 57.3665 37 57.2833 37 57.2026C37.038 57.1955 37.076 57.1931 37.1164 57.1955Z" fill="white"/>
</g>
<g opacity="0.6">
<path d="M42.2484 58.2741C42.2176 58.3477 42.1629 58.4142 42.0846 58.4641L41.8756 58.5994C41.8447 58.5781 41.8067 58.5591 41.7687 58.5448L40.3698 58.0413L39.9922 56.6044C39.9186 56.3266 39.6407 56.1959 39.3984 56.2577L39.5172 56.1057C39.7642 55.7874 40.2677 55.8919 40.3698 56.2791L40.7474 57.7159L42.1463 58.2194C42.1819 58.2361 42.2152 58.2527 42.2484 58.2741Z" fill="white"/>
</g>
<path d="M37.6688 59.3663L36.6856 57.9508C36.5051 57.6825 36.6333 57.3405 36.8993 57.2312L37.923 58.7085L37.6688 59.3663Z" fill="#FFA92C"/>
<path d="M42.2402 59.0863L40.7891 59.9769L40.8104 59.2715L42.3233 58.3381C42.5276 58.5471 42.5133 58.9105 42.2402 59.0863Z" fill="#FFA92C"/>
<path d="M40.4549 61.8694C40.3409 61.8694 40.2269 61.8291 40.1319 61.7531L38.9919 60.8197L37.5764 61.2306C37.3887 61.2852 37.1892 61.2282 37.0586 61.0857C36.928 60.9432 36.89 60.7389 36.9589 60.5561L37.4932 59.1833L36.6667 57.9649C36.5575 57.8034 36.548 57.5968 36.6454 57.4282C36.7427 57.2572 36.9232 57.1598 37.118 57.1717L38.5881 57.2572L39.4906 56.0934C39.6094 55.9391 39.8041 55.8678 39.9941 55.9058C40.1865 55.9462 40.3361 56.0863 40.386 56.2763L40.7612 57.7013L42.1482 58.2001C42.3311 58.2666 42.4594 58.4281 42.4807 58.6228C42.5021 58.8176 42.4142 59.0028 42.2504 59.1097L41.0106 59.9053L40.9631 61.3778C40.956 61.5726 40.842 61.7436 40.6639 61.8243C40.5997 61.8552 40.5261 61.8694 40.4549 61.8694ZM39.0037 60.7651L40.1651 61.7151C40.3029 61.8291 40.4834 61.8528 40.6472 61.7768C40.8111 61.7032 40.9109 61.5512 40.9156 61.3731L40.9631 59.8744L42.2242 59.0646C42.3738 58.9672 42.4522 58.8033 42.4332 58.6252C42.4142 58.4471 42.3002 58.3046 42.1316 58.2452L40.7208 57.7369L40.7185 57.7251L40.3408 56.2882C40.2957 56.1148 40.1627 55.9913 39.987 55.9533C39.8112 55.9177 39.6426 55.9794 39.531 56.1219L38.6119 57.3071H38.6L37.1156 57.2216C36.9351 57.2097 36.7784 57.2976 36.6881 57.4543C36.6002 57.6111 36.6074 57.7916 36.7071 57.9388L37.5502 59.1786L37.0064 60.5751C36.9422 60.7413 36.9755 60.9194 37.0966 61.0524C37.2177 61.1854 37.3911 61.2329 37.5645 61.1831L39.0037 60.7651Z" fill="#371A45"/>
<path d="M40.4539 62.0526C40.2971 62.0526 40.1428 61.9979 40.0169 61.8958L38.9505 61.0242L37.6276 61.4089C37.3735 61.4826 37.1028 61.4066 36.9223 61.2118C36.7418 61.0147 36.6919 60.7392 36.7869 60.4922L37.2857 59.2097L36.5114 58.0697C36.3618 57.8488 36.3499 57.5686 36.4829 57.3382C36.6135 57.1078 36.8582 56.9724 37.1265 56.9891L38.5016 57.0674L39.3472 55.9797C39.511 55.7707 39.7723 55.6733 40.0335 55.7256C40.2948 55.7778 40.4966 55.9726 40.5655 56.2291L40.9147 57.5614L42.2114 58.0293C42.4608 58.1196 42.6341 58.3404 42.665 58.6041C42.6959 58.8677 42.5748 59.1218 42.3515 59.2643L41.1925 60.0077L41.1498 61.3828C41.1403 61.6488 40.9859 61.8816 40.7436 61.9908C40.6486 62.0336 40.5513 62.0526 40.4539 62.0526ZM38.998 60.5848C39.0455 60.5848 39.093 60.6014 39.131 60.6323L40.2805 61.5728C40.3636 61.6417 40.4729 61.6559 40.5703 61.6108C40.6677 61.5657 40.7294 61.4754 40.7318 61.3686L40.7793 59.8818C40.7816 59.8129 40.8173 59.7512 40.8743 59.7132L42.1259 58.9104C42.2162 58.8511 42.2636 58.7537 42.2518 58.6468C42.2399 58.5399 42.171 58.4544 42.0713 58.4188L40.6724 57.9153C40.6083 57.8916 40.5584 57.8393 40.5418 57.7728L40.1641 56.3359C40.1356 56.2314 40.0573 56.1578 39.9528 56.1364C39.8483 56.1151 39.7462 56.1531 39.6797 56.2386L38.7676 57.4118C38.7249 57.4664 38.6608 57.4973 38.5919 57.4926L37.1075 57.4071C37.0007 57.3999 36.9033 57.4522 36.851 57.5472C36.7988 57.6422 36.8035 57.7491 36.8629 57.8393L37.6989 59.0696C37.7369 59.1266 37.7464 59.1978 37.7203 59.2619L37.1811 60.6466C37.1431 60.7463 37.1621 60.8532 37.2358 60.9339C37.3094 61.0147 37.4139 61.0432 37.516 61.0123L38.9434 60.5991C38.9577 60.5872 38.979 60.5848 38.998 60.5848Z" fill="#371A45"/>
<g opacity="0.25">
<path d="M32.9059 50.358C33.1838 49.7833 33.5495 49.2512 33.9841 48.7857C34.2335 48.5174 34.5161 48.2656 34.8558 48.1255C35.1954 47.9854 35.6039 47.9735 35.915 48.1706C36.2261 48.3654 36.3947 48.7952 36.2309 49.1254C36.5491 48.4176 37.1405 47.8049 37.891 47.6077C38.6415 47.4106 39.5345 47.7146 39.8931 48.401C39.7197 47.9972 39.8884 47.4985 40.2304 47.223C40.5724 46.9475 41.0474 46.8786 41.4773 46.9618C41.9071 47.0449 42.299 47.2705 42.6481 47.5341C41.7599 46.4012 41.1067 45.0855 40.7386 43.6937C40.7054 43.5702 40.6745 43.442 40.5961 43.3399C40.5177 43.2377 40.4014 43.1736 40.2898 43.1119C39.4823 42.6891 38.6082 42.3899 37.7081 42.2355C37.6464 42.226 37.5823 42.2165 37.5276 42.2402C37.473 42.264 37.4374 42.3186 37.4065 42.3685C36.998 43.024 36.6987 43.7436 36.3069 44.411C35.9197 45.0712 35.4471 45.6769 35.0196 46.3134C34.1884 47.546 33.5305 48.8855 32.875 50.2226" fill="#371A45"/>
</g>
<g opacity="0.5">
<path d="M44.5573 51.4169C45.1605 52.2006 45.7091 53.0271 46.196 53.8892C46.5261 54.4711 46.8301 55.072 47.0035 55.718C47.1721 56.3474 47.2125 57.01 47.1199 57.656C47.0819 57.9267 46.9465 58.2592 46.6734 58.2616C46.481 58.264 46.3338 58.0906 46.2459 57.9172C46.0701 57.5681 46.0274 57.1691 45.9419 56.7867C45.6878 55.6349 45.0536 54.6089 44.4053 53.6232C44.2628 53.4071 44.1203 53.1934 44.0063 52.9606C43.8234 52.5854 43.7236 52.1674 43.7189 51.7494C43.7165 51.5641 43.745 51.3551 43.8923 51.2435C44.0585 51.1176 44.3103 51.1817 44.4599 51.3266C44.6095 51.4715 44.6808 51.6781 44.7473 51.8752" fill="white"/>
</g>
<g opacity="0.5">
<path d="M46.7085 59.0432C46.5304 59.029 46.3618 59.1549 46.2858 59.314C46.2098 59.4755 46.2145 59.6631 46.2573 59.8365C46.2858 59.9505 46.3333 60.0645 46.4188 60.1452C46.5494 60.2664 46.7537 60.2854 46.9175 60.2189C47.0814 60.1524 47.2097 60.0146 47.2952 59.8579C47.4305 59.6037 47.4448 59.2546 47.2405 59.0504C47.0434 58.8532 46.6777 58.8699 46.4995 59.086" fill="white"/>
</g>
<path d="M42.2751 46.2727C42.2656 46.2988 42.2561 46.3249 42.2443 46.3487C42.1564 46.5316 41.9878 46.6646 41.7835 46.6931C41.4985 46.7311 41.2111 46.7216 40.9214 46.6646C40.6031 46.6028 40.3086 46.4532 40.0688 46.2347C39.5249 45.7431 39.1069 45.1469 38.8385 44.5152C38.7293 44.2587 38.6438 43.9951 38.5868 43.7314C38.5393 43.5201 38.5084 43.3063 38.4989 43.0949C38.4941 43.0213 38.4918 42.9501 38.4918 42.8788C38.4134 42.2684 38.5393 41.7934 38.8076 41.4586C38.9858 41.2377 39.228 41.0786 39.5154 40.9836C39.7315 40.9147 39.9738 40.8814 40.235 40.8862C40.6126 40.8933 40.9689 41.0501 41.2396 41.3137C41.5935 41.6557 41.8785 42.0452 42.1136 42.4727C42.3369 42.8836 42.4556 43.3443 42.4746 43.8122C42.5103 44.7788 42.4746 45.6433 42.2751 46.2727Z" fill="#62ED2E"/>
<path d="M42.2443 46.3488C42.1564 46.5316 41.9878 46.6646 41.7835 46.6931C41.4985 46.7311 41.2111 46.7216 40.9214 46.6646C40.6031 46.6029 40.3086 46.4533 40.0688 46.2348C39.5249 45.7431 39.1069 45.147 38.8385 44.5153C38.7293 44.2588 38.6438 43.9951 38.5868 43.7315C38.5393 43.5201 38.5084 43.3064 38.4989 43.095C38.4941 43.0214 38.4918 42.9501 38.4918 42.8789C38.4134 42.2685 38.5393 41.7935 38.8076 41.4586C38.9858 41.2378 39.228 41.0786 39.5154 40.9836C39.5249 41.005 39.5225 41.024 39.4964 41.024L39.7956 41.1333C39.2898 41.7579 39.1924 42.6461 39.4014 43.4251C39.6104 44.2041 40.0901 44.881 40.6364 45.47C41.0069 45.8666 41.4439 46.249 41.9783 46.3345C42.0685 46.3464 42.1564 46.3511 42.2443 46.3488Z" fill="#31C418"/>
<path d="M41.4418 47.0302C41.2494 47.0302 41.0547 47.0112 40.8575 46.9732C40.487 46.8996 40.1403 46.7262 39.8529 46.4673C38.8055 45.5221 38.1785 44.1873 38.1714 42.8953C38.0859 42.1971 38.2403 41.6081 38.6155 41.1901C38.986 40.7768 39.5655 40.556 40.2353 40.5678C40.6842 40.5773 41.1164 40.7602 41.4513 41.0832C41.8123 41.4323 42.1258 41.848 42.3823 42.3182C42.6222 42.76 42.7599 43.2682 42.7813 43.7931C42.8288 44.9497 42.7623 45.7667 42.5699 46.3652C42.4607 46.7048 42.1685 46.9566 41.8218 47.0041C41.6983 47.0231 41.57 47.0302 41.4418 47.0302ZM40.1783 41.1972C39.7057 41.1972 39.328 41.3397 39.0858 41.6105C38.8317 41.8931 38.7343 42.3158 38.7984 42.836C38.8008 42.8502 38.8008 42.8621 38.8008 42.8763C38.8008 43.9997 39.3518 45.1682 40.2757 46.0018C40.4775 46.1823 40.7198 46.3058 40.9787 46.3557C41.2375 46.4056 41.4917 46.4151 41.7387 46.3818C41.8455 46.3676 41.9382 46.2868 41.9738 46.1752C42.14 45.6551 42.1994 44.8856 42.1567 43.8192C42.14 43.3893 42.0284 42.9761 41.8337 42.6175C41.608 42.2018 41.3325 41.8361 41.019 41.5345C40.7982 41.3207 40.5179 41.1996 40.2282 41.1948C40.2092 41.1972 40.1949 41.1972 40.1783 41.1972Z" fill="#371A45"/>
<path d="M38.9235 42.0787C38.9283 42.5157 38.8879 42.8815 38.8119 43.1783C38.7549 43.4016 38.6789 43.5845 38.5839 43.7293C38.2704 44.2115 37.7645 44.2637 37.1731 43.8861C37.1304 43.9858 37.0805 44.0832 37.0282 44.183C36.1352 45.9072 34.1593 47.6386 32.8197 49.5528C29.6824 49.7547 27.2527 49.1491 26.0391 47.4272L24.9063 41.5372L24.0156 36.9036L24.6236 36.3977C26.6471 36.3977 27.761 39.3332 30.0885 41.6607C31.6774 41.8792 33.2425 41.9623 34.7673 41.7842C34.8955 41.77 35.0142 41.7177 35.1164 41.6393C35.4037 41.4185 35.6484 41.1691 35.8479 40.8912C36.0284 40.6371 36.2967 40.4542 36.6007 40.3972C37.1992 40.2856 37.7645 40.3711 38.2371 40.7131C38.3535 40.7962 38.4556 40.896 38.5459 41.0052C38.6551 41.1406 38.7454 41.2926 38.8071 41.4565C38.8831 41.6536 38.9235 41.865 38.9235 42.0787Z" fill="#62ED2E"/>
<path d="M38.8142 43.1778C38.8071 43.0282 38.7976 42.8785 38.7857 42.7289C38.7216 42.8714 38.6195 42.9949 38.496 43.0923C38.2395 43.2942 37.8928 43.3797 37.5769 43.2918C37.4273 43.2514 37.2919 43.1707 37.1779 43.0638C36.9689 42.8738 36.8359 42.5983 36.8288 42.3133C36.7599 43.5079 35.9999 44.5933 35.0261 45.2987C34.8409 45.434 34.6485 45.5575 34.43 45.624C34.0334 45.7475 33.6059 45.6692 33.1974 45.5908C32.5371 45.4625 31.8745 45.3343 31.2142 45.206C30.668 45.1015 30.1194 44.9947 29.6088 44.7714C28.6065 44.3344 27.8346 43.4842 27.2504 42.5603C26.6637 41.6364 26.2315 40.6247 25.6995 39.6699L25.7019 39.8504C25.4145 40.399 25.1485 40.9619 24.9062 41.5367L26.0391 47.4267C27.2527 49.1462 29.6824 49.7542 32.8197 49.5523C34.1592 47.638 36.1352 45.9043 37.0282 44.1824C37.0805 44.0827 37.128 43.9853 37.1731 43.8855C37.7645 44.2632 38.2704 44.2085 38.5839 43.7288L38.8142 43.1778Z" fill="#31C418"/>
<path d="M31.7006 49.9064C28.8482 49.9064 26.8628 49.1369 25.7845 47.6098C25.7584 47.5742 25.7417 47.5314 25.7322 47.4887L23.7088 36.9627C23.6874 36.851 23.7278 36.7347 23.8156 36.661L24.4236 36.1552C24.4806 36.1077 24.5519 36.0815 24.6255 36.0815C26.1004 36.0815 27.1003 37.4163 28.2569 38.96C28.8292 39.7224 29.4729 40.5845 30.2376 41.3612C31.9405 41.5892 33.4106 41.6248 34.7311 41.4704C34.7976 41.4633 34.8665 41.4348 34.9259 41.3873C35.1871 41.1878 35.4128 40.9574 35.5909 40.7057C35.826 40.3779 36.1633 40.157 36.5433 40.0858C37.2534 39.9528 37.9017 40.081 38.4219 40.4539C38.9277 40.8197 39.2341 41.4229 39.2412 42.0713C39.2531 43.5414 38.8019 44.1019 38.4195 44.3133C38.1844 44.4439 37.8162 44.5342 37.3175 44.3157C36.7879 45.3417 35.9091 46.3439 34.9829 47.4008C34.3226 48.1537 33.641 48.9327 33.0805 49.733C33.0259 49.8114 32.938 49.8613 32.843 49.866C32.4464 49.8945 32.0664 49.9064 31.7006 49.9064ZM26.3355 47.3034C27.4114 48.7735 29.537 49.429 32.6506 49.2509C33.2111 48.4672 33.869 47.7167 34.5055 46.9899C35.4888 45.8665 36.4198 44.8049 36.8853 43.7599C36.9233 43.6768 36.9945 43.6127 37.0824 43.5865C37.1703 43.5604 37.2652 43.5723 37.3412 43.6222C37.5597 43.7623 37.8709 43.9 38.1108 43.767C38.4314 43.5889 38.6166 42.9595 38.6095 42.0808C38.6048 41.6319 38.3981 41.2163 38.0537 40.9693C37.6714 40.6938 37.2035 40.6059 36.6572 40.708C36.4387 40.7484 36.2416 40.879 36.1015 41.0738C35.8854 41.3778 35.617 41.6509 35.3059 41.8908C35.1562 42.0048 34.9805 42.0784 34.8024 42.0974C33.4035 42.2613 31.8455 42.2209 30.0453 41.9739C29.9764 41.9644 29.9146 41.9335 29.8647 41.8837C29.0359 41.0548 28.3519 40.1428 27.751 39.34C26.687 37.9198 25.8368 36.7869 24.7324 36.718L24.3595 37.0292L26.3355 47.3034Z" fill="#371A45"/>
<path d="M37.7784 44.4444C36.9115 44.3066 36.6218 43.4801 36.6788 42.7082C36.6883 42.4874 36.712 42.2712 36.7453 42.0575C36.7548 41.9862 36.8213 41.9387 36.8925 41.9482C36.9567 41.9577 37.0042 42.0147 37.0018 42.0765C37.0018 42.2855 37.0089 42.4945 37.0303 42.6964C37.0754 43.1999 37.263 43.8292 37.8568 43.8197C38.3104 43.853 38.2297 44.5227 37.7784 44.4444Z" fill="#371A45"/>
<path d="M36.8338 42.1853C36.8338 42.2281 36.8314 42.2732 36.8291 42.3159C36.8267 42.2708 36.8291 42.2281 36.8338 42.1853Z" fill="#31C418"/>
<path d="M25.4022 54.5922C23.8347 56.7582 21.0417 58.0787 16.4319 57.8554C16.1302 58.385 15.7882 58.9004 15.4106 59.392C13.6317 61.7172 11.1119 63.5364 8.84137 64.1302C9.00762 66.0349 8.67512 67.7592 7.18125 68.5263C7.14325 68.5453 7.10525 68.5643 7.06487 68.5833C6.48062 68.854 5.799 68.8208 5.23375 68.5097C2.15812 66.8234 0.155999 63.4818 0.440999 60.6033C0.483749 60.1734 0.666622 59.7673 0.961122 59.4538C1.81612 58.5465 3.41687 57.4659 5.15537 56.3544C5.3715 56.2167 5.51875 55.9958 5.56387 55.744C5.99137 53.3287 6.901 51.1413 8.02912 49.0513C8.7535 47.156 9.43037 45.123 10.0716 42.9832C10.6274 41.1307 11.157 39.1998 11.6724 37.2095L12.0476 36.4614L13.3016 33.9534L13.6982 33.1602L25.0341 36.9055L25.6421 39.4349C27.1764 44.6219 28.105 50.861 25.4022 54.5922Z" fill="#62ED2E"/>
<path d="M25.4022 54.5926C23.8347 56.7586 21.0417 58.0791 16.4319 57.8558C16.1302 58.3854 15.7882 58.9008 15.4106 59.3924C15.2919 58.7821 14.9404 57.6539 13.9001 56.9462C12.7981 56.1957 11.3541 56.2099 10.3044 56.6659C7.82962 57.7418 8.05287 60.4018 5.80137 61.9503C5.2385 62.3374 4.58775 62.5844 4.02012 62.9644C3.4525 63.3468 2.949 63.9239 2.92287 64.6079C2.9015 65.1352 3.16987 65.6339 3.47862 66.0591C4.37162 67.2822 5.7135 68.1609 7.18125 68.5243C7.14325 68.5433 7.10525 68.5623 7.06487 68.5813C6.48062 68.8521 5.799 68.8188 5.23375 68.5077C2.15812 66.8214 0.155999 63.4798 0.440999 60.6013C0.483749 60.1714 0.666622 59.7653 0.961122 59.4518C1.81612 58.5446 3.41687 57.4639 5.15537 56.3524C5.3715 56.2147 5.51875 55.9938 5.56387 55.7421C5.99137 53.3267 6.901 51.1393 8.02912 49.0493C8.7535 47.1541 9.43037 45.1211 10.0716 42.9812C10.15 42.9812 10.2426 42.9812 10.3566 42.9764C10.8269 42.9622 10.8506 42.9147 11.3684 42.8743C11.7032 42.8482 12.1806 42.8339 12.772 42.8791C11.7032 45.6792 11.347 48.9068 12.5891 51.6357C12.7625 52.0181 14.7052 55.6566 18.263 56.2337C21.8944 56.8227 24.8821 53.8302 25.35 54.4643C25.3809 54.4999 25.3951 54.5427 25.4022 54.5926Z" fill="#31C418"/>
<path d="M25.772 39.3949C28.8951 48.3961 28.66 58.8936 16.4145 58.1669L16.7042 58.0078C15.0227 60.9005 12.1799 63.4988 8.91899 64.4321L9.15174 64.0996C9.20399 64.7646 9.21586 65.4439 9.10186 66.1231C8.92374 67.3653 8.19461 68.5361 6.94536 68.9636C6.23761 69.2035 5.44199 69.0468 4.83161 68.6335L4.61549 68.5053C3.98374 68.111 3.37099 67.6289 2.84374 67.104C1.41874 65.6838 0.352362 63.8289 0.136237 61.803C0.057862 60.9243 0.060237 59.9268 0.718112 59.2523C1.93886 58.0125 3.43749 57.1053 4.88149 56.1553C5.03349 56.0698 5.17599 55.951 5.23061 55.7824C5.26624 55.6684 5.29474 55.4689 5.32086 55.3501C5.51086 54.3788 5.78399 53.4193 6.12124 52.4906C6.57011 51.2509 7.13061 50.0563 7.75524 48.902C9.15174 45.2445 10.3606 41.0075 11.3937 37.0698L13.4172 33.0228C13.4885 32.8803 13.6524 32.8161 13.7972 32.8636L25.1331 36.609C25.297 36.6636 25.3872 36.8418 25.3326 37.0056C25.278 37.1695 25.0999 37.2598 24.936 37.2051L13.6001 33.4598L13.9801 33.3006L11.9566 37.3476C11.5481 39.0244 10.8807 41.3756 10.3155 43.2685C9.70986 45.2635 9.06149 47.249 8.30861 49.1965C7.20186 51.2438 6.30886 53.4121 5.89324 55.704C5.85049 56.0175 5.70086 56.3191 5.45386 56.521C5.38261 56.578 5.29711 56.635 5.22111 56.6825C4.75799 56.9818 4.25449 57.3048 3.80086 57.6135C3.26649 57.9745 2.73924 58.345 2.23574 58.7393C1.68236 59.2143 0.986488 59.6465 0.796488 60.3899C0.340488 63.4394 2.59674 66.6148 5.14986 68.0896C6.09511 68.7356 7.07124 68.453 7.80036 67.6408C8.57699 66.6955 8.61974 65.3465 8.52711 64.1543C8.51524 63.9999 8.61499 63.8621 8.75986 63.8218C11.883 62.9098 14.5311 60.4683 16.1556 57.6966C16.2174 57.5898 16.3314 57.5328 16.4477 57.5375C17.4975 57.5731 18.5496 57.5446 19.5804 57.3974C24.3731 56.7348 26.6056 53.5523 26.7814 48.8711C26.8954 45.6934 26.2327 42.5655 25.5084 39.4733C25.4917 39.3996 25.5369 39.326 25.6105 39.307C25.6794 39.2928 25.7482 39.3308 25.772 39.3949Z" fill="#371A45"/>
<path d="M19.2918 58.091C17.0545 58.3594 14.4183 58.0483 12.9006 56.2053C12.8151 56.1008 12.9624 55.9583 13.0645 56.0509C13.4611 56.4285 13.9171 56.7373 14.4159 56.9629C15.6509 57.5234 17.0403 57.6422 18.3821 57.54C18.6671 57.5305 18.9498 57.4854 19.2348 57.4664C19.6361 57.445 19.6955 58.0364 19.2918 58.091Z" fill="#371A45"/>
<path d="M9.01536 64.4061C7.69486 64.532 6.28411 64.1116 5.41486 63.088C5.33173 62.9835 5.48136 62.8481 5.57873 62.9431C5.78773 63.1568 6.04423 63.3255 6.31261 63.4608C7.10586 63.8551 8.06061 63.9738 8.91323 63.7862C9.34548 63.7055 9.45236 64.342 9.01536 64.4061Z" fill="#371A45"/>
<path d="M23.4371 49.795C24.2161 49.3295 25.1732 49.5005 25.5769 50.175C25.9807 50.8495 25.6767 51.7733 24.8977 52.2388C24.1187 52.7043 23.1616 52.5333 22.7578 51.8588" fill="#62ED2E"/>
<path d="M23.3517 49.6572C24.0405 49.1347 25.1496 49.1584 25.722 49.8685C26.3347 50.6119 26.0592 51.7448 25.3396 52.3029C24.5558 52.9845 23.1023 52.9584 22.6179 51.9395C22.5371 51.7638 22.777 51.6213 22.891 51.7757C23.2235 52.196 23.7887 52.3077 24.2732 52.1747C25.2327 51.9562 25.9239 50.657 25.0047 49.9849C24.5772 49.6904 23.9858 49.7142 23.5085 49.9303C23.3351 50.0087 23.1997 49.7664 23.3517 49.6572Z" fill="#371A45"/>
<path d="M24.895 52.2387C24.116 52.7042 23.1589 52.5332 22.7552 51.8587C22.7552 51.8587 22.5177 51.4597 22.7267 50.8185C22.9357 50.1772 23.4368 49.7948 23.4368 49.7948C23.6885 49.6452 23.9617 49.5597 24.2253 49.5383C23.4344 49.8898 22.9927 50.6451 23.2278 51.2863C23.4748 51.9632 24.3844 52.253 25.2608 51.9323C25.2727 51.9276 25.2845 51.9228 25.2964 51.9181C25.18 52.0392 25.047 52.1485 24.895 52.2387Z" fill="#2BC614"/>
<g opacity="0.7">
<path d="M24.8913 52.2388C24.7013 52.3528 24.5018 52.4265 24.2999 52.4668C24.9958 51.9823 25.2523 51.1178 24.8699 50.4742C24.5802 49.9897 24.0054 49.7641 23.4141 49.8496L23.4331 49.795C24.2121 49.3295 25.1692 49.5005 25.5729 50.175C25.9719 50.8495 25.6679 51.7733 24.8913 52.2388Z" fill="white"/>
</g>
<path d="M23.3786 49.7073C24.0317 49.1539 25.148 49.1729 25.7132 49.8736C26.326 50.6051 26.0362 51.7427 25.319 52.2818C24.5495 52.9397 23.1269 52.9112 22.6661 51.9113C22.6162 51.8021 22.7682 51.7118 22.8395 51.8068C23.1934 52.2486 23.7847 52.3578 24.2811 52.2153C25.68 51.8353 25.9626 49.895 24.2977 49.7453C24.0294 49.7263 23.7539 49.7833 23.4807 49.8831C23.3715 49.9235 23.2907 49.7762 23.3786 49.7073Z" fill="#371A45"/>
<path d="M24.149 51.6785C24.111 51.6476 24.1989 51.4291 24.1989 51.0705C23.883 50.8948 23.6479 50.871 23.6408 50.8235C23.6337 50.776 23.8806 50.6834 24.206 50.8259C24.2393 50.4744 24.4364 50.301 24.4744 50.3319C24.5124 50.3628 24.4245 50.5789 24.4245 50.9399C24.7404 51.1156 24.9755 51.1394 24.9827 51.1869C24.9898 51.2344 24.7452 51.327 24.4174 51.1845C24.3841 51.536 24.187 51.7094 24.149 51.6785Z" fill="#371A45"/>
<path d="M24.0264 37.9509C21.0196 38.6349 17.8276 38.6254 14.885 37.6992C13.8994 37.3904 12.9446 36.9724 12.0469 36.4594L13.3009 33.9514C13.4173 33.9752 13.5313 33.9965 13.6476 34.0155C14.3079 34.1272 14.9776 34.1818 15.6403 34.2649C17.887 34.5475 20.0934 35.1769 22.1501 36.1269C22.8697 36.4594 23.644 36.913 23.8482 37.6778L24.0264 37.9509Z" fill="#31C418"/>
<path d="M13.6494 34.1221L13.5235 37.1953L13.2955 42.7742C12.1911 42.7386 11.1651 42.7576 10.246 42.8549C9.61901 42.9214 9.04188 43.0212 8.51938 43.1637C8.28663 43.2254 8.12513 43.4344 8.10851 43.6743L8.03726 44.8262C8.03488 44.8666 8.06576 44.9022 8.10613 44.9093C8.39113 44.9449 8.65951 45.0019 8.91126 45.0803C9.22476 45.1777 9.50738 45.3107 9.76388 45.4841C10.037 45.6693 10.2246 45.9614 10.2769 46.2868C10.3196 46.5457 10.322 46.7879 10.2816 47.0017C10.2531 47.1537 10.1771 47.2891 10.0703 47.3936C9.96338 47.4981 9.82563 47.5693 9.67126 47.5954C9.60238 47.6073 9.58338 47.6952 9.64038 47.7356C9.90876 47.9256 10.1225 48.2747 10.2508 48.7188C10.2935 48.8637 10.3268 49.0204 10.3505 49.1843C10.3576 49.2271 10.36 49.2722 10.36 49.3149C10.3671 50.1699 10.075 51.0131 9.31738 51.6709C9.00863 51.9369 8.62863 52.1079 8.22726 52.1768C6.36288 52.4951 4.46526 52.5259 3.38226 52.0842C3.37751 52.0842 3.37513 52.0818 3.37038 52.0794C2.27551 51.4501 1.88363 49.9301 1.85988 47.9446C1.85988 47.8044 1.82426 47.6643 1.76488 47.5384C0.917009 45.7501 0.845758 43.7218 1.17351 41.5534C1.26138 40.9692 1.44901 40.4039 1.74826 39.8957C2.33013 38.9029 3.14476 38.0764 4.13038 37.3829C5.69551 36.2786 7.69051 35.5043 9.87551 34.9272C11.0891 34.6066 12.3598 34.3453 13.6494 34.1221Z" fill="#62ED2E"/>
<path d="M10.2589 49.344C10.2661 50.1918 9.97632 51.0278 9.22819 51.681C8.92419 51.947 8.54657 52.1156 8.14994 52.1821C6.30694 52.498 4.42832 52.5288 3.35719 52.0895C3.35244 52.0895 3.35007 52.0871 3.34532 52.0847C2.26232 51.4625 1.87519 49.9543 1.85144 47.9855C1.85144 47.8453 1.81582 47.7076 1.75644 47.5817C0.918069 45.81 0.846819 43.796 1.17219 41.6466C1.26007 41.0671 1.44532 40.5066 1.74219 40.0031C2.31932 39.0198 3.12444 38.2005 4.09819 37.5117C3.72532 37.963 3.28119 38.3667 2.95107 38.8536C2.10557 40.1028 2.11507 41.744 2.3787 43.2283C2.64232 44.7151 3.12919 46.1757 3.12919 47.6862C3.12919 48.1137 3.0912 48.5436 3.17432 48.9616C3.35244 49.8641 4.09107 50.5813 4.93894 50.9305C5.78682 51.2796 6.73444 51.3033 7.64882 51.2226C8.17132 51.1751 8.70332 51.0896 9.15694 50.8236C9.85757 50.4103 10.2281 49.553 10.1521 48.7502C10.1948 48.8951 10.2281 49.0495 10.2518 49.2133C10.2566 49.2561 10.2589 49.3012 10.2589 49.344Z" fill="#31C418"/>
<path d="M10.7181 42.6768C10.5495 42.6792 10.3832 42.7528 10.2455 42.8549C9.61845 42.9214 9.04133 43.0212 8.51883 43.1637C8.28608 43.2254 8.12458 43.4344 8.10795 43.6743L8.0367 44.8262C8.03433 44.8666 8.06521 44.9022 8.10558 44.9093C8.39058 44.9449 8.65896 45.0019 8.91071 45.0803C8.87271 45.1064 8.82283 45.1041 8.7777 45.0993C8.26233 45.0518 7.7422 44.7336 7.2577 44.9164L7.19358 44.8618C7.15321 44.5483 7.1152 44.2301 7.1627 43.9189C7.2102 43.6054 7.35746 43.2967 7.61871 43.1186C7.77071 43.0164 7.95121 42.9642 8.12933 42.9191C8.97483 42.7124 9.8512 42.6293 10.7181 42.6768Z" fill="#31C418"/>
<path d="M13.6489 34.1221L13.523 37.1953C12.2001 36.6277 10.9604 35.8653 9.875 34.9272C11.0886 34.6066 12.3592 34.3453 13.6489 34.1221Z" fill="#31C418"/>
<path d="M13.6966 34.4215C9.6354 35.1768 4.3059 36.2764 2.00927 40.0455C1.5034 40.8744 1.41077 41.8695 1.32765 42.8243C1.21365 44.2801 1.33715 45.7954 1.9119 47.1396C1.97602 47.294 2.11615 47.5648 2.13752 47.7286C2.14702 47.788 2.1589 47.8545 2.1589 47.9139C2.17077 48.6596 2.2254 49.4291 2.41302 50.144C2.57452 50.8138 2.9854 51.5263 3.49602 51.8089C4.15627 52.0606 4.8569 52.1081 5.5694 52.1176C6.30802 52.12 7.0514 52.0535 7.78527 51.9443C8.22465 51.8873 8.70203 51.7946 9.04878 51.5025C9.7494 50.9468 10.1579 50.0086 10.0296 49.1133C9.95602 48.7071 9.78977 48.2345 9.46915 47.9899C9.36227 47.9186 9.28865 47.7809 9.30052 47.6503C9.30527 47.4959 9.4264 47.3439 9.57602 47.3059C9.5784 47.3035 9.66152 47.2893 9.66865 47.2845C10.032 47.1871 10.0249 46.7501 9.98927 46.4414C9.9679 46.078 9.73515 45.7883 9.41928 45.6291C9.0179 45.3988 8.55953 45.2753 8.0964 45.2135C8.07503 45.2088 8.09402 45.2183 7.99427 45.1921C7.84465 45.1446 7.7354 44.9974 7.73302 44.8406C7.74727 44.539 7.7734 44.1258 7.78527 43.8218L7.79003 43.7268L7.7924 43.6793C7.79715 43.2731 8.11065 42.9026 8.5144 42.8338C9.58315 42.5654 10.6852 42.5155 11.7777 42.5393C12.2883 42.5606 12.7965 42.5511 13.3 42.6461C13.4378 42.6746 13.4354 42.8813 13.2929 42.9026C12.0484 42.9881 10.7968 43.0071 9.57128 43.2494C9.27203 43.3064 8.9704 43.3729 8.67828 43.4536C8.5524 43.475 8.44077 43.5486 8.42652 43.684C8.42415 43.703 8.42178 43.7481 8.4194 43.7671C8.39328 44.0783 8.36477 44.4939 8.3434 44.805C8.34102 44.8145 8.34102 44.8311 8.34102 44.8406C8.35052 44.7623 8.28165 44.6411 8.18665 44.6174C8.11777 44.6008 8.16765 44.6126 8.17715 44.6126C8.85165 44.7053 9.54515 44.9119 10.0843 45.3536C10.4405 45.6553 10.6068 46.1279 10.6115 46.5863C10.6614 47.1943 10.3693 47.7856 9.72565 47.8973C9.94653 47.8521 9.95128 47.5861 9.83253 47.503C10.3242 47.883 10.5213 48.4435 10.6329 49.0088C10.8015 50.1179 10.3075 51.2864 9.42878 51.9823C8.7804 52.5119 7.90877 52.5428 7.1179 52.6449C5.95652 52.7541 4.7619 52.8064 3.61715 52.4905C3.51977 52.4691 3.41765 52.424 3.32265 52.3908L3.27277 52.3718C3.26802 52.3718 3.20865 52.3409 3.2134 52.3433C2.71227 52.0535 2.33465 51.5785 2.1019 51.0631C1.66252 50.0941 1.5794 49.0206 1.55565 47.978C1.55565 47.8878 1.5414 47.7999 1.50815 47.7168C0.771899 46.1801 0.593773 44.4535 0.729148 42.7791C0.814648 41.7365 0.931022 40.6559 1.49152 39.7368C2.28477 38.3806 3.52927 37.3214 4.87115 36.5519C7.55015 35.0343 10.6068 34.3574 13.5969 33.823C13.9864 33.7684 14.0933 34.3384 13.6966 34.4215Z" fill="#371A45"/>
<path d="M9.60845 47.9114C9.07883 47.8947 8.99095 48.5835 9.05983 49.0181C9.06933 49.087 9.02183 49.1487 8.95533 49.1582C8.9007 49.1654 8.85083 49.1369 8.82708 49.0917C8.75108 48.9421 8.69645 48.7782 8.67033 48.6049C8.5492 47.9921 8.9387 47.263 9.6417 47.3058C10.0645 47.3129 10.0336 47.9422 9.60845 47.9114Z" fill="#371A45"/>
<path d="M8.92576 45.4084L8.48401 45.2826C8.02088 45.1567 7.56963 45.1424 7.08988 45.0593C6.96163 45.0569 6.91888 44.8954 7.04238 44.8456C7.71451 44.6199 8.46976 44.6342 9.15376 44.8456C9.31289 44.8931 9.40314 45.0617 9.35564 45.2208C9.30101 45.4037 9.09676 45.4797 8.92576 45.4084Z" fill="#371A45"/>
<g opacity="0.6">
<path d="M9.54588 46.2405C9.59843 46.0523 9.22009 45.7821 8.70083 45.6372C8.18157 45.4922 7.71802 45.5273 7.66547 45.7155C7.61292 45.9038 7.99126 46.1739 8.51052 46.3189C9.02978 46.4638 9.49332 46.4288 9.54588 46.2405Z" fill="white"/>
</g>
<path d="M6.82918 31.4595C9.17093 33.2953 11.9236 34.7108 14.6192 35.5825L19.0106 36.9695C25.1713 38.2448 29.3774 36.4018 32.0826 33.2146C35.2223 29.512 36.3338 23.9925 36.1177 19.4372C35.6284 9.17483 27.7339 0.351706 17.4739 0.840956C7.21155 1.33021 0.191055 10.8635 0.680305 21.1235C0.875055 25.2132 3.41156 28.7828 6.82918 31.4595Z" fill="#62ED2E"/>
<path d="M6.82812 31.46C9.16987 33.2958 11.9225 34.7113 14.6181 35.583L19.0095 36.97C25.1702 38.2453 29.3764 36.4023 32.0815 33.2151C30.495 34.2506 27.512 35.7017 23.2299 35.716C18.354 35.7326 11.6042 34.0416 6.82812 31.46Z" fill="#31C418"/>
<g opacity="0.7">
<path d="M33.7571 10.6999C30.6078 4.6745 24.6133 0.504003 17.4741 0.846003C8.18781 1.28775 1.55681 9.13713 0.742188 18.2286C1.73256 13.2031 4.43531 8.71438 8.34931 5.80738C8.05956 6.22538 7.95744 6.622 8.09281 6.94263C8.47044 7.838 10.5676 7.81188 12.7739 6.88088C14.9803 5.94988 16.4623 4.46788 16.0823 3.57013C15.8923 3.12125 15.2772 2.90513 14.4317 2.91463C15.3983 2.67 16.4029 2.5085 17.4384 2.4325C24.2428 1.93613 30.1447 5.37988 33.7571 10.6999Z" fill="white"/>
</g>
<path d="M14.5604 35.7585C13.4038 35.6397 12.3445 35.1386 11.3019 34.6589C7.1694 32.6852 3.29815 29.6429 1.34353 25.4035C0.331777 23.2589 0.151279 20.9076 0.338904 18.5706C0.828154 10.5312 6.39278 2.62486 14.4963 0.876855C26.9389 -1.91139 37.0398 9.26773 36.5196 21.271C36.3439 26.9235 34.2943 33.2505 29.112 36.1955C26.9437 37.4234 24.4 37.8722 21.9372 37.7297C20.923 37.6632 19.9089 37.5944 18.966 37.1526C18.7808 37.0647 18.8592 36.7845 19.0563 36.794C20.1749 36.7964 21.2745 36.9792 22.3908 37.0006C31.3612 37.2832 35.5127 29.2296 35.7454 21.2472C36.1848 12.3909 30.2972 3.10461 21.2627 1.47061C9.4779 -0.67877 0.417277 9.82348 1.05853 21.1285C1.3174 25.9355 4.86328 29.7972 8.7179 32.3337C10.1144 33.2552 11.6083 34.0319 13.1568 34.6684C13.6745 34.894 14.1852 35.122 14.6768 35.4117C14.8478 35.5067 14.7552 35.7822 14.5604 35.7585Z" fill="#371A45"/>
<path d="M35.8828 16.7585C36.8637 17.9983 37.6 21.2971 35.7166 24.8478C33.8332 28.3984 30.1995 28.8496 29.1188 27.351C28.29 26.2015 27.72 23.0665 29.6033 19.5183C31.4891 15.9676 34.8806 15.4879 35.8828 16.7585Z" fill="#371A45"/>
<g opacity="0.5">
<path d="M28.5253 25.9307C28.523 24.5674 28.8531 22.9144 29.7865 21.1593C31.6698 17.6087 35.0613 17.1289 36.0636 18.3972C36.3937 18.8152 36.6977 19.4707 36.883 20.2901C36.8711 18.6988 36.4103 17.4258 35.8807 16.7561C34.8761 15.4854 31.487 15.9676 29.6036 19.5158C28.2546 22.0618 28.1643 24.3917 28.5253 25.9307Z" fill="white"/>
</g>
<g opacity="0.35">
<path d="M29.1192 27.3534C30.1998 28.8496 33.8336 28.3984 35.7169 24.8501C37.0944 22.2543 37.0707 19.7914 36.5743 18.1716C36.5054 19.3924 36.1706 20.7675 35.4201 22.183C33.5367 25.7336 29.9029 26.1849 28.8223 24.6863C28.6513 24.4488 28.4898 24.1258 28.3616 23.7315C28.2547 25.3916 28.6442 26.6955 29.1192 27.3534Z" fill="#111A28"/>
</g>
<path d="M13.0954 19.3688C12.0979 20.7986 11.7892 24.1996 14.8197 27.2823C17.8502 30.3651 22.4909 30.0302 23.5644 28.3273C24.3909 27.0211 24.5168 23.8172 21.4887 20.7321C18.4605 17.6517 14.1167 17.9058 13.0954 19.3688Z" fill="#371A45"/>
<g opacity="0.5">
<path d="M12.5072 23.0475C12.5832 22.1996 12.8421 21.4871 13.1793 21.0026C14.2006 19.5396 18.5444 19.2831 21.5726 22.3683C23.0736 23.8978 23.8003 25.4558 24.0497 26.7976C24.2112 25.2064 23.6602 22.9406 21.4942 20.7343C18.4661 17.6515 14.1222 17.9056 13.1009 19.3686C12.5642 20.1405 12.2269 21.4848 12.5072 23.0475Z" fill="white"/>
</g>
<g opacity="0.35">
<path d="M14.8255 27.2845C17.8537 30.3673 22.4944 30.0324 23.5703 28.3295C24.0405 27.5838 24.2852 26.2181 23.8434 24.6079C23.7532 25.0235 23.613 25.375 23.4444 25.6458C22.3685 27.3486 17.7278 27.6835 14.6997 24.6008C13.4932 23.3705 12.8139 22.0904 12.5004 20.9053C12.1798 22.6058 12.612 25.0283 14.8255 27.2845Z" fill="#111A28"/>
</g>
<path d="M30.9932 28.5268C30.0503 28.5268 29.2689 28.1848 28.8224 27.5673C27.9532 26.3608 27.3072 23.0643 29.2808 19.3451C30.5775 16.9012 32.5488 15.8942 33.9595 15.7659C34.9167 15.6804 35.7218 15.9583 36.173 16.5283C37.1848 17.8108 38.0445 21.2474 36.0448 25.0189C34.7575 27.4438 32.7364 28.4152 31.271 28.5149C31.176 28.5244 31.0834 28.5268 30.9932 28.5268ZM34.2897 16.4879C34.2042 16.4879 34.1139 16.4927 34.0237 16.4998C32.8053 16.6091 31.0905 17.5068 29.9292 19.6894C28.1123 23.1118 28.6514 26.0734 29.4185 27.1351C29.751 27.5934 30.4232 27.8357 31.2188 27.7811C32.4847 27.6932 34.2445 26.8311 35.3917 24.6746C37.1302 21.3971 36.5578 18.2051 35.5935 16.9867C35.3418 16.6684 34.8668 16.4879 34.2897 16.4879Z" fill="#371A45"/>
<path d="M20.3245 29.9776C18.5813 29.9776 16.3322 29.3458 14.558 27.5408C11.3162 24.2396 11.7555 20.6462 12.7958 19.1571C13.2494 18.5063 14.2018 18.0741 15.4083 17.9719C17.6598 17.7843 20.03 18.7201 21.7543 20.4752C24.951 23.7289 24.7539 27.1394 23.8799 28.5241C23.4025 29.2817 22.3647 29.7971 21.037 29.9396C20.8114 29.9657 20.5739 29.9776 20.3245 29.9776ZM13.4014 19.5798C12.4324 20.9715 12.3113 24.2015 15.0853 27.0254C16.9283 28.9017 19.327 29.3838 20.9587 29.208C22.0464 29.0917 22.9038 28.6903 23.2553 28.1322C24.0082 26.9376 24.1245 23.9427 21.227 20.9929C19.3769 19.1072 17.0375 18.5776 15.47 18.7082C14.4987 18.7913 13.7244 19.1167 13.4014 19.5798Z" fill="#371A45"/>
<path d="M27.3251 28.4723C27.4426 28.2144 27.4217 27.9525 27.2784 27.8872C27.1352 27.822 26.9238 27.9781 26.8064 28.236C26.689 28.4938 26.7099 28.7558 26.8531 28.821C26.9964 28.8863 27.2077 28.7301 27.3251 28.4723Z" fill="#371A45"/>
<path d="M26.4061 28.8659C26.5342 28.7745 26.5047 28.5134 26.3401 28.2828C26.1755 28.0521 25.9382 27.9393 25.8101 28.0307C25.682 28.1222 25.7115 28.3832 25.8761 28.6139C26.0407 28.8445 26.278 28.9573 26.4061 28.8659Z" fill="#371A45"/>
<path d="M20.8089 14.165L18.4031 15.5805C18.1276 14.6851 17.8354 13.9536 17.5338 13.367C16.3273 11.0062 14.9664 10.9183 13.9119 11.4385C12.4751 12.1462 12.2898 14.6352 12.2898 14.6352C13.5058 15.9605 11.9787 17.2525 10.7674 17.0031C9.72007 16.787 9.22132 15.1435 10.5608 14.279C10.5727 13.7802 10.8814 9.43871 13.8169 8.87346C16.7121 8.31771 18.6643 10.3317 19.7568 12.0346C20.4551 13.1271 20.7994 14.0913 20.8089 14.165Z" fill="#62ED2E"/>
<g opacity="0.5">
<path d="M20.4757 13.3407C20.4329 13.2742 20.3902 13.2053 20.3474 13.1388C19.1956 11.3409 17.1412 9.27466 14.0727 9.79953C11.5338 10.2342 11.2844 14.2099 11.2702 14.7372C10.4081 15.1932 10.0423 16.022 9.91169 16.3189C9.59819 15.7062 9.70269 14.8322 10.5624 14.2812C10.5743 13.7824 10.8831 9.44091 13.8186 8.87566C16.7137 8.31991 18.6659 10.3339 19.7584 12.0368C20.0648 12.5165 20.3023 12.9725 20.4757 13.3407Z" fill="white"/>
</g>
<path d="M20.8088 14.165C20.8088 14.165 20.6544 14.9179 19.8302 15.3359C19.0061 15.7539 18.4005 15.5805 18.4005 15.5805C18.125 14.6852 17.8329 13.9537 17.5312 13.367C18.3981 13.5499 19.6877 13.5784 19.7542 12.0347C20.4549 13.1272 20.7993 14.0914 20.8088 14.165Z" fill="#31C418"/>
<path d="M20.6262 14.1889C19.8899 12.4432 18.6811 10.6501 16.9735 9.7001C15.8738 9.09923 14.5153 8.9591 13.3444 9.4151C12.7982 9.6526 12.3517 10.0872 12.0144 10.6121C11.4991 11.4054 11.2141 12.3839 11.0478 13.3267C10.9956 13.6402 10.9504 13.9799 10.9314 14.291C10.9267 14.4169 10.8602 14.5285 10.7628 14.5926C10.0052 15.0343 9.85557 16.1245 10.6559 16.5805C11.1808 16.818 11.9076 16.5472 12.2163 16.0936C12.5061 15.6922 12.3303 15.2149 12.0168 14.8871C11.9456 14.8087 11.9147 14.7066 11.9194 14.6092C12.0334 13.4099 12.3802 12.125 13.3706 11.3389C13.9976 10.8781 14.8573 10.6976 15.6054 10.9494C16.5744 11.2819 17.1753 12.125 17.6242 12.9681C18.0564 13.7899 18.3343 14.6591 18.5742 15.5307C18.6312 15.7587 18.3011 15.8609 18.2227 15.64C17.7762 14.4169 17.2798 13.1652 16.3844 12.2224C15.6648 11.4481 14.6744 11.3032 13.8242 11.935C13.0618 12.5857 12.8006 13.6711 12.6533 14.6638L12.5583 14.386C13.8646 15.7587 12.594 17.5186 10.8934 17.3951C10.1002 17.3524 9.45895 16.6256 9.39007 15.8585C9.28557 15.1056 9.73682 14.3504 10.3591 13.9704L10.1904 14.272C10.1976 13.8991 10.2356 13.5571 10.2902 13.2056C10.5918 11.08 11.7081 8.64085 14.1353 8.45323C16.8025 8.12073 18.9328 10.0089 20.1441 12.1986C20.4718 12.79 20.7639 13.4027 20.9682 14.0487C20.9729 14.0772 20.9872 14.1129 20.9896 14.1437C21.0157 14.3836 20.6618 14.4287 20.6262 14.1889Z" fill="#371A45"/>
<path d="M44.7637 11.0395C43.9776 11.8493 42.7307 11.0822 42.6001 9.97545C42.3222 9.63108 36.5794 5.10195 33.8957 10.8661C33.5846 11.5358 33.3138 12.3457 33.0977 13.3171L30.5944 12.8278C30.5778 12.7518 30.8581 11.619 31.5611 10.2818C32.4113 8.6692 33.8791 6.76445 36.1899 6.06383C39.7429 4.99033 43.4551 8.50533 43.7971 8.7927C44.8326 8.91383 45.7493 10.023 44.7637 11.0395Z" fill="#62ED2E"/>
<path d="M44.7637 11.0395C43.9776 11.8493 42.7307 11.0822 42.6001 9.97545C42.3222 9.63108 36.5794 5.10195 33.8957 10.8661C33.5846 11.5358 33.3138 12.3457 33.0977 13.3171L30.5944 12.8278C30.5778 12.7518 30.8581 11.619 31.5611 10.2818C32.4113 8.6692 33.8791 6.76445 36.1899 6.06383C39.7429 4.99033 43.4551 8.50533 43.7971 8.7927C44.8326 8.91383 45.7493 10.023 44.7637 11.0395Z" fill="#62ED2E"/>
<g opacity="0.5">
<path d="M45.1696 10.3178C44.8941 10.0684 44.0319 9.39151 43.4691 9.62901C43.1009 9.32026 39.7712 5.75064 35.9379 6.90964C33.7197 7.57939 32.2211 9.28226 31.2734 10.8735C31.3613 10.6835 31.4587 10.4864 31.5656 10.2845C32.4158 8.67189 33.8836 6.76714 36.1944 6.06651C39.7474 4.99301 43.4596 8.50801 43.8016 8.79539C44.5901 8.88801 45.3097 9.55539 45.1696 10.3178Z" fill="white"/>
</g>
<path d="M33.8957 10.8659C33.5846 11.5357 33.3138 12.3455 33.0977 13.3169C33.0977 13.3169 32.3971 13.7373 31.6109 13.571C30.8248 13.4048 30.5944 12.8253 30.5944 12.8253C30.5778 12.7493 30.8581 11.6164 31.5611 10.2793C31.6584 11.31 32.2854 12.0795 33.8957 10.8659Z" fill="#31C418"/>
<path d="M30.4109 12.8681C30.4014 12.7755 30.4086 12.7897 30.4133 12.7304C30.4157 12.6924 30.4489 12.5546 30.4537 12.5119C31.2992 9.04435 34.0969 5.25148 38.0276 5.4961C40.2458 5.6766 42.1981 6.90685 43.8297 8.33423L44.0292 8.51473L43.8344 8.4316C45.2476 8.59785 46.1501 10.1107 45.0694 11.2484C44.6301 11.7804 43.8107 11.8967 43.2264 11.5357C42.6683 11.2175 42.3049 10.6451 42.2289 10.0205L42.3073 10.2105C42.3097 10.2176 42.2978 10.2034 42.2978 10.2034L42.2693 10.1796L42.2028 10.1226C40.7089 8.98498 38.6023 7.92098 36.7023 8.47673C34.6432 9.1536 33.7882 11.417 33.2704 13.3621C33.2443 13.4619 33.1446 13.5212 33.0472 13.4951C32.9522 13.4714 32.8928 13.3764 32.9118 13.2814C33.1232 12.2031 33.4224 11.1225 33.9687 10.1297C35.6217 7.05173 38.7306 7.0731 41.4666 8.6976C41.9558 8.98973 42.4379 9.30798 42.8464 9.70935C42.9058 9.7711 42.9557 9.85185 42.9604 9.93973C43.0032 10.3292 43.2526 10.7092 43.5851 10.8969C44.1171 11.2294 44.6704 10.7924 44.7939 10.2651C44.8984 9.6856 44.2976 9.2296 43.7466 9.16785C43.6017 9.16548 43.4426 8.9826 43.3381 8.90185C42.3263 8.04685 41.1982 7.27973 39.9727 6.7786C39.0061 6.3891 37.9801 6.15635 36.9517 6.2941C34.4698 6.6646 32.6268 8.72135 31.5462 10.8779C31.2374 11.493 30.9572 12.1342 30.7791 12.7992L30.7743 12.823C30.7719 12.8254 30.7767 12.842 30.7696 12.7969C30.8218 13.0249 30.4679 13.1056 30.4109 12.8681Z" fill="#371A45"/>
<path d="M24.0482 18.3686C24.0649 19.1619 23.3452 19.682 22.5971 19.6131C21.5877 19.5371 20.7494 18.9173 19.9442 18.3948C19.0465 17.7868 18.1796 17.2358 17.1322 17.0101C16.795 16.9389 16.4459 16.8938 16.092 16.8819C15.9732 16.8771 15.8782 16.7774 15.883 16.6586C15.8877 16.5518 15.9661 16.4663 16.0682 16.452C17.612 16.2003 19.1439 16.8771 20.3931 17.6989C20.9869 18.067 21.5877 18.4613 22.229 18.6869C22.8109 18.9054 23.3571 18.9149 23.6184 18.3188L23.6659 18.2499C23.7775 18.0836 24.0506 18.1715 24.0482 18.3686Z" fill="#371A45"/>
<path d="M27.2857 17.7374C27.4044 17.887 27.6134 18.0984 27.8082 18.0794C28.2404 18.0295 28.6632 17.5118 29.0147 17.1722C29.6987 16.4597 30.3756 15.7424 31.2591 15.2318C31.8504 14.8874 32.5416 14.6737 33.2232 14.676C33.3419 14.676 33.4393 14.7734 33.4393 14.8922C33.4393 14.9967 33.3633 15.0845 33.2636 15.1035C32.0333 15.3387 31.1189 16.158 30.2829 17.0582C29.9552 17.4025 29.4469 17.9797 29.1002 18.2932C28.3402 19.0318 27.1361 19.0959 26.8772 17.8752C26.8463 17.6258 27.1503 17.5355 27.2857 17.7374Z" fill="#371A45"/>
<path d="M22.6119 30.9158C23.5429 31.7993 24.0061 32.1294 25.1556 31.3338C25.3574 31.2055 25.6068 31.4478 25.4881 31.652C25.4049 31.7969 25.3147 31.9536 25.1959 32.0771C24.5143 32.9036 23.2793 32.8728 22.6119 32.0724C22.3982 31.8563 21.8852 30.9063 22.4053 30.8303C22.4884 30.8255 22.5597 30.8611 22.6119 30.9158Z" fill="#371A45"/>
</svg>
