<svg width="66" height="77" viewBox="0 0 66 77" fill="none" xmlns="http://www.w3.org/2000/svg">
<path d="M11.3655 70.9074C11.3655 70.9074 8.92405 68.6773 4.5968 73.6838C4.39255 73.9189 4.45667 74.2823 4.72742 74.4319C6.18805 75.2442 10.3847 77.2653 12.0258 74.6932L11.3655 70.9074Z" fill="#E81818"/>
<path d="M11.4755 71.4512C11.4755 71.4512 9.74416 69.8695 6.67329 73.4344C6.53791 73.5911 6.58066 73.831 6.76116 73.9307C7.77291 74.496 10.7749 75.959 11.9434 74.1278L11.4755 71.4512Z" fill="#E7A900"/>
<path d="M11.6933 71.8647C11.6933 71.8647 10.5248 70.796 8.45141 73.2019C8.36116 73.3064 8.38966 73.4702 8.51079 73.5367C9.19241 73.9191 11.2183 74.9047 12.0092 73.6697L11.6933 71.8647Z" fill="#FFFD01"/>
<path d="M9.4932 76.3271C7.67395 76.3271 5.6362 75.3486 4.55558 74.7501C4.32995 74.6242 4.17558 74.4081 4.13045 74.1539C4.08533 73.8998 4.15658 73.6409 4.3252 73.4462C6.1872 71.2921 7.95895 70.1497 9.5882 70.0547C10.8778 69.9787 11.5856 70.6104 11.6141 70.6389C11.6735 70.6936 11.7138 70.7648 11.7257 70.8456L12.386 74.6337C12.4026 74.7239 12.3836 74.8142 12.3337 74.8926C11.6568 75.9542 10.6166 76.3271 9.4932 76.3271ZM9.80433 70.7743C9.7402 70.7743 9.67133 70.7767 9.60245 70.7814C8.62633 70.8479 7.0137 71.4488 4.8762 73.9212C4.84058 73.9616 4.84295 74.0043 4.8477 74.0281C4.85245 74.0494 4.86433 74.0898 4.90945 74.1159C6.1112 74.7833 10.0988 76.7641 11.6497 74.6123L11.0393 71.1092C10.866 70.9952 10.4503 70.7743 9.80433 70.7743Z" fill="#371A45"/>
<path d="M14.3652 73.9383C13.5719 74.779 12.4675 74.9904 12.4675 74.9904C12.4675 74.9904 11.8619 74.2803 11.5437 72.613C11.2254 70.9458 11.5294 70.0623 11.5294 70.0623C11.5294 70.0623 12.6338 69.8509 13.6812 70.3425" fill="#E2E8E8"/>
<path d="M12.4611 75.368C12.3518 75.368 12.245 75.3205 12.1737 75.235C12.1452 75.2018 11.4992 74.4275 11.1667 72.6819C10.8342 70.9363 11.1525 69.9791 11.1643 69.9388C11.2095 69.8105 11.3187 69.7155 11.4517 69.6894C11.5016 69.6799 12.6891 69.4614 13.8338 69.9981C14.0238 70.086 14.1046 70.3116 14.0167 70.5016C13.9288 70.6916 13.7032 70.7724 13.5132 70.6845C12.8672 70.3829 12.1832 70.3805 11.8317 70.4066C11.7723 70.7463 11.7058 71.4706 11.9101 72.5418C12.1143 73.6105 12.4421 74.2589 12.6226 74.5558C12.9575 74.4513 13.594 74.1971 14.0856 73.6794C14.2281 73.5274 14.468 73.5203 14.62 73.6651C14.772 73.8076 14.7791 74.0475 14.6342 74.1995C13.765 75.1186 12.5822 75.3538 12.5323 75.3633C12.5086 75.3656 12.4848 75.368 12.4611 75.368Z" fill="#371A45"/>
<path d="M15.2724 75.1492C13.3273 75.0875 12.9639 72.8763 12.8642 72.3586C12.7668 71.8409 12.2918 69.6511 14.0778 68.8792C15.8852 68.0979 24.1003 67.1787 24.6584 70.1142C25.2166 73.0473 17.2413 75.2133 15.2724 75.1492Z" fill="#E81818"/>
<g opacity="0.7">
<path d="M12.7825 71.8694C12.8228 71.0857 13.1102 70.1927 14.1196 69.7557C15.8795 68.9933 23.7288 68.1027 24.6432 70.7745C24.6955 70.5584 24.7026 70.3375 24.6598 70.1119C24.1017 67.1788 15.8866 68.0955 14.0792 68.8769C12.6495 69.4968 12.6661 71.0215 12.7825 71.8694Z" fill="white"/>
</g>
<g opacity="0.3">
<path d="M15.1482 74.4084C13.6139 74.3586 13.0629 72.9739 12.8516 72.1379C13.1556 72.3469 13.5308 72.4871 13.9987 72.5013C15.6968 72.5583 21.8647 70.9528 23.1686 68.6277C23.8359 68.8913 24.3347 69.2689 24.5579 69.7891C24.3418 72.5084 17.0221 74.4702 15.1482 74.4084Z" fill="#371A45"/>
</g>
<path d="M15.365 75.5296C15.327 75.5296 15.2938 75.5296 15.2582 75.5272C14.2559 75.494 12.9615 74.9382 12.4984 72.473L12.4818 72.3875C12.0068 69.9222 13.0043 68.9295 13.9258 68.5305C15.555 67.8251 21.2265 67.1411 23.7464 68.4758C24.4732 68.8606 24.903 69.3878 25.0289 70.041C25.1524 70.6965 24.9458 71.3448 24.4114 71.9695C22.5945 74.0951 17.2437 75.5296 15.365 75.5296ZM19.5165 68.4806C17.3458 68.4806 15.0824 68.8582 14.2274 69.2263C13.2442 69.6515 12.9164 70.6395 13.2275 72.245L13.2442 72.3328C13.5458 73.9383 14.2132 74.7363 15.2843 74.772C16.8565 74.8266 22.1837 73.4135 23.8367 71.4802C24.219 71.0337 24.3663 70.6086 24.2855 70.1858C24.2048 69.7631 23.9127 69.4235 23.3925 69.148C22.4734 68.6611 21.0175 68.4806 19.5165 68.4806Z" fill="#371A45"/>
<path d="M18.2659 74.931C18.1638 74.931 18.0664 74.8764 18.0165 74.7814C16.9288 72.7626 16.4965 70.4921 16.7649 68.2145C16.7649 68.2097 16.7649 68.205 16.7673 68.2002C16.7934 68.0459 16.9383 67.939 17.095 67.9675C17.247 67.9936 17.3492 68.1337 17.3302 68.2834C17.076 70.4422 17.4869 72.5964 18.5177 74.5106C18.5913 74.6484 18.5414 74.8217 18.4013 74.8954C18.3585 74.9191 18.311 74.931 18.2659 74.931Z" fill="#371A45"/>
<path d="M8.92023 56.9589C8.92023 56.9589 6.47873 54.7288 2.15148 59.7353C1.94723 59.9704 2.01136 60.3338 2.28211 60.4834C3.74273 61.2957 7.93936 63.3168 9.58048 60.7447L8.92023 56.9589Z" fill="#E81818"/>
<path d="M9.03022 57.5049C9.03022 57.5049 7.29885 55.9232 4.22797 59.4881C4.0926 59.6448 4.13535 59.8847 4.31585 59.9844C5.3276 60.5497 8.3296 62.0127 9.4981 60.1816L9.03022 57.5049Z" fill="#E7A900"/>
<path d="M9.24797 57.9158C9.24797 57.9158 8.07947 56.847 6.0061 59.2529C5.91585 59.3574 5.94435 59.5213 6.06547 59.5878C6.7471 59.9701 8.77298 60.9558 9.56385 59.7208L9.24797 57.9158Z" fill="#FFFD01"/>
<path d="M7.04789 62.3808C5.22864 62.3808 3.19089 61.4023 2.11027 60.8038C1.88464 60.6779 1.73026 60.4618 1.68514 60.2076C1.64001 59.9535 1.71127 59.6946 1.87989 59.4999C3.74189 57.3458 5.51364 56.2034 7.14289 56.1084C8.43251 56.0324 9.14026 56.6641 9.16876 56.6926C9.22814 56.7473 9.26851 56.8185 9.28039 56.8993L9.94064 60.6874C9.95726 60.7776 9.93827 60.8679 9.88839 60.9463C9.21152 62.0055 8.17126 62.3808 7.04789 62.3808ZM7.35902 56.8256C7.29489 56.8256 7.22602 56.828 7.15714 56.8328C6.18102 56.8993 4.56839 57.5001 2.43089 59.9725C2.39527 60.0129 2.39764 60.0556 2.40239 60.0794C2.40714 60.1008 2.41901 60.1411 2.46414 60.1673C3.66589 60.8346 7.65351 62.8154 9.20439 60.6636L8.59402 57.1605C8.42064 57.0465 8.00502 56.8256 7.35902 56.8256Z" fill="#371A45"/>
<path d="M11.9121 59.9895C11.1188 60.8303 10.0144 61.0417 10.0144 61.0417C10.0144 61.0417 9.4088 60.3315 9.09055 58.6643C8.7723 56.997 9.0763 56.1135 9.0763 56.1135C9.0763 56.1135 10.1807 55.9022 11.228 56.3938" fill="#E2E8E8"/>
<path d="M10.0158 61.4193C9.90653 61.4193 9.79965 61.3718 9.7284 61.2863C9.6999 61.253 9.0539 60.4788 8.7214 58.7332C8.3889 56.9875 8.70715 56.028 8.71903 55.99C8.76415 55.8618 8.8734 55.7668 9.0064 55.7407C9.05628 55.7312 10.2438 55.5127 11.3885 56.0494C11.5785 56.1373 11.6593 56.3629 11.5714 56.5529C11.4835 56.7429 11.2579 56.8237 11.0679 56.7358C10.4219 56.4342 9.7379 56.4318 9.3864 56.4579C9.32703 56.7975 9.26053 57.5243 9.46478 58.593C9.66903 59.6618 9.99678 60.3102 10.1773 60.607C10.5122 60.5025 11.1487 60.2484 11.6403 59.7307C11.7828 59.5787 12.0227 59.5715 12.1747 59.7164C12.3267 59.8589 12.3338 60.0988 12.1889 60.2508C11.3197 61.1699 10.1369 61.405 10.087 61.4145C10.0633 61.4169 10.0395 61.4193 10.0158 61.4193Z" fill="#371A45"/>
<path d="M12.8271 61.2005C10.882 61.1387 10.5186 58.9276 10.4189 58.4099C10.3215 57.8921 9.84651 55.7024 11.6325 54.9305C13.4399 54.1491 21.655 53.23 22.2131 56.1655C22.7736 59.0986 14.796 61.2646 12.8271 61.2005Z" fill="#E81818"/>
<g opacity="0.7">
<path d="M10.3371 57.9234C10.3775 57.1396 10.6649 56.2466 11.6743 55.8096C13.4341 55.0472 21.2835 54.1566 22.1979 56.8285C22.2501 56.6124 22.2573 56.3915 22.2145 56.1659C21.6564 53.2327 13.4413 54.1495 11.6339 54.9309C10.2041 55.5507 10.2208 57.0731 10.3371 57.9234Z" fill="white"/>
</g>
<g opacity="0.3">
<path d="M12.7029 60.4597C11.1686 60.4098 10.6176 59.0252 10.4062 58.1892C10.7102 58.3982 11.0855 58.5383 11.5534 58.5526C13.2515 58.6096 19.4194 57.0041 20.7232 54.679C21.3906 54.9426 21.8894 55.3202 22.1126 55.8403C21.8965 58.5597 14.5767 60.5215 12.7029 60.4597Z" fill="#371A45"/>
</g>
<path d="M12.9197 61.5806C12.8817 61.5806 12.8485 61.5806 12.8129 61.5782C11.8106 61.545 10.5162 60.9892 10.0531 58.5216L10.0365 58.4385C9.56148 55.9732 10.559 54.9805 11.4805 54.5815C13.1097 53.8761 18.7812 53.1921 21.3011 54.5269C22.0279 54.9116 22.4577 55.4389 22.5836 56.092C22.7071 56.7475 22.5005 57.3959 21.9661 58.0205C20.1492 60.1485 14.7984 61.5806 12.9197 61.5806ZM17.0712 54.5316C14.9005 54.5316 12.6371 54.9092 11.7821 55.2774C10.7989 55.7025 10.4711 56.6905 10.7822 58.296L10.7989 58.3839C11.1005 59.9894 11.7679 60.7874 12.839 60.823C14.4136 60.8752 19.7384 59.4645 21.3914 57.5312C21.7737 57.0847 21.921 56.6596 21.8402 56.2369C21.7595 55.8141 21.4674 55.4745 20.9472 55.199C20.0281 54.7121 18.5722 54.5316 17.0712 54.5316Z" fill="#371A45"/>
<path d="M15.8204 60.9822C15.7183 60.9822 15.6209 60.9276 15.571 60.8326C14.4856 58.8139 14.051 56.5457 14.3194 54.2705C14.3336 54.128 14.4548 54.0164 14.602 54.0164C14.7588 54.0164 14.887 54.1422 14.887 54.3014C14.887 54.3132 14.887 54.3251 14.8846 54.3346C14.6305 56.4959 15.039 58.65 16.0721 60.5666C16.1458 60.7044 16.0959 60.8777 15.9558 60.9514C15.913 60.9727 15.8679 60.9822 15.8204 60.9822Z" fill="#371A45"/>
<path d="M18.8358 71.387L16.5772 71.3372C15.5559 71.3134 14.6297 70.7315 14.1642 69.8219C12.7819 67.112 12.1668 64.0744 12.3877 61.0415C12.4613 60.0227 13.0883 59.1273 14.0217 58.7093L16.0832 57.7854L18.8358 71.387Z" fill="#E2E8E8"/>
<path d="M12.3438 62.248C12.3438 63.5852 12.5052 64.9175 12.8235 66.2119C13.1275 67.4588 13.5764 68.67 14.1654 69.8243C14.6309 70.7339 15.5571 71.3158 16.5784 71.3395L18.837 71.3894L17.5949 65.2429L16.0868 57.7854L14.0252 58.7093C13.5597 58.9183 13.1703 59.246 12.8876 59.6498C12.605 60.0535 12.4292 60.5333 12.3936 61.0415C12.3604 61.4453 12.3438 61.8467 12.3438 62.248Z" fill="#E2E8E8"/>
<g opacity="0.3">
<path d="M12.5932 65.1242C12.6217 65.2928 12.6549 65.459 12.6905 65.6277C12.5243 64.4544 12.4815 63.2622 12.567 62.0699C12.605 61.5593 12.7784 61.0819 13.061 60.6782C13.3437 60.2744 13.7332 59.9467 14.201 59.7377L16.2602 58.8138L16.158 58.3127L16.0797 57.7854L14.0205 58.7093C13.555 58.9183 13.1632 59.246 12.8805 59.6498C12.5979 60.0535 12.4222 60.5309 12.3865 61.0415C12.2892 62.4119 12.358 63.7823 12.5932 65.1242Z" fill="white"/>
</g>
<path d="M65.0844 56.0921C64.1937 57.8924 62.1037 61.3765 57.9997 64.8155C54.6272 67.6418 49.8915 70.4348 43.3412 72.2374C39.0924 73.4059 35.3161 73.8619 32.079 73.9094C23.6311 74.0353 18.836 71.3895 18.836 71.3895C18.7695 71.2826 18.7054 71.1758 18.6412 71.0689C17.4205 69.0145 16.5892 66.7701 16.1665 64.4498C15.9361 63.1791 15.8269 61.8871 15.8459 60.5904C15.8459 60.5548 15.8482 60.5191 15.8482 60.4835C15.8649 59.5834 15.9432 58.6833 16.0834 57.7879C16.0834 57.7879 17.2709 56.2821 19.8644 54.3964C20.2895 54.0876 20.7502 53.7694 21.2514 53.444C21.8451 53.0593 22.4935 52.6674 23.1989 52.2755C23.2654 52.2375 23.3319 52.2019 23.4007 52.1639C24.3032 51.6699 25.296 51.1783 26.3814 50.7056C26.6806 50.5774 26.987 50.4468 27.3005 50.3209C30.3049 49.1049 33.9624 48.0575 38.3347 47.4804C38.6079 47.4448 38.8786 47.4115 39.147 47.383C40.2941 47.25 41.4009 47.1669 42.472 47.1265C43.9564 47.0671 45.3671 47.0885 46.7066 47.1764C48.8132 47.3141 50.737 47.6134 52.485 48.0171C52.8294 48.0979 53.169 48.181 53.4991 48.2689C59.325 49.8126 63.0086 52.4893 64.645 53.9024C65.2744 54.4439 65.4525 55.3464 65.0844 56.0921Z" fill="white"/>
<path d="M28.7422 53.9949C28.7897 53.9474 28.8348 53.9022 28.8776 53.8547C28.7992 53.9284 28.7541 53.9782 28.7422 53.9949Z" fill="#E5E5E5"/>
<path d="M54.5199 67.3614C56.6146 66.0219 58.3436 64.604 59.7615 63.2217C59.7781 63.2051 59.7971 63.1861 59.8138 63.1718C60.0133 62.9795 60.2056 62.7847 60.3909 62.5923C60.3956 62.5876 60.4004 62.5805 60.4075 62.5757C60.4716 62.5092 60.5334 62.4451 60.5951 62.3786C60.6569 62.3121 60.7186 62.248 60.7804 62.1815C60.8469 62.1102 60.911 62.039 60.9775 61.9677C61.0915 61.8442 61.2008 61.7183 61.31 61.5972C61.481 61.4048 61.6449 61.2125 61.804 61.0225C61.8563 60.9583 61.9085 60.8966 61.9608 60.8348C62.1674 60.5831 62.3621 60.3385 62.5497 60.0962C62.5972 60.0345 62.6424 59.9751 62.6875 59.9157C63.096 59.3766 63.4546 58.8636 63.7658 58.3838C63.818 58.3055 63.8679 58.2271 63.9178 58.1487C63.97 58.0656 64.0222 57.9848 64.0697 57.9041C64.1196 57.8233 64.1671 57.745 64.2146 57.6666C64.2526 57.6001 64.293 57.536 64.331 57.4718C64.388 57.3768 64.4426 57.2818 64.4949 57.1916C64.7181 56.7997 64.9034 56.4482 65.0554 56.1418C64.8464 56.3247 64.635 56.5052 64.4189 56.6857C61.747 58.923 58.441 61.146 54.375 63.0911C54.4866 64.509 54.5341 65.934 54.5199 67.3614Z" fill="#C93535"/>
<path d="M54.5223 67.3615C56.6408 66.0054 58.3864 64.5685 59.8162 63.172C59.9516 63.039 60.0869 62.906 60.2152 62.773C60.2817 62.7065 60.3458 62.64 60.4099 62.5735L60.4123 62.5711C60.4741 62.5046 60.5358 62.4405 60.5976 62.3763C60.7234 62.2457 60.8446 62.1127 60.9633 61.9845C61.0726 61.8657 61.1771 61.7493 61.2816 61.633C61.5784 61.2981 61.8563 60.9703 62.1176 60.6473C62.1603 60.5927 62.2054 60.5381 62.2482 60.4835C62.7588 59.8446 63.2029 59.2342 63.5806 58.6666C63.6091 58.6262 63.6376 58.5835 63.6637 58.5431C63.7064 58.4766 63.7492 58.4125 63.7919 58.3484C63.9012 58.1774 64.0057 58.0135 64.1054 57.852C64.1316 57.8116 64.1553 57.7712 64.1791 57.7332C64.2266 57.6549 64.2741 57.5765 64.3192 57.4981C64.3406 57.4601 64.3643 57.4221 64.3857 57.3841C64.4308 57.3081 64.4736 57.2345 64.5139 57.1609C64.5971 57.016 64.6754 56.8735 64.7467 56.7405C64.8726 56.5053 64.9866 56.2869 65.0816 56.0921C65.1219 56.009 65.1552 55.9259 65.1837 55.8404C65.2051 55.7762 65.2217 55.7121 65.2336 55.6456C65.2383 55.6242 65.2431 55.6029 65.2454 55.5791C63.0248 56.8117 59.1821 58.7758 54.1328 60.7257C54.4154 62.9202 54.5461 65.1361 54.5223 67.3615Z" fill="#D1D1D1"/>
<path d="M50.5234 47.6252C51.6088 50.1237 52.4781 52.7006 53.1241 55.3297C54.0907 59.2556 54.5609 63.2979 54.5158 67.3615C60.9758 63.229 63.9636 58.346 65.0798 56.0945C65.4479 55.3487 65.2674 54.4462 64.6357 53.9024C64.5882 53.862 64.5383 53.8192 64.4861 53.7741C62.4982 52.0926 57.8907 48.8887 50.5234 47.6252Z" fill="#E81818"/>
<g opacity="0.3">
<path d="M63.8996 56.9896C62.7263 58.8658 60.8192 61.3572 57.8742 63.8272C54.5017 66.6511 49.7659 69.4464 43.2157 71.2491C38.9668 72.4176 35.1929 72.8736 31.9534 72.9211C23.5056 73.0469 18.7104 70.4012 18.7104 70.4012V70.4036L16.4518 70.3537C15.4306 70.3323 14.5043 69.7481 14.0388 68.8384C13.5852 67.9478 13.2147 67.0216 12.9297 66.0716L16.3829 65.3686C16.3568 65.2569 16.3307 65.1477 16.3046 65.0361L21.5129 63.3071C21.5129 63.3071 22.6743 65.9742 19.1593 67.8528C21.9191 68.4276 25.4056 68.8598 29.5428 68.8004C31.8917 68.7672 34.4519 68.5701 37.2069 68.1521C35.1288 67.0358 33.7157 64.8413 33.7157 62.3143C33.7157 58.6568 36.6797 55.6904 40.3396 55.6904C43.9971 55.6904 46.9634 58.6544 46.9634 62.3143C46.9634 63.8034 46.4718 65.1762 45.6429 66.2829C53.6419 63.9459 59.5676 60.5069 63.8996 56.9896Z" fill="#371A45"/>
</g>
<g opacity="0.5">
<path d="M64.4623 56.8357C64.8304 56.0899 64.6499 55.1874 64.0182 54.6435C63.9707 54.6032 63.9208 54.5604 63.8686 54.5153C61.9709 52.9122 57.6936 49.9268 50.9177 48.5564C50.7894 48.2453 50.6588 47.9342 50.5234 47.623C57.8907 48.8865 62.4982 52.0928 64.4884 53.7719C64.5407 53.8147 64.5906 53.8574 64.6381 53.9002C65.2674 54.444 65.4503 55.3465 65.0822 56.0923C64.4979 57.2727 63.3983 59.1727 61.5553 61.3102C63.0302 59.479 63.9469 57.8759 64.4623 56.8357Z" fill="white"/>
</g>
<path d="M54.5183 67.7389C54.4542 67.7389 54.3925 67.7223 54.3355 67.6915C54.2143 67.6249 54.1383 67.4943 54.1407 67.3566C54.2143 60.5807 52.882 53.9924 50.1792 47.7747C50.1246 47.6464 50.1436 47.4992 50.2291 47.3899C50.3146 47.2807 50.4547 47.2284 50.5901 47.2498C58.031 48.5276 62.686 51.7386 64.7973 53.5388C65.6191 54.2395 65.8542 55.4008 65.3697 56.3651C64.1228 58.8446 61.0828 63.6112 54.7226 67.6796C54.6585 67.7199 54.5896 67.7389 54.5183 67.7389ZM51.1482 48.1214C53.6158 54.0281 54.877 60.2577 54.8983 66.6583C60.7076 62.7752 63.5172 58.3577 64.6905 56.0254C65.0182 55.3747 64.8591 54.5886 64.3033 54.1159C62.3178 52.4202 58.0096 49.4419 51.1482 48.1214Z" fill="#371A45"/>
<path d="M31.4746 74.2846C29.007 74.2846 26.9218 74.0542 25.2735 73.7645C21.0508 73.0235 18.747 71.7719 18.652 71.7172C18.595 71.6864 18.5475 71.6412 18.5119 71.5842C17.2365 69.5251 16.3483 67.2784 15.8661 64.9057C15.3864 62.5331 15.3318 60.1154 15.707 57.7237C15.7165 57.6596 15.7426 57.5979 15.783 57.548C15.8519 57.4625 17.4859 55.4129 21.0888 53.0901C24.3995 50.955 30.0686 48.1834 38.279 47.1027C42.5849 46.5351 46.7269 46.585 50.591 47.25C50.7169 47.2714 50.8238 47.3545 50.8736 47.4732C53.6191 53.786 54.9729 60.4787 54.8969 67.3615C54.8969 67.4897 54.8328 67.6109 54.7235 67.6821C51.4223 69.7959 47.6246 71.4512 43.4375 72.6031C38.849 73.8642 34.8139 74.2846 31.4746 74.2846ZM19.1033 71.0997C19.5545 71.3277 21.7728 72.387 25.4445 73.0259C29.2398 73.6861 35.41 74.0234 43.2404 71.8692C47.2803 70.7577 50.9473 69.1712 54.1464 67.1525C54.1915 60.5144 52.8853 54.0615 50.2656 47.9625C46.5345 47.345 42.5374 47.307 38.3835 47.8556C30.3109 48.9172 24.7486 51.6366 21.5044 53.729C18.3836 55.743 16.7686 57.5622 16.4433 57.947C16.0989 60.2151 16.1559 62.507 16.6119 64.7585C17.0679 67.0076 17.9063 69.1427 19.1033 71.0997Z" fill="#371A45"/>
<path d="M18.8315 71.7672C18.8291 71.7672 18.8268 71.7672 18.822 71.7672L16.5634 71.7173C15.402 71.6911 14.3499 71.0309 13.8226 69.9954C12.4095 67.2238 11.7801 64.1173 12.0058 61.0155C12.0889 59.8565 12.8014 58.84 13.863 58.365L15.9245 57.4411C16.1145 57.3556 16.3401 57.4411 16.4256 57.6311C16.5111 57.8211 16.4256 58.0468 16.2356 58.1323L14.1741 59.0561C13.369 59.4171 12.8275 60.189 12.7634 61.0701C12.5473 64.0365 13.1481 67.0029 14.4995 69.651C14.9009 70.4371 15.6989 70.9383 16.5824 70.9597L18.841 71.0095C19.05 71.0143 19.2163 71.1876 19.2115 71.3966C19.2044 71.6033 19.0358 71.7672 18.8315 71.7672Z" fill="#371A45"/>
<g opacity="0.3">
<path d="M62.2986 54.4438C61.0089 52.9571 56.1331 50.7246 54.9503 52.0023C53.8222 53.2207 63.5882 55.9306 62.2986 54.4438Z" fill="white"/>
</g>
<path d="M39.8437 67.0361C43.4509 67.0361 46.375 64.112 46.375 60.5049C46.375 56.8978 43.4509 53.9736 39.8437 53.9736C36.2366 53.9736 33.3125 56.8978 33.3125 60.5049C33.3125 64.112 36.2366 67.0361 39.8437 67.0361Z" fill="#E81818"/>
<g opacity="0.7">
<path d="M33.3125 60.2031C33.3125 60.3955 33.3196 60.5855 33.3362 60.7731C33.626 57.4339 36.4285 54.8119 39.8414 54.8119C43.2566 54.8119 46.0591 57.4339 46.3489 60.7731C46.3655 60.5855 46.3726 60.3931 46.3726 60.2031C46.3726 56.5955 43.449 53.6719 39.8414 53.6719C36.2361 53.6719 33.3125 56.5955 33.3125 60.2031Z" fill="white"/>
</g>
<g opacity="0.25">
<path d="M33.3125 60.5051C33.3125 64.1127 36.2361 67.0363 39.8437 67.0363C43.4514 67.0363 46.375 64.1127 46.375 60.5051C46.375 60.3032 46.3655 60.1061 46.3489 59.9089C46.0472 63.2363 43.2495 65.8441 39.8437 65.8441C36.438 65.8441 33.6402 63.2363 33.341 59.9089C33.322 60.1061 33.3125 60.3032 33.3125 60.5051Z" fill="#371A45"/>
</g>
<path d="M39.8424 67.3473C36.0709 67.3473 33 64.2788 33 60.505C33 56.7335 36.0685 53.6626 39.8424 53.6626C43.6162 53.6626 46.6847 56.7311 46.6847 60.505C46.6847 64.2765 43.6139 67.3473 39.8424 67.3473ZM39.8424 54.2848C36.4129 54.2848 33.6222 57.0755 33.6222 60.505C33.6222 63.9345 36.4129 66.7251 39.8424 66.7251C43.2719 66.7251 46.0625 63.9345 46.0625 60.505C46.0625 57.0755 43.2719 54.2848 39.8424 54.2848Z" fill="#371A45"/>
<path d="M35.7656 60.5046C35.7656 61.8536 36.4235 63.0506 37.4329 63.7916C37.9981 64.2073 38.6702 64.478 39.4041 64.5564C39.5466 64.5706 39.6939 64.5801 39.8411 64.5801C40.0715 64.5801 40.2971 64.5611 40.5156 64.5231C41.2614 64.3996 41.9359 64.0743 42.4869 63.6016C43.3609 62.8559 43.9166 61.7444 43.9166 60.5023C43.9166 59.2601 43.3609 58.1486 42.4869 57.4029C41.9359 56.9326 41.259 56.6073 40.5156 56.4838C40.2971 56.4458 40.0715 56.4268 39.8411 56.4268C39.6939 56.4268 39.5466 56.4339 39.4041 56.4505C38.6702 56.5289 37.9981 56.802 37.4329 57.2153C36.4211 57.9586 35.7656 59.1533 35.7656 60.5046Z" fill="#22A7F0"/>
<path opacity="0.7" d="M37.5156 57.2702L43.199 62.9536C43.6384 62.3385 43.8854 61.6307 43.9424 60.9087L39.5605 56.5269C38.8385 56.5839 38.1308 56.8309 37.5156 57.2702Z" fill="url(#paint0_linear_2765_4741)"/>
<path opacity="0.7" d="M35.8516 59.9682L40.5018 64.6184C41.1953 64.5139 41.8627 64.2289 42.4374 63.7658L36.7066 58.0349C36.2411 58.6073 35.9561 59.2747 35.8516 59.9682Z" fill="url(#paint1_linear_2765_4741)"/>
<path d="M39.8397 64.8914C37.422 64.8914 35.4531 62.9249 35.4531 60.5048C35.4531 58.0847 37.4196 56.1182 39.8397 56.1182C42.2575 56.1182 44.2264 58.0847 44.2264 60.5048C44.2264 62.9249 42.2575 64.8914 39.8397 64.8914ZM39.8397 56.738C37.764 56.738 36.0754 58.4267 36.0754 60.5024C36.0754 62.5782 37.764 64.2668 39.8397 64.2668C41.9155 64.2668 43.6041 62.5782 43.6041 60.5024C43.6041 58.4267 41.9155 56.738 39.8397 56.738Z" fill="#371A45"/>
<path d="M8.02961 64.1454C8.02961 64.1454 5.58811 61.9153 1.26086 66.9218C1.05661 67.1569 1.12073 67.5203 1.39148 67.6699C2.85211 68.4822 7.04873 70.5033 8.68986 67.9312L8.02961 64.1454Z" fill="#E81818"/>
<path d="M8.13179 64.692C8.13179 64.692 6.40041 63.1102 3.32954 66.6751C3.19416 66.8318 3.23691 67.0717 3.41741 67.1715C4.42916 67.7367 7.43116 69.1997 8.59966 67.3686L8.13179 64.692Z" fill="#E7A900"/>
<path d="M8.35735 65.1028C8.35735 65.1028 7.18885 64.034 5.11547 66.4399C5.02522 66.5444 5.05372 66.7083 5.17485 66.7748C5.85647 67.1571 7.88235 68.1428 8.67322 66.9078L8.35735 65.1028Z" fill="#FFFD01"/>
<path d="M6.14945 69.5678C4.3302 69.5678 2.29245 68.5893 1.21183 67.9908C0.986203 67.8649 0.831827 67.6488 0.786702 67.3947C0.741577 67.1405 0.812828 66.8817 0.981453 66.6869C2.84345 64.5328 4.6152 63.3904 6.24445 63.2954C7.5317 63.2194 8.24183 63.8512 8.27033 63.8797C8.3297 63.9343 8.37008 64.0055 8.38195 64.0863L9.0422 67.8744C9.05883 67.9647 9.03983 68.0549 8.98995 68.1333C8.31545 69.1925 7.2752 69.5678 6.14945 69.5678ZM6.46295 64.0127C6.39883 64.0127 6.32995 64.015 6.26108 64.0198C5.28495 64.0863 3.67233 64.6872 1.53483 67.1595C1.4992 67.1999 1.50158 67.2427 1.50633 67.2664C1.51108 67.2878 1.52295 67.3282 1.56808 67.3543C2.76983 68.024 6.75745 70.0024 8.30833 67.8507L7.69795 64.3475C7.5222 64.2335 7.10895 64.0127 6.46295 64.0127Z" fill="#371A45"/>
<path d="M11.0214 67.1763C10.2282 68.0171 9.1238 68.2284 9.1238 68.2284C9.1238 68.2284 8.51817 67.5183 8.19992 65.8511C7.88167 64.1838 8.18567 63.3003 8.18567 63.3003C8.18567 63.3003 9.29005 63.0889 10.3374 63.5806" fill="#E2E8E8"/>
<path d="M9.12515 68.6061C9.0159 68.6061 8.90903 68.5586 8.83778 68.4731C8.80928 68.4398 8.16328 67.6656 7.83078 65.9199C7.49828 64.1743 7.81653 63.2148 7.8284 63.1768C7.87353 63.0486 7.98278 62.9536 8.11578 62.9274C8.16565 62.9179 9.35315 62.6994 10.4979 63.2362C10.6879 63.3241 10.7687 63.5497 10.6808 63.7397C10.5929 63.9297 10.3673 64.0104 10.1773 63.9226C9.53128 63.6209 8.84728 63.6186 8.49578 63.6447C8.4364 63.9843 8.3699 64.7087 8.57415 65.7798C8.7784 66.8486 9.10615 67.4969 9.28665 67.7938C9.62153 67.6893 10.258 67.4352 10.7497 66.9174C10.8922 66.7654 11.132 66.7583 11.284 66.9032C11.436 67.0457 11.4432 67.2856 11.2983 67.4376C10.429 68.3567 9.24628 68.5918 9.1964 68.6013C9.17265 68.6037 9.1489 68.6061 9.12515 68.6061Z" fill="#371A45"/>
<path d="M11.9365 68.3875C9.99138 68.3258 9.62801 66.1146 9.52826 65.5969C9.43088 65.0791 8.95589 62.8894 10.7419 62.1175C12.5493 61.3361 20.7644 60.417 21.3225 63.3525C21.8806 66.2856 13.903 68.4516 11.9365 68.3875Z" fill="#E81818"/>
<g opacity="0.7">
<path d="M9.44527 65.1099C9.48564 64.3261 9.77302 63.4331 10.7824 62.9961C12.5423 62.2338 20.3916 61.3431 21.306 64.015C21.3583 63.7989 21.3654 63.578 21.3226 63.3524C20.7645 60.4193 12.5494 61.336 10.742 62.1174C9.31464 62.7349 9.33127 64.2596 9.44527 65.1099Z" fill="white"/>
</g>
<g opacity="0.3">
<path d="M11.8044 67.6465C10.2702 67.5966 9.71919 66.212 9.50781 65.376C9.81181 65.585 10.1871 65.7251 10.6549 65.7394C12.3531 65.7964 18.5209 64.1908 19.8248 61.8657C20.4922 62.1293 20.9909 62.507 21.2142 63.0271C20.9981 65.7465 13.6783 67.7082 11.8044 67.6465Z" fill="#371A45"/>
</g>
<path d="M12.0291 68.7676C11.9911 68.7676 11.9579 68.7676 11.9222 68.7653C10.92 68.732 9.62561 68.1763 9.16248 65.7086L9.14586 65.6255C8.67086 63.1603 9.66836 62.1675 10.5899 61.7685C12.2191 61.0631 17.8906 60.3791 20.4105 61.7139C21.1372 62.0986 21.5671 62.6259 21.693 63.279C21.8165 63.9345 21.6099 64.5829 21.0755 65.2075C19.2562 67.3355 13.9077 68.7676 12.0291 68.7676ZM16.1806 61.7186C14.0099 61.7186 11.7465 62.0963 10.8915 62.4644C9.90823 62.8895 9.58048 63.8775 9.89161 65.483L9.90823 65.5709C10.2099 67.1764 10.8772 67.9744 11.9484 68.01C13.523 68.0646 18.8477 66.6515 20.5007 64.7183C20.8831 64.2718 21.0304 63.8466 20.9496 63.4239C20.8689 63.0011 20.5767 62.6615 20.0566 62.386C19.1375 61.8991 17.6792 61.7186 16.1806 61.7186Z" fill="#371A45"/>
<path d="M14.9222 68.1692C14.82 68.1692 14.7227 68.1145 14.6728 68.0195C13.585 66.0008 13.1528 63.7303 13.4212 61.4527C13.4212 61.4479 13.4212 61.4432 13.4235 61.4384C13.4497 61.284 13.5945 61.1795 13.7513 61.2057C13.9033 61.2318 14.0054 61.3719 13.9864 61.5215C13.7323 63.6804 14.1432 65.8345 15.1739 67.7488C15.2475 67.8865 15.1977 68.0599 15.0575 68.1335C15.0148 68.1597 14.9673 68.1692 14.9222 68.1692Z" fill="#371A45"/>
<g opacity="0.3">
<path d="M24.2086 51.5794C23.4034 51.9523 23.5768 53.2823 24.3297 53.7525C25.0826 54.2251 26.0563 54.0779 26.9137 53.8428C28.6878 53.3535 30.3669 52.5555 32.1553 52.128C34.7963 51.4986 37.5988 51.6981 40.2018 50.931C41.4131 50.5748 42.5554 50.0166 43.6883 49.4609C44.0992 49.259 44.5219 49.0476 44.8212 48.7009C45.1181 48.3518 45.2605 47.8269 45.0325 47.4279C44.7404 46.9149 44.0398 46.8508 43.4484 46.8484C41.7408 46.8436 40.0166 46.8413 38.3541 47.2284C37.6297 47.397 36.9196 47.6393 36.1833 47.7438C35.2808 47.872 34.3593 47.7913 33.4521 47.8981C32.4166 48.0193 31.4262 48.3826 30.4477 48.7413C28.3007 49.5298 26.1086 50.342 24.3297 51.7813C24.2038 51.8834 24.0471 51.995 23.8927 51.9499C23.7359 51.9024 23.7407 51.5984 23.9022 51.6269" fill="#371A45"/>
</g>
<path d="M43.4009 27.3971C43.2608 27.3971 43.1468 27.2854 43.142 27.1453C43.0732 24.7561 42.2728 22.7183 40.9475 21.5569C40.8407 21.4619 40.8288 21.3004 40.9238 21.1912C41.0188 21.0843 41.1803 21.0724 41.2895 21.1674C42.724 22.4238 43.5885 24.5969 43.6598 27.1287C43.6645 27.2712 43.5505 27.3899 43.408 27.3947C43.408 27.3971 43.4057 27.3971 43.4009 27.3971Z" fill="#371A45"/>
<path d="M50.5824 22.0605C50.4043 22.279 50.2547 22.5189 50.1074 22.7587C49.3261 24.0531 48.6254 25.4567 47.4023 25.9555C44.6259 26.8247 41.5218 27.6845 38.1778 28.5324L35.8242 25.4187L33.5703 22.4357C38.0614 22.0795 42.3911 21.2482 46.5616 19.9681C46.8252 19.8874 47.0651 19.7401 47.2574 19.543L48.8796 17.8924C48.9912 17.7784 49.1432 17.7214 49.2952 17.7261C49.3071 17.7261 49.3213 17.7261 49.3332 17.7285C49.4163 17.738 49.4994 17.7665 49.5731 17.8164C49.7298 17.9232 49.8604 18.0776 49.9649 18.2747C50.2428 18.8044 50.3212 19.6356 50.1929 20.6236C50.1929 20.6307 50.1929 20.6355 50.1906 20.6426C50.4423 20.759 50.6276 20.9561 50.7178 21.1841C50.8342 21.462 50.8057 21.785 50.5824 22.0605Z" fill="white"/>
<path d="M38.1826 28.8339C38.0899 28.8339 37.9997 28.7912 37.9427 28.7152L33.3352 22.6186C33.2687 22.5307 33.2544 22.4143 33.2996 22.3122C33.3447 22.2124 33.4421 22.1436 33.5513 22.1341C37.9712 21.7826 42.3198 20.9561 46.4784 19.6783C46.6922 19.6118 46.8869 19.4931 47.0461 19.3316L48.6682 17.6809C48.9556 17.3864 49.4116 17.3389 49.7464 17.5669C50.3901 18.0016 50.6679 19.0561 50.5183 20.4811C50.7914 20.6663 50.9886 20.9418 51.0598 21.2482C51.1406 21.6021 51.0551 21.9583 50.8199 22.2504C50.6632 22.4452 50.5254 22.6566 50.3711 22.9154C50.2784 23.0698 50.1858 23.2266 50.0932 23.3833C49.4044 24.5518 48.6919 25.7583 47.5234 26.2357C47.5163 26.2381 47.5068 26.2428 47.4997 26.2452C44.8349 27.0812 41.8116 27.9243 38.2609 28.8268C38.2324 28.8316 38.2063 28.8339 38.1826 28.8339ZM34.1451 22.6922L38.3013 28.1927C41.7522 27.3139 44.6996 26.4874 47.3026 25.6728C48.2763 25.2691 48.9057 24.2051 49.5707 23.0769C49.6633 22.9178 49.7583 22.7611 49.8533 22.6019C50.0006 22.3597 50.1621 22.1032 50.3521 21.8681C50.5017 21.6828 50.5017 21.5023 50.4732 21.3836C50.4281 21.1864 50.2784 21.0107 50.0718 20.9157C49.9531 20.8611 49.8818 20.7328 49.8984 20.6022C50.0623 19.3506 49.8747 18.3768 49.4116 18.0657C49.3166 18.0016 49.1836 18.0158 49.1004 18.1037L47.4783 19.7543C47.2503 19.9871 46.9653 20.1604 46.6566 20.2554C42.6262 21.4952 38.4201 22.3146 34.1451 22.6922Z" fill="#371A45"/>
<path d="M50.4361 20.6735L49.0349 21.9156C48.9422 21.9987 48.8069 21.8728 48.8805 21.7755L49.9896 20.2673C50.2675 19.923 50.7567 20.3671 50.4361 20.6735Z" fill="#371A45"/>
<g opacity="0.25">
<path d="M50.5864 22.0607C50.4083 22.2792 50.2586 22.5191 50.1114 22.7589C49.33 24.0533 48.6294 25.4569 47.4063 25.9557C44.6299 26.8249 41.5258 27.6847 38.1818 28.5326L35.8281 25.4189C36.0086 25.0104 36.2604 24.6352 36.5786 24.3217L36.8731 24.3075C37.8065 24.7682 38.842 24.9724 39.8656 25.1719C40.3406 25.2646 40.8204 25.3572 41.3025 25.3382C41.6944 25.3239 42.0791 25.2337 42.4591 25.1387C44.7225 24.5758 46.9289 23.7802 49.0331 22.7684C49.4796 22.5547 49.9356 22.3196 50.2658 21.9514C50.4653 21.7258 50.6101 21.4622 50.7265 21.1843C50.8381 21.4622 50.8096 21.7852 50.5864 22.0607Z" fill="#371A45"/>
</g>
<g opacity="0.25">
<path d="M49 21.8043C49.4204 21.2106 49.7054 20.5147 49.7742 19.7903C49.8431 19.066 49.684 18.3131 49.2826 17.7051C49.9951 18.0305 50.3894 18.8427 50.4298 19.6241C50.4393 19.807 50.4345 19.9946 50.3894 20.1727C50.254 20.7261 49.7933 21.1322 49.3563 21.498L49 21.8043Z" fill="#371A45"/>
</g>
<path d="M33.9098 50.2897C33.8623 50.437 33.8029 50.5866 33.7245 50.741C33.5773 51.0402 33.3018 51.2564 32.9788 51.3371C29.763 52.147 25.6733 51.4701 25.6875 48.3399C25.6899 48.0739 25.7374 47.8102 25.8277 47.5585L26.9368 44.4757C27.0223 44.2359 27.065 43.9841 27.0603 43.73C27.0365 42.3905 26.9202 40.9417 26.7159 39.3909L30.3449 37.8804L33.2329 41.0344L34.1853 42.0746C34.0452 44.3095 33.791 46.4137 32.9242 47.796C33.6699 48.0002 34.3278 48.9977 33.9098 50.2897Z" fill="white"/>
<path d="M30.4708 51.9477C29.0245 51.9477 27.5805 51.6413 26.5972 50.8695C25.8016 50.2472 25.3836 49.3708 25.3907 48.3401C25.3931 48.0432 25.4453 47.7463 25.5498 47.459L26.659 44.3762C26.7326 44.172 26.7682 43.9558 26.7635 43.7373C26.7397 42.4335 26.6257 40.9847 26.4215 39.4315C26.4048 39.2961 26.4785 39.1655 26.6043 39.1132L30.2333 37.6027C30.3497 37.5552 30.4851 37.5837 30.5706 37.6763L34.411 41.873C34.4656 41.9323 34.4941 42.0131 34.4893 42.0962C34.3611 44.1316 34.1307 46.2026 33.3588 47.6537C33.689 47.8413 33.9692 48.1548 34.1426 48.5396C34.4537 49.2307 34.4015 50.0596 33.9977 50.8718C33.8101 51.2471 33.4657 51.5226 33.0548 51.6271C32.264 51.829 31.3662 51.9477 30.4708 51.9477ZM27.0461 39.5811C27.2337 41.0702 27.3406 42.4643 27.3643 43.7255C27.3691 44.0176 27.3216 44.305 27.2242 44.5805L26.1151 47.6632C26.0343 47.8865 25.994 48.1145 25.9916 48.3425C25.9868 49.1927 26.3146 49.8815 26.9677 50.3945C28.2075 51.3658 30.5943 51.6271 32.9076 51.0452C33.1475 50.9858 33.347 50.8243 33.4562 50.6058C33.7792 49.9575 33.8267 49.3115 33.5916 48.789C33.4325 48.4351 33.1546 48.1738 32.8482 48.0907C32.7556 48.067 32.682 47.9981 32.6463 47.9102C32.6107 47.8223 32.6202 47.7202 32.6725 47.6395C33.499 46.3213 33.746 44.248 33.879 42.1865L30.2666 38.2416L27.0461 39.5811Z" fill="#371A45"/>
<path d="M31.8631 45.7132C30.0462 45.7132 28.379 45.1836 26.8851 44.1267C26.7497 44.0317 26.7165 43.8417 26.8138 43.7064C26.9112 43.571 27.0988 43.5377 27.2342 43.6351C29.1295 44.9746 31.3335 45.4045 33.7797 44.9129C33.9436 44.8796 34.1027 44.9865 34.1336 45.1504C34.1645 45.3142 34.06 45.4734 33.8985 45.5066C33.2002 45.6444 32.521 45.7132 31.8631 45.7132Z" fill="#371A45"/>
<path d="M33.0452 48.1427C32.1024 48.5749 30.9837 48.6082 30.0266 48.2448C29.9625 48.221 29.9292 48.1498 29.953 48.0857C29.9744 48.0263 30.0361 47.993 30.0955 48.0073C31.0075 48.2068 31.9622 48.0524 32.7389 47.5537C33.1497 47.3185 33.4727 47.9384 33.0452 48.1427Z" fill="#371A45"/>
<g opacity="0.25">
<path d="M30.9509 48.2992C30.8891 48.2897 30.8274 48.2802 30.7656 48.2683C30.8274 48.2731 30.8891 48.2826 30.9509 48.2992Z" fill="#371A45"/>
</g>
<g opacity="0.25">
<path d="M33.2383 41.0365C33.2288 41.1695 33.217 41.3001 33.2051 41.4308L33.0222 41.2977C32.1934 40.8536 31.0343 41.2123 30.6045 42.0483C30.4287 42.3855 30.3693 42.7679 30.31 43.1431C30.1081 44.428 29.9086 45.7129 29.7091 46.9978C29.6782 47.1949 29.6474 47.4015 29.7067 47.5939C29.8374 48.0214 30.3171 48.1876 30.7731 48.2684C30.3195 48.2304 29.8492 48.4536 29.6046 48.8384C29.3243 49.2754 29.3552 49.8881 29.6782 50.2943C29.9965 50.6956 30.5308 50.8619 31.0415 50.9212C32.0342 51.0376 33.0579 50.7978 33.9176 50.2895C33.8701 50.4368 33.8107 50.5864 33.7324 50.7408C33.5851 51.04 33.3096 51.2561 32.9866 51.3369C29.7709 52.1467 25.6811 51.4699 25.6953 48.3396C25.6977 48.0736 25.7452 47.81 25.8355 47.5583L26.9446 44.4755C27.0301 44.2356 27.0728 43.9839 27.0681 43.7298C27.0443 42.3903 26.928 40.9415 26.7237 39.3906L30.3527 37.8801L33.2383 41.0365Z" fill="#371A45"/>
</g>
<path d="M28.9604 24.421L29.0886 28.3422L29.4306 38.8658C28.0864 39.9963 26.4832 40.761 24.2745 40.6589C22.935 40.5544 21.9209 40.0557 21.1965 39.203C20.8117 38.7542 20.5695 38.2032 20.4674 37.6213C20.465 37.6118 20.4626 37.6047 20.4626 37.5952C19.8499 33.9424 19.5815 30.3087 19.6409 26.6987C19.6432 26.4422 19.7644 26.2023 19.9662 26.0455C21.0967 25.1597 22.7236 24.5754 24.6735 24.1907L28.9604 24.421Z" fill="white"/>
<path d="M24.6702 40.973C24.5348 40.973 24.3995 40.9706 24.2593 40.9635C22.8628 40.8566 21.7561 40.3317 20.9652 39.4031C20.552 38.9186 20.2741 38.313 20.1625 37.648C19.5545 34.0309 19.2766 30.3449 19.336 26.6945C19.3407 26.3477 19.5022 26.0247 19.7753 25.8086C20.875 24.9465 22.4567 24.3219 24.6108 23.8944C24.6346 23.8896 24.6607 23.8872 24.6845 23.8896L28.9713 24.12C29.1281 24.1295 29.2516 24.2554 29.2563 24.4121L29.7266 38.8592C29.729 38.9519 29.691 39.0397 29.6197 39.0991C28.1116 40.3697 26.5275 40.973 24.6702 40.973ZM24.694 24.4929C22.6538 24.899 21.1671 25.4856 20.1506 26.2836C20.02 26.3857 19.944 26.5377 19.9416 26.704C19.8822 30.3187 20.1577 33.9667 20.7586 37.5459C20.8512 38.104 21.0816 38.6099 21.4236 39.0112C22.1171 39.8235 23.0576 40.2652 24.295 40.3602C26.1142 40.4434 27.6556 39.9256 29.121 38.731L28.665 24.709L24.694 24.4929Z" fill="#371A45"/>
<path d="M23.8484 40.3103C24.5751 40.3364 24.5775 39.1751 24.6274 38.6193C24.6701 37.7857 24.6202 36.9378 24.625 36.0971C24.625 35.9736 24.8126 35.9546 24.834 36.0781C24.9884 36.9212 25.1142 37.7619 25.1499 38.6241C25.1974 39.5052 25.0454 40.9896 23.8222 40.9136C23.4161 40.8851 23.4446 40.3008 23.8484 40.3103Z" fill="#371A45"/>
<g opacity="0.25">
<path d="M29.09 28.3428L29.432 38.8664C28.0877 39.9969 26.4846 40.7616 24.2759 40.6595C22.9364 40.555 21.9222 40.0563 21.1979 39.2036C20.8131 38.7548 20.5709 38.2038 20.4688 37.6219L20.5542 37.5696C20.9865 38.218 21.4876 38.8593 22.1883 39.206C22.8865 39.5528 23.8246 39.5266 24.3519 38.9543C24.8957 38.3676 24.8411 37.4651 24.7699 36.6695C24.6464 35.2801 24.5728 33.886 24.5514 32.4919C24.5466 32.2568 24.5466 32.0145 24.6369 31.7984C24.739 31.5514 24.948 31.3661 25.1522 31.1928C26.3896 30.143 27.7077 29.1906 29.09 28.3428Z" fill="#371A45"/>
</g>
<path d="M22.977 28.1856C22.9223 28.1856 22.8677 28.1713 22.8178 28.1404C21.7372 27.4683 20.6661 26.9624 19.633 26.6371C19.4738 26.5872 19.386 26.4186 19.4358 26.2594C19.4857 26.1003 19.6567 26.0124 19.8135 26.0623C20.8941 26.4043 22.0127 26.9316 23.1361 27.6298C23.2786 27.7177 23.3213 27.9029 23.2335 28.0454C23.1765 28.1357 23.0767 28.1856 22.977 28.1856Z" fill="#371A45"/>
<path d="M27.3946 33.6106L25.3592 34.0333C25.1763 34.0713 25.0433 34.2257 25.0338 34.4109C25.0006 35.0902 25.0053 36.6624 25.7178 37.0876C26.3092 37.4414 27.1713 37.2776 27.6249 36.7788C28.1308 36.2207 27.9883 34.6983 27.8814 33.9478C27.8482 33.7198 27.6249 33.5631 27.3946 33.6106Z" fill="white"/>
<g opacity="0.25">
<path d="M25.0338 34.4131C25.0006 35.0924 25.0053 36.6646 25.7178 37.0897C26.3092 37.4436 27.1713 37.2797 27.6249 36.781C27.9361 36.439 28.0026 35.7289 27.9812 35.0615C27.9313 35.4035 27.8221 35.6909 27.6629 35.8904C26.7581 37.0327 25.8294 35.9474 25.8294 35.9474C25.8294 35.9474 25.7321 36.2537 25.6276 36.2846C25.1882 36.4105 25.0979 34.9997 25.0671 34.2659C25.0504 34.311 25.0362 34.3609 25.0338 34.4131Z" fill="#371A45"/>
</g>
<path d="M26.4427 37.496C26.1458 37.496 25.8537 37.4248 25.6043 37.2751C24.8182 36.8049 24.7731 35.273 24.8158 34.4014C24.8301 34.1188 25.0343 33.8812 25.3122 33.8219L27.3476 33.3991C27.5162 33.3635 27.6919 33.4015 27.8321 33.4989C27.9722 33.5963 28.0672 33.7506 28.0909 33.9216C28.2429 34.9714 28.3094 36.3465 27.7822 36.9284C27.4473 37.2965 26.9391 37.496 26.4427 37.496ZM27.4758 33.8171C27.4616 33.8171 27.4497 33.8195 27.4354 33.8219L25.4001 34.2446C25.3146 34.2636 25.2504 34.3349 25.2481 34.4227C25.1839 35.7219 25.4024 36.6505 25.8276 36.9046C26.3168 37.1967 27.0673 37.0732 27.4639 36.6362C27.7798 36.2895 27.8558 35.2967 27.6658 33.981C27.6587 33.9287 27.6302 33.8812 27.5851 33.8504C27.5542 33.829 27.5162 33.8171 27.4758 33.8171Z" fill="#371A45"/>
<path d="M26.7187 37.4081C25.9991 37.0685 25.7164 36.2301 25.6666 35.4939C25.6476 35.2516 25.6333 35.0165 25.6784 34.7624C25.6832 34.7339 25.7093 34.7172 25.7378 34.722C25.7639 34.7267 25.7829 34.7505 25.7806 34.7766C25.7568 34.9975 25.7901 35.2421 25.8304 35.4725C25.9326 36.109 26.2033 36.8215 26.8327 37.0827C27.0631 37.154 26.9467 37.496 26.7187 37.4081Z" fill="#371A45"/>
<path d="M45.0588 47.979C45.0636 48.0717 45.0612 48.169 45.0564 48.2688C45.0256 48.7177 44.7691 49.119 44.3748 49.3328C42.3418 50.4467 38.9123 51.0808 36.7368 50.4918C36.2024 50.3469 35.7678 49.9574 35.5707 49.4397C34.7133 47.2024 34.0958 43.7207 32.2766 41.2459C32.1649 41.0939 31.9987 40.987 31.8134 40.9467C31.2767 40.835 30.7566 40.6664 30.2554 40.4289C29.1273 39.8898 28.4029 38.7522 28.3792 37.5005C28.3554 36.1967 28.2391 34.8524 28.0491 33.4725V33.4654C27.9137 32.4964 27.7427 31.5084 27.5384 30.5062C27.1608 28.6608 26.6739 26.7655 26.1016 24.8299L28.0586 22.4929L34.5138 22.7043L36.7843 24.1483C39.6866 27.3237 40.7458 32.494 40.5558 36.7714C40.5273 37.4032 40.4727 38.0159 40.3919 38.5978C40.3896 38.6073 40.3896 38.6168 40.3872 38.6263C41.7101 40.7495 42.4368 43.21 42.7978 45.8748C44.1539 46.1883 45.0161 46.7963 45.0588 47.979Z" fill="white"/>
<path d="M36.8654 24.0793C40.4208 27.6156 41.302 33.8714 40.6868 38.6713L40.6441 38.4694C41.3376 39.5833 41.8696 40.7898 42.2662 42.0295C42.6628 43.2716 42.9264 44.5494 43.0998 45.8343L42.8671 45.5778C43.772 45.782 44.817 46.2119 45.1946 47.15C45.5461 47.986 45.4107 49.107 44.5604 49.5773C43.6651 50.0689 42.6961 50.3966 41.7104 50.6389C40.4018 50.9429 39.0338 51.1044 37.6896 50.969C37.2312 50.9144 36.7348 50.8455 36.3097 50.6531C35.8442 50.4299 35.4666 50.0214 35.2861 49.5393C35.1293 49.1189 34.9868 48.6985 34.8562 48.2758C34.3313 46.5919 33.8706 44.9056 33.1462 43.3429C32.8327 42.6684 32.4622 42.0153 32.0276 41.4144C31.9373 41.2885 31.7829 41.2458 31.6404 41.222C29.7856 40.8301 28.3083 39.7828 28.0922 37.7806C28.0138 34.2846 27.3892 30.8243 26.5104 27.4423C26.2896 26.5968 26.0568 25.7536 25.8098 24.9153C25.7789 24.8131 25.8051 24.7063 25.8692 24.6303L27.8286 22.2956C27.8903 22.222 27.9829 22.184 28.0732 22.1864L34.5284 22.4025C34.9274 22.4286 34.9037 23.0081 34.5094 23.0058L28.0542 22.7991L28.2988 22.6899L26.3418 25.0293L26.4012 24.7443C27.5768 28.7485 28.5363 32.8858 28.6836 37.0871L28.6931 37.4196C28.6907 38.3198 29.1016 39.2104 29.8046 39.7733C30.4149 40.2625 31.1939 40.4881 31.9468 40.6591C32.2318 40.7328 32.4669 40.937 32.6166 41.1816C32.7662 41.3978 32.9467 41.6638 33.0773 41.8918C34.4572 44.1931 34.9631 46.8555 35.8608 49.3208C36.02 49.7483 36.3904 50.0784 36.8298 50.1948C37.1243 50.2589 37.4521 50.3373 37.7537 50.3586C39.8698 50.5415 42.0714 50.0974 43.9786 49.1925C44.5462 48.9598 44.8241 48.5489 44.7552 47.9266C44.7267 46.8555 43.6651 46.371 42.7317 46.1691C42.6058 46.1406 42.5179 46.0338 42.5013 45.915C42.3303 44.6586 42.0738 43.4141 41.6915 42.2124C41.3091 41.0106 40.7985 39.8516 40.1358 38.7876C40.0978 38.7259 40.0836 38.6546 40.0931 38.5858C40.5705 34.8523 40.1453 30.9288 38.6467 27.4613C38.1337 26.3118 37.4972 25.2193 36.7111 24.2218C36.6754 24.1766 36.6826 24.1078 36.7277 24.0721C36.7657 24.0389 36.8274 24.0436 36.8654 24.0793Z" fill="#371A45"/>
<path d="M43.0774 46.0196C42.7711 46.9102 41.8638 47.4398 40.9851 47.5657C40.8568 47.5895 40.8069 47.3995 40.9304 47.3567C41.3104 47.2166 41.6691 47.0266 41.9374 46.7653C42.2082 46.5065 42.3768 46.1811 42.4386 45.832C42.5502 45.3522 43.2461 45.5565 43.0774 46.0196Z" fill="#371A45"/>
<path d="M35.7322 45.2049C35.1337 45.2049 34.5471 45.1551 33.9842 45.0529C33.8037 45.0197 33.6849 44.8487 33.7158 44.6682C33.7491 44.4877 33.9224 44.3689 34.1006 44.3998C36.6347 44.8558 39.6747 44.1884 42.0354 42.6566C42.1898 42.5568 42.3941 42.5996 42.4938 42.7539C42.5936 42.9083 42.5508 43.1126 42.3964 43.2123C40.4228 44.4948 37.9932 45.2049 35.7322 45.2049Z" fill="#371A45"/>
<path d="M40.5603 39.5218C40.0069 38.6145 39.5367 37.6289 38.6983 36.9449C38.6413 36.9022 38.6318 36.819 38.6769 36.7644C38.7173 36.7145 38.7862 36.705 38.8384 36.7383C39.3229 37.0304 39.7314 37.4389 40.0829 37.8712C40.4368 38.3034 40.7455 38.7618 41.0638 39.194C41.1635 39.3294 41.1327 39.517 40.9997 39.6168C40.8572 39.7213 40.6482 39.6762 40.5603 39.5218Z" fill="#371A45"/>
<g opacity="0.25">
<path d="M34.5311 32.3872C34.3909 32.9762 33.7758 33.3016 33.2082 33.5106C33.2082 33.5106 33.2058 33.5106 33.2058 33.5129C32.5384 33.7576 31.8426 33.9428 31.1324 33.9808C30.1041 34.0354 29.0899 33.7813 28.0972 33.4821C28.0972 33.4821 28.0972 33.4821 28.0948 33.4821C28.0806 33.4773 28.0639 33.4726 28.0497 33.4678C27.9143 32.4988 27.7433 31.5108 27.5391 30.5086C27.6958 30.0787 27.9452 29.6844 28.3014 29.4042L28.3038 29.2522C28.6458 28.8722 29.1968 28.6062 29.6718 28.7986C30.3891 29.0859 30.4247 30.1191 30.9876 30.6487C31.3581 30.9978 31.9091 31.0786 32.4173 31.0501C33.0871 31.0144 33.7497 30.8149 34.3292 30.4753C34.3886 30.8577 34.4503 31.2377 34.5097 31.6201C34.5501 31.8742 34.5904 32.1354 34.5311 32.3872Z" fill="#371A45"/>
</g>
<g opacity="0.25">
<path d="M45.0644 47.9789C45.0692 48.0716 45.0668 48.1689 45.0621 48.2687C45.0312 48.7176 44.7747 49.1189 44.3804 49.3327C42.3474 50.4466 38.9179 51.0807 36.7424 50.4917C36.2081 50.3468 35.7734 49.9573 35.5763 49.4396C34.7189 47.2023 34.1014 43.7206 32.2822 41.2458C32.1706 41.0938 32.0043 40.9869 31.8191 40.9466C31.2823 40.8349 30.7622 40.6663 30.2611 40.4288C29.1329 39.8897 28.4086 38.7521 28.3848 37.5004C28.3611 36.1966 28.2447 34.8523 28.0547 33.4724C28.0689 33.4748 28.0856 33.4772 28.0998 33.4796C29.7932 33.7052 31.5151 33.7147 33.2108 33.5104C33.7784 33.4439 34.3437 33.3513 34.9042 33.2349C35.1536 33.1827 35.4338 33.1304 35.6523 33.2634C35.8304 33.3727 35.9231 33.5769 35.9967 33.7741C36.2176 34.3488 36.3862 34.9426 36.5049 35.5458L36.7092 35.7904C35.6547 36.0351 34.9469 37.1181 34.8543 38.1987C34.7617 39.2769 35.1654 40.3409 35.6784 41.2957C36.1914 42.2504 36.8208 43.1458 37.2388 44.1433C37.6117 45.0387 37.8159 46.0172 38.3598 46.8199C38.5427 47.0931 38.7707 47.3472 39.0604 47.5063C39.8537 47.9409 40.8274 47.5514 41.6444 47.1619C41.2359 47.3828 40.7871 47.6536 40.6778 48.1048C40.5519 48.6273 40.9818 49.1617 41.4972 49.3208C42.0126 49.4776 42.5707 49.3517 43.0789 49.1688C43.8009 48.9099 44.5111 48.5109 45.0644 47.9789Z" fill="#371A45"/>
</g>
<g opacity="0.25">
<path d="M40.5593 36.7737C40.5308 37.4054 40.4761 38.0182 40.3954 38.6001C40.1864 38.3127 39.9774 38.0253 39.7684 37.7379C39.5689 37.4624 39.3623 37.1822 39.0749 36.9993L38.9062 36.8378C39.4145 37.0254 40.013 37.1086 40.4761 36.8283C40.5046 36.8117 40.5331 36.7927 40.5593 36.7737Z" fill="#371A45"/>
</g>
<path d="M41.2462 34.7458L35.5771 36.0283C34.905 36.1803 34.2281 35.6578 34.069 34.8669L33.3612 31.3163C33.2235 30.6228 33.5275 29.9483 34.0571 29.687C34.1307 29.649 34.2115 29.6229 34.2946 29.6015L39.9637 28.319C40.6358 28.167 41.3151 28.6895 41.4718 29.4804L42.0323 32.2924L42.1796 33.031C42.3387 33.8243 41.9183 34.5938 41.2462 34.7458Z" fill="white"/>
<g opacity="0.25">
<path d="M41.2462 34.7458L35.5771 36.0283C34.905 36.1803 34.2281 35.6578 34.069 34.8669L33.3612 31.3163C33.2235 30.6228 33.5275 29.9483 34.0571 29.687C34.43 29.8651 34.6651 29.9815 34.6651 29.9815C35.5106 32.7698 36.482 34.0356 39.5006 33.411C40.8045 33.1426 41.5763 32.7223 42.03 32.2924L42.1772 33.031C42.3387 33.8243 41.9183 34.5938 41.2462 34.7458Z" fill="#371A45"/>
</g>
<path d="M35.3433 36.3131C35.0797 36.3131 34.8137 36.2348 34.5762 36.0804C34.189 35.831 33.9135 35.4059 33.8162 34.919L33.1084 31.3684C32.9232 30.4398 33.4314 29.5349 34.2389 29.352L39.908 28.0695C40.2667 27.9888 40.6419 28.06 40.9649 28.2714C41.352 28.5208 41.6275 28.9459 41.7249 29.4328L42.4327 32.9834C42.6179 33.912 42.1097 34.8169 41.3022 34.9998L35.633 36.2823C35.538 36.3036 35.4407 36.3131 35.3433 36.3131ZM40.1978 28.554C40.1384 28.554 40.079 28.5611 40.022 28.573L34.3529 29.8555C33.8162 29.9766 33.4837 30.6108 33.6143 31.2663L34.322 34.8169C34.3933 35.1684 34.588 35.47 34.8564 35.6458C35.063 35.7788 35.2982 35.8263 35.519 35.7764L41.1882 34.4939C41.7249 34.3728 42.0574 33.7386 41.9268 33.0831L41.219 29.5325C41.1478 29.181 40.953 28.8794 40.6847 28.7036C40.5303 28.6039 40.364 28.554 40.1978 28.554Z" fill="#371A45"/>
<path d="M41.4716 34.6695C41.4027 34.7051 41.3267 34.7289 41.2483 34.7479L35.5792 36.0304C35.0876 36.142 34.5912 35.8926 34.2991 35.4366C34.1922 35.2728 34.1138 35.0804 34.0711 34.869L33.7552 33.292L33.6507 32.7719L33.3609 31.3184C33.2042 30.5275 33.6246 29.758 34.2943 29.606L35.5198 29.3281C34.9807 29.5823 34.6672 30.2639 34.8049 30.9645L35.1873 32.8835L35.5127 34.5175C35.6694 35.3084 36.3487 35.8309 37.0208 35.6789L41.4716 34.6695Z" fill="white"/>
<g opacity="0.25">
<path d="M41.4724 34.6696C41.4035 34.7052 41.3275 34.729 41.2491 34.748L35.58 36.0305C34.9079 36.1825 34.231 35.66 34.0743 34.8691L33.6562 32.772C33.8724 33.1116 34.2191 33.5082 34.6395 33.4631C34.8699 33.4394 35.0528 33.1995 35.1953 32.8836L35.5206 34.5176C35.6774 35.3085 36.3566 35.831 37.0288 35.679L41.4724 34.6696Z" fill="#371A45"/>
</g>
<path d="M35.3466 36.2705C35.0901 36.2705 34.8336 36.1945 34.6033 36.0449C34.2256 35.8003 33.9573 35.387 33.8623 34.912L33.1545 31.3614C32.974 30.4565 33.4656 29.5754 34.2518 29.3949L35.4773 29.117C35.5841 29.0933 35.6934 29.1526 35.729 29.2571C35.7646 29.3616 35.7171 29.4756 35.6174 29.5231C35.1543 29.7393 34.9049 30.3283 35.0236 30.922L35.7314 34.4726C35.8026 34.836 36.0045 35.1471 36.2848 35.33C36.5009 35.4701 36.7479 35.5176 36.9783 35.4654L41.4243 34.4584C41.5311 34.4346 41.638 34.494 41.676 34.5961C41.7116 34.7006 41.6641 34.8146 41.5668 34.8621C41.4789 34.9049 41.3886 34.9358 41.296 34.9571L35.6269 36.2396C35.5343 36.261 35.4393 36.2705 35.3466 36.2705ZM34.8099 29.7084L34.3468 29.8129C33.7863 29.9411 33.4395 30.5966 33.5773 31.2735L34.285 34.8241C34.3563 35.1875 34.5581 35.4986 34.8384 35.6815C35.0545 35.8216 35.3015 35.8691 35.5319 35.8169L36.0615 35.6958C36.0568 35.6934 36.052 35.691 36.0473 35.6863C35.6696 35.4416 35.4013 35.0284 35.3063 34.5534L34.5985 31.0028C34.5059 30.5396 34.5914 30.0741 34.8099 29.7084Z" fill="#371A45"/>
<path d="M37.4036 32.2616C37.4297 32.3922 37.4772 33.4895 37.4772 33.4895C37.4772 33.4895 37.1922 33.5512 36.8407 33.6296C36.4013 33.7246 35.943 33.2686 35.8147 32.6107C35.6865 31.9529 35.9382 31.3401 36.3776 31.2451C36.6745 31.181 37.0141 31.105 37.0141 31.105C37.0141 31.105 37.3608 32.0479 37.4036 32.2616Z" fill="#22A7F0"/>
<g opacity="0.25">
<path d="M37.4036 32.2616C37.4297 32.3922 37.4772 33.4895 37.4772 33.4895C37.4772 33.4895 37.1922 33.5512 36.8407 33.6296C36.4013 33.7246 35.943 33.2686 35.8147 32.6107C35.6865 31.9529 35.9382 31.3401 36.3776 31.2451C36.6745 31.181 37.0141 31.105 37.0141 31.105C37.0141 31.105 37.3608 32.0479 37.4036 32.2616Z" fill="#371A45"/>
</g>
<path d="M36.723 33.8453C36.5638 33.8453 36.4023 33.7954 36.2503 33.6957C35.9416 33.4914 35.7041 33.1019 35.6162 32.6507C35.4642 31.8717 35.7801 31.1687 36.3335 31.0452L36.7776 30.9478C36.9913 30.9003 37.2027 31.0286 37.2835 31.2518C37.4711 31.7743 37.578 32.0997 37.6017 32.2256C37.6065 32.2564 37.6255 32.3467 37.6682 33.2492C37.6801 33.4843 37.5352 33.6862 37.3262 33.7337L36.8845 33.8311C36.8322 33.8382 36.7776 33.8453 36.723 33.8453ZM36.8678 31.3444L36.4237 31.4418C36.0983 31.5131 35.9131 32.0308 36.0176 32.5699C36.0841 32.9167 36.2551 33.2088 36.476 33.3537C36.552 33.4036 36.6707 33.4582 36.799 33.4297L37.2407 33.3323C37.2478 33.33 37.2668 33.3086 37.2645 33.2658C37.2241 32.4417 37.2075 32.3158 37.2051 32.2992C37.1861 32.2018 37.0721 31.8598 36.9035 31.3872C36.8916 31.3563 36.8702 31.3444 36.8678 31.3444Z" fill="#371A45"/>
<path d="M37.4523 33.4921C37.8942 33.415 38.159 32.8162 38.0436 32.1546C37.9282 31.4931 37.4764 31.0192 37.0345 31.0963C36.5926 31.1734 36.3279 31.7721 36.4433 32.4337C36.5587 33.0953 37.0104 33.5691 37.4523 33.4921Z" fill="#22A7F0"/>
<g opacity="0.7">
<path d="M38.0703 32.3707C37.8898 31.8459 37.4908 31.5086 37.1108 31.5941C36.7261 31.6772 36.4862 32.157 36.5195 32.7151C36.4933 32.6367 36.472 32.556 36.4553 32.4705C36.3271 31.8126 36.5788 31.1999 37.0182 31.1049C37.4576 31.0099 37.916 31.4635 38.0442 32.1237C38.0561 32.2069 38.0656 32.29 38.0703 32.3707Z" fill="white"/>
</g>
<g opacity="0.25">
<path d="M37.481 33.4894C37.044 33.5868 36.5833 33.1308 36.455 32.4706C36.4265 32.3186 36.417 32.1713 36.4241 32.0288C36.626 32.4516 36.9775 32.7057 37.3148 32.6321C37.652 32.5584 37.88 32.1784 37.9061 31.7058C37.9655 31.8317 38.013 31.9718 38.0415 32.1214C38.1721 32.7817 37.9204 33.3921 37.481 33.4894Z" fill="#371A45"/>
</g>
<path d="M37.3558 33.7053C37.1966 33.7053 37.0351 33.6554 36.8831 33.5556C36.5744 33.3514 36.3369 32.9619 36.249 32.5106C36.097 31.7316 36.4129 31.0286 36.9663 30.9051C37.1776 30.86 37.3985 30.9051 37.6004 31.0381C37.9091 31.2424 38.1466 31.6319 38.2345 32.0831C38.3865 32.8621 38.0706 33.5651 37.5173 33.6886C37.465 33.7005 37.4104 33.7053 37.3558 33.7053ZM37.1301 31.2946C37.1064 31.2946 37.0827 31.297 37.0565 31.3018C36.7312 31.373 36.5459 31.8908 36.6504 32.4299C36.7169 32.7766 36.8879 33.0688 37.1088 33.2136C37.1848 33.2635 37.3035 33.3181 37.4318 33.2896C37.7571 33.2184 37.9424 32.7006 37.8379 32.1615C37.7714 31.8148 37.6004 31.5226 37.3795 31.3778C37.3178 31.3374 37.2299 31.2946 37.1301 31.2946Z" fill="#371A45"/>
<path d="M39.5707 35.311C39.4734 35.311 39.3879 35.2421 39.3712 35.1424L38.9818 32.955C38.939 32.7151 39.0031 32.4681 39.1527 32.2971L39.6254 31.7627C39.6942 31.6844 39.7251 31.5585 39.7014 31.4397L39.1266 28.5161C39.1052 28.4069 39.1765 28.2976 39.2881 28.2762C39.3974 28.2549 39.5043 28.3261 39.528 28.4377L40.1027 31.3614C40.1502 31.606 40.0885 31.8577 39.9341 32.0335L39.4615 32.5679C39.3926 32.6462 39.3641 32.7674 39.3855 32.8837L39.775 35.0711C39.794 35.1827 39.7204 35.2872 39.6111 35.3062C39.5945 35.311 39.5826 35.311 39.5707 35.311Z" fill="#371A45"/>
<path d="M27.9598 32.1235C27.9598 32.1235 27.4658 32.7101 27.5584 33.4772C27.6677 34.3655 28.2306 34.641 28.2306 34.641C28.2306 34.641 30.6483 35.5197 34.0873 34.1232C34.0873 34.1232 34.9114 32.5106 33.6147 31.886C33.6171 31.886 29.9382 33.0569 27.9598 32.1235Z" fill="white"/>
<g opacity="0.25">
<path d="M27.5589 33.4798C27.6682 34.3657 28.231 34.6412 28.231 34.6412C28.231 34.6412 30.6488 35.5199 34.0878 34.1234C34.0878 34.1234 34.3585 33.5914 34.3443 33.0238C34.3324 33.0547 34.3229 33.0713 34.3229 33.0713C31.8078 34.0926 29.8413 33.8978 28.9649 33.7197C28.3569 33.5962 27.8819 33.0903 27.7964 32.4538C27.7964 32.4443 27.794 32.4372 27.794 32.4277C27.7917 32.4134 27.7893 32.3992 27.7893 32.3826C27.6587 32.6248 27.5019 33.0191 27.5589 33.4798Z" fill="#371A45"/>
</g>
<path d="M30.2432 35.1779C28.975 35.1779 28.2031 34.9072 28.1461 34.8858C28.1366 34.8834 28.1295 34.8787 28.12 34.8739C28.0915 34.8597 27.4288 34.5248 27.303 33.5107C27.1961 32.6414 27.74 31.9859 27.7637 31.9574C27.8397 31.8672 27.9656 31.841 28.0725 31.8909C29.9368 32.7673 33.5065 31.651 33.5421 31.6415C33.6038 31.6225 33.6727 31.6273 33.7321 31.6558C34.1287 31.8482 34.3971 32.1379 34.5253 32.5203C34.7913 33.3135 34.3425 34.2065 34.3235 34.2445C34.295 34.2992 34.2475 34.3419 34.1905 34.3657C32.6253 34.9998 31.2716 35.1779 30.2432 35.1779ZM28.3408 34.406C28.5522 34.4749 30.799 35.1518 33.9007 33.9239C33.991 33.7149 34.1928 33.1497 34.0337 32.6818C33.9601 32.4609 33.8152 32.2923 33.5943 32.1664C32.984 32.3493 29.9582 33.1829 28.0558 32.4467C27.9371 32.6462 27.7661 33.019 27.8183 33.4489C27.9015 34.1139 28.2672 34.3633 28.3408 34.406Z" fill="#371A45"/>
<path d="M29.3842 30.4466C26.3775 33.5127 22.3946 34.9069 17.9842 35.3106C16.488 35.4484 15.006 34.8902 14.0013 33.7716C13.638 33.3679 13.3197 32.919 13.0608 32.4559C12.9967 32.3419 12.935 32.2255 12.878 32.1091C12.8613 32.0735 12.8423 32.0379 12.8257 32.0022C12.5597 31.437 12.3816 30.8646 12.3056 30.3302C12.1322 29.0929 13.3553 28.1429 14.5048 28.6345C15.006 28.8482 15.4881 29.2211 15.9797 29.5679C20.6679 29.3185 23.9644 27.3591 26.1233 24.0056L28.6503 28.9955L29.3842 30.4466Z" fill="white"/>
<path d="M26.3784 24.1646C24.0722 27.834 20.2556 29.6723 15.9996 29.8646C15.9307 29.8694 15.8642 29.848 15.812 29.81C15.3014 29.468 14.8477 29.1046 14.3157 28.9075C13.5225 28.5964 12.6176 29.2519 12.6461 30.0998C12.7387 31.1115 13.1924 32.0663 13.7695 32.8928C14.8074 34.4484 16.5269 35.1941 18.3746 34.9044C18.7309 34.8711 19.2177 34.8023 19.5716 34.7548C21.9466 34.3985 24.2836 33.6765 26.3689 32.4748C27.4186 31.8834 28.3971 31.1733 29.3162 30.3753C29.359 30.3396 29.4207 30.3444 29.4564 30.3848C29.4896 30.4228 29.4896 30.4774 29.4587 30.513C28.4019 31.7813 27.0505 32.812 25.5899 33.5886C23.7516 34.5553 21.7234 35.1253 19.6832 35.4625C19.3175 35.5124 18.8211 35.5884 18.453 35.6216C16.3274 35.9541 14.3751 35.0944 13.1805 33.306C12.5297 32.3584 12.0167 31.2588 11.9455 30.0974C11.9312 29.088 12.8052 28.1784 13.8194 28.1713C14.7266 28.1475 15.4937 28.8505 16.1587 29.316L15.9711 29.2614C16.9567 29.2044 17.9376 29.0714 18.8924 28.8339C20.7971 28.3684 22.5879 27.4493 24.0129 26.0979C24.7254 25.4281 25.3476 24.661 25.8796 23.8345C26.0886 23.5186 26.5874 23.8203 26.3784 24.1646Z" fill="#371A45"/>
<path d="M18.1698 31.7171C17.8753 29.9288 17.3386 28.9693 16.7804 28.7626C16.4788 28.651 16.1582 28.8909 16.1606 29.2139C16.1629 29.7364 16.1154 30.2209 15.9444 30.6128C15.6143 30.9049 15.1773 31.406 15.1797 32.1019L18.1698 31.7171Z" fill="white"/>
<path d="M15.0823 32.102C15.0039 31.4726 15.3198 30.8409 15.7449 30.3872L15.6689 30.4917C15.8162 30.1189 15.847 29.67 15.8494 29.214C15.8494 29.119 15.866 29.0169 15.9017 28.9266C16.0418 28.5537 16.4907 28.3257 16.8707 28.473C17.3457 28.6559 17.6354 29.1214 17.8302 29.5465C18.1318 30.2234 18.2672 30.9644 18.2767 31.6959C18.2767 31.7552 18.2292 31.8051 18.1698 31.8051C18.1223 31.8051 18.0795 31.7742 18.0653 31.7315C17.9133 31.2802 17.7755 30.8314 17.6117 30.4039C17.4193 29.9265 17.2055 29.3779 16.7733 29.0905C16.721 29.0596 16.6735 29.0335 16.6165 29.0382C16.5382 29.0454 16.4669 29.1285 16.4717 29.2092C16.474 29.4562 16.4669 29.708 16.4289 29.9621C16.3933 30.2234 16.3292 30.4941 16.208 30.7506C16.1914 30.7839 16.1677 30.8124 16.1415 30.8361C15.923 30.9834 15.7259 31.1591 15.5715 31.3681C15.4172 31.5795 15.3103 31.8265 15.277 32.0996C15.2604 32.2136 15.0918 32.2136 15.0823 32.102Z" fill="#371A45"/>
<path d="M23.8683 34.3131C23.7186 34.3131 23.5904 34.2015 23.5714 34.0495C23.36 32.3371 22.3269 29.4729 20.776 28.7627C20.6264 28.6939 20.5599 28.5157 20.6288 28.3661C20.6976 28.2165 20.8758 28.15 21.0254 28.2189C22.8019 29.0335 23.9324 32.0782 24.1651 33.9782C24.1865 34.1421 24.0678 34.2917 23.9039 34.3131C23.8944 34.3131 23.8825 34.3131 23.8683 34.3131Z" fill="#371A45"/>
<g opacity="0.25">
<path d="M13.0232 31.8882C13.0256 32.0307 13.0327 32.1684 13.0469 32.3086C12.9923 32.2421 12.9353 32.1779 12.8807 32.1114C12.8546 32.0806 12.8308 32.0497 12.8047 32.0188L12.8284 32.0046L13.0232 31.8882Z" fill="#371A45"/>
</g>
<g opacity="0.25">
<path d="M29.3869 30.4469C26.3801 33.513 22.3973 34.9072 17.9869 35.3109C16.4906 35.4487 15.0086 34.8905 14.004 33.7719C13.6406 33.3682 13.3224 32.9193 13.0635 32.4562C13.0564 32.4063 13.0516 32.3564 13.0469 32.3065C13.4387 32.7697 13.8591 33.2114 14.3887 33.4964C14.7664 33.7007 15.1867 33.8123 15.6119 33.8835C17.6876 34.2255 19.78 33.5368 21.7536 32.8148C23.9054 32.0287 26.088 31.1594 27.8051 29.6418C28.064 29.4138 28.349 29.162 28.6506 28.9934L29.3869 30.4469Z" fill="#371A45"/>
</g>
<path d="M39.6074 14.836C39.32 16.8357 38.5244 18.7737 37.2277 20.4528C36.964 20.7948 36.679 21.125 36.375 21.4432C36.2278 21.5976 36.0734 21.752 35.9143 21.9016C35.4345 22.3528 34.9263 22.7566 34.3967 23.1176C33.9407 23.4287 33.468 23.7042 32.9835 23.9465C32.3993 24.241 31.796 24.4832 31.1809 24.678C30.9553 24.7492 30.732 24.8133 30.504 24.8703C26.3525 25.9248 21.7688 24.7991 18.6148 21.5287C13.9645 16.7146 14.1712 9.07421 19.0755 4.46433C20.0208 3.57846 21.0705 2.86596 22.1844 2.33158C22.315 2.26746 22.4457 2.20808 22.5787 2.15108C22.9325 1.99671 23.2935 1.85658 23.6569 1.73783C24.5 1.45996 25.3669 1.27471 26.2385 1.18446C27.1102 1.09183 27.9913 1.09183 28.8629 1.18446C29.1384 1.21296 29.4163 1.25096 29.6894 1.30083C30.1003 1.37208 30.5088 1.46471 30.9149 1.58108C32.9313 2.14633 34.8242 3.23408 36.3727 4.83958C39.0469 7.60646 40.1157 11.3115 39.6074 14.836Z" fill="white"/>
<path d="M27.4448 25.2811C24.1364 25.2811 20.9207 23.963 18.5908 21.55C16.3464 19.2249 15.1518 16.173 15.2302 12.9549C15.3086 9.71064 16.6671 6.68964 19.0539 4.44527C19.9849 3.57127 21.0347 2.85164 22.1699 2.30777C22.2934 2.24839 22.4264 2.18664 22.5666 2.12727C22.9204 1.97289 23.2838 1.83277 23.6472 1.71164C24.4856 1.43614 25.3548 1.24852 26.2359 1.15589C27.1076 1.06327 27.9934 1.06327 28.8651 1.15589C29.1453 1.18439 29.4232 1.22477 29.6939 1.27227C30.1167 1.34589 30.5299 1.44089 30.9218 1.55252C33.0023 2.13677 34.8952 3.26727 36.3938 4.81814C38.9849 7.50189 40.1677 11.1546 39.6357 14.8406C39.3412 16.8831 38.5171 18.8306 37.2512 20.4718C36.9828 20.8185 36.6954 21.1534 36.3962 21.4669C36.2608 21.6094 36.1088 21.7614 35.9331 21.9253C35.4581 22.3718 34.9474 22.7803 34.4131 23.1436C33.9666 23.4476 33.4892 23.7279 32.9976 23.9749C32.4204 24.2646 31.8124 24.5116 31.1902 24.7064C30.9669 24.7753 30.7389 24.8418 30.5109 24.8988C29.4944 25.1553 28.4637 25.2811 27.4448 25.2811ZM27.5469 1.14402C27.1099 1.14402 26.6729 1.16777 26.2383 1.21289C25.3619 1.30552 24.4951 1.49077 23.6614 1.76627C23.2981 1.88502 22.9371 2.02514 22.5856 2.17952C22.4454 2.23889 22.3148 2.30064 22.1913 2.36002C21.0608 2.90152 20.0158 3.61639 19.0896 4.48802C16.7146 6.72052 15.3632 9.72727 15.2848 12.9549C15.2064 16.1564 16.3963 19.194 18.6288 21.5073C21.6617 24.6494 26.2074 25.9271 30.4896 24.8394C30.7152 24.7824 30.9408 24.7159 31.1641 24.647C31.7839 24.4499 32.3896 24.2053 32.9619 23.9179C33.4536 23.6733 33.9262 23.393 34.3703 23.0914C34.9023 22.7304 35.4106 22.3219 35.8832 21.8778C36.0566 21.7139 36.2062 21.5643 36.3439 21.4218C36.6408 21.1106 36.9282 20.7781 37.1966 20.4314C38.4553 18.7998 39.2771 16.8641 39.5692 14.8288C40.0988 11.1618 38.9232 7.52564 36.3439 4.85614C34.8524 3.31239 32.9691 2.18664 30.9004 1.60714C30.5086 1.49552 30.0977 1.40289 29.6773 1.32927C29.4066 1.28177 29.1287 1.24377 28.8532 1.21527C28.4233 1.16777 27.9863 1.14402 27.5469 1.14402Z" fill="#371A45"/>
<g opacity="0.25">
<path d="M18.6132 21.5286C21.7696 24.799 26.3509 25.9248 30.5024 24.8703C30.7304 24.8133 30.9537 24.7491 31.1793 24.6779C31.7944 24.4831 32.3977 24.2409 32.9819 23.9464C33.4664 23.7041 33.939 23.4263 34.395 23.1175C34.9247 22.7589 35.4305 22.3528 35.9127 21.9015C36.0694 21.7495 36.2262 21.5975 36.3734 21.4431C36.6774 21.1249 36.9624 20.7924 37.226 20.4504C38.5228 18.7713 39.3184 16.8333 39.6058 14.8335C39.7649 13.7363 39.7697 12.62 39.62 11.5204C39.3018 13.4228 38.5204 15.2586 37.283 16.8618C37.0194 17.2038 36.7344 17.5363 36.4304 17.8545C36.2832 18.0089 36.1288 18.1609 35.9697 18.3129C35.4899 18.7641 34.9817 19.1703 34.4544 19.5289C33.9984 19.84 33.5258 20.1155 33.0413 20.3578C32.457 20.6499 31.8538 20.8945 31.2387 21.0893C31.013 21.1605 30.7874 21.2246 30.5618 21.2816C26.4103 22.3361 21.8289 21.2104 18.6726 17.94C16.8296 16.0329 15.7513 13.684 15.4235 11.2544C14.8179 14.8596 15.8701 18.6858 18.6132 21.5286Z" fill="#371A45"/>
</g>
<path d="M27.4461 25.483C24.0831 25.483 20.8151 24.1435 18.4448 21.6901C16.1625 19.327 14.9465 16.2205 15.0272 12.9477C15.108 9.64887 16.4878 6.57562 18.9127 4.29562C19.8603 3.40737 20.9267 2.67587 22.081 2.1225C22.2045 2.06075 22.3398 1.999 22.4847 1.93725C22.8433 1.7805 23.2115 1.638 23.582 1.51687C24.4322 1.23662 25.3181 1.04662 26.2135 0.951621C27.0993 0.856621 27.9995 0.856621 28.8853 0.951621C29.168 0.982496 29.453 1.0205 29.7285 1.07037C30.156 1.14637 30.5763 1.24137 30.9777 1.35537C33.0915 1.94912 35.0152 3.09862 36.54 4.67562C39.1762 7.4045 40.378 11.119 39.8365 14.8691C39.5372 16.9472 38.6988 18.9256 37.4116 20.5929C37.1385 20.9467 36.8463 21.2864 36.5423 21.6022C36.4046 21.7471 36.2502 21.8991 36.0745 22.0677C35.5923 22.5214 35.0722 22.9394 34.5283 23.3075C34.0747 23.6162 33.5902 23.9012 33.0891 24.153C32.5025 24.4475 31.885 24.6969 31.2532 24.8987C31.0252 24.97 30.7948 25.0365 30.5645 25.0959C29.529 25.3547 28.4816 25.483 27.4461 25.483ZM27.5482 1.34825C27.1183 1.34825 26.6885 1.372 26.261 1.41712C25.3988 1.50737 24.5462 1.69025 23.7268 1.961C23.3706 2.07975 23.0143 2.21512 22.6676 2.36712C22.5298 2.4265 22.4016 2.48587 22.2828 2.54287C21.169 3.07487 20.143 3.78025 19.231 4.63525C16.8963 6.82975 15.5663 9.78662 15.4903 12.9596C15.4143 16.1065 16.5828 19.0919 18.7773 21.3671C21.7603 24.457 26.2301 25.7134 30.4433 24.6446C30.6642 24.5876 30.8875 24.5235 31.1083 24.4546C31.7163 24.2622 32.3125 24.02 32.8753 23.7374C33.3575 23.4951 33.823 23.222 34.26 22.9227C34.7825 22.5665 35.2836 22.1675 35.7491 21.7305C35.9201 21.569 36.0673 21.4217 36.2003 21.2816C36.4948 20.9752 36.7751 20.6475 37.0387 20.3079C38.2761 18.7047 39.0836 16.8 39.3733 14.8002C39.8935 11.195 38.7368 7.62062 36.2027 4.99625C34.7373 3.47625 32.8848 2.37187 30.8495 1.7995C30.4647 1.69025 30.061 1.59762 29.6477 1.52637C29.3817 1.47887 29.1086 1.44087 28.8355 1.41237C28.4103 1.36962 27.9805 1.34825 27.5482 1.34825Z" fill="#371A45"/>
<path d="M27.4501 25.5518C24.0705 25.5518 20.7835 24.2052 18.4013 21.7375C16.1047 19.3602 14.884 16.2394 14.9647 12.9477C15.0455 9.62979 16.4325 6.54229 18.8716 4.24804C19.824 3.35504 20.8951 2.61879 22.0565 2.06304C22.18 2.00129 22.3177 1.93954 22.4626 1.87779C22.8212 1.72104 23.1941 1.57854 23.567 1.45504C24.422 1.17241 25.3126 0.982412 26.2127 0.887412C27.1033 0.792412 28.0082 0.792412 28.8988 0.887412C29.1838 0.918287 29.4688 0.956287 29.7467 1.00616C30.1766 1.08216 30.5993 1.17716 31.0007 1.29354C33.1263 1.88966 35.0596 3.04629 36.5915 4.63279C39.242 7.37591 40.4508 11.1118 39.907 14.8809C39.6053 16.9709 38.7622 18.9612 37.4678 20.6379C37.1923 20.9942 36.9002 21.3338 36.5938 21.6544C36.4561 21.7993 36.3017 21.9537 36.1236 22.1223C35.6367 22.5783 35.1142 22.9987 34.568 23.3692C34.112 23.6803 33.6251 23.9653 33.1216 24.2194C32.5326 24.5139 31.9127 24.7657 31.2762 24.9675C31.0458 25.0388 30.8131 25.1053 30.5827 25.1647C29.5448 25.4235 28.4927 25.5518 27.4501 25.5518ZM27.5522 1.41466C27.1247 1.41466 26.6972 1.43604 26.2721 1.48116C25.4147 1.57141 24.5668 1.75191 23.7522 2.02266C23.3983 2.13904 23.0445 2.27441 22.7001 2.42641C22.5623 2.48579 22.4341 2.54516 22.3177 2.60216C21.2086 3.13179 20.1897 3.83241 19.2825 4.68504C16.9597 6.86766 15.6392 9.80791 15.5632 12.9619C15.4872 16.0922 16.6486 19.0609 18.8312 21.3219C21.7976 24.3952 26.2436 25.6444 30.4331 24.5804C30.654 24.5234 30.8748 24.4617 31.0933 24.3928C31.699 24.2004 32.2903 23.9605 32.8508 23.6803C33.3306 23.4404 33.7937 23.1673 34.2283 22.8704C34.7485 22.5165 35.2472 22.1175 35.708 21.6853C35.8766 21.5238 36.0238 21.3789 36.1568 21.2388C36.449 20.9348 36.7292 20.6094 36.9905 20.2698C38.2207 18.6762 39.0235 16.7809 39.3108 14.7954C39.8286 11.2115 38.6791 7.65854 36.1568 5.04841C34.6986 3.53791 32.858 2.43829 30.8345 1.87066C30.4521 1.76141 30.0483 1.67116 29.6375 1.59754C29.3738 1.55241 29.1031 1.51441 28.83 1.48591C28.4096 1.43604 27.9821 1.41466 27.5522 1.41466Z" fill="#371A45"/>
<path d="M38.7717 17.819C33.7913 24.9321 23.4078 25.0247 19.9189 17.2205C17.5463 11.9123 20.9948 5.49508 26.3219 3.54995C30.1979 2.13445 34.6036 2.41945 38.4487 7.74183C38.4487 7.74183 39.7811 10.3591 39.7146 12.4538C39.6481 14.5486 39.2229 16.5792 39.2229 16.5792L38.7717 17.819Z" fill="#371A45"/>
<path d="M19.9192 17.2204C23.408 25.0223 33.7915 24.932 38.7719 17.8189L38.8622 17.5672C31.9557 21.607 22.9449 19.9778 19.2684 12.1545C19.0095 13.8384 19.1877 15.5817 19.9192 17.2204Z" fill="#220F2D"/>
<path d="M28.9098 24.6613C27.5014 24.6613 26.1144 24.4238 24.8177 23.9441C21.9653 22.8872 19.7684 20.7829 18.4622 17.8617C17.2628 15.1779 17.2842 12.0857 18.5239 9.15494C19.8991 5.9012 22.6303 3.26019 25.8294 2.08932C27.6059 1.44094 29.3254 1.16782 30.9333 1.27944C30.9547 1.28182 30.9737 1.28419 30.9927 1.28894C33.1207 1.88744 35.0539 3.04169 36.5858 4.6282C39.2363 7.37132 40.4452 11.1072 39.9013 14.8763C39.5997 16.9663 38.7566 18.9566 37.4622 20.6333C37.1867 20.9896 36.8946 21.3292 36.5882 21.6498C36.4504 21.7947 36.2961 21.9491 36.1179 22.1177C35.6311 22.5737 35.1086 22.9941 34.5623 23.3646C34.5504 23.3741 34.5362 23.3812 34.5219 23.3883C32.7264 24.2338 30.8003 24.6613 28.9098 24.6613ZM30.2279 1.85657C28.8979 1.85657 27.4896 2.12494 26.0384 2.65457C22.9937 3.76844 20.3907 6.28595 19.0797 9.39007C17.9064 12.1664 17.8827 15.0877 19.0132 17.6171C20.2529 20.3887 22.3334 22.3813 25.0291 23.3812C27.9028 24.4476 31.2611 24.2552 34.2464 22.8563C34.7594 22.5072 35.2511 22.1129 35.7071 21.6831C35.8757 21.5216 36.0229 21.3767 36.1559 21.2366C36.4481 20.9326 36.7283 20.6072 36.9896 20.2676C38.2198 18.6739 39.0226 16.7787 39.3099 14.7932C39.8277 11.2093 38.6782 7.65632 36.1559 5.04619C34.7048 3.54282 32.8761 2.44794 30.8621 1.87557C30.6531 1.86132 30.4417 1.85657 30.2279 1.85657Z" fill="#371A45"/>
<path d="M28.9871 23.2956C28.6404 23.2956 28.2913 23.2789 27.9445 23.2457C24.2728 22.8942 21.2898 20.7258 19.7555 17.2939C18.6986 14.9284 18.7176 12.2043 19.8101 9.62032C21.0261 6.74657 23.4368 4.41669 26.2583 3.38357C31.1175 1.60707 35.2666 3.03919 38.5893 7.63957C38.594 7.64669 38.5988 7.65382 38.6035 7.66332C38.6581 7.77257 39.9549 10.3447 39.8884 12.4632C39.8219 14.5508 39.3991 16.5981 39.3944 16.6194C39.392 16.6266 39.3896 16.6361 39.3873 16.6432L38.9384 17.8806C38.9336 17.8948 38.9265 17.9091 38.917 17.9209C36.5515 21.2982 32.818 23.2956 28.9871 23.2956ZM30.1153 3.00594C28.923 3.00594 27.6785 3.24344 26.3794 3.71607C23.6481 4.71357 21.3135 6.97219 20.1355 9.75569C19.081 12.2471 19.062 14.8714 20.0785 17.1467C21.5581 20.4574 24.439 22.5522 27.9778 22.8894C32.0319 23.2766 36.105 21.3029 38.6106 17.7357L39.0476 16.5316C39.0833 16.3606 39.4704 14.4226 39.5321 12.4489C39.5939 10.4919 38.3898 8.02669 38.2924 7.83432C35.9649 4.62094 33.2265 3.00594 30.1153 3.00594Z" fill="#371A45"/>
<path d="M14.641 18.6097C15.3393 20.885 17.2891 22.3788 18.9968 21.9466C20.7044 21.5143 21.519 19.3175 20.8208 17.0422C20.816 17.028 20.8113 17.0137 20.8065 16.9995C20.0964 14.748 18.1584 13.2778 16.465 13.7077C15.1469 14.0426 14.3584 15.4296 14.3916 17.0897C14.4011 17.5766 14.4819 18.092 14.641 18.6097Z" fill="white"/>
<g opacity="0.25">
<path d="M14.64 18.6097C15.3382 20.885 17.2881 22.3789 18.9957 21.9466C20.7034 21.5144 21.518 19.3175 20.8198 17.0422C20.815 17.028 20.8103 17.0137 20.8055 16.9995C20.6891 17.2797 20.4683 17.5837 20.0479 17.6075C19.314 17.6479 17.6206 16.5007 17.6206 16.5007C17.6206 16.5007 16.217 16.7477 14.3906 17.0921C14.4001 17.5766 14.4809 18.092 14.64 18.6097Z" fill="#371A45"/>
</g>
<path d="M18.4065 22.317C16.7368 22.317 15.015 20.8303 14.3595 18.6951C13.9296 17.2963 14.0246 15.8879 14.6207 14.8286C15.034 14.0924 15.6491 13.6031 16.3972 13.4131C18.2545 12.9429 20.3706 14.5294 21.114 16.9519C21.5438 18.3508 21.4488 19.7591 20.8527 20.8184C20.4395 21.5546 19.8243 22.0439 19.0762 22.2339C18.8553 22.2909 18.6297 22.317 18.4065 22.317ZM17.0765 13.9285C16.896 13.9285 16.7178 13.9499 16.5421 13.995C15.9578 14.1446 15.4733 14.5341 15.1408 15.1231C14.6326 16.0256 14.5542 17.2963 14.9295 18.5194C15.5802 20.6403 17.3733 22.0463 18.9242 21.652C19.5085 21.5024 19.993 21.1129 20.3255 20.5239C20.8337 19.6214 20.9121 18.3508 20.5368 17.1276C19.9597 15.249 18.4848 13.9285 17.0765 13.9285Z" fill="#371A45"/>
<path d="M18.1729 21.6309C19.4941 21.0814 19.976 19.2192 19.2492 17.4716C18.5224 15.7241 16.8621 14.7529 15.5408 15.3024C14.2195 15.8519 13.7376 17.7141 14.4645 19.4616C15.1913 21.2092 16.8516 22.1804 18.1729 21.6309Z" fill="white"/>
<path d="M17.3984 21.8139C17.3295 21.8139 17.2606 21.8115 17.1917 21.8044C16.351 21.7284 15.5197 21.1964 14.9165 20.3485C13.8335 18.8238 13.8169 16.7385 14.8832 15.7006C15.325 15.2684 15.8902 15.0713 16.5172 15.1283C17.358 15.2043 18.1892 15.7363 18.7925 16.5841C19.8755 18.1089 19.8921 20.1941 18.8257 21.232C18.4315 21.6144 17.9422 21.8139 17.3984 21.8139ZM16.3106 15.1805C15.7834 15.1805 15.3084 15.3729 14.9284 15.7458C13.8857 16.7623 13.9047 18.8119 14.9687 20.3129C15.5625 21.1489 16.3747 21.669 17.1989 21.7426C17.8045 21.7973 18.3531 21.6049 18.783 21.1869C19.8256 20.1704 19.8066 18.1208 18.7426 16.6198C18.1489 15.7838 17.3366 15.2636 16.5125 15.19C16.4436 15.1853 16.3747 15.1805 16.3106 15.1805Z" fill="#371A45"/>
<g opacity="0.25">
<path d="M19.6222 19.1416C19.5913 18.4933 19.38 17.852 19.0451 17.2915C18.9905 18.7759 17.9193 19.6998 16.5442 19.3839C15.656 19.1796 14.8461 18.5075 14.3307 17.6383C14.326 17.7309 14.3283 17.8283 14.3331 17.928C14.4138 19.5786 15.6631 21.1889 17.1237 21.5238C18.5843 21.8586 19.703 20.7923 19.6222 19.1416Z" fill="#371A45"/>
</g>
<path d="M17.4643 22.0866C16.1461 22.0866 14.752 20.8302 14.1963 19.0466C13.8281 17.8615 13.8946 16.6455 14.3768 15.7905C14.6879 15.2371 15.1486 14.8737 15.7044 14.7383C17.146 14.3845 18.8228 15.724 19.445 17.7213C19.8131 18.9065 19.7466 20.1225 19.2645 20.9775C18.9534 21.5308 18.4926 21.8942 17.9369 22.0296C17.7825 22.07 17.6234 22.0866 17.4643 22.0866ZM16.196 15.2798C16.0773 15.2798 15.9609 15.2941 15.8469 15.3226C15.455 15.4176 15.1273 15.6836 14.8993 16.0873C14.4979 16.7998 14.448 17.8401 14.7686 18.8708C15.2983 20.5713 16.6568 21.728 17.7944 21.4501C18.1863 21.3551 18.514 21.0891 18.742 20.6853C19.1434 19.9728 19.1933 18.9326 18.8726 17.9018C18.3952 16.37 17.2505 15.2798 16.196 15.2798Z" fill="#371A45"/>
<g opacity="0.5">
<path d="M24.3192 6.74177C24.3192 6.74177 29.511 5.20752 33.3704 7.0624C33.3751 7.06477 33.3775 7.06715 33.3822 7.06715C34.1945 7.45902 34.8832 8.0599 35.3796 8.80327C36.0375 9.78652 36.3462 10.5584 36.5885 11.2495C37.3295 13.3514 37.2772 14.4748 37.2772 14.4748C38.1014 12.9429 38.3412 11.4443 37.7404 9.68677C37.681 9.5134 37.6121 9.33765 37.5385 9.15952C37.5219 9.11915 37.5029 9.07877 37.4839 9.0384C37.4839 9.0384 37.4839 9.03602 37.4815 9.03602C37.3034 8.68452 37.0492 8.2309 36.7215 7.74402C35.7311 6.2739 34.0591 4.49027 31.658 4.22664C27.1669 3.73502 24.0651 6.58265 24.3192 6.74177Z" fill="white"/>
</g>
<g opacity="0.5">
<path d="M22.4161 15.084C23.318 15.0252 23.9944 14.1383 23.927 13.103C23.8596 12.0676 23.0738 11.2759 22.172 11.3346C21.2702 11.3933 20.5937 12.2802 20.6611 13.3156C20.7285 14.351 21.5143 15.1427 22.4161 15.084Z" fill="white"/>
</g>
<g opacity="0.5">
<path d="M23.2218 16.6338C23.2338 16.2051 22.9417 15.849 22.5693 15.8386C22.197 15.8282 21.8854 16.1673 21.8733 16.596C21.8613 17.0247 22.1534 17.3808 22.5258 17.3912C22.8982 17.4017 23.2098 17.0626 23.2218 16.6338Z" fill="white"/>
</g>
<defs>
<linearGradient id="paint0_linear_2765_4741" x1="39.7967" y1="58.1681" x2="42.6109" y2="60.9626" gradientUnits="userSpaceOnUse">
<stop stop-color="white"/>
<stop offset="1" stop-color="white"/>
</linearGradient>
<linearGradient id="paint1_linear_2765_4741" x1="37.6112" y1="60.3408" x2="40.4489" y2="63.1587" gradientUnits="userSpaceOnUse">
<stop stop-color="white"/>
<stop offset="1" stop-color="white"/>
</linearGradient>
</defs>
</svg>
