<svg width="95" height="95" viewBox="0 0 95 95" fill="none" xmlns="http://www.w3.org/2000/svg">
<g clip-path="url(#clip0_2_64419)">
<path d="M95 0H0V95H95V0Z" fill="#FFC700"/>
<g opacity="0.35">
<path d="M47.5002 80.5125C61.5679 80.5125 72.9721 79.6353 72.9721 78.5531C72.9721 77.471 61.5679 76.5938 47.5002 76.5938C33.4325 76.5938 22.0283 77.471 22.0283 78.5531C22.0283 79.6353 33.4325 80.5125 47.5002 80.5125Z" fill="#371A45"/>
</g>
<path d="M62.7766 73.4611H30.7972C30.7972 73.4611 30.7616 70.186 31.391 65.3196C31.5026 64.4456 31.638 63.5217 31.7995 62.5551C32.5049 58.292 33.7042 53.2214 35.7467 48.1792C36.0531 47.4216 36.3809 46.664 36.7276 45.9087C37.0031 45.3102 37.2905 44.7141 37.5921 44.1227C37.8106 43.6881 38.0386 43.2582 38.2737 42.8284H55.2977C55.5329 43.2582 55.7609 43.6905 55.9794 44.1227C56.2857 44.7212 56.5755 45.3245 56.8534 45.9301C57.25 46.7922 57.6205 47.6615 57.9649 48.5284C59.9219 53.4517 61.0832 58.387 61.7696 62.5527C61.9311 63.5241 62.0641 64.4527 62.1781 65.3267C62.8099 70.1884 62.7766 73.4611 62.7766 73.4611Z" fill="white"/>
<g opacity="0.35">
<path d="M62.7766 73.461H30.7972C30.7972 73.461 30.7616 70.1859 31.391 65.3195C31.5026 64.4455 31.638 63.5217 31.7995 62.555C32.1035 60.7192 32.5001 58.7337 33.0131 56.665C34.6827 62.0159 40.0645 66.089 46.6551 66.089H46.9401C53.5141 66.089 58.8792 62.0373 60.5679 56.7054C61.0785 58.7574 61.4704 60.731 61.772 62.5527C61.9335 63.524 62.0665 64.4527 62.1805 65.3267C62.8099 70.1883 62.7766 73.461 62.7766 73.461Z" fill="#371A45"/>
</g>
<path d="M63.1518 73.8417H30.4219L30.4171 73.4664C30.4171 73.4237 30.3839 69.2033 31.2911 63.3299C32.1295 57.9054 33.963 49.9159 37.9411 42.6484C38.0409 42.4656 38.2736 42.3967 38.4565 42.4988C38.6394 42.5986 38.7083 42.8313 38.6061 43.0142C31.7186 55.5922 31.2128 70.538 31.1771 73.084H62.3918C62.3775 71.9345 62.2707 68.2462 61.5273 63.4321C60.6984 58.0741 58.8886 50.1819 54.9628 43.0166C54.863 42.8313 54.9295 42.6009 55.1124 42.5012C55.2976 42.4014 55.528 42.4679 55.6278 42.6508C59.6083 49.9183 61.4418 57.9078 62.2778 63.3323C63.185 69.2057 63.1518 73.4284 63.1518 73.4688V73.8417Z" fill="#371A45"/>
<path d="M56.3947 72.4286H37.1786C33.7776 72.4286 31.0107 69.6617 31.0107 66.2607V50.8778C31.0107 47.4768 33.7776 44.71 37.1786 44.71H56.3947C59.7957 44.71 62.5626 47.4768 62.5626 50.8778V66.2607C62.5626 69.6617 59.7957 72.4286 56.3947 72.4286ZM37.1786 45.47C34.198 45.47 31.7707 47.8948 31.7707 50.8778V66.2607C31.7707 69.2413 34.1956 71.6686 37.1786 71.6686H56.3947C59.3754 71.6686 61.8026 69.2437 61.8026 66.2607V50.8778C61.8026 47.8972 59.3777 45.47 56.3947 45.47H37.1786Z" fill="#371A45"/>
<path d="M71.3637 64.8852C71.3637 64.8852 68.7251 77.4727 67.8654 77.753C66.6351 78.152 63.6759 77.7316 63.6759 77.7316C63.6759 77.7316 57.5222 76.898 52.0122 76.5204C50.3949 76.4087 48.8345 76.3375 47.4997 76.3375C45.9702 76.3375 44.1415 76.4325 42.2724 76.5726C36.9595 76.9692 31.326 77.7316 31.326 77.7316C31.326 77.7316 28.3667 78.152 27.1341 77.753C26.272 77.4727 23.6357 64.8852 23.6357 64.8852C25.2056 62.6147 28.8322 62.857 30.5612 66.8612C30.6064 66.79 30.6515 66.7187 30.699 66.6499C31.364 65.6737 32.3116 64.8069 33.6606 64.32C33.8672 64.244 34.0739 64.1822 34.2805 64.1276C37.1376 63.3819 39.7406 64.6501 41.5765 66.0324C41.7451 66.1582 41.9042 66.2841 42.0562 66.41C42.0729 66.4242 42.0871 66.4361 42.1037 66.448C42.2249 66.5477 42.3412 66.6475 42.4552 66.7472C43.011 67.2317 43.6237 67.6355 44.2816 67.9442C44.3766 67.987 44.4692 68.0297 44.5666 68.0701C45.4881 68.4596 46.4856 68.6662 47.5021 68.6662C49.3641 68.6662 51.1525 67.9751 52.5514 66.7472C54.1022 65.384 56.4986 63.8117 59.2394 63.9067C59.9234 63.9305 60.6264 64.0564 61.3436 64.3152C62.4456 64.7142 63.2769 65.365 63.9086 66.1202C64.1057 66.3554 64.2839 66.6024 64.443 66.8541C66.1696 62.857 69.7939 62.6147 71.3637 64.8852Z" fill="white"/>
<g opacity="0.35">
<path d="M71.3637 64.8855C71.3637 64.8855 68.7251 77.473 67.8654 77.7509C66.6351 78.1523 63.6735 77.7319 63.6735 77.7319C63.6735 77.7319 57.5222 76.8982 52.0122 76.5206C51.8104 76.5064 51.6085 76.4921 51.409 76.4803C51.2831 76.4731 51.1596 76.4636 51.0337 76.4565C50.7867 76.4423 50.5397 76.428 50.2975 76.4161C50.1764 76.4114 50.0552 76.4043 49.9365 76.3995C49.8415 76.3948 49.7465 76.39 49.6515 76.3876C49.5565 76.3829 49.4615 76.3781 49.3689 76.3758C49.2739 76.371 49.1812 76.3686 49.0886 76.3662C48.996 76.3639 48.9034 76.3615 48.8131 76.3568C48.6302 76.352 48.4521 76.3473 48.274 76.3449C48.008 76.3401 47.7515 76.3378 47.4997 76.3378C47.3905 76.3378 47.2789 76.3378 47.1649 76.3401C46.9939 76.3401 46.8229 76.3449 46.6447 76.3473C46.6329 76.3473 46.621 76.3473 46.6091 76.3473C46.4666 76.3496 46.3241 76.3544 46.1816 76.3568C46.0367 76.3615 45.8919 76.3663 45.7422 76.371C45.1817 76.39 44.5999 76.4185 44.0037 76.4541C43.8897 76.4613 43.7757 76.4684 43.6617 76.4755C43.4337 76.4898 43.201 76.504 42.9706 76.5206C42.7379 76.5349 42.5051 76.5539 42.2724 76.5705C36.9595 76.9671 31.3236 77.7295 31.3236 77.7295C31.3236 77.7295 28.3644 78.1523 27.1341 77.7485C26.2744 77.473 23.6357 64.8855 23.6357 64.8855C23.8946 64.5126 24.2081 64.2063 24.5596 63.9735C25.4051 67.6643 26.6069 72.4808 27.1341 72.6541C28.3644 73.0531 31.3236 72.6328 31.3236 72.6328C31.3236 72.6328 31.858 72.4879 32.751 72.2646C33.9029 71.9773 34.2947 70.5356 33.4469 69.7068C32.4494 68.7306 31.516 67.7094 30.6966 66.6525C31.3616 65.6764 32.3092 64.8095 33.6582 64.3226C33.8649 64.2466 34.0715 64.1849 34.2781 64.1303C37.1352 63.3845 39.7382 64.6528 41.5741 66.035C41.7427 66.1609 41.9019 66.2868 42.0539 66.4126C42.0705 66.4269 42.0847 66.4388 42.1014 66.4506C42.2225 66.5504 42.3389 66.6501 42.4529 66.7499C43.0086 67.2344 43.6214 67.6381 44.2792 67.9469C44.3742 67.9896 44.4669 68.0324 44.5642 68.0728C45.4857 68.4623 46.4832 68.6689 47.4997 68.6689C49.3617 68.6689 51.1501 67.9778 52.549 66.7499C54.0999 65.3866 56.4962 63.8144 59.237 63.9094C59.921 63.9331 60.624 64.059 61.3412 64.3179C62.4432 64.7169 63.2745 65.3676 63.9062 66.1229C63.0346 67.2938 62.0157 68.4314 60.9161 69.5144C60.909 69.5215 60.9019 69.5286 60.8947 69.5334C60.0421 70.3718 60.434 71.8158 61.5954 72.0984C62.8755 72.4119 63.6735 72.628 63.6735 72.628C63.6735 72.628 66.6327 73.0508 67.8654 72.6494C68.3926 72.4784 69.5944 67.6595 70.4399 63.9688C70.7914 64.2063 71.1049 64.5126 71.3637 64.8855Z" fill="#371A45"/>
</g>
<path d="M28.7215 78.3042C28.0802 78.3042 27.4556 78.2567 27.0162 78.1142C26.7051 78.0121 26.2776 77.8744 24.6935 71.3051C23.9335 68.1535 23.2708 64.9971 23.2637 64.9662L23.2305 64.8071L23.3231 64.6717C24.0997 63.546 25.3632 62.9522 26.7027 63.0852C28.2845 63.242 29.6881 64.3321 30.6215 66.1086C31.391 65.104 32.3671 64.3844 33.5285 63.964C35.8892 63.109 38.3687 63.4937 40.9028 65.1064C41.081 65.218 41.1308 65.4531 41.0192 65.6312C40.9076 65.8094 40.6725 65.8592 40.4943 65.7476C38.1716 64.268 35.913 63.9094 33.7873 64.6789C32.5856 65.1135 31.6071 65.9162 30.8803 67.0657L30.4956 67.6737L30.2106 67.0135C29.4031 65.1444 28.0968 63.9877 26.6267 63.8429C25.6197 63.7431 24.665 64.1635 24.0427 64.9757C25.235 70.6472 26.7597 76.7486 27.3036 77.4089C28.2726 77.6915 30.4861 77.4682 31.2722 77.3566C31.3791 77.3424 41.6628 75.9577 47.5006 75.9577C53.3383 75.9577 63.6245 77.34 63.7266 77.3542C64.5127 77.4659 66.7262 77.6891 67.6976 77.4065C68.2415 76.7462 69.7662 70.6449 70.9585 64.9734C70.3362 64.1635 69.3791 63.7407 68.3745 63.8405C66.9043 63.9854 65.5981 65.142 64.7906 67.0111L64.5056 67.6714L64.1208 67.0634C63.3941 65.9139 62.4156 65.1111 61.2138 64.6765C59.0668 63.8999 56.7916 64.2727 54.4475 65.7832C54.2717 65.8972 54.0366 65.845 53.9226 65.6692C53.8086 65.4935 53.8608 65.2584 54.0366 65.1444C56.5541 63.5222 59.1262 63.1137 61.4727 63.9616C62.6341 64.382 63.6102 65.1016 64.3797 66.1062C65.3131 64.3297 66.7167 63.2396 68.2985 63.0829C69.6356 62.9499 70.8991 63.5436 71.6781 64.6694L71.7707 64.8047L71.7375 64.9639C71.7303 64.9947 71.0677 68.1535 70.3077 71.3027C68.7236 77.872 68.2961 78.0121 67.985 78.1119C66.6835 78.5346 63.748 78.1237 63.6221 78.1071C63.5223 78.0929 53.2861 76.7177 47.5006 76.7177C41.7151 76.7177 31.4788 78.0952 31.3767 78.1071C31.296 78.119 29.9778 78.3042 28.7215 78.3042Z" fill="#371A45"/>
<path d="M67.1009 77.7508H67.8656C68.7634 77.7508 69.578 77.2235 69.9438 76.4041C71.0885 73.8415 73.1761 68.208 71.2215 64.7714C71.1645 64.6716 71.1028 64.5743 71.0386 64.4816C71.0386 64.4816 69.1624 62.774 67.8134 65.1894C66.5546 67.448 63.9113 77.0929 67.1009 77.7508Z" fill="#AFAFB2"/>
<g opacity="0.7">
<path d="M67.123 66.7995C67.1563 66.7448 67.1895 66.6949 67.2228 66.6474C68.8805 64.2321 71.189 65.9397 71.189 65.9397C71.2674 66.0323 71.3434 66.1297 71.4123 66.2295C71.6427 66.5596 71.8279 66.9111 71.9728 67.2792C71.8802 66.3767 71.645 65.5241 71.2199 64.7736C71.1629 64.6738 71.1012 64.5765 71.037 64.4838C71.037 64.4838 69.1608 62.7762 67.8118 65.1916C67.6099 65.5573 67.37 66.1155 67.123 66.7995Z" fill="white"/>
</g>
<path d="M71.962 67.5622C71.9407 67.5622 71.9193 67.5598 71.8979 67.5574L67.2073 66.7737C67.0007 66.7381 66.8605 66.5433 66.8962 66.3367C66.9318 66.1301 67.1265 65.9899 67.3332 66.0256L72.0238 66.8093C72.2304 66.8449 72.3705 67.0397 72.3349 67.2463C72.3064 67.4292 72.1449 67.5622 71.962 67.5622Z" fill="#371A45"/>
<path d="M71.9339 70.0966C71.9172 70.0966 71.9006 70.0966 71.8816 70.0942L66.3954 69.3556C66.1864 69.3271 66.0415 69.1371 66.07 68.9281C66.0985 68.7191 66.2861 68.5742 66.4975 68.6027L71.9837 69.3413C72.1927 69.3698 72.3376 69.5598 72.3091 69.7688C72.283 69.9565 72.1215 70.0966 71.9339 70.0966Z" fill="#371A45"/>
<path d="M71.449 72.5781C71.4348 72.5781 71.4181 72.5781 71.4015 72.5757L65.8321 71.8941C65.6231 71.8679 65.4759 71.6779 65.502 71.4713C65.5282 71.2623 65.7182 71.1151 65.9248 71.1412L71.4941 71.8228C71.7031 71.8489 71.8504 72.0389 71.8243 72.2456C71.8029 72.4356 71.639 72.5781 71.449 72.5781Z" fill="#371A45"/>
<path d="M70.5661 75.2854C70.5542 75.2854 70.5423 75.2854 70.5304 75.283L65.5501 74.8342C65.3411 74.8152 65.1867 74.6299 65.2057 74.4209C65.2247 74.2119 65.4099 74.0575 65.6189 74.0765L70.5993 74.5254C70.8083 74.5444 70.9627 74.7297 70.9437 74.9387C70.9271 75.1358 70.7608 75.2854 70.5661 75.2854Z" fill="#371A45"/>
<g opacity="0.35">
<path d="M67.1009 77.7509H67.8657C68.7634 77.7509 69.5781 77.2237 69.9438 76.4043C70.2407 75.7393 70.5993 74.87 70.9366 73.8868C70.4782 74.6492 69.5448 75.1313 68.5212 75.1313H67.6092C66.3124 74.9056 65.8232 73.635 65.8042 71.9678C65.3648 74.7821 65.4859 77.4184 67.1009 77.7509Z" fill="#371A45"/>
</g>
<path d="M67.8663 78.1311H67.0635L67.0255 78.124C66.3985 77.9957 65.9259 77.5896 65.6195 76.9175C64.3109 74.0556 66.4508 66.857 67.4839 65.0068C67.9613 64.1518 68.5621 63.6602 69.2723 63.5438C70.36 63.3657 71.2578 64.1685 71.2958 64.2017L71.3266 64.2302L71.3504 64.2658C71.4216 64.368 71.4881 64.4748 71.5523 64.5841C73.5449 68.0872 71.6164 73.5901 70.2912 76.5588C69.866 77.516 68.9137 78.1311 67.8663 78.1311ZM67.1443 77.3711H67.8663C68.6144 77.3711 69.2936 76.9317 69.5976 76.2501C70.6189 73.9653 72.7873 68.2915 70.892 64.9593C70.8493 64.8833 70.8042 64.8097 70.7543 64.7385C70.6189 64.6292 70.0275 64.1851 69.3887 64.292C68.9208 64.3703 68.5028 64.7337 68.1441 65.375C67.0635 67.3082 65.1968 74.172 66.3083 76.5992C66.5078 77.0338 66.7809 77.2856 67.1443 77.3711Z" fill="#371A45"/>
<path d="M27.8997 77.7508H27.1349C26.2372 77.7508 25.4226 77.2235 25.0568 76.4041C23.9121 73.8415 21.8244 68.208 23.7791 64.7714C23.8361 64.6716 23.8978 64.5743 23.9619 64.4816C23.9619 64.4816 25.8382 62.774 27.1872 65.1894C28.4459 67.448 31.0893 77.0929 27.8997 77.7508Z" fill="#AFAFB2"/>
<g opacity="0.7">
<path d="M27.8781 66.7995C27.8448 66.7448 27.8116 66.6949 27.7783 66.6474C26.1206 64.2321 23.8121 65.9397 23.8121 65.9397C23.7337 66.0323 23.6577 66.1297 23.5888 66.2295C23.3584 66.5596 23.1732 66.9111 23.0283 67.2792C23.1209 66.3767 23.3561 65.5241 23.7812 64.7736C23.8382 64.6738 23.8999 64.5765 23.9641 64.4838C23.9641 64.4838 25.8403 62.7762 27.1893 65.1916C27.3912 65.5573 27.6311 66.1155 27.8781 66.7995Z" fill="white"/>
</g>
<path d="M23.038 67.5624C22.8551 67.5624 22.6936 67.4317 22.6628 67.2441C22.6271 67.0375 22.7673 66.8404 22.9739 66.8071L27.6645 66.0234C27.8735 65.9877 28.0683 66.1279 28.1015 66.3345C28.1371 66.5411 27.997 66.7382 27.7904 66.7715L23.0998 67.5552C23.0784 67.56 23.057 67.5624 23.038 67.5624Z" fill="#371A45"/>
<path d="M23.0653 70.0962C22.8777 70.0962 22.7138 69.9585 22.6901 69.7661C22.6616 69.5571 22.8088 69.3671 23.0154 69.3386L28.5017 68.6C28.7107 68.5715 28.9007 68.7187 28.9292 68.9253C28.9577 69.1343 28.8104 69.3243 28.6038 69.3528L23.1176 70.0915C23.0986 70.0938 23.0819 70.0962 23.0653 70.0962Z" fill="#371A45"/>
<path d="M23.5505 72.5782C23.3605 72.5782 23.1966 72.4381 23.1729 72.2433C23.1468 72.0343 23.2964 71.8443 23.503 71.8206L29.0724 71.1389C29.2814 71.1128 29.469 71.2624 29.4951 71.4691C29.5213 71.6781 29.3716 71.8681 29.165 71.8918L23.5956 72.5734C23.5814 72.5782 23.5671 72.5782 23.5505 72.5782Z" fill="#371A45"/>
<path d="M24.4339 75.2854C24.2391 75.2854 24.0729 75.1382 24.0563 74.9387C24.0373 74.7297 24.1916 74.5444 24.4006 74.5254L29.381 74.0765C29.59 74.0575 29.7753 74.2119 29.7943 74.4209C29.8133 74.6299 29.6589 74.8152 29.4499 74.8342L24.4695 75.283C24.4576 75.283 24.4458 75.2854 24.4339 75.2854Z" fill="#371A45"/>
<g opacity="0.35">
<path d="M27.8991 77.7509H27.1344C26.2366 77.7509 25.422 77.2237 25.0562 76.4043C24.7594 75.7393 24.4007 74.87 24.0635 73.8868C24.5219 74.6492 25.4552 75.1313 26.4789 75.1313H27.3909C28.6876 74.9056 29.1769 73.635 29.1959 71.9678C29.6352 74.7821 29.5141 77.4184 27.8991 77.7509Z" fill="#371A45"/>
</g>
<path d="M27.937 78.1311H27.1342C26.0868 78.1311 25.1345 77.5136 24.7093 76.5588C23.3841 73.5901 21.458 68.0872 23.4482 64.5841C23.51 64.4748 23.5765 64.368 23.6501 64.2658L23.6738 64.2302L23.7047 64.2017C23.7427 64.1685 24.6405 63.3657 25.7282 63.5438C26.4383 63.6602 27.0392 64.1518 27.5166 65.0068C28.5497 66.857 30.6896 74.0556 29.381 76.9175C29.0746 77.5872 28.602 77.9933 27.975 78.124L27.937 78.1311ZM24.2462 64.7408C24.1987 64.8121 24.1536 64.8857 24.1108 64.9593C22.2156 68.2915 24.384 73.9653 25.4028 76.2501C25.7068 76.9317 26.3861 77.3711 27.1342 77.3711H27.8586C28.222 77.2832 28.4951 77.0315 28.6922 76.6016C29.8037 74.1743 27.937 67.3106 26.8563 65.3773C26.5001 64.7385 26.0797 64.3727 25.6118 64.2943C24.9753 64.1875 24.384 64.6292 24.2462 64.7408Z" fill="#371A45"/>
<path d="M36.53 77.3922C36.4849 77.3922 36.4398 77.3827 36.397 77.359C36.2569 77.2854 36.2046 77.1144 36.2759 76.9742C37.6249 74.395 37.6463 71.4951 36.3353 68.353C35.3473 65.9875 33.9341 64.3701 33.9199 64.3535C33.8154 64.2347 33.8273 64.0542 33.946 63.9521C34.0648 63.8476 34.2429 63.8595 34.3474 63.9782C34.4068 64.0471 35.8294 65.6716 36.853 68.1179C38.2186 71.3811 38.1949 74.5351 36.7794 77.2379C36.7319 77.3352 36.6321 77.3922 36.53 77.3922Z" fill="#371A45"/>
<path d="M58.6004 77.3918C58.4982 77.3918 58.3985 77.3372 58.3486 77.2398C56.9331 74.5371 56.9094 71.3831 58.275 68.1198C59.2986 65.6736 60.7212 64.0467 60.7806 63.9802C60.8851 63.8615 61.0656 63.852 61.182 63.9541C61.3007 64.0586 61.3102 64.2391 61.2081 64.3555C61.1939 64.3721 59.7807 65.9895 58.7951 68.355C57.4841 71.4947 57.5055 74.3946 58.8545 76.9762C58.9281 77.1163 58.8735 77.2873 58.7334 77.361C58.6906 77.38 58.6455 77.3918 58.6004 77.3918Z" fill="#371A45"/>
<g opacity="0.35">
<path d="M47.8799 62.5222C47.9963 62.7003 48.1103 62.8761 48.2195 63.0495C48.1079 62.8761 47.9963 62.698 47.8799 62.5222Z" fill="#371A45"/>
</g>
<path d="M41.2998 62.6193C39.5732 63.3176 36.8989 63.1727 35.0749 62.9518C33.9824 62.8188 33.2153 61.8118 33.3744 60.7217C33.5217 59.7266 34.3957 59.0046 35.4003 59.0521C37.1055 59.1328 39.6634 59.1684 41.2832 58.8098" fill="white"/>
<g opacity="0.35">
<path d="M41.3 62.6197C39.5709 63.3204 36.8991 63.1731 35.0751 62.9522C33.9826 62.8192 33.2154 61.8099 33.3769 60.7221C33.4078 60.4989 33.4791 60.2922 33.5788 60.0999C33.8662 60.6485 34.4124 61.0546 35.0774 61.1354C36.8967 61.3562 39.5662 61.5035 41.2952 60.8076L41.3 62.6197Z" fill="#371A45"/>
</g>
<path d="M37.8672 63.515C36.872 63.515 35.8793 63.4319 35.0314 63.3298C34.402 63.2538 33.8415 62.9332 33.4568 62.4273C33.0697 61.9214 32.9082 61.2944 33.0032 60.665C33.1789 59.4728 34.2192 58.613 35.4233 58.67C37.2045 58.7532 39.6532 58.7817 41.204 58.4373C41.4249 58.3874 41.9735 58.3898 42.3084 59.468C42.6599 60.5985 42.629 62.4914 41.4463 62.9712C40.4393 63.3773 39.1497 63.515 37.8672 63.515ZM35.3093 59.43C34.5303 59.43 33.8677 59.9977 33.7537 60.7767C33.6895 61.2018 33.7988 61.6245 34.06 61.9665C34.3189 62.3062 34.6965 62.5223 35.1217 62.5745C36.9742 62.7978 39.5273 62.9284 41.1565 62.2682C41.6244 62.0782 41.7146 61.3182 41.7313 60.9999C41.7811 60.0737 41.4866 59.3232 41.3251 59.1902C39.6912 59.544 37.195 59.5179 35.3829 59.4324C35.3592 59.43 35.333 59.43 35.3093 59.43Z" fill="#371A45"/>
<path d="M60.7377 62.9521C59.8827 63.0566 58.8377 63.1421 57.7927 63.1326C57.7215 63.1326 57.6502 63.1326 57.579 63.1302C57.503 63.1302 57.427 63.1279 57.351 63.1231C57.2987 63.1231 57.2488 63.1207 57.2013 63.1184C57.142 63.116 57.0826 63.1112 57.0232 63.1089C56.9472 63.1041 56.8736 63.0994 56.7976 63.0946H56.7928C56.7192 63.0899 56.6432 63.0827 56.5696 63.0756C56.5197 63.0709 56.4722 63.0661 56.4223 63.0614C56.382 63.059 56.3392 63.0519 56.2988 63.0471C56.2347 63.04 56.1706 63.0305 56.1088 63.021C56.0495 63.0115 55.9901 63.0044 55.9331 62.9949C55.9212 62.9949 55.9093 62.9925 55.8975 62.9901C55.8286 62.9806 55.7621 62.9687 55.6956 62.9545C55.6291 62.9426 55.5626 62.9284 55.4961 62.9141C55.4913 62.9141 55.4842 62.9117 55.4795 62.9117C55.4415 62.9022 55.4058 62.8951 55.3702 62.8856C55.3298 62.8761 55.2895 62.8666 55.2491 62.8571C55.1256 62.8262 55.0045 62.7906 54.8881 62.755C54.824 62.736 54.7622 62.7146 54.7005 62.6909C54.6387 62.6695 54.577 62.6457 54.5176 62.622L54.5247 60.7932L54.5342 58.8125C54.9498 58.9051 55.4248 58.9716 55.9331 59.0167C57.408 59.1497 59.1465 59.1141 60.4171 59.0547C60.448 59.0547 60.4788 59.0524 60.5097 59.0524C61.474 59.0524 62.3005 59.7625 62.443 60.7244C62.5973 61.8121 61.8302 62.8191 60.7377 62.9521Z" fill="white"/>
<g opacity="0.35">
<path d="M60.7377 62.9519C59.8827 63.0564 58.8377 63.1419 57.7927 63.1324C57.7215 63.1324 57.6502 63.1324 57.579 63.13C57.503 63.13 57.427 63.1276 57.351 63.1229C57.2987 63.1229 57.2488 63.1205 57.2013 63.1181C57.142 63.1158 57.0826 63.111 57.0232 63.1086C56.9472 63.1039 56.8736 63.0991 56.7976 63.0944H56.7928C56.7192 63.0896 56.6432 63.0825 56.5696 63.0754C56.5197 63.0706 56.4722 63.0659 56.4223 63.0611C56.382 63.0588 56.3392 63.0516 56.2988 63.0469C56.2347 63.0398 56.1706 63.0303 56.1088 63.0208C56.0495 63.0113 55.9901 63.0041 55.9331 62.9946C55.9212 62.9946 55.9093 62.9923 55.8975 62.9899C55.8286 62.9804 55.7621 62.9685 55.6956 62.9543C55.6291 62.9424 55.5626 62.9281 55.4961 62.9139C55.4913 62.9139 55.4842 62.9115 55.4795 62.9115C55.4415 62.902 55.4058 62.8949 55.3702 62.8854C55.3298 62.8759 55.2895 62.8664 55.2491 62.8569C55.1256 62.826 55.0045 62.7904 54.8881 62.7548C54.824 62.7358 54.7622 62.7144 54.7005 62.6906C54.6387 62.6693 54.577 62.6455 54.5176 62.6218L54.5247 60.793V60.66C54.5793 60.6838 54.6387 60.7051 54.6981 60.7265C54.7598 60.7479 54.824 60.7693 54.8857 60.7906C55.0045 60.8286 55.1256 60.8619 55.2467 60.8928C55.2871 60.9046 55.3275 60.9141 55.3678 60.9213C55.4035 60.9308 55.4415 60.9379 55.4771 60.9474L55.4937 60.9498C55.5602 60.964 55.6267 60.9759 55.6932 60.9901C55.7597 61.0044 55.8262 61.0163 55.8951 61.0258C55.907 61.0281 55.9188 61.0305 55.9307 61.0305C55.9877 61.04 56.0471 61.0495 56.1065 61.0566C56.1682 61.0661 56.2323 61.0733 56.2965 61.0828C56.3368 61.0875 56.3772 61.0923 56.42 61.097C56.4675 61.1018 56.5173 61.1089 56.5672 61.1113C56.6408 61.1184 56.7168 61.1255 56.7905 61.1303H56.7952C56.8688 61.135 56.9448 61.1421 57.0208 61.1445C57.0802 61.1469 57.1396 61.1516 57.199 61.154C57.2488 61.1564 57.2987 61.1588 57.3486 61.1588C57.4246 61.1611 57.5006 61.1635 57.5766 61.1659C57.6478 61.1683 57.7191 61.1683 57.7903 61.1683C58.8353 61.1778 59.878 61.0899 60.7353 60.9878C61.3695 60.9118 61.8967 60.5389 62.1936 60.0259C62.3147 60.2349 62.3978 60.47 62.4358 60.7218C62.5973 61.8119 61.8302 62.8189 60.7377 62.9519Z" fill="#371A45"/>
</g>
<path d="M57.949 63.5151C56.6665 63.5151 55.3769 63.3773 54.3723 62.9736C53.1895 62.4938 53.1586 60.6009 53.5101 59.4704C53.845 58.3946 54.3936 58.3922 54.6145 58.4397C56.1654 58.7841 58.614 58.7556 60.3953 58.6724C61.597 58.6154 62.6373 59.4728 62.8154 60.6674C62.908 61.2968 62.7465 61.9238 62.3618 62.4297C61.977 62.9356 61.4165 63.2562 60.7871 63.3322C59.9369 63.4319 58.9441 63.5151 57.949 63.5151ZM54.4886 59.1902C54.3271 59.3232 54.0326 60.0761 54.0825 61.0023C54.0991 61.3206 54.1918 62.0806 54.6573 62.2682C56.2889 62.9284 58.8396 62.8002 60.6921 62.5746C61.1173 62.5223 61.4949 62.3062 61.7538 61.9666C62.015 61.6246 62.1243 61.2018 62.0601 60.7767C61.9414 59.9716 61.2408 59.3944 60.4285 59.4301C58.6188 59.5156 56.1226 59.5417 54.4886 59.1902Z" fill="#371A45"/>
<path d="M55.1803 57.5513V63.6574C55.1803 64.7903 54.254 65.7166 53.1212 65.7166H41.8755C40.745 65.7166 39.8164 64.7903 39.8164 63.6574V57.5513C39.8164 56.4184 40.7427 55.4922 41.8755 55.4922H53.1212C53.7885 55.4922 54.3823 55.8128 54.7599 56.3092C55.0235 56.6536 55.1803 57.0834 55.1803 57.5513Z" fill="white"/>
<g opacity="0.35">
<path d="M55.1817 57.5515V63.6576C55.1817 64.7905 54.2554 65.7168 53.1202 65.7168H41.8746C40.7417 65.7168 39.8154 64.7905 39.8154 63.6576V61.3729C41.0196 63.7146 45.1141 64.6361 48.4794 64.2941C49.2323 64.2181 49.7691 63.5033 49.5909 62.7694C49.5363 62.5509 49.5078 62.3181 49.5078 62.0783C49.5078 60.7459 50.3913 59.6676 51.4791 59.6676C52.5312 59.6676 53.3933 60.677 53.4479 61.95C54.7969 60.1854 54.8706 57.827 54.7566 56.3118C55.0249 56.6538 55.1817 57.086 55.1817 57.5515Z" fill="#371A45"/>
</g>
<path d="M53.1213 66.0967H41.8756C40.5314 66.0967 39.4365 65.0018 39.4365 63.6576V57.5514C39.4365 56.2072 40.5314 55.1123 41.8756 55.1123H53.1213C54.4655 55.1123 55.5604 56.2072 55.5604 57.5514V63.6576C55.5604 65.0018 54.4679 66.0967 53.1213 66.0967ZM41.878 55.8723C40.9518 55.8723 40.1989 56.6252 40.1989 57.5514V63.6576C40.1989 64.5838 40.9518 65.3367 41.878 65.3367H53.1236C54.0499 65.3367 54.8028 64.5838 54.8028 63.6576V57.5514C54.8028 56.6252 54.0499 55.8723 53.1236 55.8723H41.878Z" fill="#371A45"/>
<path d="M52.7392 61.8594C53.433 61.1657 53.433 60.0409 52.7392 59.3471C52.0454 58.6533 50.9206 58.6533 50.2269 59.3471C49.5331 60.0409 49.5331 61.1657 50.2269 61.8594C50.9206 62.5532 52.0454 62.5532 52.7392 61.8594Z" fill="#22A7F0"/>
<path d="M53.26 60.6032C53.26 60.7005 53.2529 60.7932 53.2363 60.8858C53.1009 60.0403 52.367 59.3919 51.4835 59.3919C50.6 59.3919 49.8662 60.0379 49.7308 60.8858C49.7142 60.7932 49.707 60.6982 49.707 60.6032C49.707 59.6223 50.5027 58.8267 51.4835 58.8267C52.4644 58.829 53.26 59.6223 53.26 60.6032Z" fill="white"/>
<g opacity="0.35">
<path d="M53.26 60.6031C53.26 61.584 52.4644 62.3796 51.4835 62.3796C50.5027 62.3796 49.707 61.584 49.707 60.6031C49.707 60.3751 49.7498 60.159 49.8282 59.9595C50.0847 60.6221 50.7283 61.09 51.4812 61.09C52.234 61.09 52.88 60.6221 53.1342 59.9595C53.2173 60.159 53.26 60.3775 53.26 60.6031Z" fill="#371A45"/>
</g>
<path d="M51.4834 62.6645C50.3481 62.6645 49.4219 61.7406 49.4219 60.603C49.4219 59.4678 50.3458 58.5415 51.4834 58.5415C52.621 58.5415 53.5449 59.4654 53.5449 60.603C53.5449 61.7406 52.621 62.6645 51.4834 62.6645ZM51.4834 59.1139C50.6616 59.1139 49.9919 59.7836 49.9919 60.6054C49.9919 61.4271 50.6616 62.0969 51.4834 62.0969C52.3051 62.0969 52.9749 61.4271 52.9749 60.6054C52.9749 59.7836 52.3051 59.1139 51.4834 59.1139Z" fill="#371A45"/>
<path d="M46.4501 66.0016C46.2934 66.0016 46.1651 65.8734 46.1651 65.7166V61.5058L44.03 59.8979C43.9588 59.8433 43.916 59.7601 43.916 59.6699V55.4923C43.916 55.3355 44.0443 55.2073 44.201 55.2073C44.3578 55.2073 44.486 55.3355 44.486 55.4923V59.5274L46.6211 61.1353C46.6924 61.1899 46.7351 61.273 46.7351 61.3633V65.7166C46.7351 65.8734 46.6093 66.0016 46.4501 66.0016Z" fill="#371A45"/>
<path d="M63.2377 38.3823C63.0549 38.3966 62.8957 38.2588 62.8815 38.0759L62.169 28.5237C62.1547 28.3408 62.2925 28.1817 62.4754 28.1674C64.3967 28.0249 66.0711 29.4642 66.2136 31.3856L66.4559 34.6417C66.6007 36.5654 65.1591 38.2398 63.2377 38.3823Z" fill="white"/>
<path d="M63.2142 38.4514C63.1192 38.4514 63.0266 38.4182 62.953 38.3541C62.8722 38.2852 62.8223 38.1878 62.8152 38.0809L62.1027 28.5287C62.0861 28.3078 62.2523 28.1154 62.4732 28.0988C63.4208 28.0276 64.34 28.3316 65.0596 28.9514C65.7792 29.5713 66.2162 30.4334 66.2851 31.3811L66.5273 34.6372C66.5986 35.5848 66.2946 36.5039 65.6747 37.2236C65.0548 37.9432 64.1927 38.3802 63.2451 38.4491C63.2332 38.4514 63.2237 38.4514 63.2142 38.4514ZM62.7416 28.2271C62.6561 28.2271 62.5682 28.2294 62.4803 28.2366C62.3355 28.2484 62.2262 28.3743 62.2357 28.5192L62.9482 38.0714C62.953 38.1427 62.9862 38.2068 63.0385 38.2519C63.0907 38.2971 63.1596 38.3208 63.2308 38.3161C64.1428 38.2472 64.9717 37.8292 65.5678 37.1357C66.164 36.4422 66.4537 35.5611 66.3872 34.6491L66.145 31.3929C66.0761 30.4809 65.6581 29.6521 64.967 29.0559C64.3423 28.5144 63.5586 28.2271 62.7416 28.2271Z" fill="#371A45"/>
<g opacity="0.35">
<path d="M66.3442 33.1172L66.4582 34.6443C66.6007 36.5657 65.1614 38.2401 63.2377 38.3826C63.0548 38.3968 62.8957 38.2591 62.8814 38.0762L62.6914 35.5373C62.7508 35.6489 62.8743 35.7202 63.0073 35.7107L63.2329 35.6941C64.7529 35.5801 65.9713 34.5113 66.3442 33.1172Z" fill="#371A45"/>
</g>
<path d="M63.2132 38.7649C63.0422 38.7649 62.8807 38.7055 62.75 38.5915C62.6052 38.468 62.5197 38.2946 62.5054 38.1046L61.7929 28.5524C61.7644 28.1605 62.0589 27.8185 62.4508 27.7876C63.4815 27.7116 64.479 28.0394 65.2628 28.7139C66.0465 29.3884 66.5192 30.3265 66.5975 31.3573L66.8398 34.6134C66.9158 35.6441 66.588 36.6416 65.9135 37.4254C65.239 38.2091 64.3009 38.6818 63.2702 38.7601C63.2488 38.7625 63.2298 38.7649 63.2132 38.7649ZM62.5505 28.5429L63.2559 38.0001C64.0658 37.9265 64.802 37.5489 65.334 36.9314C65.8755 36.302 66.1392 35.4993 66.0774 34.6704L65.8352 31.4143C65.7734 30.5854 65.3934 29.8325 64.764 29.291C64.1465 28.759 63.3604 28.4954 62.5505 28.5429Z" fill="#371A45"/>
<path d="M30.9459 30.5237C31.1288 30.5095 31.2879 30.6472 31.3022 30.8301L32.0147 40.3823C32.0289 40.5652 31.8912 40.7243 31.7083 40.7386C29.7869 40.8811 28.1126 39.4418 27.9701 37.5205L27.7278 34.2643C27.5829 32.3406 29.0246 30.6662 30.9459 30.5237Z" fill="white"/>
<path d="M31.447 40.8169C29.604 40.8169 28.0412 39.3919 27.9035 37.5252L27.6612 34.2691C27.5163 32.3121 28.9865 30.6021 30.9435 30.4572C31.162 30.4406 31.3567 30.6068 31.3733 30.8277L32.0858 40.3799C32.093 40.4868 32.0597 40.5913 31.9908 40.6721C31.922 40.7528 31.8246 40.8027 31.7177 40.8098C31.6227 40.8122 31.5348 40.8169 31.447 40.8169ZM30.9506 30.5902C29.0696 30.7303 27.6541 32.3762 27.7942 34.2548L28.0365 37.5109C28.1766 39.3919 29.8225 40.8074 31.7011 40.6673C31.7723 40.6626 31.8365 40.6293 31.8816 40.5771C31.9267 40.5224 31.9505 40.4559 31.9457 40.3847L31.2332 30.8324C31.2237 30.6899 31.0955 30.5807 30.9506 30.5902Z" fill="#371A45"/>
<g opacity="0.35">
<path d="M31.8178 37.7321L32.0149 40.3826C32.0292 40.5654 31.8914 40.7246 31.7085 40.7388C30.6992 40.8148 29.7587 40.4538 29.0723 39.8149C28.4524 39.2378 28.0392 38.4327 27.9703 37.5207L27.8682 36.1479C28.5047 37.3117 29.7824 38.0598 31.1908 37.9553L31.5399 37.9292C31.6658 37.9173 31.7679 37.8389 31.8178 37.7321Z" fill="#371A45"/>
</g>
<path d="M31.4457 41.1279C29.4412 41.1279 27.743 39.5771 27.591 37.5464L27.3488 34.2903C27.1897 32.1623 28.7904 30.3027 30.9184 30.1436C31.3079 30.1127 31.6523 30.4096 31.6832 30.8014L32.3957 40.3537C32.4099 40.5437 32.3482 40.7266 32.2247 40.8714C32.1012 41.0163 31.9278 41.1018 31.7378 41.1161C31.6404 41.1232 31.543 41.1279 31.4457 41.1279ZM30.9279 30.9059C29.2417 31.0579 27.9805 32.5399 28.1064 34.2333L28.3487 37.4894C28.4745 39.1828 29.9423 40.4629 31.6333 40.3608L30.9279 30.9059Z" fill="#371A45"/>
<path d="M47.0949 50.7757C56.11 50.7757 63.4182 43.4674 63.4182 34.4523C63.4182 25.4371 56.11 18.1289 47.0949 18.1289C38.0797 18.1289 30.7715 25.4371 30.7715 34.4523C30.7715 43.4674 38.0797 50.7757 47.0949 50.7757Z" fill="white"/>
<path d="M47.0921 50.8444C38.0814 50.8444 30.7331 43.5294 30.7023 34.5115C30.669 25.4746 37.9959 18.0931 47.0351 18.0623C47.0541 18.0623 47.0755 18.0623 47.0945 18.0623C56.1053 18.0623 63.4511 25.3773 63.4844 34.3951C63.5176 43.432 56.1908 50.8135 47.1515 50.8444C47.1325 50.8444 47.1135 50.8444 47.0921 50.8444ZM47.0945 18.1976C47.0755 18.1976 47.0541 18.1976 47.0351 18.1976C38.0719 18.2285 30.8068 25.5483 30.8376 34.5091C30.8685 43.4534 38.155 50.7066 47.0921 50.7066C47.1111 50.7066 47.1325 50.7066 47.1515 50.7066C56.1148 50.6758 63.3799 43.356 63.349 34.3951C63.3158 25.4509 56.0316 18.1976 47.0945 18.1976Z" fill="#371A45"/>
<g opacity="0.35">
<path d="M63.252 32.1365C63.3589 32.8751 63.4135 33.628 63.4159 34.3951C63.4467 43.4106 56.165 50.7446 47.1519 50.7755C38.1364 50.8063 30.8024 43.5246 30.7715 34.5115C30.7715 34.2526 30.7762 33.9937 30.7881 33.7372C31.9162 41.6792 38.7562 47.7711 47.0046 47.7426C55.7589 47.7117 62.8767 40.7933 63.252 32.1365Z" fill="#371A45"/>
</g>
<path d="M47.0917 51.1555C37.9076 51.1555 30.424 43.7028 30.3907 34.5115C30.3575 25.3013 37.8245 17.782 47.0347 17.7488C47.0537 17.7488 47.0751 17.7488 47.0965 17.7488C56.2806 17.7488 63.7642 25.2015 63.7975 34.3928C63.8307 43.603 56.3637 51.1223 47.1535 51.1555C47.1345 51.1555 47.1131 51.1555 47.0917 51.1555ZM47.0941 18.5112C47.0751 18.5112 47.0561 18.5112 47.0371 18.5112C38.2472 18.542 31.1199 25.7193 31.1507 34.5115C31.1816 43.2824 38.328 50.3979 47.0917 50.3979C47.1107 50.3979 47.1297 50.3979 47.1487 50.3979C55.9386 50.367 63.066 43.1898 63.0351 34.3975C63.0042 25.6243 55.8602 18.5112 47.0941 18.5112Z" fill="#371A45"/>
<path d="M63.3651 34.8129C63.4244 38.0072 62.4436 40.9902 60.7169 43.4769C59.4226 45.3412 54.0171 48.6615 47.2721 48.8491C41.0163 49.0225 35.2617 45.7925 33.8984 43.978C32.0792 41.5579 30.9867 38.6129 30.9273 35.4185C30.7706 26.9682 37.9644 23.3274 46.9229 23.1611C55.8814 22.9949 63.2083 26.3626 63.3651 34.8129Z" fill="#371A45"/>
<path d="M46.7759 49.2364C40.5154 49.2364 34.984 46.0563 33.5946 44.2085C31.6614 41.6364 30.6069 38.5988 30.5475 35.4281C30.4715 31.298 32.0675 28.0823 35.2928 25.8735C38.1095 23.9427 42.1304 22.8739 46.916 22.7836C51.7016 22.6934 55.7581 23.6125 58.6461 25.4365C61.9521 27.5265 63.6669 30.6781 63.7429 34.8083C63.8023 37.9789 62.8618 41.0521 61.0259 43.6955C59.7529 45.529 54.4139 49.0322 47.2794 49.2293C47.1131 49.234 46.9445 49.2364 46.7759 49.2364ZM47.5003 23.5365C47.3031 23.5365 47.1131 23.5389 46.9326 23.5413C42.1708 23.6291 31.1151 24.9639 31.3099 35.4115C31.3669 38.4206 32.3668 41.3039 34.205 43.7501C35.4756 45.4411 40.855 48.4764 46.7878 48.4764C46.9469 48.4764 47.1036 48.474 47.2628 48.4693C54.041 48.2817 59.247 44.9305 60.406 43.2609C62.1516 40.7505 63.0423 37.8316 62.9876 34.8201C62.7976 24.7715 52.521 23.5365 47.5003 23.5365Z" fill="#371A45"/>
<g opacity="0.7">
<path d="M60.1375 34.1006C60.3925 32.5262 59.6746 31.1001 58.5339 30.9153C57.3932 30.7305 56.2618 31.8571 56.0067 33.4315C55.7517 35.0059 56.4696 36.432 57.6103 36.6168C58.751 36.8016 59.8824 35.675 60.1375 34.1006Z" fill="white"/>
</g>
<g opacity="0.7">
<path d="M56.7085 39.8702C56.9242 39.1707 56.6124 38.4536 56.012 38.2684C55.4116 38.0832 54.75 38.5 54.5342 39.1994C54.3185 39.8988 54.6303 40.616 55.2307 40.8012C55.8311 40.9864 56.4927 40.5696 56.7085 39.8702Z" fill="white"/>
</g>
<g opacity="0.35">
<path d="M60.064 26.9897C62.0828 28.8446 63.3012 31.4191 63.3653 34.8154C63.4247 38.0097 62.4438 40.9927 60.7172 43.4794C59.4228 45.3437 54.0173 48.664 47.2723 48.8516C44.8902 48.9181 42.5817 48.4906 40.5605 47.8351C48.8469 47.429 55.4304 43.3535 57.0359 41.0426C59.228 37.8862 60.4725 34.0981 60.3965 30.0464C60.3775 28.961 60.2612 27.9421 60.064 26.9897Z" fill="#111A28"/>
</g>
<path d="M32.015 28.5693C31.9295 28.5693 31.8464 28.5408 31.7751 28.4838C31.6208 28.3555 31.5899 28.1323 31.7063 27.9708C34.485 23.7219 39.9831 21.2139 46.7946 21.0856C53.5634 20.9598 59.1541 23.1851 62.13 27.1941C62.2369 27.3319 62.2393 27.529 62.1253 27.6691C61.9923 27.8306 61.7571 27.8568 61.5956 27.7261L61.5576 27.6953L61.5268 27.6549C58.6981 23.843 53.333 21.7269 46.8089 21.848C40.2468 21.9715 34.9719 24.3584 32.3356 28.3983L32.3071 28.4363C32.2335 28.5218 32.1243 28.5693 32.015 28.5693Z" fill="#371A45"/>
<g opacity="0.7">
<path d="M34.6659 40.3803C34.6659 40.3803 31.8919 32.0916 36.3237 28.6858C40.7554 25.2801 47.2202 25.1732 47.0753 25.5888C47.0753 25.5888 39.9503 27.4556 37.257 33.1651C35.1789 37.5683 34.6659 40.3803 34.6659 40.3803Z" fill="white"/>
</g>
<g opacity="0.3">
<path d="M49.7355 73.5684C49.7213 73.5779 49.7094 73.585 49.6952 73.5921H45.2943C45.28 73.585 45.2682 73.5755 45.2539 73.5684H49.7355Z" fill="#390075"/>
</g>
<path d="M66.7857 57.202C66.7857 57.4799 66.7714 57.7577 66.7429 58.0356C66.3938 61.4509 63.9618 64.8566 60.9194 67.8539C55.9842 72.7155 49.4506 76.5036 47.6361 77.5106C47.3344 77.6792 46.9687 77.6816 46.6647 77.5154C44.5272 76.3564 35.8893 71.4496 30.9754 65.3316C28.9187 62.7714 27.5127 59.9973 27.5127 57.1996C27.5127 56.4633 27.5934 55.7437 27.7454 55.0502C28.7857 50.3026 33.1984 46.7354 38.4852 46.7354C42.0097 46.7354 45.1447 48.3195 47.1516 50.7824C49.1584 48.3195 52.2934 46.7354 55.8156 46.7354C61.8742 46.7377 66.7857 51.4212 66.7857 57.202Z" fill="#F9195A"/>
<g opacity="0.35">
<path d="M66.7477 57.2024C66.7477 58.5846 66.4057 59.9597 65.8096 61.3064C65.1826 62.6839 64.2848 64.04 63.2184 65.3439C62.5154 66.206 61.7364 67.0444 60.9147 67.8542C55.9794 72.7159 49.4434 76.504 47.6289 77.511C47.3273 77.6796 46.9616 77.682 46.6576 77.5157C44.5201 76.3567 35.8822 71.45 30.9683 65.332C30.9042 65.2512 30.8401 65.1705 30.7783 65.0921C30.7166 65.0114 30.6524 64.9306 30.5907 64.8499C30.5147 64.7501 30.4387 64.648 30.3627 64.5459C29.8758 63.8856 29.4364 63.2111 29.0564 62.5295C29.0279 62.4772 28.9994 62.425 28.9709 62.3727C28.9306 62.2991 28.8926 62.2255 28.8522 62.1519C28.6218 61.7101 28.4152 61.2636 28.2394 60.8124C28.2109 60.7364 28.1824 60.6627 28.1539 60.5867C28.1231 60.5012 28.0922 60.4157 28.0613 60.3302C28.0471 60.2875 28.0328 60.2447 28.0186 60.202C27.9996 60.1474 27.9829 60.0951 27.9663 60.0405C27.9164 59.879 27.8689 59.7175 27.8262 59.556C27.8024 59.4705 27.7834 59.3826 27.7621 59.2947C27.7312 59.1641 27.7027 59.0335 27.6766 58.9052C27.6599 58.8197 27.6433 58.7319 27.6291 58.644C27.6219 58.6012 27.6148 58.5561 27.6077 58.5134C27.5958 58.4255 27.5839 58.34 27.5721 58.2521C27.5673 58.2094 27.5626 58.1642 27.5578 58.1215C27.5531 58.0882 27.5507 58.055 27.5483 58.0217C27.5459 57.998 27.5436 57.9766 27.5436 57.9529C27.5364 57.8769 27.5317 57.8032 27.5269 57.7296C27.5222 57.6417 27.5174 57.5539 27.5151 57.4684C27.5151 57.4256 27.5127 57.3805 27.5127 57.3377C27.5127 57.3164 27.5127 57.295 27.5127 57.2712V57.2047C27.5127 56.8366 27.5317 56.4732 27.5721 56.1122C27.5816 56.0244 27.5911 55.9389 27.6053 55.851C27.6053 55.8462 27.6053 55.8439 27.6077 55.8391C27.6196 55.7512 27.6314 55.6657 27.6457 55.5779C27.6457 55.5731 27.6481 55.566 27.6481 55.5589C27.6766 55.3879 27.7098 55.2192 27.7454 55.053C29.8639 55.5992 31.9326 56.0624 32.6379 56.2595C34.8467 56.8794 36.6232 57.4494 36.3263 61.6555C36.2242 63.0971 35.2884 64.2371 34.0321 64.8641C34.3978 65.1966 34.7683 65.522 35.1459 65.845C42.1736 71.8466 52.6141 71.678 59.4351 65.4436C59.6654 65.2322 59.8958 65.0209 60.1214 64.8071C58.9221 64.1706 58.0362 63.0544 57.9388 61.6555C57.6419 57.4494 59.4184 56.877 61.6272 56.2595C62.3326 56.0624 64.4012 55.5969 66.5197 55.053C66.5624 55.243 66.5981 55.4377 66.6289 55.6325C66.7073 56.1431 66.7477 56.668 66.7477 57.2024Z" fill="#371A45"/>
</g>
<g opacity="0.35">
<path d="M27.5691 56.1099C27.5311 56.4685 27.5098 56.8319 27.5098 57.2024V57.2689C27.5098 57.2475 27.5098 57.2261 27.5098 57.2024C27.5098 56.8342 27.5288 56.4685 27.5691 56.1099Z" fill="#371A45"/>
</g>
<g opacity="0.35">
<path d="M27.7613 59.2921C27.728 59.1615 27.7019 59.0308 27.6758 58.9026C27.7019 59.0332 27.7304 59.1615 27.7613 59.2921Z" fill="#371A45"/>
</g>
<g opacity="0.35">
<path d="M27.9692 60.0382C27.917 59.8767 27.8695 59.7152 27.8291 59.5537C27.8719 59.7152 27.917 59.8767 27.9692 60.0382Z" fill="#371A45"/>
</g>
<g opacity="0.35">
<path d="M28.854 62.1518C28.6212 61.71 28.417 61.2635 28.2412 60.8123C28.417 61.2611 28.6236 61.7076 28.854 62.1518Z" fill="#371A45"/>
</g>
<g opacity="0.35">
<path d="M30.3668 64.5476C29.8799 63.8874 29.4405 63.2129 29.0605 62.5312C29.4405 63.2129 29.8799 63.885 30.3668 64.5476Z" fill="#371A45"/>
</g>
<g opacity="0.35">
<path d="M66.7853 57.2023C66.7853 57.4802 66.771 57.758 66.7425 58.0359C66.6309 59.1308 66.3055 60.2257 65.8115 61.3063C66.4077 59.9597 66.7497 58.5845 66.7497 57.2023C66.7497 56.6679 66.7069 56.143 66.6262 55.6324C66.6333 55.6015 66.6404 55.5707 66.6475 55.5398C66.7378 56.0789 66.7853 56.6347 66.7853 57.2023Z" fill="#371A45"/>
</g>
<g opacity="0.5">
<path d="M66.7847 57.2016C66.7847 57.4486 66.7728 57.6956 66.7491 57.9426C66.3002 52.5561 61.5763 48.3214 55.8122 48.3214C52.6772 48.3214 49.851 49.5754 47.8512 51.5871C47.723 51.7177 48.5851 52.6962 48.5566 52.8767C48.369 54.0689 47.3406 52.6392 47.1482 52.3684C45.1413 49.9056 42.0063 48.3214 38.4818 48.3214C32.7153 48.3214 27.9867 52.5656 27.545 57.9568C27.5212 57.7051 27.5117 57.4533 27.5117 57.2016C27.5117 51.4208 32.4256 46.7373 38.4842 46.7373C42.0087 46.7373 45.1437 48.3214 47.1506 50.7843C49.1575 48.3214 52.2925 46.7373 55.817 46.7373C61.8732 46.7373 66.7847 51.4208 66.7847 57.2016Z" fill="white"/>
</g>
<path d="M47.1416 78.0209C46.9136 78.0209 46.6856 77.9639 46.479 77.8523C43.249 76.0995 27.1299 66.8655 27.1299 57.2017C27.1299 51.2214 32.2219 46.3574 38.4824 46.3574C41.8525 46.3574 44.9851 47.7515 47.1488 50.1978C49.3124 47.7515 52.445 46.3574 55.8128 46.3574C62.0733 46.3574 67.1653 51.2214 67.1653 57.2017C67.1653 66.6162 51.0485 76.0497 47.8185 77.8452C47.6071 77.9615 47.3744 78.0209 47.1416 78.0209ZM38.4824 47.1174C32.6423 47.1174 27.8899 51.6418 27.8899 57.2017C27.8899 66.4357 43.6765 75.4678 46.8424 77.1849C47.0324 77.2894 47.2604 77.287 47.4504 77.1825C48.8326 76.4154 53.6824 73.62 58.0999 69.9008C63.6123 65.26 66.4076 60.9874 66.4076 57.2017C66.4076 51.6418 61.6553 47.1174 55.8151 47.1174C52.5186 47.1174 49.4691 48.54 47.4456 51.0243L47.1511 51.3853L46.8566 51.0243C44.8308 48.54 41.7789 47.1174 38.4824 47.1174Z" fill="#371A45"/>
<path d="M48.3321 52.915C48.2039 52.915 48.0804 52.8508 48.0092 52.7345C47.4843 51.8818 46.8478 51.015 46.843 51.0078C46.7195 50.8392 46.7551 50.6017 46.9238 50.4758C47.0924 50.3523 47.3299 50.388 47.4558 50.5566C47.4819 50.5922 48.116 51.4543 48.6575 52.3355C48.7668 52.5136 48.7122 52.7487 48.534 52.858C48.4699 52.8983 48.401 52.915 48.3321 52.915Z" fill="#371A45"/>
<g opacity="0.5">
<path d="M52.0771 50.6062C53.7562 48.9817 58.6701 48.7181 60.8717 50.934C62.7551 52.8292 59.5464 52.5252 57.0076 52.3779C54.8059 52.2521 50.3979 52.2307 52.0771 50.6062Z" fill="white"/>
</g>
<path d="M34.1742 47.562C34.1742 47.562 25.4508 51.4166 26.738 58.9454C27.9659 66.1226 36.0124 64.5314 36.3235 60.1424C36.6204 55.9363 34.8439 55.3639 32.6352 54.7464C30.9988 54.288 30.3077 52.9604 30.4692 51.9605C30.7969 49.9275 34.1742 47.562 34.1742 47.562Z" fill="white"/>
<g opacity="0.35">
<path d="M36.3241 60.1401C36.0153 64.5291 27.9665 66.1204 26.7386 58.9431C26.5747 57.9884 26.5723 57.0906 26.6935 56.2546C26.7077 56.3496 26.722 56.447 26.7386 56.5444C27.9308 63.5174 35.5641 62.2135 36.279 58.1071C36.3621 58.67 36.3811 59.3398 36.3241 60.1401Z" fill="#371A45"/>
</g>
<g opacity="0.35">
<path d="M65.8118 61.3059C65.2038 62.6882 64.3298 64.0372 63.2872 65.3339C63.2658 65.3387 63.2445 65.341 63.2207 65.3434C64.2871 64.0395 65.1848 62.6834 65.8118 61.3059Z" fill="#371A45"/>
</g>
<path d="M60.0823 47.562C60.0823 47.562 68.8057 51.4166 67.5184 58.9454C66.2905 66.1226 58.244 64.5314 57.9329 60.1424C57.636 55.9363 59.4125 55.3639 61.6213 54.7464C63.2577 54.288 63.9488 52.9604 63.7873 51.9605C63.4595 49.9275 60.0823 47.562 60.0823 47.562Z" fill="white"/>
<g opacity="0.35">
<path d="M57.9331 60.1401C58.2419 64.5291 66.2907 66.1204 67.5186 58.9431C67.6825 57.9884 67.6849 57.0906 67.5637 56.2546C67.5495 56.3496 67.5352 56.447 67.5186 56.5444C66.3264 63.5174 58.6931 62.2135 57.9782 58.1071C57.8951 58.67 57.8761 59.3398 57.9331 60.1401Z" fill="#371A45"/>
</g>
<path d="M31.7617 64.2608C29.5364 64.2608 27.0284 62.8928 26.3634 59.0073C25.8147 55.7987 26.9714 52.7349 29.7121 50.1509C31.757 48.2248 33.9277 47.251 34.0204 47.2107C34.1985 47.1323 34.4099 47.2012 34.5049 47.3722C34.5999 47.5432 34.5524 47.7569 34.3909 47.8709C34.3576 47.8947 31.1419 50.1675 30.8426 52.0153C30.7049 52.8632 31.3224 53.9794 32.7355 54.376C34.8445 54.9674 37.0247 55.5778 36.6994 60.1663C36.5426 62.3727 34.5357 64.1302 32.0277 64.2537C31.9422 64.2584 31.852 64.2608 31.7617 64.2608ZM30.9922 50.0393C30.7357 50.2507 30.4745 50.4787 30.218 50.7209C27.6459 53.1529 26.6009 55.8984 27.1115 58.8814C27.7195 62.432 30.0304 63.5958 31.9921 63.496C33.7995 63.4058 35.7969 62.1922 35.9441 60.114C36.2244 56.1454 34.5951 55.6894 32.5312 55.1099C30.693 54.5945 29.9021 53.0698 30.0921 51.8965C30.1942 51.2767 30.5434 50.6378 30.9922 50.0393Z" fill="#371A45"/>
<path d="M62.4954 64.2608C62.4052 64.2608 62.3173 64.2584 62.2271 64.2537C59.7191 64.1302 57.7098 62.3727 57.5554 60.1663C57.2324 55.5802 59.4127 54.9674 61.5193 54.376C62.9324 53.9794 63.5499 52.8632 63.4122 52.0153C63.1129 50.1675 59.8972 47.8923 59.8639 47.8709C59.7048 47.7593 59.6549 47.5432 59.7499 47.3722C59.8449 47.2012 60.0563 47.1323 60.2344 47.2107C60.3271 47.251 62.4978 48.2224 64.5427 50.1509C67.2834 52.7349 68.4401 55.7963 67.8914 59.0073C67.2288 62.8928 64.7184 64.2608 62.4954 64.2608ZM63.2649 50.0393C63.7138 50.6378 64.0629 51.2767 64.1627 51.8965C64.3527 53.0698 63.5618 54.5945 61.7235 55.1099C59.6597 55.6894 58.0304 56.1454 58.3107 60.114C58.4579 62.1898 60.4553 63.4058 62.2627 63.496C64.2244 63.5958 66.5353 62.432 67.1433 58.8814C67.6539 55.8984 66.6089 53.1529 64.0368 50.7209C63.7827 50.4787 63.5214 50.2507 63.2649 50.0393Z" fill="#371A45"/>
<path d="M67.2984 55.3379C67.1962 55.3379 67.0965 55.2809 67.0442 55.1836C65.909 52.9962 63.686 52.1174 63.6646 52.1079C63.5174 52.0509 63.4437 51.8871 63.5007 51.7398C63.5577 51.5926 63.7216 51.5189 63.8689 51.5759C63.9686 51.6139 66.3104 52.5354 67.5501 54.9199C67.6237 55.0601 67.5691 55.2311 67.429 55.3047C67.3862 55.3261 67.3411 55.3379 67.2984 55.3379Z" fill="#371A45"/>
<path d="M26.9447 55.3379C26.8996 55.3379 26.8544 55.3284 26.8141 55.3047C26.6739 55.2311 26.6193 55.0601 26.6929 54.9199C27.9327 52.5354 30.2744 51.6139 30.3742 51.5759C30.5214 51.5189 30.6853 51.5926 30.7423 51.7398C30.7993 51.8871 30.7257 52.0509 30.5784 52.1079C30.5571 52.1174 28.3341 52.9962 27.1988 55.1836C27.1466 55.2809 27.0492 55.3379 26.9447 55.3379Z" fill="#371A45"/>
</g>
<defs>
<clipPath id="clip0_2_64419">
<rect width="95" height="95" rx="8" fill="white"/>
</clipPath>
</defs>
</svg>
