<svg width="74" height="75" viewBox="0 0 74 75" fill="none" xmlns="http://www.w3.org/2000/svg">
<g opacity="0.2">
<path d="M39.6266 74.0989C58.3835 74.0989 73.5891 72.6464 73.5891 70.8546C73.5891 69.0629 58.3835 67.6104 39.6266 67.6104C20.8696 67.6104 5.66406 69.0629 5.66406 70.8546C5.66406 72.6464 20.8696 74.0989 39.6266 74.0989Z" fill="#371A45"/>
</g>
<path d="M58.2264 69.9117C57.2384 70.5339 55.564 71.073 53.1962 71.0707C49.8854 71.0683 47.1827 70.9092 47.2112 68.4273C47.2349 66.4584 50.4934 65.5725 50.4934 65.5725C50.2987 62.9719 50.1205 60.0435 49.9662 57.2529C49.636 51.2537 49.427 45.9075 49.427 45.9075L59.8557 45.4468C59.3997 50.4675 59.269 54.5692 59.2477 57.887C59.1978 65.4965 59.7274 68.9712 58.2264 69.9117Z" fill="white"/>
<g opacity="0.25">
<path d="M59.2928 64.1477C59.326 67.5202 59.231 69.2825 58.2264 69.9118C57.2384 70.5341 55.564 71.0732 53.1962 71.0708C49.8854 71.0685 47.1827 70.9093 47.2112 68.4275C47.2135 68.1686 47.2729 67.9287 47.3727 67.7055C47.9997 69.2706 50.377 69.3846 53.1962 69.387C55.564 69.387 57.2384 68.8478 58.2264 68.228C59.0482 67.715 59.2595 66.442 59.2928 64.1477Z" fill="#371A45"/>
</g>
<path d="M59.8583 43.7703C59.8061 44.345 59.7586 44.9079 59.7134 45.4589L49.4986 45.9101C49.4534 44.8533 49.4297 44.231 49.4297 44.231L59.8583 43.7703Z" fill="#D8D8D8"/>
<g opacity="0.25">
<path d="M59.8559 45.4517C59.3999 50.4724 59.2693 54.574 59.2479 57.8919C55.2199 56.0917 51.8973 56.6118 49.9688 57.2578C49.6387 51.2585 49.4297 45.9124 49.4297 45.9124L59.8559 45.4517Z" fill="#371A45"/>
</g>
<path d="M53.2095 71.4888C53.2072 71.4888 53.2048 71.4888 53.2 71.4888C50.7134 71.4864 48.5664 71.3985 47.4905 70.3084C47.0227 69.8334 46.7899 69.2016 46.797 68.425C46.8184 66.5535 49.1673 65.5774 50.0555 65.2734C49.4594 57.1889 49.0153 46.0406 49.0105 45.9266C49.001 45.6963 49.1815 45.5015 49.4119 45.492C49.6423 45.4825 49.837 45.663 49.8465 45.8934C49.8513 46.0074 50.3049 57.4478 50.9129 65.5418L50.939 65.8861L50.6065 65.9764C49.7848 66.202 47.6473 67.0808 47.633 68.4345C47.6259 68.9879 47.7732 69.4083 48.0843 69.7218C48.9322 70.5815 50.9889 70.6528 53.2 70.6528C53.2024 70.6528 53.2048 70.6528 53.2095 70.6528C55.8695 70.6528 57.3587 69.9664 58.0094 69.5579C58.9475 68.9665 58.919 66.7411 58.862 62.7013C58.8098 58.9321 58.7314 53.2345 59.4439 45.4136C59.4653 45.1833 59.6672 45.0146 59.8975 45.036C60.1279 45.0574 60.2965 45.2593 60.2752 45.4896C59.5674 53.2654 59.6458 58.9369 59.698 62.6894C59.7598 67.1734 59.7907 69.4249 58.4535 70.2656C57.7268 70.724 56.0785 71.4888 53.2095 71.4888Z" fill="#371A45"/>
<path d="M53.9277 59.0747C52.5574 59.0747 51.111 58.8705 49.8261 58.2649C49.6171 58.1675 49.5269 57.9181 49.6266 57.7091C49.7264 57.5001 49.9734 57.4099 50.1824 57.5096C53.79 59.2077 59.0577 57.3885 59.11 57.3695C59.3285 57.2935 59.566 57.4075 59.642 57.626C59.718 57.8445 59.604 58.082 59.3879 58.158C59.2359 58.2102 56.7397 59.0747 53.9277 59.0747Z" fill="#371A45"/>
<path d="M50.4823 65.157C51.95 65.195 53.413 65.2354 54.8618 65.499C55.1183 65.5536 55.0589 65.9384 54.7976 65.9122C53.3774 65.7935 51.931 65.8932 50.5108 65.993C49.9336 66.0191 49.9028 65.1689 50.4823 65.157Z" fill="#371A45"/>
<path d="M57.8906 30.1901L58.3443 34.0922L59.9118 47.6012L60.7454 54.7903C60.7454 54.7903 61.0233 54.7903 61.4911 54.7737C63.5241 54.6953 69.1386 54.2417 70.9199 51.634C71.7297 50.4465 72.029 47.1262 71.9174 43.5091C71.7796 39.1035 71.0339 34.2585 69.8654 32.2943C68.8869 30.6485 66.4097 30.0072 63.878 29.8457C62.947 29.784 62.0089 29.7887 61.1325 29.8315C59.8286 29.8956 58.6696 30.0428 57.8906 30.1901Z" fill="white"/>
<g opacity="0.25">
<path d="M59.9141 47.6011L60.7477 54.7926C60.7477 54.7926 68.7301 54.8425 70.9222 51.6363C71.7321 50.4488 72.0313 47.1285 71.9197 43.5114L66.9441 42.8796C66.9441 42.8796 65.2246 42.9936 65.3979 48.4656C65.4454 49.9975 63.1417 50.6981 61.3414 49.5605C60.6907 49.1496 60.2371 48.4466 59.9141 47.6011Z" fill="#371A45"/>
</g>
<path d="M60.7875 55.2104C60.7661 55.2104 60.7519 55.2104 60.7424 55.2104C60.512 55.208 60.3267 55.0204 60.3267 54.79C60.3291 54.5597 60.5144 54.3744 60.7447 54.3744C60.7471 54.3744 60.7471 54.3744 60.7566 54.3744C61.0725 54.3744 68.5656 54.3364 70.5725 51.4009C71.3325 50.2918 71.6816 46.6509 71.4465 42.3427C71.2042 37.9489 70.4442 34.0895 69.5061 32.5125C67.8579 29.7409 61.0226 30.0283 57.9707 30.603C57.7427 30.6458 57.5242 30.4962 57.4839 30.2705C57.4411 30.0425 57.5907 29.8264 57.8164 29.7837C60.5785 29.2659 68.1904 28.6674 70.2257 32.0874C71.4417 34.1323 72.0854 38.7018 72.2825 42.2999C72.482 45.9194 72.3181 50.3345 71.2636 51.8759C69.0382 55.1297 61.5119 55.2104 60.7875 55.2104Z" fill="#371A45"/>
<path d="M71.4274 42.7776L67.2569 43.3215C66.884 43.369 66.5919 43.6635 66.5444 44.0363C66.3734 45.402 66.143 48.5726 67.5134 49.5416C68.651 50.3443 70.418 50.1472 71.406 49.2115C72.5127 48.1665 72.4581 45.0695 72.356 43.54C72.3251 43.065 71.8976 42.7158 71.4274 42.7776Z" fill="white"/>
<g opacity="0.25">
<path d="M66.5444 44.036C66.3734 45.3993 66.143 48.5723 67.5134 49.5413C68.651 50.3464 70.418 50.1469 71.4084 49.2111C72.09 48.5675 72.3299 47.1496 72.3916 45.7959C72.2396 46.4775 71.9736 47.0404 71.6245 47.418C69.6247 49.584 67.9171 47.2518 67.9171 47.2518C67.9171 47.2518 67.6749 47.855 67.4588 47.9001C66.5539 48.0901 66.5871 45.2259 66.6394 43.7439C66.5919 43.8318 66.5586 43.9291 66.5444 44.036Z" fill="#371A45"/>
</g>
<path d="M69.2036 50.4629C68.5077 50.4629 67.8237 50.2729 67.2704 49.8834C65.767 48.8217 65.9095 45.7319 66.1256 43.9839C66.1969 43.4234 66.6362 42.9792 67.1991 42.908L71.3696 42.3641C71.7092 42.3214 72.056 42.4187 72.3196 42.6349C72.5832 42.851 72.7471 43.1716 72.7709 43.5136C72.9134 45.6511 72.8421 48.4275 71.6902 49.5152C71.0324 50.1399 70.1109 50.4629 69.2036 50.4629ZM71.4789 43.193L67.3084 43.7369C67.1255 43.7606 66.9806 43.9055 66.9569 44.0884C66.6291 46.7056 66.9284 48.6175 67.7525 49.1994C68.7001 49.8691 70.2415 49.7361 71.1179 48.9072C71.8114 48.2517 72.1177 46.2567 71.9372 43.5682C71.9301 43.4542 71.8779 43.3521 71.79 43.2809C71.7021 43.2096 71.5929 43.1764 71.4789 43.193Z" fill="#371A45"/>
<path d="M68.1586 44.758C68.3914 46.4561 68.2797 49.0496 70.3935 49.4534C70.6215 49.4938 70.7735 49.7123 70.7331 49.9403C70.6927 50.1683 70.4742 50.3179 70.2462 50.2775C69.9565 50.2087 69.6715 50.0994 69.4055 49.945C68.6502 49.5247 68.18 48.6768 67.9947 47.8859C67.7335 46.8718 67.7881 45.8173 67.7192 44.8079C67.7026 44.5253 68.1111 44.4778 68.1586 44.758Z" fill="#371A45"/>
<path d="M67.4709 32.2371C65.7823 32.4485 64.0842 32.7097 62.4383 33.1325C61.8968 33.275 61.3529 33.4341 60.8684 33.6502C60.3578 33.8592 60.03 33.1277 60.5288 32.8855C61.6712 32.4817 62.823 32.325 64.001 32.1706C65.1458 32.0305 66.2905 31.9355 67.4424 31.8761C67.6704 31.869 67.7013 32.2086 67.4709 32.2371Z" fill="#371A45"/>
<path d="M67.6105 46.0524C67.5963 47.1046 67.4704 48.0237 67.2329 48.8787C65.4041 55.4194 55.46 56.6521 50.4274 53.8472C48.715 52.8924 47.6368 51.4556 47.4776 48.7647C47.3209 46.1023 47.5631 43.0267 47.9906 40.0104C48.8361 34.0183 50.4084 28.2494 50.9974 26.3684C51.1779 25.7961 56.2129 21.7016 59.1983 20.9653C63.2548 20.2148 60.9178 25.9338 60.9771 27.2068C61.1648 31.3203 65.8031 35.1037 66.4444 37.9466C67.2448 41.4948 67.6366 44.0218 67.6105 46.0524Z" fill="white"/>
<g opacity="0.25">
<path d="M67.6105 46.0525C67.5963 47.1046 67.4704 48.0238 67.2329 48.8788C65.4041 55.4195 55.46 56.6521 50.4274 53.8473C48.715 52.8925 47.6368 51.4556 47.4776 48.7648C47.3209 46.1024 47.5631 43.0268 47.9906 40.0105C53.4246 38.8325 61.8796 37.1439 62.11 37.9894C62.4496 39.2386 61.1553 44.4399 62.0625 45.5181C62.8914 46.5038 64.7724 46.6059 67.544 46.0644C67.5678 46.0573 67.5891 46.0525 67.6105 46.0525Z" fill="#371A45"/>
</g>
<path d="M56.5465 55.6667C54.2262 55.6667 51.9533 55.1774 50.2195 54.2108C48.1865 53.0779 47.2104 51.4059 47.056 48.7887C46.5977 41.0414 49.5308 29.6296 50.5948 26.2405C50.7729 25.6728 52.7679 24.1243 53.7987 23.3857C55.0075 22.5188 57.3018 20.9988 59.0949 20.5571L59.1187 20.5523C60.1209 20.3671 60.8809 20.531 61.3773 21.0392C62.4057 22.0937 61.9425 24.2835 61.6053 25.8842C61.4889 26.4352 61.3797 26.9553 61.3892 27.1881C61.4937 29.4681 63.0992 31.7267 64.517 33.717C65.5692 35.1942 66.5619 36.5907 66.8469 37.8542C68.1152 43.4782 68.3265 46.4968 67.6307 48.9906C66.9348 51.4819 65.087 53.4152 62.2917 54.5813C60.5484 55.3104 58.5297 55.6667 56.5465 55.6667ZM51.3857 26.5136C50.3288 29.8885 47.4408 41.1341 47.892 48.7412C48.0298 51.0734 48.8492 52.4913 50.628 53.4841C53.6348 55.1608 58.4062 55.2986 61.9687 53.8142C63.7475 53.0732 66.0347 51.5959 66.8255 48.7697C67.481 46.4232 67.2673 43.5162 66.0323 38.0418C65.7853 36.9422 64.8377 35.6122 63.8378 34.2062C62.3534 32.121 60.6719 29.7578 60.5555 27.2308C60.5389 26.8912 60.6505 26.3735 60.7883 25.7156C61.0709 24.3808 61.496 22.3621 60.7788 21.6282C60.4914 21.3337 59.9879 21.2482 59.2825 21.3765C56.5062 22.0652 51.7657 25.8723 51.3857 26.5136Z" fill="#371A45"/>
<path d="M35.12 25.9768C36.4951 28.3921 38.4925 30.475 40.9981 31.9713C41.5088 32.2753 42.0408 32.5579 42.5918 32.812C42.8601 32.9355 43.1333 33.0543 43.4135 33.1659C44.2566 33.5008 45.1093 33.7644 45.969 33.9591C46.71 34.1278 47.4534 34.2441 48.1968 34.3106C49.0945 34.3914 49.9875 34.3985 50.8734 34.3391C51.1964 34.3154 51.517 34.2845 51.8376 34.2441C57.6873 33.5031 62.9906 29.7506 65.3846 23.9746C68.9139 15.465 64.8004 5.78213 56.1981 2.35025C54.5404 1.69 52.8375 1.30763 51.1418 1.1865C50.9446 1.16988 50.7451 1.16038 50.5456 1.15325C50.0136 1.13188 49.4816 1.13663 48.9544 1.1675C47.7336 1.23638 46.5319 1.43588 45.3681 1.75888C44.2044 2.0795 43.0763 2.52363 42.0075 3.08175C41.6679 3.2575 41.333 3.4475 41.0053 3.647C40.5136 3.94625 40.0363 4.27163 39.5779 4.62313C37.2813 6.364 35.4026 8.7105 34.2294 11.5463C32.194 16.4364 32.6928 21.7184 35.12 25.9768Z" fill="white"/>
<path d="M49.7041 34.4197C49.1958 34.4197 48.6899 34.396 48.1888 34.3508C47.4336 34.2819 46.6831 34.1656 45.9563 33.9993C45.0894 33.8046 44.2273 33.5362 43.3961 33.2037C43.0897 33.0802 42.8213 32.9638 42.5719 32.8474C42.0304 32.5981 41.4937 32.3154 40.9759 32.0043C38.5273 30.5413 36.4896 28.4632 35.0836 25.9956C32.5447 21.5401 32.2193 16.2652 34.1858 11.5223C35.3234 8.7792 37.1783 6.37807 39.5486 4.5802C39.9951 4.2382 40.4772 3.91045 40.9807 3.6017C41.3037 3.40457 41.6409 3.21457 41.9853 3.03645C43.0564 2.47832 44.1893 2.03182 45.3531 1.7112C46.5287 1.38582 47.7376 1.18632 48.9488 1.11745C49.4761 1.08895 50.0128 1.0842 50.5448 1.1032C50.7562 1.11032 50.9533 1.11982 51.1433 1.13645C52.8723 1.25995 54.5776 1.6542 56.2116 2.30495C60.3987 3.97695 63.6619 7.1642 65.3957 11.2801C67.1176 15.3627 67.1271 19.8752 65.4218 23.9863C63.1086 29.5676 57.9026 33.5124 51.8416 34.2819C51.5209 34.3223 51.1979 34.3532 50.8749 34.3769C50.4831 34.4078 50.0936 34.4197 49.7041 34.4197ZM35.1548 25.9576C36.5537 28.4133 38.5819 30.4819 41.0187 31.9378C41.5341 32.2442 42.0684 32.5268 42.6076 32.7762C42.8546 32.8902 43.1229 33.0066 43.4269 33.1301C44.2558 33.4602 45.1132 33.7262 45.9753 33.9209C46.6973 34.0848 47.4454 34.2036 48.1983 34.2701C49.0771 34.3484 49.9748 34.358 50.8678 34.2986C51.1884 34.2748 51.5114 34.2439 51.8297 34.2036C57.8622 33.4388 63.0397 29.5129 65.3434 23.9578C67.0392 19.8681 67.0297 15.3793 65.3173 11.3181C63.5907 7.22357 60.3464 4.05057 56.1783 2.38807C54.5514 1.7397 52.8557 1.3502 51.1338 1.2267C50.9438 1.21245 50.7514 1.20057 50.5401 1.19345C50.0104 1.17207 49.4761 1.17682 48.9536 1.2077C47.7471 1.27657 46.5429 1.4737 45.3744 1.79907C44.2154 2.1197 43.0873 2.56145 42.0233 3.1172C41.6813 3.29532 41.3464 3.48532 41.0234 3.68007C40.5223 3.98645 40.0449 4.3142 39.5984 4.65145C37.2401 6.43982 35.3947 8.8267 34.2618 11.5579C32.3048 16.2771 32.6302 21.5258 35.1548 25.9576Z" fill="#371A45"/>
<g opacity="0.25">
<path d="M65.3751 23.9723C62.9811 29.7507 57.6778 33.5008 51.8281 34.2418C51.5075 34.2822 51.1869 34.3131 50.8639 34.3368C49.978 34.3986 49.0826 34.3891 48.1873 34.3083C47.4439 34.2418 46.7005 34.1255 45.9595 33.9568C45.0997 33.7645 44.2471 33.5008 43.404 33.1636C43.1261 33.0496 42.8506 32.9332 42.5822 32.8097C42.0312 32.5556 41.5016 32.273 40.9886 31.969C38.483 30.4727 36.4856 28.3898 35.1105 25.9745C34.3552 24.6468 33.7853 23.2218 33.4219 21.7375C34.7875 24.0127 36.7136 25.9721 39.1053 27.4018C39.6159 27.7082 40.1479 27.9885 40.6989 28.2426C40.9672 28.3661 41.2404 28.4825 41.5206 28.5965C42.3638 28.9313 43.2164 29.195 44.0761 29.3897C44.8171 29.5583 45.5605 29.6723 46.3039 29.7412C47.1992 29.822 48.097 29.8291 48.9805 29.7697C49.3035 29.746 49.6241 29.7151 49.9447 29.6747C55.7944 28.9337 61.0978 25.1836 63.4918 19.4052C64.8906 16.0351 65.0878 12.4797 64.285 9.20459C66.8785 13.5176 67.4604 18.9492 65.3751 23.9723Z" fill="#371A45"/>
</g>
<path d="M49.6991 34.7027C49.1837 34.7027 48.6683 34.6789 48.1601 34.6338C47.3929 34.5649 46.6282 34.4438 45.8896 34.2752C45.0084 34.0757 44.1321 33.8049 43.2866 33.4677C42.9754 33.3418 42.7023 33.2231 42.4482 33.1067C41.8972 32.8526 41.3509 32.5652 40.8261 32.2517C38.3371 30.7649 36.2637 28.6512 34.8316 26.1384C32.2499 21.6069 31.9174 16.2418 33.9196 11.4182C35.0762 8.62756 36.9619 6.18843 39.3726 4.35968C39.8262 4.01293 40.3178 3.67806 40.8284 3.36693C41.1562 3.16743 41.5006 2.97268 41.8497 2.79218C42.9374 2.22456 44.0893 1.77093 45.2744 1.44556C46.4691 1.11543 47.6969 0.911183 48.9296 0.842308C49.4663 0.811433 50.0102 0.806683 50.5517 0.828058C50.7678 0.835183 50.9673 0.844683 51.1621 0.861308C52.9172 0.987183 54.6509 1.38618 56.3134 2.04881C60.5718 3.74931 63.8897 6.99118 65.6543 11.1759C67.4047 15.3298 67.4142 19.9183 65.6804 24.0983C63.3268 29.7746 58.0377 33.7836 51.8746 34.5649C51.5492 34.6053 51.2191 34.6386 50.8937 34.6623C50.4923 34.6884 50.0957 34.7027 49.6991 34.7027ZM35.3944 25.8178C36.7696 28.2332 38.7622 30.2638 41.1562 31.6959C41.6621 31.9976 42.1893 32.2754 42.7189 32.5201C42.9636 32.6341 43.2272 32.7481 43.5264 32.8692C44.3387 33.1946 45.1818 33.4558 46.0321 33.6458C46.7422 33.8073 47.4784 33.9237 48.2171 33.9902C49.0816 34.0686 49.9651 34.0781 50.8438 34.0163C51.1573 33.9926 51.4756 33.9617 51.7891 33.9237C57.7218 33.1708 62.8138 29.3114 65.0772 23.8513C66.7444 19.8328 66.7349 15.4201 65.0534 11.4277C63.3577 7.40206 60.1657 4.28606 56.0688 2.64968C54.4704 2.01318 52.8008 1.62843 51.1098 1.50731C50.9222 1.49306 50.7322 1.48118 50.5256 1.47406C50.0031 1.45506 49.4782 1.45981 48.9628 1.48831C47.7777 1.55481 46.5926 1.74956 45.4431 2.06781C44.3031 2.38131 43.1939 2.81831 42.1466 3.36456C41.8093 3.54031 41.4792 3.72556 41.1633 3.91793C40.6717 4.21956 40.1991 4.54018 39.7621 4.87506C37.4417 6.63256 35.6272 8.98143 34.5157 11.6652C32.5943 16.3036 32.9126 21.4621 35.3944 25.8178Z" fill="#371A45"/>
<path d="M49.7008 34.7952C49.1807 34.7952 48.6653 34.7714 48.1523 34.7263C47.3804 34.6574 46.6133 34.5363 45.8699 34.3677C44.984 34.1682 44.1029 33.895 43.2527 33.5554C42.9392 33.4295 42.6637 33.3108 42.4095 33.192C41.8562 32.9379 41.3075 32.6482 40.7779 32.3323C38.2747 30.836 36.1894 28.7104 34.7502 26.1858C32.1543 21.6305 31.8194 16.2345 33.8334 11.3824C34.9972 8.57753 36.8924 6.12416 39.3173 4.28591C39.7733 3.93678 40.2673 3.60191 40.7803 3.28841C41.1104 3.08653 41.4548 2.89178 41.8063 2.70891C42.8988 2.13891 44.0578 1.68291 45.2477 1.35516C46.447 1.02266 47.6844 0.81841 48.9218 0.749535C49.4609 0.71866 50.0095 0.713909 50.551 0.735284C50.7672 0.742409 50.969 0.754284 51.1662 0.768534C52.9308 0.894409 54.674 1.29578 56.3437 1.96078C60.6258 3.67078 63.9627 6.92928 65.7368 11.1402C67.4967 15.3178 67.5062 19.9324 65.7629 24.1362C63.3974 29.8433 58.0774 33.876 51.881 34.6622C51.5533 34.7025 51.2232 34.7358 50.8954 34.7595C50.4988 34.7833 50.0974 34.7952 49.7008 34.7952ZM35.4769 25.7702C36.8449 28.1713 38.8257 30.19 41.2054 31.6127C41.7089 31.9143 42.2314 32.1898 42.7587 32.432C43.0009 32.5437 43.2645 32.6577 43.5614 32.7788C44.3689 33.1018 45.2073 33.3607 46.0504 33.5507C46.7582 33.7122 47.4897 33.8262 48.2235 33.8927C49.0833 33.971 49.962 33.9805 50.8337 33.9188C51.1448 33.8974 51.463 33.8642 51.7742 33.8262C57.6737 33.078 62.7348 29.24 64.9863 23.8108C66.644 19.816 66.6345 15.4294 64.9625 11.4608C63.2763 7.45891 60.1033 4.35953 56.0302 2.73503C54.4413 2.10091 52.7812 1.71853 51.0973 1.59978C50.912 1.58553 50.722 1.57366 50.5178 1.56891C49.9977 1.54991 49.4752 1.55466 48.9645 1.58316C47.7865 1.64966 46.6085 1.84441 45.4662 2.16028C44.3309 2.47378 43.2289 2.90603 42.1887 3.44991C41.8538 3.62328 41.526 3.80853 41.2125 4.00091C40.7233 4.30016 40.2554 4.62078 39.8208 4.95091C37.5147 6.69891 35.7097 9.03354 34.6029 11.703C32.6934 16.3129 33.0117 21.4405 35.4769 25.7702Z" fill="#371A45"/>
<path d="M37.6917 29.3796C47.6548 35.9821 61.0047 30.8663 61.5414 19.1125C61.9072 11.1158 54.2573 4.63683 46.453 4.82683C40.7744 4.96458 35.2763 7.55333 33.0319 16.3076C33.0319 16.3076 32.6448 20.3308 33.7872 22.9813C34.9295 25.6318 36.4947 28.0187 36.4947 28.0187L37.6917 29.3796Z" fill="#371A45"/>
<path d="M61.5349 19.1129C60.9982 30.8644 47.6507 35.9825 37.6876 29.38L37.4453 29.1045C48.3276 30.7979 59.0507 24.1716 59.8154 12.2966C60.9982 14.3225 61.6466 16.6453 61.5349 19.1129Z" fill="#220F2D"/>
<path d="M47.1548 34.4171C46.7487 34.4171 46.3425 34.4028 45.934 34.3767L45.8699 34.3672C44.984 34.1677 44.1029 33.8946 43.2527 33.555C42.9392 33.4291 42.6637 33.3103 42.4095 33.1916C41.8562 32.9375 41.3075 32.6477 40.7779 32.3318C38.2747 30.8356 36.1894 28.71 34.7502 26.1853C32.1543 21.6301 31.8194 16.2341 33.8334 11.382C34.9972 8.57709 36.8924 6.12371 39.3173 4.28546L39.3505 4.25934L39.3885 4.24034C41.3954 3.28559 43.7324 2.77021 46.3378 2.70609C51.0237 2.59446 55.8568 4.59896 59.2602 8.07596C62.3239 11.2062 63.9104 15.1582 63.7252 19.2005C63.5233 23.6013 61.7682 27.4037 58.6474 30.1967C55.6122 32.909 51.4797 34.4171 47.1548 34.4171ZM46.0195 33.5431C50.5463 33.8305 54.9448 32.3841 58.0869 29.5721C61.0367 26.9335 62.6968 23.333 62.8868 19.1601C63.0602 15.3506 61.5592 11.6218 58.6593 8.65784C55.415 5.34471 50.817 3.42809 46.3544 3.53971C43.8844 3.59909 41.6733 4.08359 39.7828 4.97421C37.4933 6.71984 35.7025 9.04259 34.6005 11.6978C32.6863 16.3101 33.0045 21.4377 35.4722 25.7673C36.8402 28.1685 38.8209 30.1872 41.2007 31.6098C41.7042 31.9115 42.2267 32.187 42.7539 32.4292C42.9962 32.5408 43.2598 32.6548 43.5567 32.776C44.3594 33.0966 45.1859 33.3555 46.0195 33.5431Z" fill="#371A45"/>
<path d="M47.1971 32.7167C43.8507 32.7167 40.445 31.7074 37.4572 29.7266L37.4121 29.6957L36.1415 28.247C36.0773 28.1472 34.5431 25.8007 33.4007 23.1479C32.2298 20.4285 32.598 16.4361 32.6146 16.2675L32.6265 16.2034C34.5858 8.55349 39.2337 4.58486 46.4418 4.40911C50.6242 4.30461 54.9348 6.09774 57.9725 9.19949C60.7085 11.9949 62.124 15.5217 61.9577 19.1317C61.7178 24.3639 58.9533 28.7006 54.372 31.0281C52.1395 32.1586 49.6837 32.7167 47.1971 32.7167ZM37.9631 29.0616C42.915 32.3225 49.0496 32.7904 53.9872 30.2847C58.2931 28.0974 60.8913 24.0195 61.117 19.0961C61.2713 15.7189 59.939 12.4152 57.3692 9.78849C54.4907 6.84824 50.4128 5.15011 46.4561 5.24749C39.6778 5.41374 35.2983 9.15911 33.4387 16.3815C33.4078 16.7567 33.13 20.419 34.1631 22.8201C35.2176 25.2664 36.6545 27.5107 36.8207 27.7672L37.9631 29.0616Z" fill="#371A45"/>
<path d="M68.9968 18.2316C69.2485 21.4972 67.5029 24.3947 65.097 24.6987C62.6935 25.0051 60.5394 22.6039 60.2901 19.3359C60.2877 19.3146 60.2877 19.2932 60.2853 19.2742C60.0597 16.0323 61.8005 13.1728 64.1874 12.8688C66.0447 12.6337 67.7523 14.0112 68.5479 16.1582C68.7831 16.7899 68.9398 17.4906 68.9968 18.2316Z" fill="white"/>
<g opacity="0.25">
<path d="M68.9927 18.2318C69.2445 21.4974 67.4989 24.3949 65.093 24.6989C62.6895 25.0053 60.5354 22.6041 60.286 19.3361C60.2836 19.3148 60.2836 19.2934 60.2812 19.2744C60.571 19.576 61.008 19.8539 61.5566 19.671C62.5185 19.3528 64.1074 17.0276 64.1074 17.0276C64.1074 17.0276 66.0288 16.6381 68.5439 16.156C68.779 16.7901 68.9357 17.4908 68.9927 18.2318Z" fill="#371A45"/>
</g>
<path d="M64.6755 25.1456C63.7848 25.1456 62.9203 24.8226 62.1532 24.198C60.8565 23.1387 60.0228 21.3812 59.8685 19.372C59.6025 15.8926 61.5143 12.7909 64.1316 12.4584C65.1861 12.3254 66.2216 12.6412 67.1241 13.3775C68.4208 14.4367 69.2545 16.1942 69.4088 18.2035C69.6748 21.6829 67.763 24.7846 65.1457 25.1171C64.989 25.1361 64.8322 25.1456 64.6755 25.1456ZM64.5971 13.2611C64.4783 13.2611 64.3572 13.2682 64.2361 13.2849C62.0535 13.5627 60.467 16.2631 60.6997 19.3055C60.8351 21.0606 61.5737 22.6471 62.6805 23.5472C63.4001 24.1339 64.2171 24.3904 65.0388 24.2859C67.2215 24.008 68.808 21.3076 68.5752 18.2652C68.4398 16.5101 67.7012 14.9236 66.5945 14.0235C65.9817 13.5224 65.2977 13.2611 64.5971 13.2611Z" fill="#371A45"/>
<path d="M69.6494 19.2365C69.6998 16.632 68.145 14.4898 66.1765 14.4516C64.2081 14.4135 62.5715 16.4939 62.521 19.0984C62.4706 21.7029 64.0254 23.8451 65.9938 23.8832C67.9623 23.9214 69.5989 21.8409 69.6494 19.2365Z" fill="white"/>
<path d="M66.0495 23.9298C65.6814 23.9298 65.3133 23.8538 64.9547 23.7018C63.0689 22.9085 62.0382 20.2295 62.6557 17.731C63 16.3393 63.7957 15.2397 64.8359 14.7195C65.6102 14.3324 66.4319 14.3015 67.2157 14.6317C69.1014 15.4249 70.1322 18.1039 69.5147 20.6024C69.1703 21.9942 68.3747 23.0938 67.3344 23.6139C66.9164 23.8229 66.4842 23.9298 66.0495 23.9298ZM66.1208 14.4915C65.7004 14.4915 65.28 14.5937 64.8739 14.7979C63.8574 15.3085 63.0784 16.3844 62.7388 17.7524C62.1284 20.2105 63.1378 22.8444 64.9855 23.621C65.7455 23.9417 66.5435 23.9108 67.294 23.5355C68.3105 23.0249 69.0895 21.949 69.4292 20.581C70.0395 18.1229 69.0302 15.489 67.1824 14.7124C66.8333 14.5652 66.477 14.4915 66.1208 14.4915Z" fill="#371A45"/>
<g opacity="0.25">
<path d="M62.8805 21.4259C62.5931 20.5804 62.5433 19.6518 62.6881 18.7659C63.5051 20.6398 65.3434 21.2834 66.9441 20.1885C67.9796 19.4808 68.6755 18.2102 68.9011 16.8374C68.9534 16.9562 69.0009 17.0797 69.0436 17.2079C69.7728 19.362 68.9819 22.0529 67.2814 23.219C65.5785 24.3828 63.6096 23.58 62.8805 21.4259Z" fill="#371A45"/>
</g>
<path d="M66.1377 24.3044C65.4798 24.3044 64.841 24.0645 64.2686 23.599C63.2188 22.7464 62.5182 21.2217 62.3947 19.5164C62.1857 16.6403 63.663 14.0777 65.6888 13.8045C66.4726 13.6977 67.2445 13.9352 67.9237 14.4862C68.9735 15.3388 69.6741 16.8635 69.7976 18.5688C70.0066 21.4449 68.5293 24.0075 66.5035 24.2807C66.38 24.2973 66.2588 24.3044 66.1377 24.3044ZM66.0475 14.6144C65.9643 14.6144 65.8836 14.6192 65.8005 14.631C64.2045 14.8472 63.0502 17.0108 63.2283 19.4547C63.3352 20.9343 63.9218 22.2405 64.7958 22.9507C65.2922 23.352 65.8432 23.5278 66.3918 23.4518C67.9878 23.2357 69.1421 21.072 68.964 18.6282C68.8571 17.1485 68.2705 15.8423 67.3965 15.1322C66.9737 14.7925 66.513 14.6144 66.0475 14.6144Z" fill="#371A45"/>
<g opacity="0.5">
<path d="M50.6884 8.057C50.6884 8.057 43.8603 7.62712 39.9178 11.8784C39.913 11.8831 39.9107 11.8879 39.9059 11.8926C39.077 12.788 38.032 14.9564 37.7732 16.1391C37.4312 17.7042 37.4264 18.83 37.462 19.8227C37.5713 22.839 38.1935 24.2284 38.1935 24.2284C36.398 22.706 35.3507 20.9366 35.2367 18.4262C35.2248 18.1792 35.2248 17.9227 35.2295 17.6591C35.2319 17.5997 35.2343 17.538 35.2367 17.4786C35.2343 17.4786 35.2367 17.4762 35.2367 17.4739C35.2889 16.9419 35.3815 16.246 35.5549 15.4694C36.0727 13.1276 37.2982 10.0496 40.1933 8.52725C45.6083 5.682 50.9283 7.73162 50.6884 8.057Z" fill="white"/>
</g>
<g opacity="0.5">
<path d="M56.3069 18.7058C57.4912 18.3268 58.0983 16.9167 57.6629 15.5563C57.2275 14.1959 55.9145 13.4003 54.7303 13.7793C53.546 14.1583 52.9389 15.5684 53.3743 16.9288C53.8096 18.2893 55.1226 19.0849 56.3069 18.7058Z" fill="white"/>
</g>
<g opacity="0.5">
<path d="M57.3407 21.7145C57.8125 21.5135 58.0074 20.9103 57.7761 20.3673C57.5447 19.8242 56.9746 19.547 56.5028 19.748C56.0309 19.9491 55.836 20.5523 56.0674 21.0953C56.2988 21.6383 56.8688 21.9156 57.3407 21.7145Z" fill="white"/>
</g>
<path d="M66.8086 56.5807C67.0841 61.7059 67.438 66.2683 67.096 68.8167C66.9677 69.7667 66.7445 70.4364 66.3835 70.7523C65.3503 71.6572 62.3531 71.8353 59.9852 71.8353C56.6745 71.8329 53.9717 71.6738 54.0002 69.1943C54.0026 69.0471 54.0216 68.9069 54.0572 68.7692C54.4918 67.0972 57.2825 66.3372 57.2825 66.3372C57.1233 64.0144 56.7267 59.5566 56.456 56.5783C56.2968 54.8351 56.1805 53.6001 56.1805 53.6001L61.0302 49.3298L66.8988 46.5511L67.4783 43.6536C68.0745 49.3916 66.6186 52.2534 66.6186 52.2534C66.6661 53.7188 66.735 55.1699 66.8086 56.5807Z" fill="white"/>
<g opacity="0.25">
<path d="M67.096 68.8168C66.9677 69.7668 66.7445 70.4365 66.3835 70.7524C65.3504 71.6573 62.3531 71.8354 59.9852 71.8354C56.6745 71.833 53.9717 71.6739 54.0002 69.1944C54.0026 69.0472 54.0216 68.907 54.0572 68.7693C54.2995 69.3037 54.898 69.8357 56.266 70.0138C57.7314 70.2085 64.1367 70.6859 67.096 68.8168Z" fill="#371A45"/>
</g>
<g opacity="0.25">
<path d="M66.6154 52.2537C66.6629 53.7191 66.7318 55.1702 66.8078 56.581C63.2786 55.0159 58.6188 55.9801 56.4552 56.581C56.2961 54.8377 56.1797 53.6027 56.1797 53.6027L61.0294 49.3325L66.8981 46.5537L67.4776 43.6562C68.0713 49.3919 66.6154 52.2537 66.6154 52.2537Z" fill="#371A45"/>
</g>
<path d="M56.386 53.5812C56.6924 55.1416 56.88 56.7566 57.0415 58.336C57.2078 59.9272 57.3574 61.5185 57.4856 63.1121C57.5711 64.1761 57.6448 65.2401 57.697 66.3089C57.7231 66.5131 57.5901 66.7055 57.3906 66.7411C56.2744 67.0926 54.4433 67.8787 54.4171 69.2254C54.3839 70.3867 55.2056 70.9211 56.253 71.1539C57.355 71.4009 58.4926 71.4056 59.635 71.4175C61.5184 71.4056 63.4635 71.4127 65.2709 70.8689C65.5725 70.7691 65.9121 70.6195 66.1306 70.4176C66.5605 69.9094 66.6223 69.1517 66.7149 68.4939C66.7956 67.7457 66.817 66.981 66.8194 66.2115C66.7838 61.5636 66.3278 56.9252 66.1995 52.2678C66.1971 52.1942 66.2138 52.1253 66.2446 52.066C66.3064 51.9401 66.38 51.7525 66.4299 51.61C66.8408 50.4438 67.0403 49.2136 67.1376 47.981C67.2469 46.5607 67.2065 45.1238 67.0593 43.6965C67.0355 43.4661 67.2018 43.2618 67.4321 43.2381C67.6625 43.2143 67.8668 43.3806 67.8905 43.611C68.0425 45.0787 68.0853 46.5631 67.9713 48.0451C67.843 49.5414 67.6031 51.059 66.988 52.446L67.0331 52.2441C67.1305 55.3387 67.3371 58.4334 67.501 61.5399C67.6055 63.8816 67.7646 66.2352 67.5438 68.5865C67.2849 70.9591 66.6769 71.5101 64.347 71.9566C62.7795 72.2274 61.2049 72.2606 59.6279 72.2559C58.4475 72.244 57.2339 72.2345 56.0583 71.9685C54.6333 71.6597 53.5479 70.7929 53.5788 69.2254C53.6001 67.589 55.2389 66.6532 56.5784 66.1355C56.7708 66.0619 56.956 65.9977 57.1698 65.9384L56.8634 66.3706C56.5831 63.3021 56.2791 59.8821 56.0749 56.8231C56.0108 55.7591 55.9609 54.6951 55.9704 53.624C55.9751 53.3746 56.3338 53.3319 56.386 53.5812Z" fill="#371A45"/>
<path d="M60.5652 59.6565C59.2494 59.6565 57.8482 59.476 56.4921 58.9749C56.2759 58.8941 56.1643 58.6542 56.245 58.4381C56.3258 58.222 56.5657 58.1104 56.7818 58.1911C61.2373 59.8346 66.4267 57.6995 66.4789 57.6757C66.6927 57.5855 66.9373 57.6876 67.0252 57.899C67.1154 58.1127 67.0157 58.3574 66.8019 58.4452C66.6428 58.5141 63.8736 59.6565 60.5652 59.6565Z" fill="#371A45"/>
<path d="M57.2197 65.9242C58.4001 65.822 59.5615 65.8363 60.7371 65.9218C61.1242 65.9503 61.5114 65.993 61.8961 66.0382C62.0101 66.0524 62.0932 66.1569 62.079 66.2709C62.0647 66.3802 61.9697 66.4609 61.8629 66.4538C60.3595 66.4039 58.8252 66.487 57.3456 66.7483C56.7685 66.8457 56.6402 66.0002 57.2197 65.9242Z" fill="#371A45"/>
<path d="M47.8083 50.1991C48.6819 50.1991 49.3901 49.491 49.3901 48.6174C49.3901 47.7438 48.6819 47.0356 47.8083 47.0356C46.9347 47.0356 46.2266 47.7438 46.2266 48.6174C46.2266 49.491 46.9347 50.1991 47.8083 50.1991Z" fill="white"/>
<path d="M47.8044 50.6172C46.7024 50.6172 45.8047 49.7194 45.8047 48.6174C45.8047 47.5154 46.7024 46.6177 47.8044 46.6177C48.9064 46.6177 49.8042 47.5154 49.8042 48.6174C49.8042 49.7194 48.9088 50.6172 47.8044 50.6172ZM47.8044 47.4537C47.1632 47.4537 46.6407 47.9762 46.6407 48.6174C46.6407 49.2587 47.1632 49.7812 47.8044 49.7812C48.4457 49.7812 48.9682 49.2587 48.9682 48.6174C48.9682 47.9762 48.4481 47.4537 47.8044 47.4537Z" fill="#371A45"/>
<path d="M48.8735 52.6574L58.0434 52.8451C59.1288 52.8688 60.036 51.9972 60.0574 50.9118L60.1571 46.0312C60.1761 45.0788 59.5111 44.2666 58.6158 44.0647C58.4899 44.0362 58.3569 44.0196 58.2215 44.0172L49.054 43.8296C47.9663 43.8058 47.0614 44.6774 47.04 45.7628L46.9593 49.6269L46.9379 50.6411C46.9165 51.7288 47.7881 52.6361 48.8735 52.6574Z" fill="white"/>
<path d="M48.8735 52.6574L58.0434 52.8451C59.1288 52.8688 60.036 51.9972 60.0574 50.9118L60.1571 46.0312C60.1761 45.0788 59.5111 44.2666 58.6158 44.0647C58.4899 44.0362 58.3569 44.0196 58.2215 44.0172L49.054 43.8296C47.9663 43.8058 47.0614 44.6774 47.04 45.7628L46.9593 49.6269L46.9379 50.6411C46.9165 51.7288 47.7881 52.6361 48.8735 52.6574Z" fill="white"/>
<path d="M48.8735 52.6574L58.0434 52.8451C59.1288 52.8688 60.036 51.9972 60.0574 50.9118L60.1571 46.0312C60.1761 45.0788 59.5111 44.2666 58.6158 44.0647C58.4899 44.0362 58.3569 44.0196 58.2215 44.0172L49.054 43.8296C47.9663 43.8058 47.0614 44.6774 47.04 45.7628L46.9593 49.6269L46.9379 50.6411C46.9165 51.7288 47.7881 52.6361 48.8735 52.6574Z" fill="white"/>
<g opacity="0.25">
<path d="M48.8578 52.6577L58.0277 52.8453C59.1131 52.8691 60.0203 51.9974 60.0417 50.9121L60.1414 46.0314C60.1604 45.0791 59.4954 44.2668 58.6001 44.0649C58.0728 44.3998 57.7379 44.6136 57.7379 44.6136C57.2107 48.5204 56.0564 50.4513 51.1901 50.4323C49.0906 50.4228 47.7701 50.0761 46.9436 49.6272L46.9222 50.6413C46.9032 51.7314 47.7724 52.6363 48.8578 52.6577Z" fill="#371A45"/>
</g>
<path d="M58.019 53.2633C58.0024 53.2633 57.9858 53.2633 57.9668 53.2633L48.9323 53.0781C48.2768 53.0638 47.6664 52.7955 47.2104 52.3205C46.7544 51.8455 46.5098 51.2232 46.524 50.5677L46.6214 45.8225C46.6499 44.4663 47.7757 43.3833 49.1318 43.4142L58.1663 43.5995C58.8218 43.6137 59.4321 43.8821 59.8881 44.3571C60.3441 44.8321 60.5888 45.4543 60.5745 46.1098L60.4771 50.8551C60.451 52.1922 59.3538 53.2633 58.019 53.2633ZM57.9858 52.4273C58.418 52.4345 58.8289 52.2753 59.1424 51.9737C59.4559 51.6721 59.634 51.2683 59.6435 50.8361L59.7409 46.0908C59.7504 45.6586 59.5889 45.2477 59.2873 44.9342C58.9856 44.6207 58.5819 44.4426 58.1496 44.4331L49.1152 44.2478C48.2174 44.2336 47.4764 44.9437 47.4574 45.8391L47.36 50.5843C47.3505 51.0166 47.512 51.4275 47.8137 51.741C48.1153 52.0545 48.519 52.2326 48.9513 52.2421L57.9858 52.4273Z" fill="#371A45"/>
<path d="M52.1172 52.6907L52.1338 52.7263L58.0428 52.8474C58.8384 52.8617 59.5367 52.4009 59.8621 51.7241C59.9808 51.4794 60.0497 51.2039 60.0568 50.9142L60.1019 48.7458L60.1162 48.0309L60.1423 46.7746L60.1589 46.0336C60.1803 44.9458 59.3111 44.0409 58.2257 44.0172L56.2449 43.9768C57.1546 44.1668 57.8338 44.9862 57.8148 45.9481L57.7863 47.3968L57.7602 48.5843L57.7151 50.8311C57.6913 51.9164 56.7841 52.7857 55.6987 52.7643L52.1172 52.6907Z" fill="white"/>
<g opacity="0.25">
<path d="M51.1875 52.6718L51.2041 52.7074L58.0489 52.8475C58.8445 52.8618 59.5428 52.401 59.8681 51.7242C59.9869 51.4795 60.0557 51.204 60.0629 50.9143L60.108 48.7459L60.1222 48.031L60.1484 46.7747C59.7518 46.7105 59.2245 46.7557 58.9253 47.3375C58.512 48.1427 58.0964 47.8624 57.79 47.3993L57.7639 48.5868L57.7188 50.8335C57.695 51.9189 56.7878 52.7882 55.7024 52.7668L51.1875 52.6718Z" fill="#371A45"/>
</g>
<path d="M58.0888 53.2657C58.0722 53.2657 58.0556 53.2657 58.0366 53.2657L49.3203 53.0876L49.3251 52.672C49.3298 52.3727 49.5317 52.2896 49.7502 52.2706V52.2611L49.8951 52.2635C49.9331 52.2635 49.9711 52.2635 50.0067 52.2635L55.7091 52.3466C56.1223 52.3537 56.5189 52.2017 56.8182 51.912C57.1198 51.6222 57.2908 51.2351 57.2979 50.8218L57.3977 45.9412C57.4119 45.1955 56.8918 44.54 56.1603 44.3856L56.2553 43.5591L58.2361 43.5995C58.8726 43.6137 59.4687 43.875 59.9128 44.3357C60.3569 44.7988 60.5944 45.4045 60.5802 46.041L60.4804 50.9216C60.4686 51.5581 60.2049 52.1542 59.7442 52.5983C59.2906 53.0282 58.7063 53.2657 58.0888 53.2657ZM57.4903 52.4178L58.0532 52.4297C58.4664 52.4368 58.8607 52.2848 59.1599 51.9951C59.4616 51.7053 59.6326 51.3182 59.6397 50.905L59.7394 46.0243C59.7489 45.6111 59.5946 45.2168 59.3048 44.9152C59.0151 44.6136 58.6279 44.4426 58.2147 44.4355L57.7136 44.426C58.0484 44.8487 58.2432 45.3855 58.2313 45.9602L58.1316 50.8408C58.1197 51.4298 57.8941 51.9856 57.4903 52.4178Z" fill="#371A45"/>
<path d="M54.1485 48.3538C54.1461 48.5343 54.3788 49.9949 54.3788 49.9949C54.3788 49.9949 54.8396 50.002 55.4072 50.0092C56.115 50.0187 56.6992 49.2943 56.7134 48.3918C56.7277 47.4869 56.1648 46.7459 55.4547 46.7364C54.9773 46.7293 54.4263 46.7222 54.4263 46.7222C54.4263 46.7222 54.1532 48.0593 54.1485 48.3538Z" fill="#22A7F0"/>
<path d="M54.1485 48.3538C54.1461 48.5343 54.3788 49.9949 54.3788 49.9949C54.3788 49.9949 54.8396 50.002 55.4072 50.0092C56.115 50.0187 56.6992 49.2943 56.7134 48.3918C56.7277 47.4869 56.1648 46.7459 55.4547 46.7364C54.9773 46.7293 54.4263 46.7222 54.4263 46.7222C54.4263 46.7222 54.1532 48.0593 54.1485 48.3538Z" fill="#1C7AEA"/>
<path d="M55.4224 50.3253C55.4153 50.3253 55.4106 50.3253 55.4034 50.3253L54.6886 50.3158C54.3537 50.311 54.0711 50.0664 54.0212 49.7363C53.8336 48.525 53.8359 48.3992 53.8359 48.354C53.8383 48.1783 53.9143 47.7128 54.0592 46.9694C54.1233 46.644 54.4083 46.4137 54.7432 46.416L55.4604 46.4255C55.9022 46.4327 56.3083 46.6512 56.6052 47.043C56.8854 47.4112 57.0351 47.8933 57.0279 48.4015C57.0113 49.4655 56.2941 50.3253 55.4224 50.3253ZM54.4629 48.3588C54.4653 48.4277 54.5104 48.8029 54.6411 49.6389C54.6458 49.6674 54.6696 49.6888 54.6981 49.6888L55.4129 49.6983C55.4153 49.6983 55.4201 49.6983 55.4224 49.6983C55.9521 49.6983 56.3891 49.114 56.4009 48.3897C56.4057 48.0215 56.3012 47.6772 56.1064 47.4207C55.9283 47.1855 55.6956 47.0549 55.4509 47.0525L54.7337 47.043C54.7028 47.0478 54.6814 47.062 54.6743 47.0905C54.5223 47.8672 54.4653 48.2543 54.4629 48.3588Z" fill="#371A45"/>
<path d="M55.6827 48.3764C55.6961 47.4727 55.1328 46.7317 54.4246 46.7212C53.7163 46.7107 53.1313 47.4347 53.118 48.3384C53.1046 49.2421 53.6679 49.9831 54.3761 49.9936C55.0844 50.0041 55.6693 49.28 55.6827 48.3764Z" fill="#22A7F0"/>
<g opacity="0.7">
<path d="M55.6825 48.3779C55.6825 48.4467 55.6777 48.5132 55.6706 48.5774C55.5447 47.8577 55.0484 47.3162 54.4427 47.3067C53.7872 47.2972 53.2386 47.9171 53.1484 48.7246C53.127 48.6011 53.1151 48.4705 53.1175 48.3375C53.1317 47.4326 53.716 46.7082 54.4237 46.7201C55.1315 46.732 55.6944 47.473 55.6825 48.3779Z" fill="white"/>
</g>
<path d="M55.6879 48.3776C55.6736 49.2801 55.0894 50.0068 54.3816 49.9949C53.6739 49.9831 53.111 49.2421 53.1253 48.3372C53.1276 48.1947 53.1443 48.0569 53.1728 47.9239C53.3509 48.5367 53.8093 48.9737 54.3508 48.9832C54.9469 48.9927 55.4551 48.4797 55.6095 47.7791C55.6618 47.9643 55.6903 48.1662 55.6879 48.3776Z" fill="#1C7AEA"/>
<path d="M54.3938 50.3089C54.3867 50.3089 54.3796 50.3089 54.3724 50.3089C53.9307 50.3017 53.5246 50.0832 53.2277 49.6914C52.9474 49.3232 52.7978 48.8411 52.8049 48.3329C52.8121 47.827 52.9759 47.3472 53.2681 46.9886C53.5721 46.6134 53.9758 46.4067 54.4104 46.4067C54.4176 46.4067 54.4247 46.4067 54.4318 46.4067C54.8736 46.4139 55.2797 46.6324 55.5766 47.0242C55.8568 47.3924 56.0064 47.8745 55.9993 48.3827C55.9922 48.891 55.8283 49.3684 55.5362 49.727C55.2322 50.1022 54.8284 50.3089 54.3938 50.3089ZM53.4343 48.3447C53.4296 48.7129 53.5341 49.0572 53.7288 49.3137C53.9069 49.5489 54.1397 49.6795 54.3843 49.6819C54.6242 49.6866 54.8641 49.5607 55.0493 49.3327C55.2512 49.081 55.3676 48.7414 55.3723 48.3732C55.3771 48.0051 55.2726 47.6607 55.0778 47.4042C54.8997 47.1691 54.6669 47.0385 54.4223 47.0361C54.4199 47.0361 54.4152 47.0361 54.4128 47.0361C54.1729 47.0361 53.9402 47.1596 53.7573 47.3852C53.5554 47.6346 53.4391 47.9766 53.4343 48.3447Z" fill="#371A45"/>
<path d="M51.7247 52.9947C51.5514 52.9947 51.4112 52.8545 51.4112 52.6812L51.4041 50.2112C51.4017 49.7433 51.169 49.3087 50.7771 49.0522C50.1952 48.6698 49.8556 48.0262 49.8675 47.3303L49.9269 43.8485C49.9292 43.6775 50.0694 43.5398 50.2404 43.5398C50.2427 43.5398 50.2451 43.5398 50.2451 43.5398C50.4185 43.5422 50.5562 43.6847 50.5539 43.858L50.4945 47.3398C50.4874 47.8195 50.7201 48.2637 51.1215 48.5273C51.6891 48.9002 52.0287 49.5295 52.0311 50.2088L52.0382 52.6788C52.0382 52.8545 51.8981 52.9947 51.7247 52.9947Z" fill="#371A45"/>
<path d="M67.5443 46.062C67.5443 46.062 68.3898 46.7959 68.2877 48.0261C68.1808 49.3205 67.1714 49.6863 67.1714 49.6863C67.1714 49.6863 63.4593 51.154 60.0702 50.1494C60.0702 50.1494 58.1583 48.8051 60.1177 46.8695C60.1201 46.8695 64.2668 47.8836 67.5443 46.062Z" fill="white"/>
<g opacity="0.25">
<path d="M68.2885 48.0261C68.1817 49.3204 67.1699 49.6862 67.1699 49.6862C67.1699 49.6862 63.4578 51.1539 60.0687 50.1469C60.0687 50.1469 58.7482 49.2159 59.4298 47.7909C59.4417 47.8218 59.4559 47.8527 59.4702 47.8836C59.7029 48.3704 60.1637 48.7148 60.6909 48.8288C63.9162 49.5342 67.2293 48.2232 67.2293 48.2232C67.2293 48.2232 67.9014 47.9786 68.2078 47.1853C68.2767 47.4323 68.3123 47.7126 68.2885 48.0261Z" fill="#371A45"/>
</g>
<path d="M62.672 50.9214C61.7932 50.9214 60.8646 50.8216 59.9502 50.5485L59.8837 50.5295L59.8267 50.4891C59.7887 50.463 58.91 49.8336 58.8197 48.7744C58.758 48.0286 59.0928 47.2876 59.8196 46.5704L59.9858 46.4065L60.2138 46.4611C60.2542 46.4706 64.2466 47.4111 67.3388 45.694L67.5953 45.5515L67.8162 45.7439C67.8566 45.7795 68.8208 46.6321 68.7021 48.0595C68.5762 49.6033 67.3626 50.0593 67.3103 50.0783C67.2035 50.1234 65.1443 50.9214 62.672 50.9214ZM60.2613 49.7719C63.4462 50.6791 66.9778 49.3135 67.0135 49.2993C67.0515 49.285 67.7853 48.9881 67.8685 47.993C67.9231 47.328 67.6476 46.8411 67.4505 46.5823C64.5482 48.0381 61.1781 47.5133 60.2542 47.328C59.822 47.803 59.6201 48.2638 59.6533 48.7008C59.6985 49.2541 60.1188 49.6508 60.2613 49.7719Z" fill="#371A45"/>
<path d="M24.0156 54.7402C25.0203 60.3262 23.6546 68.2136 24.4692 69.28C25.3717 70.4627 29.0292 70.7121 31.6441 70.2513C33.2924 70.3321 34.2543 70.2585 34.5796 69.622C36.0284 66.7957 30.3521 65.9478 30.3521 65.9478C30.3521 65.9478 33.3565 58.45 32.6369 51.002" fill="#62ED2E"/>
<path d="M31.4742 68.2229C31.8138 68.7906 32.4836 69.1421 33.1438 69.1041C33.8041 69.0661 34.4263 68.6362 34.6971 68.0329C34.9916 68.6314 34.9369 69.4508 34.4073 69.8546C34.0819 70.1016 33.6473 70.1514 33.2388 70.1586C32.6664 70.1704 32.0941 70.1182 31.5359 70.0042C31.8661 69.3677 31.7616 68.5317 31.2818 67.9973C31.1488 68.0828 31.0158 68.1707 30.8828 68.2562" fill="#2BC614"/>
<path d="M30.9288 63.1382C30.5845 62.371 29.7865 61.8295 28.9481 61.7939C28.1073 61.7583 27.2666 62.2309 26.8605 62.9672C26.585 63.4659 26.5066 64.0502 26.4496 64.6178C26.3403 65.7412 26.3023 66.874 26.3356 68.0022C26.3427 68.2515 26.3593 68.5199 26.509 68.7194C26.6396 68.8952 26.851 68.9902 27.0552 69.0733C27.7867 69.3678 28.5728 69.5887 29.3566 69.5127C30.1427 69.4367 30.9288 69.0092 31.2613 68.2967C31.5582 68.8025 31.8479 69.4652 31.4917 69.9283C31.2328 70.2655 30.7531 70.3178 30.328 70.3439C28.5657 70.446 26.7037 70.5292 25.1338 69.7169C24.8156 69.5507 24.4973 69.3322 24.3501 69.0044C24.2313 68.7408 24.2385 68.4392 24.2456 68.1518C24.3145 65.6984 24.3833 63.245 24.4522 60.7917C24.6541 61.098 25.1053 61.0648 25.464 60.984C27.9458 60.4259 30.3113 59.3477 32.3586 57.8372C32.1448 59.6659 31.7245 61.4709 31.1093 63.2047" fill="#2BC614"/>
<path d="M24.4271 54.6664C25.1396 58.806 24.6883 62.9812 24.6147 67.1304C24.6171 67.6885 24.61 68.2324 24.7097 68.7572C24.7406 68.8855 24.7548 68.971 24.8213 69.0494C25.1871 69.4484 25.7167 69.6051 26.2653 69.7571C28.0062 70.1704 29.8991 70.1039 31.6661 69.8307C32.381 69.8545 33.2455 69.9257 33.8891 69.693C34.1978 69.5814 34.2715 69.3225 34.3546 69.0541C34.718 67.6267 32.4926 66.9119 31.4286 66.6079C31.0533 66.5081 30.6615 66.4179 30.291 66.3585C30.0653 66.33 29.9062 66.121 29.9371 65.8954C30.1342 65.2755 30.367 64.6485 30.5522 64.0096C31.45 61.0076 32.0936 57.913 32.3026 54.7827C32.3952 53.5311 32.419 52.2795 32.4308 51.016C32.4308 50.8996 32.5258 50.807 32.6422 50.8094C32.7443 50.8094 32.8275 50.883 32.8465 50.9804C33.2146 52.8804 33.1861 54.835 32.9913 56.7516C32.6612 59.9531 31.9226 63.1047 30.7398 66.102L30.4145 65.5344C30.842 65.6032 31.241 65.6935 31.6471 65.8027C33.2217 66.2302 35.6703 67.2064 35.1645 69.2679C35.098 69.5125 35.0053 69.7429 34.87 69.9542C34.7013 70.206 34.4448 70.3746 34.2097 70.4696C33.3713 70.7807 32.4855 70.6929 31.6257 70.6691L31.7183 70.6644C29.7851 71.0064 25.4982 71.1655 24.1421 69.541C23.926 69.2441 23.8785 68.8902 23.8357 68.5554C23.7811 68.0637 23.7811 67.5959 23.7811 67.128C23.8143 64.8266 23.9901 62.5229 23.9877 60.2381C23.9901 58.4141 23.9212 56.5854 23.6077 54.816C23.5246 54.2745 24.3107 54.1201 24.4271 54.6664Z" fill="#371A45"/>
<path d="M33.7345 54.7496C32.9674 58.3501 29.9108 60.053 26.1274 60.5185C22.1493 61.0101 17.4112 58.9961 16.3638 55.7542C16.0693 54.8422 15.9007 53.9611 15.8294 53.1014C15.2737 46.3801 20.6887 41.1694 17.9313 35.6807C16.6749 33.1799 26.961 32.4507 29.9393 38.7825C31.4617 42.0172 32.8202 44.6131 33.5493 47.2707C34.1787 49.5697 34.3425 51.9115 33.7345 54.7496Z" fill="#62ED2E"/>
<path d="M33.7332 54.7498C32.9661 58.3503 29.9095 60.0532 26.1261 60.5187C22.148 61.0103 17.4099 58.9963 16.3625 55.7544C16.068 54.8424 15.8994 53.9613 15.8281 53.1016C17.7685 55.2533 21.2217 55.6215 22.9317 54.4268C26.6272 51.8476 23.3806 48.4585 23.4234 45.9077C23.4495 44.2713 28.7719 45.6773 33.5456 47.2709C34.1774 49.5699 34.3412 51.9117 33.7332 54.7498Z" fill="#2BC614"/>
<path d="M24.9044 61.0104C23.2347 61.0104 21.4891 60.6304 19.962 59.9155C17.91 58.956 16.4874 57.5263 15.9577 55.8828C14.604 51.7004 15.8532 48.0476 16.9529 44.8248C18.0596 41.5853 19.0167 38.7875 17.549 35.8686C17.3305 35.4364 17.3519 34.9875 17.606 34.6075C18.1736 33.7596 19.9097 33.3131 22.0259 33.4723C24.9685 33.6931 28.6877 35.1585 30.3099 38.6046C30.5782 39.177 30.8419 39.728 31.0984 40.2624C33.566 45.4233 35.3496 49.1496 34.136 54.833C33.4021 58.2696 30.6471 60.3763 26.1702 60.9296C25.757 60.9866 25.3342 61.0104 24.9044 61.0104ZM18.2971 35.4958C19.9216 38.7281 18.8647 41.8204 17.7461 45.0979C16.6346 48.3493 15.4875 51.7099 16.7534 55.6286C17.6867 58.5119 22.0401 60.6043 26.0705 60.1055C28.9229 59.754 32.4949 58.5238 33.3214 54.6644C34.4756 49.2589 32.7442 45.6394 30.3479 40.6281C30.0914 40.0914 29.8254 39.538 29.557 38.9656C28.0869 35.8425 24.6716 34.5149 21.9665 34.3106C20.019 34.1634 18.6272 34.5956 18.3042 35.0778C18.2401 35.168 18.1926 35.2891 18.2971 35.4958Z" fill="#371A45"/>
<path d="M26.8047 53.6861C27.2773 52.4107 28.5574 51.7101 29.6642 52.121C30.7709 52.5318 31.2839 53.8975 30.8089 55.1728C30.3363 56.4482 29.0562 57.1488 27.9494 56.738" fill="#62ED2E"/>
<path d="M26.6104 53.6145C26.9311 52.3795 28.2349 51.3868 29.5388 51.6789C30.9306 51.9782 31.6359 53.5053 31.3343 54.8187C31.0517 56.3315 29.3963 57.6402 27.8787 56.9348C27.6483 56.8232 27.7789 56.4764 28.0236 56.5429C28.8026 56.7353 29.6124 56.3505 30.0708 55.7164C31.0256 54.5123 30.5886 52.2964 28.8192 52.3819C28.0283 52.446 27.3491 53.0421 27.0023 53.7594C26.8931 53.9898 26.5416 53.8592 26.6104 53.6145Z" fill="#371A45"/>
<path d="M30.8087 55.1723C30.3337 56.4476 29.0535 57.1483 27.9492 56.7398C27.9492 56.7398 27.2937 56.4975 26.9374 55.5499C26.5788 54.6023 26.8044 53.6855 26.8044 53.6855C26.9588 53.2723 27.1963 52.9184 27.4884 52.6453C26.8947 53.7971 27.087 55.0963 27.9634 55.6259C28.8873 56.184 30.2244 55.6663 30.9488 54.4693C30.9583 54.4526 30.9678 54.436 30.9773 54.4194C30.9559 54.6688 30.9013 54.9229 30.8087 55.1723Z" fill="#2BC614"/>
<g opacity="0.7">
<path d="M30.8089 55.1728C30.6926 55.484 30.5287 55.7618 30.3316 55.9946C30.6926 54.7738 30.1772 53.5198 29.1251 53.1303C28.3318 52.8358 27.4459 53.1137 26.8356 53.7692L26.8047 53.6861C27.2773 52.4107 28.5574 51.7101 29.6642 52.121C30.7686 52.5318 31.2839 53.8975 30.8089 55.1728Z" fill="white"/>
</g>
<path d="M26.6104 53.6145C26.9311 52.3795 28.2349 51.3868 29.5388 51.6789C30.9306 51.9782 31.6359 53.5053 31.3343 54.8187C31.0517 56.3315 29.3963 57.6402 27.8787 56.9348C27.6483 56.8232 27.7789 56.4764 28.0236 56.5429C28.8026 56.7353 29.6124 56.3505 30.0708 55.7164C31.0256 54.5123 30.5886 52.2964 28.8192 52.3819C28.0283 52.446 27.3491 53.0421 27.0023 53.7594C26.8931 53.9898 26.5416 53.8592 26.6104 53.6145Z" fill="#371A45"/>
<path d="M29.4153 55.2202C29.3417 55.2202 29.2395 54.8829 28.9023 54.4626C28.3679 54.5552 28.071 54.7452 28.0164 54.6977C27.9618 54.6502 28.166 54.3106 28.679 54.1704C28.3869 53.7263 28.4558 53.3392 28.5294 53.3416C28.603 53.3416 28.7028 53.6788 29.0424 54.0992C29.5768 54.0066 29.8736 53.8166 29.9283 53.8641C29.9829 53.9139 29.781 54.2512 29.2656 54.3913C29.5554 54.8331 29.4865 55.2202 29.4153 55.2202Z" fill="#371A45"/>
<path d="M30.2124 70.0091C30.9344 70.0043 31.4973 69.5887 31.1814 68.8334C30.8679 68.1281 29.9844 67.6626 29.2434 67.4583C29.0154 67.3942 29.0605 67.0546 29.2933 67.0474C30.3383 67.0332 31.4379 67.5106 31.9485 68.4677C32.6112 69.7906 31.578 70.9852 30.1863 70.8451C29.6614 70.7976 29.6852 70.0281 30.2124 70.0091Z" fill="#371A45"/>
<path d="M36.8622 31.838C35.1949 35.524 31.9911 38.5165 26.5404 39.6969C26.5404 39.6969 24.0514 40.1291 22.9779 40.0175L20.4153 40.0555C16.3089 39.7349 12.5731 38.4738 9.52357 36.5951C5.35782 34.023 2.47457 30.2966 1.68607 26.2354C-0.351679 15.7569 5.44332 4.90313 15.9218 2.86776C26.4003 0.832383 35.8386 8.72451 37.8739 19.203C38.6767 23.3308 38.6149 27.9691 36.8622 31.838Z" fill="#62ED2E"/>
<path d="M36.8621 31.8384C35.1948 35.5244 31.9909 38.5169 26.5403 39.6973C26.5403 39.6973 24.0513 40.1295 22.9778 40.0179L20.4152 40.0559C16.3088 39.7353 12.5729 38.4741 9.52344 36.5955L9.54956 36.5575C9.54956 36.5599 24.3624 42.1934 36.8621 31.8384Z" fill="#2BC614"/>
<g opacity="0.7">
<path d="M7.91269 9.64658C7.67757 10.0931 7.62294 10.4945 7.79394 10.7961C8.27132 11.6345 10.3328 11.359 12.3967 10.181C14.4582 9.00296 15.7431 7.36896 15.2633 6.53058C15.0234 6.11258 14.3917 5.97008 13.5628 6.07933C14.4843 5.72546 15.4557 5.44521 16.4674 5.24808C26.4638 3.30533 35.5126 10.4018 38.0918 20.1583C38.0514 19.7831 37.9944 19.4055 37.9208 19.0278C35.8854 8.54933 26.4472 0.654833 15.9687 2.69258C5.49019 4.72796 -0.304804 15.5817 1.73295 26.0602C1.80657 26.4378 1.89682 26.8107 1.99895 27.1741C1.16295 20.5383 3.4002 13.9216 7.91269 9.64658Z" fill="white"/>
</g>
<path d="M22.985 40.2458C22.3889 40.4026 21.7809 40.4477 21.1753 40.4453C13.3473 40.2814 5.17014 36.0444 1.98289 28.6344C1.50551 27.5039 1.23001 26.2879 1.07326 25.0719C-0.365986 15.3154 5.29601 4.7348 15.3304 2.57118C25.3838 0.219927 34.9503 7.3568 37.7504 16.8782C39.097 21.5308 39.3298 26.6489 37.6031 31.2469C35.8931 35.8711 31.4638 39.4407 26.5713 39.9062C26.3005 39.9157 26.2649 39.5571 26.5143 39.4929C27.7398 38.9989 28.9843 38.6403 30.167 38.0513C32.1216 37.1203 33.8696 35.7309 35.1284 33.9639C38.2088 29.6319 38.3988 23.8916 37.349 18.8304C34.6249 5.95793 20.5958 -1.86532 9.20764 6.27143C3.03264 10.8433 0.522265 19.3102 2.21327 26.6751C3.25589 30.6366 6.20089 33.8618 9.58764 36.0539C12.5445 37.9516 15.9621 39.0916 19.4486 39.4811C20.629 39.6283 21.7951 39.5856 22.9708 39.8302C23.1916 39.8658 23.2035 40.1936 22.985 40.2458Z" fill="#371A45"/>
<path d="M37.2389 16.4862C38.4312 17.6167 39.6852 20.8989 38.2768 24.8296C36.8708 28.7626 33.2014 29.7672 31.8667 28.3897C30.8431 27.3328 29.7886 24.1931 31.1946 20.2624C32.6029 16.3294 36.0182 15.3296 37.2389 16.4862Z" fill="#371A45"/>
<g opacity="0.5">
<path d="M31.0462 26.6606C30.8396 25.2593 30.9346 23.5089 31.6281 21.5662C33.0341 17.6332 36.4493 16.6333 37.6701 17.7876C38.0738 18.1699 38.4823 18.7969 38.7958 19.6116C38.5465 17.9776 37.8838 16.7378 37.2378 16.1274C36.0171 14.9708 32.6018 15.9731 31.1958 19.9037C30.1865 22.7228 30.443 25.1311 31.0462 26.6606Z" fill="white"/>
</g>
<g opacity="0.35">
<path d="M31.8674 28.3916C33.2021 29.7691 36.8715 28.7621 38.2775 24.8315C39.3059 21.9553 38.914 19.4283 38.1611 17.8347C38.2727 19.1006 38.135 20.5636 37.5745 22.1311C36.1685 26.0641 32.5015 27.0711 31.1644 25.6912C30.953 25.4727 30.7392 25.164 30.5469 24.7792C30.687 26.5011 31.2831 27.786 31.8674 28.3916Z" fill="#111A28"/>
</g>
<path d="M14.2003 22.5757C13.388 24.1954 13.5804 27.7389 17.1548 30.4559C20.7292 33.1753 25.453 32.135 26.3033 30.2255C26.9564 28.7578 26.6097 25.4447 23.0329 22.7253C19.4562 20.0059 15.0315 20.9179 14.2003 22.5757Z" fill="#371A45"/>
<g opacity="0.5">
<path d="M14.1366 26.0907C14.0891 25.2072 14.2483 24.4353 14.5238 23.8867C15.355 22.229 19.782 21.317 23.3588 24.0363C25.1329 25.3853 26.1114 26.8792 26.5698 28.2211C26.4985 26.561 25.5936 24.3118 23.0358 22.3691C19.4614 19.6497 15.032 20.5617 14.2008 22.2195C13.7614 23.0935 13.6165 24.5256 14.1366 26.0907Z" fill="white"/>
</g>
<g opacity="0.35">
<path d="M17.1556 30.4582C20.73 33.1776 25.4539 32.1373 26.3041 30.2278C26.677 29.3894 26.7221 27.9502 26.0286 26.3613C26.0001 26.8007 25.9075 27.1854 25.7721 27.4871C24.9219 29.3989 20.198 30.4392 16.6236 27.7198C15.1986 26.6344 14.3104 25.4208 13.8092 24.2476C13.7356 26.0407 14.5431 28.4703 17.1556 30.4582Z" fill="#111A28"/>
</g>
<path d="M33.428 29.3943C32.6727 29.3943 32.0172 29.1497 31.566 28.6818C30.4853 27.5656 29.3216 24.2548 30.8012 20.1223C31.775 17.403 33.6607 16.0658 35.1023 15.7215C36.0832 15.4863 36.9667 15.655 37.5248 16.1846C38.7646 17.3578 40.1706 20.7802 38.6696 24.9721C37.703 27.6725 35.7578 28.9787 34.2592 29.3041C33.9718 29.3634 33.6916 29.3943 33.428 29.3943ZM35.9336 16.453C35.7317 16.453 35.518 16.4791 35.2947 16.5313C34.0668 16.8258 32.4471 17.9967 31.5873 20.4026C30.236 24.1788 31.224 27.1286 32.1668 28.1C32.5682 28.5132 33.2831 28.6581 34.0835 28.4847C35.3636 28.2068 37.0332 27.0644 37.8835 24.6894C39.1778 21.0747 38.1162 17.8946 36.9501 16.7902C36.715 16.5693 36.3563 16.453 35.9336 16.453Z" fill="#371A45"/>
<path d="M22.0646 32.5222C20.4591 32.5222 18.5804 32.0638 16.9037 30.7884C13.0609 27.8648 12.9778 24.0838 13.8281 22.388C14.2033 21.6399 15.1248 21.0485 16.3622 20.7612C18.6564 20.2292 21.2476 20.8395 23.2901 22.3928C27.0782 25.2737 27.3846 28.829 26.6887 30.3942C26.3063 31.2539 25.3088 31.9474 23.9551 32.2942C23.3993 32.4367 22.7557 32.5222 22.0646 32.5222ZM14.5738 22.7633C13.7901 24.3284 14.1511 27.6463 17.4096 30.1258C19.5732 31.7717 22.1026 31.9094 23.7461 31.4867C24.8362 31.2064 25.6508 30.672 25.9239 30.0569C26.5153 28.7269 26.1876 25.6489 22.7818 23.0602C20.6063 21.4048 18.1363 21.21 16.5474 21.5782C15.5713 21.8038 14.8327 22.2455 14.5738 22.7633Z" fill="#371A45"/>
<path d="M29.6152 29.6459C29.532 29.9285 29.5938 30.1945 29.7505 30.2397C29.9073 30.2848 30.102 30.0924 30.1828 29.8098C30.2659 29.5272 30.2042 29.2612 30.0474 29.216C29.8907 29.1709 29.6959 29.3633 29.6152 29.6459Z" fill="#371A45"/>
<path d="M29.3021 30.3528C29.4205 30.2394 29.3516 29.9755 29.1483 29.7633C28.945 29.5512 28.6843 29.4712 28.5659 29.5846C28.4475 29.6981 28.5164 29.962 28.7197 30.1741C28.9229 30.3863 29.1837 30.4663 29.3021 30.3528Z" fill="#371A45"/>
<path d="M21.352 16.0704L19.0886 17.8849C18.6706 17.0038 18.2621 16.2984 17.8655 15.7379C16.2719 13.4912 14.8587 13.6052 13.8541 14.2963C12.4814 15.2392 12.6642 17.8255 12.6642 17.8255C14.113 19.0059 12.7355 20.5639 11.453 20.4903C10.3439 20.4262 9.58387 18.8088 10.8331 17.721C10.7714 17.2057 10.4389 12.6955 13.3744 11.6767C16.2671 10.6744 18.578 12.4509 19.9531 14.0398C20.8342 15.0587 21.3306 15.9992 21.352 16.0704Z" fill="#62ED2E"/>
<g opacity="0.5">
<path d="M20.8891 15.2724C20.8369 15.2107 20.7822 15.1465 20.7276 15.0824C19.2741 13.4057 16.8516 11.5864 13.776 12.5863C11.23 13.4128 11.5672 17.5382 11.6314 18.0844C10.8144 18.6805 10.5626 19.5902 10.47 19.9155C10.0567 19.3337 10.033 18.4193 10.8334 17.721C10.7716 17.2057 10.4391 12.6955 13.3746 11.6767C16.2674 10.6744 18.5782 12.4509 19.9534 14.0398C20.3429 14.4887 20.6564 14.9209 20.8891 15.2724Z" fill="white"/>
</g>
<path d="M21.3537 16.0706C21.3537 16.0706 21.3062 16.8686 20.5224 17.422C19.7387 17.973 19.0903 17.8875 19.0903 17.8875C18.6723 17.0064 18.2638 16.301 17.8672 15.7405C18.7863 15.7998 20.1163 15.6336 19.9548 14.0376C20.8359 15.0588 21.3323 15.9994 21.3537 16.0706Z" fill="#31C418"/>
<path d="M21.1497 16.1279C20.1332 14.4631 18.618 12.7958 16.7275 12.0809C15.5162 11.6321 14.1078 11.6914 12.9821 12.3327C12.462 12.6533 12.0748 13.1616 11.8088 13.7482C11.398 14.6341 11.2531 15.6791 11.2222 16.6694C11.2151 16.9972 11.2198 17.3534 11.246 17.6717C11.2626 17.8142 11.2056 17.9496 11.1058 18.0374C10.4123 18.5908 10.4147 19.6952 11.2816 20.0396C11.8373 20.1987 12.5308 19.8187 12.7731 19.3223C13.0035 18.8806 12.7565 18.4341 12.3978 18.1538C12.3052 18.0778 12.253 17.9686 12.2458 17.8593C12.2078 17.3534 12.2316 16.8689 12.31 16.3702C12.4287 15.6221 12.6947 14.8193 13.26 14.2541C13.8442 13.6793 14.7135 13.3611 15.5305 13.5107C17.4495 13.9026 18.5657 16.1873 19.2782 17.8023C19.378 18.0469 19.0265 18.2156 18.9006 17.9804C18.466 17.1682 17.9957 16.3749 17.4305 15.6791C16.9056 15.0449 16.224 14.3847 15.4093 14.2683C14.6493 14.1733 13.8775 14.6341 13.5378 15.3181C13.1792 16.0306 13.0676 16.9568 13.0771 17.8023L12.9251 17.5078C13.0676 17.6266 13.2053 17.7596 13.3265 17.9139C14.343 19.2131 13.1127 20.8423 11.645 20.9112C10.809 20.9848 10.0228 20.3246 9.83283 19.5289C9.60958 18.7571 9.96583 17.8997 10.5572 17.4081L10.4171 17.7738C10.3292 17.0281 10.3411 16.2966 10.4218 15.5508C10.5905 14.0641 11.1676 12.4111 12.5356 11.6012C13.8751 10.8364 15.5898 10.8056 16.9982 11.3827C18.3733 11.9361 19.5015 12.9811 20.3945 14.1329C20.8196 14.6934 21.2115 15.2824 21.5155 15.9189C21.525 15.9474 21.5463 15.9831 21.5535 16.0163C21.62 16.2823 21.2305 16.3916 21.1497 16.1279Z" fill="#371A45"/>
<path d="M45.5171 9.27867C44.8307 10.2287 43.4319 9.62542 43.135 8.50917C42.8001 8.19805 36.2166 4.39805 34.3166 10.725C34.0957 11.4613 33.939 12.3353 33.863 13.366L31.2149 13.2378C31.1864 13.1618 31.3051 11.9553 31.8276 10.4757C32.4594 8.69205 33.6849 6.5118 35.9577 5.4478C39.4514 3.8138 43.7929 6.8728 44.1871 7.11742C45.2701 7.08417 46.3792 8.08642 45.5171 9.27867Z" fill="#62ED2E"/>
<path d="M45.5171 9.27867C44.8307 10.2287 43.4319 9.62542 43.135 8.50917C42.8001 8.19805 36.2166 4.39805 34.3166 10.725C34.0957 11.4613 33.939 12.3353 33.863 13.366L31.2149 13.2378C31.1864 13.1618 31.3051 11.9553 31.8276 10.4757C32.4594 8.69205 33.6849 6.5118 35.9577 5.4478C39.4514 3.8138 43.7929 6.8728 44.1871 7.11742C45.2701 7.08417 46.3792 8.08642 45.5171 9.27867Z" fill="#62ED2E"/>
<g opacity="0.5">
<path d="M45.8166 8.47512C45.496 8.259 44.508 7.69375 43.9641 8.0215C43.539 7.75787 39.5799 4.58725 35.8131 6.3495C33.6305 7.37075 32.3456 9.34437 31.6094 11.1232C31.6711 10.9142 31.74 10.6957 31.8207 10.4725C32.4525 8.68887 33.678 6.50862 35.9509 5.44462C39.4445 3.81062 43.786 6.86962 44.1803 7.11425C45.0068 7.0905 45.8499 7.67 45.8166 8.47512Z" fill="white"/>
</g>
<path d="M34.3166 10.7245C34.0957 11.4607 33.939 12.3347 33.863 13.3655C33.863 13.3655 33.2051 13.9022 32.3715 13.85C31.5379 13.7977 31.2149 13.2372 31.2149 13.2372C31.1864 13.1612 31.3051 11.9547 31.8276 10.4751C32.0817 11.5153 32.8417 12.2136 34.3166 10.7245Z" fill="#31C418"/>
<path d="M31.019 13.3085C30.9929 13.2087 31.0047 13.2253 31 13.1588C31 13.1161 31.0048 12.9736 31.0095 12.9261C31.3491 9.21633 33.6695 4.88433 37.764 4.54708C40.1746 4.39508 42.457 5.44958 44.4092 6.76058L44.1765 6.69883C45.6846 6.65608 46.8531 8.10958 45.8984 9.4657C45.5089 10.0998 44.6705 10.335 44.0055 10.05C43.3737 9.80058 42.9082 9.25908 42.7325 8.61783L42.8536 8.81733C42.8536 8.81971 42.856 8.8197 42.856 8.82208L42.8465 8.81495C42.8299 8.80545 42.7586 8.75795 42.7396 8.74846C41.0415 7.81033 38.7306 7.03133 36.8686 7.87683C34.8594 8.87433 34.325 11.3182 34.0709 13.3868C34.04 13.6481 33.6481 13.6243 33.6552 13.3536C33.7027 12.2112 33.8548 11.0546 34.2633 9.94546C35.503 6.51596 38.7259 6.05996 41.7967 7.32821C42.3359 7.55146 42.8655 7.80321 43.3429 8.14283L43.3761 8.16895L43.4189 8.20696C43.4806 8.26158 43.521 8.33045 43.54 8.40645C43.6397 8.7912 43.9438 9.13558 44.3048 9.27333C44.8866 9.52745 45.3569 9.01208 45.4067 8.47296C45.4257 7.88396 44.7584 7.52058 44.2026 7.5372C44.0411 7.55621 43.8511 7.39233 43.7205 7.3187C42.5544 6.59433 41.2814 5.97683 39.9514 5.64433C38.904 5.3902 37.8234 5.30471 36.7902 5.59446C34.3036 6.34258 32.7195 8.72233 31.931 11.0878C31.703 11.7647 31.5082 12.463 31.4227 13.1731L31.4204 13.1992C31.418 13.2016 31.4251 13.2182 31.4085 13.166C31.5011 13.4177 31.1187 13.565 31.019 13.3085Z" fill="#371A45"/>
<path d="M27.0098 31.6979C28.0335 32.5244 28.7198 32.7999 29.7268 31.7668C29.8836 31.6029 30.1615 31.7834 30.0783 31.9924C29.639 33.2155 28.271 33.6882 27.2473 32.8237C27.0217 32.6622 26.3448 31.7929 26.8056 31.648C26.8792 31.6267 26.9552 31.6504 27.0098 31.6979Z" fill="#371A45"/>
<path d="M60.4806 39.2195C60.7252 48.3039 51.1373 56.5689 46.1997 60.2145C44.485 61.4804 42.1646 61.5422 40.3857 60.3713C35.2581 56.9964 25.2403 49.261 24.9957 40.1766C24.8532 34.8448 29.057 30.4083 34.3888 30.2658C37.7756 30.1755 40.8037 31.838 42.5968 34.4339C44.2475 31.7478 47.1806 29.9214 50.5697 29.8311C55.8992 29.6839 60.3381 33.8876 60.4806 39.2195Z" fill="#FC4F8B"/>
<g opacity="0.5">
<path d="M46.3069 35.0589C46.2309 34.4651 48.1427 31.9975 52.679 33.071C56.3436 33.9379 57.8684 36.7499 57.6261 37.1655C57.5002 37.3816 54.8735 35.6859 51.8026 35.2774C49.24 34.9401 46.3425 35.3439 46.3069 35.0589Z" fill="white"/>
</g>
<g opacity="0.5">
<path d="M60.4498 40.2788C60.0817 35.1607 55.7426 31.3654 50.5603 31.3298C47.4087 31.3084 43.2714 33.2298 43.4234 35.9539C41.6303 33.3604 37.7662 31.6742 34.3794 31.7668C29.4394 31.8998 25.4661 35.7188 25.0267 40.5187C25.0124 40.3263 25.0029 40.1315 24.9958 39.9368C24.8509 34.6073 29.0571 30.1684 34.3866 30.0259C37.7757 29.9357 40.8014 31.6005 42.5946 34.194C44.2452 31.5055 47.1783 29.6815 50.5674 29.5913C55.8969 29.4464 60.3358 33.6525 60.4783 38.982C60.4902 39.4167 60.4807 39.8489 60.4498 40.2788Z" fill="white"/>
</g>
<path d="M45.9714 58.3286C44.373 59.4852 42.2117 59.5422 40.5516 58.4711C35.7731 55.386 26.4346 48.3084 26.2066 39.9983C26.1876 39.3286 26.247 38.6731 26.3729 38.0437C26.8621 41.9886 30.0114 45.5653 33.467 48.3726C37.2242 44.2139 55.7611 45.5249 59.2167 38.305C59.25 38.5733 59.2714 38.8488 59.2785 39.1243C59.5065 47.4368 50.5717 54.9941 45.9714 58.3286Z" fill="#ED2F86"/>
<path d="M43.1781 61.5611C42.1355 61.5611 41.0928 61.2642 40.188 60.6705C37.5707 58.9486 33.7802 56.158 30.593 52.6572C26.7502 48.4321 24.7457 44.2355 24.6365 40.1885C24.5652 37.5142 25.539 34.973 27.3772 33.0326C29.2178 31.0922 31.7021 29.9831 34.3763 29.9119C37.5968 29.8287 40.6226 31.2727 42.5772 33.8069C44.3917 31.1706 47.3367 29.5627 50.5572 29.4749C53.2315 29.406 55.7727 30.375 57.7131 32.2156C59.6535 34.0539 60.7626 36.5405 60.8362 39.2147C60.9455 43.2641 59.169 47.5605 55.559 51.9875C52.5665 55.6569 48.9327 58.6446 46.4105 60.5066C45.4581 61.2049 44.3205 61.5611 43.1781 61.5611ZM34.6518 30.6172C34.5663 30.6172 34.4832 30.6172 34.3977 30.6196C31.9135 30.6861 29.605 31.7169 27.8973 33.5195C26.1897 35.3221 25.2848 37.6829 25.3513 40.1647C25.4558 44.0384 27.3986 48.0782 31.1226 52.1727C34.26 55.6212 37.9982 58.3715 40.5798 60.072C42.2281 61.155 44.3988 61.098 45.9853 59.9271C48.4743 58.0912 52.0582 55.1415 55.0056 51.5315C58.504 47.2422 60.2258 43.1026 60.1213 39.2314C60.0548 36.7471 59.0241 34.441 57.2215 32.731C55.4188 31.0234 53.0605 30.1185 50.5762 30.185C47.4222 30.2705 44.5508 31.9282 42.8978 34.6191C42.8337 34.7212 42.7245 34.7854 42.6033 34.7901C42.4798 34.7972 42.3682 34.7355 42.2993 34.6357C40.5561 32.1064 37.7108 30.6172 34.6518 30.6172Z" fill="#371A45"/>
<path d="M42.911 34.2558C43.2174 34.9184 43.4739 35.5929 43.69 36.2911C43.7233 36.4028 43.6615 36.5191 43.5523 36.5524C43.4502 36.5833 43.3433 36.5334 43.3005 36.4408C43.1509 36.1225 42.9918 35.8114 42.8208 35.5026C42.6545 35.201 42.4717 34.8899 42.2864 34.6049C42.0275 34.1703 42.6783 33.8069 42.911 34.2558Z" fill="#371A45"/>
<path d="M38.7205 43.0882L33.4219 43.2758C35.6924 43.0241 37.894 40.148 38.445 39.3595C38.5234 39.2455 38.6184 39.1434 38.7253 39.0555C39.4188 38.476 40.5777 38.514 40.9245 40.0743C40.9364 40.1266 40.9459 40.1788 40.9506 40.2287C41.181 41.9458 38.7205 43.0882 38.7205 43.0882Z" fill="#62ED2E"/>
<path d="M38.7205 43.0884L33.4219 43.276C35.6924 43.0243 37.894 40.1482 38.445 39.3597C38.5234 39.2457 38.6184 39.1435 38.7253 39.0557C38.8345 39.6114 39.262 40.6113 40.953 40.2289C41.181 41.946 38.7205 43.0884 38.7205 43.0884Z" fill="#2BC614"/>
<path d="M33.4261 43.6939C33.2148 43.6939 33.0343 43.5348 33.0105 43.321C32.9844 43.0906 33.1506 42.884 33.381 42.8603C35.6135 42.6133 37.8579 39.4783 38.1073 39.1196C38.5324 38.5116 39.2615 38.1886 39.9241 38.3193C40.3326 38.4 41.057 38.723 41.3396 39.9794C41.8099 42.0884 39.0216 43.4089 38.9005 43.4659C38.6915 43.5633 38.4421 43.473 38.3448 43.2616C38.2474 43.0526 38.3376 42.8033 38.5466 42.7059C38.5704 42.694 40.8456 41.6134 40.5203 40.1599C40.3896 39.5709 40.1189 39.2075 39.7603 39.1363C39.423 39.0698 39.024 39.2574 38.7913 39.5946C38.3495 40.2288 36.0173 43.4065 33.4713 43.6868C33.457 43.6915 33.4404 43.6939 33.4261 43.6939Z" fill="#371A45"/>
<path d="M46.1432 44.6135C45.6207 45.2618 44.4926 45.6846 42.6211 45.8223C42.6211 45.8223 46.0149 46.9505 45.1552 49.0951C44.1791 51.5247 40.2959 49.9335 37.7808 50.5153C34.2682 52.2823 30.4421 51.4155 28.0742 49.7245C26.1932 48.3802 24.4309 46.8246 23.7398 46.1952C23.5403 46.0123 23.4287 45.9102 23.4287 45.9102L16.6172 47.226C17.3653 45.3473 17.7596 43.8321 18.1087 42.6303C18.8212 40.1793 19.3484 39.0251 22.3291 38.7353C26.4497 38.3316 29.4921 42.4926 32.7957 42.7728C32.9097 42.7823 33.0261 42.7895 33.1424 42.7895C34.9071 42.4071 36.6052 41.6685 38.6453 41.2457C41.0702 40.7422 45.9461 40.3907 46.4519 43.2098C46.5493 43.7513 46.4567 44.224 46.1432 44.6135Z" fill="#62ED2E"/>
<g opacity="0.6">
<path d="M32.7886 42.775C29.9861 43.7179 24.8656 38.4929 20.9634 39.9749C19.5384 40.5164 18.6122 41.7419 18.1016 42.6325C18.8141 40.1815 19.3413 39.0273 22.3219 38.7375C26.4402 38.3338 29.4849 42.4948 32.7886 42.775Z" fill="white"/>
</g>
<path d="M42.6156 45.8222C42.6156 45.8222 46.0095 46.9503 45.1498 49.0949C44.1736 51.5246 40.2905 49.9333 37.7754 50.5152C34.2628 52.2822 30.4366 51.4153 28.0688 49.7243C26.1878 48.3801 24.4255 46.8244 23.7344 46.1951C24.9148 46.9954 28.7053 49.3871 32.2868 49.6222C35.5975 49.8383 37.2339 48.6698 39.2075 48.8859C41.4329 49.1282 41.8746 48.9809 41.0268 46.5632C40.6515 45.4921 41.6015 41.2693 42.9434 41.7799C43.8483 42.1219 45.0144 43.2738 46.1401 44.6109C45.6176 45.2617 44.4895 45.6844 42.6156 45.8222Z" fill="#2BC614"/>
<path d="M16.2256 47.0735C16.5747 46.1995 16.8811 45.3089 17.1542 44.4064C17.6031 43.0336 17.8453 41.5659 18.5626 40.2596C19.3606 38.7919 21.0682 38.381 22.6096 38.2979C25.6496 38.1483 28.0887 40.3143 30.6062 41.6348C31.4232 42.0551 32.283 42.3734 33.138 42.3734L33.0501 42.3829C35.0047 41.9459 36.9974 41.0885 39.0446 40.7441C41.232 40.3855 45.051 40.0696 46.4712 42.1478C47.0175 42.979 47.1006 44.2021 46.3881 44.9645C45.4144 45.9691 43.9205 46.114 42.6475 46.2399L42.7496 45.4276C44.0725 45.905 45.6875 46.8123 45.7445 48.3988C45.7492 49.382 45.1009 50.3011 44.196 50.6526C43.0964 51.0778 41.9896 50.959 40.8805 50.9091C39.8806 50.8545 38.838 50.7548 37.8785 50.9661C35.7315 52.1299 32.3685 52.2914 29.7441 51.1348C28.4474 50.617 27.3311 49.7335 26.2647 48.8595C25.215 47.9879 24.2127 47.0688 23.2817 46.0665C23.2034 45.981 23.2081 45.8504 23.2936 45.7696C23.3696 45.6984 23.486 45.696 23.5644 45.7578C25.1509 47.0023 26.7302 48.2634 28.3737 49.4224C31.0646 51.2963 34.7554 51.5718 37.6719 50.066C38.2419 49.9378 38.8 49.914 39.3415 49.9164C40.3936 49.9235 41.4386 50.0613 42.467 50.0375C42.961 50.0233 43.4455 49.9686 43.8469 49.8048C44.6021 49.5269 45.0771 48.5721 44.6995 47.8478C44.3527 47.1685 43.5238 46.6769 42.8161 46.3539C42.7021 46.3016 42.5786 46.2518 42.4741 46.2138C42.258 46.1354 42.1464 45.8955 42.2247 45.677C42.2817 45.5179 42.429 45.4158 42.5857 45.4039C43.3837 45.3421 44.1865 45.2305 44.8895 44.9598C45.2362 44.822 45.5545 44.6415 45.7659 44.404C46.2195 43.9219 46.1102 43.1286 45.773 42.6038C44.7517 41.1503 41.9991 41.2548 40.3888 41.3996C38.7596 41.5516 37.2111 42.0076 35.6531 42.5135C34.8361 42.7629 34.0049 43.0503 33.1404 43.207C30.2785 43.1571 27.8726 40.5898 25.2696 39.6184C24.2056 39.1885 23.0894 39.0199 21.9755 39.198C20.9115 39.331 19.819 39.6896 19.287 40.6824C18.6315 41.8984 18.394 43.3139 17.957 44.6486C17.6767 45.5701 17.3609 46.4845 17.0046 47.3823C16.7932 47.881 16.0356 47.6008 16.2256 47.0735Z" fill="#371A45"/>
<path d="M23.55 57.7116C23.55 57.7116 23.2864 59.6424 22.8802 62.1766C22.6 63.9246 22.2532 65.9623 21.8756 67.8481C21.3887 70.2848 19.4032 70.3489 19.4032 70.3489H12.8625C12.8625 70.3489 10.5587 70.4582 11.1525 68.2874C11.6061 66.6297 14.0167 66.2996 14.0167 66.2996L15.3586 60.3906L16.2825 56.3127C16.2825 56.3127 15.9262 55.0706 15.7837 53.4936C15.6982 52.5364 15.6911 51.4582 15.893 50.4607L20.7807 55.0896L23.55 57.7116Z" fill="#62ED2E"/>
<path d="M23.5499 57.7112C23.5499 57.7112 23.2863 59.642 22.8801 62.1762C22.5999 63.9242 22.2531 65.9619 21.8755 67.8477C21.3886 70.2844 19.4031 70.3485 19.4031 70.3485H12.8624C12.8624 70.3485 10.7771 70.4459 11.0859 68.5887C11.511 68.7264 11.9148 68.7074 11.9148 68.7074C11.9148 68.7074 12.594 68.7692 13.0548 68.5578C13.5155 68.3464 13.9596 67.5318 14.8408 67.5009C14.5724 68.7858 16.0116 68.7074 16.0116 68.7074H18.4555C18.4555 68.7074 20.2415 68.5934 20.9279 66.2065C21.0015 65.9524 21.0823 65.6627 21.1678 65.3444C22.0726 61.9909 18.75 58.9913 15.539 60.3142C15.4796 60.3379 15.4203 60.364 15.3609 60.3902L16.2848 56.3123C16.2848 56.3123 15.9285 55.0702 15.786 53.4932C16.6648 54.1843 18.2726 55.0678 20.7854 55.0892L22.512 56.7232L23.5499 57.7112Z" fill="#2BC614"/>
<path d="M23.7583 57.7399C23.5802 60.0342 23.2714 62.3118 22.9033 64.5823C22.7133 65.7176 22.5138 66.8457 22.2906 67.9833C22.1671 68.5937 21.9177 69.2159 21.4831 69.7242C20.9701 70.3298 20.2101 70.7359 19.4144 70.7929C19.3337 70.7906 18.9394 70.7953 18.8492 70.7929C17.2959 70.7929 14.4008 70.7882 12.8214 70.7858C11.6838 70.7953 10.5723 70.1612 10.6269 68.8977C10.6459 67.4418 11.7622 66.5132 13.0494 66.1047C13.3534 66.0049 13.6432 65.9289 13.9614 65.8814L13.6076 66.2068L15.8781 56.2223L15.8828 56.4313C15.4933 54.9493 15.2819 53.4507 15.3176 51.9188C15.3342 51.4082 15.3841 50.8928 15.4862 50.3822C15.5313 50.1566 15.7498 50.0093 15.9778 50.0521C16.2058 50.0948 16.3507 50.3157 16.3079 50.5437C16.1274 51.4557 16.1203 52.4199 16.1987 53.3723C16.2794 54.3176 16.4457 55.2913 16.6903 56.2009C16.7093 56.2698 16.7117 56.3434 16.6951 56.4099L14.4317 66.3944C14.3913 66.5678 14.2512 66.6913 14.0849 66.7174C13.9686 66.7341 13.8237 66.7673 13.7026 66.7982C13.3249 66.8956 12.9426 67.0357 12.6053 67.2233C11.9237 67.5891 11.4986 68.1781 11.4914 68.9167C11.4392 69.6624 12.1897 69.9189 12.8191 69.9166C14.6739 69.9023 17.5714 69.9166 19.4002 69.9094C19.9013 69.8596 20.4713 69.5722 20.8181 69.1566C21.1339 68.7932 21.3382 68.3206 21.4474 67.8099C21.8559 65.8767 22.3286 63.0386 22.7014 61.0649C22.9057 59.9368 23.1242 58.8111 23.3498 57.6853C23.3926 57.4359 23.7749 57.4739 23.7583 57.7399Z" fill="#371A45"/>
<path d="M16.1424 67.2445C15.4252 67.5343 14.4015 67.9452 14.2875 68.7717C14.2282 69.2704 14.3754 69.6623 14.8765 69.8143C15.3159 69.9544 15.8384 69.952 16.3182 69.9378C16.8407 69.9354 16.9048 70.6835 16.3894 70.769C15.0903 70.9875 13.3708 70.674 13.423 69.0163C13.4207 67.9262 14.2638 67.273 15.2138 66.9952C15.494 66.912 15.7695 66.855 16.0664 66.8337C16.1828 66.8265 16.2825 66.912 16.292 67.0284C16.2992 67.1282 16.2327 67.2137 16.1424 67.2445Z" fill="#371A45"/>
<path d="M51.0733 38.7944L46.7413 40.0223C46.7413 40.0223 44.3425 40.0223 43.9649 38.1271C43.9317 37.9656 43.9198 37.8183 43.9222 37.6806C43.9364 36.4337 45.2522 36.1772 45.8554 36.7757C46.3518 37.2673 46.9028 37.6426 47.4942 37.9299C48.5724 38.4548 49.7908 38.6852 51.0733 38.7944Z" fill="white"/>
<g opacity="0.25">
<path d="M51.0733 38.7943L46.7413 40.0222C46.7413 40.0222 44.3425 40.0222 43.9649 38.1269C43.9317 37.9654 43.9198 37.8182 43.9222 37.6804C44.1787 38.1483 45.017 39.0104 47.4965 37.9322C48.5724 38.4547 49.7908 38.685 51.0733 38.7943Z" fill="#371A45"/>
</g>
<path d="M46.7393 40.4403C45.7917 40.4403 43.906 39.9748 43.5521 38.2102C43.374 37.3267 43.659 36.5904 44.3097 36.2389C44.9082 35.9183 45.6801 36.0181 46.1456 36.4812C47.5896 37.9109 49.5561 38.2458 51.107 38.3788C51.3373 38.3978 51.5083 38.5997 51.487 38.8301C51.468 39.0604 51.2661 39.2314 51.0357 39.2101C49.3447 39.0652 47.193 38.6947 45.5566 37.0749C45.3476 36.8683 44.9818 36.8256 44.704 36.9752C44.3857 37.1462 44.267 37.5286 44.3691 38.0463C44.6755 39.5782 46.6538 39.6043 46.737 39.6043C46.9673 39.6043 47.155 39.7919 47.1526 40.0223C47.1573 40.2551 46.9697 40.4403 46.7393 40.4403Z" fill="#371A45"/>
<path d="M66.899 40.0795L62.1111 37.9895C62.1111 37.9895 61.9686 38.9752 61.4841 40.2885C60.8499 42.0128 59.6292 44.3023 57.3801 45.6727C54.4778 47.442 50.6683 47.2283 47.8064 47.7745C46.4242 48.2234 43.6336 48.8267 42.8712 48.1807C41.1493 46.7224 41.8143 43.8487 41.8143 43.8487C41.3203 43.7988 40.8144 43.2763 40.8904 42.4878C40.9189 42.2052 41.0044 41.9368 41.1493 41.6874C42.3036 39.6663 47.0654 38.6664 53.1597 38.3434C54.8246 37.4575 55.8363 32.014 59.3157 30.1354C61.8094 28.7888 65.4076 31.4108 66.899 40.0795Z" fill="white"/>
<g opacity="0.25">
<path d="M61.4841 40.2881C60.8499 42.0123 59.6292 44.3018 57.3801 45.6722C54.4778 47.4416 50.6683 47.2278 47.8064 47.7741C46.4242 48.223 43.6336 48.8262 42.8712 48.1802C41.1493 46.722 41.8143 43.8482 41.8143 43.8482C41.3203 43.7983 40.8144 43.2758 40.8904 42.4873C40.9189 42.2047 41.0044 41.9363 41.1493 41.687C41.4058 42.1905 41.9829 42.9813 43.1301 43.2117C43.1301 43.2117 42.7548 46.5937 45.1037 46.7552C47.1129 46.893 48.8253 45.7933 52.7797 45.9121C56.0358 46.0071 59.8952 43.3043 61.4841 40.2881Z" fill="#371A45"/>
</g>
<path d="M66.4844 40.1484C65.9072 37.0182 64.8907 32.8358 62.2877 30.8265C60.953 29.8742 59.7892 30.1022 58.5994 31.121C57.077 32.4083 56.1887 34.2774 55.2815 36.0492C54.9181 36.7474 54.5619 37.4765 54.0512 38.1035C53.8494 38.3268 53.5359 38.6973 53.1772 38.7543C51.8971 38.8231 50.6194 38.9229 49.3511 39.0725C47.0664 39.3765 44.0857 39.7874 42.2024 41.134C41.7392 41.4855 41.3854 41.9344 41.3141 42.4355C41.2357 42.863 41.4186 43.3499 41.8509 43.4283C42.086 43.4568 42.2499 43.6705 42.2214 43.9057C42.1881 44.0862 42.1572 44.2975 42.1406 44.4899C42.0409 45.6845 42.2166 47.1167 43.2331 47.8767C43.8862 48.1142 44.67 47.9764 45.3635 47.8861C46.1354 47.7603 46.9144 47.575 47.6601 47.3375C48.4842 47.1665 49.3131 47.0905 50.1277 47.005C54.3362 46.6274 57.7539 46.1548 60.1336 42.2717C60.9506 40.9535 61.5467 39.4644 61.9006 37.9515C61.9267 37.8399 62.0384 37.7686 62.15 37.7924C62.2545 37.8161 62.3234 37.9159 62.3115 38.0204C62.2165 38.8422 62.0194 39.6259 61.7629 40.4049C60.9886 42.7466 59.5137 44.9649 57.324 46.1928C54.4669 47.8125 50.9899 47.6772 47.8857 48.2282C46.9809 48.5203 45.4181 48.8931 44.2354 48.9193C43.6915 48.9216 43.1191 48.9145 42.6275 48.5773C41.2215 47.4349 41.0505 45.4138 41.3972 43.7536L41.763 44.2643C40.8106 44.155 40.3237 43.1385 40.4829 42.312C40.9982 39.3029 46.7576 38.5809 49.2466 38.2484C50.5386 38.094 51.833 37.9943 53.1274 37.9254L52.954 37.9729C53.3031 37.7782 53.5857 37.3506 53.8137 36.992C55.2957 34.4484 56.3384 31.311 59.0767 29.7839C60.2547 29.0999 61.7249 29.3612 62.7699 30.1473C64.0856 31.1092 64.943 32.565 65.5937 34.0067C66.4416 35.9352 66.9451 37.9682 67.3014 40.0083C67.3417 40.2363 67.1897 40.4524 66.9617 40.4928C66.7409 40.5308 66.5224 40.3764 66.4844 40.1484Z" fill="#371A45"/>
<path d="M53.1562 38.3384C53.1562 38.3384 54.5955 38.3384 56.6974 38.6851L53.1562 38.3384Z" fill="white"/>
<path d="M53.1533 37.9226C53.7708 37.9654 54.355 38.0461 54.9607 38.1411C55.5544 38.2361 56.1434 38.3501 56.7277 38.4831C56.9794 38.5425 56.9177 38.9201 56.6588 38.8964C55.495 38.78 54.3123 38.7111 53.1485 38.761C52.5619 38.7657 52.5667 37.906 53.1533 37.9226Z" fill="#371A45"/>
<path d="M56.3201 46.6344C56.2797 46.6344 56.2394 46.6297 56.2014 46.6178C55.9805 46.5513 55.8546 46.3186 55.9211 46.0977C57.5409 40.6542 53.3039 38.8041 53.1234 38.7281C52.912 38.6378 52.8099 38.3932 52.9001 38.1818C52.988 37.9681 53.2326 37.8683 53.4464 37.9562C53.4986 37.9776 54.755 38.5096 55.7905 39.8111C56.7452 41.0128 57.681 43.1218 56.7239 46.3352C56.6669 46.5181 56.5006 46.6344 56.3201 46.6344Z" fill="#371A45"/>
<path d="M30.8594 43.8108C30.8594 43.8108 32.8235 42.9534 33.498 42.7112L30.8594 43.8108Z" fill="white"/>
<path d="M30.7763 43.6181C31.5268 43.2333 32.5955 42.661 33.3555 42.3166C33.8685 42.1052 34.1963 42.8391 33.6975 43.0813C33.4624 43.1597 33.2154 43.2262 32.9708 43.3093C32.5385 43.4495 31.3866 43.8485 30.9425 44.0005C30.7003 44.086 30.5483 43.7368 30.7763 43.6181Z" fill="#371A45"/>
</svg>
