<svg width="95" height="95" viewBox="0 0 95 95" fill="none" xmlns="http://www.w3.org/2000/svg">
<g clip-path="url(#clip0_2_64425)">
<path d="M0 95L95 95L95 0L0 0L0 95Z" fill="#845BFF"/>
<path d="M52.2404 53.34C52.0789 53.34 51.9482 53.2094 51.9482 53.0479V31.338C51.9482 31.1765 52.0789 31.0459 52.2404 31.0459C52.4019 31.0459 52.5325 31.1765 52.5325 31.338V53.0479C52.5325 53.2094 52.4019 53.34 52.2404 53.34Z" fill="#371A45"/>
<path d="M39.5043 62.1934C39.5043 62.1934 32.3057 64.0696 32.0492 66.8935C31.8259 69.3564 34.5239 77.6594 36.1104 78.5714C37.267 79.2364 40.7535 78.0156 40.7535 78.0156L39.5043 62.1934Z" fill="white"/>
<g opacity="0.35">
<path d="M32.0361 67.355C32.1193 70.2525 34.6106 77.71 36.1093 78.5721C37.2659 79.2371 40.7524 78.0164 40.7524 78.0164L40.199 74.7864C40.199 74.7864 36.7125 76.0071 35.5559 75.3421C34.4729 74.7199 32.8721 70.6562 32.0361 67.355Z" fill="#371A45"/>
</g>
<path d="M37.5467 79.0447C36.7985 79.0447 36.0457 78.8832 35.4234 78.4224C33.6992 77.1494 31.5474 69.3856 31.6947 66.8752C31.8348 64.4764 36.2333 62.9992 36.4209 62.9374C36.6085 62.8757 36.808 62.9778 36.8698 63.1654C36.9315 63.3531 36.8294 63.5526 36.6442 63.6143C35.497 63.9943 32.4974 65.3267 32.4048 66.9179C32.2647 69.3214 34.4615 76.8264 35.8462 77.8501C37.5324 79.0946 40.646 77.5508 40.6769 77.5366C40.8527 77.4487 41.0664 77.5176 41.1543 77.6957C41.2422 77.8714 41.1709 78.0852 40.9952 78.1731C40.8978 78.2206 39.2353 79.0447 37.5467 79.0447Z" fill="#371A45"/>
<path d="M47.7903 63.1108C47.7903 63.1108 47.4768 65.6568 48.5812 63.9112C49.5882 62.3152 50.8422 59.6552 51.9513 55.3184C51.9608 55.2828 51.9703 55.2472 51.9798 55.2115C51.9798 55.2115 52.4786 55.1688 53.0889 54.8624C54.5306 54.1428 54.2218 51.3332 53.9439 50.3784C53.6162 49.2527 52.8419 49.5567 52.8419 49.5567C52.5712 49.1125 52.0344 48.875 51.1319 48.8893C49.4362 48.913 49.0918 50.2858 49.0918 50.2858C47.5386 54.9622 45.6457 57.8454 44.5176 59.2799C43.9214 60.0423 43.5391 60.3962 43.5391 60.3962L47.7903 63.1108Z" fill="white"/>
<g opacity="0.35">
<path d="M47.7907 63.1102C47.7907 63.1102 47.4772 65.6562 48.5816 63.9106C49.5886 62.3146 50.8426 59.6546 51.9517 55.3178C51.5812 55.2276 51.035 55.0566 50.7452 54.8001C50.0232 54.1541 49.8926 52.6697 49.8926 52.6697C49.5934 54.1018 49.8926 54.9402 50.2417 55.4128C50.617 55.9211 50.731 56.5766 50.5125 57.1703C50.1942 58.0324 49.7929 58.9682 49.1564 59.5738C47.6957 60.9632 45.6627 60.3409 44.5156 59.2769C43.9195 60.0393 43.5371 60.3932 43.5371 60.3932L47.7907 63.1102Z" fill="#371A45"/>
</g>
<g opacity="0.35">
<path d="M52.4802 55.1017C52.4802 55.1017 51.1645 55.5838 50.2881 53.5936C50.2881 53.5936 50.794 53.8453 52.0432 53.7812C53.283 53.7171 54.1237 52.5391 54.1237 52.5391C54.1237 52.5391 54.2068 54.6837 52.4802 55.1017Z" fill="#371A45"/>
</g>
<path d="M43.7171 60.4343C43.615 60.4343 43.5128 60.3916 43.4416 60.3084C43.3086 60.1564 43.3228 59.9237 43.4748 59.7907C43.5176 59.7527 46.4293 57.1141 48.7355 50.1814C48.8875 49.6091 49.5715 48.5451 51.1223 48.5237C51.9987 48.5118 52.6115 48.7161 52.9938 49.1531C53.3952 49.6091 53.5163 50.2717 53.3738 51.2407C53.2337 52.1954 52.5877 52.8652 51.8705 52.7963C51.2126 52.7346 50.5357 52.0197 50.6117 50.2028C50.6212 50.0009 50.7898 49.8442 50.9941 49.8513C51.196 49.8608 51.3551 50.0318 51.3456 50.2337C51.2933 51.4497 51.6163 52.0363 51.9393 52.0648C52.2125 52.0886 52.5592 51.7418 52.6471 51.1338C52.754 50.4047 52.6851 49.9154 52.4405 49.6376C52.2125 49.3763 51.7707 49.2481 51.1318 49.2576C49.7353 49.2789 49.4456 50.3643 49.4408 50.3762L49.4337 50.4023C47.0516 57.5724 44.0805 60.2348 43.957 60.3441C43.8905 60.4058 43.8026 60.4343 43.7171 60.4343Z" fill="#371A45"/>
<path d="M46.6661 66.4972C46.5402 66.4972 46.4167 66.4307 46.3478 66.3143C46.2457 66.1385 46.3051 65.9153 46.4808 65.8132C46.5069 65.7965 49.3783 63.9749 51.6203 55.1233L51.6844 54.8715L51.9433 54.8478C51.9457 54.8478 52.3874 54.8027 52.9218 54.5367C54.0713 53.9619 53.8671 51.4397 53.5892 50.4849C53.5061 50.1975 53.3849 50.0075 53.2377 49.9315C53.1023 49.8603 52.9717 49.9054 52.9646 49.9054C52.7769 49.979 52.5656 49.884 52.4919 49.6964C52.4183 49.5088 52.5157 49.2927 52.7033 49.219C52.7461 49.2024 53.1332 49.0623 53.5536 49.2665C53.8979 49.4352 54.1473 49.7772 54.2946 50.2783C54.6437 51.48 54.8693 54.3847 53.2519 55.1922C52.8577 55.3893 52.5014 55.489 52.2734 55.5365C49.9459 64.5615 46.9772 66.376 46.8513 66.4497C46.7919 66.4805 46.7278 66.4972 46.6661 66.4972Z" fill="#371A45"/>
<path d="M51.7203 55.5844C51.2596 55.5844 50.8748 55.4372 50.5732 55.1427C49.9913 54.575 49.7776 53.5063 49.9367 51.9625C50.0911 50.4568 50.768 50.2193 50.901 50.186L51.0672 50.8795C51.0672 50.8795 51.0767 50.8795 51.0933 50.8724C51.091 50.8748 50.7466 51.0339 50.6445 52.0362C50.5138 53.3139 50.6635 54.2354 51.0696 54.632C51.2738 54.8315 51.5541 54.9052 51.9293 54.8577C52.1241 54.8339 52.3022 54.9717 52.3283 55.1664C52.3521 55.3612 52.2143 55.5393 52.0196 55.5654C51.9175 55.5773 51.8177 55.5844 51.7203 55.5844Z" fill="#371A45"/>
<path d="M36.7012 70.6131C36.8745 70.9717 37.0052 71.3446 37.1144 71.7246C37.4588 72.9097 37.5965 74.1732 38.138 75.3726C38.2734 75.6695 38.4349 75.926 38.6059 76.1421C38.6582 76.211 38.7104 76.2727 38.765 76.3345C39.164 76.7881 39.5393 77.0137 39.5393 77.0137C39.5417 77.1325 39.5512 77.2821 39.5559 77.4626C39.5797 78.2012 39.5702 79.4362 39.0382 80.98C39.0002 81.094 38.9574 81.2104 38.9123 81.3244C38.556 82.2506 38.7722 85.2502 39.1617 85.9342C40.285 87.9079 43.097 87.6086 43.8974 86.2596C44.6218 85.0365 44.3178 82.6662 44.1824 81.8326C44.1515 81.6426 44.1278 81.5334 44.1278 81.5334C44.8712 79.9801 45.5077 77.8925 45.5077 76.3297C45.5077 76.3297 45.7072 76.363 45.9779 76.3654V76.4176C46.0848 77.3842 45.9043 79.0372 45.5528 80.5454C45.5148 80.7116 45.472 80.8779 45.4293 81.0394C45.2227 81.8231 45.6074 84.3002 46.6429 85.5305C47.8423 86.9602 50.4714 86.4591 50.9987 85.3927C51.6328 84.1126 50.8039 81.9632 50.4857 81.2294C50.4144 81.0679 50.3693 80.9752 50.3693 80.9752C51.6922 77.8426 51.7705 75.1636 51.5354 72.4561C51.1649 68.212 49.4763 64.8704 47.7425 62.5714C47.6333 62.4265 47.5193 62.2864 47.4029 62.1462C47.2557 61.9705 47.1037 61.7995 46.954 61.6356C46.688 61.3482 46.4292 61.0799 46.2083 60.8447L45.9067 61.1012L45.415 61.2152L37.2569 63.1152L37.1857 64.0724L37.1548 64.5022L37.0859 65.4237L36.9149 67.7394L36.8128 69.1264L36.7273 70.264L36.7012 70.6131Z" fill="white"/>
<g opacity="0.35">
<path d="M46.6431 85.5301C47.8424 86.9598 50.4716 86.4611 50.9988 85.3923C51.6329 84.1122 50.8041 81.9628 50.4858 81.229C50.4454 81.248 50.4264 81.2551 50.4264 81.2551C50.4264 81.2551 51.6258 83.4757 50.3196 84.6656C49.2888 85.6037 47.6263 85.3068 46.9447 84.06C46.1134 82.5376 46.0066 79.804 46.0066 79.804L45.5553 80.5426C45.5149 80.7088 45.4746 80.8751 45.4318 81.039C45.2228 81.8203 45.6076 84.2975 46.6431 85.5301Z" fill="#371A45"/>
</g>
<g opacity="0.3">
<path d="M42.1416 82.315L42.2034 82.3008C42.1749 82.3055 42.1535 82.3103 42.1416 82.315Z" fill="#293856"/>
</g>
<g opacity="0.3">
<path d="M42.1299 82.3171L42.1418 82.3147C42.1323 82.3147 42.1299 82.3171 42.1299 82.3171Z" fill="#293856"/>
</g>
<g opacity="0.35">
<path d="M39.1597 85.9315C40.2831 87.9051 43.0951 87.6058 43.8955 86.2592C44.6198 85.0361 44.3158 82.6658 44.1805 81.8298L42.2092 82.2977C42.48 82.2455 43.3587 82.1932 43.4134 83.6681C43.449 84.6347 43.2946 85.713 42.0002 85.884C38.8248 86.302 39.0623 83.091 39.2048 81.2693C39.2333 80.906 39.1645 80.8442 39.0362 80.9772C38.9982 81.0912 38.9555 81.2052 38.9103 81.324C38.5541 82.2478 38.7702 85.2475 39.1597 85.9315Z" fill="#371A45"/>
</g>
<g opacity="0.35">
<path d="M44.6981 80.6501C44.6981 80.6501 43.9713 82.1368 42.0761 82.4408C41.8908 82.4693 41.8077 82.2199 41.9716 82.1321C42.7102 81.7378 43.7861 80.7403 44.0806 79.3794C44.3323 78.2133 44.2278 77.0733 44.0853 76.2919C43.9903 75.7671 44.3751 75.2778 44.9095 75.2541C45.869 75.2113 47.2583 75.0997 48.1703 74.8242C48.7831 74.6389 49.4172 74.3824 49.9563 73.9169C50.1748 73.7269 50.5145 73.8694 50.5335 74.1592C50.5501 74.4418 50.5287 74.7316 50.3933 74.8788C49.8803 75.4346 47.4721 76.1281 45.5056 76.5389C45.5056 76.5389 45.4676 77.4319 45.1802 78.6242C44.8548 79.9661 44.6981 80.6501 44.6981 80.6501Z" fill="#371A45"/>
</g>
<g opacity="0.35">
<path d="M45.9782 76.4156C45.9782 76.4156 48.8211 75.9667 50.201 74.6367C50.201 74.6367 50.0656 76.3396 47.6099 77.6791C46.5126 78.2776 46.0186 79.0305 45.6885 80.0683C45.6885 80.0683 46.154 77.729 45.9782 76.4156Z" fill="#371A45"/>
</g>
<path d="M48.7429 86.7683C47.7787 86.7683 46.9118 86.4073 46.3679 85.759C45.2445 84.4218 44.8574 81.8022 45.083 80.9472C45.5058 79.3512 45.7338 77.4607 45.6222 76.4537C45.6008 76.259 45.7409 76.0832 45.938 76.0618C46.1352 76.0405 46.3085 76.183 46.3299 76.3777C46.451 77.4797 46.2207 79.4343 45.7718 81.1301C45.6032 81.7666 45.9262 84.1273 46.9142 85.3006C47.3915 85.8682 48.2204 86.1413 49.1324 86.0321C49.852 85.9466 50.4885 85.6165 50.6785 85.2341C51.2485 84.0846 50.4173 81.883 50.0492 81.1325L49.9779 80.9876L50.042 80.838C51.4029 77.6222 51.3934 74.9242 51.182 72.4898C50.8899 69.1292 49.9993 66.4455 48.3819 64.042C48.2727 63.8781 48.3154 63.6572 48.4793 63.548C48.6432 63.4387 48.864 63.4815 48.9733 63.6453C50.6595 66.1533 51.5882 68.944 51.8898 72.4305C52.1059 74.9195 52.1178 77.6768 50.7593 80.971C51.0467 81.6027 52.0632 84.0513 51.3174 85.5547C51.0134 86.1698 50.2083 86.6235 49.2179 86.7422C49.0588 86.7588 48.8997 86.7683 48.7429 86.7683Z" fill="#371A45"/>
<path d="M47.3394 61.9994C47.5199 62.1086 47.6838 62.2297 47.8453 62.3532C48.0044 62.4791 48.1612 62.6097 48.3084 62.7475C48.458 62.8852 48.6053 63.0254 48.7335 63.1821C48.8642 63.3389 48.9829 63.5027 49.0708 63.6951C49.1539 63.8756 49.0755 64.0917 48.895 64.1749C48.7549 64.239 48.5958 64.2081 48.4913 64.106L48.4865 64.1012C48.3488 63.9659 48.2324 63.8139 48.1184 63.6524C48.0068 63.4932 47.907 63.3222 47.8073 63.1512C47.7075 62.9802 47.6102 62.8045 47.5175 62.624C47.4249 62.4435 47.3347 62.2606 47.261 62.0635C47.2492 62.035 47.2634 62.0041 47.2919 61.9946C47.3085 61.9875 47.3275 61.9899 47.3394 61.9994Z" fill="#371A45"/>
<path d="M37.4473 70.0308L37.7228 70.7955L37.7014 70.444C37.6325 70.3039 37.5494 70.1661 37.4473 70.0308Z" fill="white"/>
<path d="M41.6604 87.6963C41.6486 87.6963 41.6391 87.6963 41.6272 87.6963C40.4302 87.6845 39.4184 87.1073 38.8508 86.1075C38.4162 85.3451 38.1787 82.2315 38.5801 81.1936C39.2759 79.3886 39.2213 78.0016 39.1928 77.2535C39.1928 77.2368 39.1904 77.2202 39.1904 77.2036C38.8841 76.978 38.2238 76.4198 37.8153 75.5173C37.4306 74.6623 37.2809 73.6838 37.1361 72.7362C36.9793 71.7102 36.8321 70.7412 36.4046 70.0905C36.2977 69.9266 36.3428 69.7057 36.5067 69.5965C36.6706 69.4896 36.8914 69.5347 37.0007 69.6986C37.5137 70.48 37.6728 71.5226 37.8415 72.6293C37.9792 73.5295 38.1193 74.4581 38.4661 75.2228C38.9054 76.1966 39.7177 76.7025 39.7272 76.7072L39.8934 76.8093L39.8982 77.0041C39.9006 77.0682 39.9029 77.1418 39.9053 77.225C39.9338 77.966 39.9956 79.5073 39.2451 81.4501C38.9268 82.2742 39.1358 85.1646 39.4707 85.756C39.9101 86.5278 40.6986 86.9743 41.6343 86.9838C42.4822 86.9933 43.2636 86.6276 43.5889 86.0766C44.3988 84.7133 43.7837 81.633 43.7766 81.6021L43.7528 81.4857L43.8051 81.3788C44.6244 79.6641 45.0947 77.8995 45.0947 76.5362C45.0947 76.3391 45.2538 76.18 45.4509 76.18C45.6481 76.18 45.8072 76.3391 45.8072 76.5362C45.8072 77.9731 45.3298 79.8066 44.4962 81.5807C44.6102 82.1982 45.0591 84.996 44.1993 86.4423C43.7481 87.2047 42.7529 87.6963 41.6604 87.6963Z" fill="#371A45"/>
<path d="M45.3369 76.1345C45.5387 76.0727 45.7406 76.0205 45.9425 75.9706C46.1444 75.916 46.3462 75.8661 46.5481 75.8162C46.9519 75.7093 47.358 75.6167 47.757 75.498C48.1584 75.384 48.5574 75.2581 48.9492 75.1132C49.3387 74.9683 49.733 74.8092 50.094 74.6026L50.0964 74.6002C50.1177 74.5883 50.1439 74.5955 50.1534 74.6168C50.1629 74.6335 50.1605 74.6548 50.1462 74.6667C49.9919 74.8258 49.8185 74.9541 49.6427 75.0823C49.467 75.2106 49.2817 75.3222 49.0965 75.4338C48.7212 75.65 48.3317 75.8376 47.9327 76.0038C47.5337 76.1725 47.1276 76.3173 46.7144 76.4385C46.5077 76.4978 46.2987 76.5501 46.0897 76.6C45.8784 76.6451 45.667 76.6855 45.4556 76.7163C45.2941 76.7401 45.1421 76.6285 45.1184 76.4646C45.097 76.3173 45.1872 76.1796 45.325 76.1368L45.3369 76.1345Z" fill="#371A45"/>
<path d="M52.6074 64.5453C52.3485 64.5453 52.1799 64.5073 52.1728 64.5073C52.0136 64.4693 51.9139 64.3102 51.9519 64.1511C51.9899 63.992 52.149 63.8922 52.3081 63.9302C52.3818 63.9468 54.1274 64.3102 54.8423 61.9518C55.2674 60.5482 54.2936 59.2586 53.3508 58.0117C52.6264 57.0546 51.9424 56.1497 51.9424 55.2258C51.9424 55.062 52.0754 54.929 52.2393 54.929C52.4031 54.929 52.5361 55.062 52.5361 55.2258C52.5361 55.9502 53.1608 56.7767 53.8234 57.6531C54.8066 58.9546 55.9229 60.4295 55.4099 62.1228C54.7639 64.2603 53.3294 64.5453 52.6074 64.5453Z" fill="#371A45"/>
<path d="M49.9087 71.6152C49.5192 71.8219 49.0774 72.0427 48.5977 72.2707C48.8922 72.1567 49.1629 72.0451 49.4028 71.9454C49.5952 71.867 49.7662 71.753 49.9087 71.6152Z" fill="white"/>
<path d="M42.0095 82.2743C42.2423 82.2102 42.4679 82.1223 42.6769 82.0202C42.8859 81.9181 43.083 81.7993 43.2588 81.6616C43.4369 81.5262 43.596 81.3742 43.7433 81.2151C43.7789 81.1723 43.8216 81.1391 43.8525 81.0939C43.8858 81.0512 43.9214 81.0108 43.9594 80.9704C44.0306 80.8873 44.0924 80.7971 44.1708 80.7163L44.1993 80.6878C44.3133 80.5691 44.5009 80.5667 44.6196 80.6807C44.7146 80.7733 44.7336 80.9134 44.679 81.0274C44.5603 81.2673 44.3988 81.4882 44.1993 81.6711C44.0069 81.8611 43.7718 82.0059 43.5343 82.1223C43.2944 82.2387 43.0403 82.3171 42.7814 82.3598C42.5249 82.4002 42.266 82.4097 42.0095 82.3622C41.9858 82.3574 41.9715 82.3361 41.9739 82.3123C41.9763 82.2957 41.9881 82.2838 42.0048 82.2791L42.0095 82.2743Z" fill="#371A45"/>
<path d="M48.5007 81.8709C48.9306 81.6714 49.3154 81.4125 49.6265 81.1038C49.7832 80.9518 49.921 80.7855 50.0445 80.6145C50.1751 80.4483 50.2772 80.263 50.4055 80.0849L50.4221 80.0635C50.5171 79.9305 50.7024 79.8973 50.8377 79.9946C50.9494 80.073 50.9897 80.2155 50.9446 80.339C50.8544 80.5836 50.7237 80.8188 50.5504 81.0183C50.3841 81.2249 50.1751 81.3911 49.9566 81.5313C49.7381 81.6714 49.503 81.7783 49.2607 81.8519C49.0185 81.9231 48.7691 81.9683 48.5174 81.9588C48.4936 81.9588 48.4746 81.9374 48.4746 81.9136C48.4746 81.897 48.4841 81.8828 48.4984 81.8756L48.5007 81.8709Z" fill="#371A45"/>
<path d="M33.6065 80.6069C34.2691 80.7992 37.1358 81.3764 37.0574 78.6807C37.0408 78.1107 36.8555 77.194 36.8698 77.1916C36.884 77.1892 38.3921 77.9706 38.8196 77.1489C38.974 76.852 38.9265 76.5765 38.7626 76.3342C38.7175 76.2677 38.6653 76.2036 38.6035 76.1419C38.0834 75.6122 37.0455 75.2702 36.6038 75.2132C36.6038 75.2132 36.6061 75.1776 36.6133 75.1087C36.6513 74.6931 36.8128 73.1019 37.112 71.7244C37.2735 70.981 37.4754 70.2994 37.7176 69.898L37.5063 68.416L37.4089 67.7225L37.0835 65.4306L36.9196 64.2764C36.8816 64.2764 34.357 64.2882 33.3856 67.1857C33.3833 67.1905 33.3833 67.1976 33.3809 67.2024C32.799 68.9527 32.685 72.1851 32.9629 76.5812C33.0413 77.8186 32.2053 80.1984 33.6065 80.6069Z" fill="white"/>
<g opacity="0.35">
<path d="M36.2334 75.5458C36.3498 75.6289 36.4828 75.427 36.6158 75.1064C36.6538 74.6908 36.8153 73.0995 37.1146 71.722C37.4589 72.9072 37.5967 74.1707 38.1382 75.37C38.2736 75.6669 38.4351 75.9234 38.6061 76.1395C38.6583 76.2084 38.7106 76.2702 38.7652 76.3319C39.1642 76.7855 39.5394 77.0112 39.5394 77.0112C39.5418 77.1299 39.5513 77.2795 39.5561 77.46L39.9669 77.4125C39.9669 77.4125 40.0002 76.6288 39.8957 75.7097C39.8411 75.2275 40.1688 74.7905 40.6438 74.7074C41.4466 74.5649 42.4488 74.2633 43.6411 73.6695C43.6411 73.6695 44.2443 72.1638 42.9974 71.7292C42.9974 71.7292 40.8386 73.1185 38.9006 72.8312C38.5396 72.007 38.2261 70.8932 38.4066 69.2212C38.5372 68.0028 38.1406 67.979 37.7083 68.2593C37.6371 68.3068 37.5706 68.3567 37.5136 68.4089C37.0979 68.777 36.9483 69.3043 36.8034 69.955C36.7821 70.0477 36.7583 70.1522 36.7298 70.2638C36.4994 71.1758 36.0506 72.6792 35.8534 74.344C35.6753 75.8474 36.2334 75.5458 36.2334 75.5458Z" fill="#371A45"/>
</g>
<path d="M37.827 69.9603C37.7201 70.3878 37.6489 70.82 37.5752 71.257L37.4612 71.9125L37.352 72.5728L37.143 73.9028C37.0765 74.3469 37.0195 74.7981 36.9767 75.2399L36.6561 74.8409C36.8485 74.8694 37.0124 74.9145 37.1786 74.962C37.3425 75.0119 37.5016 75.0665 37.6607 75.1306C37.9766 75.2589 38.283 75.4133 38.5775 75.627C38.7224 75.7363 38.8672 75.8574 38.9931 76.0165C39.119 76.1733 39.233 76.3728 39.271 76.615C39.309 76.8549 39.2544 77.1066 39.1546 77.299C39.1 77.4011 39.0311 77.508 38.9361 77.5935C38.8435 77.679 38.7366 77.7455 38.625 77.793C38.4041 77.8809 38.1904 77.8951 37.998 77.8856C37.8056 77.8738 37.6251 77.8405 37.4541 77.7954C37.2831 77.7503 37.1192 77.6933 36.9601 77.6268L36.8414 77.5769L36.7321 77.527C36.706 77.5151 36.7559 77.546 36.8485 77.5555C36.8651 77.736 37.485 76.9879 37.238 77.185V77.1636L37.2404 77.1826L37.2499 77.2373L37.2689 77.3536C37.3211 77.6695 37.3734 77.9901 37.4042 78.3226C37.4209 78.4865 37.4304 78.6646 37.428 78.8404C37.428 79.0161 37.4114 79.1943 37.3781 79.3748C37.3187 79.7334 37.1644 80.1063 36.9055 80.4055C36.6466 80.7071 36.2927 80.909 35.9436 81.0159C35.5897 81.1275 35.2335 81.1584 34.8891 81.1584C34.5424 81.1536 34.2051 81.1156 33.8726 81.0468C33.7895 81.0301 33.7064 81.0111 33.6232 80.9898C33.5805 80.9779 33.5401 80.9684 33.495 80.9541L33.3477 80.9019C33.153 80.8211 32.963 80.6881 32.8252 80.5195C32.6851 80.3509 32.5972 80.1585 32.5379 79.9733C32.4809 79.788 32.4524 79.6051 32.4381 79.4294C32.4072 79.0755 32.4286 78.7406 32.4547 78.4129C32.4832 78.0875 32.5236 77.7693 32.5569 77.4581C32.5901 77.147 32.6162 76.8478 32.5972 76.5699L32.5426 75.6151C32.5094 74.9786 32.4832 74.3398 32.469 73.7009C32.4547 73.062 32.4476 72.4208 32.4595 71.7795C32.4714 71.1383 32.4927 70.497 32.5474 69.8534C32.5996 69.2098 32.678 68.5661 32.8134 67.9201C32.8466 67.7586 32.8894 67.5971 32.9297 67.4356L33.001 67.1934L33.039 67.0723L33.0841 66.9535C33.1482 66.7968 33.2029 66.6353 33.2741 66.4809C33.3525 66.3289 33.4285 66.1745 33.5092 66.0249C33.6042 65.88 33.6969 65.7351 33.7942 65.595L33.9581 65.3931C34.0127 65.3266 34.0626 65.253 34.1244 65.1936C34.2479 65.0701 34.3595 64.9348 34.4996 64.8279L34.7015 64.6616C34.7727 64.6118 34.8487 64.5643 34.9224 64.5168C35.2216 64.3339 35.547 64.1914 35.8866 64.1225C36.0552 64.0869 36.2286 64.0679 36.4044 64.0703C36.5801 64.0726 36.7487 64.0893 36.9269 64.1463C36.9934 64.1676 37.0314 64.2413 37.01 64.3078C36.9981 64.3434 36.972 64.3719 36.9411 64.3861L36.9269 64.3933C36.6395 64.5191 36.3616 64.6426 36.098 64.7685C36.0315 64.8018 35.965 64.8303 35.9009 64.8635C35.8367 64.8991 35.7726 64.93 35.7085 64.9633C35.6444 64.9965 35.585 65.0369 35.5232 65.0725L35.4306 65.1248L35.3427 65.1841C35.2834 65.2221 35.224 65.2625 35.1646 65.3005L34.996 65.4311C34.8772 65.5095 34.7799 65.6188 34.673 65.7114C34.5685 65.8111 34.483 65.9275 34.388 66.0368C34.3025 66.1555 34.2289 66.279 34.1457 66.4001C33.5591 67.4166 33.3929 68.673 33.2836 69.9128C33.2314 70.535 33.21 71.1644 33.1981 71.7914C33.1862 72.4208 33.1934 73.0501 33.2076 73.6819C33.2219 74.3136 33.248 74.9454 33.2812 75.5748L33.3359 76.5224C33.3572 76.8786 33.324 77.2135 33.2931 77.5341C33.2599 77.8548 33.2195 78.1683 33.1934 78.4746C33.1672 78.781 33.153 79.0826 33.1767 79.3629C33.1981 79.6431 33.2694 79.8973 33.3976 80.0493C33.4617 80.1253 33.5377 80.1823 33.6351 80.2226L33.7135 80.2488C33.7444 80.2583 33.78 80.2678 33.8156 80.2773C33.8845 80.2963 33.9581 80.3105 34.0294 80.3271C34.6065 80.4435 35.2192 80.4744 35.7322 80.3153C35.9864 80.2369 36.2025 80.1039 36.3616 79.9234C36.516 79.7405 36.6205 79.5078 36.6656 79.2394C36.6894 79.1064 36.7036 78.9686 36.7036 78.8261C36.7084 78.6836 36.6989 78.5435 36.6846 78.3915C36.6537 78.0899 36.6062 77.7835 36.554 77.4724L36.535 77.3536L36.5255 77.2895L36.5207 77.2491C36.5207 77.2373 36.5184 77.2373 36.516 77.1993C36.2714 77.3964 36.8865 76.6364 36.9102 76.8193C37.0076 76.8288 37.0622 76.862 37.0409 76.8525L37.1477 76.9L37.2475 76.9428C37.3829 76.9974 37.5182 77.0449 37.6536 77.0805C37.789 77.1161 37.922 77.1399 38.0479 77.147C38.1714 77.1541 38.2806 77.1399 38.3566 77.109C38.4302 77.0758 38.4706 77.0401 38.5086 76.9641C38.5537 76.8739 38.5632 76.8003 38.5537 76.7243C38.5347 76.5746 38.3709 76.3704 38.1476 76.2136C37.9267 76.0521 37.6631 75.9168 37.3924 75.8075C37.257 75.7529 37.1169 75.703 36.9767 75.6603C36.839 75.6175 36.6917 75.5819 36.5706 75.5676L36.2215 75.5249L36.25 75.1686C36.288 74.7055 36.3355 74.2519 36.3854 73.7935C36.4352 73.3375 36.5017 72.8815 36.5872 72.4255L36.6561 72.0859L36.7369 71.7463C36.763 71.6323 36.7915 71.5206 36.8271 71.409C36.8604 71.2974 36.8912 71.1858 36.9316 71.0741C36.972 70.9625 37.0124 70.8533 37.0575 70.744C37.1074 70.6348 37.1572 70.5255 37.2095 70.421C37.2665 70.3141 37.3306 70.2096 37.3947 70.1099C37.4612 70.0078 37.5467 69.9128 37.6275 69.8225C37.6726 69.7703 37.751 69.7655 37.8032 69.813C37.8389 69.8439 37.8531 69.8914 37.8412 69.9365L37.827 69.9603Z" fill="#371A45"/>
<g opacity="0.35">
<path d="M33.6095 80.6074C34.2697 80.7998 37.1387 81.3769 37.0603 78.6813C37.0532 78.4367 37.0295 78.1707 36.9986 77.9261C36.4571 79.5458 34.094 79.6384 33.6546 79.2347C33.0727 78.7003 33.0988 77.4819 33.0252 76.9761C32.8922 78.1398 32.6167 80.3201 33.6095 80.6074Z" fill="#371A45"/>
</g>
<g opacity="0.35">
<path d="M50.612 69.1908C49.9992 68.0033 49.5693 66.8561 49.2725 65.8064C49.5005 66.393 49.7688 67.001 50.0895 67.6185C50.4647 68.3429 50.7687 69.129 50.9635 69.9365C50.8542 69.6824 50.7378 69.433 50.612 69.1908Z" fill="#371A45"/>
</g>
<path d="M50.5192 69.7538C51.1619 69.7538 51.683 69.2327 51.683 68.59C51.683 67.9473 51.1619 67.4263 50.5192 67.4263C49.8765 67.4263 49.3555 67.9473 49.3555 68.59C49.3555 69.2327 49.8765 69.7538 50.5192 69.7538Z" fill="white"/>
<g opacity="0.35">
<path d="M51.6235 68.2234C51.8254 68.8338 51.4929 69.4916 50.8825 69.6935C50.2722 69.8954 49.6143 69.5629 49.4124 68.9525C49.3578 68.7839 49.3412 68.6105 49.3625 68.4442C49.6642 68.7601 50.1297 68.8931 50.5714 68.7483C51.0132 68.6034 51.3077 68.2186 51.3623 67.7864C51.4787 67.9075 51.5689 68.0548 51.6235 68.2234Z" fill="#371A45"/>
</g>
<path d="M50.5167 70.1218C50.2816 70.1218 50.0464 70.0671 49.8279 69.9579C49.4622 69.7726 49.1914 69.4591 49.0632 69.0696C48.9349 68.6801 48.9658 68.2669 49.1511 67.9011C49.3339 67.5354 49.6498 67.2646 50.0393 67.1364C50.8421 66.8728 51.7089 67.3098 51.9726 68.1101C52.2362 68.9129 51.7992 69.7798 50.9964 70.0434C50.8397 70.0956 50.6782 70.1218 50.5167 70.1218ZM50.5191 67.7919C50.4359 67.7919 50.3528 67.8038 50.2697 67.8323C50.0678 67.8988 49.9039 68.0413 49.8066 68.2313C49.7116 68.4213 49.6949 68.6374 49.7614 68.8393C49.8279 69.0411 49.9704 69.205 50.1604 69.3024C50.3504 69.3974 50.5666 69.414 50.7684 69.3475C51.1864 69.2098 51.4144 68.7585 51.2767 68.3405C51.1651 68.0056 50.8516 67.7919 50.5191 67.7919Z" fill="#371A45"/>
<path d="M50.2699 71.7109L44.5509 73.979C43.874 74.2474 43.0998 73.9149 42.8314 73.2356L41.6249 70.1909C41.3898 69.5971 41.6178 68.9297 42.1308 68.5925C42.2044 68.545 42.2828 68.5046 42.3659 68.469L48.0849 66.2009C48.7618 65.9325 49.536 66.265 49.8044 66.9442L50.7615 69.3549L51.0133 69.9866C51.2817 70.6682 50.9468 71.4425 50.2699 71.7109Z" fill="white"/>
<g opacity="0.35">
<path d="M50.2699 71.7107L44.5509 73.9788C43.874 74.2472 43.0998 73.9147 42.8314 73.2354L41.6249 70.1907C41.3898 69.5969 41.6178 68.9295 42.1308 68.5923C42.5417 68.6802 42.8029 68.7348 42.8029 68.7348C44.0498 71.067 45.2302 72.0099 48.282 70.8557C49.6002 70.3569 50.3483 69.8297 50.7615 69.3547L51.0133 69.9864C51.2817 70.668 50.9468 71.4423 50.2699 71.7107Z" fill="#371A45"/>
</g>
<path d="M44.0643 74.3708C43.4183 74.3708 42.808 73.9837 42.5538 73.3472L41.345 70.3025C41.1858 69.9011 41.193 69.4617 41.364 69.0627C41.5373 68.6637 41.8508 68.3573 42.2522 68.1982L47.9712 65.9277C48.3726 65.7686 48.8143 65.7757 49.211 65.9467C49.61 66.1201 49.9163 66.4336 50.0755 66.835L51.2843 69.8797C51.4435 70.2811 51.4363 70.7205 51.2653 71.1195C51.0943 71.5185 50.7785 71.8248 50.3771 71.984L44.6581 74.2545C44.4657 74.3352 44.2638 74.3708 44.0643 74.3708ZM48.5721 66.4075C48.4438 66.4075 48.318 66.4312 48.1968 66.4787L42.4778 68.7492C42.2237 68.849 42.0242 69.0437 41.915 69.2978C41.8057 69.552 41.801 69.8298 41.9007 70.084L43.1096 73.1287C43.3186 73.656 43.9171 73.9148 44.4443 73.7058L50.1633 71.4377C50.4175 71.338 50.617 71.1432 50.7262 70.8891C50.8355 70.635 50.8402 70.3571 50.7405 70.103L49.5316 67.0582C49.4318 66.8041 49.2371 66.6046 48.983 66.4954C48.85 66.436 48.7098 66.4075 48.5721 66.4075Z" fill="#371A45"/>
<path d="M50.4912 71.5989C50.4223 71.6441 50.3511 71.6821 50.2703 71.7129L44.5513 73.9811C44.0549 74.1782 43.5063 74.0523 43.1429 73.7008C43.0099 73.5749 42.9031 73.4182 42.8318 73.2377L42.2951 71.8863L42.1169 71.4398L41.6229 70.1953C41.3546 69.5184 41.6894 68.7442 42.3663 68.4758L43.6013 67.9866C43.0741 68.3191 42.8389 68.9936 43.0764 69.5944L43.7272 71.2379L44.2829 72.6392C44.5513 73.3161 45.3256 73.6509 46.0024 73.3826L50.4912 71.5989Z" fill="white"/>
<g opacity="0.35">
<path d="M50.4905 71.5987C50.4216 71.6439 50.3503 71.6819 50.2696 71.7127L44.5506 73.9809C43.8737 74.2492 43.0995 73.9167 42.8311 73.2375L42.1162 71.4396C42.387 71.7009 42.8002 71.9882 43.2301 71.8647C43.4652 71.7982 43.6243 71.5465 43.7288 71.2354L44.2846 72.6366C44.553 73.3135 45.3272 73.6484 46.0041 73.38L50.4905 71.5987Z" fill="#371A45"/>
</g>
<path d="M44.0663 74.3708C43.8478 74.3708 43.6293 74.3257 43.4203 74.2354C43.0213 74.062 42.7149 73.7462 42.5558 73.3448L41.3469 70.3C41.1878 69.8987 41.1949 69.4593 41.3659 69.0603C41.5369 68.6613 41.8528 68.3549 42.2542 68.1958L43.4892 67.7065L43.7575 68.2338C43.3395 68.4974 43.1685 69.0223 43.3514 69.4807L44.5603 72.5254C44.66 72.7795 44.8548 72.979 45.1089 73.0883C45.3607 73.1975 45.6409 73.2023 45.895 73.1025L50.3814 71.3213L50.6522 71.8462C50.5667 71.9032 50.474 71.9507 50.3767 71.9863L44.66 74.2544C44.4677 74.3328 44.2658 74.3708 44.0663 74.3708ZM42.7577 68.6375L42.4774 68.7492C42.2233 68.8489 42.0238 69.046 41.9145 69.2978C41.8053 69.5519 41.8005 69.8298 41.9003 70.0839L43.1092 73.1287C43.2089 73.3828 43.4037 73.5823 43.6578 73.6915C43.9095 73.8008 44.1898 73.8055 44.4439 73.7058L44.7622 73.5799C44.4202 73.3994 44.1565 73.1073 44.014 72.7463L42.8052 69.7015C42.6627 69.3524 42.6555 68.9772 42.7577 68.6375Z" fill="#371A45"/>
<path d="M45.9479 70.2429C45.993 70.3569 46.1877 71.3283 46.1877 71.3283C46.1877 71.3283 45.9004 71.4399 45.5441 71.58C45.1024 71.7534 44.5632 71.4351 44.3424 70.8699C44.1215 70.3046 44.302 69.7061 44.7437 69.5328C45.043 69.4164 45.3874 69.281 45.3874 69.281C45.3874 69.281 45.8766 70.06 45.9479 70.2429Z" fill="#22A7F0"/>
<g opacity="0.35">
<path d="M45.9479 70.2429C45.993 70.3569 46.1877 71.3283 46.1877 71.3283C46.1877 71.3283 45.9004 71.4399 45.5441 71.58C45.1024 71.7534 44.5632 71.4351 44.3424 70.8699C44.1215 70.3046 44.302 69.7061 44.7437 69.5328C45.043 69.4164 45.3874 69.281 45.3874 69.281C45.3874 69.281 45.8766 70.06 45.9479 70.2429Z" fill="#371A45"/>
</g>
<path d="M45.4158 71.6842C44.9646 71.6842 44.5062 71.3445 44.2972 70.8125C44.1761 70.5014 44.1571 70.1713 44.245 69.8815C44.3376 69.5752 44.5347 69.3495 44.8007 69.245L45.2496 69.0693C45.442 68.9933 45.6605 69.0669 45.7697 69.245C46.0333 69.6749 46.1901 69.948 46.2328 70.0573C46.2447 70.0858 46.2732 70.1618 46.4395 70.9645C46.4822 71.1688 46.3706 71.373 46.1758 71.449L45.7293 71.6224C45.6272 71.6652 45.5203 71.6842 45.4158 71.6842ZM45.404 69.3994C45.3945 69.3994 45.3873 69.4018 45.3778 69.4042L44.929 69.5799C44.7675 69.644 44.644 69.7865 44.5846 69.986C44.5205 70.1998 44.5347 70.4492 44.6273 70.6843C44.8126 71.1569 45.2472 71.43 45.5963 71.2947L46.0428 71.1213C46.0761 71.1094 46.0951 71.0738 46.088 71.0405C45.9383 70.3162 45.9027 70.2045 45.898 70.1903C45.8647 70.1072 45.7032 69.8245 45.4633 69.435C45.4538 69.4113 45.4301 69.3994 45.404 69.3994Z" fill="#371A45"/>
<path d="M46.3084 71.2087C46.7507 71.0361 46.9304 70.4376 46.7096 69.8718C46.4889 69.306 45.9513 68.9873 45.509 69.1599C45.0666 69.3325 44.887 69.9311 45.1077 70.4968C45.3285 71.0626 45.866 71.3813 46.3084 71.2087Z" fill="#22A7F0"/>
<g opacity="0.35">
<path d="M45.1441 69.4851C45.1584 69.5849 45.1845 69.687 45.2249 69.7867C45.4457 70.352 45.9825 70.6702 46.4266 70.4969C46.5834 70.4351 46.7045 70.3211 46.79 70.1762C46.8589 70.6394 46.6712 71.0692 46.3079 71.2094C45.8661 71.3827 45.327 71.0645 45.1061 70.4992C44.9612 70.1335 44.9874 69.7535 45.1441 69.4851Z" fill="#371A45"/>
</g>
<g opacity="0.6">
<path d="M46.588 70.2304C46.3671 69.6651 45.8304 69.3469 45.3863 69.5202C45.2295 69.582 45.106 69.696 45.0205 69.8456C45.0656 69.5297 45.2366 69.2685 45.505 69.164C45.9468 68.9906 46.4859 69.3089 46.7068 69.8741C46.8493 70.2399 46.8231 70.6175 46.6688 70.8859C46.6996 70.6792 46.6759 70.4512 46.588 70.2304Z" fill="white"/>
</g>
<path d="M46.0565 71.4347C45.6053 71.4347 45.1469 71.0951 44.9379 70.5631C44.6814 69.9076 44.907 69.2046 45.4414 68.9956C45.9758 68.7866 46.617 69.1524 46.8735 69.8079C46.9947 70.119 47.0137 70.4491 46.9258 70.7389C46.8332 71.0452 46.636 71.2709 46.37 71.3754C46.2679 71.4157 46.1634 71.4347 46.0565 71.4347ZM45.762 69.2925C45.6979 69.2925 45.6338 69.3044 45.572 69.3281C45.2229 69.4659 45.0875 69.9599 45.2704 70.4325C45.4557 70.9051 45.8903 71.1782 46.2394 71.0429C46.4009 70.9787 46.5244 70.8362 46.5838 70.6367C46.6479 70.423 46.6337 70.1736 46.541 69.9385C46.389 69.5466 46.066 69.2925 45.762 69.2925Z" fill="#371A45"/>
<path d="M48.4836 72.6915C48.3624 72.6915 48.2484 72.6179 48.2057 72.4967L47.4837 70.5421C47.4077 70.3379 47.4409 70.1122 47.5692 69.9389L48.0822 69.2382C48.0917 69.224 48.0941 69.205 48.0893 69.1907L47.0752 66.6091C47.0158 66.4571 47.0894 66.2837 47.2438 66.2244C47.3958 66.165 47.5692 66.2386 47.6286 66.393L48.6427 68.9746C48.7234 69.1812 48.6949 69.4116 48.5619 69.5897L48.0489 70.2904C48.0394 70.3046 48.0371 70.3212 48.0418 70.3379L48.7638 72.2925C48.8208 72.4469 48.7424 72.6179 48.5881 72.6749C48.5524 72.6867 48.5168 72.6915 48.4836 72.6915Z" fill="#371A45"/>
<path d="M37.3379 71.4585C37.3379 71.4585 36.9389 72.0237 37.098 72.6959C37.2833 73.4725 37.8248 73.6649 37.8248 73.6649C37.8248 73.6649 40.1262 74.2206 43.1472 72.665C43.1472 72.665 43.7504 71.1592 42.5012 70.7246C42.5035 70.7246 39.2403 72.1021 37.3379 71.4585Z" fill="white"/>
<g opacity="0.35">
<path d="M37.0985 72.6965C37.2814 73.4731 37.8253 73.6655 37.8253 73.6655C37.8253 73.6655 40.1267 74.2213 43.1477 72.6656C43.1477 72.6656 43.3448 72.1693 43.2783 71.6658C43.2688 71.6943 43.264 71.7085 43.264 71.7085C41.0553 72.8461 39.2313 72.8556 38.4095 72.7773C37.8395 72.7226 37.3574 72.3189 37.2173 71.7631C37.2149 71.756 37.2125 71.7489 37.2125 71.7394C37.2102 71.7275 37.2054 71.7133 37.2054 71.7014C37.1104 71.9294 37.0035 72.2951 37.0985 72.6965Z" fill="#371A45"/>
</g>
<path d="M38.9166 74.13C38.2088 74.13 37.7813 74.0303 37.7409 74.0208L37.7053 74.0089C37.4322 73.9115 36.9239 73.5458 36.7434 72.7786C36.5487 71.9545 37.0189 71.2729 37.0379 71.2444L37.1947 71.0188L37.4536 71.1066C39.2016 71.698 42.3271 70.3965 42.3603 70.3823L42.4909 70.3276L42.6239 70.3728C43.0419 70.5176 43.3507 70.7884 43.5169 71.1518C43.8447 71.869 43.5288 72.7026 43.4908 72.7953L43.4409 72.9235L43.3198 72.9853C41.4911 73.9305 39.9212 74.13 38.9166 74.13ZM37.9381 73.313C38.1898 73.3629 40.2299 73.7073 42.8496 72.4034C42.9161 72.1706 42.9849 71.7598 42.8472 71.4581C42.7783 71.3109 42.6667 71.1993 42.5028 71.1209C41.8687 71.3703 39.3227 72.3036 37.5248 71.8928C37.4536 72.0709 37.3894 72.3321 37.4559 72.6124C37.5723 73.104 37.8621 73.2774 37.9381 73.313Z" fill="#371A45"/>
<path d="M48.1678 80.4057C47.396 80.4057 46.5315 80.2086 45.648 79.6362C45.5387 79.565 45.5055 79.4177 45.5767 79.3085C45.648 79.1992 45.7952 79.166 45.9045 79.2372C48.4647 80.8926 50.8231 79.0733 50.8468 79.0543C50.949 78.9736 51.0986 78.9902 51.1793 79.0947C51.2601 79.1992 51.2435 79.3465 51.139 79.4272C51.1223 79.4415 49.8731 80.4057 48.1678 80.4057Z" fill="#371A45"/>
<path d="M41.9854 80.3462C41.1494 80.3462 40.2256 80.1467 39.3159 79.5577C39.2067 79.4865 39.1734 79.3392 39.2447 79.23C39.3159 79.1207 39.4632 79.0875 39.5724 79.1587C42.1446 80.8236 44.8592 79.0613 44.8877 79.0423C44.9969 78.9687 45.1442 78.9996 45.2178 79.1088C45.2914 79.2181 45.2606 79.3653 45.1513 79.439C45.1299 79.4508 43.7524 80.3462 41.9854 80.3462Z" fill="#371A45"/>
<path d="M36.7963 73.8149C36.7702 73.8149 36.744 73.8102 36.7179 73.8007C36.6918 73.7912 34.1173 72.8958 32.9773 73.7651C32.8728 73.8434 32.7232 73.8244 32.6448 73.7199C32.5664 73.6154 32.5854 73.4658 32.6899 73.3874C34.0342 72.3614 36.763 73.3114 36.8794 73.3518C37.0029 73.3946 37.067 73.5323 37.0243 73.6558C36.9863 73.7556 36.8937 73.8149 36.7963 73.8149Z" fill="#371A45"/>
<path d="M51.0417 57.9116C47.6549 57.9116 47.0754 54.7789 47.0707 54.7457C47.0493 54.6174 47.1348 54.4939 47.2654 54.4702C47.396 54.4464 47.5172 54.5343 47.5409 54.6626C47.5623 54.7837 48.0919 57.5696 51.2792 57.4294C51.2839 57.4294 51.2863 57.4294 51.291 57.4294C51.4169 57.4294 51.5214 57.5292 51.5285 57.6574C51.5333 57.7881 51.4335 57.8997 51.3029 57.9044C51.2103 57.9092 51.1248 57.9116 51.0417 57.9116Z" fill="#371A45"/>
<g opacity="0.35">
<path d="M33.3857 67.181C34.0935 67.4613 34.8416 67.6394 35.6111 67.7059C36.022 67.7392 36.4566 67.7558 36.9126 67.7439C37.0765 67.7392 37.2427 67.732 37.4114 67.7202C38.8625 67.618 40.4989 67.2262 42.2041 66.307C44.6219 65.0008 46.0777 63.2291 46.9541 61.6378C46.6881 61.3504 46.4292 61.082 46.2084 60.8469L45.9067 61.1034L45.4151 61.2174L37.257 63.1174L37.1857 64.0745L37.1549 64.5044L37.086 65.4259L36.9221 64.2717C36.8841 64.2717 34.3595 64.2835 33.3857 67.181Z" fill="#371A45"/>
</g>
<path d="M47.6383 53.4376C47.8022 55.3542 47.4887 57.3183 46.6598 59.1471C46.4912 59.52 46.3012 59.8857 46.0898 60.2443C45.9877 60.4201 45.8784 60.5935 45.7644 60.7645C45.42 61.2822 45.0424 61.7643 44.6339 62.2061C44.2824 62.5885 43.9072 62.9423 43.5153 63.2701C43.0427 63.6643 42.5415 64.0135 42.019 64.3222C41.829 64.4338 41.6343 64.5407 41.4396 64.6405C37.858 66.4787 33.4144 66.3813 29.8187 63.9968C24.5224 60.4866 23.076 53.3473 26.5839 48.0511C27.2608 47.0322 28.0707 46.1535 28.9779 45.4267C29.0824 45.3412 29.1917 45.2581 29.3009 45.1773C29.593 44.9588 29.8947 44.757 30.201 44.5693C30.9135 44.1371 31.6712 43.7856 32.4502 43.5196C33.2316 43.2536 34.039 43.0707 34.856 42.9757C35.1149 42.9448 35.3762 42.9235 35.6398 42.9116C36.034 42.8926 36.4283 42.895 36.8225 42.9187C38.7938 43.028 40.7627 43.6455 42.5273 44.8163C45.5768 46.8398 47.3486 50.0603 47.6383 53.4376Z" fill="white"/>
<path d="M36.1792 65.9462C33.9467 65.9462 31.7213 65.3002 29.8 64.0272C24.4966 60.5122 23.0407 53.3373 26.5557 48.0339C27.2231 47.0293 28.0306 46.1434 28.9568 45.4024C29.0566 45.3217 29.1658 45.2362 29.2822 45.153C29.5743 44.9369 29.8783 44.7303 30.1871 44.5427C30.8948 44.1128 31.6548 43.7589 32.4433 43.4905C33.2247 43.2245 34.037 43.0417 34.8563 42.9467C35.12 42.9158 35.3836 42.8944 35.6425 42.8825C36.0438 42.8635 36.4452 42.8659 36.83 42.8897C38.8653 43.0013 40.8437 43.6592 42.5513 44.792C45.5058 46.749 47.3726 49.8983 47.6766 53.4347C47.8452 55.394 47.5056 57.3748 46.6957 59.1608C46.5247 59.5384 46.3323 59.9089 46.1233 60.2628C46.0283 60.4243 45.9238 60.5953 45.798 60.7853C45.4583 61.2983 45.076 61.7852 44.6651 62.2317C44.3207 62.6069 43.9431 62.9655 43.5441 63.298C43.0786 63.6852 42.5727 64.0414 42.0431 64.3525C41.8531 64.4642 41.6583 64.571 41.4612 64.6732C39.7963 65.5258 37.9842 65.9462 36.1792 65.9462ZM36.1816 42.9395C36.0035 42.9395 35.823 42.9443 35.6425 42.9514C35.386 42.9633 35.1223 42.9847 34.8611 43.0155C34.0465 43.1105 33.239 43.291 32.4623 43.557C31.6786 43.823 30.9233 44.1769 30.2203 44.602C29.914 44.7873 29.6123 44.9915 29.3226 45.2077C29.2086 45.2908 29.0993 45.3763 28.9996 45.457C28.0781 46.1933 27.2753 47.0744 26.6127 48.0743C23.1191 53.3468 24.5655 60.4765 29.838 63.9702C33.2912 66.2597 37.7325 66.5067 41.4232 64.6114C41.618 64.5117 41.8127 64.4048 42.0003 64.2932C42.5276 63.982 43.0287 63.6305 43.4918 63.2434C43.8885 62.9133 44.2637 62.557 44.6057 62.1842C45.0166 61.74 45.3942 61.2555 45.7338 60.7449C45.8573 60.5549 45.9642 60.3863 46.0568 60.2248C46.2635 59.8733 46.4558 59.5052 46.6268 59.1299C47.432 57.3558 47.7692 55.3869 47.603 53.4394C47.3013 49.9244 45.4465 46.7942 42.511 44.849C40.8128 43.7233 38.8463 43.0702 36.8252 42.9585C36.6138 42.9467 36.4001 42.9395 36.1816 42.9395Z" fill="#371A45"/>
<g opacity="0.35">
<path d="M29.819 63.9987C33.4148 66.3832 37.8584 66.4806 41.4399 64.6423C41.6347 64.5426 41.8294 64.4357 42.0194 64.3241C42.5419 64.0153 43.043 63.6662 43.5157 63.2719C43.9075 62.9466 44.2828 62.5927 44.6343 62.2079C45.0428 61.7638 45.4204 61.2841 45.7648 60.7639C45.8764 60.5906 45.9857 60.4172 46.0902 60.2438C46.3015 59.8852 46.4915 59.5171 46.6602 59.1466C47.489 57.3178 47.8025 55.3537 47.6387 53.4371C47.5484 52.3849 47.3157 51.3471 46.9428 50.3567C47.0568 52.1878 46.7362 54.0569 45.9453 55.8002C45.7767 56.1731 45.5867 56.5388 45.3753 56.8974C45.2732 57.0732 45.1639 57.2442 45.0499 57.4176C44.7055 57.9353 44.3279 58.4174 43.9194 58.8616C43.5679 59.2439 43.1927 59.5978 42.8008 59.9232C42.3282 60.3151 41.8247 60.6666 41.3045 60.9753C41.1145 61.0869 40.9198 61.1938 40.725 61.2936C37.1435 63.1318 32.6999 63.0344 29.1042 60.6499C27.007 59.2606 25.5132 57.3012 24.6914 55.1114C24.9075 58.5908 26.6935 61.9277 29.819 63.9987Z" fill="#371A45"/>
</g>
<path d="M36.179 66.1819C33.9014 66.1819 31.6309 65.5241 29.6715 64.2249C24.2613 60.6387 22.7745 53.3189 26.3608 47.9087C27.0424 46.8827 27.8665 45.9802 28.8118 45.2226C28.9139 45.1394 29.0255 45.0539 29.1443 44.9661C29.4411 44.7452 29.7499 44.5362 30.0658 44.3462C30.7878 43.9068 31.5644 43.5458 32.3695 43.2727C33.1651 42.9996 33.994 42.8143 34.8324 42.7169C35.1008 42.6861 35.3691 42.6647 35.6351 42.6528C36.046 42.6338 36.4521 42.6362 36.8464 42.6599C38.9221 42.7739 40.9409 43.4461 42.6841 44.6003C45.698 46.5977 47.6028 49.8111 47.9115 53.4187C48.0825 55.4184 47.7358 57.4396 46.9093 59.2612C46.7335 59.6459 46.5388 60.0236 46.325 60.3846C46.23 60.5484 46.1208 60.7218 45.9949 60.9166C45.6481 61.4414 45.2586 61.9378 44.8383 62.3938C44.4868 62.7786 44.102 63.1443 43.6935 63.4816C43.2185 63.8782 42.7031 64.2392 42.1616 64.5574C41.9669 64.6714 41.7698 64.7807 41.5679 64.8828C39.8674 65.7521 38.0196 66.1819 36.179 66.1819ZM36.1814 43.1753C36.008 43.1753 35.8299 43.1801 35.6541 43.1872C35.4024 43.1991 35.1459 43.2204 34.8894 43.2489C34.0914 43.3416 33.3005 43.5197 32.5405 43.7786C31.771 44.0398 31.0324 44.3842 30.3436 44.8022C30.0444 44.9851 29.7475 45.1846 29.4649 45.3959C29.3533 45.4791 29.2464 45.5598 29.1514 45.6382C28.2489 46.3602 27.4604 47.2223 26.812 48.2032C23.3896 53.3664 24.8075 60.3537 29.9708 63.7761C33.3551 66.0204 37.7038 66.2603 41.3209 64.4031C41.5109 64.3057 41.7033 64.1988 41.8861 64.0919C42.4015 63.7879 42.8931 63.4436 43.3468 63.0659C43.7363 62.7429 44.102 62.3938 44.4393 62.0281C44.8406 61.5911 45.2135 61.1184 45.5436 60.6173C45.6648 60.4321 45.7693 60.2658 45.8595 60.1091C46.0614 59.7647 46.249 59.4037 46.4176 59.0356C47.2061 57.2971 47.5363 55.3686 47.3724 53.4614C47.0779 50.0177 45.2586 46.9516 42.3825 45.0444C40.72 43.9424 38.7939 43.3012 36.8131 43.1919C36.6041 43.1801 36.3951 43.1753 36.1814 43.1753Z" fill="#371A45"/>
<path d="M36.1791 66.2595C33.8872 66.2595 31.6024 65.5969 29.6288 64.2883C24.1829 60.6783 22.6867 53.311 26.2967 47.8628C26.9831 46.8296 27.8119 45.92 28.7643 45.16C28.8664 45.0769 28.9804 44.989 29.0992 44.9011C29.3961 44.6803 29.7096 44.4689 30.0254 44.2765C30.7546 43.8348 31.5336 43.4714 32.3434 43.1959C33.1438 42.9228 33.9798 42.7328 34.8206 42.6378C35.0913 42.6069 35.3621 42.5831 35.6281 42.5713C36.0413 42.5523 36.4522 42.5546 36.8488 42.5784C38.9388 42.6948 40.9694 43.3693 42.7246 44.533C45.7574 46.5423 47.6764 49.7794 47.9876 53.4108C48.1609 55.4248 47.8118 57.4578 46.9782 59.2913C46.8024 59.6784 46.6053 60.0584 46.3916 60.4218C46.2942 60.5856 46.1849 60.7614 46.0591 60.9561C45.7099 61.4834 45.3181 61.9845 44.8929 62.4429C44.5391 62.83 44.1519 63.1981 43.7411 63.5378C43.2613 63.9368 42.7436 64.3001 42.1997 64.6208C42.0049 64.7348 41.8031 64.8464 41.6036 64.9485C39.8936 65.8249 38.0316 66.2595 36.1791 66.2595ZM36.1814 43.2529C36.0081 43.2529 35.8323 43.2576 35.6566 43.2648C35.4072 43.2766 35.1507 43.298 34.8966 43.3265C34.1033 43.4191 33.3172 43.5949 32.5619 43.8538C31.7996 44.1126 31.0657 44.4546 30.3793 44.8703C30.0801 45.0508 29.7879 45.2503 29.5053 45.4593C29.3937 45.5424 29.2892 45.6208 29.1942 45.6991C28.2964 46.4164 27.5151 47.2738 26.8691 48.2451C23.4704 53.3728 24.8788 60.3101 30.0064 63.7088C33.3671 65.9365 37.6848 66.1764 41.2782 64.331C41.4682 64.2336 41.6582 64.1291 41.8411 64.0223C42.3517 63.7206 42.8409 63.3786 43.2922 63.0034C43.6769 62.6828 44.0427 62.336 44.3752 61.9726C44.7742 61.538 45.1447 61.0678 45.4724 60.5714C45.5936 60.3885 45.6957 60.2223 45.7859 60.0679C45.9878 59.7259 46.1731 59.3673 46.3393 59.0015C47.1231 57.2749 47.4508 55.3606 47.2893 53.4654C46.9972 50.0454 45.1898 47.0006 42.3351 45.1078C40.6844 44.0129 38.7702 43.3764 36.8037 43.2671C36.6018 43.2576 36.3928 43.2529 36.1814 43.2529Z" fill="#371A45"/>
<path d="M47.5112 56.382C44.4688 64.02 34.9641 66.2525 30.0906 59.7283C26.7751 55.2895 28.5635 48.6157 33.0332 45.7063C36.2846 43.5878 40.3862 42.9418 45.0531 47.091C45.0531 47.091 46.8344 49.2475 47.2239 51.2068C47.611 53.1686 47.6585 55.1398 47.6585 55.1398L47.5112 56.382Z" fill="#371A45"/>
<path d="M30.0921 59.7284C34.9632 66.2549 44.468 64.02 47.5103 56.382L47.5388 56.1302C42.0716 61.3125 33.4575 61.664 28.4082 55.1565C28.5317 56.7762 29.0685 58.358 30.0921 59.7284Z" fill="#220F2D"/>
<path d="M37.4672 65.0696C37.0064 65.0696 36.5457 65.0411 36.092 64.9793C33.2183 64.6017 30.7245 63.0983 28.8815 60.6307C27.1858 58.3602 26.5493 55.4508 27.0837 52.4393C27.6679 49.1618 29.6035 46.1693 32.2635 44.438C33.7574 43.4642 35.2774 42.8562 36.7808 42.6258L36.8117 42.6211L36.8425 42.6235C38.9254 42.7375 40.9489 43.412 42.6969 44.571C45.7179 46.5731 47.6298 49.796 47.9385 53.4131C48.1095 55.4176 47.7628 57.4435 46.9339 59.2722C46.7582 59.6593 46.561 60.037 46.3497 60.398C46.2547 60.5618 46.1454 60.7376 46.0172 60.93C45.668 61.4548 45.2785 61.9536 44.8558 62.412L44.8202 62.4452C42.6637 64.1457 40.0464 65.0696 37.4672 65.0696ZM36.8402 43.2243C35.4318 43.4452 34.002 44.0223 32.5913 44.9415C30.0667 46.585 28.2284 49.4278 27.675 52.5462C27.1692 55.3938 27.7677 58.137 29.3613 60.2721C31.1045 62.6067 33.4582 64.027 36.168 64.3832C39.0062 64.7561 42.0153 63.8821 44.4283 61.9845C44.8225 61.5546 45.1883 61.0867 45.5137 60.5975C45.6348 60.4122 45.7369 60.246 45.8295 60.0916C46.0314 59.7472 46.219 59.3886 46.3853 59.0205C47.1714 57.2867 47.5015 55.3653 47.3377 53.4606C47.0432 50.0263 45.231 46.9673 42.362 45.0673C40.7138 43.9772 38.8067 43.3383 36.8402 43.2243Z" fill="#371A45"/>
<path d="M30.4508 64.2013C31.8385 63.3059 31.9649 61.0325 30.7331 59.1235C29.5013 57.2145 27.3778 56.3928 25.9901 57.2882C24.6025 58.1836 24.4761 60.457 25.7079 62.366C26.9397 64.275 29.0632 65.0967 30.4508 64.2013Z" fill="white"/>
<path d="M29.1853 64.9035C27.7626 64.9035 26.1856 63.9084 25.2523 62.2815C24.5445 61.0489 24.3308 59.6928 24.6656 58.5647C24.896 57.7904 25.3615 57.2038 26.017 56.8665C27.6486 56.0305 29.969 57.0755 31.185 59.1988C31.8928 60.4314 32.1065 61.7875 31.7716 62.9157C31.5413 63.6899 31.0734 64.2765 30.4203 64.6138C30.0379 64.8109 29.6175 64.9035 29.1853 64.9035ZM25.8531 61.9372C26.8886 63.7445 28.7958 64.6684 30.1044 63.9987C30.5865 63.7517 30.9333 63.3099 31.109 62.7209C31.3845 61.7875 31.1898 60.6024 30.5841 59.5479C29.5486 57.7405 27.6415 56.8167 26.3329 57.4864C25.8508 57.7334 25.504 58.1752 25.3283 58.7642C25.0528 59.6952 25.2475 60.8827 25.8531 61.9372Z" fill="#371A45"/>
<path d="M29.4179 64.2008C30.5231 63.4328 30.5846 61.6095 29.5553 60.1285C28.526 58.6474 26.7957 58.0693 25.6905 58.8374C24.5854 59.6054 24.5239 61.4287 25.5531 62.9098C26.5824 64.3908 28.3127 64.9689 29.4179 64.2008Z" fill="white"/>
<path d="M28.2824 64.5757C27.5746 64.5757 26.8218 64.2574 26.1758 63.6732C24.8529 62.4786 24.3921 60.5429 25.1474 59.3554C25.4609 58.8638 25.9335 58.5622 26.5178 58.4838C27.311 58.3769 28.1898 58.6976 28.9308 59.3673C30.2536 60.5619 30.7144 62.4976 29.9591 63.6851C29.6456 64.1767 29.173 64.4783 28.5888 64.5567C28.4866 64.5686 28.3845 64.5757 28.2824 64.5757ZM26.8218 58.5337C26.722 58.5337 26.6223 58.5408 26.5249 58.5527C25.962 58.6287 25.506 58.9184 25.2068 59.3911C24.4705 60.5501 24.9241 62.4453 26.2233 63.6162C26.9476 64.2693 27.805 64.5852 28.5769 64.4807C29.1398 64.4047 29.5958 64.1149 29.895 63.6423C30.6313 62.4833 30.1776 60.5881 28.8785 59.4172C28.2468 58.8472 27.5129 58.5337 26.8218 58.5337Z" fill="#371A45"/>
<g opacity="0.35">
<path d="M30.2376 61.574C30.069 60.9778 29.7389 60.4268 29.3114 59.9756C29.5798 61.365 28.7936 62.4456 27.466 62.4361C26.6086 62.4313 25.7204 61.973 25.0625 61.2723C25.0791 61.3602 25.1005 61.4505 25.1266 61.5407C25.5541 63.056 27.0456 64.2933 28.4564 64.3028C29.8671 64.3123 30.6628 63.0892 30.2376 61.574Z" fill="#371A45"/>
</g>
<path d="M28.401 64.8297C27.2777 64.8297 26.0118 63.9937 25.2162 62.6186C24.6177 61.5831 24.4205 60.4288 24.6889 59.5287C24.8599 58.9563 25.2043 58.5241 25.6864 58.2818C26.9618 57.6406 28.7597 58.5193 29.7809 60.2816C30.3794 61.3171 30.5765 62.4713 30.3082 63.3714C30.1372 63.9438 29.7928 64.3761 29.3107 64.6183C29.028 64.7608 28.7217 64.8297 28.401 64.8297ZM26.596 58.6737C26.368 58.6737 26.1519 58.7212 25.9572 58.8186C25.627 58.9848 25.3895 59.2888 25.266 59.6997C25.0452 60.4431 25.2209 61.4216 25.7387 62.3169C26.5842 63.7799 28.0662 64.5732 29.0423 64.0816C29.3724 63.9153 29.6099 63.6113 29.7334 63.2004C29.9567 62.4571 29.7785 61.4786 29.2608 60.5832C28.5839 59.4147 27.5009 58.6737 26.596 58.6737Z" fill="#371A45"/>
<g opacity="0.5">
<path d="M31.9241 49.2926C31.9241 49.2926 36.2229 46.8677 40.0419 47.7654C40.0466 47.7654 40.049 47.7678 40.0538 47.7678C40.8565 47.9578 41.5951 48.3616 42.1913 48.9316C42.9821 49.6844 43.4144 50.3209 43.7754 50.8933C44.8703 52.6389 45.0579 53.6626 45.0579 53.6626C45.4711 52.1164 45.3738 50.7199 44.476 49.2569C44.3881 49.1121 44.2908 48.9672 44.1863 48.8223C44.1625 48.7891 44.1388 48.7558 44.1126 48.7226C44.1126 48.7226 44.1126 48.7202 44.1102 48.7202C43.8775 48.4399 43.5593 48.0813 43.165 47.7084C41.9799 46.5827 40.1203 45.3121 37.9281 45.5567C33.8313 46.0127 31.6652 49.2023 31.9241 49.2926Z" fill="white"/>
</g>
<g opacity="0.5">
<path d="M31.9426 57.227C32.7536 56.9768 33.1744 56.0068 32.8824 55.0604C32.5905 54.1141 31.6964 53.5497 30.8854 53.7999C30.0744 54.0501 29.6537 55.0201 29.9456 55.9664C30.2376 56.9128 31.1316 57.4771 31.9426 57.227Z" fill="white"/>
</g>
<g opacity="0.5">
<path d="M32.5291 59.3431C32.8713 59.2684 33.0779 58.8838 32.9907 58.484C32.9035 58.0841 32.5555 57.8205 32.2133 57.8951C31.8711 57.9698 31.6644 58.3544 31.7517 58.7542C31.8389 59.1541 32.1869 59.4177 32.5291 59.3431Z" fill="white"/>
</g>
<path d="M66.2429 24.1143C66.1859 24.7389 66.0909 25.3588 65.9555 25.9691C65.7702 26.8265 65.509 27.6673 65.1812 28.4795C63.7539 32.004 61.025 35.006 57.2867 36.6946C53.5414 38.388 49.473 38.4545 45.8796 37.1886C45.0911 36.9108 44.324 36.5688 43.5901 36.1674C43.013 35.8515 42.4572 35.5 41.9229 35.1105C45.6849 34.1653 50.0311 32.6381 54.5317 30.6028C59.0324 28.5698 63.0485 26.3135 66.2429 24.1143Z" fill="#FFB200"/>
<path d="M54.5341 30.6051C59.0324 28.5698 63.0509 26.3135 66.2452 24.1143C66.1882 24.7389 66.0932 25.3588 65.9579 25.9691C63.4997 27.7551 59.5715 29.9591 54.9972 32.0278C50.6154 34.0085 46.5327 35.462 43.5901 36.1674C43.013 35.8515 42.4572 35.5 41.9229 35.1105C45.6872 34.1653 50.0335 32.6405 54.5341 30.6051Z" fill="#D66B09"/>
<path d="M65.6207 18.1903C63.1269 20.2067 58.1988 23.0306 52.3112 25.6953C46.4259 28.3577 41.0489 30.1936 37.8878 30.7327C37.5577 30.1959 37.2608 29.6307 36.9948 29.0417C36.9829 29.0132 36.9711 28.9871 36.9568 28.9586C36.8404 28.6997 36.7336 28.4384 36.6338 28.1748C36.3987 27.5597 36.2063 26.9374 36.0543 26.3104C36.0472 26.2843 36.0424 26.2606 36.0353 26.2344C35.8144 25.3034 35.6862 24.3653 35.6434 23.4319C35.5603 21.6554 35.7931 19.8932 36.3061 18.2188C36.6884 16.9743 37.2276 15.7797 37.9139 14.6658C39.4624 12.1507 41.7519 10.0559 44.6471 8.74731C44.9344 8.61669 45.2242 8.49794 45.5139 8.38631C49.4137 6.89956 53.5889 7.11094 57.1728 8.69744C57.1966 8.70694 57.2179 8.71644 57.2417 8.72831C58.7973 9.42419 60.2389 10.3813 61.5001 11.5688C62.1152 12.1507 62.6899 12.7872 63.2077 13.4783C63.2647 13.5519 63.3193 13.6279 63.3763 13.7039C63.4214 13.7657 63.4666 13.8298 63.5117 13.8916C63.8822 14.4188 64.2218 14.9746 64.5282 15.5564C64.6422 15.7726 64.7514 15.9934 64.8559 16.2167C64.8844 16.2784 64.9129 16.3402 64.9414 16.4019C65.2074 16.9909 65.4354 17.5894 65.6207 18.1903Z" fill="#FFB200"/>
<path d="M64.8562 16.2192C64.8847 16.281 64.9132 16.3404 64.9417 16.4021C65.2077 16.9911 65.4333 17.5872 65.6209 18.1905C63.1272 20.2069 58.199 23.0331 52.3114 25.6955C46.4262 28.3579 41.0492 30.1937 37.888 30.7329C37.5603 30.1961 37.261 29.6309 36.9927 29.0419C36.9808 29.0134 36.9689 28.9872 36.957 28.9587C39.9567 28.6286 45.4263 26.8521 51.4279 24.1375C57.667 21.3184 62.7662 18.2546 64.8562 16.2192Z" fill="#D66B09"/>
<path d="M35.8506 23.8339C35.7722 23.8339 35.6962 23.8315 35.625 23.8291L35.6654 23.0406C37.772 23.1499 43.263 21.409 49.0176 18.806C55.8837 15.6995 60.3274 12.7094 61.1657 11.3604L61.8355 11.7784C60.7668 13.4955 55.6296 16.6804 49.3406 19.5232C43.5836 22.1286 38.2327 23.8339 35.8506 23.8339Z" fill="#D66B09"/>
<path d="M36.3654 18.6113L36.249 17.8299C38.6098 17.4784 42.6995 16.0748 46.9199 14.1677C51.3421 12.1679 55.1706 9.95919 56.9115 8.40356L57.4388 8.99256C55.6409 10.5981 51.7364 12.8567 47.2453 14.8873C42.9631 16.8253 38.7926 18.2503 36.3654 18.6113Z" fill="#D66B09"/>
<path d="M36.0589 26.6286C36.0494 26.6286 36.0423 26.6286 36.0352 26.6286L36.0399 25.8378C36.047 25.8378 36.0542 25.8378 36.0637 25.8378C38.4909 25.8378 44.1434 24.0185 50.1498 21.3015C56.4697 18.442 61.7802 15.2215 63.0603 13.4688L63.6992 13.9343C62.324 15.8153 57.0112 19.0666 50.4752 22.0211C44.3738 24.7809 38.5907 26.6286 36.0589 26.6286Z" fill="#D66B09"/>
<path d="M45.8965 37.3877L45.8822 37.1906L45.8086 37.0054L45.8371 36.9935L45.868 36.9911C47.9485 36.8415 51.9123 35.5614 55.9641 33.7279C60.0372 31.8849 63.519 29.8186 65.0461 28.3342L65.3216 28.6169C63.7636 30.1297 60.2391 32.2269 56.128 34.0865C51.9717 35.9675 48.053 37.231 45.8965 37.3877Z" fill="#D66B09"/>
<path d="M50.9763 38.4676C47.6893 38.4676 44.4213 37.444 41.6782 35.4466L40.9609 34.9241L41.8207 34.708C45.6919 33.7342 50.0287 32.1833 54.3583 30.2263C58.6879 28.267 62.7159 26.0368 66.0053 23.7711L66.7368 23.2676L66.6561 24.1511C66.1383 29.7917 62.6138 34.7412 57.4577 37.0735C55.3914 38.0092 53.1803 38.4676 50.9763 38.4676ZM42.9132 35.2827C47.1478 37.9902 52.5082 38.4011 57.1157 36.3158C61.7256 34.2306 64.9579 29.9366 65.7203 24.9681C62.5402 27.0818 58.7521 29.1528 54.7051 30.9816C50.6557 32.8127 46.6016 34.2923 42.9132 35.2827Z" fill="#371A45"/>
<path d="M65.832 14.4023C65.8463 14.4332 65.8582 14.4665 65.8653 14.5021L65.832 14.4023Z" fill="#D66B09"/>
<path d="M73.7647 14.7966C74.691 16.8439 71.6391 20.3969 66.2431 24.1138C63.0487 26.313 59.0326 28.5716 54.532 30.6046C50.0313 32.64 45.6851 34.1648 41.9231 35.1124C35.57 36.7108 30.8865 36.6561 29.9602 34.6089C29.1195 32.7493 31.5586 29.6499 36.0521 26.313C36.2041 26.9376 36.3965 27.5623 36.6316 28.1774C35.3895 29.1939 34.7767 29.999 34.9905 30.4693C35.2066 30.949 36.2516 31.0155 37.888 30.7353C41.0491 30.1938 46.4261 28.3579 52.3113 25.6979C58.1966 23.0355 63.1247 20.2116 65.6208 18.1929C66.9105 17.1479 67.5493 16.3214 67.3332 15.8416C67.1218 15.3714 66.1125 15.2978 64.5283 15.5614C64.222 14.9795 63.8823 14.4238 63.5118 13.8965C68.9862 12.7209 72.924 12.937 73.7647 14.7966Z" fill="#FFCC4D"/>
<path d="M35.7145 32.3714C34.5342 32.3714 33.634 32.1268 33.3395 31.4713C32.9144 30.5332 33.8834 29.1224 36.2133 27.2723L36.5814 27.7378C33.6578 30.0558 33.7742 30.9939 33.8787 31.2267C34.2444 32.0342 37.1087 32.0936 42.6828 30.4073C45.7489 29.4787 49.2164 28.1534 52.71 26.5741C56.2037 24.9947 59.4883 23.2657 62.21 21.5771C67.1572 18.5038 69.0049 16.3141 68.6392 15.5066C68.5347 15.2738 67.9053 14.5661 64.2359 15.2311L64.1314 14.6468C67.0574 14.1172 68.7579 14.3238 69.1807 15.2619C70.0048 17.0836 65.364 20.3159 62.5235 22.0806C59.7804 23.7834 56.472 25.5243 52.9547 27.1156C49.4373 28.7068 45.946 30.0416 42.8538 30.9773C40.8042 31.5948 37.8164 32.3714 35.7145 32.3714Z" fill="#FFEC90"/>
<path d="M34.8575 34.4403C33.1903 34.4403 31.8246 34.1007 31.3781 33.1175C30.5516 31.2911 33.4468 28.5812 36.0213 26.629L36.3799 27.1016C33.0834 29.6025 31.4161 31.759 31.9196 32.8728C32.2189 33.5331 33.3399 33.8798 35.0855 33.8513C36.8976 33.8205 39.3534 33.393 42.1891 32.614C45.6828 31.6545 49.611 30.2057 53.5488 28.4245C57.4865 26.6432 61.1701 24.6506 64.1959 22.6603C66.6516 21.0453 68.5968 19.485 69.8151 18.1431C70.9884 16.8535 71.4705 15.78 71.1713 15.1197C70.6678 14.0058 67.946 13.8348 63.8919 14.659L63.7731 14.0771C66.939 13.4335 70.8863 13.0487 71.7104 14.8751C72.829 17.3475 67.053 21.4895 64.5189 23.1543C61.467 25.1588 57.7573 27.1681 53.791 28.9612C49.8248 30.7543 45.8656 32.215 42.3435 33.1816C40.5836 33.6685 37.3774 34.4403 34.8575 34.4403Z" fill="#FFEC90"/>
<path d="M34.432 36.6487C31.8314 36.6487 30.1451 36.0217 29.5822 34.7772C28.3496 32.0554 32.9524 28.0939 35.8071 25.9754L36.3106 25.6002L36.4579 26.2105C36.6075 26.8233 36.7951 27.4337 37.0207 28.0227L37.1276 28.3029L36.8949 28.4929C35.2609 29.83 35.3677 30.2884 35.3677 30.2932C35.3701 30.2979 35.6527 30.6898 37.8164 30.3217C41.0392 29.7707 46.5279 27.8517 52.1376 25.3152C57.7474 22.7787 62.8132 19.9239 65.3569 17.8672C67.0621 16.4873 66.9552 16.0147 66.9529 16.0099C66.9505 16.0052 66.6774 15.6228 64.5945 15.9672L64.2976 16.017L64.1575 15.751C63.863 15.1929 63.5305 14.6467 63.1671 14.1313L62.8061 13.6183L63.4189 13.4877C66.8935 12.7443 72.907 11.9035 74.1372 14.6253C75.1347 16.8317 72.3417 20.4132 66.4731 24.4554C63.1434 26.7473 59.0726 29.0059 54.6979 30.9843C50.3231 32.9627 45.9389 34.5302 42.0201 35.5158C39.011 36.2734 36.446 36.6487 34.432 36.6487ZM35.8095 27.0157C31.7506 30.1222 29.663 32.9413 30.3399 34.4352C31.1307 36.1855 35.5316 36.29 41.823 34.7083C45.6942 33.7345 50.031 32.1837 54.3606 30.2267C58.6902 28.2673 62.7182 26.0372 66.0076 23.7714C71.3514 20.0925 74.1776 16.7177 73.3867 14.9697C72.7099 13.4758 69.2162 13.1813 64.2026 14.1764C64.3974 14.478 64.5826 14.7892 64.756 15.105C66.4826 14.8533 67.4255 15.0338 67.7129 15.6703C68.0216 16.3519 67.4397 17.2568 65.8817 18.5155C63.2479 20.6459 58.239 23.4722 52.482 26.0752C46.725 28.6782 41.2957 30.5734 37.9565 31.1434C35.9829 31.4807 34.9189 31.3192 34.6101 30.6399C34.3227 30.0034 34.8096 29.1769 36.1396 28.0464C36.0209 27.7044 35.9092 27.3624 35.8095 27.0157Z" fill="#371A45"/>
<g opacity="0.41">
<path d="M65.6213 18.191C65.3316 18.4261 65.0086 18.6707 64.6547 18.9272C64.5122 18.5235 64.3507 18.1221 64.1702 17.7255C64.1417 17.6637 64.1132 17.602 64.0847 17.5426C63.9802 17.3194 63.8709 17.0985 63.7569 16.8824C63.4506 16.3005 63.1086 15.7447 62.7404 15.2175C62.6953 15.1534 62.6502 15.0916 62.6051 15.0299C62.0422 14.2532 61.4128 13.5384 60.7288 12.8947C59.4511 11.6906 57.9857 10.7216 56.4039 10.0234C52.5517 8.32049 48.0178 8.20174 43.8758 10.0732C41.1113 11.3225 38.8978 13.2914 37.3564 15.6569C38.8859 12.7047 41.3821 10.2276 44.6501 8.75037C48.7897 6.87887 53.3236 6.99524 57.1758 8.70049C58.7576 9.39874 60.2253 10.3654 61.5007 11.5719C62.1847 12.2155 62.8141 12.928 63.3769 13.707C63.4244 13.7687 63.4672 13.8329 63.5123 13.897C63.8828 14.4242 64.2224 14.98 64.5288 15.5619C64.6428 15.778 64.7521 15.9989 64.8566 16.2221C64.8851 16.2839 64.9136 16.3432 64.9421 16.4074C65.2081 16.9916 65.4361 17.5901 65.6213 18.191Z" fill="white"/>
</g>
<path d="M37.6812 31.1889L37.5339 30.9491C37.1943 30.3957 36.8855 29.8114 36.6148 29.2129C36.4818 28.9184 36.3583 28.6192 36.2443 28.3223C36.0068 27.7001 35.8073 27.0564 35.6505 26.4081C33.8764 19.0717 37.5885 11.4836 44.476 8.36995C51.3635 5.25395 59.5122 7.47695 63.8513 13.6543C64.2337 14.1982 64.5852 14.7753 64.8963 15.3643C65.0436 15.6446 65.186 15.9367 65.3214 16.2312C65.5922 16.8297 65.8273 17.4472 66.0197 18.0671L66.1028 18.3354L65.8843 18.5136C63.2504 20.6439 58.2415 23.4702 52.4845 26.0732C46.7275 28.6762 41.2983 30.5714 37.959 31.1414L37.6812 31.1889ZM50.9622 7.79995C48.8936 7.79995 46.8012 8.22982 44.8204 9.1252C38.2963 12.0773 34.7789 19.2617 36.458 26.2109C36.6077 26.8237 36.7953 27.4341 37.0209 28.0231C37.1278 28.3057 37.2465 28.5907 37.3724 28.8686C37.5885 29.3483 37.8332 29.8186 38.0968 30.2698C41.3529 29.6594 46.6895 27.7785 52.1402 25.3132C57.5908 22.8479 62.5284 20.0834 65.1362 18.0409C64.9723 17.5446 64.7799 17.0506 64.5614 16.5708C64.4355 16.2929 64.3002 16.0151 64.16 15.7491C63.8656 15.1886 63.5331 14.6447 63.1697 14.1269C60.3102 10.0586 55.7003 7.79995 50.9622 7.79995Z" fill="#371A45"/>
<g opacity="0.25">
<path d="M54.257 30.7285C49.8561 32.7022 45.6096 34.1842 41.926 35.1104C35.5729 36.7088 30.8894 36.6542 29.9631 34.6069C29.1224 32.7473 31.5615 29.6479 36.055 26.311C36.207 26.938 36.3994 27.5603 36.6345 28.1754C35.3924 29.1919 34.7796 29.997 34.9934 30.4673C35.2095 30.947 36.2545 31.0135 37.8909 30.7333C39.988 30.3747 43.0613 29.446 46.6095 28.0828C46.524 28.5459 46.562 28.9663 46.7306 29.3392C47.4218 30.8734 50.2243 31.289 54.257 30.7285Z" fill="#371A45"/>
</g>
<g opacity="0.3">
<path d="M39.0098 13.1179C39.1451 12.9493 39.2853 12.783 39.4278 12.6191C39.2853 12.7806 39.1451 12.9469 39.0098 13.1179Z" fill="#293856"/>
</g>
<g opacity="0.3">
<path d="M40.33 11.6711C40.1804 11.816 40.0331 11.9633 39.8906 12.1129C40.0331 11.9609 40.1804 11.8136 40.33 11.6711Z" fill="#293856"/>
</g>
<g opacity="0.25">
<path d="M66.2429 24.1143C66.1859 24.7389 66.0909 25.3588 65.9555 25.9691C65.7702 26.8265 65.509 27.6673 65.1812 28.4795C63.7539 32.004 61.025 35.006 57.2867 36.6946C53.5414 38.388 49.473 38.4545 45.8796 37.1886C45.0911 36.9108 44.324 36.5688 43.5901 36.1674C43.013 35.8515 42.4572 35.5 41.9229 35.1105C45.6849 34.1653 50.0311 32.6381 54.5317 30.6028C59.0324 28.5698 63.0485 26.3135 66.2429 24.1143Z" fill="#371A45"/>
</g>
<g opacity="0.25">
<path d="M65.6211 18.1902C63.125 20.2066 58.1992 23.0305 52.3116 25.6929C46.4264 28.3552 41.0517 30.1911 37.8882 30.7326C37.5581 30.1959 37.2612 29.6306 36.9952 29.0416C36.9834 29.0131 36.9715 28.987 36.9572 28.9585C36.8409 28.6996 36.7316 28.436 36.6319 28.1747C36.3967 27.5596 36.2044 26.9374 36.0524 26.3104C36.0452 26.2842 36.0405 26.2605 36.0334 26.2344C35.8125 25.3034 35.6842 24.3652 35.6415 23.4319C35.5584 21.6554 35.7911 19.8931 36.3041 18.2211C36.6865 16.9766 37.2256 15.7796 37.912 14.6681C38.7646 13.2811 39.8452 12.0224 41.1254 10.9536C40.7549 11.4215 40.4129 11.9084 40.1017 12.4142C39.4177 13.5257 38.8762 14.7227 38.4939 15.9672C37.9809 17.6392 37.7481 19.4015 37.8312 21.178C37.874 22.1114 38.0046 23.0495 38.2231 23.9805C38.2279 24.0066 38.235 24.0304 38.2421 24.0565C38.2445 24.0684 38.2492 24.0826 38.2516 24.0992C38.9285 26.7189 41.6764 28.2222 44.2604 27.4171C47.165 26.5122 50.7275 25.1466 54.499 23.4414C58.8737 21.463 62.7189 19.3944 65.4287 17.6345C65.5024 17.8197 65.5641 18.005 65.6211 18.1902Z" fill="#371A45"/>
</g>
</g>
<defs>
<clipPath id="clip0_2_64425">
<rect width="95" height="95" rx="8" fill="white"/>
</clipPath>
</defs>
</svg>
