<svg width="834" height="1040" viewBox="0 0 834 1040" fill="none" xmlns="http://www.w3.org/2000/svg">
<rect x="391.711" y="1039.86" width="920.423" height="1557.77" rx="200" transform="rotate(-115.187 391.711 1039.86)" fill="#4E68F6"/>
<rect x="291.5" y="380.5" width="326" height="577" rx="163" stroke="#F0EFFD" stroke-width="3"/>
<rect x="511.5" y="-37.5" width="390" height="671" rx="195" stroke="#F0EFFD" stroke-width="3"/>
<circle cx="371" cy="183" r="4" fill="white"/>
<circle cx="339" cy="183" r="4" fill="white"/>
<circle cx="339" cy="215" r="4" fill="white"/>
<circle cx="339" cy="247" r="4" fill="white"/>
<circle cx="339" cy="279" r="4" fill="white"/>
<circle cx="339" cy="311" r="4" fill="white"/>
<circle cx="307" cy="215" r="4" fill="white"/>
<circle cx="307" cy="247" r="4" fill="white"/>
<circle cx="307" cy="279" r="4" fill="white"/>
<circle cx="371" cy="215" r="4" fill="white"/>
<circle cx="371" cy="247" r="4" fill="white"/>
<circle cx="371" cy="279" r="4" fill="white"/>
<circle cx="371" cy="311" r="4" fill="white"/>
<circle cx="403" cy="215" r="4" fill="white"/>
<circle cx="403" cy="247" r="4" fill="white"/>
<circle cx="403" cy="279" r="4" fill="white"/>
<circle cx="814" cy="698" r="4" fill="white"/>
<circle cx="782" cy="698" r="4" fill="white"/>
<circle cx="782" cy="730" r="4" fill="white"/>
<circle cx="782" cy="762" r="4" fill="white"/>
<circle cx="782" cy="794" r="4" fill="white"/>
<circle cx="782" cy="826" r="4" fill="white"/>
<circle cx="750" cy="730" r="4" fill="white"/>
<circle cx="750" cy="762" r="4" fill="white"/>
<circle cx="750" cy="794" r="4" fill="white"/>
<circle cx="814" cy="730" r="4" fill="white"/>
<circle cx="814" cy="762" r="4" fill="white"/>
<circle cx="814" cy="794" r="4" fill="white"/>
<circle cx="814" cy="826" r="4" fill="white"/>
</svg>
