<svg width="185" height="115" viewBox="0 0 185 115" fill="none" xmlns="http://www.w3.org/2000/svg">
<path d="M184.265 55.9948L128.892 11.9676C108.831 -3.98351 76.1761 -3.99487 56.1147 11.9676L0.756763 55.9948C0.68537 56.0516 0.628256 56.1197 0.571142 56.1878C0.528306 56.2333 0.485471 56.2673 0.442635 56.3127C0.371242 56.3922 0.328407 56.4717 0.285571 56.5511C0.257014 56.5852 0.228457 56.6193 0.214178 56.6647C0.171343 56.7555 0.142785 56.8463 0.114228 56.9371C0.114228 56.9712 0.0856713 57.0053 0.0713927 57.0507C0.0428356 57.1642 0.0285571 57.2891 0.0285571 57.414C0.0285571 57.4253 0.0285571 57.4367 0.0285571 57.448H0C0 57.5843 0.0142785 57.7092 0.0428356 57.8454C0.0428356 57.8908 0.0856713 57.9362 0.0999498 57.9816C0.128507 58.0611 0.157064 58.1406 0.185621 58.22C0.214178 58.2882 0.271292 58.3449 0.29985 58.4017C0.342685 58.4585 0.371242 58.5152 0.414078 58.572C0.514028 58.6855 0.613978 58.7877 0.742485 58.8899L56.1004 102.906C66.1382 110.887 79.3173 114.872 92.4964 114.872C105.676 114.872 118.855 110.887 128.892 102.906L184.25 58.8899C185.25 58.0952 185.25 56.8009 184.25 56.0062L184.265 55.9948ZM92.5107 71.0831L75.3479 57.448L92.5107 43.8016L109.659 57.448L92.5107 71.0831ZM59.7557 14.8626C77.2041 0.977785 105.233 0.512309 123.395 13.4548L71.6783 54.5757C71.0643 54.1329 70.4504 53.7129 69.8078 53.2928C60.6267 47.2757 49.2039 43.9946 37.1385 43.9946C31.2986 43.9946 25.6157 44.7666 20.2613 46.2425L59.7557 14.8626ZM125.266 100.011C107.817 113.884 79.7885 114.361 61.6119 101.419L113.329 60.2977C113.329 60.2977 113.343 60.309 113.357 60.3204C114.171 60.8994 114.999 61.4557 115.842 61.9893C116.013 62.1028 116.185 62.205 116.37 62.3185C117.213 62.8407 118.055 63.3289 118.926 63.8058C127.393 68.4038 137.374 70.8787 147.854 70.8787C153.694 70.8787 159.377 70.1067 164.732 68.6308L125.251 100.022L125.266 100.011Z" fill="#2A2A2A"/>
</svg>
