<svg width="15" height="17" viewBox="0 0 15 17" fill="none" xmlns="http://www.w3.org/2000/svg">
<path d="M2.72717 4.888C2.82134 5.0897 3.00023 5.23916 3.21547 5.29595L6.36241 6.12618C6.64382 6.20042 6.94277 6.10518 7.12937 5.88182C7.31596 5.65847 7.35651 5.34734 7.23339 5.08363L6.68303 3.9048C9.47816 3.31688 12.2771 5.01222 13.0253 7.80464C13.7996 10.6942 12.0848 13.6644 9.1952 14.4386C6.30562 15.2129 3.33549 13.4981 2.56123 10.6085C2.31446 9.68755 2.32045 8.76063 2.5357 7.89894C2.6361 7.49704 2.39168 7.08985 1.98979 6.98945C1.58789 6.88905 1.18069 7.13347 1.0803 7.53537C0.804896 8.63782 0.797863 9.82358 1.11221 10.9968C2.10091 14.6866 5.89361 16.8763 9.58347 15.8876C13.2733 14.8989 15.463 11.1062 14.4743 7.41638C13.4885 3.7372 9.71486 1.54949 6.03511 2.517L5.47056 1.30776C5.34744 1.04405 5.08288 0.875361 4.79184 0.875001C4.50081 0.874641 4.23583 1.04267 4.11206 1.30608L2.72795 4.25171C2.63329 4.45318 2.633 4.6863 2.72717 4.888Z" fill="#CED2E0" stroke="#54565E" stroke-width="0.25" stroke-linejoin="round"/>
</svg>
