<svg width="36" height="36" viewBox="0 0 36 36" fill="none" xmlns="http://www.w3.org/2000/svg">
<circle cx="18" cy="18" r="17" stroke="white"/>
<path d="M7.58523 25V11.9091H12.1619C13.0739 11.9091 13.826 12.0668 14.4183 12.3821C15.0107 12.6932 15.4517 13.1129 15.7415 13.6413C16.0313 14.1655 16.1761 14.7472 16.1761 15.3864C16.1761 15.9489 16.076 16.4134 15.8757 16.7798C15.6797 17.1463 15.4197 17.4361 15.0959 17.6491C14.7763 17.8622 14.429 18.0199 14.054 18.1222V18.25C14.4545 18.2756 14.8572 18.4162 15.2621 18.6719C15.6669 18.9276 16.0057 19.294 16.2784 19.7713C16.5511 20.2486 16.6875 20.8324 16.6875 21.5227C16.6875 22.179 16.5384 22.7692 16.2401 23.2933C15.9418 23.8175 15.4709 24.233 14.8274 24.5398C14.1839 24.8466 13.3466 25 12.3153 25H7.58523ZM9.17045 23.5938H12.3153C13.3509 23.5938 14.0859 23.3935 14.5206 22.9929C14.9595 22.5881 15.179 22.098 15.179 21.5227C15.179 21.0795 15.0661 20.6705 14.8402 20.2955C14.6143 19.9162 14.2926 19.6136 13.875 19.3878C13.4574 19.1577 12.9631 19.0426 12.392 19.0426H9.17045V23.5938ZM9.17045 17.6619H12.1108C12.5881 17.6619 13.0185 17.5682 13.402 17.3807C13.7898 17.1932 14.0966 16.929 14.3224 16.5881C14.5526 16.2472 14.6676 15.8466 14.6676 15.3864C14.6676 14.8111 14.4673 14.3232 14.0668 13.9226C13.6662 13.5178 13.0313 13.3153 12.1619 13.3153H9.17045V17.6619ZM26.9883 25L22.4883 18.9915H20.8775V25H19.2923V11.9091H20.8775V17.5852H21.5678L26.8093 11.9091H28.7014L23.4087 17.6619L28.8803 25H26.9883Z" fill="white"/>
</svg>
